%TF.GenerationSoftware,KiCad,Pcbnew,9.0.8-9.0.8~ubuntu24.04.1*%
%TF.CreationDate,2026-05-30T22:55:34+02:00*%
%TF.ProjectId,sch-14_PowerMeter-DIN-ESP8266,7363682d-3134-45f5-906f-7765724d6574,rev?*%
%TF.SameCoordinates,Original*%
%TF.FileFunction,Legend,Bot*%
%TF.FilePolarity,Positive*%
%FSLAX46Y46*%
G04 Gerber Fmt 4.6, Leading zero omitted, Abs format (unit mm)*
G04 Created by KiCad (PCBNEW 9.0.8-9.0.8~ubuntu24.04.1) date 2026-05-30 22:55:34*
%MOMM*%
%LPD*%
G01*
G04 APERTURE LIST*
%ADD10C,0.150000*%
%ADD11C,0.120000*%
%ADD12C,0.000000*%
G04 APERTURE END LIST*
D10*
X111848935Y-125850057D02*
X111810839Y-125802438D01*
X111810839Y-125802438D02*
X111734649Y-125754819D01*
X111734649Y-125754819D02*
X111544173Y-125754819D01*
X111544173Y-125754819D02*
X111467982Y-125802438D01*
X111467982Y-125802438D02*
X111429887Y-125850057D01*
X111429887Y-125850057D02*
X111391792Y-125945295D01*
X111391792Y-125945295D02*
X111391792Y-126040533D01*
X111391792Y-126040533D02*
X111429887Y-126183390D01*
X111429887Y-126183390D02*
X111887030Y-126754819D01*
X111887030Y-126754819D02*
X111391792Y-126754819D01*
X110667982Y-125754819D02*
X111048934Y-125754819D01*
X111048934Y-125754819D02*
X111087030Y-126231009D01*
X111087030Y-126231009D02*
X111048934Y-126183390D01*
X111048934Y-126183390D02*
X110972744Y-126135771D01*
X110972744Y-126135771D02*
X110782268Y-126135771D01*
X110782268Y-126135771D02*
X110706077Y-126183390D01*
X110706077Y-126183390D02*
X110667982Y-126231009D01*
X110667982Y-126231009D02*
X110629887Y-126326247D01*
X110629887Y-126326247D02*
X110629887Y-126564342D01*
X110629887Y-126564342D02*
X110667982Y-126659580D01*
X110667982Y-126659580D02*
X110706077Y-126707200D01*
X110706077Y-126707200D02*
X110782268Y-126754819D01*
X110782268Y-126754819D02*
X110972744Y-126754819D01*
X110972744Y-126754819D02*
X111048934Y-126707200D01*
X111048934Y-126707200D02*
X111087030Y-126659580D01*
X110134648Y-125754819D02*
X110058458Y-125754819D01*
X110058458Y-125754819D02*
X109982267Y-125802438D01*
X109982267Y-125802438D02*
X109944172Y-125850057D01*
X109944172Y-125850057D02*
X109906077Y-125945295D01*
X109906077Y-125945295D02*
X109867982Y-126135771D01*
X109867982Y-126135771D02*
X109867982Y-126373866D01*
X109867982Y-126373866D02*
X109906077Y-126564342D01*
X109906077Y-126564342D02*
X109944172Y-126659580D01*
X109944172Y-126659580D02*
X109982267Y-126707200D01*
X109982267Y-126707200D02*
X110058458Y-126754819D01*
X110058458Y-126754819D02*
X110134648Y-126754819D01*
X110134648Y-126754819D02*
X110210839Y-126707200D01*
X110210839Y-126707200D02*
X110248934Y-126659580D01*
X110248934Y-126659580D02*
X110287029Y-126564342D01*
X110287029Y-126564342D02*
X110325125Y-126373866D01*
X110325125Y-126373866D02*
X110325125Y-126135771D01*
X110325125Y-126135771D02*
X110287029Y-125945295D01*
X110287029Y-125945295D02*
X110248934Y-125850057D01*
X110248934Y-125850057D02*
X110210839Y-125802438D01*
X110210839Y-125802438D02*
X110134648Y-125754819D01*
X109639410Y-125754819D02*
X109372743Y-126754819D01*
X109372743Y-126754819D02*
X109106077Y-125754819D01*
X108267982Y-125850057D02*
X108229886Y-125802438D01*
X108229886Y-125802438D02*
X108153696Y-125754819D01*
X108153696Y-125754819D02*
X107963220Y-125754819D01*
X107963220Y-125754819D02*
X107887029Y-125802438D01*
X107887029Y-125802438D02*
X107848934Y-125850057D01*
X107848934Y-125850057D02*
X107810839Y-125945295D01*
X107810839Y-125945295D02*
X107810839Y-126040533D01*
X107810839Y-126040533D02*
X107848934Y-126183390D01*
X107848934Y-126183390D02*
X108306077Y-126754819D01*
X108306077Y-126754819D02*
X107810839Y-126754819D01*
X107087029Y-125754819D02*
X107467981Y-125754819D01*
X107467981Y-125754819D02*
X107506077Y-126231009D01*
X107506077Y-126231009D02*
X107467981Y-126183390D01*
X107467981Y-126183390D02*
X107391791Y-126135771D01*
X107391791Y-126135771D02*
X107201315Y-126135771D01*
X107201315Y-126135771D02*
X107125124Y-126183390D01*
X107125124Y-126183390D02*
X107087029Y-126231009D01*
X107087029Y-126231009D02*
X107048934Y-126326247D01*
X107048934Y-126326247D02*
X107048934Y-126564342D01*
X107048934Y-126564342D02*
X107087029Y-126659580D01*
X107087029Y-126659580D02*
X107125124Y-126707200D01*
X107125124Y-126707200D02*
X107201315Y-126754819D01*
X107201315Y-126754819D02*
X107391791Y-126754819D01*
X107391791Y-126754819D02*
X107467981Y-126707200D01*
X107467981Y-126707200D02*
X107506077Y-126659580D01*
X106553695Y-125754819D02*
X106477505Y-125754819D01*
X106477505Y-125754819D02*
X106401314Y-125802438D01*
X106401314Y-125802438D02*
X106363219Y-125850057D01*
X106363219Y-125850057D02*
X106325124Y-125945295D01*
X106325124Y-125945295D02*
X106287029Y-126135771D01*
X106287029Y-126135771D02*
X106287029Y-126373866D01*
X106287029Y-126373866D02*
X106325124Y-126564342D01*
X106325124Y-126564342D02*
X106363219Y-126659580D01*
X106363219Y-126659580D02*
X106401314Y-126707200D01*
X106401314Y-126707200D02*
X106477505Y-126754819D01*
X106477505Y-126754819D02*
X106553695Y-126754819D01*
X106553695Y-126754819D02*
X106629886Y-126707200D01*
X106629886Y-126707200D02*
X106667981Y-126659580D01*
X106667981Y-126659580D02*
X106706076Y-126564342D01*
X106706076Y-126564342D02*
X106744172Y-126373866D01*
X106744172Y-126373866D02*
X106744172Y-126135771D01*
X106744172Y-126135771D02*
X106706076Y-125945295D01*
X106706076Y-125945295D02*
X106667981Y-125850057D01*
X106667981Y-125850057D02*
X106629886Y-125802438D01*
X106629886Y-125802438D02*
X106553695Y-125754819D01*
X105944171Y-126754819D02*
X105944171Y-126088152D01*
X105944171Y-126183390D02*
X105906076Y-126135771D01*
X105906076Y-126135771D02*
X105829886Y-126088152D01*
X105829886Y-126088152D02*
X105715600Y-126088152D01*
X105715600Y-126088152D02*
X105639409Y-126135771D01*
X105639409Y-126135771D02*
X105601314Y-126231009D01*
X105601314Y-126231009D02*
X105601314Y-126754819D01*
X105601314Y-126231009D02*
X105563219Y-126135771D01*
X105563219Y-126135771D02*
X105487028Y-126088152D01*
X105487028Y-126088152D02*
X105372743Y-126088152D01*
X105372743Y-126088152D02*
X105296552Y-126135771D01*
X105296552Y-126135771D02*
X105258457Y-126231009D01*
X105258457Y-126231009D02*
X105258457Y-126754819D01*
X104915600Y-126469104D02*
X104534647Y-126469104D01*
X104991790Y-126754819D02*
X104725123Y-125754819D01*
X104725123Y-125754819D02*
X104458457Y-126754819D01*
X103696552Y-125754819D02*
X103239409Y-125754819D01*
X103467981Y-126754819D02*
X103467981Y-125754819D01*
D11*
X112049624Y-120651617D02*
X112006767Y-120603998D01*
X112006767Y-120603998D02*
X111921053Y-120556379D01*
X111921053Y-120556379D02*
X111706767Y-120556379D01*
X111706767Y-120556379D02*
X111621053Y-120603998D01*
X111621053Y-120603998D02*
X111578195Y-120651617D01*
X111578195Y-120651617D02*
X111535338Y-120746855D01*
X111535338Y-120746855D02*
X111535338Y-120842093D01*
X111535338Y-120842093D02*
X111578195Y-120984950D01*
X111578195Y-120984950D02*
X112092481Y-121556379D01*
X112092481Y-121556379D02*
X111535338Y-121556379D01*
X111235338Y-120556379D02*
X110678195Y-120556379D01*
X110678195Y-120556379D02*
X110978195Y-120937331D01*
X110978195Y-120937331D02*
X110849624Y-120937331D01*
X110849624Y-120937331D02*
X110763910Y-120984950D01*
X110763910Y-120984950D02*
X110721052Y-121032569D01*
X110721052Y-121032569D02*
X110678195Y-121127807D01*
X110678195Y-121127807D02*
X110678195Y-121365902D01*
X110678195Y-121365902D02*
X110721052Y-121461140D01*
X110721052Y-121461140D02*
X110763910Y-121508760D01*
X110763910Y-121508760D02*
X110849624Y-121556379D01*
X110849624Y-121556379D02*
X111106767Y-121556379D01*
X111106767Y-121556379D02*
X111192481Y-121508760D01*
X111192481Y-121508760D02*
X111235338Y-121461140D01*
X110121052Y-120556379D02*
X110035338Y-120556379D01*
X110035338Y-120556379D02*
X109949624Y-120603998D01*
X109949624Y-120603998D02*
X109906767Y-120651617D01*
X109906767Y-120651617D02*
X109863909Y-120746855D01*
X109863909Y-120746855D02*
X109821052Y-120937331D01*
X109821052Y-120937331D02*
X109821052Y-121175426D01*
X109821052Y-121175426D02*
X109863909Y-121365902D01*
X109863909Y-121365902D02*
X109906767Y-121461140D01*
X109906767Y-121461140D02*
X109949624Y-121508760D01*
X109949624Y-121508760D02*
X110035338Y-121556379D01*
X110035338Y-121556379D02*
X110121052Y-121556379D01*
X110121052Y-121556379D02*
X110206767Y-121508760D01*
X110206767Y-121508760D02*
X110249624Y-121461140D01*
X110249624Y-121461140D02*
X110292481Y-121365902D01*
X110292481Y-121365902D02*
X110335338Y-121175426D01*
X110335338Y-121175426D02*
X110335338Y-120937331D01*
X110335338Y-120937331D02*
X110292481Y-120746855D01*
X110292481Y-120746855D02*
X110249624Y-120651617D01*
X110249624Y-120651617D02*
X110206767Y-120603998D01*
X110206767Y-120603998D02*
X110121052Y-120556379D01*
X109563909Y-120556379D02*
X109263909Y-121556379D01*
X109263909Y-121556379D02*
X108963909Y-120556379D01*
X108706766Y-121270664D02*
X108278195Y-121270664D01*
X108792480Y-121556379D02*
X108492480Y-120556379D01*
X108492480Y-120556379D02*
X108192480Y-121556379D01*
X107378194Y-121461140D02*
X107421051Y-121508760D01*
X107421051Y-121508760D02*
X107549623Y-121556379D01*
X107549623Y-121556379D02*
X107635337Y-121556379D01*
X107635337Y-121556379D02*
X107763908Y-121508760D01*
X107763908Y-121508760D02*
X107849623Y-121413521D01*
X107849623Y-121413521D02*
X107892480Y-121318283D01*
X107892480Y-121318283D02*
X107935337Y-121127807D01*
X107935337Y-121127807D02*
X107935337Y-120984950D01*
X107935337Y-120984950D02*
X107892480Y-120794474D01*
X107892480Y-120794474D02*
X107849623Y-120699236D01*
X107849623Y-120699236D02*
X107763908Y-120603998D01*
X107763908Y-120603998D02*
X107635337Y-120556379D01*
X107635337Y-120556379D02*
X107549623Y-120556379D01*
X107549623Y-120556379D02*
X107421051Y-120603998D01*
X107421051Y-120603998D02*
X107378194Y-120651617D01*
X108782957Y-123848902D02*
X108782957Y-122648902D01*
X108782957Y-122648902D02*
X108211529Y-123848902D01*
X108211529Y-123848902D02*
X108211529Y-122648902D01*
X110206767Y-123848902D02*
X110682957Y-123848902D01*
X110682957Y-123848902D02*
X110682957Y-122648902D01*
D10*
X114010839Y-109407242D02*
X113867982Y-109478670D01*
X113867982Y-109478670D02*
X113629887Y-109478670D01*
X113629887Y-109478670D02*
X113534649Y-109407242D01*
X113534649Y-109407242D02*
X113487030Y-109335813D01*
X113487030Y-109335813D02*
X113439411Y-109192956D01*
X113439411Y-109192956D02*
X113439411Y-109050099D01*
X113439411Y-109050099D02*
X113487030Y-108907242D01*
X113487030Y-108907242D02*
X113534649Y-108835813D01*
X113534649Y-108835813D02*
X113629887Y-108764384D01*
X113629887Y-108764384D02*
X113820363Y-108692956D01*
X113820363Y-108692956D02*
X113915601Y-108621527D01*
X113915601Y-108621527D02*
X113963220Y-108550099D01*
X113963220Y-108550099D02*
X114010839Y-108407242D01*
X114010839Y-108407242D02*
X114010839Y-108264384D01*
X114010839Y-108264384D02*
X113963220Y-108121527D01*
X113963220Y-108121527D02*
X113915601Y-108050099D01*
X113915601Y-108050099D02*
X113820363Y-107978670D01*
X113820363Y-107978670D02*
X113582268Y-107978670D01*
X113582268Y-107978670D02*
X113439411Y-108050099D01*
X112582268Y-109407242D02*
X112677506Y-109478670D01*
X112677506Y-109478670D02*
X112867982Y-109478670D01*
X112867982Y-109478670D02*
X112963220Y-109407242D01*
X112963220Y-109407242D02*
X113010839Y-109335813D01*
X113010839Y-109335813D02*
X113058458Y-109192956D01*
X113058458Y-109192956D02*
X113058458Y-108764384D01*
X113058458Y-108764384D02*
X113010839Y-108621527D01*
X113010839Y-108621527D02*
X112963220Y-108550099D01*
X112963220Y-108550099D02*
X112867982Y-108478670D01*
X112867982Y-108478670D02*
X112677506Y-108478670D01*
X112677506Y-108478670D02*
X112582268Y-108550099D01*
X112153696Y-109478670D02*
X112153696Y-107978670D01*
X111725125Y-109478670D02*
X111725125Y-108692956D01*
X111725125Y-108692956D02*
X111772744Y-108550099D01*
X111772744Y-108550099D02*
X111867982Y-108478670D01*
X111867982Y-108478670D02*
X112010839Y-108478670D01*
X112010839Y-108478670D02*
X112106077Y-108550099D01*
X112106077Y-108550099D02*
X112153696Y-108621527D01*
X111248934Y-109335813D02*
X111201315Y-109407242D01*
X111201315Y-109407242D02*
X111248934Y-109478670D01*
X111248934Y-109478670D02*
X111296553Y-109407242D01*
X111296553Y-109407242D02*
X111248934Y-109335813D01*
X111248934Y-109335813D02*
X111248934Y-109478670D01*
X110248935Y-109478670D02*
X110820363Y-109478670D01*
X110534649Y-109478670D02*
X110534649Y-107978670D01*
X110534649Y-107978670D02*
X110629887Y-108192956D01*
X110629887Y-108192956D02*
X110725125Y-108335813D01*
X110725125Y-108335813D02*
X110820363Y-108407242D01*
X109391792Y-108478670D02*
X109391792Y-109478670D01*
X109629887Y-107907242D02*
X109867982Y-108978670D01*
X109867982Y-108978670D02*
X109248935Y-108978670D01*
X107534649Y-109478670D02*
X107867982Y-108764384D01*
X108106077Y-109478670D02*
X108106077Y-107978670D01*
X108106077Y-107978670D02*
X107725125Y-107978670D01*
X107725125Y-107978670D02*
X107629887Y-108050099D01*
X107629887Y-108050099D02*
X107582268Y-108121527D01*
X107582268Y-108121527D02*
X107534649Y-108264384D01*
X107534649Y-108264384D02*
X107534649Y-108478670D01*
X107534649Y-108478670D02*
X107582268Y-108621527D01*
X107582268Y-108621527D02*
X107629887Y-108692956D01*
X107629887Y-108692956D02*
X107725125Y-108764384D01*
X107725125Y-108764384D02*
X108106077Y-108764384D01*
X107106077Y-109335813D02*
X107058458Y-109407242D01*
X107058458Y-109407242D02*
X107106077Y-109478670D01*
X107106077Y-109478670D02*
X107153696Y-109407242D01*
X107153696Y-109407242D02*
X107106077Y-109335813D01*
X107106077Y-109335813D02*
X107106077Y-109478670D01*
X106439411Y-107978670D02*
X106344173Y-107978670D01*
X106344173Y-107978670D02*
X106248935Y-108050099D01*
X106248935Y-108050099D02*
X106201316Y-108121527D01*
X106201316Y-108121527D02*
X106153697Y-108264384D01*
X106153697Y-108264384D02*
X106106078Y-108550099D01*
X106106078Y-108550099D02*
X106106078Y-108907242D01*
X106106078Y-108907242D02*
X106153697Y-109192956D01*
X106153697Y-109192956D02*
X106201316Y-109335813D01*
X106201316Y-109335813D02*
X106248935Y-109407242D01*
X106248935Y-109407242D02*
X106344173Y-109478670D01*
X106344173Y-109478670D02*
X106439411Y-109478670D01*
X106439411Y-109478670D02*
X106534649Y-109407242D01*
X106534649Y-109407242D02*
X106582268Y-109335813D01*
X106582268Y-109335813D02*
X106629887Y-109192956D01*
X106629887Y-109192956D02*
X106677506Y-108907242D01*
X106677506Y-108907242D02*
X106677506Y-108550099D01*
X106677506Y-108550099D02*
X106629887Y-108264384D01*
X106629887Y-108264384D02*
X106582268Y-108121527D01*
X106582268Y-108121527D02*
X106534649Y-108050099D01*
X106534649Y-108050099D02*
X106439411Y-107978670D01*
X105487030Y-107978670D02*
X105391792Y-107978670D01*
X105391792Y-107978670D02*
X105296554Y-108050099D01*
X105296554Y-108050099D02*
X105248935Y-108121527D01*
X105248935Y-108121527D02*
X105201316Y-108264384D01*
X105201316Y-108264384D02*
X105153697Y-108550099D01*
X105153697Y-108550099D02*
X105153697Y-108907242D01*
X105153697Y-108907242D02*
X105201316Y-109192956D01*
X105201316Y-109192956D02*
X105248935Y-109335813D01*
X105248935Y-109335813D02*
X105296554Y-109407242D01*
X105296554Y-109407242D02*
X105391792Y-109478670D01*
X105391792Y-109478670D02*
X105487030Y-109478670D01*
X105487030Y-109478670D02*
X105582268Y-109407242D01*
X105582268Y-109407242D02*
X105629887Y-109335813D01*
X105629887Y-109335813D02*
X105677506Y-109192956D01*
X105677506Y-109192956D02*
X105725125Y-108907242D01*
X105725125Y-108907242D02*
X105725125Y-108550099D01*
X105725125Y-108550099D02*
X105677506Y-108264384D01*
X105677506Y-108264384D02*
X105629887Y-108121527D01*
X105629887Y-108121527D02*
X105582268Y-108050099D01*
X105582268Y-108050099D02*
X105487030Y-107978670D01*
X113772744Y-110393586D02*
X113677506Y-110393586D01*
X113677506Y-110393586D02*
X113582268Y-110465015D01*
X113582268Y-110465015D02*
X113534649Y-110536443D01*
X113534649Y-110536443D02*
X113487030Y-110679300D01*
X113487030Y-110679300D02*
X113439411Y-110965015D01*
X113439411Y-110965015D02*
X113439411Y-111322158D01*
X113439411Y-111322158D02*
X113487030Y-111607872D01*
X113487030Y-111607872D02*
X113534649Y-111750729D01*
X113534649Y-111750729D02*
X113582268Y-111822158D01*
X113582268Y-111822158D02*
X113677506Y-111893586D01*
X113677506Y-111893586D02*
X113772744Y-111893586D01*
X113772744Y-111893586D02*
X113867982Y-111822158D01*
X113867982Y-111822158D02*
X113915601Y-111750729D01*
X113915601Y-111750729D02*
X113963220Y-111607872D01*
X113963220Y-111607872D02*
X114010839Y-111322158D01*
X114010839Y-111322158D02*
X114010839Y-110965015D01*
X114010839Y-110965015D02*
X113963220Y-110679300D01*
X113963220Y-110679300D02*
X113915601Y-110536443D01*
X113915601Y-110536443D02*
X113867982Y-110465015D01*
X113867982Y-110465015D02*
X113772744Y-110393586D01*
X112582268Y-110893586D02*
X112582268Y-111893586D01*
X112820363Y-110322158D02*
X113058458Y-111393586D01*
X113058458Y-111393586D02*
X112439411Y-111393586D01*
X111344173Y-110322158D02*
X112201315Y-112250729D01*
X111058458Y-110536443D02*
X111010839Y-110465015D01*
X111010839Y-110465015D02*
X110915601Y-110393586D01*
X110915601Y-110393586D02*
X110677506Y-110393586D01*
X110677506Y-110393586D02*
X110582268Y-110465015D01*
X110582268Y-110465015D02*
X110534649Y-110536443D01*
X110534649Y-110536443D02*
X110487030Y-110679300D01*
X110487030Y-110679300D02*
X110487030Y-110822158D01*
X110487030Y-110822158D02*
X110534649Y-111036443D01*
X110534649Y-111036443D02*
X111106077Y-111893586D01*
X111106077Y-111893586D02*
X110487030Y-111893586D01*
X109867982Y-110393586D02*
X109772744Y-110393586D01*
X109772744Y-110393586D02*
X109677506Y-110465015D01*
X109677506Y-110465015D02*
X109629887Y-110536443D01*
X109629887Y-110536443D02*
X109582268Y-110679300D01*
X109582268Y-110679300D02*
X109534649Y-110965015D01*
X109534649Y-110965015D02*
X109534649Y-111322158D01*
X109534649Y-111322158D02*
X109582268Y-111607872D01*
X109582268Y-111607872D02*
X109629887Y-111750729D01*
X109629887Y-111750729D02*
X109677506Y-111822158D01*
X109677506Y-111822158D02*
X109772744Y-111893586D01*
X109772744Y-111893586D02*
X109867982Y-111893586D01*
X109867982Y-111893586D02*
X109963220Y-111822158D01*
X109963220Y-111822158D02*
X110010839Y-111750729D01*
X110010839Y-111750729D02*
X110058458Y-111607872D01*
X110058458Y-111607872D02*
X110106077Y-111322158D01*
X110106077Y-111322158D02*
X110106077Y-110965015D01*
X110106077Y-110965015D02*
X110058458Y-110679300D01*
X110058458Y-110679300D02*
X110010839Y-110536443D01*
X110010839Y-110536443D02*
X109963220Y-110465015D01*
X109963220Y-110465015D02*
X109867982Y-110393586D01*
X109153696Y-110536443D02*
X109106077Y-110465015D01*
X109106077Y-110465015D02*
X109010839Y-110393586D01*
X109010839Y-110393586D02*
X108772744Y-110393586D01*
X108772744Y-110393586D02*
X108677506Y-110465015D01*
X108677506Y-110465015D02*
X108629887Y-110536443D01*
X108629887Y-110536443D02*
X108582268Y-110679300D01*
X108582268Y-110679300D02*
X108582268Y-110822158D01*
X108582268Y-110822158D02*
X108629887Y-111036443D01*
X108629887Y-111036443D02*
X109201315Y-111893586D01*
X109201315Y-111893586D02*
X108582268Y-111893586D01*
X107725125Y-110393586D02*
X107915601Y-110393586D01*
X107915601Y-110393586D02*
X108010839Y-110465015D01*
X108010839Y-110465015D02*
X108058458Y-110536443D01*
X108058458Y-110536443D02*
X108153696Y-110750729D01*
X108153696Y-110750729D02*
X108201315Y-111036443D01*
X108201315Y-111036443D02*
X108201315Y-111607872D01*
X108201315Y-111607872D02*
X108153696Y-111750729D01*
X108153696Y-111750729D02*
X108106077Y-111822158D01*
X108106077Y-111822158D02*
X108010839Y-111893586D01*
X108010839Y-111893586D02*
X107820363Y-111893586D01*
X107820363Y-111893586D02*
X107725125Y-111822158D01*
X107725125Y-111822158D02*
X107677506Y-111750729D01*
X107677506Y-111750729D02*
X107629887Y-111607872D01*
X107629887Y-111607872D02*
X107629887Y-111250729D01*
X107629887Y-111250729D02*
X107677506Y-111107872D01*
X107677506Y-111107872D02*
X107725125Y-111036443D01*
X107725125Y-111036443D02*
X107820363Y-110965015D01*
X107820363Y-110965015D02*
X108010839Y-110965015D01*
X108010839Y-110965015D02*
X108106077Y-111036443D01*
X108106077Y-111036443D02*
X108153696Y-111107872D01*
X108153696Y-111107872D02*
X108201315Y-111250729D01*
D11*
X107435338Y-56716260D02*
X106521053Y-56716260D01*
X112435338Y-56716260D02*
X111521053Y-56716260D01*
X111978195Y-57287688D02*
X111978195Y-56144831D01*
D10*
X114672744Y-54357557D02*
X114101316Y-54357557D01*
X114787030Y-54786128D02*
X114387030Y-53286128D01*
X114387030Y-53286128D02*
X113987030Y-54786128D01*
X113415602Y-54786128D02*
X113529887Y-54714700D01*
X113529887Y-54714700D02*
X113587030Y-54571842D01*
X113587030Y-54571842D02*
X113587030Y-53286128D01*
X112958459Y-54786128D02*
X112958459Y-53786128D01*
X112958459Y-53286128D02*
X113015602Y-53357557D01*
X113015602Y-53357557D02*
X112958459Y-53428985D01*
X112958459Y-53428985D02*
X112901316Y-53357557D01*
X112901316Y-53357557D02*
X112958459Y-53286128D01*
X112958459Y-53286128D02*
X112958459Y-53428985D01*
X112387030Y-54786128D02*
X112387030Y-53786128D01*
X112387030Y-53928985D02*
X112329887Y-53857557D01*
X112329887Y-53857557D02*
X112215602Y-53786128D01*
X112215602Y-53786128D02*
X112044173Y-53786128D01*
X112044173Y-53786128D02*
X111929887Y-53857557D01*
X111929887Y-53857557D02*
X111872745Y-54000414D01*
X111872745Y-54000414D02*
X111872745Y-54786128D01*
X111872745Y-54000414D02*
X111815602Y-53857557D01*
X111815602Y-53857557D02*
X111701316Y-53786128D01*
X111701316Y-53786128D02*
X111529887Y-53786128D01*
X111529887Y-53786128D02*
X111415602Y-53857557D01*
X111415602Y-53857557D02*
X111358459Y-54000414D01*
X111358459Y-54000414D02*
X111358459Y-54786128D01*
X110787030Y-54643271D02*
X110729887Y-54714700D01*
X110729887Y-54714700D02*
X110787030Y-54786128D01*
X110787030Y-54786128D02*
X110844173Y-54714700D01*
X110844173Y-54714700D02*
X110787030Y-54643271D01*
X110787030Y-54643271D02*
X110787030Y-54786128D01*
X109301315Y-54214700D02*
X108387030Y-54214700D01*
X108844172Y-54786128D02*
X108844172Y-53643271D01*
X107244173Y-53286128D02*
X107815601Y-53286128D01*
X107815601Y-53286128D02*
X107872744Y-54000414D01*
X107872744Y-54000414D02*
X107815601Y-53928985D01*
X107815601Y-53928985D02*
X107701316Y-53857557D01*
X107701316Y-53857557D02*
X107415601Y-53857557D01*
X107415601Y-53857557D02*
X107301316Y-53928985D01*
X107301316Y-53928985D02*
X107244173Y-54000414D01*
X107244173Y-54000414D02*
X107187030Y-54143271D01*
X107187030Y-54143271D02*
X107187030Y-54500414D01*
X107187030Y-54500414D02*
X107244173Y-54643271D01*
X107244173Y-54643271D02*
X107301316Y-54714700D01*
X107301316Y-54714700D02*
X107415601Y-54786128D01*
X107415601Y-54786128D02*
X107701316Y-54786128D01*
X107701316Y-54786128D02*
X107815601Y-54714700D01*
X107815601Y-54714700D02*
X107872744Y-54643271D01*
X106844173Y-53286128D02*
X106444173Y-54786128D01*
X106444173Y-54786128D02*
X106044173Y-53286128D01*
X105644173Y-54786128D02*
X105644173Y-53286128D01*
X105644173Y-53286128D02*
X105358459Y-53286128D01*
X105358459Y-53286128D02*
X105187030Y-53357557D01*
X105187030Y-53357557D02*
X105072745Y-53500414D01*
X105072745Y-53500414D02*
X105015602Y-53643271D01*
X105015602Y-53643271D02*
X104958459Y-53928985D01*
X104958459Y-53928985D02*
X104958459Y-54143271D01*
X104958459Y-54143271D02*
X105015602Y-54428985D01*
X105015602Y-54428985D02*
X105072745Y-54571842D01*
X105072745Y-54571842D02*
X105187030Y-54714700D01*
X105187030Y-54714700D02*
X105358459Y-54786128D01*
X105358459Y-54786128D02*
X105644173Y-54786128D01*
X103758459Y-54643271D02*
X103815602Y-54714700D01*
X103815602Y-54714700D02*
X103987030Y-54786128D01*
X103987030Y-54786128D02*
X104101316Y-54786128D01*
X104101316Y-54786128D02*
X104272745Y-54714700D01*
X104272745Y-54714700D02*
X104387030Y-54571842D01*
X104387030Y-54571842D02*
X104444173Y-54428985D01*
X104444173Y-54428985D02*
X104501316Y-54143271D01*
X104501316Y-54143271D02*
X104501316Y-53928985D01*
X104501316Y-53928985D02*
X104444173Y-53643271D01*
X104444173Y-53643271D02*
X104387030Y-53500414D01*
X104387030Y-53500414D02*
X104272745Y-53357557D01*
X104272745Y-53357557D02*
X104101316Y-53286128D01*
X104101316Y-53286128D02*
X103987030Y-53286128D01*
X103987030Y-53286128D02*
X103815602Y-53357557D01*
X103815602Y-53357557D02*
X103758459Y-53428985D01*
X157214819Y-102855714D02*
X156738628Y-102589047D01*
X157214819Y-102398571D02*
X156214819Y-102398571D01*
X156214819Y-102398571D02*
X156214819Y-102703333D01*
X156214819Y-102703333D02*
X156262438Y-102779523D01*
X156262438Y-102779523D02*
X156310057Y-102817618D01*
X156310057Y-102817618D02*
X156405295Y-102855714D01*
X156405295Y-102855714D02*
X156548152Y-102855714D01*
X156548152Y-102855714D02*
X156643390Y-102817618D01*
X156643390Y-102817618D02*
X156691009Y-102779523D01*
X156691009Y-102779523D02*
X156738628Y-102703333D01*
X156738628Y-102703333D02*
X156738628Y-102398571D01*
X156214819Y-103122380D02*
X156214819Y-103617618D01*
X156214819Y-103617618D02*
X156595771Y-103350952D01*
X156595771Y-103350952D02*
X156595771Y-103465237D01*
X156595771Y-103465237D02*
X156643390Y-103541428D01*
X156643390Y-103541428D02*
X156691009Y-103579523D01*
X156691009Y-103579523D02*
X156786247Y-103617618D01*
X156786247Y-103617618D02*
X157024342Y-103617618D01*
X157024342Y-103617618D02*
X157119580Y-103579523D01*
X157119580Y-103579523D02*
X157167200Y-103541428D01*
X157167200Y-103541428D02*
X157214819Y-103465237D01*
X157214819Y-103465237D02*
X157214819Y-103236666D01*
X157214819Y-103236666D02*
X157167200Y-103160475D01*
X157167200Y-103160475D02*
X157119580Y-103122380D01*
X157214819Y-104379523D02*
X157214819Y-103922380D01*
X157214819Y-104150952D02*
X156214819Y-104150952D01*
X156214819Y-104150952D02*
X156357676Y-104074761D01*
X156357676Y-104074761D02*
X156452914Y-103998571D01*
X156452914Y-103998571D02*
X156500533Y-103922380D01*
X155199580Y-113725714D02*
X155247200Y-113687618D01*
X155247200Y-113687618D02*
X155294819Y-113573333D01*
X155294819Y-113573333D02*
X155294819Y-113497142D01*
X155294819Y-113497142D02*
X155247200Y-113382856D01*
X155247200Y-113382856D02*
X155151961Y-113306666D01*
X155151961Y-113306666D02*
X155056723Y-113268571D01*
X155056723Y-113268571D02*
X154866247Y-113230475D01*
X154866247Y-113230475D02*
X154723390Y-113230475D01*
X154723390Y-113230475D02*
X154532914Y-113268571D01*
X154532914Y-113268571D02*
X154437676Y-113306666D01*
X154437676Y-113306666D02*
X154342438Y-113382856D01*
X154342438Y-113382856D02*
X154294819Y-113497142D01*
X154294819Y-113497142D02*
X154294819Y-113573333D01*
X154294819Y-113573333D02*
X154342438Y-113687618D01*
X154342438Y-113687618D02*
X154390057Y-113725714D01*
X155294819Y-114487618D02*
X155294819Y-114030475D01*
X155294819Y-114259047D02*
X154294819Y-114259047D01*
X154294819Y-114259047D02*
X154437676Y-114182856D01*
X154437676Y-114182856D02*
X154532914Y-114106666D01*
X154532914Y-114106666D02*
X154580533Y-114030475D01*
X154390057Y-114792380D02*
X154342438Y-114830476D01*
X154342438Y-114830476D02*
X154294819Y-114906666D01*
X154294819Y-114906666D02*
X154294819Y-115097142D01*
X154294819Y-115097142D02*
X154342438Y-115173333D01*
X154342438Y-115173333D02*
X154390057Y-115211428D01*
X154390057Y-115211428D02*
X154485295Y-115249523D01*
X154485295Y-115249523D02*
X154580533Y-115249523D01*
X154580533Y-115249523D02*
X154723390Y-115211428D01*
X154723390Y-115211428D02*
X155294819Y-114754285D01*
X155294819Y-114754285D02*
X155294819Y-115249523D01*
X153574819Y-102855714D02*
X153098628Y-102589047D01*
X153574819Y-102398571D02*
X152574819Y-102398571D01*
X152574819Y-102398571D02*
X152574819Y-102703333D01*
X152574819Y-102703333D02*
X152622438Y-102779523D01*
X152622438Y-102779523D02*
X152670057Y-102817618D01*
X152670057Y-102817618D02*
X152765295Y-102855714D01*
X152765295Y-102855714D02*
X152908152Y-102855714D01*
X152908152Y-102855714D02*
X153003390Y-102817618D01*
X153003390Y-102817618D02*
X153051009Y-102779523D01*
X153051009Y-102779523D02*
X153098628Y-102703333D01*
X153098628Y-102703333D02*
X153098628Y-102398571D01*
X152574819Y-103122380D02*
X152574819Y-103617618D01*
X152574819Y-103617618D02*
X152955771Y-103350952D01*
X152955771Y-103350952D02*
X152955771Y-103465237D01*
X152955771Y-103465237D02*
X153003390Y-103541428D01*
X153003390Y-103541428D02*
X153051009Y-103579523D01*
X153051009Y-103579523D02*
X153146247Y-103617618D01*
X153146247Y-103617618D02*
X153384342Y-103617618D01*
X153384342Y-103617618D02*
X153479580Y-103579523D01*
X153479580Y-103579523D02*
X153527200Y-103541428D01*
X153527200Y-103541428D02*
X153574819Y-103465237D01*
X153574819Y-103465237D02*
X153574819Y-103236666D01*
X153574819Y-103236666D02*
X153527200Y-103160475D01*
X153527200Y-103160475D02*
X153479580Y-103122380D01*
X152670057Y-103922380D02*
X152622438Y-103960476D01*
X152622438Y-103960476D02*
X152574819Y-104036666D01*
X152574819Y-104036666D02*
X152574819Y-104227142D01*
X152574819Y-104227142D02*
X152622438Y-104303333D01*
X152622438Y-104303333D02*
X152670057Y-104341428D01*
X152670057Y-104341428D02*
X152765295Y-104379523D01*
X152765295Y-104379523D02*
X152860533Y-104379523D01*
X152860533Y-104379523D02*
X153003390Y-104341428D01*
X153003390Y-104341428D02*
X153574819Y-103884285D01*
X153574819Y-103884285D02*
X153574819Y-104379523D01*
X158874819Y-127286667D02*
X158398628Y-127020000D01*
X158874819Y-126829524D02*
X157874819Y-126829524D01*
X157874819Y-126829524D02*
X157874819Y-127134286D01*
X157874819Y-127134286D02*
X157922438Y-127210476D01*
X157922438Y-127210476D02*
X157970057Y-127248571D01*
X157970057Y-127248571D02*
X158065295Y-127286667D01*
X158065295Y-127286667D02*
X158208152Y-127286667D01*
X158208152Y-127286667D02*
X158303390Y-127248571D01*
X158303390Y-127248571D02*
X158351009Y-127210476D01*
X158351009Y-127210476D02*
X158398628Y-127134286D01*
X158398628Y-127134286D02*
X158398628Y-126829524D01*
X157874819Y-127972381D02*
X157874819Y-127820000D01*
X157874819Y-127820000D02*
X157922438Y-127743809D01*
X157922438Y-127743809D02*
X157970057Y-127705714D01*
X157970057Y-127705714D02*
X158112914Y-127629524D01*
X158112914Y-127629524D02*
X158303390Y-127591428D01*
X158303390Y-127591428D02*
X158684342Y-127591428D01*
X158684342Y-127591428D02*
X158779580Y-127629524D01*
X158779580Y-127629524D02*
X158827200Y-127667619D01*
X158827200Y-127667619D02*
X158874819Y-127743809D01*
X158874819Y-127743809D02*
X158874819Y-127896190D01*
X158874819Y-127896190D02*
X158827200Y-127972381D01*
X158827200Y-127972381D02*
X158779580Y-128010476D01*
X158779580Y-128010476D02*
X158684342Y-128048571D01*
X158684342Y-128048571D02*
X158446247Y-128048571D01*
X158446247Y-128048571D02*
X158351009Y-128010476D01*
X158351009Y-128010476D02*
X158303390Y-127972381D01*
X158303390Y-127972381D02*
X158255771Y-127896190D01*
X158255771Y-127896190D02*
X158255771Y-127743809D01*
X158255771Y-127743809D02*
X158303390Y-127667619D01*
X158303390Y-127667619D02*
X158351009Y-127629524D01*
X158351009Y-127629524D02*
X158446247Y-127591428D01*
X114599819Y-120730714D02*
X114123628Y-120464047D01*
X114599819Y-120273571D02*
X113599819Y-120273571D01*
X113599819Y-120273571D02*
X113599819Y-120578333D01*
X113599819Y-120578333D02*
X113647438Y-120654523D01*
X113647438Y-120654523D02*
X113695057Y-120692618D01*
X113695057Y-120692618D02*
X113790295Y-120730714D01*
X113790295Y-120730714D02*
X113933152Y-120730714D01*
X113933152Y-120730714D02*
X114028390Y-120692618D01*
X114028390Y-120692618D02*
X114076009Y-120654523D01*
X114076009Y-120654523D02*
X114123628Y-120578333D01*
X114123628Y-120578333D02*
X114123628Y-120273571D01*
X113695057Y-121035475D02*
X113647438Y-121073571D01*
X113647438Y-121073571D02*
X113599819Y-121149761D01*
X113599819Y-121149761D02*
X113599819Y-121340237D01*
X113599819Y-121340237D02*
X113647438Y-121416428D01*
X113647438Y-121416428D02*
X113695057Y-121454523D01*
X113695057Y-121454523D02*
X113790295Y-121492618D01*
X113790295Y-121492618D02*
X113885533Y-121492618D01*
X113885533Y-121492618D02*
X114028390Y-121454523D01*
X114028390Y-121454523D02*
X114599819Y-120997380D01*
X114599819Y-120997380D02*
X114599819Y-121492618D01*
X114599819Y-121873571D02*
X114599819Y-122025952D01*
X114599819Y-122025952D02*
X114552200Y-122102142D01*
X114552200Y-122102142D02*
X114504580Y-122140238D01*
X114504580Y-122140238D02*
X114361723Y-122216428D01*
X114361723Y-122216428D02*
X114171247Y-122254523D01*
X114171247Y-122254523D02*
X113790295Y-122254523D01*
X113790295Y-122254523D02*
X113695057Y-122216428D01*
X113695057Y-122216428D02*
X113647438Y-122178333D01*
X113647438Y-122178333D02*
X113599819Y-122102142D01*
X113599819Y-122102142D02*
X113599819Y-121949761D01*
X113599819Y-121949761D02*
X113647438Y-121873571D01*
X113647438Y-121873571D02*
X113695057Y-121835476D01*
X113695057Y-121835476D02*
X113790295Y-121797380D01*
X113790295Y-121797380D02*
X114028390Y-121797380D01*
X114028390Y-121797380D02*
X114123628Y-121835476D01*
X114123628Y-121835476D02*
X114171247Y-121873571D01*
X114171247Y-121873571D02*
X114218866Y-121949761D01*
X114218866Y-121949761D02*
X114218866Y-122102142D01*
X114218866Y-122102142D02*
X114171247Y-122178333D01*
X114171247Y-122178333D02*
X114123628Y-122216428D01*
X114123628Y-122216428D02*
X114028390Y-122254523D01*
X151874819Y-118025714D02*
X151398628Y-117759047D01*
X151874819Y-117568571D02*
X150874819Y-117568571D01*
X150874819Y-117568571D02*
X150874819Y-117873333D01*
X150874819Y-117873333D02*
X150922438Y-117949523D01*
X150922438Y-117949523D02*
X150970057Y-117987618D01*
X150970057Y-117987618D02*
X151065295Y-118025714D01*
X151065295Y-118025714D02*
X151208152Y-118025714D01*
X151208152Y-118025714D02*
X151303390Y-117987618D01*
X151303390Y-117987618D02*
X151351009Y-117949523D01*
X151351009Y-117949523D02*
X151398628Y-117873333D01*
X151398628Y-117873333D02*
X151398628Y-117568571D01*
X151874819Y-118787618D02*
X151874819Y-118330475D01*
X151874819Y-118559047D02*
X150874819Y-118559047D01*
X150874819Y-118559047D02*
X151017676Y-118482856D01*
X151017676Y-118482856D02*
X151112914Y-118406666D01*
X151112914Y-118406666D02*
X151160533Y-118330475D01*
X150874819Y-119473333D02*
X150874819Y-119320952D01*
X150874819Y-119320952D02*
X150922438Y-119244761D01*
X150922438Y-119244761D02*
X150970057Y-119206666D01*
X150970057Y-119206666D02*
X151112914Y-119130476D01*
X151112914Y-119130476D02*
X151303390Y-119092380D01*
X151303390Y-119092380D02*
X151684342Y-119092380D01*
X151684342Y-119092380D02*
X151779580Y-119130476D01*
X151779580Y-119130476D02*
X151827200Y-119168571D01*
X151827200Y-119168571D02*
X151874819Y-119244761D01*
X151874819Y-119244761D02*
X151874819Y-119397142D01*
X151874819Y-119397142D02*
X151827200Y-119473333D01*
X151827200Y-119473333D02*
X151779580Y-119511428D01*
X151779580Y-119511428D02*
X151684342Y-119549523D01*
X151684342Y-119549523D02*
X151446247Y-119549523D01*
X151446247Y-119549523D02*
X151351009Y-119511428D01*
X151351009Y-119511428D02*
X151303390Y-119473333D01*
X151303390Y-119473333D02*
X151255771Y-119397142D01*
X151255771Y-119397142D02*
X151255771Y-119244761D01*
X151255771Y-119244761D02*
X151303390Y-119168571D01*
X151303390Y-119168571D02*
X151351009Y-119130476D01*
X151351009Y-119130476D02*
X151446247Y-119092380D01*
X149999580Y-102855714D02*
X150047200Y-102817618D01*
X150047200Y-102817618D02*
X150094819Y-102703333D01*
X150094819Y-102703333D02*
X150094819Y-102627142D01*
X150094819Y-102627142D02*
X150047200Y-102512856D01*
X150047200Y-102512856D02*
X149951961Y-102436666D01*
X149951961Y-102436666D02*
X149856723Y-102398571D01*
X149856723Y-102398571D02*
X149666247Y-102360475D01*
X149666247Y-102360475D02*
X149523390Y-102360475D01*
X149523390Y-102360475D02*
X149332914Y-102398571D01*
X149332914Y-102398571D02*
X149237676Y-102436666D01*
X149237676Y-102436666D02*
X149142438Y-102512856D01*
X149142438Y-102512856D02*
X149094819Y-102627142D01*
X149094819Y-102627142D02*
X149094819Y-102703333D01*
X149094819Y-102703333D02*
X149142438Y-102817618D01*
X149142438Y-102817618D02*
X149190057Y-102855714D01*
X150094819Y-103617618D02*
X150094819Y-103160475D01*
X150094819Y-103389047D02*
X149094819Y-103389047D01*
X149094819Y-103389047D02*
X149237676Y-103312856D01*
X149237676Y-103312856D02*
X149332914Y-103236666D01*
X149332914Y-103236666D02*
X149380533Y-103160475D01*
X149094819Y-104341428D02*
X149094819Y-103960476D01*
X149094819Y-103960476D02*
X149571009Y-103922380D01*
X149571009Y-103922380D02*
X149523390Y-103960476D01*
X149523390Y-103960476D02*
X149475771Y-104036666D01*
X149475771Y-104036666D02*
X149475771Y-104227142D01*
X149475771Y-104227142D02*
X149523390Y-104303333D01*
X149523390Y-104303333D02*
X149571009Y-104341428D01*
X149571009Y-104341428D02*
X149666247Y-104379523D01*
X149666247Y-104379523D02*
X149904342Y-104379523D01*
X149904342Y-104379523D02*
X149999580Y-104341428D01*
X149999580Y-104341428D02*
X150047200Y-104303333D01*
X150047200Y-104303333D02*
X150094819Y-104227142D01*
X150094819Y-104227142D02*
X150094819Y-104036666D01*
X150094819Y-104036666D02*
X150047200Y-103960476D01*
X150047200Y-103960476D02*
X149999580Y-103922380D01*
X170499580Y-110105714D02*
X170547200Y-110067618D01*
X170547200Y-110067618D02*
X170594819Y-109953333D01*
X170594819Y-109953333D02*
X170594819Y-109877142D01*
X170594819Y-109877142D02*
X170547200Y-109762856D01*
X170547200Y-109762856D02*
X170451961Y-109686666D01*
X170451961Y-109686666D02*
X170356723Y-109648571D01*
X170356723Y-109648571D02*
X170166247Y-109610475D01*
X170166247Y-109610475D02*
X170023390Y-109610475D01*
X170023390Y-109610475D02*
X169832914Y-109648571D01*
X169832914Y-109648571D02*
X169737676Y-109686666D01*
X169737676Y-109686666D02*
X169642438Y-109762856D01*
X169642438Y-109762856D02*
X169594819Y-109877142D01*
X169594819Y-109877142D02*
X169594819Y-109953333D01*
X169594819Y-109953333D02*
X169642438Y-110067618D01*
X169642438Y-110067618D02*
X169690057Y-110105714D01*
X170594819Y-110867618D02*
X170594819Y-110410475D01*
X170594819Y-110639047D02*
X169594819Y-110639047D01*
X169594819Y-110639047D02*
X169737676Y-110562856D01*
X169737676Y-110562856D02*
X169832914Y-110486666D01*
X169832914Y-110486666D02*
X169880533Y-110410475D01*
X169594819Y-111134285D02*
X169594819Y-111629523D01*
X169594819Y-111629523D02*
X169975771Y-111362857D01*
X169975771Y-111362857D02*
X169975771Y-111477142D01*
X169975771Y-111477142D02*
X170023390Y-111553333D01*
X170023390Y-111553333D02*
X170071009Y-111591428D01*
X170071009Y-111591428D02*
X170166247Y-111629523D01*
X170166247Y-111629523D02*
X170404342Y-111629523D01*
X170404342Y-111629523D02*
X170499580Y-111591428D01*
X170499580Y-111591428D02*
X170547200Y-111553333D01*
X170547200Y-111553333D02*
X170594819Y-111477142D01*
X170594819Y-111477142D02*
X170594819Y-111248571D01*
X170594819Y-111248571D02*
X170547200Y-111172380D01*
X170547200Y-111172380D02*
X170499580Y-111134285D01*
X114349285Y-115359819D02*
X114615952Y-114883628D01*
X114806428Y-115359819D02*
X114806428Y-114359819D01*
X114806428Y-114359819D02*
X114501666Y-114359819D01*
X114501666Y-114359819D02*
X114425476Y-114407438D01*
X114425476Y-114407438D02*
X114387381Y-114455057D01*
X114387381Y-114455057D02*
X114349285Y-114550295D01*
X114349285Y-114550295D02*
X114349285Y-114693152D01*
X114349285Y-114693152D02*
X114387381Y-114788390D01*
X114387381Y-114788390D02*
X114425476Y-114836009D01*
X114425476Y-114836009D02*
X114501666Y-114883628D01*
X114501666Y-114883628D02*
X114806428Y-114883628D01*
X114082619Y-114359819D02*
X113587381Y-114359819D01*
X113587381Y-114359819D02*
X113854047Y-114740771D01*
X113854047Y-114740771D02*
X113739762Y-114740771D01*
X113739762Y-114740771D02*
X113663571Y-114788390D01*
X113663571Y-114788390D02*
X113625476Y-114836009D01*
X113625476Y-114836009D02*
X113587381Y-114931247D01*
X113587381Y-114931247D02*
X113587381Y-115169342D01*
X113587381Y-115169342D02*
X113625476Y-115264580D01*
X113625476Y-115264580D02*
X113663571Y-115312200D01*
X113663571Y-115312200D02*
X113739762Y-115359819D01*
X113739762Y-115359819D02*
X113968333Y-115359819D01*
X113968333Y-115359819D02*
X114044524Y-115312200D01*
X114044524Y-115312200D02*
X114082619Y-115264580D01*
X113092142Y-114359819D02*
X113015952Y-114359819D01*
X113015952Y-114359819D02*
X112939761Y-114407438D01*
X112939761Y-114407438D02*
X112901666Y-114455057D01*
X112901666Y-114455057D02*
X112863571Y-114550295D01*
X112863571Y-114550295D02*
X112825476Y-114740771D01*
X112825476Y-114740771D02*
X112825476Y-114978866D01*
X112825476Y-114978866D02*
X112863571Y-115169342D01*
X112863571Y-115169342D02*
X112901666Y-115264580D01*
X112901666Y-115264580D02*
X112939761Y-115312200D01*
X112939761Y-115312200D02*
X113015952Y-115359819D01*
X113015952Y-115359819D02*
X113092142Y-115359819D01*
X113092142Y-115359819D02*
X113168333Y-115312200D01*
X113168333Y-115312200D02*
X113206428Y-115264580D01*
X113206428Y-115264580D02*
X113244523Y-115169342D01*
X113244523Y-115169342D02*
X113282619Y-114978866D01*
X113282619Y-114978866D02*
X113282619Y-114740771D01*
X113282619Y-114740771D02*
X113244523Y-114550295D01*
X113244523Y-114550295D02*
X113206428Y-114455057D01*
X113206428Y-114455057D02*
X113168333Y-114407438D01*
X113168333Y-114407438D02*
X113092142Y-114359819D01*
X158844580Y-122505714D02*
X158892200Y-122467618D01*
X158892200Y-122467618D02*
X158939819Y-122353333D01*
X158939819Y-122353333D02*
X158939819Y-122277142D01*
X158939819Y-122277142D02*
X158892200Y-122162856D01*
X158892200Y-122162856D02*
X158796961Y-122086666D01*
X158796961Y-122086666D02*
X158701723Y-122048571D01*
X158701723Y-122048571D02*
X158511247Y-122010475D01*
X158511247Y-122010475D02*
X158368390Y-122010475D01*
X158368390Y-122010475D02*
X158177914Y-122048571D01*
X158177914Y-122048571D02*
X158082676Y-122086666D01*
X158082676Y-122086666D02*
X157987438Y-122162856D01*
X157987438Y-122162856D02*
X157939819Y-122277142D01*
X157939819Y-122277142D02*
X157939819Y-122353333D01*
X157939819Y-122353333D02*
X157987438Y-122467618D01*
X157987438Y-122467618D02*
X158035057Y-122505714D01*
X158939819Y-123267618D02*
X158939819Y-122810475D01*
X158939819Y-123039047D02*
X157939819Y-123039047D01*
X157939819Y-123039047D02*
X158082676Y-122962856D01*
X158082676Y-122962856D02*
X158177914Y-122886666D01*
X158177914Y-122886666D02*
X158225533Y-122810475D01*
X158939819Y-124029523D02*
X158939819Y-123572380D01*
X158939819Y-123800952D02*
X157939819Y-123800952D01*
X157939819Y-123800952D02*
X158082676Y-123724761D01*
X158082676Y-123724761D02*
X158177914Y-123648571D01*
X158177914Y-123648571D02*
X158225533Y-123572380D01*
X164574819Y-110105714D02*
X164098628Y-109839047D01*
X164574819Y-109648571D02*
X163574819Y-109648571D01*
X163574819Y-109648571D02*
X163574819Y-109953333D01*
X163574819Y-109953333D02*
X163622438Y-110029523D01*
X163622438Y-110029523D02*
X163670057Y-110067618D01*
X163670057Y-110067618D02*
X163765295Y-110105714D01*
X163765295Y-110105714D02*
X163908152Y-110105714D01*
X163908152Y-110105714D02*
X164003390Y-110067618D01*
X164003390Y-110067618D02*
X164051009Y-110029523D01*
X164051009Y-110029523D02*
X164098628Y-109953333D01*
X164098628Y-109953333D02*
X164098628Y-109648571D01*
X164574819Y-110867618D02*
X164574819Y-110410475D01*
X164574819Y-110639047D02*
X163574819Y-110639047D01*
X163574819Y-110639047D02*
X163717676Y-110562856D01*
X163717676Y-110562856D02*
X163812914Y-110486666D01*
X163812914Y-110486666D02*
X163860533Y-110410475D01*
X164003390Y-111324761D02*
X163955771Y-111248571D01*
X163955771Y-111248571D02*
X163908152Y-111210476D01*
X163908152Y-111210476D02*
X163812914Y-111172380D01*
X163812914Y-111172380D02*
X163765295Y-111172380D01*
X163765295Y-111172380D02*
X163670057Y-111210476D01*
X163670057Y-111210476D02*
X163622438Y-111248571D01*
X163622438Y-111248571D02*
X163574819Y-111324761D01*
X163574819Y-111324761D02*
X163574819Y-111477142D01*
X163574819Y-111477142D02*
X163622438Y-111553333D01*
X163622438Y-111553333D02*
X163670057Y-111591428D01*
X163670057Y-111591428D02*
X163765295Y-111629523D01*
X163765295Y-111629523D02*
X163812914Y-111629523D01*
X163812914Y-111629523D02*
X163908152Y-111591428D01*
X163908152Y-111591428D02*
X163955771Y-111553333D01*
X163955771Y-111553333D02*
X164003390Y-111477142D01*
X164003390Y-111477142D02*
X164003390Y-111324761D01*
X164003390Y-111324761D02*
X164051009Y-111248571D01*
X164051009Y-111248571D02*
X164098628Y-111210476D01*
X164098628Y-111210476D02*
X164193866Y-111172380D01*
X164193866Y-111172380D02*
X164384342Y-111172380D01*
X164384342Y-111172380D02*
X164479580Y-111210476D01*
X164479580Y-111210476D02*
X164527200Y-111248571D01*
X164527200Y-111248571D02*
X164574819Y-111324761D01*
X164574819Y-111324761D02*
X164574819Y-111477142D01*
X164574819Y-111477142D02*
X164527200Y-111553333D01*
X164527200Y-111553333D02*
X164479580Y-111591428D01*
X164479580Y-111591428D02*
X164384342Y-111629523D01*
X164384342Y-111629523D02*
X164193866Y-111629523D01*
X164193866Y-111629523D02*
X164098628Y-111591428D01*
X164098628Y-111591428D02*
X164051009Y-111553333D01*
X164051009Y-111553333D02*
X164003390Y-111477142D01*
X148889819Y-94884524D02*
X147889819Y-94884524D01*
X147889819Y-94884524D02*
X147889819Y-95075000D01*
X147889819Y-95075000D02*
X147937438Y-95189286D01*
X147937438Y-95189286D02*
X148032676Y-95265476D01*
X148032676Y-95265476D02*
X148127914Y-95303571D01*
X148127914Y-95303571D02*
X148318390Y-95341667D01*
X148318390Y-95341667D02*
X148461247Y-95341667D01*
X148461247Y-95341667D02*
X148651723Y-95303571D01*
X148651723Y-95303571D02*
X148746961Y-95265476D01*
X148746961Y-95265476D02*
X148842200Y-95189286D01*
X148842200Y-95189286D02*
X148889819Y-95075000D01*
X148889819Y-95075000D02*
X148889819Y-94884524D01*
X147889819Y-95608333D02*
X147889819Y-96103571D01*
X147889819Y-96103571D02*
X148270771Y-95836905D01*
X148270771Y-95836905D02*
X148270771Y-95951190D01*
X148270771Y-95951190D02*
X148318390Y-96027381D01*
X148318390Y-96027381D02*
X148366009Y-96065476D01*
X148366009Y-96065476D02*
X148461247Y-96103571D01*
X148461247Y-96103571D02*
X148699342Y-96103571D01*
X148699342Y-96103571D02*
X148794580Y-96065476D01*
X148794580Y-96065476D02*
X148842200Y-96027381D01*
X148842200Y-96027381D02*
X148889819Y-95951190D01*
X148889819Y-95951190D02*
X148889819Y-95722619D01*
X148889819Y-95722619D02*
X148842200Y-95646428D01*
X148842200Y-95646428D02*
X148794580Y-95608333D01*
X167614819Y-110105714D02*
X167138628Y-109839047D01*
X167614819Y-109648571D02*
X166614819Y-109648571D01*
X166614819Y-109648571D02*
X166614819Y-109953333D01*
X166614819Y-109953333D02*
X166662438Y-110029523D01*
X166662438Y-110029523D02*
X166710057Y-110067618D01*
X166710057Y-110067618D02*
X166805295Y-110105714D01*
X166805295Y-110105714D02*
X166948152Y-110105714D01*
X166948152Y-110105714D02*
X167043390Y-110067618D01*
X167043390Y-110067618D02*
X167091009Y-110029523D01*
X167091009Y-110029523D02*
X167138628Y-109953333D01*
X167138628Y-109953333D02*
X167138628Y-109648571D01*
X167614819Y-110867618D02*
X167614819Y-110410475D01*
X167614819Y-110639047D02*
X166614819Y-110639047D01*
X166614819Y-110639047D02*
X166757676Y-110562856D01*
X166757676Y-110562856D02*
X166852914Y-110486666D01*
X166852914Y-110486666D02*
X166900533Y-110410475D01*
X167614819Y-111248571D02*
X167614819Y-111400952D01*
X167614819Y-111400952D02*
X167567200Y-111477142D01*
X167567200Y-111477142D02*
X167519580Y-111515238D01*
X167519580Y-111515238D02*
X167376723Y-111591428D01*
X167376723Y-111591428D02*
X167186247Y-111629523D01*
X167186247Y-111629523D02*
X166805295Y-111629523D01*
X166805295Y-111629523D02*
X166710057Y-111591428D01*
X166710057Y-111591428D02*
X166662438Y-111553333D01*
X166662438Y-111553333D02*
X166614819Y-111477142D01*
X166614819Y-111477142D02*
X166614819Y-111324761D01*
X166614819Y-111324761D02*
X166662438Y-111248571D01*
X166662438Y-111248571D02*
X166710057Y-111210476D01*
X166710057Y-111210476D02*
X166805295Y-111172380D01*
X166805295Y-111172380D02*
X167043390Y-111172380D01*
X167043390Y-111172380D02*
X167138628Y-111210476D01*
X167138628Y-111210476D02*
X167186247Y-111248571D01*
X167186247Y-111248571D02*
X167233866Y-111324761D01*
X167233866Y-111324761D02*
X167233866Y-111477142D01*
X167233866Y-111477142D02*
X167186247Y-111553333D01*
X167186247Y-111553333D02*
X167138628Y-111591428D01*
X167138628Y-111591428D02*
X167043390Y-111629523D01*
X162694819Y-118910476D02*
X163504342Y-118910476D01*
X163504342Y-118910476D02*
X163599580Y-118948571D01*
X163599580Y-118948571D02*
X163647200Y-118986666D01*
X163647200Y-118986666D02*
X163694819Y-119062857D01*
X163694819Y-119062857D02*
X163694819Y-119215238D01*
X163694819Y-119215238D02*
X163647200Y-119291428D01*
X163647200Y-119291428D02*
X163599580Y-119329523D01*
X163599580Y-119329523D02*
X163504342Y-119367619D01*
X163504342Y-119367619D02*
X162694819Y-119367619D01*
X162694819Y-120129523D02*
X162694819Y-119748571D01*
X162694819Y-119748571D02*
X163171009Y-119710475D01*
X163171009Y-119710475D02*
X163123390Y-119748571D01*
X163123390Y-119748571D02*
X163075771Y-119824761D01*
X163075771Y-119824761D02*
X163075771Y-120015237D01*
X163075771Y-120015237D02*
X163123390Y-120091428D01*
X163123390Y-120091428D02*
X163171009Y-120129523D01*
X163171009Y-120129523D02*
X163266247Y-120167618D01*
X163266247Y-120167618D02*
X163504342Y-120167618D01*
X163504342Y-120167618D02*
X163599580Y-120129523D01*
X163599580Y-120129523D02*
X163647200Y-120091428D01*
X163647200Y-120091428D02*
X163694819Y-120015237D01*
X163694819Y-120015237D02*
X163694819Y-119824761D01*
X163694819Y-119824761D02*
X163647200Y-119748571D01*
X163647200Y-119748571D02*
X163599580Y-119710475D01*
X104086666Y-124701009D02*
X104353332Y-124701009D01*
X104353332Y-125224819D02*
X104353332Y-124224819D01*
X104353332Y-124224819D02*
X103972380Y-124224819D01*
X103248571Y-125224819D02*
X103705714Y-125224819D01*
X103477142Y-125224819D02*
X103477142Y-124224819D01*
X103477142Y-124224819D02*
X103553333Y-124367676D01*
X103553333Y-124367676D02*
X103629523Y-124462914D01*
X103629523Y-124462914D02*
X103705714Y-124510533D01*
X114599819Y-125030714D02*
X114123628Y-124764047D01*
X114599819Y-124573571D02*
X113599819Y-124573571D01*
X113599819Y-124573571D02*
X113599819Y-124878333D01*
X113599819Y-124878333D02*
X113647438Y-124954523D01*
X113647438Y-124954523D02*
X113695057Y-124992618D01*
X113695057Y-124992618D02*
X113790295Y-125030714D01*
X113790295Y-125030714D02*
X113933152Y-125030714D01*
X113933152Y-125030714D02*
X114028390Y-124992618D01*
X114028390Y-124992618D02*
X114076009Y-124954523D01*
X114076009Y-124954523D02*
X114123628Y-124878333D01*
X114123628Y-124878333D02*
X114123628Y-124573571D01*
X113695057Y-125335475D02*
X113647438Y-125373571D01*
X113647438Y-125373571D02*
X113599819Y-125449761D01*
X113599819Y-125449761D02*
X113599819Y-125640237D01*
X113599819Y-125640237D02*
X113647438Y-125716428D01*
X113647438Y-125716428D02*
X113695057Y-125754523D01*
X113695057Y-125754523D02*
X113790295Y-125792618D01*
X113790295Y-125792618D02*
X113885533Y-125792618D01*
X113885533Y-125792618D02*
X114028390Y-125754523D01*
X114028390Y-125754523D02*
X114599819Y-125297380D01*
X114599819Y-125297380D02*
X114599819Y-125792618D01*
X114028390Y-126249761D02*
X113980771Y-126173571D01*
X113980771Y-126173571D02*
X113933152Y-126135476D01*
X113933152Y-126135476D02*
X113837914Y-126097380D01*
X113837914Y-126097380D02*
X113790295Y-126097380D01*
X113790295Y-126097380D02*
X113695057Y-126135476D01*
X113695057Y-126135476D02*
X113647438Y-126173571D01*
X113647438Y-126173571D02*
X113599819Y-126249761D01*
X113599819Y-126249761D02*
X113599819Y-126402142D01*
X113599819Y-126402142D02*
X113647438Y-126478333D01*
X113647438Y-126478333D02*
X113695057Y-126516428D01*
X113695057Y-126516428D02*
X113790295Y-126554523D01*
X113790295Y-126554523D02*
X113837914Y-126554523D01*
X113837914Y-126554523D02*
X113933152Y-126516428D01*
X113933152Y-126516428D02*
X113980771Y-126478333D01*
X113980771Y-126478333D02*
X114028390Y-126402142D01*
X114028390Y-126402142D02*
X114028390Y-126249761D01*
X114028390Y-126249761D02*
X114076009Y-126173571D01*
X114076009Y-126173571D02*
X114123628Y-126135476D01*
X114123628Y-126135476D02*
X114218866Y-126097380D01*
X114218866Y-126097380D02*
X114409342Y-126097380D01*
X114409342Y-126097380D02*
X114504580Y-126135476D01*
X114504580Y-126135476D02*
X114552200Y-126173571D01*
X114552200Y-126173571D02*
X114599819Y-126249761D01*
X114599819Y-126249761D02*
X114599819Y-126402142D01*
X114599819Y-126402142D02*
X114552200Y-126478333D01*
X114552200Y-126478333D02*
X114504580Y-126516428D01*
X114504580Y-126516428D02*
X114409342Y-126554523D01*
X114409342Y-126554523D02*
X114218866Y-126554523D01*
X114218866Y-126554523D02*
X114123628Y-126516428D01*
X114123628Y-126516428D02*
X114076009Y-126478333D01*
X114076009Y-126478333D02*
X114028390Y-126402142D01*
X153659819Y-126605714D02*
X153183628Y-126339047D01*
X153659819Y-126148571D02*
X152659819Y-126148571D01*
X152659819Y-126148571D02*
X152659819Y-126453333D01*
X152659819Y-126453333D02*
X152707438Y-126529523D01*
X152707438Y-126529523D02*
X152755057Y-126567618D01*
X152755057Y-126567618D02*
X152850295Y-126605714D01*
X152850295Y-126605714D02*
X152993152Y-126605714D01*
X152993152Y-126605714D02*
X153088390Y-126567618D01*
X153088390Y-126567618D02*
X153136009Y-126529523D01*
X153136009Y-126529523D02*
X153183628Y-126453333D01*
X153183628Y-126453333D02*
X153183628Y-126148571D01*
X153659819Y-127367618D02*
X153659819Y-126910475D01*
X153659819Y-127139047D02*
X152659819Y-127139047D01*
X152659819Y-127139047D02*
X152802676Y-127062856D01*
X152802676Y-127062856D02*
X152897914Y-126986666D01*
X152897914Y-126986666D02*
X152945533Y-126910475D01*
X152659819Y-127634285D02*
X152659819Y-128167619D01*
X152659819Y-128167619D02*
X153659819Y-127824761D01*
X107514285Y-104434819D02*
X107780952Y-103958628D01*
X107971428Y-104434819D02*
X107971428Y-103434819D01*
X107971428Y-103434819D02*
X107666666Y-103434819D01*
X107666666Y-103434819D02*
X107590476Y-103482438D01*
X107590476Y-103482438D02*
X107552381Y-103530057D01*
X107552381Y-103530057D02*
X107514285Y-103625295D01*
X107514285Y-103625295D02*
X107514285Y-103768152D01*
X107514285Y-103768152D02*
X107552381Y-103863390D01*
X107552381Y-103863390D02*
X107590476Y-103911009D01*
X107590476Y-103911009D02*
X107666666Y-103958628D01*
X107666666Y-103958628D02*
X107971428Y-103958628D01*
X107247619Y-103434819D02*
X106752381Y-103434819D01*
X106752381Y-103434819D02*
X107019047Y-103815771D01*
X107019047Y-103815771D02*
X106904762Y-103815771D01*
X106904762Y-103815771D02*
X106828571Y-103863390D01*
X106828571Y-103863390D02*
X106790476Y-103911009D01*
X106790476Y-103911009D02*
X106752381Y-104006247D01*
X106752381Y-104006247D02*
X106752381Y-104244342D01*
X106752381Y-104244342D02*
X106790476Y-104339580D01*
X106790476Y-104339580D02*
X106828571Y-104387200D01*
X106828571Y-104387200D02*
X106904762Y-104434819D01*
X106904762Y-104434819D02*
X107133333Y-104434819D01*
X107133333Y-104434819D02*
X107209524Y-104387200D01*
X107209524Y-104387200D02*
X107247619Y-104339580D01*
X106485714Y-103434819D02*
X105990476Y-103434819D01*
X105990476Y-103434819D02*
X106257142Y-103815771D01*
X106257142Y-103815771D02*
X106142857Y-103815771D01*
X106142857Y-103815771D02*
X106066666Y-103863390D01*
X106066666Y-103863390D02*
X106028571Y-103911009D01*
X106028571Y-103911009D02*
X105990476Y-104006247D01*
X105990476Y-104006247D02*
X105990476Y-104244342D01*
X105990476Y-104244342D02*
X106028571Y-104339580D01*
X106028571Y-104339580D02*
X106066666Y-104387200D01*
X106066666Y-104387200D02*
X106142857Y-104434819D01*
X106142857Y-104434819D02*
X106371428Y-104434819D01*
X106371428Y-104434819D02*
X106447619Y-104387200D01*
X106447619Y-104387200D02*
X106485714Y-104339580D01*
X151321009Y-113753333D02*
X151321009Y-113486667D01*
X151844819Y-113486667D02*
X150844819Y-113486667D01*
X150844819Y-113486667D02*
X150844819Y-113867619D01*
X151321009Y-114439047D02*
X151368628Y-114553333D01*
X151368628Y-114553333D02*
X151416247Y-114591428D01*
X151416247Y-114591428D02*
X151511485Y-114629524D01*
X151511485Y-114629524D02*
X151654342Y-114629524D01*
X151654342Y-114629524D02*
X151749580Y-114591428D01*
X151749580Y-114591428D02*
X151797200Y-114553333D01*
X151797200Y-114553333D02*
X151844819Y-114477143D01*
X151844819Y-114477143D02*
X151844819Y-114172381D01*
X151844819Y-114172381D02*
X150844819Y-114172381D01*
X150844819Y-114172381D02*
X150844819Y-114439047D01*
X150844819Y-114439047D02*
X150892438Y-114515238D01*
X150892438Y-114515238D02*
X150940057Y-114553333D01*
X150940057Y-114553333D02*
X151035295Y-114591428D01*
X151035295Y-114591428D02*
X151130533Y-114591428D01*
X151130533Y-114591428D02*
X151225771Y-114553333D01*
X151225771Y-114553333D02*
X151273390Y-114515238D01*
X151273390Y-114515238D02*
X151321009Y-114439047D01*
X151321009Y-114439047D02*
X151321009Y-114172381D01*
X151844819Y-115391428D02*
X151844819Y-114934285D01*
X151844819Y-115162857D02*
X150844819Y-115162857D01*
X150844819Y-115162857D02*
X150987676Y-115086666D01*
X150987676Y-115086666D02*
X151082914Y-115010476D01*
X151082914Y-115010476D02*
X151130533Y-114934285D01*
D11*
%TO.C,R31*%
X155680000Y-106242936D02*
X155680000Y-107697064D01*
X157500000Y-106242936D02*
X157500000Y-107697064D01*
%TO.C,C12*%
X155680000Y-113708748D02*
X155680000Y-115131252D01*
X157500000Y-113708748D02*
X157500000Y-115131252D01*
%TO.C,R32*%
X152180000Y-107697064D02*
X152180000Y-106242936D01*
X154000000Y-107697064D02*
X154000000Y-106242936D01*
%TO.C,R6*%
X155680000Y-128147064D02*
X155680000Y-126692936D01*
X157500000Y-128147064D02*
X157500000Y-126692936D01*
%TO.C,R29*%
X114965000Y-120517936D02*
X114965000Y-121972064D01*
X116785000Y-120517936D02*
X116785000Y-121972064D01*
%TO.C,R16*%
X152180000Y-119692936D02*
X152180000Y-121147064D01*
X154000000Y-119692936D02*
X154000000Y-121147064D01*
%TO.C,C15*%
X148680000Y-107681252D02*
X148680000Y-106258748D01*
X150500000Y-107681252D02*
X150500000Y-106258748D01*
%TO.C,C13*%
X169180000Y-113708748D02*
X169180000Y-115131252D01*
X171000000Y-113708748D02*
X171000000Y-115131252D01*
%TO.C,R30*%
X113107936Y-115665000D02*
X114562064Y-115665000D01*
X113107936Y-117485000D02*
X114562064Y-117485000D01*
%TO.C,C11*%
X155725000Y-121131252D02*
X155725000Y-119708748D01*
X157545000Y-121131252D02*
X157545000Y-119708748D01*
D12*
%TO.C,LOGO1*%
G36*
X111354130Y-86642786D02*
G01*
X111354130Y-87392786D01*
X111228883Y-87392786D01*
X111103637Y-87392786D01*
X111103637Y-86642786D01*
X111103637Y-85892786D01*
X111228883Y-85892786D01*
X111354130Y-85892786D01*
X111354130Y-86642786D01*
G37*
G36*
X109287029Y-85905796D02*
G01*
X109323298Y-85921515D01*
X109348573Y-85960749D01*
X109365325Y-86038793D01*
X109376021Y-86170943D01*
X109383129Y-86372492D01*
X109389118Y-86658738D01*
X109403002Y-87399690D01*
X109263872Y-87383738D01*
X109213579Y-87376578D01*
X109162221Y-87353631D01*
X109133428Y-87296664D01*
X109118477Y-87183706D01*
X109108641Y-86992786D01*
X109104965Y-86786852D01*
X109110558Y-86504415D01*
X109125711Y-86252402D01*
X109132284Y-86181925D01*
X109151381Y-86022167D01*
X109174811Y-85935692D01*
X109210672Y-85902453D01*
X109267058Y-85902402D01*
X109287029Y-85905796D01*
G37*
G36*
X112155708Y-86842786D02*
G01*
X112155708Y-87392786D01*
X112030461Y-87392786D01*
X112016712Y-87392710D01*
X111954179Y-87383821D01*
X111920864Y-87343876D01*
X111907599Y-87249898D01*
X111905215Y-87078911D01*
X111899659Y-86939844D01*
X111856659Y-86722798D01*
X111773229Y-86588674D01*
X111651881Y-86542786D01*
X111578535Y-86516361D01*
X111554524Y-86417786D01*
X111555282Y-86385538D01*
X111576486Y-86312026D01*
X111643069Y-86299842D01*
X111776707Y-86341548D01*
X111865363Y-86365067D01*
X111905215Y-86341548D01*
X111936304Y-86309480D01*
X112030461Y-86292786D01*
X112155708Y-86292786D01*
X112155708Y-86842786D01*
G37*
G36*
X107739517Y-85992942D02*
G01*
X107905459Y-85997261D01*
X107998280Y-86011657D01*
X108038746Y-86041657D01*
X108047621Y-86092786D01*
X108046433Y-86116970D01*
X108021705Y-86165573D01*
X107946137Y-86187603D01*
X107795177Y-86192786D01*
X107542734Y-86192786D01*
X107557209Y-86625002D01*
X107557513Y-86633889D01*
X107575354Y-86887592D01*
X107611970Y-87050816D01*
X107673705Y-87132084D01*
X107766897Y-87139917D01*
X107897890Y-87082837D01*
X107911327Y-87075192D01*
X108007648Y-87027565D01*
X108059393Y-87036019D01*
X108103994Y-87104487D01*
X108123567Y-87145946D01*
X108124231Y-87222774D01*
X108048740Y-87301935D01*
X107964102Y-87353042D01*
X107774592Y-87394232D01*
X107579340Y-87365883D01*
X107419111Y-87270058D01*
X107388853Y-87238607D01*
X107345689Y-87179519D01*
X107318507Y-87104014D01*
X107303635Y-86991198D01*
X107297403Y-86820177D01*
X107296142Y-86570058D01*
X107296142Y-85992786D01*
X107671881Y-85992786D01*
X107739517Y-85992942D01*
G37*
G36*
X107055173Y-86950479D02*
G01*
X106978796Y-87149616D01*
X106829655Y-87295199D01*
X106820136Y-87300839D01*
X106666721Y-87365701D01*
X106519613Y-87392412D01*
X106461713Y-87388982D01*
X106260412Y-87324388D01*
X106096733Y-87194350D01*
X106000690Y-87020386D01*
X105982710Y-86935684D01*
X105986144Y-86838372D01*
X106245869Y-86838372D01*
X106260016Y-86984081D01*
X106304189Y-87082786D01*
X106304979Y-87083561D01*
X106395649Y-87125416D01*
X106527870Y-87142786D01*
X106531120Y-87142775D01*
X106680373Y-87106159D01*
X106767102Y-86995542D01*
X106795156Y-86806073D01*
X106772207Y-86667693D01*
X106683076Y-86572812D01*
X106519613Y-86542786D01*
X106394663Y-86559751D01*
X106304189Y-86602785D01*
X106261748Y-86694058D01*
X106245869Y-86838372D01*
X105986144Y-86838372D01*
X105990647Y-86710779D01*
X106073938Y-86522711D01*
X106216035Y-86384059D01*
X106400386Y-86307399D01*
X106610443Y-86305311D01*
X106829655Y-86390372D01*
X106937440Y-86479640D01*
X107038536Y-86665185D01*
X107051423Y-86719993D01*
X107052824Y-86806073D01*
X107055173Y-86950479D01*
G37*
G36*
X113846829Y-85991953D02*
G01*
X114067787Y-86076264D01*
X114247136Y-86222352D01*
X114362095Y-86423980D01*
X114401158Y-86631109D01*
X114367937Y-86888431D01*
X114246686Y-87116948D01*
X114044209Y-87297956D01*
X114004735Y-87319821D01*
X113811958Y-87376209D01*
X113595671Y-87382079D01*
X113393724Y-87339646D01*
X113243966Y-87251124D01*
X113182288Y-87183757D01*
X113167104Y-87126021D01*
X113217251Y-87061903D01*
X113264566Y-87019850D01*
X113324905Y-87009103D01*
X113414678Y-87061705D01*
X113434144Y-87074704D01*
X113622833Y-87145724D01*
X113805141Y-87130480D01*
X113960644Y-87040203D01*
X114068923Y-86886127D01*
X114109554Y-86679486D01*
X114087331Y-86517175D01*
X113994706Y-86344698D01*
X113846566Y-86238334D01*
X113660900Y-86209375D01*
X113455700Y-86269113D01*
X113452189Y-86270923D01*
X113342409Y-86320749D01*
X113276821Y-86320177D01*
X113214075Y-86269228D01*
X113177953Y-86229924D01*
X113164053Y-86175623D01*
X113230514Y-86114266D01*
X113371212Y-86033597D01*
X113607043Y-85975652D01*
X113846829Y-85991953D01*
G37*
G36*
X108737248Y-86086060D02*
G01*
X108791474Y-86167786D01*
X108812854Y-86228439D01*
X108879833Y-86307770D01*
X108913178Y-86336806D01*
X108946503Y-86422046D01*
X108933180Y-86505302D01*
X108874248Y-86542786D01*
X108864390Y-86543495D01*
X108824999Y-86575868D01*
X108804795Y-86670115D01*
X108799100Y-86845058D01*
X108798213Y-86927153D01*
X108784628Y-87080319D01*
X108746399Y-87183763D01*
X108673019Y-87273164D01*
X108621042Y-87316478D01*
X108489936Y-87377152D01*
X108360754Y-87389033D01*
X108262197Y-87352463D01*
X108222966Y-87267786D01*
X108253286Y-87188380D01*
X108360737Y-87151964D01*
X108367281Y-87151203D01*
X108441215Y-87135802D01*
X108480388Y-87095368D01*
X108495814Y-87004917D01*
X108498509Y-86839464D01*
X108498506Y-86828238D01*
X108495504Y-86667899D01*
X108479886Y-86582634D01*
X108441396Y-86548808D01*
X108369778Y-86542786D01*
X108335267Y-86541777D01*
X108263776Y-86514317D01*
X108257056Y-86430286D01*
X108283852Y-86359811D01*
X108382706Y-86302211D01*
X108450082Y-86276162D01*
X108507953Y-86177211D01*
X108553527Y-86095885D01*
X108644091Y-86062554D01*
X108737248Y-86086060D01*
G37*
G36*
X112799998Y-86043109D02*
G01*
X112885022Y-86070818D01*
X112907187Y-86161954D01*
X112923213Y-86240387D01*
X113007384Y-86307273D01*
X113065492Y-86338179D01*
X113107582Y-86417786D01*
X113088886Y-86471589D01*
X113007384Y-86528298D01*
X112964295Y-86545837D01*
X112927901Y-86595470D01*
X112911199Y-86696687D01*
X112907187Y-86873617D01*
X112907024Y-86910396D01*
X112896895Y-87092607D01*
X112865924Y-87210136D01*
X112806990Y-87292786D01*
X112745514Y-87340091D01*
X112575482Y-87391481D01*
X112390785Y-87364556D01*
X112351643Y-87324732D01*
X112341968Y-87245775D01*
X112368922Y-87175747D01*
X112425104Y-87158985D01*
X112469039Y-87162798D01*
X112569021Y-87134270D01*
X112618040Y-87089287D01*
X112648154Y-86989876D01*
X112656694Y-86816026D01*
X112654707Y-86681220D01*
X112640688Y-86587949D01*
X112603352Y-86549985D01*
X112531447Y-86542786D01*
X112508366Y-86542258D01*
X112426893Y-86512936D01*
X112406201Y-86417786D01*
X112406730Y-86394750D01*
X112436109Y-86313437D01*
X112531447Y-86292786D01*
X112554528Y-86292258D01*
X112636002Y-86262936D01*
X112656694Y-86167786D01*
X112657223Y-86144750D01*
X112686602Y-86063437D01*
X112781941Y-86042786D01*
X112799998Y-86043109D01*
G37*
G36*
X105402059Y-86347948D02*
G01*
X105486707Y-86377764D01*
X105542540Y-86343028D01*
X105577923Y-86313316D01*
X105673940Y-86300937D01*
X105703867Y-86310437D01*
X105738471Y-86346917D01*
X105760311Y-86426236D01*
X105773626Y-86567448D01*
X105782654Y-86789606D01*
X105785331Y-86900849D01*
X105786096Y-87099204D01*
X105781376Y-87249788D01*
X105771702Y-87326535D01*
X105724744Y-87369479D01*
X105619410Y-87392786D01*
X105577924Y-87391722D01*
X105529463Y-87376001D01*
X105504033Y-87324340D01*
X105494215Y-87215385D01*
X105492591Y-87027785D01*
X105491448Y-86928030D01*
X105475223Y-86734518D01*
X105432801Y-86616904D01*
X105355300Y-86558541D01*
X105233841Y-86542786D01*
X105216952Y-86543140D01*
X105109056Y-86573235D01*
X105039670Y-86661251D01*
X105002587Y-86820552D01*
X104991605Y-87064498D01*
X104991517Y-87122992D01*
X104987429Y-87274750D01*
X104970924Y-87355313D01*
X104933427Y-87387164D01*
X104866359Y-87392786D01*
X104823281Y-87391490D01*
X104776680Y-87374694D01*
X104752185Y-87321290D01*
X104742697Y-87210148D01*
X104741112Y-87020138D01*
X104741137Y-87008943D01*
X104749271Y-86808577D01*
X104769168Y-86635346D01*
X104796735Y-86525652D01*
X104875519Y-86417019D01*
X105032159Y-86324000D01*
X105218505Y-86297796D01*
X105402059Y-86347948D01*
G37*
G36*
X110805162Y-86961655D02*
G01*
X110882709Y-87151905D01*
X110934489Y-87286130D01*
X110953341Y-87346519D01*
X110922615Y-87376862D01*
X110828767Y-87392786D01*
X110788932Y-87389791D01*
X110701663Y-87341962D01*
X110630929Y-87217786D01*
X110612834Y-87175166D01*
X110570601Y-87098827D01*
X110511877Y-87059505D01*
X110408762Y-87044918D01*
X110233353Y-87042786D01*
X109909040Y-87042786D01*
X109851171Y-87217786D01*
X109815191Y-87308810D01*
X109751975Y-87376503D01*
X109646219Y-87392786D01*
X109499136Y-87392786D01*
X109577627Y-87205286D01*
X109613259Y-87121897D01*
X109688583Y-86949198D01*
X109735527Y-86842786D01*
X110000122Y-86842786D01*
X110251960Y-86842786D01*
X110503798Y-86842786D01*
X110422531Y-86655286D01*
X110408623Y-86622794D01*
X110351800Y-86481957D01*
X110315819Y-86380286D01*
X110296320Y-86333675D01*
X110251960Y-86292786D01*
X110227561Y-86306325D01*
X110188102Y-86380286D01*
X110182721Y-86397502D01*
X110140151Y-86512804D01*
X110081389Y-86655286D01*
X110000122Y-86842786D01*
X109735527Y-86842786D01*
X109783412Y-86734240D01*
X109885324Y-86505286D01*
X109917406Y-86433798D01*
X110010559Y-86233039D01*
X110079360Y-86104306D01*
X110135089Y-86031851D01*
X110189029Y-85999927D01*
X110252460Y-85992786D01*
X110257852Y-85992812D01*
X110313719Y-85999771D01*
X110362805Y-86028768D01*
X110414136Y-86093872D01*
X110476739Y-86209152D01*
X110559641Y-86388677D01*
X110671866Y-86646519D01*
X110709009Y-86733188D01*
X110755135Y-86842786D01*
X110805162Y-86961655D01*
G37*
G36*
X112581332Y-83166083D02*
G01*
X112460153Y-83346632D01*
X112361532Y-83426863D01*
X112172599Y-83495926D01*
X111980239Y-83467875D01*
X111797310Y-83342786D01*
X111647014Y-83192786D01*
X110132233Y-83192786D01*
X108617452Y-83192786D01*
X108473459Y-83042786D01*
X108445897Y-83014806D01*
X108432899Y-83004566D01*
X111956340Y-83004566D01*
X112007409Y-83120187D01*
X112015043Y-83128777D01*
X112113506Y-83184372D01*
X112218765Y-83181709D01*
X112286764Y-83120706D01*
X112307895Y-82999431D01*
X112256750Y-82902766D01*
X112130658Y-82867786D01*
X112106890Y-82868699D01*
X111993491Y-82912564D01*
X111956340Y-83004566D01*
X108432899Y-83004566D01*
X108346610Y-82936589D01*
X108233335Y-82901129D01*
X108063297Y-82892786D01*
X107958623Y-82889134D01*
X107842346Y-82872777D01*
X107797128Y-82847733D01*
X107800599Y-82835093D01*
X107837305Y-82746376D01*
X107909004Y-82586917D01*
X108009384Y-82370397D01*
X108132132Y-82110497D01*
X108270934Y-81820897D01*
X108744741Y-80839113D01*
X109230428Y-80853449D01*
X109716116Y-80867786D01*
X110130809Y-81730286D01*
X110545503Y-82592786D01*
X110080272Y-82592786D01*
X109615041Y-82592786D01*
X109431232Y-82185732D01*
X109389464Y-82095701D01*
X109310336Y-81939317D01*
X109249308Y-81837535D01*
X109217005Y-81809037D01*
X109195463Y-81846199D01*
X109140997Y-81955770D01*
X109065653Y-82114086D01*
X108980095Y-82297976D01*
X108894987Y-82484271D01*
X108820993Y-82649802D01*
X108768777Y-82771398D01*
X108749002Y-82825891D01*
X108751783Y-82826942D01*
X108821695Y-82831173D01*
X108976350Y-82834964D01*
X109203252Y-82838166D01*
X109489906Y-82840635D01*
X109823816Y-82842224D01*
X110192489Y-82842786D01*
X111635976Y-82842786D01*
X111779968Y-82692786D01*
X111844213Y-82631652D01*
X111969905Y-82561065D01*
X112135578Y-82542786D01*
X112247274Y-82548909D01*
X112367794Y-82592028D01*
X112476895Y-82696622D01*
X112532875Y-82773177D01*
X112605677Y-82970871D01*
X112602115Y-82999431D01*
X112581332Y-83166083D01*
G37*
G36*
X107594403Y-81324833D02*
G01*
X107554703Y-81427853D01*
X107499783Y-81511931D01*
X107418402Y-81570817D01*
X107295822Y-81608929D01*
X107117306Y-81630683D01*
X106868116Y-81640496D01*
X106533515Y-81642785D01*
X105743084Y-81642786D01*
X105744280Y-82705286D01*
X105745017Y-82934600D01*
X105749702Y-83305559D01*
X105760139Y-83595850D01*
X105778059Y-83818156D01*
X105805189Y-83985156D01*
X105843260Y-84109532D01*
X105893998Y-84203966D01*
X105959135Y-84281138D01*
X106050099Y-84347925D01*
X106249681Y-84418230D01*
X106481795Y-84436014D01*
X106710762Y-84395831D01*
X106810366Y-84348640D01*
X106988473Y-84210768D01*
X107162170Y-84019874D01*
X107306336Y-83801046D01*
X107316544Y-83782282D01*
X107367943Y-83703973D01*
X107431172Y-83662301D01*
X107535681Y-83645744D01*
X107710917Y-83642786D01*
X107824202Y-83644324D01*
X107968915Y-83658571D01*
X108064645Y-83695367D01*
X108144121Y-83763858D01*
X108258087Y-83884930D01*
X108100866Y-84176358D01*
X108007959Y-84335853D01*
X107730181Y-84695399D01*
X107404023Y-84967624D01*
X107028993Y-85152975D01*
X106888789Y-85191338D01*
X106621066Y-85227915D01*
X106322785Y-85236669D01*
X106025919Y-85218620D01*
X105762440Y-85174790D01*
X105564322Y-85106199D01*
X105538929Y-85092500D01*
X105284039Y-84902599D01*
X105065180Y-84648552D01*
X104911015Y-84362965D01*
X104888685Y-84300170D01*
X104866850Y-84218704D01*
X104849858Y-84119454D01*
X104837113Y-83990676D01*
X104828019Y-83820624D01*
X104821982Y-83597554D01*
X104818406Y-83309721D01*
X104816697Y-82945380D01*
X104816260Y-82492786D01*
X104816260Y-81240386D01*
X106969738Y-81240386D01*
X107008238Y-81297118D01*
X107104550Y-81340353D01*
X107208884Y-81333008D01*
X107276902Y-81270706D01*
X107295175Y-81172157D01*
X107259705Y-81059124D01*
X107165999Y-81002873D01*
X107047594Y-81025915D01*
X106972553Y-81115475D01*
X106969738Y-81240386D01*
X104816260Y-81240386D01*
X104816260Y-80867786D01*
X105786287Y-80854186D01*
X106010597Y-80850475D01*
X106315481Y-80842331D01*
X106540391Y-80830911D01*
X106698002Y-80815184D01*
X106800990Y-80794120D01*
X106862030Y-80766686D01*
X106867724Y-80762793D01*
X107043276Y-80700000D01*
X107240070Y-80712964D01*
X107418373Y-80799352D01*
X107548300Y-80933186D01*
X107619616Y-81116914D01*
X107612917Y-81172157D01*
X107594403Y-81324833D01*
G37*
G36*
X108710531Y-83579347D02*
G01*
X108798235Y-83666623D01*
X108967002Y-83837077D01*
X109080307Y-83960395D01*
X109149198Y-84053167D01*
X109184726Y-84131983D01*
X109197940Y-84213434D01*
X109199889Y-84314111D01*
X109207923Y-84462735D01*
X109248274Y-84590668D01*
X109337660Y-84705833D01*
X109445555Y-84872632D01*
X109485213Y-85071526D01*
X109475444Y-85122562D01*
X109448279Y-85264489D01*
X109334867Y-85422115D01*
X109296848Y-85451980D01*
X109103979Y-85534822D01*
X108901390Y-85523567D01*
X108708692Y-85418334D01*
X108692358Y-85403926D01*
X108590013Y-85280314D01*
X108534059Y-85155846D01*
X108527929Y-85091021D01*
X108536735Y-85037131D01*
X108857340Y-85037131D01*
X108861660Y-85121459D01*
X108907439Y-85198865D01*
X108996783Y-85232477D01*
X109108225Y-85209627D01*
X109176577Y-85122562D01*
X109174679Y-84992278D01*
X109173218Y-84987906D01*
X109105085Y-84909881D01*
X109004349Y-84895664D01*
X108909078Y-84939874D01*
X108857340Y-85037131D01*
X108536735Y-85037131D01*
X108556807Y-84914300D01*
X108634937Y-84751456D01*
X108744760Y-84645051D01*
X108750454Y-84641914D01*
X108826605Y-84558732D01*
X108849199Y-84412287D01*
X108846155Y-84358090D01*
X108821427Y-84266830D01*
X108761682Y-84162683D01*
X108654870Y-84026479D01*
X108488944Y-83839046D01*
X108128689Y-83442786D01*
X107581258Y-83442785D01*
X107426774Y-83443055D01*
X107233879Y-83446771D01*
X107104196Y-83458764D01*
X107014548Y-83483873D01*
X106941758Y-83526934D01*
X106862649Y-83592785D01*
X106685188Y-83708756D01*
X106500606Y-83736116D01*
X106298738Y-83670143D01*
X106282817Y-83661537D01*
X106140338Y-83532409D01*
X106070305Y-83364432D01*
X106069246Y-83218193D01*
X106366228Y-83218193D01*
X106396309Y-83346408D01*
X106401885Y-83356123D01*
X106493008Y-83430404D01*
X106602449Y-83430050D01*
X106688948Y-83353994D01*
X106691656Y-83348766D01*
X106706716Y-83228090D01*
X106643463Y-83131995D01*
X106522484Y-83092786D01*
X106415629Y-83125528D01*
X106366228Y-83218193D01*
X106069246Y-83218193D01*
X106068978Y-83181269D01*
X106132617Y-83006584D01*
X106257482Y-82864043D01*
X106439834Y-82777308D01*
X106513667Y-82770097D01*
X106681344Y-82802706D01*
X106839580Y-82881846D01*
X106943182Y-82988553D01*
X106959988Y-83016202D01*
X106998282Y-83051318D01*
X107064336Y-83073705D01*
X107176257Y-83086192D01*
X107352150Y-83091609D01*
X107610124Y-83092786D01*
X108221174Y-83092786D01*
X108357256Y-83228090D01*
X108710531Y-83579347D01*
G37*
G36*
X113753845Y-81503910D02*
G01*
X114019215Y-81857983D01*
X114215876Y-82280349D01*
X114231500Y-82326342D01*
X114273230Y-82479820D01*
X114296544Y-82642895D01*
X114304455Y-82845554D01*
X114299975Y-83117786D01*
X114290449Y-83356311D01*
X114273890Y-83547888D01*
X114244943Y-83698735D01*
X114197514Y-83839734D01*
X114125508Y-84001766D01*
X113929147Y-84343811D01*
X113634119Y-84684340D01*
X113269844Y-84953817D01*
X112832693Y-85155480D01*
X112699036Y-85194952D01*
X112529891Y-85222263D01*
X112315788Y-85233515D01*
X112029407Y-85231286D01*
X111993952Y-85230397D01*
X111751416Y-85221471D01*
X111575307Y-85205417D01*
X111435515Y-85176213D01*
X111301930Y-85127834D01*
X111144442Y-85054258D01*
X110930294Y-84934542D01*
X110702176Y-84752666D01*
X110512701Y-84520197D01*
X110338377Y-84212604D01*
X110180356Y-83892786D01*
X109750863Y-83892786D01*
X109321369Y-83892786D01*
X109074643Y-83642786D01*
X108827916Y-83392786D01*
X109878104Y-83392915D01*
X110928292Y-83393044D01*
X111128686Y-83780169D01*
X111156441Y-83832773D01*
X111313363Y-84085172D01*
X111475836Y-84257138D01*
X111662374Y-84364252D01*
X111891493Y-84422094D01*
X112059728Y-84435536D01*
X112397124Y-84393177D01*
X112709513Y-84264537D01*
X112978233Y-84058809D01*
X113184620Y-83785186D01*
X113248062Y-83664507D01*
X113293898Y-83548222D01*
X113319486Y-83421587D01*
X113330603Y-83254730D01*
X113333025Y-83017786D01*
X113327094Y-82784290D01*
X113293439Y-82516076D01*
X113221694Y-82303225D01*
X113102452Y-82120907D01*
X112926307Y-81944297D01*
X112895467Y-81917793D01*
X112659097Y-81755686D01*
X112410051Y-81668679D01*
X112110480Y-81642785D01*
X112013012Y-81644408D01*
X111769493Y-81672317D01*
X111574797Y-81743508D01*
X111393418Y-81869192D01*
X111371065Y-81887093D01*
X111185071Y-81979902D01*
X110997093Y-81993042D01*
X110824146Y-81939037D01*
X110683240Y-81830411D01*
X110591391Y-81679685D01*
X110567424Y-81512069D01*
X110865259Y-81512069D01*
X110899757Y-81613594D01*
X110949894Y-81656718D01*
X111053538Y-81692786D01*
X111112112Y-81679927D01*
X111207319Y-81613594D01*
X111225714Y-81586522D01*
X111236609Y-81484919D01*
X111172987Y-81402048D01*
X111053538Y-81367786D01*
X111016439Y-81370612D01*
X110910383Y-81421116D01*
X110865259Y-81512069D01*
X110567424Y-81512069D01*
X110565610Y-81499384D01*
X110622910Y-81302030D01*
X110657062Y-81237162D01*
X110700411Y-81172274D01*
X110758635Y-81124122D01*
X110852037Y-81081432D01*
X111000918Y-81032929D01*
X111225581Y-80967339D01*
X111655186Y-80871588D01*
X112153176Y-80835490D01*
X112619431Y-80883920D01*
X113046558Y-81013631D01*
X113427161Y-81221377D01*
X113731886Y-81484919D01*
X113753845Y-81503910D01*
G37*
D11*
%TO.C,R18*%
X163180000Y-113692936D02*
X163180000Y-115147064D01*
X165000000Y-113692936D02*
X165000000Y-115147064D01*
%TO.C,D3*%
X145535000Y-97835000D02*
X145535000Y-93825000D01*
X147535000Y-97835000D02*
X145535000Y-97835000D01*
X147535000Y-97835000D02*
X147535000Y-93825000D01*
%TO.C,R19*%
X166180000Y-113692936D02*
X166180000Y-115147064D01*
X168000000Y-113692936D02*
X168000000Y-115147064D01*
%TO.C,U5*%
X159065000Y-116895000D02*
X159290000Y-116895000D01*
X159065000Y-120145000D02*
X159065000Y-116895000D01*
X159065000Y-120145000D02*
X159290000Y-120145000D01*
X162315000Y-116895000D02*
X162090000Y-116895000D01*
X162315000Y-120145000D02*
X162090000Y-120145000D01*
X162315000Y-120145000D02*
X162315000Y-116895000D01*
X162420000Y-120860000D02*
X162090000Y-120620000D01*
X162420000Y-120380000D01*
X162420000Y-120860000D01*
G36*
X162420000Y-120860000D02*
G01*
X162090000Y-120620000D01*
X162420000Y-120380000D01*
X162420000Y-120860000D01*
G37*
%TO.C,F1*%
X111270000Y-127160000D02*
X106170000Y-127160000D01*
X111270000Y-130380000D02*
X106170000Y-130380000D01*
%TO.C,R28*%
X114965000Y-125517936D02*
X114965000Y-126972064D01*
X116785000Y-125517936D02*
X116785000Y-126972064D01*
%TO.C,R17*%
X152225000Y-122792936D02*
X152225000Y-124247064D01*
X154045000Y-122792936D02*
X154045000Y-124247064D01*
%TO.C,R33*%
X106272936Y-100840000D02*
X107727064Y-100840000D01*
X106272936Y-102660000D02*
X107727064Y-102660000D01*
%TO.C,FB1*%
X152180000Y-113584758D02*
X152180000Y-115255242D01*
X154000000Y-113584758D02*
X154000000Y-115255242D01*
%TD*%
M02*
