%TF.GenerationSoftware,KiCad,Pcbnew,9.0.8-9.0.8~ubuntu24.04.1*%
%TF.CreationDate,2026-05-30T22:55:35+02:00*%
%TF.ProjectId,sch-14_PowerMeter-DIN-ESP8266,7363682d-3134-45f5-906f-7765724d6574,rev?*%
%TF.SameCoordinates,Original*%
%TF.FileFunction,Other,User*%
%FSLAX46Y46*%
G04 Gerber Fmt 4.6, Leading zero omitted, Abs format (unit mm)*
G04 Created by KiCad (PCBNEW 9.0.8-9.0.8~ubuntu24.04.1) date 2026-05-30 22:55:35*
%MOMM*%
%LPD*%
G01*
G04 APERTURE LIST*
%ADD10C,0.150000*%
G04 APERTURE END LIST*
D10*
X127500000Y-50500000D02*
X127500000Y-77500000D01*
X127500000Y-77500000D02*
X134000000Y-77500000D01*
X127500000Y-105500000D02*
X127500000Y-132500000D01*
X127500000Y-132500000D02*
X177000000Y-132500000D01*
X128500000Y-51500000D02*
X176000000Y-51500000D01*
X128500000Y-76500000D02*
X128500000Y-51500000D01*
X128500000Y-106500000D02*
X135000000Y-106500000D01*
X128500000Y-131500000D02*
X128500000Y-106500000D01*
X134000000Y-77500000D02*
X134000000Y-105500000D01*
X134000000Y-105500000D02*
X127500000Y-105500000D01*
X135000000Y-76500000D02*
X128500000Y-76500000D01*
X135000000Y-106500000D02*
X135000000Y-76500000D01*
X176000000Y-51500000D02*
X176000000Y-69500000D01*
X176000000Y-69500000D02*
X202500000Y-69500000D01*
X176000000Y-112500000D02*
X176000000Y-131500000D01*
X176000000Y-131500000D02*
X128500000Y-131500000D01*
X177000000Y-50500000D02*
X127500000Y-50500000D01*
X177000000Y-68500000D02*
X177000000Y-50500000D01*
X177000000Y-113500000D02*
X203500000Y-113500000D01*
X177000000Y-132500000D02*
X177000000Y-113500000D01*
X202500000Y-69500000D02*
X202500000Y-112500000D01*
X202500000Y-112500000D02*
X176000000Y-112500000D01*
X203500000Y-68500000D02*
X177000000Y-68500000D01*
X203500000Y-113500000D02*
X203500000Y-68500000D01*
X213500000Y-74700000D02*
X226500000Y-74700000D01*
X213500000Y-102700000D02*
X213500000Y-74700000D01*
X215750000Y-74700000D02*
X216250000Y-74100000D01*
X216250000Y-72300000D02*
X215650000Y-72300000D01*
X216250000Y-74100000D02*
X216250000Y-72300000D01*
X217600000Y-72300000D02*
X217000000Y-72300000D01*
X218900000Y-72300000D02*
X218300000Y-72300000D01*
X220300000Y-72300000D02*
X219700000Y-72300000D01*
X221600000Y-72300000D02*
X221000000Y-72300000D01*
X222700000Y-73600000D02*
X223500000Y-73600000D01*
X222900000Y-72300000D02*
X222300000Y-72300000D01*
X223100000Y-72700000D02*
X222700000Y-73600000D01*
X223200000Y-72200000D02*
X223400000Y-71500000D01*
X223400000Y-71500000D02*
X223800000Y-71800000D01*
X223500000Y-70200000D02*
X224000000Y-70600000D01*
X223500000Y-71600000D02*
X223600000Y-71700000D01*
X223500000Y-71700000D02*
X223300000Y-71850000D01*
X223500000Y-73600000D02*
X223100000Y-72700000D01*
X223600000Y-71700000D02*
X223600000Y-71800000D01*
X223600000Y-71800000D02*
X223600000Y-71900000D01*
X223600000Y-71900000D02*
X223400000Y-71700000D01*
X223650000Y-72300000D02*
X223650000Y-74100000D01*
X223650000Y-74100000D02*
X224250000Y-74700000D01*
X223800000Y-71800000D02*
X223200000Y-72200000D01*
X224000000Y-70600000D02*
X224000000Y-71100000D01*
X224000000Y-71100000D02*
X223200000Y-72200000D01*
X224250000Y-72300000D02*
X223650000Y-72300000D01*
X226500000Y-74700000D02*
X226500000Y-102700000D01*
X226500000Y-102700000D02*
X213500000Y-102700000D01*
X214904762Y-72928985D02*
X214809524Y-72857557D01*
X214809524Y-72857557D02*
X214761905Y-72786128D01*
X214761905Y-72786128D02*
X214714286Y-72643271D01*
X214714286Y-72643271D02*
X214714286Y-72571842D01*
X214714286Y-72571842D02*
X214761905Y-72428985D01*
X214761905Y-72428985D02*
X214809524Y-72357557D01*
X214809524Y-72357557D02*
X214904762Y-72286128D01*
X214904762Y-72286128D02*
X215095238Y-72286128D01*
X215095238Y-72286128D02*
X215190476Y-72357557D01*
X215190476Y-72357557D02*
X215238095Y-72428985D01*
X215238095Y-72428985D02*
X215285714Y-72571842D01*
X215285714Y-72571842D02*
X215285714Y-72643271D01*
X215285714Y-72643271D02*
X215238095Y-72786128D01*
X215238095Y-72786128D02*
X215190476Y-72857557D01*
X215190476Y-72857557D02*
X215095238Y-72928985D01*
X215095238Y-72928985D02*
X214904762Y-72928985D01*
X214904762Y-72928985D02*
X214809524Y-73000414D01*
X214809524Y-73000414D02*
X214761905Y-73071842D01*
X214761905Y-73071842D02*
X214714286Y-73214700D01*
X214714286Y-73214700D02*
X214714286Y-73500414D01*
X214714286Y-73500414D02*
X214761905Y-73643271D01*
X214761905Y-73643271D02*
X214809524Y-73714700D01*
X214809524Y-73714700D02*
X214904762Y-73786128D01*
X214904762Y-73786128D02*
X215095238Y-73786128D01*
X215095238Y-73786128D02*
X215190476Y-73714700D01*
X215190476Y-73714700D02*
X215238095Y-73643271D01*
X215238095Y-73643271D02*
X215285714Y-73500414D01*
X215285714Y-73500414D02*
X215285714Y-73214700D01*
X215285714Y-73214700D02*
X215238095Y-73071842D01*
X215238095Y-73071842D02*
X215190476Y-73000414D01*
X215190476Y-73000414D02*
X215095238Y-72928985D01*
X213352379Y-67478670D02*
X213352379Y-65978670D01*
X213828569Y-66478670D02*
X213828569Y-67478670D01*
X213828569Y-66621527D02*
X213876188Y-66550099D01*
X213876188Y-66550099D02*
X213971426Y-66478670D01*
X213971426Y-66478670D02*
X214114283Y-66478670D01*
X214114283Y-66478670D02*
X214209521Y-66550099D01*
X214209521Y-66550099D02*
X214257140Y-66692956D01*
X214257140Y-66692956D02*
X214257140Y-67478670D01*
X214733331Y-66478670D02*
X214733331Y-67978670D01*
X214733331Y-66550099D02*
X214828569Y-66478670D01*
X214828569Y-66478670D02*
X215019045Y-66478670D01*
X215019045Y-66478670D02*
X215114283Y-66550099D01*
X215114283Y-66550099D02*
X215161902Y-66621527D01*
X215161902Y-66621527D02*
X215209521Y-66764384D01*
X215209521Y-66764384D02*
X215209521Y-67192956D01*
X215209521Y-67192956D02*
X215161902Y-67335813D01*
X215161902Y-67335813D02*
X215114283Y-67407242D01*
X215114283Y-67407242D02*
X215019045Y-67478670D01*
X215019045Y-67478670D02*
X214828569Y-67478670D01*
X214828569Y-67478670D02*
X214733331Y-67407242D01*
X216066664Y-66478670D02*
X216066664Y-67478670D01*
X215638093Y-66478670D02*
X215638093Y-67264384D01*
X215638093Y-67264384D02*
X215685712Y-67407242D01*
X215685712Y-67407242D02*
X215780950Y-67478670D01*
X215780950Y-67478670D02*
X215923807Y-67478670D01*
X215923807Y-67478670D02*
X216019045Y-67407242D01*
X216019045Y-67407242D02*
X216066664Y-67335813D01*
X216399998Y-66478670D02*
X216780950Y-66478670D01*
X216542855Y-65978670D02*
X216542855Y-67264384D01*
X216542855Y-67264384D02*
X216590474Y-67407242D01*
X216590474Y-67407242D02*
X216685712Y-67478670D01*
X216685712Y-67478670D02*
X216780950Y-67478670D01*
X217733332Y-66478670D02*
X218114284Y-66478670D01*
X217876189Y-67478670D02*
X217876189Y-66192956D01*
X217876189Y-66192956D02*
X217923808Y-66050099D01*
X217923808Y-66050099D02*
X218019046Y-65978670D01*
X218019046Y-65978670D02*
X218114284Y-65978670D01*
X218590475Y-67478670D02*
X218495237Y-67407242D01*
X218495237Y-67407242D02*
X218447618Y-67264384D01*
X218447618Y-67264384D02*
X218447618Y-65978670D01*
X219399999Y-67478670D02*
X219399999Y-66692956D01*
X219399999Y-66692956D02*
X219352380Y-66550099D01*
X219352380Y-66550099D02*
X219257142Y-66478670D01*
X219257142Y-66478670D02*
X219066666Y-66478670D01*
X219066666Y-66478670D02*
X218971428Y-66550099D01*
X219399999Y-67407242D02*
X219304761Y-67478670D01*
X219304761Y-67478670D02*
X219066666Y-67478670D01*
X219066666Y-67478670D02*
X218971428Y-67407242D01*
X218971428Y-67407242D02*
X218923809Y-67264384D01*
X218923809Y-67264384D02*
X218923809Y-67121527D01*
X218923809Y-67121527D02*
X218971428Y-66978670D01*
X218971428Y-66978670D02*
X219066666Y-66907242D01*
X219066666Y-66907242D02*
X219304761Y-66907242D01*
X219304761Y-66907242D02*
X219399999Y-66835813D01*
X219733333Y-66478670D02*
X220114285Y-66478670D01*
X219876190Y-65978670D02*
X219876190Y-67264384D01*
X219876190Y-67264384D02*
X219923809Y-67407242D01*
X219923809Y-67407242D02*
X220019047Y-67478670D01*
X220019047Y-67478670D02*
X220114285Y-67478670D01*
X221066667Y-66478670D02*
X221447619Y-66478670D01*
X221209524Y-65978670D02*
X221209524Y-67264384D01*
X221209524Y-67264384D02*
X221257143Y-67407242D01*
X221257143Y-67407242D02*
X221352381Y-67478670D01*
X221352381Y-67478670D02*
X221447619Y-67478670D01*
X221780953Y-67478670D02*
X221780953Y-65978670D01*
X222209524Y-67478670D02*
X222209524Y-66692956D01*
X222209524Y-66692956D02*
X222161905Y-66550099D01*
X222161905Y-66550099D02*
X222066667Y-66478670D01*
X222066667Y-66478670D02*
X221923810Y-66478670D01*
X221923810Y-66478670D02*
X221828572Y-66550099D01*
X221828572Y-66550099D02*
X221780953Y-66621527D01*
X222685715Y-67478670D02*
X222685715Y-66478670D01*
X222685715Y-66764384D02*
X222733334Y-66621527D01*
X222733334Y-66621527D02*
X222780953Y-66550099D01*
X222780953Y-66550099D02*
X222876191Y-66478670D01*
X222876191Y-66478670D02*
X222971429Y-66478670D01*
X223447620Y-67478670D02*
X223352382Y-67407242D01*
X223352382Y-67407242D02*
X223304763Y-67335813D01*
X223304763Y-67335813D02*
X223257144Y-67192956D01*
X223257144Y-67192956D02*
X223257144Y-66764384D01*
X223257144Y-66764384D02*
X223304763Y-66621527D01*
X223304763Y-66621527D02*
X223352382Y-66550099D01*
X223352382Y-66550099D02*
X223447620Y-66478670D01*
X223447620Y-66478670D02*
X223590477Y-66478670D01*
X223590477Y-66478670D02*
X223685715Y-66550099D01*
X223685715Y-66550099D02*
X223733334Y-66621527D01*
X223733334Y-66621527D02*
X223780953Y-66764384D01*
X223780953Y-66764384D02*
X223780953Y-67192956D01*
X223780953Y-67192956D02*
X223733334Y-67335813D01*
X223733334Y-67335813D02*
X223685715Y-67407242D01*
X223685715Y-67407242D02*
X223590477Y-67478670D01*
X223590477Y-67478670D02*
X223447620Y-67478670D01*
X224638096Y-66478670D02*
X224638096Y-67478670D01*
X224209525Y-66478670D02*
X224209525Y-67264384D01*
X224209525Y-67264384D02*
X224257144Y-67407242D01*
X224257144Y-67407242D02*
X224352382Y-67478670D01*
X224352382Y-67478670D02*
X224495239Y-67478670D01*
X224495239Y-67478670D02*
X224590477Y-67407242D01*
X224590477Y-67407242D02*
X224638096Y-67335813D01*
X225542858Y-66478670D02*
X225542858Y-67692956D01*
X225542858Y-67692956D02*
X225495239Y-67835813D01*
X225495239Y-67835813D02*
X225447620Y-67907242D01*
X225447620Y-67907242D02*
X225352382Y-67978670D01*
X225352382Y-67978670D02*
X225209525Y-67978670D01*
X225209525Y-67978670D02*
X225114287Y-67907242D01*
X225542858Y-67407242D02*
X225447620Y-67478670D01*
X225447620Y-67478670D02*
X225257144Y-67478670D01*
X225257144Y-67478670D02*
X225161906Y-67407242D01*
X225161906Y-67407242D02*
X225114287Y-67335813D01*
X225114287Y-67335813D02*
X225066668Y-67192956D01*
X225066668Y-67192956D02*
X225066668Y-66764384D01*
X225066668Y-66764384D02*
X225114287Y-66621527D01*
X225114287Y-66621527D02*
X225161906Y-66550099D01*
X225161906Y-66550099D02*
X225257144Y-66478670D01*
X225257144Y-66478670D02*
X225447620Y-66478670D01*
X225447620Y-66478670D02*
X225542858Y-66550099D01*
X226019049Y-67478670D02*
X226019049Y-65978670D01*
X226447620Y-67478670D02*
X226447620Y-66692956D01*
X226447620Y-66692956D02*
X226400001Y-66550099D01*
X226400001Y-66550099D02*
X226304763Y-66478670D01*
X226304763Y-66478670D02*
X226161906Y-66478670D01*
X226161906Y-66478670D02*
X226066668Y-66550099D01*
X226066668Y-66550099D02*
X226019049Y-66621527D01*
X211804761Y-69893586D02*
X211804761Y-68393586D01*
X211804761Y-68965015D02*
X211899999Y-68893586D01*
X211899999Y-68893586D02*
X212090475Y-68893586D01*
X212090475Y-68893586D02*
X212185713Y-68965015D01*
X212185713Y-68965015D02*
X212233332Y-69036443D01*
X212233332Y-69036443D02*
X212280951Y-69179300D01*
X212280951Y-69179300D02*
X212280951Y-69607872D01*
X212280951Y-69607872D02*
X212233332Y-69750729D01*
X212233332Y-69750729D02*
X212185713Y-69822158D01*
X212185713Y-69822158D02*
X212090475Y-69893586D01*
X212090475Y-69893586D02*
X211899999Y-69893586D01*
X211899999Y-69893586D02*
X211804761Y-69822158D01*
X212852380Y-69893586D02*
X212757142Y-69822158D01*
X212757142Y-69822158D02*
X212709523Y-69750729D01*
X212709523Y-69750729D02*
X212661904Y-69607872D01*
X212661904Y-69607872D02*
X212661904Y-69179300D01*
X212661904Y-69179300D02*
X212709523Y-69036443D01*
X212709523Y-69036443D02*
X212757142Y-68965015D01*
X212757142Y-68965015D02*
X212852380Y-68893586D01*
X212852380Y-68893586D02*
X212995237Y-68893586D01*
X212995237Y-68893586D02*
X213090475Y-68965015D01*
X213090475Y-68965015D02*
X213138094Y-69036443D01*
X213138094Y-69036443D02*
X213185713Y-69179300D01*
X213185713Y-69179300D02*
X213185713Y-69607872D01*
X213185713Y-69607872D02*
X213138094Y-69750729D01*
X213138094Y-69750729D02*
X213090475Y-69822158D01*
X213090475Y-69822158D02*
X212995237Y-69893586D01*
X212995237Y-69893586D02*
X212852380Y-69893586D01*
X213519047Y-69893586D02*
X214042856Y-68893586D01*
X213519047Y-68893586D02*
X214042856Y-69893586D01*
X215185714Y-69893586D02*
X215185714Y-68893586D01*
X215185714Y-68393586D02*
X215138095Y-68465015D01*
X215138095Y-68465015D02*
X215185714Y-68536443D01*
X215185714Y-68536443D02*
X215233333Y-68465015D01*
X215233333Y-68465015D02*
X215185714Y-68393586D01*
X215185714Y-68393586D02*
X215185714Y-68536443D01*
X215661904Y-68893586D02*
X215661904Y-69893586D01*
X215661904Y-69036443D02*
X215709523Y-68965015D01*
X215709523Y-68965015D02*
X215804761Y-68893586D01*
X215804761Y-68893586D02*
X215947618Y-68893586D01*
X215947618Y-68893586D02*
X216042856Y-68965015D01*
X216042856Y-68965015D02*
X216090475Y-69107872D01*
X216090475Y-69107872D02*
X216090475Y-69893586D01*
X217328571Y-69893586D02*
X217328571Y-68393586D01*
X217328571Y-68393586D02*
X217709523Y-68393586D01*
X217709523Y-68393586D02*
X217804761Y-68465015D01*
X217804761Y-68465015D02*
X217852380Y-68536443D01*
X217852380Y-68536443D02*
X217899999Y-68679300D01*
X217899999Y-68679300D02*
X217899999Y-68893586D01*
X217899999Y-68893586D02*
X217852380Y-69036443D01*
X217852380Y-69036443D02*
X217804761Y-69107872D01*
X217804761Y-69107872D02*
X217709523Y-69179300D01*
X217709523Y-69179300D02*
X217328571Y-69179300D01*
X218899999Y-69750729D02*
X218852380Y-69822158D01*
X218852380Y-69822158D02*
X218709523Y-69893586D01*
X218709523Y-69893586D02*
X218614285Y-69893586D01*
X218614285Y-69893586D02*
X218471428Y-69822158D01*
X218471428Y-69822158D02*
X218376190Y-69679300D01*
X218376190Y-69679300D02*
X218328571Y-69536443D01*
X218328571Y-69536443D02*
X218280952Y-69250729D01*
X218280952Y-69250729D02*
X218280952Y-69036443D01*
X218280952Y-69036443D02*
X218328571Y-68750729D01*
X218328571Y-68750729D02*
X218376190Y-68607872D01*
X218376190Y-68607872D02*
X218471428Y-68465015D01*
X218471428Y-68465015D02*
X218614285Y-68393586D01*
X218614285Y-68393586D02*
X218709523Y-68393586D01*
X218709523Y-68393586D02*
X218852380Y-68465015D01*
X218852380Y-68465015D02*
X218899999Y-68536443D01*
X219661904Y-69107872D02*
X219804761Y-69179300D01*
X219804761Y-69179300D02*
X219852380Y-69250729D01*
X219852380Y-69250729D02*
X219899999Y-69393586D01*
X219899999Y-69393586D02*
X219899999Y-69607872D01*
X219899999Y-69607872D02*
X219852380Y-69750729D01*
X219852380Y-69750729D02*
X219804761Y-69822158D01*
X219804761Y-69822158D02*
X219709523Y-69893586D01*
X219709523Y-69893586D02*
X219328571Y-69893586D01*
X219328571Y-69893586D02*
X219328571Y-68393586D01*
X219328571Y-68393586D02*
X219661904Y-68393586D01*
X219661904Y-68393586D02*
X219757142Y-68465015D01*
X219757142Y-68465015D02*
X219804761Y-68536443D01*
X219804761Y-68536443D02*
X219852380Y-68679300D01*
X219852380Y-68679300D02*
X219852380Y-68822158D01*
X219852380Y-68822158D02*
X219804761Y-68965015D01*
X219804761Y-68965015D02*
X219757142Y-69036443D01*
X219757142Y-69036443D02*
X219661904Y-69107872D01*
X219661904Y-69107872D02*
X219328571Y-69107872D01*
X221519047Y-69822158D02*
X221423809Y-69893586D01*
X221423809Y-69893586D02*
X221233333Y-69893586D01*
X221233333Y-69893586D02*
X221138095Y-69822158D01*
X221138095Y-69822158D02*
X221090476Y-69750729D01*
X221090476Y-69750729D02*
X221042857Y-69607872D01*
X221042857Y-69607872D02*
X221042857Y-69179300D01*
X221042857Y-69179300D02*
X221090476Y-69036443D01*
X221090476Y-69036443D02*
X221138095Y-68965015D01*
X221138095Y-68965015D02*
X221233333Y-68893586D01*
X221233333Y-68893586D02*
X221423809Y-68893586D01*
X221423809Y-68893586D02*
X221519047Y-68965015D01*
X222090476Y-69893586D02*
X221995238Y-69822158D01*
X221995238Y-69822158D02*
X221947619Y-69750729D01*
X221947619Y-69750729D02*
X221900000Y-69607872D01*
X221900000Y-69607872D02*
X221900000Y-69179300D01*
X221900000Y-69179300D02*
X221947619Y-69036443D01*
X221947619Y-69036443D02*
X221995238Y-68965015D01*
X221995238Y-68965015D02*
X222090476Y-68893586D01*
X222090476Y-68893586D02*
X222233333Y-68893586D01*
X222233333Y-68893586D02*
X222328571Y-68965015D01*
X222328571Y-68965015D02*
X222376190Y-69036443D01*
X222376190Y-69036443D02*
X222423809Y-69179300D01*
X222423809Y-69179300D02*
X222423809Y-69607872D01*
X222423809Y-69607872D02*
X222376190Y-69750729D01*
X222376190Y-69750729D02*
X222328571Y-69822158D01*
X222328571Y-69822158D02*
X222233333Y-69893586D01*
X222233333Y-69893586D02*
X222090476Y-69893586D01*
X222852381Y-68893586D02*
X222852381Y-69893586D01*
X222852381Y-69036443D02*
X222900000Y-68965015D01*
X222900000Y-68965015D02*
X222995238Y-68893586D01*
X222995238Y-68893586D02*
X223138095Y-68893586D01*
X223138095Y-68893586D02*
X223233333Y-68965015D01*
X223233333Y-68965015D02*
X223280952Y-69107872D01*
X223280952Y-69107872D02*
X223280952Y-69893586D01*
X223757143Y-68893586D02*
X223757143Y-69893586D01*
X223757143Y-69036443D02*
X223804762Y-68965015D01*
X223804762Y-68965015D02*
X223900000Y-68893586D01*
X223900000Y-68893586D02*
X224042857Y-68893586D01*
X224042857Y-68893586D02*
X224138095Y-68965015D01*
X224138095Y-68965015D02*
X224185714Y-69107872D01*
X224185714Y-69107872D02*
X224185714Y-69893586D01*
X225042857Y-69822158D02*
X224947619Y-69893586D01*
X224947619Y-69893586D02*
X224757143Y-69893586D01*
X224757143Y-69893586D02*
X224661905Y-69822158D01*
X224661905Y-69822158D02*
X224614286Y-69679300D01*
X224614286Y-69679300D02*
X224614286Y-69107872D01*
X224614286Y-69107872D02*
X224661905Y-68965015D01*
X224661905Y-68965015D02*
X224757143Y-68893586D01*
X224757143Y-68893586D02*
X224947619Y-68893586D01*
X224947619Y-68893586D02*
X225042857Y-68965015D01*
X225042857Y-68965015D02*
X225090476Y-69107872D01*
X225090476Y-69107872D02*
X225090476Y-69250729D01*
X225090476Y-69250729D02*
X224614286Y-69393586D01*
X225947619Y-69822158D02*
X225852381Y-69893586D01*
X225852381Y-69893586D02*
X225661905Y-69893586D01*
X225661905Y-69893586D02*
X225566667Y-69822158D01*
X225566667Y-69822158D02*
X225519048Y-69750729D01*
X225519048Y-69750729D02*
X225471429Y-69607872D01*
X225471429Y-69607872D02*
X225471429Y-69179300D01*
X225471429Y-69179300D02*
X225519048Y-69036443D01*
X225519048Y-69036443D02*
X225566667Y-68965015D01*
X225566667Y-68965015D02*
X225661905Y-68893586D01*
X225661905Y-68893586D02*
X225852381Y-68893586D01*
X225852381Y-68893586D02*
X225947619Y-68965015D01*
X226233334Y-68893586D02*
X226614286Y-68893586D01*
X226376191Y-68393586D02*
X226376191Y-69679300D01*
X226376191Y-69679300D02*
X226423810Y-69822158D01*
X226423810Y-69822158D02*
X226519048Y-69893586D01*
X226519048Y-69893586D02*
X226614286Y-69893586D01*
X227090477Y-69893586D02*
X226995239Y-69822158D01*
X226995239Y-69822158D02*
X226947620Y-69750729D01*
X226947620Y-69750729D02*
X226900001Y-69607872D01*
X226900001Y-69607872D02*
X226900001Y-69179300D01*
X226900001Y-69179300D02*
X226947620Y-69036443D01*
X226947620Y-69036443D02*
X226995239Y-68965015D01*
X226995239Y-68965015D02*
X227090477Y-68893586D01*
X227090477Y-68893586D02*
X227233334Y-68893586D01*
X227233334Y-68893586D02*
X227328572Y-68965015D01*
X227328572Y-68965015D02*
X227376191Y-69036443D01*
X227376191Y-69036443D02*
X227423810Y-69179300D01*
X227423810Y-69179300D02*
X227423810Y-69607872D01*
X227423810Y-69607872D02*
X227376191Y-69750729D01*
X227376191Y-69750729D02*
X227328572Y-69822158D01*
X227328572Y-69822158D02*
X227233334Y-69893586D01*
X227233334Y-69893586D02*
X227090477Y-69893586D01*
X227852382Y-69893586D02*
X227852382Y-68893586D01*
X227852382Y-69179300D02*
X227900001Y-69036443D01*
X227900001Y-69036443D02*
X227947620Y-68965015D01*
X227947620Y-68965015D02*
X228042858Y-68893586D01*
X228042858Y-68893586D02*
X228138096Y-68893586D01*
X225085714Y-73786128D02*
X224514286Y-73786128D01*
X224800000Y-73786128D02*
X224800000Y-72286128D01*
X224800000Y-72286128D02*
X224704762Y-72500414D01*
X224704762Y-72500414D02*
X224609524Y-72643271D01*
X224609524Y-72643271D02*
X224514286Y-72714700D01*
X216980952Y-84697550D02*
X216504762Y-84697550D01*
X216504762Y-84697550D02*
X216504762Y-82697550D01*
X217885714Y-84507073D02*
X217838095Y-84602312D01*
X217838095Y-84602312D02*
X217695238Y-84697550D01*
X217695238Y-84697550D02*
X217600000Y-84697550D01*
X217600000Y-84697550D02*
X217457143Y-84602312D01*
X217457143Y-84602312D02*
X217361905Y-84411835D01*
X217361905Y-84411835D02*
X217314286Y-84221359D01*
X217314286Y-84221359D02*
X217266667Y-83840407D01*
X217266667Y-83840407D02*
X217266667Y-83554692D01*
X217266667Y-83554692D02*
X217314286Y-83173740D01*
X217314286Y-83173740D02*
X217361905Y-82983264D01*
X217361905Y-82983264D02*
X217457143Y-82792788D01*
X217457143Y-82792788D02*
X217600000Y-82697550D01*
X217600000Y-82697550D02*
X217695238Y-82697550D01*
X217695238Y-82697550D02*
X217838095Y-82792788D01*
X217838095Y-82792788D02*
X217885714Y-82888026D01*
X218314286Y-84697550D02*
X218314286Y-82697550D01*
X218314286Y-82697550D02*
X218552381Y-82697550D01*
X218552381Y-82697550D02*
X218695238Y-82792788D01*
X218695238Y-82792788D02*
X218790476Y-82983264D01*
X218790476Y-82983264D02*
X218838095Y-83173740D01*
X218838095Y-83173740D02*
X218885714Y-83554692D01*
X218885714Y-83554692D02*
X218885714Y-83840407D01*
X218885714Y-83840407D02*
X218838095Y-84221359D01*
X218838095Y-84221359D02*
X218790476Y-84411835D01*
X218790476Y-84411835D02*
X218695238Y-84602312D01*
X218695238Y-84602312D02*
X218552381Y-84697550D01*
X218552381Y-84697550D02*
X218314286Y-84697550D01*
X220266667Y-82697550D02*
X220361905Y-82697550D01*
X220361905Y-82697550D02*
X220457143Y-82792788D01*
X220457143Y-82792788D02*
X220504762Y-82888026D01*
X220504762Y-82888026D02*
X220552381Y-83078502D01*
X220552381Y-83078502D02*
X220600000Y-83459454D01*
X220600000Y-83459454D02*
X220600000Y-83935645D01*
X220600000Y-83935645D02*
X220552381Y-84316597D01*
X220552381Y-84316597D02*
X220504762Y-84507073D01*
X220504762Y-84507073D02*
X220457143Y-84602312D01*
X220457143Y-84602312D02*
X220361905Y-84697550D01*
X220361905Y-84697550D02*
X220266667Y-84697550D01*
X220266667Y-84697550D02*
X220171429Y-84602312D01*
X220171429Y-84602312D02*
X220123810Y-84507073D01*
X220123810Y-84507073D02*
X220076191Y-84316597D01*
X220076191Y-84316597D02*
X220028572Y-83935645D01*
X220028572Y-83935645D02*
X220028572Y-83459454D01*
X220028572Y-83459454D02*
X220076191Y-83078502D01*
X220076191Y-83078502D02*
X220123810Y-82888026D01*
X220123810Y-82888026D02*
X220171429Y-82792788D01*
X220171429Y-82792788D02*
X220266667Y-82697550D01*
X221028572Y-84507073D02*
X221076191Y-84602312D01*
X221076191Y-84602312D02*
X221028572Y-84697550D01*
X221028572Y-84697550D02*
X220980953Y-84602312D01*
X220980953Y-84602312D02*
X221028572Y-84507073D01*
X221028572Y-84507073D02*
X221028572Y-84697550D01*
X221552381Y-84697550D02*
X221742857Y-84697550D01*
X221742857Y-84697550D02*
X221838095Y-84602312D01*
X221838095Y-84602312D02*
X221885714Y-84507073D01*
X221885714Y-84507073D02*
X221980952Y-84221359D01*
X221980952Y-84221359D02*
X222028571Y-83840407D01*
X222028571Y-83840407D02*
X222028571Y-83078502D01*
X222028571Y-83078502D02*
X221980952Y-82888026D01*
X221980952Y-82888026D02*
X221933333Y-82792788D01*
X221933333Y-82792788D02*
X221838095Y-82697550D01*
X221838095Y-82697550D02*
X221647619Y-82697550D01*
X221647619Y-82697550D02*
X221552381Y-82792788D01*
X221552381Y-82792788D02*
X221504762Y-82888026D01*
X221504762Y-82888026D02*
X221457143Y-83078502D01*
X221457143Y-83078502D02*
X221457143Y-83554692D01*
X221457143Y-83554692D02*
X221504762Y-83745169D01*
X221504762Y-83745169D02*
X221552381Y-83840407D01*
X221552381Y-83840407D02*
X221647619Y-83935645D01*
X221647619Y-83935645D02*
X221838095Y-83935645D01*
X221838095Y-83935645D02*
X221933333Y-83840407D01*
X221933333Y-83840407D02*
X221980952Y-83745169D01*
X221980952Y-83745169D02*
X222028571Y-83554692D01*
X222885714Y-82697550D02*
X222695238Y-82697550D01*
X222695238Y-82697550D02*
X222600000Y-82792788D01*
X222600000Y-82792788D02*
X222552381Y-82888026D01*
X222552381Y-82888026D02*
X222457143Y-83173740D01*
X222457143Y-83173740D02*
X222409524Y-83554692D01*
X222409524Y-83554692D02*
X222409524Y-84316597D01*
X222409524Y-84316597D02*
X222457143Y-84507073D01*
X222457143Y-84507073D02*
X222504762Y-84602312D01*
X222504762Y-84602312D02*
X222600000Y-84697550D01*
X222600000Y-84697550D02*
X222790476Y-84697550D01*
X222790476Y-84697550D02*
X222885714Y-84602312D01*
X222885714Y-84602312D02*
X222933333Y-84507073D01*
X222933333Y-84507073D02*
X222980952Y-84316597D01*
X222980952Y-84316597D02*
X222980952Y-83840407D01*
X222980952Y-83840407D02*
X222933333Y-83649931D01*
X222933333Y-83649931D02*
X222885714Y-83554692D01*
X222885714Y-83554692D02*
X222790476Y-83459454D01*
X222790476Y-83459454D02*
X222600000Y-83459454D01*
X222600000Y-83459454D02*
X222504762Y-83554692D01*
X222504762Y-83554692D02*
X222457143Y-83649931D01*
X222457143Y-83649931D02*
X222409524Y-83840407D01*
X223361905Y-82697550D02*
X223361905Y-83078502D01*
X223742857Y-82697550D02*
X223742857Y-83078502D01*
X219409523Y-87917438D02*
X219076190Y-86965057D01*
X218838095Y-87917438D02*
X218838095Y-85917438D01*
X218838095Y-85917438D02*
X219219047Y-85917438D01*
X219219047Y-85917438D02*
X219314285Y-86012676D01*
X219314285Y-86012676D02*
X219361904Y-86107914D01*
X219361904Y-86107914D02*
X219409523Y-86298390D01*
X219409523Y-86298390D02*
X219409523Y-86584104D01*
X219409523Y-86584104D02*
X219361904Y-86774580D01*
X219361904Y-86774580D02*
X219314285Y-86869819D01*
X219314285Y-86869819D02*
X219219047Y-86965057D01*
X219219047Y-86965057D02*
X218838095Y-86965057D01*
X220361904Y-86012676D02*
X220266666Y-85917438D01*
X220266666Y-85917438D02*
X220123809Y-85917438D01*
X220123809Y-85917438D02*
X219980952Y-86012676D01*
X219980952Y-86012676D02*
X219885714Y-86203152D01*
X219885714Y-86203152D02*
X219838095Y-86393628D01*
X219838095Y-86393628D02*
X219790476Y-86774580D01*
X219790476Y-86774580D02*
X219790476Y-87060295D01*
X219790476Y-87060295D02*
X219838095Y-87441247D01*
X219838095Y-87441247D02*
X219885714Y-87631723D01*
X219885714Y-87631723D02*
X219980952Y-87822200D01*
X219980952Y-87822200D02*
X220123809Y-87917438D01*
X220123809Y-87917438D02*
X220219047Y-87917438D01*
X220219047Y-87917438D02*
X220361904Y-87822200D01*
X220361904Y-87822200D02*
X220409523Y-87726961D01*
X220409523Y-87726961D02*
X220409523Y-87060295D01*
X220409523Y-87060295D02*
X220219047Y-87060295D01*
X221171428Y-86869819D02*
X221314285Y-86965057D01*
X221314285Y-86965057D02*
X221361904Y-87060295D01*
X221361904Y-87060295D02*
X221409523Y-87250771D01*
X221409523Y-87250771D02*
X221409523Y-87536485D01*
X221409523Y-87536485D02*
X221361904Y-87726961D01*
X221361904Y-87726961D02*
X221314285Y-87822200D01*
X221314285Y-87822200D02*
X221219047Y-87917438D01*
X221219047Y-87917438D02*
X220838095Y-87917438D01*
X220838095Y-87917438D02*
X220838095Y-85917438D01*
X220838095Y-85917438D02*
X221171428Y-85917438D01*
X221171428Y-85917438D02*
X221266666Y-86012676D01*
X221266666Y-86012676D02*
X221314285Y-86107914D01*
X221314285Y-86107914D02*
X221361904Y-86298390D01*
X221361904Y-86298390D02*
X221361904Y-86488866D01*
X221361904Y-86488866D02*
X221314285Y-86679342D01*
X221314285Y-86679342D02*
X221266666Y-86774580D01*
X221266666Y-86774580D02*
X221171428Y-86869819D01*
X221171428Y-86869819D02*
X220838095Y-86869819D01*
X217695238Y-89994468D02*
X217600000Y-89899230D01*
X217600000Y-89899230D02*
X217552381Y-89803992D01*
X217552381Y-89803992D02*
X217504762Y-89613516D01*
X217504762Y-89613516D02*
X217504762Y-89518278D01*
X217504762Y-89518278D02*
X217552381Y-89327802D01*
X217552381Y-89327802D02*
X217600000Y-89232564D01*
X217600000Y-89232564D02*
X217695238Y-89137326D01*
X217695238Y-89137326D02*
X217885714Y-89137326D01*
X217885714Y-89137326D02*
X217980952Y-89232564D01*
X217980952Y-89232564D02*
X218028571Y-89327802D01*
X218028571Y-89327802D02*
X218076190Y-89518278D01*
X218076190Y-89518278D02*
X218076190Y-89613516D01*
X218076190Y-89613516D02*
X218028571Y-89803992D01*
X218028571Y-89803992D02*
X217980952Y-89899230D01*
X217980952Y-89899230D02*
X217885714Y-89994468D01*
X217885714Y-89994468D02*
X217695238Y-89994468D01*
X217695238Y-89994468D02*
X217600000Y-90089707D01*
X217600000Y-90089707D02*
X217552381Y-90184945D01*
X217552381Y-90184945D02*
X217504762Y-90375421D01*
X217504762Y-90375421D02*
X217504762Y-90756373D01*
X217504762Y-90756373D02*
X217552381Y-90946849D01*
X217552381Y-90946849D02*
X217600000Y-91042088D01*
X217600000Y-91042088D02*
X217695238Y-91137326D01*
X217695238Y-91137326D02*
X217885714Y-91137326D01*
X217885714Y-91137326D02*
X217980952Y-91042088D01*
X217980952Y-91042088D02*
X218028571Y-90946849D01*
X218028571Y-90946849D02*
X218076190Y-90756373D01*
X218076190Y-90756373D02*
X218076190Y-90375421D01*
X218076190Y-90375421D02*
X218028571Y-90184945D01*
X218028571Y-90184945D02*
X217980952Y-90089707D01*
X217980952Y-90089707D02*
X217885714Y-89994468D01*
X218695238Y-89137326D02*
X218790476Y-89137326D01*
X218790476Y-89137326D02*
X218885714Y-89232564D01*
X218885714Y-89232564D02*
X218933333Y-89327802D01*
X218933333Y-89327802D02*
X218980952Y-89518278D01*
X218980952Y-89518278D02*
X219028571Y-89899230D01*
X219028571Y-89899230D02*
X219028571Y-90375421D01*
X219028571Y-90375421D02*
X218980952Y-90756373D01*
X218980952Y-90756373D02*
X218933333Y-90946849D01*
X218933333Y-90946849D02*
X218885714Y-91042088D01*
X218885714Y-91042088D02*
X218790476Y-91137326D01*
X218790476Y-91137326D02*
X218695238Y-91137326D01*
X218695238Y-91137326D02*
X218600000Y-91042088D01*
X218600000Y-91042088D02*
X218552381Y-90946849D01*
X218552381Y-90946849D02*
X218504762Y-90756373D01*
X218504762Y-90756373D02*
X218457143Y-90375421D01*
X218457143Y-90375421D02*
X218457143Y-89899230D01*
X218457143Y-89899230D02*
X218504762Y-89518278D01*
X218504762Y-89518278D02*
X218552381Y-89327802D01*
X218552381Y-89327802D02*
X218600000Y-89232564D01*
X218600000Y-89232564D02*
X218695238Y-89137326D01*
X219361905Y-91137326D02*
X219885714Y-89803992D01*
X219361905Y-89803992D02*
X219885714Y-91137326D01*
X220790476Y-91137326D02*
X220219048Y-91137326D01*
X220504762Y-91137326D02*
X220504762Y-89137326D01*
X220504762Y-89137326D02*
X220409524Y-89423040D01*
X220409524Y-89423040D02*
X220314286Y-89613516D01*
X220314286Y-89613516D02*
X220219048Y-89708754D01*
X221647619Y-89137326D02*
X221457143Y-89137326D01*
X221457143Y-89137326D02*
X221361905Y-89232564D01*
X221361905Y-89232564D02*
X221314286Y-89327802D01*
X221314286Y-89327802D02*
X221219048Y-89613516D01*
X221219048Y-89613516D02*
X221171429Y-89994468D01*
X221171429Y-89994468D02*
X221171429Y-90756373D01*
X221171429Y-90756373D02*
X221219048Y-90946849D01*
X221219048Y-90946849D02*
X221266667Y-91042088D01*
X221266667Y-91042088D02*
X221361905Y-91137326D01*
X221361905Y-91137326D02*
X221552381Y-91137326D01*
X221552381Y-91137326D02*
X221647619Y-91042088D01*
X221647619Y-91042088D02*
X221695238Y-90946849D01*
X221695238Y-90946849D02*
X221742857Y-90756373D01*
X221742857Y-90756373D02*
X221742857Y-90280183D01*
X221742857Y-90280183D02*
X221695238Y-90089707D01*
X221695238Y-90089707D02*
X221647619Y-89994468D01*
X221647619Y-89994468D02*
X221552381Y-89899230D01*
X221552381Y-89899230D02*
X221361905Y-89899230D01*
X221361905Y-89899230D02*
X221266667Y-89994468D01*
X221266667Y-89994468D02*
X221219048Y-90089707D01*
X221219048Y-90089707D02*
X221171429Y-90280183D01*
X222361905Y-89137326D02*
X222457143Y-89137326D01*
X222457143Y-89137326D02*
X222552381Y-89232564D01*
X222552381Y-89232564D02*
X222600000Y-89327802D01*
X222600000Y-89327802D02*
X222647619Y-89518278D01*
X222647619Y-89518278D02*
X222695238Y-89899230D01*
X222695238Y-89899230D02*
X222695238Y-90375421D01*
X222695238Y-90375421D02*
X222647619Y-90756373D01*
X222647619Y-90756373D02*
X222600000Y-90946849D01*
X222600000Y-90946849D02*
X222552381Y-91042088D01*
X222552381Y-91042088D02*
X222457143Y-91137326D01*
X222457143Y-91137326D02*
X222361905Y-91137326D01*
X222361905Y-91137326D02*
X222266667Y-91042088D01*
X222266667Y-91042088D02*
X222219048Y-90946849D01*
X222219048Y-90946849D02*
X222171429Y-90756373D01*
X222171429Y-90756373D02*
X222123810Y-90375421D01*
X222123810Y-90375421D02*
X222123810Y-89899230D01*
X222123810Y-89899230D02*
X222171429Y-89518278D01*
X222171429Y-89518278D02*
X222219048Y-89327802D01*
X222219048Y-89327802D02*
X222266667Y-89232564D01*
X222266667Y-89232564D02*
X222361905Y-89137326D01*
X103128571Y-22929063D02*
X103842857Y-23262397D01*
X103842857Y-23262397D02*
X104080952Y-23595730D01*
X104080952Y-23595730D02*
X104319048Y-24262397D01*
X104319048Y-24262397D02*
X104319048Y-25262397D01*
X104319048Y-25262397D02*
X104080952Y-25929063D01*
X104080952Y-25929063D02*
X103842857Y-26262397D01*
X103842857Y-26262397D02*
X103366667Y-26595730D01*
X103366667Y-26595730D02*
X101461905Y-26595730D01*
X101461905Y-26595730D02*
X101461905Y-19595730D01*
X101461905Y-19595730D02*
X103128571Y-19595730D01*
X103128571Y-19595730D02*
X103604762Y-19929063D01*
X103604762Y-19929063D02*
X103842857Y-20262397D01*
X103842857Y-20262397D02*
X104080952Y-20929063D01*
X104080952Y-20929063D02*
X104080952Y-21595730D01*
X104080952Y-21595730D02*
X103842857Y-22262397D01*
X103842857Y-22262397D02*
X103604762Y-22595730D01*
X103604762Y-22595730D02*
X103128571Y-22929063D01*
X103128571Y-22929063D02*
X101461905Y-22929063D01*
X108604762Y-26595730D02*
X108604762Y-22929063D01*
X108604762Y-22929063D02*
X108366667Y-22262397D01*
X108366667Y-22262397D02*
X107890476Y-21929063D01*
X107890476Y-21929063D02*
X106938095Y-21929063D01*
X106938095Y-21929063D02*
X106461905Y-22262397D01*
X108604762Y-26262397D02*
X108128571Y-26595730D01*
X108128571Y-26595730D02*
X106938095Y-26595730D01*
X106938095Y-26595730D02*
X106461905Y-26262397D01*
X106461905Y-26262397D02*
X106223809Y-25595730D01*
X106223809Y-25595730D02*
X106223809Y-24929063D01*
X106223809Y-24929063D02*
X106461905Y-24262397D01*
X106461905Y-24262397D02*
X106938095Y-23929063D01*
X106938095Y-23929063D02*
X108128571Y-23929063D01*
X108128571Y-23929063D02*
X108604762Y-23595730D01*
X110747619Y-26262397D02*
X111223810Y-26595730D01*
X111223810Y-26595730D02*
X112176191Y-26595730D01*
X112176191Y-26595730D02*
X112652381Y-26262397D01*
X112652381Y-26262397D02*
X112890477Y-25595730D01*
X112890477Y-25595730D02*
X112890477Y-25262397D01*
X112890477Y-25262397D02*
X112652381Y-24595730D01*
X112652381Y-24595730D02*
X112176191Y-24262397D01*
X112176191Y-24262397D02*
X111461905Y-24262397D01*
X111461905Y-24262397D02*
X110985715Y-23929063D01*
X110985715Y-23929063D02*
X110747619Y-23262397D01*
X110747619Y-23262397D02*
X110747619Y-22929063D01*
X110747619Y-22929063D02*
X110985715Y-22262397D01*
X110985715Y-22262397D02*
X111461905Y-21929063D01*
X111461905Y-21929063D02*
X112176191Y-21929063D01*
X112176191Y-21929063D02*
X112652381Y-22262397D01*
X116938096Y-26262397D02*
X116461905Y-26595730D01*
X116461905Y-26595730D02*
X115509524Y-26595730D01*
X115509524Y-26595730D02*
X115033334Y-26262397D01*
X115033334Y-26262397D02*
X114795238Y-25595730D01*
X114795238Y-25595730D02*
X114795238Y-22929063D01*
X114795238Y-22929063D02*
X115033334Y-22262397D01*
X115033334Y-22262397D02*
X115509524Y-21929063D01*
X115509524Y-21929063D02*
X116461905Y-21929063D01*
X116461905Y-21929063D02*
X116938096Y-22262397D01*
X116938096Y-22262397D02*
X117176191Y-22929063D01*
X117176191Y-22929063D02*
X117176191Y-23595730D01*
X117176191Y-23595730D02*
X114795238Y-24262397D01*
X101461904Y-37865338D02*
X98604761Y-37865338D01*
X100033333Y-37865338D02*
X100033333Y-30865338D01*
X100033333Y-30865338D02*
X99557142Y-31865338D01*
X99557142Y-31865338D02*
X99080952Y-32532005D01*
X99080952Y-32532005D02*
X98604761Y-32865338D01*
X105985714Y-30865338D02*
X103604762Y-30865338D01*
X103604762Y-30865338D02*
X103366666Y-34198671D01*
X103366666Y-34198671D02*
X103604762Y-33865338D01*
X103604762Y-33865338D02*
X104080952Y-33532005D01*
X104080952Y-33532005D02*
X105271428Y-33532005D01*
X105271428Y-33532005D02*
X105747619Y-33865338D01*
X105747619Y-33865338D02*
X105985714Y-34198671D01*
X105985714Y-34198671D02*
X106223809Y-34865338D01*
X106223809Y-34865338D02*
X106223809Y-36532005D01*
X106223809Y-36532005D02*
X105985714Y-37198671D01*
X105985714Y-37198671D02*
X105747619Y-37532005D01*
X105747619Y-37532005D02*
X105271428Y-37865338D01*
X105271428Y-37865338D02*
X104080952Y-37865338D01*
X104080952Y-37865338D02*
X103604762Y-37532005D01*
X103604762Y-37532005D02*
X103366666Y-37198671D01*
X107890476Y-37865338D02*
X110509524Y-33198671D01*
X107890476Y-33198671D02*
X110509524Y-37865338D01*
X111938095Y-30865338D02*
X115271429Y-30865338D01*
X115271429Y-30865338D02*
X113128571Y-37865338D01*
X117414286Y-37865338D02*
X118366667Y-37865338D01*
X118366667Y-37865338D02*
X118842857Y-37532005D01*
X118842857Y-37532005D02*
X119080953Y-37198671D01*
X119080953Y-37198671D02*
X119557143Y-36198671D01*
X119557143Y-36198671D02*
X119795238Y-34865338D01*
X119795238Y-34865338D02*
X119795238Y-32198671D01*
X119795238Y-32198671D02*
X119557143Y-31532005D01*
X119557143Y-31532005D02*
X119319048Y-31198671D01*
X119319048Y-31198671D02*
X118842857Y-30865338D01*
X118842857Y-30865338D02*
X117890476Y-30865338D01*
X117890476Y-30865338D02*
X117414286Y-31198671D01*
X117414286Y-31198671D02*
X117176191Y-31532005D01*
X117176191Y-31532005D02*
X116938095Y-32198671D01*
X116938095Y-32198671D02*
X116938095Y-33865338D01*
X116938095Y-33865338D02*
X117176191Y-34532005D01*
X117176191Y-34532005D02*
X117414286Y-34865338D01*
X117414286Y-34865338D02*
X117890476Y-35198671D01*
X117890476Y-35198671D02*
X118842857Y-35198671D01*
X118842857Y-35198671D02*
X119319048Y-34865338D01*
X119319048Y-34865338D02*
X119557143Y-34532005D01*
X119557143Y-34532005D02*
X119795238Y-33865338D01*
X146323809Y-33630534D02*
X144657142Y-30297201D01*
X143466666Y-33630534D02*
X143466666Y-26630534D01*
X143466666Y-26630534D02*
X145371428Y-26630534D01*
X145371428Y-26630534D02*
X145847618Y-26963867D01*
X145847618Y-26963867D02*
X146085713Y-27297201D01*
X146085713Y-27297201D02*
X146323809Y-27963867D01*
X146323809Y-27963867D02*
X146323809Y-28963867D01*
X146323809Y-28963867D02*
X146085713Y-29630534D01*
X146085713Y-29630534D02*
X145847618Y-29963867D01*
X145847618Y-29963867D02*
X145371428Y-30297201D01*
X145371428Y-30297201D02*
X143466666Y-30297201D01*
X148466666Y-33630534D02*
X148466666Y-28963867D01*
X148466666Y-26630534D02*
X148228570Y-26963867D01*
X148228570Y-26963867D02*
X148466666Y-27297201D01*
X148466666Y-27297201D02*
X148704761Y-26963867D01*
X148704761Y-26963867D02*
X148466666Y-26630534D01*
X148466666Y-26630534D02*
X148466666Y-27297201D01*
X152990475Y-28963867D02*
X152990475Y-34630534D01*
X152990475Y-34630534D02*
X152752380Y-35297201D01*
X152752380Y-35297201D02*
X152514284Y-35630534D01*
X152514284Y-35630534D02*
X152038094Y-35963867D01*
X152038094Y-35963867D02*
X151323808Y-35963867D01*
X151323808Y-35963867D02*
X150847618Y-35630534D01*
X152990475Y-33297201D02*
X152514284Y-33630534D01*
X152514284Y-33630534D02*
X151561903Y-33630534D01*
X151561903Y-33630534D02*
X151085713Y-33297201D01*
X151085713Y-33297201D02*
X150847618Y-32963867D01*
X150847618Y-32963867D02*
X150609522Y-32297201D01*
X150609522Y-32297201D02*
X150609522Y-30297201D01*
X150609522Y-30297201D02*
X150847618Y-29630534D01*
X150847618Y-29630534D02*
X151085713Y-29297201D01*
X151085713Y-29297201D02*
X151561903Y-28963867D01*
X151561903Y-28963867D02*
X152514284Y-28963867D01*
X152514284Y-28963867D02*
X152990475Y-29297201D01*
X155371428Y-33630534D02*
X155371428Y-26630534D01*
X157514285Y-33630534D02*
X157514285Y-29963867D01*
X157514285Y-29963867D02*
X157276190Y-29297201D01*
X157276190Y-29297201D02*
X156799999Y-28963867D01*
X156799999Y-28963867D02*
X156085713Y-28963867D01*
X156085713Y-28963867D02*
X155609523Y-29297201D01*
X155609523Y-29297201D02*
X155371428Y-29630534D01*
X159180952Y-28963867D02*
X161085714Y-28963867D01*
X159895238Y-26630534D02*
X159895238Y-32630534D01*
X159895238Y-32630534D02*
X160133333Y-33297201D01*
X160133333Y-33297201D02*
X160609523Y-33630534D01*
X160609523Y-33630534D02*
X161085714Y-33630534D01*
X166323809Y-33297201D02*
X167038095Y-33630534D01*
X167038095Y-33630534D02*
X168228571Y-33630534D01*
X168228571Y-33630534D02*
X168704762Y-33297201D01*
X168704762Y-33297201D02*
X168942857Y-32963867D01*
X168942857Y-32963867D02*
X169180952Y-32297201D01*
X169180952Y-32297201D02*
X169180952Y-31630534D01*
X169180952Y-31630534D02*
X168942857Y-30963867D01*
X168942857Y-30963867D02*
X168704762Y-30630534D01*
X168704762Y-30630534D02*
X168228571Y-30297201D01*
X168228571Y-30297201D02*
X167276190Y-29963867D01*
X167276190Y-29963867D02*
X166800000Y-29630534D01*
X166800000Y-29630534D02*
X166561905Y-29297201D01*
X166561905Y-29297201D02*
X166323809Y-28630534D01*
X166323809Y-28630534D02*
X166323809Y-27963867D01*
X166323809Y-27963867D02*
X166561905Y-27297201D01*
X166561905Y-27297201D02*
X166800000Y-26963867D01*
X166800000Y-26963867D02*
X167276190Y-26630534D01*
X167276190Y-26630534D02*
X168466667Y-26630534D01*
X168466667Y-26630534D02*
X169180952Y-26963867D01*
X171323810Y-33630534D02*
X171323810Y-28963867D01*
X171323810Y-26630534D02*
X171085714Y-26963867D01*
X171085714Y-26963867D02*
X171323810Y-27297201D01*
X171323810Y-27297201D02*
X171561905Y-26963867D01*
X171561905Y-26963867D02*
X171323810Y-26630534D01*
X171323810Y-26630534D02*
X171323810Y-27297201D01*
X175847619Y-33630534D02*
X175847619Y-26630534D01*
X175847619Y-33297201D02*
X175371428Y-33630534D01*
X175371428Y-33630534D02*
X174419047Y-33630534D01*
X174419047Y-33630534D02*
X173942857Y-33297201D01*
X173942857Y-33297201D02*
X173704762Y-32963867D01*
X173704762Y-32963867D02*
X173466666Y-32297201D01*
X173466666Y-32297201D02*
X173466666Y-30297201D01*
X173466666Y-30297201D02*
X173704762Y-29630534D01*
X173704762Y-29630534D02*
X173942857Y-29297201D01*
X173942857Y-29297201D02*
X174419047Y-28963867D01*
X174419047Y-28963867D02*
X175371428Y-28963867D01*
X175371428Y-28963867D02*
X175847619Y-29297201D01*
X180133334Y-33297201D02*
X179657143Y-33630534D01*
X179657143Y-33630534D02*
X178704762Y-33630534D01*
X178704762Y-33630534D02*
X178228572Y-33297201D01*
X178228572Y-33297201D02*
X177990476Y-32630534D01*
X177990476Y-32630534D02*
X177990476Y-29963867D01*
X177990476Y-29963867D02*
X178228572Y-29297201D01*
X178228572Y-29297201D02*
X178704762Y-28963867D01*
X178704762Y-28963867D02*
X179657143Y-28963867D01*
X179657143Y-28963867D02*
X180133334Y-29297201D01*
X180133334Y-29297201D02*
X180371429Y-29963867D01*
X180371429Y-29963867D02*
X180371429Y-30630534D01*
X180371429Y-30630534D02*
X177990476Y-31297201D01*
X215052381Y-22095730D02*
X217909524Y-22095730D01*
X216480952Y-29095730D02*
X216480952Y-22095730D01*
X220528572Y-22095730D02*
X221480953Y-22095730D01*
X221480953Y-22095730D02*
X221957143Y-22429063D01*
X221957143Y-22429063D02*
X222433334Y-23095730D01*
X222433334Y-23095730D02*
X222671429Y-24429063D01*
X222671429Y-24429063D02*
X222671429Y-26762397D01*
X222671429Y-26762397D02*
X222433334Y-28095730D01*
X222433334Y-28095730D02*
X221957143Y-28762397D01*
X221957143Y-28762397D02*
X221480953Y-29095730D01*
X221480953Y-29095730D02*
X220528572Y-29095730D01*
X220528572Y-29095730D02*
X220052381Y-28762397D01*
X220052381Y-28762397D02*
X219576191Y-28095730D01*
X219576191Y-28095730D02*
X219338095Y-26762397D01*
X219338095Y-26762397D02*
X219338095Y-24429063D01*
X219338095Y-24429063D02*
X219576191Y-23095730D01*
X219576191Y-23095730D02*
X220052381Y-22429063D01*
X220052381Y-22429063D02*
X220528572Y-22095730D01*
X224814286Y-29095730D02*
X224814286Y-22095730D01*
X224814286Y-22095730D02*
X226719048Y-22095730D01*
X226719048Y-22095730D02*
X227195238Y-22429063D01*
X227195238Y-22429063D02*
X227433333Y-22762397D01*
X227433333Y-22762397D02*
X227671429Y-23429063D01*
X227671429Y-23429063D02*
X227671429Y-24429063D01*
X227671429Y-24429063D02*
X227433333Y-25095730D01*
X227433333Y-25095730D02*
X227195238Y-25429063D01*
X227195238Y-25429063D02*
X226719048Y-25762397D01*
X226719048Y-25762397D02*
X224814286Y-25762397D01*
X207195237Y-40365338D02*
X204338094Y-40365338D01*
X205766666Y-40365338D02*
X205766666Y-33365338D01*
X205766666Y-33365338D02*
X205290475Y-34365338D01*
X205290475Y-34365338D02*
X204814285Y-35032005D01*
X204814285Y-35032005D02*
X204338094Y-35365338D01*
X211719047Y-33365338D02*
X209338095Y-33365338D01*
X209338095Y-33365338D02*
X209099999Y-36698671D01*
X209099999Y-36698671D02*
X209338095Y-36365338D01*
X209338095Y-36365338D02*
X209814285Y-36032005D01*
X209814285Y-36032005D02*
X211004761Y-36032005D01*
X211004761Y-36032005D02*
X211480952Y-36365338D01*
X211480952Y-36365338D02*
X211719047Y-36698671D01*
X211719047Y-36698671D02*
X211957142Y-37365338D01*
X211957142Y-37365338D02*
X211957142Y-39032005D01*
X211957142Y-39032005D02*
X211719047Y-39698671D01*
X211719047Y-39698671D02*
X211480952Y-40032005D01*
X211480952Y-40032005D02*
X211004761Y-40365338D01*
X211004761Y-40365338D02*
X209814285Y-40365338D01*
X209814285Y-40365338D02*
X209338095Y-40032005D01*
X209338095Y-40032005D02*
X209099999Y-39698671D01*
X213623809Y-40365338D02*
X216242857Y-35698671D01*
X213623809Y-35698671D02*
X216242857Y-40365338D01*
X217671428Y-33365338D02*
X220766666Y-33365338D01*
X220766666Y-33365338D02*
X219100000Y-36032005D01*
X219100000Y-36032005D02*
X219814285Y-36032005D01*
X219814285Y-36032005D02*
X220290476Y-36365338D01*
X220290476Y-36365338D02*
X220528571Y-36698671D01*
X220528571Y-36698671D02*
X220766666Y-37365338D01*
X220766666Y-37365338D02*
X220766666Y-39032005D01*
X220766666Y-39032005D02*
X220528571Y-39698671D01*
X220528571Y-39698671D02*
X220290476Y-40032005D01*
X220290476Y-40032005D02*
X219814285Y-40365338D01*
X219814285Y-40365338D02*
X218385714Y-40365338D01*
X218385714Y-40365338D02*
X217909523Y-40032005D01*
X217909523Y-40032005D02*
X217671428Y-39698671D01*
X223623809Y-36365338D02*
X223147619Y-36032005D01*
X223147619Y-36032005D02*
X222909524Y-35698671D01*
X222909524Y-35698671D02*
X222671428Y-35032005D01*
X222671428Y-35032005D02*
X222671428Y-34698671D01*
X222671428Y-34698671D02*
X222909524Y-34032005D01*
X222909524Y-34032005D02*
X223147619Y-33698671D01*
X223147619Y-33698671D02*
X223623809Y-33365338D01*
X223623809Y-33365338D02*
X224576190Y-33365338D01*
X224576190Y-33365338D02*
X225052381Y-33698671D01*
X225052381Y-33698671D02*
X225290476Y-34032005D01*
X225290476Y-34032005D02*
X225528571Y-34698671D01*
X225528571Y-34698671D02*
X225528571Y-35032005D01*
X225528571Y-35032005D02*
X225290476Y-35698671D01*
X225290476Y-35698671D02*
X225052381Y-36032005D01*
X225052381Y-36032005D02*
X224576190Y-36365338D01*
X224576190Y-36365338D02*
X223623809Y-36365338D01*
X223623809Y-36365338D02*
X223147619Y-36698671D01*
X223147619Y-36698671D02*
X222909524Y-37032005D01*
X222909524Y-37032005D02*
X222671428Y-37698671D01*
X222671428Y-37698671D02*
X222671428Y-39032005D01*
X222671428Y-39032005D02*
X222909524Y-39698671D01*
X222909524Y-39698671D02*
X223147619Y-40032005D01*
X223147619Y-40032005D02*
X223623809Y-40365338D01*
X223623809Y-40365338D02*
X224576190Y-40365338D01*
X224576190Y-40365338D02*
X225052381Y-40032005D01*
X225052381Y-40032005D02*
X225290476Y-39698671D01*
X225290476Y-39698671D02*
X225528571Y-39032005D01*
X225528571Y-39032005D02*
X225528571Y-37698671D01*
X225528571Y-37698671D02*
X225290476Y-37032005D01*
X225290476Y-37032005D02*
X225052381Y-36698671D01*
X225052381Y-36698671D02*
X224576190Y-36365338D01*
X227671429Y-40365338D02*
X227671429Y-35698671D01*
X227671429Y-36365338D02*
X227909524Y-36032005D01*
X227909524Y-36032005D02*
X228385714Y-35698671D01*
X228385714Y-35698671D02*
X229100000Y-35698671D01*
X229100000Y-35698671D02*
X229576191Y-36032005D01*
X229576191Y-36032005D02*
X229814286Y-36698671D01*
X229814286Y-36698671D02*
X229814286Y-40365338D01*
X229814286Y-36698671D02*
X230052381Y-36032005D01*
X230052381Y-36032005D02*
X230528572Y-35698671D01*
X230528572Y-35698671D02*
X231242857Y-35698671D01*
X231242857Y-35698671D02*
X231719048Y-36032005D01*
X231719048Y-36032005D02*
X231957143Y-36698671D01*
X231957143Y-36698671D02*
X231957143Y-40365338D01*
X234338096Y-40365338D02*
X234338096Y-35698671D01*
X234338096Y-36365338D02*
X234576191Y-36032005D01*
X234576191Y-36032005D02*
X235052381Y-35698671D01*
X235052381Y-35698671D02*
X235766667Y-35698671D01*
X235766667Y-35698671D02*
X236242858Y-36032005D01*
X236242858Y-36032005D02*
X236480953Y-36698671D01*
X236480953Y-36698671D02*
X236480953Y-40365338D01*
X236480953Y-36698671D02*
X236719048Y-36032005D01*
X236719048Y-36032005D02*
X237195239Y-35698671D01*
X237195239Y-35698671D02*
X237909524Y-35698671D01*
X237909524Y-35698671D02*
X238385715Y-36032005D01*
X238385715Y-36032005D02*
X238623810Y-36698671D01*
X238623810Y-36698671D02*
X238623810Y-40365338D01*
M02*
