%TF.GenerationSoftware,KiCad,Pcbnew,9.0.8-9.0.8~ubuntu24.04.1*%
%TF.CreationDate,2026-05-30T22:55:34+02:00*%
%TF.ProjectId,sch-14_PowerMeter-DIN-ESP8266,7363682d-3134-45f5-906f-7765724d6574,rev?*%
%TF.SameCoordinates,Original*%
%TF.FileFunction,AssemblyDrawing,Top*%
%FSLAX46Y46*%
G04 Gerber Fmt 4.6, Leading zero omitted, Abs format (unit mm)*
G04 Created by KiCad (PCBNEW 9.0.8-9.0.8~ubuntu24.04.1) date 2026-05-30 22:55:34*
%MOMM*%
%LPD*%
G01*
G04 APERTURE LIST*
%ADD10C,0.150000*%
%ADD11C,0.100000*%
G04 APERTURE END LIST*
D10*
X146737342Y-72703332D02*
X146165914Y-73069999D01*
X146737342Y-73331904D02*
X145537342Y-73331904D01*
X145537342Y-73331904D02*
X145537342Y-72912856D01*
X145537342Y-72912856D02*
X145594485Y-72808094D01*
X145594485Y-72808094D02*
X145651628Y-72755713D01*
X145651628Y-72755713D02*
X145765914Y-72703332D01*
X145765914Y-72703332D02*
X145937342Y-72703332D01*
X145937342Y-72703332D02*
X146051628Y-72755713D01*
X146051628Y-72755713D02*
X146108771Y-72808094D01*
X146108771Y-72808094D02*
X146165914Y-72912856D01*
X146165914Y-72912856D02*
X146165914Y-73331904D01*
X145537342Y-72336666D02*
X145537342Y-71603332D01*
X145537342Y-71603332D02*
X146737342Y-72074761D01*
X164113057Y-89703332D02*
X164170200Y-89755713D01*
X164170200Y-89755713D02*
X164227342Y-89912856D01*
X164227342Y-89912856D02*
X164227342Y-90017618D01*
X164227342Y-90017618D02*
X164170200Y-90174761D01*
X164170200Y-90174761D02*
X164055914Y-90279523D01*
X164055914Y-90279523D02*
X163941628Y-90331904D01*
X163941628Y-90331904D02*
X163713057Y-90384285D01*
X163713057Y-90384285D02*
X163541628Y-90384285D01*
X163541628Y-90384285D02*
X163313057Y-90331904D01*
X163313057Y-90331904D02*
X163198771Y-90279523D01*
X163198771Y-90279523D02*
X163084485Y-90174761D01*
X163084485Y-90174761D02*
X163027342Y-90017618D01*
X163027342Y-90017618D02*
X163027342Y-89912856D01*
X163027342Y-89912856D02*
X163084485Y-89755713D01*
X163084485Y-89755713D02*
X163141628Y-89703332D01*
X163027342Y-88708094D02*
X163027342Y-89231904D01*
X163027342Y-89231904D02*
X163598771Y-89284285D01*
X163598771Y-89284285D02*
X163541628Y-89231904D01*
X163541628Y-89231904D02*
X163484485Y-89127142D01*
X163484485Y-89127142D02*
X163484485Y-88865237D01*
X163484485Y-88865237D02*
X163541628Y-88760475D01*
X163541628Y-88760475D02*
X163598771Y-88708094D01*
X163598771Y-88708094D02*
X163713057Y-88655713D01*
X163713057Y-88655713D02*
X163998771Y-88655713D01*
X163998771Y-88655713D02*
X164113057Y-88708094D01*
X164113057Y-88708094D02*
X164170200Y-88760475D01*
X164170200Y-88760475D02*
X164227342Y-88865237D01*
X164227342Y-88865237D02*
X164227342Y-89127142D01*
X164227342Y-89127142D02*
X164170200Y-89231904D01*
X164170200Y-89231904D02*
X164113057Y-89284285D01*
X150237342Y-80727142D02*
X149665914Y-81093809D01*
X150237342Y-81355714D02*
X149037342Y-81355714D01*
X149037342Y-81355714D02*
X149037342Y-80936666D01*
X149037342Y-80936666D02*
X149094485Y-80831904D01*
X149094485Y-80831904D02*
X149151628Y-80779523D01*
X149151628Y-80779523D02*
X149265914Y-80727142D01*
X149265914Y-80727142D02*
X149437342Y-80727142D01*
X149437342Y-80727142D02*
X149551628Y-80779523D01*
X149551628Y-80779523D02*
X149608771Y-80831904D01*
X149608771Y-80831904D02*
X149665914Y-80936666D01*
X149665914Y-80936666D02*
X149665914Y-81355714D01*
X149151628Y-80308095D02*
X149094485Y-80255714D01*
X149094485Y-80255714D02*
X149037342Y-80150952D01*
X149037342Y-80150952D02*
X149037342Y-79889047D01*
X149037342Y-79889047D02*
X149094485Y-79784285D01*
X149094485Y-79784285D02*
X149151628Y-79731904D01*
X149151628Y-79731904D02*
X149265914Y-79679523D01*
X149265914Y-79679523D02*
X149380200Y-79679523D01*
X149380200Y-79679523D02*
X149551628Y-79731904D01*
X149551628Y-79731904D02*
X150237342Y-80360476D01*
X150237342Y-80360476D02*
X150237342Y-79679523D01*
X149151628Y-79260476D02*
X149094485Y-79208095D01*
X149094485Y-79208095D02*
X149037342Y-79103333D01*
X149037342Y-79103333D02*
X149037342Y-78841428D01*
X149037342Y-78841428D02*
X149094485Y-78736666D01*
X149094485Y-78736666D02*
X149151628Y-78684285D01*
X149151628Y-78684285D02*
X149265914Y-78631904D01*
X149265914Y-78631904D02*
X149380200Y-78631904D01*
X149380200Y-78631904D02*
X149551628Y-78684285D01*
X149551628Y-78684285D02*
X150237342Y-79312857D01*
X150237342Y-79312857D02*
X150237342Y-78631904D01*
X154542342Y-57238904D02*
X153342342Y-57238904D01*
X153342342Y-57238904D02*
X153342342Y-56976999D01*
X153342342Y-56976999D02*
X153399485Y-56819856D01*
X153399485Y-56819856D02*
X153513771Y-56715094D01*
X153513771Y-56715094D02*
X153628057Y-56662713D01*
X153628057Y-56662713D02*
X153856628Y-56610332D01*
X153856628Y-56610332D02*
X154028057Y-56610332D01*
X154028057Y-56610332D02*
X154256628Y-56662713D01*
X154256628Y-56662713D02*
X154370914Y-56715094D01*
X154370914Y-56715094D02*
X154485200Y-56819856D01*
X154485200Y-56819856D02*
X154542342Y-56976999D01*
X154542342Y-56976999D02*
X154542342Y-57238904D01*
X154542342Y-55562713D02*
X154542342Y-56191285D01*
X154542342Y-55876999D02*
X153342342Y-55876999D01*
X153342342Y-55876999D02*
X153513771Y-55981761D01*
X153513771Y-55981761D02*
X153628057Y-56086523D01*
X153628057Y-56086523D02*
X153685200Y-56191285D01*
X164162342Y-71803332D02*
X163590914Y-72169999D01*
X164162342Y-72431904D02*
X162962342Y-72431904D01*
X162962342Y-72431904D02*
X162962342Y-72012856D01*
X162962342Y-72012856D02*
X163019485Y-71908094D01*
X163019485Y-71908094D02*
X163076628Y-71855713D01*
X163076628Y-71855713D02*
X163190914Y-71803332D01*
X163190914Y-71803332D02*
X163362342Y-71803332D01*
X163362342Y-71803332D02*
X163476628Y-71855713D01*
X163476628Y-71855713D02*
X163533771Y-71908094D01*
X163533771Y-71908094D02*
X163590914Y-72012856D01*
X163590914Y-72012856D02*
X163590914Y-72431904D01*
X163076628Y-71384285D02*
X163019485Y-71331904D01*
X163019485Y-71331904D02*
X162962342Y-71227142D01*
X162962342Y-71227142D02*
X162962342Y-70965237D01*
X162962342Y-70965237D02*
X163019485Y-70860475D01*
X163019485Y-70860475D02*
X163076628Y-70808094D01*
X163076628Y-70808094D02*
X163190914Y-70755713D01*
X163190914Y-70755713D02*
X163305200Y-70755713D01*
X163305200Y-70755713D02*
X163476628Y-70808094D01*
X163476628Y-70808094D02*
X164162342Y-71436666D01*
X164162342Y-71436666D02*
X164162342Y-70755713D01*
X105572404Y-108971842D02*
X106200976Y-108971842D01*
X105886690Y-110171842D02*
X105886690Y-108971842D01*
X107196214Y-110171842D02*
X106829547Y-109600414D01*
X106567642Y-110171842D02*
X106567642Y-108971842D01*
X106567642Y-108971842D02*
X106986690Y-108971842D01*
X106986690Y-108971842D02*
X107091452Y-109028985D01*
X107091452Y-109028985D02*
X107143833Y-109086128D01*
X107143833Y-109086128D02*
X107196214Y-109200414D01*
X107196214Y-109200414D02*
X107196214Y-109371842D01*
X107196214Y-109371842D02*
X107143833Y-109486128D01*
X107143833Y-109486128D02*
X107091452Y-109543271D01*
X107091452Y-109543271D02*
X106986690Y-109600414D01*
X106986690Y-109600414D02*
X106567642Y-109600414D01*
X108243833Y-110171842D02*
X107615261Y-110171842D01*
X107929547Y-110171842D02*
X107929547Y-108971842D01*
X107929547Y-108971842D02*
X107824785Y-109143271D01*
X107824785Y-109143271D02*
X107720023Y-109257557D01*
X107720023Y-109257557D02*
X107615261Y-109314700D01*
X175207342Y-84388095D02*
X176178771Y-84388095D01*
X176178771Y-84388095D02*
X176293057Y-84335714D01*
X176293057Y-84335714D02*
X176350200Y-84283333D01*
X176350200Y-84283333D02*
X176407342Y-84178571D01*
X176407342Y-84178571D02*
X176407342Y-83969047D01*
X176407342Y-83969047D02*
X176350200Y-83864285D01*
X176350200Y-83864285D02*
X176293057Y-83811904D01*
X176293057Y-83811904D02*
X176178771Y-83759523D01*
X176178771Y-83759523D02*
X175207342Y-83759523D01*
X175321628Y-83288095D02*
X175264485Y-83235714D01*
X175264485Y-83235714D02*
X175207342Y-83130952D01*
X175207342Y-83130952D02*
X175207342Y-82869047D01*
X175207342Y-82869047D02*
X175264485Y-82764285D01*
X175264485Y-82764285D02*
X175321628Y-82711904D01*
X175321628Y-82711904D02*
X175435914Y-82659523D01*
X175435914Y-82659523D02*
X175550200Y-82659523D01*
X175550200Y-82659523D02*
X175721628Y-82711904D01*
X175721628Y-82711904D02*
X176407342Y-83340476D01*
X176407342Y-83340476D02*
X176407342Y-82659523D01*
X155852342Y-66358095D02*
X156823771Y-66358095D01*
X156823771Y-66358095D02*
X156938057Y-66305714D01*
X156938057Y-66305714D02*
X156995200Y-66253333D01*
X156995200Y-66253333D02*
X157052342Y-66148571D01*
X157052342Y-66148571D02*
X157052342Y-65939047D01*
X157052342Y-65939047D02*
X156995200Y-65834285D01*
X156995200Y-65834285D02*
X156938057Y-65781904D01*
X156938057Y-65781904D02*
X156823771Y-65729523D01*
X156823771Y-65729523D02*
X155852342Y-65729523D01*
X155852342Y-65310476D02*
X155852342Y-64629523D01*
X155852342Y-64629523D02*
X156309485Y-64996190D01*
X156309485Y-64996190D02*
X156309485Y-64839047D01*
X156309485Y-64839047D02*
X156366628Y-64734285D01*
X156366628Y-64734285D02*
X156423771Y-64681904D01*
X156423771Y-64681904D02*
X156538057Y-64629523D01*
X156538057Y-64629523D02*
X156823771Y-64629523D01*
X156823771Y-64629523D02*
X156938057Y-64681904D01*
X156938057Y-64681904D02*
X156995200Y-64734285D01*
X156995200Y-64734285D02*
X157052342Y-64839047D01*
X157052342Y-64839047D02*
X157052342Y-65153333D01*
X157052342Y-65153333D02*
X156995200Y-65258095D01*
X156995200Y-65258095D02*
X156938057Y-65310476D01*
X219447342Y-89166666D02*
X220304485Y-89166666D01*
X220304485Y-89166666D02*
X220475914Y-89219047D01*
X220475914Y-89219047D02*
X220590200Y-89323809D01*
X220590200Y-89323809D02*
X220647342Y-89480952D01*
X220647342Y-89480952D02*
X220647342Y-89585714D01*
X219847342Y-88171428D02*
X220647342Y-88171428D01*
X219390200Y-88433333D02*
X220247342Y-88695238D01*
X220247342Y-88695238D02*
X220247342Y-88014285D01*
X139752342Y-105670475D02*
X140609485Y-105670475D01*
X140609485Y-105670475D02*
X140780914Y-105722856D01*
X140780914Y-105722856D02*
X140895200Y-105827618D01*
X140895200Y-105827618D02*
X140952342Y-105984761D01*
X140952342Y-105984761D02*
X140952342Y-106089523D01*
X140952342Y-104570475D02*
X140952342Y-105199047D01*
X140952342Y-104884761D02*
X139752342Y-104884761D01*
X139752342Y-104884761D02*
X139923771Y-104989523D01*
X139923771Y-104989523D02*
X140038057Y-105094285D01*
X140038057Y-105094285D02*
X140095200Y-105199047D01*
X139752342Y-103575237D02*
X139752342Y-104099047D01*
X139752342Y-104099047D02*
X140323771Y-104151428D01*
X140323771Y-104151428D02*
X140266628Y-104099047D01*
X140266628Y-104099047D02*
X140209485Y-103994285D01*
X140209485Y-103994285D02*
X140209485Y-103732380D01*
X140209485Y-103732380D02*
X140266628Y-103627618D01*
X140266628Y-103627618D02*
X140323771Y-103575237D01*
X140323771Y-103575237D02*
X140438057Y-103522856D01*
X140438057Y-103522856D02*
X140723771Y-103522856D01*
X140723771Y-103522856D02*
X140838057Y-103575237D01*
X140838057Y-103575237D02*
X140895200Y-103627618D01*
X140895200Y-103627618D02*
X140952342Y-103732380D01*
X140952342Y-103732380D02*
X140952342Y-103994285D01*
X140952342Y-103994285D02*
X140895200Y-104099047D01*
X140895200Y-104099047D02*
X140838057Y-104151428D01*
X190987342Y-100080475D02*
X191844485Y-100080475D01*
X191844485Y-100080475D02*
X192015914Y-100132856D01*
X192015914Y-100132856D02*
X192130200Y-100237618D01*
X192130200Y-100237618D02*
X192187342Y-100394761D01*
X192187342Y-100394761D02*
X192187342Y-100499523D01*
X191101628Y-99609047D02*
X191044485Y-99556666D01*
X191044485Y-99556666D02*
X190987342Y-99451904D01*
X190987342Y-99451904D02*
X190987342Y-99189999D01*
X190987342Y-99189999D02*
X191044485Y-99085237D01*
X191044485Y-99085237D02*
X191101628Y-99032856D01*
X191101628Y-99032856D02*
X191215914Y-98980475D01*
X191215914Y-98980475D02*
X191330200Y-98980475D01*
X191330200Y-98980475D02*
X191501628Y-99032856D01*
X191501628Y-99032856D02*
X192187342Y-99661428D01*
X192187342Y-99661428D02*
X192187342Y-98980475D01*
X191101628Y-98561428D02*
X191044485Y-98509047D01*
X191044485Y-98509047D02*
X190987342Y-98404285D01*
X190987342Y-98404285D02*
X190987342Y-98142380D01*
X190987342Y-98142380D02*
X191044485Y-98037618D01*
X191044485Y-98037618D02*
X191101628Y-97985237D01*
X191101628Y-97985237D02*
X191215914Y-97932856D01*
X191215914Y-97932856D02*
X191330200Y-97932856D01*
X191330200Y-97932856D02*
X191501628Y-97985237D01*
X191501628Y-97985237D02*
X192187342Y-98613809D01*
X192187342Y-98613809D02*
X192187342Y-97932856D01*
X106016667Y-86333057D02*
X105964286Y-86390200D01*
X105964286Y-86390200D02*
X105807143Y-86447342D01*
X105807143Y-86447342D02*
X105702381Y-86447342D01*
X105702381Y-86447342D02*
X105545238Y-86390200D01*
X105545238Y-86390200D02*
X105440476Y-86275914D01*
X105440476Y-86275914D02*
X105388095Y-86161628D01*
X105388095Y-86161628D02*
X105335714Y-85933057D01*
X105335714Y-85933057D02*
X105335714Y-85761628D01*
X105335714Y-85761628D02*
X105388095Y-85533057D01*
X105388095Y-85533057D02*
X105440476Y-85418771D01*
X105440476Y-85418771D02*
X105545238Y-85304485D01*
X105545238Y-85304485D02*
X105702381Y-85247342D01*
X105702381Y-85247342D02*
X105807143Y-85247342D01*
X105807143Y-85247342D02*
X105964286Y-85304485D01*
X105964286Y-85304485D02*
X106016667Y-85361628D01*
X106435714Y-85361628D02*
X106488095Y-85304485D01*
X106488095Y-85304485D02*
X106592857Y-85247342D01*
X106592857Y-85247342D02*
X106854762Y-85247342D01*
X106854762Y-85247342D02*
X106959524Y-85304485D01*
X106959524Y-85304485D02*
X107011905Y-85361628D01*
X107011905Y-85361628D02*
X107064286Y-85475914D01*
X107064286Y-85475914D02*
X107064286Y-85590200D01*
X107064286Y-85590200D02*
X107011905Y-85761628D01*
X107011905Y-85761628D02*
X106383333Y-86447342D01*
X106383333Y-86447342D02*
X107064286Y-86447342D01*
X153367342Y-75248095D02*
X154338771Y-75248095D01*
X154338771Y-75248095D02*
X154453057Y-75195714D01*
X154453057Y-75195714D02*
X154510200Y-75143333D01*
X154510200Y-75143333D02*
X154567342Y-75038571D01*
X154567342Y-75038571D02*
X154567342Y-74829047D01*
X154567342Y-74829047D02*
X154510200Y-74724285D01*
X154510200Y-74724285D02*
X154453057Y-74671904D01*
X154453057Y-74671904D02*
X154338771Y-74619523D01*
X154338771Y-74619523D02*
X153367342Y-74619523D01*
X153767342Y-73624285D02*
X154567342Y-73624285D01*
X153310200Y-73886190D02*
X154167342Y-74148095D01*
X154167342Y-74148095D02*
X154167342Y-73467142D01*
X214967342Y-100807142D02*
X214395914Y-101173809D01*
X214967342Y-101435714D02*
X213767342Y-101435714D01*
X213767342Y-101435714D02*
X213767342Y-101016666D01*
X213767342Y-101016666D02*
X213824485Y-100911904D01*
X213824485Y-100911904D02*
X213881628Y-100859523D01*
X213881628Y-100859523D02*
X213995914Y-100807142D01*
X213995914Y-100807142D02*
X214167342Y-100807142D01*
X214167342Y-100807142D02*
X214281628Y-100859523D01*
X214281628Y-100859523D02*
X214338771Y-100911904D01*
X214338771Y-100911904D02*
X214395914Y-101016666D01*
X214395914Y-101016666D02*
X214395914Y-101435714D01*
X213881628Y-100388095D02*
X213824485Y-100335714D01*
X213824485Y-100335714D02*
X213767342Y-100230952D01*
X213767342Y-100230952D02*
X213767342Y-99969047D01*
X213767342Y-99969047D02*
X213824485Y-99864285D01*
X213824485Y-99864285D02*
X213881628Y-99811904D01*
X213881628Y-99811904D02*
X213995914Y-99759523D01*
X213995914Y-99759523D02*
X214110200Y-99759523D01*
X214110200Y-99759523D02*
X214281628Y-99811904D01*
X214281628Y-99811904D02*
X214967342Y-100440476D01*
X214967342Y-100440476D02*
X214967342Y-99759523D01*
X214167342Y-98816666D02*
X214967342Y-98816666D01*
X213710200Y-99078571D02*
X214567342Y-99340476D01*
X214567342Y-99340476D02*
X214567342Y-98659523D01*
X108361904Y-90347342D02*
X108361904Y-91318771D01*
X108361904Y-91318771D02*
X108414285Y-91433057D01*
X108414285Y-91433057D02*
X108466666Y-91490200D01*
X108466666Y-91490200D02*
X108571428Y-91547342D01*
X108571428Y-91547342D02*
X108780952Y-91547342D01*
X108780952Y-91547342D02*
X108885714Y-91490200D01*
X108885714Y-91490200D02*
X108938095Y-91433057D01*
X108938095Y-91433057D02*
X108990476Y-91318771D01*
X108990476Y-91318771D02*
X108990476Y-90347342D01*
X110090476Y-91547342D02*
X109461904Y-91547342D01*
X109776190Y-91547342D02*
X109776190Y-90347342D01*
X109776190Y-90347342D02*
X109671428Y-90518771D01*
X109671428Y-90518771D02*
X109566666Y-90633057D01*
X109566666Y-90633057D02*
X109461904Y-90690200D01*
X111716667Y-86333057D02*
X111664286Y-86390200D01*
X111664286Y-86390200D02*
X111507143Y-86447342D01*
X111507143Y-86447342D02*
X111402381Y-86447342D01*
X111402381Y-86447342D02*
X111245238Y-86390200D01*
X111245238Y-86390200D02*
X111140476Y-86275914D01*
X111140476Y-86275914D02*
X111088095Y-86161628D01*
X111088095Y-86161628D02*
X111035714Y-85933057D01*
X111035714Y-85933057D02*
X111035714Y-85761628D01*
X111035714Y-85761628D02*
X111088095Y-85533057D01*
X111088095Y-85533057D02*
X111140476Y-85418771D01*
X111140476Y-85418771D02*
X111245238Y-85304485D01*
X111245238Y-85304485D02*
X111402381Y-85247342D01*
X111402381Y-85247342D02*
X111507143Y-85247342D01*
X111507143Y-85247342D02*
X111664286Y-85304485D01*
X111664286Y-85304485D02*
X111716667Y-85361628D01*
X112083333Y-85247342D02*
X112764286Y-85247342D01*
X112764286Y-85247342D02*
X112397619Y-85704485D01*
X112397619Y-85704485D02*
X112554762Y-85704485D01*
X112554762Y-85704485D02*
X112659524Y-85761628D01*
X112659524Y-85761628D02*
X112711905Y-85818771D01*
X112711905Y-85818771D02*
X112764286Y-85933057D01*
X112764286Y-85933057D02*
X112764286Y-86218771D01*
X112764286Y-86218771D02*
X112711905Y-86333057D01*
X112711905Y-86333057D02*
X112659524Y-86390200D01*
X112659524Y-86390200D02*
X112554762Y-86447342D01*
X112554762Y-86447342D02*
X112240476Y-86447342D01*
X112240476Y-86447342D02*
X112135714Y-86390200D01*
X112135714Y-86390200D02*
X112083333Y-86333057D01*
X157351628Y-98684761D02*
X157294485Y-98789523D01*
X157294485Y-98789523D02*
X157180200Y-98894285D01*
X157180200Y-98894285D02*
X157008771Y-99051428D01*
X157008771Y-99051428D02*
X156951628Y-99156190D01*
X156951628Y-99156190D02*
X156951628Y-99260952D01*
X157237342Y-99208571D02*
X157180200Y-99313333D01*
X157180200Y-99313333D02*
X157065914Y-99418095D01*
X157065914Y-99418095D02*
X156837342Y-99470476D01*
X156837342Y-99470476D02*
X156437342Y-99470476D01*
X156437342Y-99470476D02*
X156208771Y-99418095D01*
X156208771Y-99418095D02*
X156094485Y-99313333D01*
X156094485Y-99313333D02*
X156037342Y-99208571D01*
X156037342Y-99208571D02*
X156037342Y-98999047D01*
X156037342Y-98999047D02*
X156094485Y-98894285D01*
X156094485Y-98894285D02*
X156208771Y-98789523D01*
X156208771Y-98789523D02*
X156437342Y-98737142D01*
X156437342Y-98737142D02*
X156837342Y-98737142D01*
X156837342Y-98737142D02*
X157065914Y-98789523D01*
X157065914Y-98789523D02*
X157180200Y-98894285D01*
X157180200Y-98894285D02*
X157237342Y-98999047D01*
X157237342Y-98999047D02*
X157237342Y-99208571D01*
X157237342Y-97689523D02*
X157237342Y-98318095D01*
X157237342Y-98003809D02*
X156037342Y-98003809D01*
X156037342Y-98003809D02*
X156208771Y-98108571D01*
X156208771Y-98108571D02*
X156323057Y-98213333D01*
X156323057Y-98213333D02*
X156380200Y-98318095D01*
X217953057Y-100807142D02*
X218010200Y-100859523D01*
X218010200Y-100859523D02*
X218067342Y-101016666D01*
X218067342Y-101016666D02*
X218067342Y-101121428D01*
X218067342Y-101121428D02*
X218010200Y-101278571D01*
X218010200Y-101278571D02*
X217895914Y-101383333D01*
X217895914Y-101383333D02*
X217781628Y-101435714D01*
X217781628Y-101435714D02*
X217553057Y-101488095D01*
X217553057Y-101488095D02*
X217381628Y-101488095D01*
X217381628Y-101488095D02*
X217153057Y-101435714D01*
X217153057Y-101435714D02*
X217038771Y-101383333D01*
X217038771Y-101383333D02*
X216924485Y-101278571D01*
X216924485Y-101278571D02*
X216867342Y-101121428D01*
X216867342Y-101121428D02*
X216867342Y-101016666D01*
X216867342Y-101016666D02*
X216924485Y-100859523D01*
X216924485Y-100859523D02*
X216981628Y-100807142D01*
X218067342Y-99759523D02*
X218067342Y-100388095D01*
X218067342Y-100073809D02*
X216867342Y-100073809D01*
X216867342Y-100073809D02*
X217038771Y-100178571D01*
X217038771Y-100178571D02*
X217153057Y-100283333D01*
X217153057Y-100283333D02*
X217210200Y-100388095D01*
X216867342Y-99078571D02*
X216867342Y-98973809D01*
X216867342Y-98973809D02*
X216924485Y-98869047D01*
X216924485Y-98869047D02*
X216981628Y-98816666D01*
X216981628Y-98816666D02*
X217095914Y-98764285D01*
X217095914Y-98764285D02*
X217324485Y-98711904D01*
X217324485Y-98711904D02*
X217610200Y-98711904D01*
X217610200Y-98711904D02*
X217838771Y-98764285D01*
X217838771Y-98764285D02*
X217953057Y-98816666D01*
X217953057Y-98816666D02*
X218010200Y-98869047D01*
X218010200Y-98869047D02*
X218067342Y-98973809D01*
X218067342Y-98973809D02*
X218067342Y-99078571D01*
X218067342Y-99078571D02*
X218010200Y-99183333D01*
X218010200Y-99183333D02*
X217953057Y-99235714D01*
X217953057Y-99235714D02*
X217838771Y-99288095D01*
X217838771Y-99288095D02*
X217610200Y-99340476D01*
X217610200Y-99340476D02*
X217324485Y-99340476D01*
X217324485Y-99340476D02*
X217095914Y-99288095D01*
X217095914Y-99288095D02*
X216981628Y-99235714D01*
X216981628Y-99235714D02*
X216924485Y-99183333D01*
X216924485Y-99183333D02*
X216867342Y-99078571D01*
X160737342Y-80727142D02*
X160165914Y-81093809D01*
X160737342Y-81355714D02*
X159537342Y-81355714D01*
X159537342Y-81355714D02*
X159537342Y-80936666D01*
X159537342Y-80936666D02*
X159594485Y-80831904D01*
X159594485Y-80831904D02*
X159651628Y-80779523D01*
X159651628Y-80779523D02*
X159765914Y-80727142D01*
X159765914Y-80727142D02*
X159937342Y-80727142D01*
X159937342Y-80727142D02*
X160051628Y-80779523D01*
X160051628Y-80779523D02*
X160108771Y-80831904D01*
X160108771Y-80831904D02*
X160165914Y-80936666D01*
X160165914Y-80936666D02*
X160165914Y-81355714D01*
X160737342Y-79679523D02*
X160737342Y-80308095D01*
X160737342Y-79993809D02*
X159537342Y-79993809D01*
X159537342Y-79993809D02*
X159708771Y-80098571D01*
X159708771Y-80098571D02*
X159823057Y-80203333D01*
X159823057Y-80203333D02*
X159880200Y-80308095D01*
X160737342Y-78631904D02*
X160737342Y-79260476D01*
X160737342Y-78946190D02*
X159537342Y-78946190D01*
X159537342Y-78946190D02*
X159708771Y-79050952D01*
X159708771Y-79050952D02*
X159823057Y-79155714D01*
X159823057Y-79155714D02*
X159880200Y-79260476D01*
X160637342Y-98787142D02*
X160065914Y-99153809D01*
X160637342Y-99415714D02*
X159437342Y-99415714D01*
X159437342Y-99415714D02*
X159437342Y-98996666D01*
X159437342Y-98996666D02*
X159494485Y-98891904D01*
X159494485Y-98891904D02*
X159551628Y-98839523D01*
X159551628Y-98839523D02*
X159665914Y-98787142D01*
X159665914Y-98787142D02*
X159837342Y-98787142D01*
X159837342Y-98787142D02*
X159951628Y-98839523D01*
X159951628Y-98839523D02*
X160008771Y-98891904D01*
X160008771Y-98891904D02*
X160065914Y-98996666D01*
X160065914Y-98996666D02*
X160065914Y-99415714D01*
X159551628Y-98368095D02*
X159494485Y-98315714D01*
X159494485Y-98315714D02*
X159437342Y-98210952D01*
X159437342Y-98210952D02*
X159437342Y-97949047D01*
X159437342Y-97949047D02*
X159494485Y-97844285D01*
X159494485Y-97844285D02*
X159551628Y-97791904D01*
X159551628Y-97791904D02*
X159665914Y-97739523D01*
X159665914Y-97739523D02*
X159780200Y-97739523D01*
X159780200Y-97739523D02*
X159951628Y-97791904D01*
X159951628Y-97791904D02*
X160637342Y-98420476D01*
X160637342Y-98420476D02*
X160637342Y-97739523D01*
X159437342Y-97372857D02*
X159437342Y-96691904D01*
X159437342Y-96691904D02*
X159894485Y-97058571D01*
X159894485Y-97058571D02*
X159894485Y-96901428D01*
X159894485Y-96901428D02*
X159951628Y-96796666D01*
X159951628Y-96796666D02*
X160008771Y-96744285D01*
X160008771Y-96744285D02*
X160123057Y-96691904D01*
X160123057Y-96691904D02*
X160408771Y-96691904D01*
X160408771Y-96691904D02*
X160523057Y-96744285D01*
X160523057Y-96744285D02*
X160580200Y-96796666D01*
X160580200Y-96796666D02*
X160637342Y-96901428D01*
X160637342Y-96901428D02*
X160637342Y-97215714D01*
X160637342Y-97215714D02*
X160580200Y-97320476D01*
X160580200Y-97320476D02*
X160523057Y-97372857D01*
X190647342Y-90707142D02*
X190075914Y-91073809D01*
X190647342Y-91335714D02*
X189447342Y-91335714D01*
X189447342Y-91335714D02*
X189447342Y-90916666D01*
X189447342Y-90916666D02*
X189504485Y-90811904D01*
X189504485Y-90811904D02*
X189561628Y-90759523D01*
X189561628Y-90759523D02*
X189675914Y-90707142D01*
X189675914Y-90707142D02*
X189847342Y-90707142D01*
X189847342Y-90707142D02*
X189961628Y-90759523D01*
X189961628Y-90759523D02*
X190018771Y-90811904D01*
X190018771Y-90811904D02*
X190075914Y-90916666D01*
X190075914Y-90916666D02*
X190075914Y-91335714D01*
X189561628Y-90288095D02*
X189504485Y-90235714D01*
X189504485Y-90235714D02*
X189447342Y-90130952D01*
X189447342Y-90130952D02*
X189447342Y-89869047D01*
X189447342Y-89869047D02*
X189504485Y-89764285D01*
X189504485Y-89764285D02*
X189561628Y-89711904D01*
X189561628Y-89711904D02*
X189675914Y-89659523D01*
X189675914Y-89659523D02*
X189790200Y-89659523D01*
X189790200Y-89659523D02*
X189961628Y-89711904D01*
X189961628Y-89711904D02*
X190647342Y-90340476D01*
X190647342Y-90340476D02*
X190647342Y-89659523D01*
X189447342Y-88978571D02*
X189447342Y-88873809D01*
X189447342Y-88873809D02*
X189504485Y-88769047D01*
X189504485Y-88769047D02*
X189561628Y-88716666D01*
X189561628Y-88716666D02*
X189675914Y-88664285D01*
X189675914Y-88664285D02*
X189904485Y-88611904D01*
X189904485Y-88611904D02*
X190190200Y-88611904D01*
X190190200Y-88611904D02*
X190418771Y-88664285D01*
X190418771Y-88664285D02*
X190533057Y-88716666D01*
X190533057Y-88716666D02*
X190590200Y-88769047D01*
X190590200Y-88769047D02*
X190647342Y-88873809D01*
X190647342Y-88873809D02*
X190647342Y-88978571D01*
X190647342Y-88978571D02*
X190590200Y-89083333D01*
X190590200Y-89083333D02*
X190533057Y-89135714D01*
X190533057Y-89135714D02*
X190418771Y-89188095D01*
X190418771Y-89188095D02*
X190190200Y-89240476D01*
X190190200Y-89240476D02*
X189904485Y-89240476D01*
X189904485Y-89240476D02*
X189675914Y-89188095D01*
X189675914Y-89188095D02*
X189561628Y-89135714D01*
X189561628Y-89135714D02*
X189504485Y-89083333D01*
X189504485Y-89083333D02*
X189447342Y-88978571D01*
X108933333Y-122497342D02*
X108933333Y-123354485D01*
X108933333Y-123354485D02*
X108880952Y-123525914D01*
X108880952Y-123525914D02*
X108776190Y-123640200D01*
X108776190Y-123640200D02*
X108619047Y-123697342D01*
X108619047Y-123697342D02*
X108514285Y-123697342D01*
X109352380Y-122497342D02*
X110033333Y-122497342D01*
X110033333Y-122497342D02*
X109666666Y-122954485D01*
X109666666Y-122954485D02*
X109823809Y-122954485D01*
X109823809Y-122954485D02*
X109928571Y-123011628D01*
X109928571Y-123011628D02*
X109980952Y-123068771D01*
X109980952Y-123068771D02*
X110033333Y-123183057D01*
X110033333Y-123183057D02*
X110033333Y-123468771D01*
X110033333Y-123468771D02*
X109980952Y-123583057D01*
X109980952Y-123583057D02*
X109928571Y-123640200D01*
X109928571Y-123640200D02*
X109823809Y-123697342D01*
X109823809Y-123697342D02*
X109509523Y-123697342D01*
X109509523Y-123697342D02*
X109404761Y-123640200D01*
X109404761Y-123640200D02*
X109352380Y-123583057D01*
X146453771Y-94444047D02*
X146510914Y-94286904D01*
X146510914Y-94286904D02*
X146568057Y-94234523D01*
X146568057Y-94234523D02*
X146682342Y-94182142D01*
X146682342Y-94182142D02*
X146853771Y-94182142D01*
X146853771Y-94182142D02*
X146968057Y-94234523D01*
X146968057Y-94234523D02*
X147025200Y-94286904D01*
X147025200Y-94286904D02*
X147082342Y-94391666D01*
X147082342Y-94391666D02*
X147082342Y-94810714D01*
X147082342Y-94810714D02*
X145882342Y-94810714D01*
X145882342Y-94810714D02*
X145882342Y-94444047D01*
X145882342Y-94444047D02*
X145939485Y-94339285D01*
X145939485Y-94339285D02*
X145996628Y-94286904D01*
X145996628Y-94286904D02*
X146110914Y-94234523D01*
X146110914Y-94234523D02*
X146225200Y-94234523D01*
X146225200Y-94234523D02*
X146339485Y-94286904D01*
X146339485Y-94286904D02*
X146396628Y-94339285D01*
X146396628Y-94339285D02*
X146453771Y-94444047D01*
X146453771Y-94444047D02*
X146453771Y-94810714D01*
X145882342Y-93815476D02*
X145882342Y-93082142D01*
X145882342Y-93082142D02*
X147082342Y-93815476D01*
X147082342Y-93815476D02*
X147082342Y-93082142D01*
X147082342Y-92086904D02*
X147082342Y-92715476D01*
X147082342Y-92401190D02*
X145882342Y-92401190D01*
X145882342Y-92401190D02*
X146053771Y-92505952D01*
X146053771Y-92505952D02*
X146168057Y-92610714D01*
X146168057Y-92610714D02*
X146225200Y-92715476D01*
X111226095Y-68602342D02*
X111226095Y-67402342D01*
X111226095Y-67402342D02*
X111488000Y-67402342D01*
X111488000Y-67402342D02*
X111645143Y-67459485D01*
X111645143Y-67459485D02*
X111749905Y-67573771D01*
X111749905Y-67573771D02*
X111802286Y-67688057D01*
X111802286Y-67688057D02*
X111854667Y-67916628D01*
X111854667Y-67916628D02*
X111854667Y-68088057D01*
X111854667Y-68088057D02*
X111802286Y-68316628D01*
X111802286Y-68316628D02*
X111749905Y-68430914D01*
X111749905Y-68430914D02*
X111645143Y-68545200D01*
X111645143Y-68545200D02*
X111488000Y-68602342D01*
X111488000Y-68602342D02*
X111226095Y-68602342D01*
X112273714Y-67516628D02*
X112326095Y-67459485D01*
X112326095Y-67459485D02*
X112430857Y-67402342D01*
X112430857Y-67402342D02*
X112692762Y-67402342D01*
X112692762Y-67402342D02*
X112797524Y-67459485D01*
X112797524Y-67459485D02*
X112849905Y-67516628D01*
X112849905Y-67516628D02*
X112902286Y-67630914D01*
X112902286Y-67630914D02*
X112902286Y-67745200D01*
X112902286Y-67745200D02*
X112849905Y-67916628D01*
X112849905Y-67916628D02*
X112221333Y-68602342D01*
X112221333Y-68602342D02*
X112902286Y-68602342D01*
X167637342Y-98787142D02*
X167065914Y-99153809D01*
X167637342Y-99415714D02*
X166437342Y-99415714D01*
X166437342Y-99415714D02*
X166437342Y-98996666D01*
X166437342Y-98996666D02*
X166494485Y-98891904D01*
X166494485Y-98891904D02*
X166551628Y-98839523D01*
X166551628Y-98839523D02*
X166665914Y-98787142D01*
X166665914Y-98787142D02*
X166837342Y-98787142D01*
X166837342Y-98787142D02*
X166951628Y-98839523D01*
X166951628Y-98839523D02*
X167008771Y-98891904D01*
X167008771Y-98891904D02*
X167065914Y-98996666D01*
X167065914Y-98996666D02*
X167065914Y-99415714D01*
X167637342Y-97739523D02*
X167637342Y-98368095D01*
X167637342Y-98053809D02*
X166437342Y-98053809D01*
X166437342Y-98053809D02*
X166608771Y-98158571D01*
X166608771Y-98158571D02*
X166723057Y-98263333D01*
X166723057Y-98263333D02*
X166780200Y-98368095D01*
X166837342Y-96796666D02*
X167637342Y-96796666D01*
X166380200Y-97058571D02*
X167237342Y-97320476D01*
X167237342Y-97320476D02*
X167237342Y-96639523D01*
X107816667Y-79003057D02*
X107764286Y-79060200D01*
X107764286Y-79060200D02*
X107607143Y-79117342D01*
X107607143Y-79117342D02*
X107502381Y-79117342D01*
X107502381Y-79117342D02*
X107345238Y-79060200D01*
X107345238Y-79060200D02*
X107240476Y-78945914D01*
X107240476Y-78945914D02*
X107188095Y-78831628D01*
X107188095Y-78831628D02*
X107135714Y-78603057D01*
X107135714Y-78603057D02*
X107135714Y-78431628D01*
X107135714Y-78431628D02*
X107188095Y-78203057D01*
X107188095Y-78203057D02*
X107240476Y-78088771D01*
X107240476Y-78088771D02*
X107345238Y-77974485D01*
X107345238Y-77974485D02*
X107502381Y-77917342D01*
X107502381Y-77917342D02*
X107607143Y-77917342D01*
X107607143Y-77917342D02*
X107764286Y-77974485D01*
X107764286Y-77974485D02*
X107816667Y-78031628D01*
X108759524Y-78317342D02*
X108759524Y-79117342D01*
X108497619Y-77860200D02*
X108235714Y-78717342D01*
X108235714Y-78717342D02*
X108916667Y-78717342D01*
X153737342Y-80703332D02*
X153165914Y-81069999D01*
X153737342Y-81331904D02*
X152537342Y-81331904D01*
X152537342Y-81331904D02*
X152537342Y-80912856D01*
X152537342Y-80912856D02*
X152594485Y-80808094D01*
X152594485Y-80808094D02*
X152651628Y-80755713D01*
X152651628Y-80755713D02*
X152765914Y-80703332D01*
X152765914Y-80703332D02*
X152937342Y-80703332D01*
X152937342Y-80703332D02*
X153051628Y-80755713D01*
X153051628Y-80755713D02*
X153108771Y-80808094D01*
X153108771Y-80808094D02*
X153165914Y-80912856D01*
X153165914Y-80912856D02*
X153165914Y-81331904D01*
X153737342Y-80179523D02*
X153737342Y-79969999D01*
X153737342Y-79969999D02*
X153680200Y-79865237D01*
X153680200Y-79865237D02*
X153623057Y-79812856D01*
X153623057Y-79812856D02*
X153451628Y-79708094D01*
X153451628Y-79708094D02*
X153223057Y-79655713D01*
X153223057Y-79655713D02*
X152765914Y-79655713D01*
X152765914Y-79655713D02*
X152651628Y-79708094D01*
X152651628Y-79708094D02*
X152594485Y-79760475D01*
X152594485Y-79760475D02*
X152537342Y-79865237D01*
X152537342Y-79865237D02*
X152537342Y-80074761D01*
X152537342Y-80074761D02*
X152594485Y-80179523D01*
X152594485Y-80179523D02*
X152651628Y-80231904D01*
X152651628Y-80231904D02*
X152765914Y-80284285D01*
X152765914Y-80284285D02*
X153051628Y-80284285D01*
X153051628Y-80284285D02*
X153165914Y-80231904D01*
X153165914Y-80231904D02*
X153223057Y-80179523D01*
X153223057Y-80179523D02*
X153280200Y-80074761D01*
X153280200Y-80074761D02*
X153280200Y-79865237D01*
X153280200Y-79865237D02*
X153223057Y-79760475D01*
X153223057Y-79760475D02*
X153165914Y-79708094D01*
X153165914Y-79708094D02*
X153051628Y-79655713D01*
X112447342Y-73410475D02*
X113304485Y-73410475D01*
X113304485Y-73410475D02*
X113475914Y-73462856D01*
X113475914Y-73462856D02*
X113590200Y-73567618D01*
X113590200Y-73567618D02*
X113647342Y-73724761D01*
X113647342Y-73724761D02*
X113647342Y-73829523D01*
X113647342Y-72310475D02*
X113647342Y-72939047D01*
X113647342Y-72624761D02*
X112447342Y-72624761D01*
X112447342Y-72624761D02*
X112618771Y-72729523D01*
X112618771Y-72729523D02*
X112733057Y-72834285D01*
X112733057Y-72834285D02*
X112790200Y-72939047D01*
X112447342Y-71629523D02*
X112447342Y-71524761D01*
X112447342Y-71524761D02*
X112504485Y-71419999D01*
X112504485Y-71419999D02*
X112561628Y-71367618D01*
X112561628Y-71367618D02*
X112675914Y-71315237D01*
X112675914Y-71315237D02*
X112904485Y-71262856D01*
X112904485Y-71262856D02*
X113190200Y-71262856D01*
X113190200Y-71262856D02*
X113418771Y-71315237D01*
X113418771Y-71315237D02*
X113533057Y-71367618D01*
X113533057Y-71367618D02*
X113590200Y-71419999D01*
X113590200Y-71419999D02*
X113647342Y-71524761D01*
X113647342Y-71524761D02*
X113647342Y-71629523D01*
X113647342Y-71629523D02*
X113590200Y-71734285D01*
X113590200Y-71734285D02*
X113533057Y-71786666D01*
X113533057Y-71786666D02*
X113418771Y-71839047D01*
X113418771Y-71839047D02*
X113190200Y-71891428D01*
X113190200Y-71891428D02*
X112904485Y-71891428D01*
X112904485Y-71891428D02*
X112675914Y-71839047D01*
X112675914Y-71839047D02*
X112561628Y-71786666D01*
X112561628Y-71786666D02*
X112504485Y-71734285D01*
X112504485Y-71734285D02*
X112447342Y-71629523D01*
X146637342Y-80727142D02*
X146065914Y-81093809D01*
X146637342Y-81355714D02*
X145437342Y-81355714D01*
X145437342Y-81355714D02*
X145437342Y-80936666D01*
X145437342Y-80936666D02*
X145494485Y-80831904D01*
X145494485Y-80831904D02*
X145551628Y-80779523D01*
X145551628Y-80779523D02*
X145665914Y-80727142D01*
X145665914Y-80727142D02*
X145837342Y-80727142D01*
X145837342Y-80727142D02*
X145951628Y-80779523D01*
X145951628Y-80779523D02*
X146008771Y-80831904D01*
X146008771Y-80831904D02*
X146065914Y-80936666D01*
X146065914Y-80936666D02*
X146065914Y-81355714D01*
X145551628Y-80308095D02*
X145494485Y-80255714D01*
X145494485Y-80255714D02*
X145437342Y-80150952D01*
X145437342Y-80150952D02*
X145437342Y-79889047D01*
X145437342Y-79889047D02*
X145494485Y-79784285D01*
X145494485Y-79784285D02*
X145551628Y-79731904D01*
X145551628Y-79731904D02*
X145665914Y-79679523D01*
X145665914Y-79679523D02*
X145780200Y-79679523D01*
X145780200Y-79679523D02*
X145951628Y-79731904D01*
X145951628Y-79731904D02*
X146637342Y-80360476D01*
X146637342Y-80360476D02*
X146637342Y-79679523D01*
X146637342Y-78631904D02*
X146637342Y-79260476D01*
X146637342Y-78946190D02*
X145437342Y-78946190D01*
X145437342Y-78946190D02*
X145608771Y-79050952D01*
X145608771Y-79050952D02*
X145723057Y-79155714D01*
X145723057Y-79155714D02*
X145780200Y-79260476D01*
X150098057Y-65628332D02*
X150155200Y-65680713D01*
X150155200Y-65680713D02*
X150212342Y-65837856D01*
X150212342Y-65837856D02*
X150212342Y-65942618D01*
X150212342Y-65942618D02*
X150155200Y-66099761D01*
X150155200Y-66099761D02*
X150040914Y-66204523D01*
X150040914Y-66204523D02*
X149926628Y-66256904D01*
X149926628Y-66256904D02*
X149698057Y-66309285D01*
X149698057Y-66309285D02*
X149526628Y-66309285D01*
X149526628Y-66309285D02*
X149298057Y-66256904D01*
X149298057Y-66256904D02*
X149183771Y-66204523D01*
X149183771Y-66204523D02*
X149069485Y-66099761D01*
X149069485Y-66099761D02*
X149012342Y-65942618D01*
X149012342Y-65942618D02*
X149012342Y-65837856D01*
X149012342Y-65837856D02*
X149069485Y-65680713D01*
X149069485Y-65680713D02*
X149126628Y-65628332D01*
X149526628Y-64999761D02*
X149469485Y-65104523D01*
X149469485Y-65104523D02*
X149412342Y-65156904D01*
X149412342Y-65156904D02*
X149298057Y-65209285D01*
X149298057Y-65209285D02*
X149240914Y-65209285D01*
X149240914Y-65209285D02*
X149126628Y-65156904D01*
X149126628Y-65156904D02*
X149069485Y-65104523D01*
X149069485Y-65104523D02*
X149012342Y-64999761D01*
X149012342Y-64999761D02*
X149012342Y-64790237D01*
X149012342Y-64790237D02*
X149069485Y-64685475D01*
X149069485Y-64685475D02*
X149126628Y-64633094D01*
X149126628Y-64633094D02*
X149240914Y-64580713D01*
X149240914Y-64580713D02*
X149298057Y-64580713D01*
X149298057Y-64580713D02*
X149412342Y-64633094D01*
X149412342Y-64633094D02*
X149469485Y-64685475D01*
X149469485Y-64685475D02*
X149526628Y-64790237D01*
X149526628Y-64790237D02*
X149526628Y-64999761D01*
X149526628Y-64999761D02*
X149583771Y-65104523D01*
X149583771Y-65104523D02*
X149640914Y-65156904D01*
X149640914Y-65156904D02*
X149755200Y-65209285D01*
X149755200Y-65209285D02*
X149983771Y-65209285D01*
X149983771Y-65209285D02*
X150098057Y-65156904D01*
X150098057Y-65156904D02*
X150155200Y-65104523D01*
X150155200Y-65104523D02*
X150212342Y-64999761D01*
X150212342Y-64999761D02*
X150212342Y-64790237D01*
X150212342Y-64790237D02*
X150155200Y-64685475D01*
X150155200Y-64685475D02*
X150098057Y-64633094D01*
X150098057Y-64633094D02*
X149983771Y-64580713D01*
X149983771Y-64580713D02*
X149755200Y-64580713D01*
X149755200Y-64580713D02*
X149640914Y-64633094D01*
X149640914Y-64633094D02*
X149583771Y-64685475D01*
X149583771Y-64685475D02*
X149526628Y-64790237D01*
X220547342Y-104433332D02*
X220547342Y-104957142D01*
X220547342Y-104957142D02*
X219347342Y-104957142D01*
X220547342Y-104066666D02*
X219347342Y-104066666D01*
X219347342Y-104066666D02*
X219347342Y-103804761D01*
X219347342Y-103804761D02*
X219404485Y-103647618D01*
X219404485Y-103647618D02*
X219518771Y-103542856D01*
X219518771Y-103542856D02*
X219633057Y-103490475D01*
X219633057Y-103490475D02*
X219861628Y-103438094D01*
X219861628Y-103438094D02*
X220033057Y-103438094D01*
X220033057Y-103438094D02*
X220261628Y-103490475D01*
X220261628Y-103490475D02*
X220375914Y-103542856D01*
X220375914Y-103542856D02*
X220490200Y-103647618D01*
X220490200Y-103647618D02*
X220547342Y-103804761D01*
X220547342Y-103804761D02*
X220547342Y-104066666D01*
X220547342Y-102390475D02*
X220547342Y-103019047D01*
X220547342Y-102704761D02*
X219347342Y-102704761D01*
X219347342Y-102704761D02*
X219518771Y-102809523D01*
X219518771Y-102809523D02*
X219633057Y-102914285D01*
X219633057Y-102914285D02*
X219690200Y-103019047D01*
X139677342Y-73410475D02*
X140534485Y-73410475D01*
X140534485Y-73410475D02*
X140705914Y-73462856D01*
X140705914Y-73462856D02*
X140820200Y-73567618D01*
X140820200Y-73567618D02*
X140877342Y-73724761D01*
X140877342Y-73724761D02*
X140877342Y-73829523D01*
X140877342Y-72310475D02*
X140877342Y-72939047D01*
X140877342Y-72624761D02*
X139677342Y-72624761D01*
X139677342Y-72624761D02*
X139848771Y-72729523D01*
X139848771Y-72729523D02*
X139963057Y-72834285D01*
X139963057Y-72834285D02*
X140020200Y-72939047D01*
X140877342Y-71262856D02*
X140877342Y-71891428D01*
X140877342Y-71577142D02*
X139677342Y-71577142D01*
X139677342Y-71577142D02*
X139848771Y-71681904D01*
X139848771Y-71681904D02*
X139963057Y-71786666D01*
X139963057Y-71786666D02*
X140020200Y-71891428D01*
X218550200Y-108356666D02*
X218607342Y-108199523D01*
X218607342Y-108199523D02*
X218607342Y-107937618D01*
X218607342Y-107937618D02*
X218550200Y-107832856D01*
X218550200Y-107832856D02*
X218493057Y-107780475D01*
X218493057Y-107780475D02*
X218378771Y-107728094D01*
X218378771Y-107728094D02*
X218264485Y-107728094D01*
X218264485Y-107728094D02*
X218150200Y-107780475D01*
X218150200Y-107780475D02*
X218093057Y-107832856D01*
X218093057Y-107832856D02*
X218035914Y-107937618D01*
X218035914Y-107937618D02*
X217978771Y-108147142D01*
X217978771Y-108147142D02*
X217921628Y-108251904D01*
X217921628Y-108251904D02*
X217864485Y-108304285D01*
X217864485Y-108304285D02*
X217750200Y-108356666D01*
X217750200Y-108356666D02*
X217635914Y-108356666D01*
X217635914Y-108356666D02*
X217521628Y-108304285D01*
X217521628Y-108304285D02*
X217464485Y-108251904D01*
X217464485Y-108251904D02*
X217407342Y-108147142D01*
X217407342Y-108147142D02*
X217407342Y-107885237D01*
X217407342Y-107885237D02*
X217464485Y-107728094D01*
X217407342Y-107361428D02*
X218607342Y-107099523D01*
X218607342Y-107099523D02*
X217750200Y-106889999D01*
X217750200Y-106889999D02*
X218607342Y-106680475D01*
X218607342Y-106680475D02*
X217407342Y-106418571D01*
X218607342Y-105423332D02*
X218607342Y-106051904D01*
X218607342Y-105737618D02*
X217407342Y-105737618D01*
X217407342Y-105737618D02*
X217578771Y-105842380D01*
X217578771Y-105842380D02*
X217693057Y-105947142D01*
X217693057Y-105947142D02*
X217750200Y-106051904D01*
X188947342Y-90707142D02*
X188375914Y-91073809D01*
X188947342Y-91335714D02*
X187747342Y-91335714D01*
X187747342Y-91335714D02*
X187747342Y-90916666D01*
X187747342Y-90916666D02*
X187804485Y-90811904D01*
X187804485Y-90811904D02*
X187861628Y-90759523D01*
X187861628Y-90759523D02*
X187975914Y-90707142D01*
X187975914Y-90707142D02*
X188147342Y-90707142D01*
X188147342Y-90707142D02*
X188261628Y-90759523D01*
X188261628Y-90759523D02*
X188318771Y-90811904D01*
X188318771Y-90811904D02*
X188375914Y-90916666D01*
X188375914Y-90916666D02*
X188375914Y-91335714D01*
X188947342Y-89659523D02*
X188947342Y-90288095D01*
X188947342Y-89973809D02*
X187747342Y-89973809D01*
X187747342Y-89973809D02*
X187918771Y-90078571D01*
X187918771Y-90078571D02*
X188033057Y-90183333D01*
X188033057Y-90183333D02*
X188090200Y-90288095D01*
X187747342Y-88978571D02*
X187747342Y-88873809D01*
X187747342Y-88873809D02*
X187804485Y-88769047D01*
X187804485Y-88769047D02*
X187861628Y-88716666D01*
X187861628Y-88716666D02*
X187975914Y-88664285D01*
X187975914Y-88664285D02*
X188204485Y-88611904D01*
X188204485Y-88611904D02*
X188490200Y-88611904D01*
X188490200Y-88611904D02*
X188718771Y-88664285D01*
X188718771Y-88664285D02*
X188833057Y-88716666D01*
X188833057Y-88716666D02*
X188890200Y-88769047D01*
X188890200Y-88769047D02*
X188947342Y-88873809D01*
X188947342Y-88873809D02*
X188947342Y-88978571D01*
X188947342Y-88978571D02*
X188890200Y-89083333D01*
X188890200Y-89083333D02*
X188833057Y-89135714D01*
X188833057Y-89135714D02*
X188718771Y-89188095D01*
X188718771Y-89188095D02*
X188490200Y-89240476D01*
X188490200Y-89240476D02*
X188204485Y-89240476D01*
X188204485Y-89240476D02*
X187975914Y-89188095D01*
X187975914Y-89188095D02*
X187861628Y-89135714D01*
X187861628Y-89135714D02*
X187804485Y-89083333D01*
X187804485Y-89083333D02*
X187747342Y-88978571D01*
X221067342Y-99729760D02*
X220495914Y-100096427D01*
X221067342Y-100358332D02*
X219867342Y-100358332D01*
X219867342Y-100358332D02*
X219867342Y-99939284D01*
X219867342Y-99939284D02*
X219924485Y-99834522D01*
X219924485Y-99834522D02*
X219981628Y-99782141D01*
X219981628Y-99782141D02*
X220095914Y-99729760D01*
X220095914Y-99729760D02*
X220267342Y-99729760D01*
X220267342Y-99729760D02*
X220381628Y-99782141D01*
X220381628Y-99782141D02*
X220438771Y-99834522D01*
X220438771Y-99834522D02*
X220495914Y-99939284D01*
X220495914Y-99939284D02*
X220495914Y-100358332D01*
X219867342Y-98734522D02*
X219867342Y-99258332D01*
X219867342Y-99258332D02*
X220438771Y-99310713D01*
X220438771Y-99310713D02*
X220381628Y-99258332D01*
X220381628Y-99258332D02*
X220324485Y-99153570D01*
X220324485Y-99153570D02*
X220324485Y-98891665D01*
X220324485Y-98891665D02*
X220381628Y-98786903D01*
X220381628Y-98786903D02*
X220438771Y-98734522D01*
X220438771Y-98734522D02*
X220553057Y-98682141D01*
X220553057Y-98682141D02*
X220838771Y-98682141D01*
X220838771Y-98682141D02*
X220953057Y-98734522D01*
X220953057Y-98734522D02*
X221010200Y-98786903D01*
X221010200Y-98786903D02*
X221067342Y-98891665D01*
X221067342Y-98891665D02*
X221067342Y-99153570D01*
X221067342Y-99153570D02*
X221010200Y-99258332D01*
X221010200Y-99258332D02*
X220953057Y-99310713D01*
X157137342Y-89703332D02*
X156565914Y-90069999D01*
X157137342Y-90331904D02*
X155937342Y-90331904D01*
X155937342Y-90331904D02*
X155937342Y-89912856D01*
X155937342Y-89912856D02*
X155994485Y-89808094D01*
X155994485Y-89808094D02*
X156051628Y-89755713D01*
X156051628Y-89755713D02*
X156165914Y-89703332D01*
X156165914Y-89703332D02*
X156337342Y-89703332D01*
X156337342Y-89703332D02*
X156451628Y-89755713D01*
X156451628Y-89755713D02*
X156508771Y-89808094D01*
X156508771Y-89808094D02*
X156565914Y-89912856D01*
X156565914Y-89912856D02*
X156565914Y-90331904D01*
X156337342Y-88760475D02*
X157137342Y-88760475D01*
X155880200Y-89022380D02*
X156737342Y-89284285D01*
X156737342Y-89284285D02*
X156737342Y-88603332D01*
X153737342Y-89703332D02*
X153165914Y-90069999D01*
X153737342Y-90331904D02*
X152537342Y-90331904D01*
X152537342Y-90331904D02*
X152537342Y-89912856D01*
X152537342Y-89912856D02*
X152594485Y-89808094D01*
X152594485Y-89808094D02*
X152651628Y-89755713D01*
X152651628Y-89755713D02*
X152765914Y-89703332D01*
X152765914Y-89703332D02*
X152937342Y-89703332D01*
X152937342Y-89703332D02*
X153051628Y-89755713D01*
X153051628Y-89755713D02*
X153108771Y-89808094D01*
X153108771Y-89808094D02*
X153165914Y-89912856D01*
X153165914Y-89912856D02*
X153165914Y-90331904D01*
X152537342Y-89336666D02*
X152537342Y-88655713D01*
X152537342Y-88655713D02*
X152994485Y-89022380D01*
X152994485Y-89022380D02*
X152994485Y-88865237D01*
X152994485Y-88865237D02*
X153051628Y-88760475D01*
X153051628Y-88760475D02*
X153108771Y-88708094D01*
X153108771Y-88708094D02*
X153223057Y-88655713D01*
X153223057Y-88655713D02*
X153508771Y-88655713D01*
X153508771Y-88655713D02*
X153623057Y-88708094D01*
X153623057Y-88708094D02*
X153680200Y-88760475D01*
X153680200Y-88760475D02*
X153737342Y-88865237D01*
X153737342Y-88865237D02*
X153737342Y-89179523D01*
X153737342Y-89179523D02*
X153680200Y-89284285D01*
X153680200Y-89284285D02*
X153623057Y-89336666D01*
X171023057Y-98687142D02*
X171080200Y-98739523D01*
X171080200Y-98739523D02*
X171137342Y-98896666D01*
X171137342Y-98896666D02*
X171137342Y-99001428D01*
X171137342Y-99001428D02*
X171080200Y-99158571D01*
X171080200Y-99158571D02*
X170965914Y-99263333D01*
X170965914Y-99263333D02*
X170851628Y-99315714D01*
X170851628Y-99315714D02*
X170623057Y-99368095D01*
X170623057Y-99368095D02*
X170451628Y-99368095D01*
X170451628Y-99368095D02*
X170223057Y-99315714D01*
X170223057Y-99315714D02*
X170108771Y-99263333D01*
X170108771Y-99263333D02*
X169994485Y-99158571D01*
X169994485Y-99158571D02*
X169937342Y-99001428D01*
X169937342Y-99001428D02*
X169937342Y-98896666D01*
X169937342Y-98896666D02*
X169994485Y-98739523D01*
X169994485Y-98739523D02*
X170051628Y-98687142D01*
X171137342Y-97639523D02*
X171137342Y-98268095D01*
X171137342Y-97953809D02*
X169937342Y-97953809D01*
X169937342Y-97953809D02*
X170108771Y-98058571D01*
X170108771Y-98058571D02*
X170223057Y-98163333D01*
X170223057Y-98163333D02*
X170280200Y-98268095D01*
X170337342Y-96696666D02*
X171137342Y-96696666D01*
X169880200Y-96958571D02*
X170737342Y-97220476D01*
X170737342Y-97220476D02*
X170737342Y-96539523D01*
X150237342Y-72803332D02*
X149665914Y-73169999D01*
X150237342Y-73431904D02*
X149037342Y-73431904D01*
X149037342Y-73431904D02*
X149037342Y-73012856D01*
X149037342Y-73012856D02*
X149094485Y-72908094D01*
X149094485Y-72908094D02*
X149151628Y-72855713D01*
X149151628Y-72855713D02*
X149265914Y-72803332D01*
X149265914Y-72803332D02*
X149437342Y-72803332D01*
X149437342Y-72803332D02*
X149551628Y-72855713D01*
X149551628Y-72855713D02*
X149608771Y-72908094D01*
X149608771Y-72908094D02*
X149665914Y-73012856D01*
X149665914Y-73012856D02*
X149665914Y-73431904D01*
X149551628Y-72174761D02*
X149494485Y-72279523D01*
X149494485Y-72279523D02*
X149437342Y-72331904D01*
X149437342Y-72331904D02*
X149323057Y-72384285D01*
X149323057Y-72384285D02*
X149265914Y-72384285D01*
X149265914Y-72384285D02*
X149151628Y-72331904D01*
X149151628Y-72331904D02*
X149094485Y-72279523D01*
X149094485Y-72279523D02*
X149037342Y-72174761D01*
X149037342Y-72174761D02*
X149037342Y-71965237D01*
X149037342Y-71965237D02*
X149094485Y-71860475D01*
X149094485Y-71860475D02*
X149151628Y-71808094D01*
X149151628Y-71808094D02*
X149265914Y-71755713D01*
X149265914Y-71755713D02*
X149323057Y-71755713D01*
X149323057Y-71755713D02*
X149437342Y-71808094D01*
X149437342Y-71808094D02*
X149494485Y-71860475D01*
X149494485Y-71860475D02*
X149551628Y-71965237D01*
X149551628Y-71965237D02*
X149551628Y-72174761D01*
X149551628Y-72174761D02*
X149608771Y-72279523D01*
X149608771Y-72279523D02*
X149665914Y-72331904D01*
X149665914Y-72331904D02*
X149780200Y-72384285D01*
X149780200Y-72384285D02*
X150008771Y-72384285D01*
X150008771Y-72384285D02*
X150123057Y-72331904D01*
X150123057Y-72331904D02*
X150180200Y-72279523D01*
X150180200Y-72279523D02*
X150237342Y-72174761D01*
X150237342Y-72174761D02*
X150237342Y-71965237D01*
X150237342Y-71965237D02*
X150180200Y-71860475D01*
X150180200Y-71860475D02*
X150123057Y-71808094D01*
X150123057Y-71808094D02*
X150008771Y-71755713D01*
X150008771Y-71755713D02*
X149780200Y-71755713D01*
X149780200Y-71755713D02*
X149665914Y-71808094D01*
X149665914Y-71808094D02*
X149608771Y-71860475D01*
X149608771Y-71860475D02*
X149551628Y-71965237D01*
X109033333Y-55497342D02*
X109033333Y-56354485D01*
X109033333Y-56354485D02*
X108980952Y-56525914D01*
X108980952Y-56525914D02*
X108876190Y-56640200D01*
X108876190Y-56640200D02*
X108719047Y-56697342D01*
X108719047Y-56697342D02*
X108614285Y-56697342D01*
X110133333Y-56697342D02*
X109504761Y-56697342D01*
X109819047Y-56697342D02*
X109819047Y-55497342D01*
X109819047Y-55497342D02*
X109714285Y-55668771D01*
X109714285Y-55668771D02*
X109609523Y-55783057D01*
X109609523Y-55783057D02*
X109504761Y-55840200D01*
X146523057Y-65728332D02*
X146580200Y-65780713D01*
X146580200Y-65780713D02*
X146637342Y-65937856D01*
X146637342Y-65937856D02*
X146637342Y-66042618D01*
X146637342Y-66042618D02*
X146580200Y-66199761D01*
X146580200Y-66199761D02*
X146465914Y-66304523D01*
X146465914Y-66304523D02*
X146351628Y-66356904D01*
X146351628Y-66356904D02*
X146123057Y-66409285D01*
X146123057Y-66409285D02*
X145951628Y-66409285D01*
X145951628Y-66409285D02*
X145723057Y-66356904D01*
X145723057Y-66356904D02*
X145608771Y-66304523D01*
X145608771Y-66304523D02*
X145494485Y-66199761D01*
X145494485Y-66199761D02*
X145437342Y-66042618D01*
X145437342Y-66042618D02*
X145437342Y-65937856D01*
X145437342Y-65937856D02*
X145494485Y-65780713D01*
X145494485Y-65780713D02*
X145551628Y-65728332D01*
X145437342Y-65361666D02*
X145437342Y-64628332D01*
X145437342Y-64628332D02*
X146637342Y-65099761D01*
X164137342Y-80727142D02*
X163565914Y-81093809D01*
X164137342Y-81355714D02*
X162937342Y-81355714D01*
X162937342Y-81355714D02*
X162937342Y-80936666D01*
X162937342Y-80936666D02*
X162994485Y-80831904D01*
X162994485Y-80831904D02*
X163051628Y-80779523D01*
X163051628Y-80779523D02*
X163165914Y-80727142D01*
X163165914Y-80727142D02*
X163337342Y-80727142D01*
X163337342Y-80727142D02*
X163451628Y-80779523D01*
X163451628Y-80779523D02*
X163508771Y-80831904D01*
X163508771Y-80831904D02*
X163565914Y-80936666D01*
X163565914Y-80936666D02*
X163565914Y-81355714D01*
X164137342Y-79679523D02*
X164137342Y-80308095D01*
X164137342Y-79993809D02*
X162937342Y-79993809D01*
X162937342Y-79993809D02*
X163108771Y-80098571D01*
X163108771Y-80098571D02*
X163223057Y-80203333D01*
X163223057Y-80203333D02*
X163280200Y-80308095D01*
X162937342Y-78684285D02*
X162937342Y-79208095D01*
X162937342Y-79208095D02*
X163508771Y-79260476D01*
X163508771Y-79260476D02*
X163451628Y-79208095D01*
X163451628Y-79208095D02*
X163394485Y-79103333D01*
X163394485Y-79103333D02*
X163394485Y-78841428D01*
X163394485Y-78841428D02*
X163451628Y-78736666D01*
X163451628Y-78736666D02*
X163508771Y-78684285D01*
X163508771Y-78684285D02*
X163623057Y-78631904D01*
X163623057Y-78631904D02*
X163908771Y-78631904D01*
X163908771Y-78631904D02*
X164023057Y-78684285D01*
X164023057Y-78684285D02*
X164080200Y-78736666D01*
X164080200Y-78736666D02*
X164137342Y-78841428D01*
X164137342Y-78841428D02*
X164137342Y-79103333D01*
X164137342Y-79103333D02*
X164080200Y-79208095D01*
X164080200Y-79208095D02*
X164023057Y-79260476D01*
X159447342Y-54166666D02*
X160304485Y-54166666D01*
X160304485Y-54166666D02*
X160475914Y-54219047D01*
X160475914Y-54219047D02*
X160590200Y-54323809D01*
X160590200Y-54323809D02*
X160647342Y-54480952D01*
X160647342Y-54480952D02*
X160647342Y-54585714D01*
X159561628Y-53695238D02*
X159504485Y-53642857D01*
X159504485Y-53642857D02*
X159447342Y-53538095D01*
X159447342Y-53538095D02*
X159447342Y-53276190D01*
X159447342Y-53276190D02*
X159504485Y-53171428D01*
X159504485Y-53171428D02*
X159561628Y-53119047D01*
X159561628Y-53119047D02*
X159675914Y-53066666D01*
X159675914Y-53066666D02*
X159790200Y-53066666D01*
X159790200Y-53066666D02*
X159961628Y-53119047D01*
X159961628Y-53119047D02*
X160647342Y-53747619D01*
X160647342Y-53747619D02*
X160647342Y-53066666D01*
X105740714Y-67322342D02*
X106369286Y-67322342D01*
X106055000Y-68522342D02*
X106055000Y-67322342D01*
X106735952Y-68522342D02*
X106735952Y-67322342D01*
X106735952Y-67893771D02*
X107364524Y-67893771D01*
X107364524Y-68522342D02*
X107364524Y-67322342D01*
X108464524Y-68522342D02*
X107835952Y-68522342D01*
X108150238Y-68522342D02*
X108150238Y-67322342D01*
X108150238Y-67322342D02*
X108045476Y-67493771D01*
X108045476Y-67493771D02*
X107940714Y-67608057D01*
X107940714Y-67608057D02*
X107835952Y-67665200D01*
X157237342Y-80727142D02*
X156665914Y-81093809D01*
X157237342Y-81355714D02*
X156037342Y-81355714D01*
X156037342Y-81355714D02*
X156037342Y-80936666D01*
X156037342Y-80936666D02*
X156094485Y-80831904D01*
X156094485Y-80831904D02*
X156151628Y-80779523D01*
X156151628Y-80779523D02*
X156265914Y-80727142D01*
X156265914Y-80727142D02*
X156437342Y-80727142D01*
X156437342Y-80727142D02*
X156551628Y-80779523D01*
X156551628Y-80779523D02*
X156608771Y-80831904D01*
X156608771Y-80831904D02*
X156665914Y-80936666D01*
X156665914Y-80936666D02*
X156665914Y-81355714D01*
X157237342Y-79679523D02*
X157237342Y-80308095D01*
X157237342Y-79993809D02*
X156037342Y-79993809D01*
X156037342Y-79993809D02*
X156208771Y-80098571D01*
X156208771Y-80098571D02*
X156323057Y-80203333D01*
X156323057Y-80203333D02*
X156380200Y-80308095D01*
X156151628Y-79260476D02*
X156094485Y-79208095D01*
X156094485Y-79208095D02*
X156037342Y-79103333D01*
X156037342Y-79103333D02*
X156037342Y-78841428D01*
X156037342Y-78841428D02*
X156094485Y-78736666D01*
X156094485Y-78736666D02*
X156151628Y-78684285D01*
X156151628Y-78684285D02*
X156265914Y-78631904D01*
X156265914Y-78631904D02*
X156380200Y-78631904D01*
X156380200Y-78631904D02*
X156551628Y-78684285D01*
X156551628Y-78684285D02*
X157237342Y-79312857D01*
X157237342Y-79312857D02*
X157237342Y-78631904D01*
X164137342Y-98687142D02*
X163565914Y-99053809D01*
X164137342Y-99315714D02*
X162937342Y-99315714D01*
X162937342Y-99315714D02*
X162937342Y-98896666D01*
X162937342Y-98896666D02*
X162994485Y-98791904D01*
X162994485Y-98791904D02*
X163051628Y-98739523D01*
X163051628Y-98739523D02*
X163165914Y-98687142D01*
X163165914Y-98687142D02*
X163337342Y-98687142D01*
X163337342Y-98687142D02*
X163451628Y-98739523D01*
X163451628Y-98739523D02*
X163508771Y-98791904D01*
X163508771Y-98791904D02*
X163565914Y-98896666D01*
X163565914Y-98896666D02*
X163565914Y-99315714D01*
X164137342Y-97639523D02*
X164137342Y-98268095D01*
X164137342Y-97953809D02*
X162937342Y-97953809D01*
X162937342Y-97953809D02*
X163108771Y-98058571D01*
X163108771Y-98058571D02*
X163223057Y-98163333D01*
X163223057Y-98163333D02*
X163280200Y-98268095D01*
X162937342Y-97272857D02*
X162937342Y-96591904D01*
X162937342Y-96591904D02*
X163394485Y-96958571D01*
X163394485Y-96958571D02*
X163394485Y-96801428D01*
X163394485Y-96801428D02*
X163451628Y-96696666D01*
X163451628Y-96696666D02*
X163508771Y-96644285D01*
X163508771Y-96644285D02*
X163623057Y-96591904D01*
X163623057Y-96591904D02*
X163908771Y-96591904D01*
X163908771Y-96591904D02*
X164023057Y-96644285D01*
X164023057Y-96644285D02*
X164080200Y-96696666D01*
X164080200Y-96696666D02*
X164137342Y-96801428D01*
X164137342Y-96801428D02*
X164137342Y-97115714D01*
X164137342Y-97115714D02*
X164080200Y-97220476D01*
X164080200Y-97220476D02*
X164023057Y-97272857D01*
X190987342Y-80310475D02*
X191844485Y-80310475D01*
X191844485Y-80310475D02*
X192015914Y-80362856D01*
X192015914Y-80362856D02*
X192130200Y-80467618D01*
X192130200Y-80467618D02*
X192187342Y-80624761D01*
X192187342Y-80624761D02*
X192187342Y-80729523D01*
X191101628Y-79839047D02*
X191044485Y-79786666D01*
X191044485Y-79786666D02*
X190987342Y-79681904D01*
X190987342Y-79681904D02*
X190987342Y-79419999D01*
X190987342Y-79419999D02*
X191044485Y-79315237D01*
X191044485Y-79315237D02*
X191101628Y-79262856D01*
X191101628Y-79262856D02*
X191215914Y-79210475D01*
X191215914Y-79210475D02*
X191330200Y-79210475D01*
X191330200Y-79210475D02*
X191501628Y-79262856D01*
X191501628Y-79262856D02*
X192187342Y-79891428D01*
X192187342Y-79891428D02*
X192187342Y-79210475D01*
X190987342Y-78529523D02*
X190987342Y-78424761D01*
X190987342Y-78424761D02*
X191044485Y-78319999D01*
X191044485Y-78319999D02*
X191101628Y-78267618D01*
X191101628Y-78267618D02*
X191215914Y-78215237D01*
X191215914Y-78215237D02*
X191444485Y-78162856D01*
X191444485Y-78162856D02*
X191730200Y-78162856D01*
X191730200Y-78162856D02*
X191958771Y-78215237D01*
X191958771Y-78215237D02*
X192073057Y-78267618D01*
X192073057Y-78267618D02*
X192130200Y-78319999D01*
X192130200Y-78319999D02*
X192187342Y-78424761D01*
X192187342Y-78424761D02*
X192187342Y-78529523D01*
X192187342Y-78529523D02*
X192130200Y-78634285D01*
X192130200Y-78634285D02*
X192073057Y-78686666D01*
X192073057Y-78686666D02*
X191958771Y-78739047D01*
X191958771Y-78739047D02*
X191730200Y-78791428D01*
X191730200Y-78791428D02*
X191444485Y-78791428D01*
X191444485Y-78791428D02*
X191215914Y-78739047D01*
X191215914Y-78739047D02*
X191101628Y-78686666D01*
X191101628Y-78686666D02*
X191044485Y-78634285D01*
X191044485Y-78634285D02*
X190987342Y-78529523D01*
X160523057Y-89703332D02*
X160580200Y-89755713D01*
X160580200Y-89755713D02*
X160637342Y-89912856D01*
X160637342Y-89912856D02*
X160637342Y-90017618D01*
X160637342Y-90017618D02*
X160580200Y-90174761D01*
X160580200Y-90174761D02*
X160465914Y-90279523D01*
X160465914Y-90279523D02*
X160351628Y-90331904D01*
X160351628Y-90331904D02*
X160123057Y-90384285D01*
X160123057Y-90384285D02*
X159951628Y-90384285D01*
X159951628Y-90384285D02*
X159723057Y-90331904D01*
X159723057Y-90331904D02*
X159608771Y-90279523D01*
X159608771Y-90279523D02*
X159494485Y-90174761D01*
X159494485Y-90174761D02*
X159437342Y-90017618D01*
X159437342Y-90017618D02*
X159437342Y-89912856D01*
X159437342Y-89912856D02*
X159494485Y-89755713D01*
X159494485Y-89755713D02*
X159551628Y-89703332D01*
X159437342Y-88760475D02*
X159437342Y-88969999D01*
X159437342Y-88969999D02*
X159494485Y-89074761D01*
X159494485Y-89074761D02*
X159551628Y-89127142D01*
X159551628Y-89127142D02*
X159723057Y-89231904D01*
X159723057Y-89231904D02*
X159951628Y-89284285D01*
X159951628Y-89284285D02*
X160408771Y-89284285D01*
X160408771Y-89284285D02*
X160523057Y-89231904D01*
X160523057Y-89231904D02*
X160580200Y-89179523D01*
X160580200Y-89179523D02*
X160637342Y-89074761D01*
X160637342Y-89074761D02*
X160637342Y-88865237D01*
X160637342Y-88865237D02*
X160580200Y-88760475D01*
X160580200Y-88760475D02*
X160523057Y-88708094D01*
X160523057Y-88708094D02*
X160408771Y-88655713D01*
X160408771Y-88655713D02*
X160123057Y-88655713D01*
X160123057Y-88655713D02*
X160008771Y-88708094D01*
X160008771Y-88708094D02*
X159951628Y-88760475D01*
X159951628Y-88760475D02*
X159894485Y-88865237D01*
X159894485Y-88865237D02*
X159894485Y-89074761D01*
X159894485Y-89074761D02*
X159951628Y-89179523D01*
X159951628Y-89179523D02*
X160008771Y-89231904D01*
X160008771Y-89231904D02*
X160123057Y-89284285D01*
X178927342Y-104128095D02*
X179898771Y-104128095D01*
X179898771Y-104128095D02*
X180013057Y-104075714D01*
X180013057Y-104075714D02*
X180070200Y-104023333D01*
X180070200Y-104023333D02*
X180127342Y-103918571D01*
X180127342Y-103918571D02*
X180127342Y-103709047D01*
X180127342Y-103709047D02*
X180070200Y-103604285D01*
X180070200Y-103604285D02*
X180013057Y-103551904D01*
X180013057Y-103551904D02*
X179898771Y-103499523D01*
X179898771Y-103499523D02*
X178927342Y-103499523D01*
X178927342Y-102504285D02*
X178927342Y-102713809D01*
X178927342Y-102713809D02*
X178984485Y-102818571D01*
X178984485Y-102818571D02*
X179041628Y-102870952D01*
X179041628Y-102870952D02*
X179213057Y-102975714D01*
X179213057Y-102975714D02*
X179441628Y-103028095D01*
X179441628Y-103028095D02*
X179898771Y-103028095D01*
X179898771Y-103028095D02*
X180013057Y-102975714D01*
X180013057Y-102975714D02*
X180070200Y-102923333D01*
X180070200Y-102923333D02*
X180127342Y-102818571D01*
X180127342Y-102818571D02*
X180127342Y-102609047D01*
X180127342Y-102609047D02*
X180070200Y-102504285D01*
X180070200Y-102504285D02*
X180013057Y-102451904D01*
X180013057Y-102451904D02*
X179898771Y-102399523D01*
X179898771Y-102399523D02*
X179613057Y-102399523D01*
X179613057Y-102399523D02*
X179498771Y-102451904D01*
X179498771Y-102451904D02*
X179441628Y-102504285D01*
X179441628Y-102504285D02*
X179384485Y-102609047D01*
X179384485Y-102609047D02*
X179384485Y-102818571D01*
X179384485Y-102818571D02*
X179441628Y-102923333D01*
X179441628Y-102923333D02*
X179498771Y-102975714D01*
X179498771Y-102975714D02*
X179613057Y-103028095D01*
X108433057Y-72033332D02*
X108490200Y-72085713D01*
X108490200Y-72085713D02*
X108547342Y-72242856D01*
X108547342Y-72242856D02*
X108547342Y-72347618D01*
X108547342Y-72347618D02*
X108490200Y-72504761D01*
X108490200Y-72504761D02*
X108375914Y-72609523D01*
X108375914Y-72609523D02*
X108261628Y-72661904D01*
X108261628Y-72661904D02*
X108033057Y-72714285D01*
X108033057Y-72714285D02*
X107861628Y-72714285D01*
X107861628Y-72714285D02*
X107633057Y-72661904D01*
X107633057Y-72661904D02*
X107518771Y-72609523D01*
X107518771Y-72609523D02*
X107404485Y-72504761D01*
X107404485Y-72504761D02*
X107347342Y-72347618D01*
X107347342Y-72347618D02*
X107347342Y-72242856D01*
X107347342Y-72242856D02*
X107404485Y-72085713D01*
X107404485Y-72085713D02*
X107461628Y-72033332D01*
X108547342Y-70985713D02*
X108547342Y-71614285D01*
X108547342Y-71299999D02*
X107347342Y-71299999D01*
X107347342Y-71299999D02*
X107518771Y-71404761D01*
X107518771Y-71404761D02*
X107633057Y-71509523D01*
X107633057Y-71509523D02*
X107690200Y-71614285D01*
X222440199Y-108506666D02*
X222497341Y-108349523D01*
X222497341Y-108349523D02*
X222497341Y-108087618D01*
X222497341Y-108087618D02*
X222440199Y-107982856D01*
X222440199Y-107982856D02*
X222383056Y-107930475D01*
X222383056Y-107930475D02*
X222268770Y-107878094D01*
X222268770Y-107878094D02*
X222154484Y-107878094D01*
X222154484Y-107878094D02*
X222040199Y-107930475D01*
X222040199Y-107930475D02*
X221983056Y-107982856D01*
X221983056Y-107982856D02*
X221925913Y-108087618D01*
X221925913Y-108087618D02*
X221868770Y-108297142D01*
X221868770Y-108297142D02*
X221811627Y-108401904D01*
X221811627Y-108401904D02*
X221754484Y-108454285D01*
X221754484Y-108454285D02*
X221640199Y-108506666D01*
X221640199Y-108506666D02*
X221525913Y-108506666D01*
X221525913Y-108506666D02*
X221411627Y-108454285D01*
X221411627Y-108454285D02*
X221354484Y-108401904D01*
X221354484Y-108401904D02*
X221297341Y-108297142D01*
X221297341Y-108297142D02*
X221297341Y-108035237D01*
X221297341Y-108035237D02*
X221354484Y-107878094D01*
X221297341Y-107511428D02*
X222497341Y-107249523D01*
X222497341Y-107249523D02*
X221640199Y-107039999D01*
X221640199Y-107039999D02*
X222497341Y-106830475D01*
X222497341Y-106830475D02*
X221297341Y-106568571D01*
X221411627Y-106201904D02*
X221354484Y-106149523D01*
X221354484Y-106149523D02*
X221297341Y-106044761D01*
X221297341Y-106044761D02*
X221297341Y-105782856D01*
X221297341Y-105782856D02*
X221354484Y-105678094D01*
X221354484Y-105678094D02*
X221411627Y-105625713D01*
X221411627Y-105625713D02*
X221525913Y-105573332D01*
X221525913Y-105573332D02*
X221640199Y-105573332D01*
X221640199Y-105573332D02*
X221811627Y-105625713D01*
X221811627Y-105625713D02*
X222497341Y-106254285D01*
X222497341Y-106254285D02*
X222497341Y-105573332D01*
X167192342Y-124016666D02*
X168049485Y-124016666D01*
X168049485Y-124016666D02*
X168220914Y-124069047D01*
X168220914Y-124069047D02*
X168335200Y-124173809D01*
X168335200Y-124173809D02*
X168392342Y-124330952D01*
X168392342Y-124330952D02*
X168392342Y-124435714D01*
X167192342Y-122969047D02*
X167192342Y-123492857D01*
X167192342Y-123492857D02*
X167763771Y-123545238D01*
X167763771Y-123545238D02*
X167706628Y-123492857D01*
X167706628Y-123492857D02*
X167649485Y-123388095D01*
X167649485Y-123388095D02*
X167649485Y-123126190D01*
X167649485Y-123126190D02*
X167706628Y-123021428D01*
X167706628Y-123021428D02*
X167763771Y-122969047D01*
X167763771Y-122969047D02*
X167878057Y-122916666D01*
X167878057Y-122916666D02*
X168163771Y-122916666D01*
X168163771Y-122916666D02*
X168278057Y-122969047D01*
X168278057Y-122969047D02*
X168335200Y-123021428D01*
X168335200Y-123021428D02*
X168392342Y-123126190D01*
X168392342Y-123126190D02*
X168392342Y-123388095D01*
X168392342Y-123388095D02*
X168335200Y-123492857D01*
X168335200Y-123492857D02*
X168278057Y-123545238D01*
X160742342Y-71788332D02*
X160170914Y-72154999D01*
X160742342Y-72416904D02*
X159542342Y-72416904D01*
X159542342Y-72416904D02*
X159542342Y-71997856D01*
X159542342Y-71997856D02*
X159599485Y-71893094D01*
X159599485Y-71893094D02*
X159656628Y-71840713D01*
X159656628Y-71840713D02*
X159770914Y-71788332D01*
X159770914Y-71788332D02*
X159942342Y-71788332D01*
X159942342Y-71788332D02*
X160056628Y-71840713D01*
X160056628Y-71840713D02*
X160113771Y-71893094D01*
X160113771Y-71893094D02*
X160170914Y-71997856D01*
X160170914Y-71997856D02*
X160170914Y-72416904D01*
X160742342Y-70740713D02*
X160742342Y-71369285D01*
X160742342Y-71054999D02*
X159542342Y-71054999D01*
X159542342Y-71054999D02*
X159713771Y-71159761D01*
X159713771Y-71159761D02*
X159828057Y-71264523D01*
X159828057Y-71264523D02*
X159885200Y-71369285D01*
X165923057Y-65603332D02*
X165980200Y-65655713D01*
X165980200Y-65655713D02*
X166037342Y-65812856D01*
X166037342Y-65812856D02*
X166037342Y-65917618D01*
X166037342Y-65917618D02*
X165980200Y-66074761D01*
X165980200Y-66074761D02*
X165865914Y-66179523D01*
X165865914Y-66179523D02*
X165751628Y-66231904D01*
X165751628Y-66231904D02*
X165523057Y-66284285D01*
X165523057Y-66284285D02*
X165351628Y-66284285D01*
X165351628Y-66284285D02*
X165123057Y-66231904D01*
X165123057Y-66231904D02*
X165008771Y-66179523D01*
X165008771Y-66179523D02*
X164894485Y-66074761D01*
X164894485Y-66074761D02*
X164837342Y-65917618D01*
X164837342Y-65917618D02*
X164837342Y-65812856D01*
X164837342Y-65812856D02*
X164894485Y-65655713D01*
X164894485Y-65655713D02*
X164951628Y-65603332D01*
X166037342Y-65079523D02*
X166037342Y-64869999D01*
X166037342Y-64869999D02*
X165980200Y-64765237D01*
X165980200Y-64765237D02*
X165923057Y-64712856D01*
X165923057Y-64712856D02*
X165751628Y-64608094D01*
X165751628Y-64608094D02*
X165523057Y-64555713D01*
X165523057Y-64555713D02*
X165065914Y-64555713D01*
X165065914Y-64555713D02*
X164951628Y-64608094D01*
X164951628Y-64608094D02*
X164894485Y-64660475D01*
X164894485Y-64660475D02*
X164837342Y-64765237D01*
X164837342Y-64765237D02*
X164837342Y-64974761D01*
X164837342Y-64974761D02*
X164894485Y-65079523D01*
X164894485Y-65079523D02*
X164951628Y-65131904D01*
X164951628Y-65131904D02*
X165065914Y-65184285D01*
X165065914Y-65184285D02*
X165351628Y-65184285D01*
X165351628Y-65184285D02*
X165465914Y-65131904D01*
X165465914Y-65131904D02*
X165523057Y-65079523D01*
X165523057Y-65079523D02*
X165580200Y-64974761D01*
X165580200Y-64974761D02*
X165580200Y-64765237D01*
X165580200Y-64765237D02*
X165523057Y-64660475D01*
X165523057Y-64660475D02*
X165465914Y-64608094D01*
X165465914Y-64608094D02*
X165351628Y-64555713D01*
X114822342Y-105770475D02*
X115679485Y-105770475D01*
X115679485Y-105770475D02*
X115850914Y-105822856D01*
X115850914Y-105822856D02*
X115965200Y-105927618D01*
X115965200Y-105927618D02*
X116022342Y-106084761D01*
X116022342Y-106084761D02*
X116022342Y-106189523D01*
X116022342Y-104670475D02*
X116022342Y-105299047D01*
X116022342Y-104984761D02*
X114822342Y-104984761D01*
X114822342Y-104984761D02*
X114993771Y-105089523D01*
X114993771Y-105089523D02*
X115108057Y-105194285D01*
X115108057Y-105194285D02*
X115165200Y-105299047D01*
X115222342Y-103727618D02*
X116022342Y-103727618D01*
X114765200Y-103989523D02*
X115622342Y-104251428D01*
X115622342Y-104251428D02*
X115622342Y-103570475D01*
%TO.C,R7*%
X145290000Y-73820000D02*
X146890000Y-73820000D01*
X145290000Y-77020000D02*
X145290000Y-73820000D01*
X146890000Y-73820000D02*
X146890000Y-77020000D01*
X146890000Y-77020000D02*
X145290000Y-77020000D01*
%TO.C,C5*%
X162790000Y-94020000D02*
X164390000Y-94020000D01*
X164390000Y-90820000D01*
X162790000Y-90820000D01*
X162790000Y-94020000D01*
%TO.C,R22*%
X148790000Y-85020000D02*
X150390000Y-85020000D01*
X150390000Y-81820000D01*
X148790000Y-81820000D01*
X148790000Y-85020000D01*
%TO.C,D1*%
X152600000Y-57600000D02*
X155400000Y-57600000D01*
X152600000Y-59400000D02*
X152600000Y-57600000D01*
X153250000Y-58500000D02*
X153650000Y-58500000D01*
X153650000Y-58500000D02*
X153650000Y-57950000D01*
X153650000Y-58500000D02*
X153650000Y-59050000D01*
X153650000Y-58500000D02*
X154250000Y-58100000D01*
X154250000Y-58100000D02*
X154250000Y-58900000D01*
X154250000Y-58500000D02*
X154750000Y-58500000D01*
X154250000Y-58900000D02*
X153650000Y-58500000D01*
X155400000Y-57600000D02*
X155400000Y-59400000D01*
X155400000Y-59400000D02*
X152600000Y-59400000D01*
%TO.C,R2*%
X164390000Y-72820000D02*
X162790000Y-72820000D01*
X162790000Y-76020000D01*
X164390000Y-76020000D01*
X164390000Y-72820000D01*
%TO.C,TR1*%
X102100000Y-100450000D02*
X112100000Y-100450000D01*
X102100000Y-117550000D02*
X102100000Y-100450000D01*
X104100000Y-119450000D02*
X102100000Y-117550000D01*
X112100000Y-100450000D02*
X112100000Y-119450000D01*
X112100000Y-119450000D02*
X104100000Y-119450000D01*
%TO.C,U2*%
X167800000Y-69700000D02*
X183800000Y-69700000D01*
X167800000Y-77700000D02*
X167800000Y-69700000D01*
X167800000Y-78700000D02*
X168300000Y-78200000D01*
X167800000Y-93700000D02*
X167800000Y-78700000D01*
X168300000Y-78200000D02*
X167800000Y-77700000D01*
X183800000Y-69700000D02*
X183800000Y-93700000D01*
X183800000Y-93700000D02*
X167800000Y-93700000D01*
%TO.C,U3*%
X158455000Y-69495000D02*
X157480000Y-70470000D01*
X154555000Y-70470000D01*
X154555000Y-60570000D01*
X158455000Y-60570000D01*
X158455000Y-69495000D01*
%TO.C,J4*%
X216450000Y-87100000D02*
X217050000Y-87100000D01*
X216450000Y-91700000D02*
X216450000Y-87100000D01*
X216550000Y-86100000D02*
X220000000Y-86100000D01*
X216550000Y-86800000D02*
X216550000Y-86100000D01*
X217050000Y-86800000D02*
X216550000Y-86800000D01*
X217050000Y-87100000D02*
X217050000Y-86800000D01*
X220000000Y-91700000D02*
X216450000Y-91700000D01*
X220000000Y-91700000D02*
X223550000Y-91700000D01*
X221750000Y-90992893D02*
X221250000Y-91700000D01*
X222250000Y-91700000D02*
X221750000Y-90992893D01*
X222950000Y-86800000D02*
X223450000Y-86800000D01*
X222950000Y-87100000D02*
X222950000Y-86800000D01*
X223450000Y-86100000D02*
X220000000Y-86100000D01*
X223450000Y-86800000D02*
X223450000Y-86100000D01*
X223550000Y-87100000D02*
X222950000Y-87100000D01*
X223550000Y-91700000D02*
X223550000Y-87100000D01*
%TO.C,J15*%
X133035000Y-103830000D02*
X133035000Y-103190000D01*
X133035000Y-106370000D02*
X133035000Y-105730000D01*
X139035000Y-102240000D02*
X141575000Y-102240000D01*
X139035000Y-103190000D02*
X133035000Y-103190000D01*
X139035000Y-103830000D02*
X133035000Y-103830000D01*
X139035000Y-105730000D02*
X133035000Y-105730000D01*
X139035000Y-106370000D02*
X133035000Y-106370000D01*
X139035000Y-107320000D02*
X139035000Y-102240000D01*
X140940000Y-107320000D02*
X139035000Y-107320000D01*
X141575000Y-102240000D02*
X141575000Y-106685000D01*
X141575000Y-106685000D02*
X140940000Y-107320000D01*
X143395000Y-103190000D02*
X141575000Y-103190000D01*
X143395000Y-103830000D02*
X141575000Y-103830000D01*
X143395000Y-103830000D02*
X143395000Y-103190000D01*
X143395000Y-105730000D02*
X141575000Y-105730000D01*
X143395000Y-106370000D02*
X141575000Y-106370000D01*
X143395000Y-106370000D02*
X143395000Y-105730000D01*
%TO.C,J22*%
X188550000Y-95060000D02*
X188550000Y-95700000D01*
X188550000Y-95060000D02*
X190370000Y-95060000D01*
X188550000Y-95700000D02*
X190370000Y-95700000D01*
X188550000Y-97600000D02*
X188550000Y-98240000D01*
X188550000Y-97600000D02*
X190370000Y-97600000D01*
X188550000Y-98240000D02*
X190370000Y-98240000D01*
X188550000Y-100140000D02*
X188550000Y-100780000D01*
X188550000Y-100140000D02*
X190370000Y-100140000D01*
X188550000Y-100780000D02*
X190370000Y-100780000D01*
X188550000Y-102680000D02*
X188550000Y-103320000D01*
X188550000Y-102680000D02*
X190370000Y-102680000D01*
X188550000Y-103320000D02*
X190370000Y-103320000D01*
X190370000Y-94745000D02*
X191005000Y-94110000D01*
X190370000Y-104270000D02*
X190370000Y-94745000D01*
X191005000Y-94110000D02*
X192910000Y-94110000D01*
X192910000Y-94110000D02*
X192910000Y-104270000D01*
X192910000Y-95060000D02*
X198910000Y-95060000D01*
X192910000Y-95700000D02*
X198910000Y-95700000D01*
X192910000Y-97600000D02*
X198910000Y-97600000D01*
X192910000Y-98240000D02*
X198910000Y-98240000D01*
X192910000Y-100140000D02*
X198910000Y-100140000D01*
X192910000Y-100780000D02*
X198910000Y-100780000D01*
X192910000Y-102680000D02*
X198910000Y-102680000D01*
X192910000Y-103320000D02*
X198910000Y-103320000D01*
X192910000Y-104270000D02*
X190370000Y-104270000D01*
X198910000Y-95060000D02*
X198910000Y-95700000D01*
X198910000Y-97600000D02*
X198910000Y-98240000D01*
X198910000Y-100140000D02*
X198910000Y-100780000D01*
X198910000Y-102680000D02*
X198910000Y-103320000D01*
%TO.C,C2*%
X104700000Y-83200000D02*
X107900000Y-83200000D01*
X107900000Y-84800000D01*
X104700000Y-84800000D01*
X104700000Y-83200000D01*
%TO.C,U4*%
X157090000Y-75045000D02*
X155402500Y-75045000D01*
X155090000Y-74732500D01*
X155090000Y-73795000D01*
X157090000Y-73795000D01*
X157090000Y-75045000D01*
%TO.C,R24*%
X213720000Y-98200000D02*
X215320000Y-98200000D01*
X215320000Y-95000000D01*
X213720000Y-95000000D01*
X213720000Y-98200000D01*
%TO.C,U1*%
X105850000Y-89150000D02*
X105850000Y-92850000D01*
X111550000Y-89150000D02*
X105850000Y-89150000D01*
X111550000Y-89150000D02*
X112550000Y-90150000D01*
X112550000Y-90150000D02*
X112550000Y-92850000D01*
X112550000Y-92850000D02*
X105850000Y-92850000D01*
%TO.C,C3*%
X110300000Y-83200000D02*
X113500000Y-83200000D01*
X113500000Y-84800000D01*
X110300000Y-84800000D01*
X110300000Y-83200000D01*
%TO.C,Q1*%
X157240000Y-102505000D02*
X156915000Y-102830000D01*
X155940000Y-102830000D01*
X155940000Y-99930000D01*
X157240000Y-99930000D01*
X157240000Y-102505000D01*
%TO.C,C10*%
X218320000Y-95000000D02*
X216720000Y-95000000D01*
X216720000Y-98200000D01*
X218320000Y-98200000D01*
X218320000Y-95000000D01*
%TO.C,R11*%
X159290000Y-81820000D02*
X160890000Y-81820000D01*
X159290000Y-85020000D02*
X159290000Y-81820000D01*
X160890000Y-81820000D02*
X160890000Y-85020000D01*
X160890000Y-85020000D02*
X159290000Y-85020000D01*
%TO.C,R23*%
X159290000Y-102980000D02*
X160890000Y-102980000D01*
X160890000Y-99780000D01*
X159290000Y-99780000D01*
X159290000Y-102980000D01*
%TO.C,R20*%
X195800000Y-88400000D02*
X194200000Y-88400000D01*
X194200000Y-91600000D01*
X195800000Y-91600000D01*
X195800000Y-88400000D01*
%TO.C,J3*%
X107000000Y-121750000D02*
X106050000Y-120250000D01*
X107950000Y-120250000D02*
X107000000Y-121750000D01*
X103500000Y-120250000D02*
X115500000Y-120250000D01*
X115500000Y-132250000D01*
X103500000Y-132250000D01*
X103500000Y-120250000D01*
%TO.C,BZ1*%
X142035000Y-88975000D02*
X142035000Y-97975000D01*
X142035000Y-97975000D02*
X151035000Y-97975000D01*
X150035000Y-88975000D02*
X142035000Y-88975000D01*
X151035000Y-89975000D02*
X150035000Y-88975000D01*
X151035000Y-97975000D02*
X151035000Y-89975000D01*
%TO.C,D2*%
X110565000Y-65160000D02*
X113365000Y-65160000D01*
X110565000Y-66960000D02*
X110565000Y-65160000D01*
X111215000Y-66060000D02*
X111615000Y-66060000D01*
X111615000Y-66060000D02*
X111615000Y-65510000D01*
X111615000Y-66060000D02*
X111615000Y-66610000D01*
X111615000Y-66060000D02*
X112215000Y-65660000D01*
X112215000Y-65660000D02*
X112215000Y-66460000D01*
X112215000Y-66060000D02*
X112715000Y-66060000D01*
X112215000Y-66460000D02*
X111615000Y-66060000D01*
X113365000Y-65160000D02*
X113365000Y-66960000D01*
X113365000Y-66960000D02*
X110565000Y-66960000D01*
%TO.C,R14*%
X166290000Y-99780000D02*
X167890000Y-99780000D01*
X166290000Y-102980000D02*
X166290000Y-99780000D01*
X167890000Y-99780000D02*
X167890000Y-102980000D01*
X167890000Y-102980000D02*
X166290000Y-102980000D01*
%TO.C,C4*%
X110378972Y-80258500D02*
X110378972Y-79628500D01*
X110693972Y-79943500D02*
X110063972Y-79943500D01*
X111150000Y-78570000D02*
G75*
G02*
X104850000Y-78570000I-3150000J0D01*
G01*
X104850000Y-78570000D02*
G75*
G02*
X111150000Y-78570000I3150000J0D01*
G01*
%TO.C,R9*%
X152290000Y-81820000D02*
X153890000Y-81820000D01*
X152290000Y-85020000D02*
X152290000Y-81820000D01*
X153890000Y-81820000D02*
X153890000Y-85020000D01*
X153890000Y-85020000D02*
X152290000Y-85020000D01*
D11*
%TO.C,J10*%
X111830000Y-68710000D02*
X114370000Y-68710000D01*
X111830000Y-76330000D02*
X111830000Y-68710000D01*
X113735000Y-76330000D02*
X111830000Y-76330000D01*
X114370000Y-68710000D02*
X114370000Y-75695000D01*
X114370000Y-75695000D02*
X113735000Y-76330000D01*
%TO.C,R21*%
D10*
X145290000Y-85020000D02*
X146890000Y-85020000D01*
X146890000Y-81820000D01*
X145290000Y-81820000D01*
X145290000Y-85020000D01*
%TO.C,C8*%
X148790000Y-70020000D02*
X150390000Y-70020000D01*
X150390000Y-66820000D01*
X148790000Y-66820000D01*
X148790000Y-70020000D01*
%TO.C,LD1*%
X219200000Y-105400000D02*
X219200000Y-108600000D01*
X219200000Y-108600000D02*
X220800000Y-108600000D01*
X220400000Y-105400000D02*
X219200000Y-105400000D01*
X220800000Y-105800000D02*
X220400000Y-105400000D01*
X220800000Y-108600000D02*
X220800000Y-105800000D01*
D11*
%TO.C,J11*%
X133060000Y-70300000D02*
X133060000Y-69660000D01*
X133060000Y-72840000D02*
X133060000Y-72200000D01*
X133060000Y-75380000D02*
X133060000Y-74740000D01*
X139060000Y-68710000D02*
X141600000Y-68710000D01*
X139060000Y-69660000D02*
X133060000Y-69660000D01*
X139060000Y-70300000D02*
X133060000Y-70300000D01*
X139060000Y-72200000D02*
X133060000Y-72200000D01*
X139060000Y-72840000D02*
X133060000Y-72840000D01*
X139060000Y-74740000D02*
X133060000Y-74740000D01*
X139060000Y-75380000D02*
X133060000Y-75380000D01*
X139060000Y-76330000D02*
X139060000Y-68710000D01*
X140965000Y-76330000D02*
X139060000Y-76330000D01*
X141600000Y-68710000D02*
X141600000Y-75695000D01*
X141600000Y-75695000D02*
X140965000Y-76330000D01*
X143420000Y-69660000D02*
X141600000Y-69660000D01*
X143420000Y-70300000D02*
X141600000Y-70300000D01*
X143420000Y-70300000D02*
X143420000Y-69660000D01*
X143420000Y-72200000D02*
X141600000Y-72200000D01*
X143420000Y-72840000D02*
X141600000Y-72840000D01*
X143420000Y-72840000D02*
X143420000Y-72200000D01*
X143420000Y-74740000D02*
X141600000Y-74740000D01*
X143420000Y-75380000D02*
X141600000Y-75380000D01*
X143420000Y-75380000D02*
X143420000Y-74740000D01*
D10*
%TO.C,SW1*%
X213900000Y-104800000D02*
X217100000Y-104800000D01*
X213900000Y-108500000D02*
X214400000Y-109000000D01*
X213900000Y-109000000D02*
X213900000Y-104800000D01*
X214400000Y-104800000D02*
X213900000Y-105300000D01*
X214400000Y-107700000D02*
X214400000Y-106000000D01*
X216600000Y-104800000D02*
X217100000Y-105300000D01*
X216600000Y-106000000D02*
X216600000Y-107700000D01*
X217100000Y-104800000D02*
X217100000Y-109000000D01*
X217100000Y-108500000D02*
X216600000Y-109000000D01*
X217100000Y-109000000D02*
X213900000Y-109000000D01*
X214400001Y-106000000D02*
G75*
G02*
X216599999Y-106000000I1099999J-799998D01*
G01*
X216599999Y-107700000D02*
G75*
G02*
X214400001Y-107699999I-1099999J700000D01*
G01*
%TO.C,R10*%
X191200000Y-91600000D02*
X192800000Y-91600000D01*
X192800000Y-88400000D01*
X191200000Y-88400000D01*
X191200000Y-91600000D01*
%TO.C,R5*%
X219720000Y-95000000D02*
X221320000Y-95000000D01*
X219720000Y-98200000D02*
X219720000Y-95000000D01*
X221320000Y-95000000D02*
X221320000Y-98200000D01*
X221320000Y-98200000D02*
X219720000Y-98200000D01*
%TO.C,R4*%
X155790000Y-94020000D02*
X157390000Y-94020000D01*
X157390000Y-90820000D01*
X155790000Y-90820000D01*
X155790000Y-94020000D01*
%TO.C,R3*%
X153890000Y-90820000D02*
X152290000Y-90820000D01*
X152290000Y-94020000D01*
X153890000Y-94020000D01*
X153890000Y-90820000D01*
%TO.C,C14*%
X171390000Y-99780000D02*
X169790000Y-99780000D01*
X169790000Y-102980000D01*
X171390000Y-102980000D01*
X171390000Y-99780000D01*
%TO.C,R8*%
X148790000Y-73820000D02*
X150390000Y-73820000D01*
X148790000Y-77020000D02*
X148790000Y-73820000D01*
X150390000Y-73820000D02*
X150390000Y-77020000D01*
X150390000Y-77020000D02*
X148790000Y-77020000D01*
%TO.C,J1*%
X111050000Y-62750000D02*
X112000000Y-61250000D01*
X112000000Y-61250000D02*
X112950000Y-62750000D01*
X115500000Y-62750000D02*
X103500000Y-62750000D01*
X103500000Y-50750000D01*
X115500000Y-50750000D01*
X115500000Y-62750000D01*
%TO.C,C7*%
X145290000Y-70020000D02*
X146890000Y-70020000D01*
X146890000Y-66820000D01*
X145290000Y-66820000D01*
X145290000Y-70020000D01*
%TO.C,R15*%
X162790000Y-81820000D02*
X164390000Y-81820000D01*
X162790000Y-85020000D02*
X162790000Y-81820000D01*
X164390000Y-81820000D02*
X164390000Y-85020000D01*
X164390000Y-85020000D02*
X162790000Y-85020000D01*
%TO.C,J2*%
X156400000Y-50700000D02*
X156400000Y-56250000D01*
X161200000Y-56600000D02*
X161400000Y-56400000D01*
X161200000Y-56810000D02*
X161200000Y-56600000D01*
X161400000Y-56400000D02*
X161600000Y-56600000D01*
X161600000Y-56810000D02*
X161200000Y-56810000D01*
X161600000Y-56810000D02*
X161600000Y-56600000D01*
X163100000Y-52000000D02*
X157100000Y-52000000D01*
X163800000Y-50700000D02*
X156400000Y-50700000D01*
X163800000Y-50700000D02*
X163800000Y-56250000D01*
X163800000Y-56250000D02*
X156400000Y-56250000D01*
%TO.C,TH1*%
X105365000Y-65260000D02*
X108565000Y-65260000D01*
X108565000Y-66860000D01*
X105365000Y-66860000D01*
X105365000Y-65260000D01*
%TO.C,R12*%
X155790000Y-81820000D02*
X157390000Y-81820000D01*
X155790000Y-85020000D02*
X155790000Y-81820000D01*
X157390000Y-81820000D02*
X157390000Y-85020000D01*
X157390000Y-85020000D02*
X155790000Y-85020000D01*
%TO.C,R13*%
X162790000Y-99780000D02*
X164390000Y-99780000D01*
X162790000Y-102980000D02*
X162790000Y-99780000D01*
X164390000Y-99780000D02*
X164390000Y-102980000D01*
X164390000Y-102980000D02*
X162790000Y-102980000D01*
%TO.C,J20*%
X188550000Y-74020000D02*
X188550000Y-74660000D01*
X188550000Y-74020000D02*
X190370000Y-74020000D01*
X188550000Y-74660000D02*
X190370000Y-74660000D01*
X188550000Y-76560000D02*
X188550000Y-77200000D01*
X188550000Y-76560000D02*
X190370000Y-76560000D01*
X188550000Y-77200000D02*
X190370000Y-77200000D01*
X188550000Y-79100000D02*
X188550000Y-79740000D01*
X188550000Y-79100000D02*
X190370000Y-79100000D01*
X188550000Y-79740000D02*
X190370000Y-79740000D01*
X188550000Y-81640000D02*
X188550000Y-82280000D01*
X188550000Y-81640000D02*
X190370000Y-81640000D01*
X188550000Y-82280000D02*
X190370000Y-82280000D01*
X188550000Y-84180000D02*
X188550000Y-84820000D01*
X188550000Y-84180000D02*
X190370000Y-84180000D01*
X188550000Y-84820000D02*
X190370000Y-84820000D01*
X190370000Y-73705000D02*
X191005000Y-73070000D01*
X190370000Y-85770000D02*
X190370000Y-73705000D01*
X191005000Y-73070000D02*
X192910000Y-73070000D01*
X192910000Y-73070000D02*
X192910000Y-85770000D01*
X192910000Y-74020000D02*
X198910000Y-74020000D01*
X192910000Y-74660000D02*
X198910000Y-74660000D01*
X192910000Y-76560000D02*
X198910000Y-76560000D01*
X192910000Y-77200000D02*
X198910000Y-77200000D01*
X192910000Y-79100000D02*
X198910000Y-79100000D01*
X192910000Y-79740000D02*
X198910000Y-79740000D01*
X192910000Y-81640000D02*
X198910000Y-81640000D01*
X192910000Y-82280000D02*
X198910000Y-82280000D01*
X192910000Y-84180000D02*
X198910000Y-84180000D01*
X192910000Y-84820000D02*
X198910000Y-84820000D01*
X192910000Y-85770000D02*
X190370000Y-85770000D01*
X198910000Y-74020000D02*
X198910000Y-74660000D01*
X198910000Y-76560000D02*
X198910000Y-77200000D01*
X198910000Y-79100000D02*
X198910000Y-79740000D01*
X198910000Y-81640000D02*
X198910000Y-82280000D01*
X198910000Y-84180000D02*
X198910000Y-84820000D01*
%TO.C,C6*%
X159290000Y-94020000D02*
X160890000Y-94020000D01*
X160890000Y-90820000D01*
X159290000Y-90820000D01*
X159290000Y-94020000D01*
%TO.C,U6*%
X184690000Y-107045000D02*
X175390000Y-107045000D01*
X174390000Y-106045000D01*
X174390000Y-99545000D01*
X184690000Y-99545000D01*
X184690000Y-107045000D01*
%TO.C,C1*%
X105306028Y-70476500D02*
X105936028Y-70476500D01*
X105621028Y-70161500D02*
X105621028Y-70791500D01*
X111150000Y-71850000D02*
G75*
G02*
X104850000Y-71850000I-3150000J0D01*
G01*
X104850000Y-71850000D02*
G75*
G02*
X111150000Y-71850000I3150000J0D01*
G01*
%TO.C,SW2*%
X222900000Y-104800000D02*
X226100000Y-104800000D01*
X222900000Y-105300000D02*
X223400000Y-104800000D01*
X222900000Y-109000000D02*
X222900000Y-104800000D01*
X223400000Y-107800000D02*
X223400000Y-106100000D01*
X223400000Y-109000000D02*
X222900000Y-108500000D01*
X225600000Y-106100000D02*
X225600000Y-107800000D01*
X225600000Y-109000000D02*
X226100000Y-108500000D01*
X226100000Y-104800000D02*
X226100000Y-109000000D01*
X226100000Y-105300000D02*
X225600000Y-104800000D01*
X226100000Y-109000000D02*
X222900000Y-109000000D01*
X223400001Y-106100000D02*
G75*
G02*
X225599999Y-106100001I1099999J-700000D01*
G01*
X225599999Y-107800000D02*
G75*
G02*
X223400001Y-107800000I-1099999J799998D01*
G01*
%TO.C,J5*%
X164290000Y-117975000D02*
X165290000Y-117975000D01*
X164290000Y-129175000D02*
X164290000Y-117975000D01*
X165490000Y-129175000D02*
X164290000Y-129175000D01*
X165490000Y-131975000D02*
X165490000Y-129175000D01*
X166890000Y-117975000D02*
X171390000Y-117975000D01*
X171090000Y-129175000D02*
X171090000Y-131975000D01*
X171090000Y-131975000D02*
X165490000Y-131975000D01*
X171390000Y-117975000D02*
X171390000Y-129175000D01*
X171390000Y-129175000D02*
X171090000Y-129175000D01*
X170025410Y-119975000D02*
G75*
G02*
X169354590Y-119975000I-335410J0D01*
G01*
X169354590Y-119975000D02*
G75*
G02*
X170025410Y-119975000I335410J0D01*
G01*
%TO.C,R1*%
X159290000Y-72820000D02*
X160890000Y-72820000D01*
X159290000Y-76020000D02*
X159290000Y-72820000D01*
X160890000Y-72820000D02*
X160890000Y-76020000D01*
X160890000Y-76020000D02*
X159290000Y-76020000D01*
%TO.C,C9*%
X162790000Y-67020000D02*
X164390000Y-67020000D01*
X164390000Y-63820000D01*
X162790000Y-63820000D01*
X162790000Y-67020000D01*
%TO.C,J14*%
X111805000Y-102240000D02*
X114345000Y-102240000D01*
X111805000Y-107320000D02*
X111805000Y-102240000D01*
X113710000Y-107320000D02*
X111805000Y-107320000D01*
X114345000Y-102240000D02*
X114345000Y-106685000D01*
X114345000Y-106685000D02*
X113710000Y-107320000D01*
%TD*%
M02*
