M48
; DRILL file {KiCad 9.0.8-9.0.8~ubuntu24.04.1} date 2026-05-30T17:12:59+0200
; FORMAT={-:-/ absolute / metric / decimal}
; #@! TF.CreationDate,2026-05-30T17:12:59+02:00
; #@! TF.GenerationSoftware,Kicad,Pcbnew,9.0.8-9.0.8~ubuntu24.04.1
; #@! TF.FileFunction,Plated,1,2,PTH
FMAT,2
METRIC
; #@! TA.AperFunction,Plated,PTH,ComponentDrill
T1C0.450
; #@! TA.AperFunction,Plated,PTH,ViaDrill
T2C0.500
; #@! TA.AperFunction,Plated,PTH,ViaDrill
T3C0.600
; #@! TA.AperFunction,Plated,PTH,ComponentDrill
T4C0.600
; #@! TA.AperFunction,Plated,PTH,ComponentDrill
T5C0.800
; #@! TA.AperFunction,Plated,PTH,ViaDrill
T6C1.000
; #@! TA.AperFunction,Plated,PTH,ComponentDrill
T7C1.000
; #@! TA.AperFunction,Plated,PTH,ComponentDrill
T8C1.200
; #@! TA.AperFunction,Plated,PTH,ComponentDrill
T9C1.400
%
G90
G05
T2
X146.09Y-65.358
X146.535Y-91.475
X146.535Y-99.475
X149.59Y-65.358
X149.59Y-72.37
X149.59Y-80.37
X151.0Y-114.5
X153.09Y-80.37
X153.09Y-111.345
X153.135Y-126.57
X153.2Y-129.0
X154.03Y-71.065
X154.3Y-78.2
X155.025Y-53.45
X155.24Y-77.007
X155.69Y-71.8
X156.28Y-55.68
X156.49Y-77.007
X156.59Y-95.7
X156.59Y-111.358
X156.635Y-123.482
X156.94Y-71.8
X158.9Y-78.2
X158.98Y-70.965
X160.09Y-89.358
X160.69Y-122.3
X160.9Y-129.0
X161.4Y-77.2
X161.8Y-98.3
X162.9Y-126.5
X163.59Y-62.357
X163.59Y-68.483
X163.59Y-83.17
X163.59Y-89.358
X163.59Y-104.43
X163.92Y-55.68
X164.9Y-77.1
X165.1Y-123.9
X165.175Y-53.45
X167.09Y-104.43
X168.09Y-111.37
X170.2Y-84.2
X170.2Y-86.2
X170.2Y-90.2
X170.59Y-104.442
X171.59Y-111.358
X172.52Y-95.5
X176.365Y-105.945
X177.635Y-96.7
X177.635Y-105.945
X179.7Y-84.2
X179.7Y-89.0
X180.5Y-91.6
X181.0Y-78.2
X181.0Y-80.2
X181.0Y-82.2
X181.2Y-90.4
X183.985Y-105.945
X186.0Y-88.8
X186.5Y-96.6
X192.0Y-86.9
X195.0Y-86.95
X195.0Y-93.05
T3
X104.0Y-90.5
X104.0Y-92.0
X104.0Y-93.5
X104.0Y-95.0
X104.0Y-96.5
X104.0Y-98.0
X105.5Y-90.5
X105.5Y-92.0
X105.5Y-93.5
X105.5Y-95.0
X105.5Y-96.5
X105.5Y-98.0
X107.0Y-90.5
X107.0Y-92.0
X107.0Y-96.5
X107.0Y-98.0
X107.862Y-82.0
X108.5Y-90.5
X108.5Y-92.0
X108.5Y-96.5
X108.5Y-98.0
X110.0Y-90.5
X110.0Y-92.0
X110.0Y-96.5
X110.0Y-98.0
X111.5Y-90.5
X111.5Y-92.0
X111.5Y-96.5
X111.5Y-98.0
X113.0Y-90.5
X113.0Y-92.0
X113.0Y-93.5
X113.0Y-95.0
X113.0Y-96.5
X113.0Y-98.0
X113.2Y-87.85
X113.462Y-82.0
X114.5Y-90.5
X114.5Y-92.0
X114.5Y-93.5
X114.5Y-95.0
X114.5Y-96.5
X114.5Y-98.0
X156.9Y-58.5
X161.4Y-58.5
X183.4Y-93.7
T5
X106.75Y-71.85
X106.75Y-78.57
X109.25Y-71.85
X109.25Y-78.57
T6
X107.0Y-128.77
T7
X113.075Y-103.51
X113.075Y-106.05
X113.1Y-69.98
X113.1Y-72.52
X113.1Y-75.06
X143.075Y-103.51
X143.075Y-106.05
X143.1Y-69.98
X143.1Y-72.52
X143.1Y-75.06
X188.87Y-74.34
X188.87Y-76.88
X188.87Y-79.42
X188.87Y-81.96
X188.87Y-84.5
X188.87Y-95.38
X188.87Y-97.92
X188.87Y-100.46
X188.87Y-103.0
X223.6Y-74.34
X223.6Y-76.88
X223.6Y-79.42
X223.6Y-81.96
X223.6Y-84.5
X223.6Y-95.38
X223.6Y-97.92
X223.6Y-100.46
X223.6Y-103.0
T8
X103.484Y-101.766
X103.484Y-118.066
X110.684Y-101.766
X110.684Y-118.066
T9
X107.0Y-60.75
X107.0Y-122.25
X112.0Y-60.75
X112.0Y-122.25
T1
X156.525Y-53.85G85X156.525Y-53.05
G05
X163.675Y-53.05G85X163.675Y-53.85
G05
T4
X165.09Y-127.275G85X165.09Y-126.675
G05
X166.09Y-118.775G85X166.09Y-118.175
G05
X170.59Y-120.275G85X170.59Y-119.675
G05
X170.59Y-124.275G85X170.59Y-123.675
G05
X170.59Y-127.275G85X170.59Y-126.675
G05
M30
