G04 This is an RS-274x file exported by *
G04 gerbv version  *
G04 More information is available about gerbv at *
G04 https://gerbv.github.io/ *
G04 --End of header info--*
%MOIN*%
%FSLAX36Y36*%
%IPPOS*%
G04 --Define apertures--*
%ADD10C,0.0059*%
%ADD11C,0.0047*%
%ADD12C,0.0079*%
%ADD13C,0.0039*%
%ADD14C,0.0000*%
G04 --Start main section--*
G54D10*
G01X8921839Y-3535860D02*
G01X8924651Y-3530236D01*
G01X8924651Y-3530236D02*
G01X8924651Y-3520862D01*
G01X8924651Y-3520862D02*
G01X8921839Y-3517112D01*
G01X8921839Y-3517112D02*
G01X8919026Y-3515237D01*
G01X8919026Y-3515237D02*
G01X8913402Y-3513363D01*
G01X8913402Y-3513363D02*
G01X8907778Y-3513363D01*
G01X8907778Y-3513363D02*
G01X8902154Y-3515237D01*
G01X8902154Y-3515237D02*
G01X8899341Y-3517112D01*
G01X8899341Y-3517112D02*
G01X8896529Y-3520862D01*
G01X8896529Y-3520862D02*
G01X8893717Y-3528361D01*
G01X8893717Y-3528361D02*
G01X8890905Y-3532110D01*
G01X8890905Y-3532110D02*
G01X8888093Y-3533985D01*
G01X8888093Y-3533985D02*
G01X8882469Y-3535860D01*
G01X8882469Y-3535860D02*
G01X8876844Y-3535860D01*
G01X8876844Y-3535860D02*
G01X8871220Y-3533985D01*
G01X8871220Y-3533985D02*
G01X8868408Y-3532110D01*
G01X8868408Y-3532110D02*
G01X8865596Y-3528361D01*
G01X8865596Y-3528361D02*
G01X8865596Y-3518987D01*
G01X8865596Y-3518987D02*
G01X8868408Y-3513363D01*
G01X8921839Y-3479617D02*
G01X8924651Y-3483366D01*
G01X8924651Y-3483366D02*
G01X8924651Y-3490865D01*
G01X8924651Y-3490865D02*
G01X8921839Y-3494615D01*
G01X8921839Y-3494615D02*
G01X8919026Y-3496490D01*
G01X8919026Y-3496490D02*
G01X8913402Y-3498364D01*
G01X8913402Y-3498364D02*
G01X8896529Y-3498364D01*
G01X8896529Y-3498364D02*
G01X8890905Y-3496490D01*
G01X8890905Y-3496490D02*
G01X8888093Y-3494615D01*
G01X8888093Y-3494615D02*
G01X8885281Y-3490865D01*
G01X8885281Y-3490865D02*
G01X8885281Y-3483366D01*
G01X8885281Y-3483366D02*
G01X8888093Y-3479617D01*
G01X8924651Y-3462744D02*
G01X8865596Y-3462744D01*
G01X8924651Y-3445871D02*
G01X8893717Y-3445871D01*
G01X8893717Y-3445871D02*
G01X8888093Y-3447746D01*
G01X8888093Y-3447746D02*
G01X8885281Y-3451495D01*
G01X8885281Y-3451495D02*
G01X8885281Y-3457120D01*
G01X8885281Y-3457120D02*
G01X8888093Y-3460869D01*
G01X8888093Y-3460869D02*
G01X8890905Y-3462744D01*
G01X8919026Y-3427123D02*
G01X8921839Y-3425249D01*
G01X8921839Y-3425249D02*
G01X8924651Y-3427123D01*
G01X8924651Y-3427123D02*
G01X8921839Y-3428998D01*
G01X8921839Y-3428998D02*
G01X8919026Y-3427123D01*
G01X8919026Y-3427123D02*
G01X8924651Y-3427123D01*
G01X8924651Y-3387753D02*
G01X8924651Y-3410251D01*
G01X8924651Y-3399002D02*
G01X8865596Y-3399002D01*
G01X8865596Y-3399002D02*
G01X8874032Y-3402751D01*
G01X8874032Y-3402751D02*
G01X8879656Y-3406501D01*
G01X8879656Y-3406501D02*
G01X8882469Y-3410251D01*
G01X8885281Y-3354008D02*
G01X8924651Y-3354008D01*
G01X8862783Y-3363381D02*
G01X8904966Y-3372755D01*
G01X8904966Y-3372755D02*
G01X8904966Y-3348383D01*
G01X8924651Y-3280892D02*
G01X8896529Y-3294015D01*
G01X8924651Y-3303389D02*
G01X8865596Y-3303389D01*
G01X8865596Y-3303389D02*
G01X8865596Y-3288391D01*
G01X8865596Y-3288391D02*
G01X8868408Y-3284641D01*
G01X8868408Y-3284641D02*
G01X8871220Y-3282766D01*
G01X8871220Y-3282766D02*
G01X8876844Y-3280892D01*
G01X8876844Y-3280892D02*
G01X8885281Y-3280892D01*
G01X8885281Y-3280892D02*
G01X8890905Y-3282766D01*
G01X8890905Y-3282766D02*
G01X8893717Y-3284641D01*
G01X8893717Y-3284641D02*
G01X8896529Y-3288391D01*
G01X8896529Y-3288391D02*
G01X8896529Y-3303389D01*
G01X8919026Y-3264019D02*
G01X8921839Y-3262144D01*
G01X8921839Y-3262144D02*
G01X8924651Y-3264019D01*
G01X8924651Y-3264019D02*
G01X8921839Y-3265894D01*
G01X8921839Y-3265894D02*
G01X8919026Y-3264019D01*
G01X8919026Y-3264019D02*
G01X8924651Y-3264019D01*
G01X8865596Y-3237772D02*
G01X8865596Y-3234023D01*
G01X8865596Y-3234023D02*
G01X8868408Y-3230273D01*
G01X8868408Y-3230273D02*
G01X8871220Y-3228398D01*
G01X8871220Y-3228398D02*
G01X8876844Y-3226524D01*
G01X8876844Y-3226524D02*
G01X8888093Y-3224649D01*
G01X8888093Y-3224649D02*
G01X8902154Y-3224649D01*
G01X8902154Y-3224649D02*
G01X8913402Y-3226524D01*
G01X8913402Y-3226524D02*
G01X8919026Y-3228398D01*
G01X8919026Y-3228398D02*
G01X8921839Y-3230273D01*
G01X8921839Y-3230273D02*
G01X8924651Y-3234023D01*
G01X8924651Y-3234023D02*
G01X8924651Y-3237772D01*
G01X8924651Y-3237772D02*
G01X8921839Y-3241522D01*
G01X8921839Y-3241522D02*
G01X8919026Y-3243396D01*
G01X8919026Y-3243396D02*
G01X8913402Y-3245271D01*
G01X8913402Y-3245271D02*
G01X8902154Y-3247146D01*
G01X8902154Y-3247146D02*
G01X8888093Y-3247146D01*
G01X8888093Y-3247146D02*
G01X8876844Y-3245271D01*
G01X8876844Y-3245271D02*
G01X8871220Y-3243396D01*
G01X8871220Y-3243396D02*
G01X8868408Y-3241522D01*
G01X8868408Y-3241522D02*
G01X8865596Y-3237772D01*
G01X8924651Y-3187153D02*
G01X8924651Y-3209651D01*
G01X8924651Y-3198402D02*
G01X8865596Y-3198402D01*
G01X8865596Y-3198402D02*
G01X8874032Y-3202152D01*
G01X8874032Y-3202152D02*
G01X8879656Y-3205901D01*
G01X8879656Y-3205901D02*
G01X8882469Y-3209651D01*
G01X8865596Y-3102789D02*
G01X8865596Y-3099039D01*
G01X8865596Y-3099039D02*
G01X8868408Y-3095290D01*
G01X8868408Y-3095290D02*
G01X8871220Y-3093415D01*
G01X8871220Y-3093415D02*
G01X8876844Y-3091540D01*
G01X8876844Y-3091540D02*
G01X8888093Y-3089666D01*
G01X8888093Y-3089666D02*
G01X8902154Y-3089666D01*
G01X8902154Y-3089666D02*
G01X8913402Y-3091540D01*
G01X8913402Y-3091540D02*
G01X8919026Y-3093415D01*
G01X8919026Y-3093415D02*
G01X8921839Y-3095290D01*
G01X8921839Y-3095290D02*
G01X8924651Y-3099039D01*
G01X8924651Y-3099039D02*
G01X8924651Y-3102789D01*
G01X8924651Y-3102789D02*
G01X8921839Y-3106538D01*
G01X8921839Y-3106538D02*
G01X8919026Y-3108413D01*
G01X8919026Y-3108413D02*
G01X8913402Y-3110288D01*
G01X8913402Y-3110288D02*
G01X8902154Y-3112163D01*
G01X8902154Y-3112163D02*
G01X8888093Y-3112163D01*
G01X8888093Y-3112163D02*
G01X8876844Y-3110288D01*
G01X8876844Y-3110288D02*
G01X8871220Y-3108413D01*
G01X8871220Y-3108413D02*
G01X8868408Y-3106538D01*
G01X8868408Y-3106538D02*
G01X8865596Y-3102789D01*
G01X8865596Y-3055920D02*
G01X8865596Y-3063419D01*
G01X8865596Y-3063419D02*
G01X8868408Y-3067168D01*
G01X8868408Y-3067168D02*
G01X8871220Y-3069043D01*
G01X8871220Y-3069043D02*
G01X8879656Y-3072793D01*
G01X8879656Y-3072793D02*
G01X8890905Y-3074667D01*
G01X8890905Y-3074667D02*
G01X8913402Y-3074667D01*
G01X8913402Y-3074667D02*
G01X8919026Y-3072793D01*
G01X8919026Y-3072793D02*
G01X8921839Y-3070918D01*
G01X8921839Y-3070918D02*
G01X8924651Y-3067168D01*
G01X8924651Y-3067168D02*
G01X8924651Y-3059669D01*
G01X8924651Y-3059669D02*
G01X8921839Y-3055920D01*
G01X8921839Y-3055920D02*
G01X8919026Y-3054045D01*
G01X8919026Y-3054045D02*
G01X8913402Y-3052170D01*
G01X8913402Y-3052170D02*
G01X8899341Y-3052170D01*
G01X8899341Y-3052170D02*
G01X8893717Y-3054045D01*
G01X8893717Y-3054045D02*
G01X8890905Y-3055920D01*
G01X8890905Y-3055920D02*
G01X8888093Y-3059669D01*
G01X8888093Y-3059669D02*
G01X8888093Y-3067168D01*
G01X8888093Y-3067168D02*
G01X8890905Y-3070918D01*
G01X8890905Y-3070918D02*
G01X8893717Y-3072793D01*
G01X8893717Y-3072793D02*
G01X8899341Y-3074667D01*
G01X8862783Y-3007176D02*
G01X8938711Y-3040922D01*
G01X8871220Y-2995927D02*
G01X8868408Y-2994053D01*
G01X8868408Y-2994053D02*
G01X8865596Y-2990303D01*
G01X8865596Y-2990303D02*
G01X8865596Y-2980929D01*
G01X8865596Y-2980929D02*
G01X8868408Y-2977180D01*
G01X8868408Y-2977180D02*
G01X8871220Y-2975305D01*
G01X8871220Y-2975305D02*
G01X8876844Y-2973430D01*
G01X8876844Y-2973430D02*
G01X8882469Y-2973430D01*
G01X8882469Y-2973430D02*
G01X8890905Y-2975305D01*
G01X8890905Y-2975305D02*
G01X8924651Y-2997802D01*
G01X8924651Y-2997802D02*
G01X8924651Y-2973430D01*
G01X8865596Y-2949058D02*
G01X8865596Y-2945309D01*
G01X8865596Y-2945309D02*
G01X8868408Y-2941559D01*
G01X8868408Y-2941559D02*
G01X8871220Y-2939684D01*
G01X8871220Y-2939684D02*
G01X8876844Y-2937810D01*
G01X8876844Y-2937810D02*
G01X8888093Y-2935935D01*
G01X8888093Y-2935935D02*
G01X8902154Y-2935935D01*
G01X8902154Y-2935935D02*
G01X8913402Y-2937810D01*
G01X8913402Y-2937810D02*
G01X8919026Y-2939684D01*
G01X8919026Y-2939684D02*
G01X8921839Y-2941559D01*
G01X8921839Y-2941559D02*
G01X8924651Y-2945309D01*
G01X8924651Y-2945309D02*
G01X8924651Y-2949058D01*
G01X8924651Y-2949058D02*
G01X8921839Y-2952808D01*
G01X8921839Y-2952808D02*
G01X8919026Y-2954682D01*
G01X8919026Y-2954682D02*
G01X8913402Y-2956557D01*
G01X8913402Y-2956557D02*
G01X8902154Y-2958432D01*
G01X8902154Y-2958432D02*
G01X8888093Y-2958432D01*
G01X8888093Y-2958432D02*
G01X8876844Y-2956557D01*
G01X8876844Y-2956557D02*
G01X8871220Y-2954682D01*
G01X8871220Y-2954682D02*
G01X8868408Y-2952808D01*
G01X8868408Y-2952808D02*
G01X8865596Y-2949058D01*
G01X8871220Y-2920937D02*
G01X8868408Y-2919062D01*
G01X8868408Y-2919062D02*
G01X8865596Y-2915312D01*
G01X8865596Y-2915312D02*
G01X8865596Y-2905939D01*
G01X8865596Y-2905939D02*
G01X8868408Y-2902189D01*
G01X8868408Y-2902189D02*
G01X8871220Y-2900314D01*
G01X8871220Y-2900314D02*
G01X8876844Y-2898439D01*
G01X8876844Y-2898439D02*
G01X8882469Y-2898439D01*
G01X8882469Y-2898439D02*
G01X8890905Y-2900314D01*
G01X8890905Y-2900314D02*
G01X8924651Y-2922811D01*
G01X8924651Y-2922811D02*
G01X8924651Y-2898439D01*
G01X8865596Y-2864694D02*
G01X8865596Y-2872193D01*
G01X8865596Y-2872193D02*
G01X8868408Y-2875942D01*
G01X8868408Y-2875942D02*
G01X8871220Y-2877817D01*
G01X8871220Y-2877817D02*
G01X8879656Y-2881567D01*
G01X8879656Y-2881567D02*
G01X8890905Y-2883441D01*
G01X8890905Y-2883441D02*
G01X8913402Y-2883441D01*
G01X8913402Y-2883441D02*
G01X8919026Y-2881567D01*
G01X8919026Y-2881567D02*
G01X8921839Y-2879692D01*
G01X8921839Y-2879692D02*
G01X8924651Y-2875942D01*
G01X8924651Y-2875942D02*
G01X8924651Y-2868443D01*
G01X8924651Y-2868443D02*
G01X8921839Y-2864694D01*
G01X8921839Y-2864694D02*
G01X8919026Y-2862819D01*
G01X8919026Y-2862819D02*
G01X8913402Y-2860944D01*
G01X8913402Y-2860944D02*
G01X8899341Y-2860944D01*
G01X8899341Y-2860944D02*
G01X8893717Y-2862819D01*
G01X8893717Y-2862819D02*
G01X8890905Y-2864694D01*
G01X8890905Y-2864694D02*
G01X8888093Y-2868443D01*
G01X8888093Y-2868443D02*
G01X8888093Y-2875942D01*
G01X8888093Y-2875942D02*
G01X8890905Y-2879692D01*
G01X8890905Y-2879692D02*
G01X8893717Y-2881567D01*
G01X8893717Y-2881567D02*
G01X8899341Y-2883441D01*
G01X8458005Y-3596646D02*
G01X8458005Y-3624768D01*
G01X8458005Y-3624768D02*
G01X8456505Y-3630392D01*
G01X8456505Y-3630392D02*
G01X8453506Y-3634142D01*
G01X8453506Y-3634142D02*
G01X8449006Y-3636016D01*
G01X8449006Y-3636016D02*
G01X8446007Y-3636016D01*
G01X8486502Y-3609770D02*
G01X8486502Y-3636016D01*
G01X8479003Y-3594772D02*
G01X8471504Y-3622893D01*
G01X8471504Y-3622893D02*
G01X8491001Y-3622893D01*
G01X8466331Y-3969066D02*
G01X8447584Y-3979565D01*
G01X8466331Y-3987064D02*
G01X8426961Y-3987064D01*
G01X8426961Y-3987064D02*
G01X8426961Y-3975066D01*
G01X8426961Y-3975066D02*
G01X8428836Y-3972066D01*
G01X8428836Y-3972066D02*
G01X8430711Y-3970566D01*
G01X8430711Y-3970566D02*
G01X8434460Y-3969066D01*
G01X8434460Y-3969066D02*
G01X8440085Y-3969066D01*
G01X8440085Y-3969066D02*
G01X8443834Y-3970566D01*
G01X8443834Y-3970566D02*
G01X8445709Y-3972066D01*
G01X8445709Y-3972066D02*
G01X8447584Y-3975066D01*
G01X8447584Y-3975066D02*
G01X8447584Y-3987064D01*
G01X8430711Y-3957068D02*
G01X8428836Y-3955568D01*
G01X8428836Y-3955568D02*
G01X8426961Y-3952568D01*
G01X8426961Y-3952568D02*
G01X8426961Y-3945069D01*
G01X8426961Y-3945069D02*
G01X8428836Y-3942070D01*
G01X8428836Y-3942070D02*
G01X8430711Y-3940570D01*
G01X8430711Y-3940570D02*
G01X8434460Y-3939070D01*
G01X8434460Y-3939070D02*
G01X8438210Y-3939070D01*
G01X8438210Y-3939070D02*
G01X8443834Y-3940570D01*
G01X8443834Y-3940570D02*
G01X8466331Y-3958568D01*
G01X8466331Y-3958568D02*
G01X8466331Y-3939070D01*
G01X8440085Y-3912073D02*
G01X8466331Y-3912073D01*
G01X8425087Y-3919573D02*
G01X8453208Y-3927072D01*
G01X8453208Y-3927072D02*
G01X8453208Y-3907574D01*
G01X8579905Y-3969066D02*
G01X8581780Y-3970566D01*
G01X8581780Y-3970566D02*
G01X8583654Y-3975066D01*
G01X8583654Y-3975066D02*
G01X8583654Y-3978065D01*
G01X8583654Y-3978065D02*
G01X8581780Y-3982565D01*
G01X8581780Y-3982565D02*
G01X8578030Y-3985564D01*
G01X8578030Y-3985564D02*
G01X8574280Y-3987064D01*
G01X8574280Y-3987064D02*
G01X8566781Y-3988564D01*
G01X8566781Y-3988564D02*
G01X8561157Y-3988564D01*
G01X8561157Y-3988564D02*
G01X8553658Y-3987064D01*
G01X8553658Y-3987064D02*
G01X8549909Y-3985564D01*
G01X8549909Y-3985564D02*
G01X8546159Y-3982565D01*
G01X8546159Y-3982565D02*
G01X8544284Y-3978065D01*
G01X8544284Y-3978065D02*
G01X8544284Y-3975066D01*
G01X8544284Y-3975066D02*
G01X8546159Y-3970566D01*
G01X8546159Y-3970566D02*
G01X8548034Y-3969066D01*
G01X8583654Y-3939070D02*
G01X8583654Y-3957068D01*
G01X8583654Y-3948069D02*
G01X8544284Y-3948069D01*
G01X8544284Y-3948069D02*
G01X8549909Y-3951069D01*
G01X8549909Y-3951069D02*
G01X8553658Y-3954068D01*
G01X8553658Y-3954068D02*
G01X8555533Y-3957068D01*
G01X8544284Y-3919573D02*
G01X8544284Y-3916573D01*
G01X8544284Y-3916573D02*
G01X8546159Y-3913573D01*
G01X8546159Y-3913573D02*
G01X8548034Y-3912073D01*
G01X8548034Y-3912073D02*
G01X8551783Y-3910574D01*
G01X8551783Y-3910574D02*
G01X8559282Y-3909074D01*
G01X8559282Y-3909074D02*
G01X8568656Y-3909074D01*
G01X8568656Y-3909074D02*
G01X8576155Y-3910574D01*
G01X8576155Y-3910574D02*
G01X8579905Y-3912073D01*
G01X8579905Y-3912073D02*
G01X8581780Y-3913573D01*
G01X8581780Y-3913573D02*
G01X8583654Y-3916573D01*
G01X8583654Y-3916573D02*
G01X8583654Y-3919573D01*
G01X8583654Y-3919573D02*
G01X8581780Y-3922572D01*
G01X8581780Y-3922572D02*
G01X8579905Y-3924072D01*
G01X8579905Y-3924072D02*
G01X8576155Y-3925572D01*
G01X8576155Y-3925572D02*
G01X8568656Y-3927072D01*
G01X8568656Y-3927072D02*
G01X8559282Y-3927072D01*
G01X8559282Y-3927072D02*
G01X8551783Y-3925572D01*
G01X8551783Y-3925572D02*
G01X8548034Y-3924072D01*
G01X8548034Y-3924072D02*
G01X8546159Y-3922572D01*
G01X8546159Y-3922572D02*
G01X8544284Y-3919573D01*
G01X8641601Y-4104520D02*
G01X8626603Y-4104520D01*
G01X8626603Y-4104520D02*
G01X8626603Y-4065150D01*
G01X8652100Y-4104520D02*
G01X8652100Y-4065150D01*
G01X8652100Y-4065150D02*
G01X8659599Y-4065150D01*
G01X8659599Y-4065150D02*
G01X8664098Y-4067025D01*
G01X8664098Y-4067025D02*
G01X8667098Y-4070775D01*
G01X8667098Y-4070775D02*
G01X8668598Y-4074524D01*
G01X8668598Y-4074524D02*
G01X8670097Y-4082023D01*
G01X8670097Y-4082023D02*
G01X8670097Y-4087648D01*
G01X8670097Y-4087648D02*
G01X8668598Y-4095147D01*
G01X8668598Y-4095147D02*
G01X8667098Y-4098896D01*
G01X8667098Y-4098896D02*
G01X8664098Y-4102646D01*
G01X8664098Y-4102646D02*
G01X8659599Y-4104520D01*
G01X8659599Y-4104520D02*
G01X8652100Y-4104520D01*
G01X8700094Y-4104520D02*
G01X8682096Y-4104520D01*
G01X8691095Y-4104520D02*
G01X8691095Y-4065150D01*
G01X8691095Y-4065150D02*
G01X8688095Y-4070775D01*
G01X8688095Y-4070775D02*
G01X8685096Y-4074524D01*
G01X8685096Y-4074524D02*
G01X8682096Y-4076399D01*
G01X8444226Y-4086898D02*
G01X8448725Y-4088772D01*
G01X8448725Y-4088772D02*
G01X8456224Y-4088772D01*
G01X8456224Y-4088772D02*
G01X8459224Y-4086898D01*
G01X8459224Y-4086898D02*
G01X8460724Y-4085023D01*
G01X8460724Y-4085023D02*
G01X8462223Y-4081273D01*
G01X8462223Y-4081273D02*
G01X8462223Y-4077524D01*
G01X8462223Y-4077524D02*
G01X8460724Y-4073774D01*
G01X8460724Y-4073774D02*
G01X8459224Y-4071899D01*
G01X8459224Y-4071899D02*
G01X8456224Y-4070025D01*
G01X8456224Y-4070025D02*
G01X8450225Y-4068150D01*
G01X8450225Y-4068150D02*
G01X8447225Y-4066275D01*
G01X8447225Y-4066275D02*
G01X8445726Y-4064400D01*
G01X8445726Y-4064400D02*
G01X8444226Y-4060651D01*
G01X8444226Y-4060651D02*
G01X8444226Y-4056901D01*
G01X8444226Y-4056901D02*
G01X8445726Y-4053152D01*
G01X8445726Y-4053152D02*
G01X8447225Y-4051277D01*
G01X8447225Y-4051277D02*
G01X8450225Y-4049402D01*
G01X8450225Y-4049402D02*
G01X8457724Y-4049402D01*
G01X8457724Y-4049402D02*
G01X8462223Y-4051277D01*
G01X8472722Y-4049402D02*
G01X8480221Y-4088772D01*
G01X8480221Y-4088772D02*
G01X8486220Y-4060651D01*
G01X8486220Y-4060651D02*
G01X8492220Y-4088772D01*
G01X8492220Y-4088772D02*
G01X8499719Y-4049402D01*
G01X8528215Y-4088772D02*
G01X8510217Y-4088772D01*
G01X8519216Y-4088772D02*
G01X8519216Y-4049402D01*
G01X8519216Y-4049402D02*
G01X8516217Y-4055027D01*
G01X8516217Y-4055027D02*
G01X8513217Y-4058776D01*
G01X8513217Y-4058776D02*
G01X8510217Y-4060651D01*
G01X8702946Y-3938320D02*
G01X8684198Y-3948819D01*
G01X8702946Y-3956318D02*
G01X8663576Y-3956318D01*
G01X8663576Y-3956318D02*
G01X8663576Y-3944319D01*
G01X8663576Y-3944319D02*
G01X8665450Y-3941320D01*
G01X8665450Y-3941320D02*
G01X8667325Y-3939820D01*
G01X8667325Y-3939820D02*
G01X8671075Y-3938320D01*
G01X8671075Y-3938320D02*
G01X8676699Y-3938320D01*
G01X8676699Y-3938320D02*
G01X8680448Y-3939820D01*
G01X8680448Y-3939820D02*
G01X8682323Y-3941320D01*
G01X8682323Y-3941320D02*
G01X8684198Y-3944319D01*
G01X8684198Y-3944319D02*
G01X8684198Y-3956318D01*
G01X8663576Y-3909824D02*
G01X8663576Y-3924822D01*
G01X8663576Y-3924822D02*
G01X8682323Y-3926322D01*
G01X8682323Y-3926322D02*
G01X8680448Y-3924822D01*
G01X8680448Y-3924822D02*
G01X8678574Y-3921822D01*
G01X8678574Y-3921822D02*
G01X8678574Y-3914323D01*
G01X8678574Y-3914323D02*
G01X8680448Y-3911324D01*
G01X8680448Y-3911324D02*
G01X8682323Y-3909824D01*
G01X8682323Y-3909824D02*
G01X8686073Y-3908324D01*
G01X8686073Y-3908324D02*
G01X8695447Y-3908324D01*
G01X8695447Y-3908324D02*
G01X8699196Y-3909824D01*
G01X8699196Y-3909824D02*
G01X8701071Y-3911324D01*
G01X8701071Y-3911324D02*
G01X8702946Y-3914323D01*
G01X8702946Y-3914323D02*
G01X8702946Y-3921822D01*
G01X8702946Y-3921822D02*
G01X8701071Y-3924822D01*
G01X8701071Y-3924822D02*
G01X8699196Y-3926322D01*
G01X8909732Y-4095144D02*
G01X8911607Y-4090645D01*
G01X8911607Y-4090645D02*
G01X8911607Y-4083146D01*
G01X8911607Y-4083146D02*
G01X8909732Y-4080146D01*
G01X8909732Y-4080146D02*
G01X8907857Y-4078646D01*
G01X8907857Y-4078646D02*
G01X8904108Y-4077147D01*
G01X8904108Y-4077147D02*
G01X8900358Y-4077147D01*
G01X8900358Y-4077147D02*
G01X8896609Y-4078646D01*
G01X8896609Y-4078646D02*
G01X8894734Y-4080146D01*
G01X8894734Y-4080146D02*
G01X8892859Y-4083146D01*
G01X8892859Y-4083146D02*
G01X8890985Y-4089145D01*
G01X8890985Y-4089145D02*
G01X8889110Y-4092145D01*
G01X8889110Y-4092145D02*
G01X8887235Y-4093645D01*
G01X8887235Y-4093645D02*
G01X8883486Y-4095144D01*
G01X8883486Y-4095144D02*
G01X8879736Y-4095144D01*
G01X8879736Y-4095144D02*
G01X8875986Y-4093645D01*
G01X8875986Y-4093645D02*
G01X8874112Y-4092145D01*
G01X8874112Y-4092145D02*
G01X8872237Y-4089145D01*
G01X8872237Y-4089145D02*
G01X8872237Y-4081646D01*
G01X8872237Y-4081646D02*
G01X8874112Y-4077147D01*
G01X8872237Y-4066648D02*
G01X8911607Y-4059149D01*
G01X8911607Y-4059149D02*
G01X8883486Y-4053150D01*
G01X8883486Y-4053150D02*
G01X8911607Y-4047150D01*
G01X8911607Y-4047150D02*
G01X8872237Y-4039651D01*
G01X8875986Y-4029153D02*
G01X8874112Y-4027653D01*
G01X8874112Y-4027653D02*
G01X8872237Y-4024653D01*
G01X8872237Y-4024653D02*
G01X8872237Y-4017154D01*
G01X8872237Y-4017154D02*
G01X8874112Y-4014154D01*
G01X8874112Y-4014154D02*
G01X8875986Y-4012655D01*
G01X8875986Y-4012655D02*
G01X8879736Y-4011155D01*
G01X8879736Y-4011155D02*
G01X8883486Y-4011155D01*
G01X8883486Y-4011155D02*
G01X8889110Y-4012655D01*
G01X8889110Y-4012655D02*
G01X8911607Y-4030652D01*
G01X8911607Y-4030652D02*
G01X8911607Y-4011155D01*
G54D11*
G01X8517717Y-3385827D02*
G01X8517717Y-3454331D01*
G01X8517717Y-3614173D02*
G01X8517717Y-3561417D01*
G01X8576378Y-3614173D02*
G01X8517717Y-3614173D01*
G01X8746457Y-3614173D02*
G01X8746457Y-3661417D01*
G01X8746457Y-3614173D02*
G01X8805118Y-3614173D01*
G01X8805118Y-3385827D02*
G01X8517717Y-3385827D01*
G01X8805118Y-3454331D02*
G01X8805118Y-3385827D01*
G01X8805118Y-3614173D02*
G01X8805118Y-3561417D01*
G01X8409843Y-3831774D02*
G01X8409843Y-3774525D01*
G01X8481496Y-3831774D02*
G01X8481496Y-3774525D01*
G01X8527953Y-3775148D02*
G01X8527953Y-3831152D01*
G01X8599606Y-3775148D02*
G01X8599606Y-3831152D01*
G01X8616732Y-4122638D02*
G01X8616732Y-4275591D01*
G01X8706102Y-4122638D02*
G01X8616732Y-4122638D01*
G01X8706102Y-4275591D02*
G01X8706102Y-4122638D01*
G54D14*
G36*
G01X8670276Y-3136941D02*
G01X8670276Y-3141872D01*
G01X8640748Y-3141872D01*
G01X8611220Y-3141872D01*
G01X8611220Y-3136941D01*
G01X8611220Y-3132010D01*
G01X8640748Y-3132010D01*
G01X8670276Y-3132010D01*
G01X8670276Y-3136941D01*
G37*
G36*
G01X8654528Y-3053467D02*
G01X8662044Y-3053854D01*
G01X8666491Y-3054443D01*
G01X8668734Y-3055576D01*
G01X8669637Y-3057598D01*
G01X8669919Y-3059578D01*
G01X8670547Y-3065056D01*
G01X8641376Y-3064509D01*
G01X8630107Y-3064274D01*
G01X8622172Y-3063994D01*
G01X8616969Y-3063573D01*
G01X8613896Y-3062913D01*
G01X8612352Y-3061918D01*
G01X8611733Y-3060490D01*
G01X8611599Y-3059704D01*
G01X8611601Y-3057484D01*
G01X8612910Y-3056072D01*
G01X8616314Y-3055150D01*
G01X8622604Y-3054398D01*
G01X8625379Y-3054139D01*
G01X8635300Y-3053542D01*
G01X8646420Y-3053322D01*
G01X8654528Y-3053467D01*
G37*
G36*
G01X8635771Y-3150707D02*
G01X8636811Y-3153595D01*
G01X8638618Y-3158372D01*
G01X8643898Y-3161657D01*
G01X8652443Y-3163350D01*
G01X8657918Y-3163568D01*
G01X8664650Y-3163662D01*
G01X8668350Y-3164184D01*
G01X8669923Y-3165496D01*
G01X8670273Y-3167958D01*
G01X8670276Y-3168499D01*
G01X8670276Y-3173430D01*
G01X8648622Y-3173430D01*
G01X8626969Y-3173430D01*
G01X8626969Y-3168499D01*
G01X8627626Y-3164792D01*
G01X8628888Y-3163568D01*
G01X8629814Y-3161999D01*
G01X8628888Y-3158509D01*
G01X8627246Y-3153248D01*
G01X8627726Y-3150626D01*
G01X8630620Y-3149791D01*
G01X8631890Y-3149762D01*
G01X8635771Y-3150707D01*
G37*
G36*
G01X8647732Y-2982158D02*
G01X8654465Y-2982404D01*
G01X8658907Y-2982989D01*
G01X8661879Y-2984059D01*
G01X8664206Y-2985759D01*
G01X8665444Y-2986950D01*
G01X8669216Y-2993258D01*
G01X8670333Y-3000945D01*
G01X8668711Y-3008406D01*
G01X8666699Y-3011739D01*
G01X8663582Y-3014711D01*
G01X8660557Y-3014685D01*
G01X8658925Y-3013914D01*
G01X8656230Y-3012158D01*
G01X8655897Y-3010121D01*
G01X8657772Y-3006329D01*
G01X8658073Y-3005800D01*
G01X8660320Y-3000642D01*
G01X8660012Y-2996973D01*
G01X8656812Y-2994543D01*
G01X8650386Y-2993101D01*
G01X8640398Y-2992399D01*
G01X8640048Y-2992387D01*
G01X8623031Y-2991817D01*
G01X8623031Y-3001756D01*
G01X8622827Y-3007699D01*
G01X8621960Y-3010674D01*
G01X8620047Y-3011648D01*
G01X8619094Y-3011695D01*
G01X8617082Y-3011345D01*
G01X8615900Y-3009752D01*
G01X8615334Y-3006098D01*
G01X8615164Y-2999564D01*
G01X8615157Y-2996902D01*
G01X8615157Y-2982109D01*
G01X8637885Y-2982109D01*
G01X8647732Y-2982158D01*
G37*
G36*
G01X8624494Y-3213676D02*
G01X8626041Y-3215098D01*
G01X8628047Y-3217569D01*
G01X8628069Y-3220151D01*
G01X8626108Y-3224473D01*
G01X8626036Y-3224611D01*
G01X8623685Y-3232690D01*
G01X8624825Y-3239999D01*
G01X8629012Y-3245832D01*
G01X8635803Y-3249478D01*
G01X8642193Y-3250353D01*
G01X8650328Y-3248754D01*
G01X8656394Y-3244491D01*
G01X8659949Y-3238369D01*
G01X8660549Y-3231191D01*
G01X8657753Y-3223762D01*
G01X8657241Y-3222996D01*
G01X8655170Y-3219462D01*
G01X8655593Y-3217086D01*
G01X8657249Y-3215223D01*
G01X8659773Y-3213249D01*
G01X8662046Y-3213847D01*
G01X8664698Y-3216275D01*
G01X8668183Y-3222171D01*
G01X8669854Y-3230122D01*
G01X8669623Y-3238637D01*
G01X8667403Y-3246227D01*
G01X8666542Y-3247781D01*
G01X8659416Y-3255752D01*
G01X8650419Y-3260526D01*
G01X8640288Y-3261834D01*
G01X8632134Y-3260296D01*
G01X8624196Y-3255770D01*
G01X8618444Y-3248709D01*
G01X8615125Y-3240010D01*
G01X8614483Y-3230569D01*
G01X8616764Y-3221285D01*
G01X8619940Y-3215745D01*
G01X8622356Y-3213129D01*
G01X8624494Y-3213676D01*
G37*
G36*
G01X8655614Y-2931107D02*
G01X8662463Y-2934888D01*
G01X8667583Y-2941332D01*
G01X8670126Y-2949257D01*
G01X8670261Y-2951537D01*
G01X8669209Y-2957328D01*
G01X8666656Y-2963368D01*
G01X8666434Y-2963743D01*
G01X8660702Y-2969615D01*
G01X8652862Y-2972622D01*
G01X8647177Y-2972529D01*
G01X8643788Y-2972474D01*
G01X8641630Y-2971967D01*
G01X8634325Y-2967987D01*
G01X8630810Y-2963743D01*
G01X8627462Y-2955113D01*
G01X8627497Y-2951537D01*
G01X8636811Y-2951537D01*
G01X8637993Y-2957972D01*
G01X8641729Y-2961481D01*
G01X8647177Y-2962385D01*
G01X8654636Y-2961280D01*
G01X8658991Y-2957866D01*
G01X8660433Y-2951990D01*
G01X8660433Y-2951862D01*
G01X8659749Y-2946656D01*
G01X8658101Y-2943087D01*
G01X8658071Y-2943056D01*
G01X8654185Y-2941316D01*
G01X8648448Y-2940759D01*
G01X8642767Y-2941385D01*
G01X8639173Y-2943056D01*
G01X8637479Y-2946617D01*
G01X8636811Y-2951537D01*
G01X8627497Y-2951537D01*
G01X8627544Y-2946843D01*
G01X8630562Y-2939585D01*
G01X8636021Y-2933991D01*
G01X8643425Y-2930711D01*
G01X8652279Y-2930399D01*
G01X8655614Y-2931107D01*
G37*
G36*
G01X8668688Y-3020142D02*
G01X8670128Y-3024023D01*
G01X8669660Y-3029109D01*
G01X8667271Y-3034270D01*
G01X8665566Y-3036317D01*
G01X8662046Y-3039206D01*
G01X8657974Y-3040711D01*
G01X8651944Y-3041245D01*
G01X8648711Y-3041280D01*
G01X8641824Y-3041505D01*
G01X8638113Y-3042300D01*
G01X8636839Y-3043851D01*
G01X8636811Y-3044239D01*
G01X8635335Y-3046559D01*
G01X8632057Y-3047084D01*
G01X8628702Y-3045772D01*
G01X8627558Y-3044459D01*
G01X8624435Y-3041822D01*
G01X8622047Y-3040980D01*
G01X8618830Y-3038845D01*
G01X8617904Y-3035178D01*
G01X8619216Y-3031612D01*
G01X8622418Y-3029818D01*
G01X8626314Y-3027539D01*
G01X8627340Y-3024887D01*
G01X8629607Y-3020995D01*
G01X8632382Y-3019940D01*
G01X8635690Y-3020205D01*
G01X8636771Y-3023019D01*
G01X8636811Y-3024378D01*
G01X8637048Y-3027198D01*
G01X8638380Y-3028713D01*
G01X8641737Y-3029328D01*
G01X8648049Y-3029446D01*
G01X8648491Y-3029446D01*
G01X8655005Y-3029340D01*
G01X8658566Y-3028733D01*
G01X8660158Y-3027190D01*
G01X8660764Y-3024280D01*
G01X8660794Y-3024022D01*
G01X8662228Y-3019792D01*
G01X8665354Y-3018598D01*
G01X8668688Y-3020142D01*
G37*
G36*
G01X8667596Y-3181144D02*
G01X8669164Y-3182685D01*
G01X8670224Y-3189957D01*
G01X8668201Y-3196651D01*
G01X8666339Y-3199071D01*
G01X8663085Y-3201392D01*
G01X8658458Y-3202611D01*
G01X8651284Y-3203010D01*
G01X8649836Y-3203016D01*
G01X8642870Y-3203174D01*
G01X8638885Y-3203832D01*
G01X8636931Y-3205264D01*
G01X8636241Y-3206961D01*
G01X8634008Y-3210170D01*
G01X8631890Y-3210906D01*
G01X8628756Y-3209249D01*
G01X8627539Y-3206961D01*
G01X8624906Y-3203647D01*
G01X8621818Y-3203016D01*
G01X8618230Y-3202143D01*
G01X8617139Y-3198796D01*
G01X8617126Y-3198085D01*
G01X8617939Y-3194332D01*
G01X8621140Y-3193175D01*
G01X8622047Y-3193154D01*
G01X8625793Y-3192339D01*
G01X8626948Y-3189132D01*
G01X8626969Y-3188223D01*
G01X8627782Y-3184470D01*
G01X8630983Y-3183313D01*
G01X8631890Y-3183292D01*
G01X8635636Y-3184107D01*
G01X8636790Y-3187314D01*
G01X8636811Y-3188223D01*
G01X8637094Y-3191054D01*
G01X8638589Y-3192524D01*
G01X8642261Y-3193076D01*
G01X8647569Y-3193154D01*
G01X8654413Y-3192818D01*
G01X8658327Y-3191632D01*
G01X8660098Y-3189702D01*
G01X8661221Y-3185766D01*
G01X8661071Y-3184036D01*
G01X8661731Y-3181825D01*
G01X8664488Y-3180763D01*
G01X8667596Y-3181144D01*
G37*
G36*
G01X8663085Y-2881579D02*
G01X8667461Y-2881953D01*
G01X8669563Y-2882917D01*
G01X8670225Y-2884752D01*
G01X8670276Y-2886448D01*
G01X8670054Y-2889089D01*
G01X8668800Y-2890565D01*
G01X8665629Y-2891215D01*
G01X8659654Y-2891376D01*
G01X8657351Y-2891379D01*
G01X8647747Y-2891811D01*
G01X8641475Y-2893271D01*
G01X8638010Y-2896003D01*
G01X8636825Y-2900251D01*
G01X8636811Y-2900916D01*
G01X8637431Y-2905698D01*
G01X8639729Y-2908749D01*
G01X8644360Y-2910419D01*
G01X8651978Y-2911058D01*
G01X8655905Y-2911103D01*
G01X8663291Y-2911167D01*
G01X8667581Y-2911553D01*
G01X8669615Y-2912554D01*
G01X8670234Y-2914462D01*
G01X8670276Y-2916096D01*
G01X8669358Y-2920243D01*
G01X8667667Y-2922091D01*
G01X8664646Y-2922472D01*
G01X8658717Y-2922658D01*
G01X8650908Y-2922628D01*
G01X8646528Y-2922523D01*
G01X8637782Y-2922167D01*
G01X8632222Y-2921643D01*
G01X8629100Y-2920783D01*
G01X8627663Y-2919421D01*
G01X8627289Y-2918243D01*
G01X8627777Y-2914462D01*
G01X8628947Y-2913069D01*
G01X8630314Y-2910871D01*
G01X8629140Y-2907539D01*
G01X8627166Y-2900312D01*
G01X8628197Y-2892976D01*
G01X8631860Y-2886809D01*
G01X8636136Y-2883707D01*
G01X8640455Y-2882622D01*
G01X8647275Y-2881838D01*
G01X8655164Y-2881518D01*
G01X8655604Y-2881517D01*
G01X8663085Y-2881579D01*
G37*
G36*
G01X8670276Y-3074631D02*
G01X8669635Y-3078795D01*
G01X8666969Y-3081284D01*
G01X8663386Y-3082700D01*
G01X8656496Y-3084979D01*
G01X8656496Y-3097747D01*
G01X8656580Y-3104653D01*
G01X8657154Y-3108713D01*
G01X8658702Y-3111024D01*
G01X8661708Y-3112687D01*
G01X8663386Y-3113400D01*
G01X8668275Y-3116184D01*
G01X8670158Y-3119620D01*
G01X8670276Y-3121189D01*
G01X8669649Y-3124883D01*
G01X8668454Y-3126093D01*
G01X8666077Y-3125351D01*
G01X8660792Y-3123312D01*
G01X8653302Y-3120259D01*
G01X8648622Y-3118290D01*
G01X8644307Y-3116474D01*
G01X8640895Y-3115011D01*
G01X8630744Y-3110593D01*
G01X8623676Y-3107329D01*
G01X8619137Y-3104864D01*
G01X8616574Y-3102844D01*
G01X8615432Y-3100911D01*
G01X8615159Y-3098712D01*
G01X8615157Y-3098499D01*
G01X8615160Y-3098480D01*
G01X8626969Y-3098480D01*
G01X8628578Y-3100226D01*
G01X8630413Y-3100994D01*
G01X8634416Y-3102410D01*
G01X8639961Y-3104647D01*
G01X8641240Y-3105195D01*
G01X8648622Y-3108394D01*
G01X8648622Y-3098480D01*
G01X8648622Y-3088565D01*
G01X8641240Y-3091764D01*
G01X8635631Y-3094078D01*
G01X8631091Y-3095754D01*
G01X8630413Y-3095965D01*
G01X8627502Y-3097519D01*
G01X8626969Y-3098480D01*
G01X8615160Y-3098480D01*
G01X8615439Y-3096002D01*
G01X8616695Y-3093878D01*
G01X8619548Y-3091684D01*
G01X8624616Y-3088976D01*
G01X8632520Y-3085308D01*
G01X8635335Y-3084045D01*
G01X8644349Y-3080033D01*
G01X8652811Y-3076299D01*
G01X8659611Y-3073334D01*
G01X8662894Y-3071931D01*
G01X8670276Y-3068841D01*
G01X8670276Y-3074631D01*
G37*
G36*
G01X8492322Y-3003613D02*
G01X8492966Y-3008191D01*
G01X8493110Y-3012312D01*
G01X8493439Y-3019006D01*
G01X8494835Y-3023466D01*
G01X8497914Y-3027375D01*
G01X8499016Y-3028460D01*
G01X8504921Y-3034129D01*
G01X8504921Y-3093766D01*
G01X8504921Y-3153403D01*
G01X8510827Y-3159320D01*
G01X8515752Y-3166522D01*
G01X8516856Y-3174095D01*
G01X8514137Y-3181534D01*
G01X8510978Y-3185416D01*
G01X8503870Y-3190187D01*
G01X8497309Y-3191005D01*
G01X8496184Y-3191146D01*
G01X8488401Y-3188279D01*
G01X8485387Y-3186075D01*
G01X8481269Y-3181780D01*
G01X8479572Y-3177035D01*
G01X8479331Y-3172638D01*
G01X8479352Y-3172444D01*
G01X8492126Y-3172444D01*
G01X8493503Y-3177408D01*
G01X8497309Y-3179422D01*
G01X8502083Y-3178590D01*
G01X8504485Y-3175913D01*
G01X8504590Y-3171769D01*
G01X8502401Y-3167892D01*
G01X8502063Y-3167592D01*
G01X8497511Y-3165581D01*
G01X8493889Y-3167044D01*
G01X8492162Y-3171508D01*
G01X8492126Y-3172444D01*
G01X8479352Y-3172444D01*
G01X8480050Y-3166115D01*
G01X8482829Y-3161167D01*
G01X8485236Y-3158637D01*
G01X8491142Y-3152968D01*
G01X8491142Y-3096138D01*
G01X8491120Y-3081624D01*
G01X8491057Y-3068477D01*
G01X8490960Y-3057192D01*
G01X8490834Y-3048259D01*
G01X8490685Y-3042170D01*
G01X8490518Y-3039417D01*
G01X8490477Y-3039308D01*
G01X8488331Y-3040087D01*
G01X8483544Y-3042142D01*
G01X8477027Y-3045055D01*
G01X8469693Y-3048406D01*
G01X8462453Y-3051775D01*
G01X8456220Y-3054741D01*
G01X8451906Y-3056885D01*
G01X8450443Y-3057733D01*
G01X8451565Y-3059005D01*
G01X8455572Y-3061408D01*
G01X8461729Y-3064523D01*
G01X8465273Y-3066167D01*
G01X8481299Y-3073404D01*
G01X8481299Y-3091720D01*
G01X8481299Y-3110036D01*
G01X8447343Y-3093710D01*
G01X8413386Y-3077383D01*
G01X8412821Y-3058262D01*
G01X8412257Y-3039140D01*
G01X8450910Y-3020486D01*
G01X8462311Y-3015022D01*
G01X8472544Y-3010189D01*
G01X8481068Y-3006237D01*
G01X8487346Y-3003414D01*
G01X8490839Y-3001969D01*
G01X8491336Y-3001833D01*
G01X8492322Y-3003613D01*
G37*
G36*
G01X8495181Y-2884493D02*
G01X8509525Y-2884560D01*
G01X8520857Y-2884701D01*
G01X8529639Y-2884939D01*
G01X8536334Y-2885297D01*
G01X8541404Y-2885798D01*
G01X8545312Y-2886467D01*
G01X8548519Y-2887327D01*
G01X8550991Y-2888206D01*
G01X8562235Y-2894276D01*
G01X8572237Y-2902892D01*
G01X8579713Y-2912927D01*
G01X8580252Y-2913927D01*
G01X8582953Y-2921727D01*
G01X8584679Y-2932100D01*
G01X8585389Y-2943788D01*
G01X8585044Y-2955531D01*
G01X8583604Y-2966071D01*
G01X8582094Y-2971591D01*
G01X8574797Y-2986356D01*
G01X8564079Y-2999197D01*
G01X8549924Y-3010133D01*
G01X8543645Y-3013791D01*
G01X8532171Y-3019981D01*
G01X8527404Y-3015494D01*
G01X8524708Y-3012365D01*
G01X8523259Y-3008596D01*
G01X8522698Y-3002899D01*
G01X8522638Y-2998439D01*
G01X8522754Y-2991539D01*
G01X8523406Y-2987425D01*
G01X8525047Y-2984936D01*
G01X8528130Y-2982912D01*
G01X8528869Y-2982510D01*
G01X8537484Y-2976834D01*
G01X8544999Y-2969996D01*
G01X8550427Y-2962984D01*
G01X8552285Y-2959062D01*
G01X8553867Y-2950048D01*
G01X8553167Y-2940910D01*
G01X8550399Y-2933052D01*
G01X8547770Y-2929471D01*
G01X8544731Y-2926906D01*
G01X8541014Y-2924909D01*
G01X8536117Y-2923410D01*
G01X8529542Y-2922342D01*
G01X8520790Y-2921636D01*
G01X8509361Y-2921225D01*
G01X8494756Y-2921041D01*
G01X8485728Y-2921012D01*
G01X8443898Y-2920965D01*
G01X8443898Y-2952084D01*
G01X8443807Y-2965257D01*
G01X8443421Y-2975068D01*
G01X8442565Y-2982096D01*
G01X8441064Y-2986922D01*
G01X8438746Y-2990126D01*
G01X8435436Y-2992288D01*
G01X8431380Y-2993851D01*
G01X8425369Y-2994580D01*
G01X8423194Y-2994844D01*
G01X8415961Y-2992036D01*
G01X8410692Y-2986921D01*
G01X8407290Y-2979901D01*
G01X8407098Y-2976985D01*
G01X8418704Y-2976985D01*
G01X8420919Y-2980674D01*
G01X8425369Y-2982071D01*
G01X8429249Y-2981351D01*
G01X8431702Y-2978673D01*
G01X8431991Y-2974566D01*
G01X8430289Y-2970774D01*
G01X8428055Y-2969258D01*
G01X8423137Y-2969369D01*
G01X8419611Y-2972323D01*
G01X8418704Y-2976985D01*
G01X8407098Y-2976985D01*
G01X8406780Y-2972153D01*
G01X8409252Y-2965242D01*
G01X8409406Y-2965018D01*
G01X8410486Y-2962615D01*
G01X8411315Y-2958560D01*
G01X8411934Y-2952355D01*
G01X8412384Y-2943500D01*
G01X8412704Y-2931497D01*
G01X8412850Y-2922666D01*
G01X8413386Y-2884476D01*
G01X8477362Y-2884476D01*
G01X8495181Y-2884493D01*
G37*
G36*
G01X8511679Y-2933847D02*
G01X8518292Y-2936605D01*
G01X8523376Y-2942214D01*
G01X8523715Y-2942841D01*
G01X8526312Y-2950788D01*
G01X8525235Y-2958055D01*
G01X8520669Y-2965042D01*
G01X8518077Y-2968157D01*
G01X8516381Y-2971022D01*
G01X8515393Y-2974552D01*
G01X8514921Y-2979657D01*
G01X8514774Y-2987252D01*
G01X8514764Y-2993334D01*
G01X8514764Y-3014886D01*
G01X8530365Y-3029069D01*
G01X8537744Y-3035602D01*
G01X8543106Y-3039807D01*
G01X8547206Y-3042159D01*
G01X8550799Y-3043133D01*
G01X8552933Y-3043253D01*
G01X8558699Y-3042363D01*
G01X8561974Y-3039365D01*
G01X8562097Y-3039141D01*
G01X8566286Y-3034817D01*
G01X8572697Y-3031741D01*
G01X8579655Y-3030604D01*
G01X8582207Y-3030846D01*
G01X8587107Y-3033049D01*
G01X8591974Y-3037078D01*
G01X8592541Y-3037721D01*
G01X8596684Y-3045308D01*
G01X8597127Y-3053283D01*
G01X8593866Y-3060877D01*
G01X8592690Y-3062374D01*
G01X8586484Y-3066839D01*
G01X8580897Y-3067908D01*
G01X8578887Y-3068293D01*
G01X8571057Y-3066731D01*
G01X8564490Y-3062484D01*
G01X8559956Y-3058964D01*
G01X8554919Y-3057376D01*
G01X8549068Y-3057059D01*
G01X8545104Y-3056983D01*
G01X8541898Y-3056462D01*
G01X8538795Y-3055064D01*
G01X8535142Y-3052351D01*
G01X8531887Y-3049361D01*
G01X8571964Y-3049361D01*
G01X8572523Y-3053327D01*
G01X8575595Y-3056009D01*
G01X8575767Y-3056067D01*
G01X8580897Y-3056142D01*
G01X8584324Y-3053451D01*
G01X8585224Y-3049063D01*
G01X8583901Y-3045546D01*
G01X8580853Y-3043743D01*
G01X8577533Y-3043573D01*
G01X8573704Y-3045610D01*
G01X8571964Y-3049361D01*
G01X8531887Y-3049361D01*
G01X8530287Y-3047891D01*
G01X8523576Y-3041246D01*
G01X8520140Y-3037793D01*
G01X8506311Y-3023885D01*
G01X8500984Y-3018527D01*
G01X8500984Y-2994470D01*
G01X8500938Y-2984314D01*
G01X8500725Y-2977389D01*
G01X8500233Y-2972983D01*
G01X8499352Y-2970382D01*
G01X8497969Y-2968874D01*
G01X8496881Y-2968213D01*
G01X8492680Y-2964134D01*
G01X8489564Y-2957904D01*
G01X8488347Y-2951650D01*
G01X8500984Y-2951650D01*
G01X8502528Y-2956413D01*
G01X8506311Y-2958903D01*
G01X8511062Y-2958310D01*
G01X8511268Y-2958204D01*
G01X8514262Y-2954798D01*
G01X8514276Y-2950489D01*
G01X8511352Y-2946902D01*
G01X8510969Y-2946682D01*
G01X8505922Y-2945498D01*
G01X8502273Y-2947443D01*
G01X8500984Y-2951650D01*
G01X8488347Y-2951650D01*
G01X8488280Y-2951303D01*
G01X8488564Y-2948396D01*
G01X8491979Y-2941217D01*
G01X8497590Y-2936301D01*
G01X8504468Y-2933795D01*
G01X8511679Y-2933847D01*
G37*
G36*
G01X8522638Y-3052129D02*
G01X8532480Y-3061842D01*
G01X8532480Y-3078751D01*
G01X8532480Y-3095661D01*
G01X8545072Y-3101882D01*
G01X8557182Y-3108745D01*
G01X8566334Y-3116205D01*
G01X8573494Y-3125186D01*
G01X8578208Y-3133617D01*
G01X8581104Y-3139817D01*
G01X8583009Y-3145076D01*
G01X8584159Y-3150580D01*
G01X8584791Y-3157513D01*
G01X8585142Y-3167062D01*
G01X8585177Y-3168458D01*
G01X8585265Y-3179733D01*
G01X8584822Y-3188162D01*
G01X8583747Y-3194821D01*
G01X8582193Y-3200083D01*
G01X8574253Y-3217294D01*
G01X8563644Y-3231635D01*
G01X8550237Y-3243251D01*
G01X8536771Y-3250981D01*
G01X8530392Y-3253816D01*
G01X8524841Y-3255684D01*
G01X8518902Y-3256823D01*
G01X8511359Y-3257475D01*
G01X8501969Y-3257850D01*
G01X8491251Y-3258027D01*
G01X8483272Y-3257715D01*
G01X8476852Y-3256797D01*
G01X8470809Y-3255154D01*
G01X8468999Y-3254539D01*
G01X8452370Y-3246797D01*
G01X8438430Y-3236349D01*
G01X8437682Y-3235485D01*
G01X8427307Y-3223487D01*
G01X8419128Y-3208503D01*
G01X8414021Y-3191687D01*
G01X8412114Y-3173331D01*
G01X8413536Y-3153725D01*
G01X8417305Y-3136811D01*
G01X8419283Y-3130038D01*
G01X8433071Y-3130038D01*
G01X8434420Y-3134740D01*
G01X8437682Y-3137245D01*
G01X8441683Y-3136816D01*
G01X8442748Y-3136092D01*
G01X8445360Y-3132344D01*
G01X8445866Y-3130038D01*
G01X8444446Y-3125957D01*
G01X8442748Y-3123983D01*
G01X8438751Y-3122625D01*
G01X8435170Y-3124402D01*
G01X8433182Y-3128577D01*
G01X8433071Y-3130038D01*
G01X8419283Y-3130038D01*
G01X8419888Y-3127966D01*
G01X8421797Y-3122105D01*
G01X8423478Y-3118427D01*
G01X8425374Y-3116135D01*
G01X8427928Y-3114428D01*
G01X8430482Y-3113084D01*
G01X8438252Y-3110828D01*
G01X8445350Y-3111843D01*
G01X8451284Y-3115459D01*
G01X8455561Y-3121007D01*
G01X8457687Y-3127816D01*
G01X8457170Y-3135216D01*
G01X8453516Y-3142539D01*
G01X8452811Y-3143419D01*
G01X8447863Y-3150560D01*
G01X8445060Y-3158225D01*
G01X8443961Y-3167812D01*
G01X8443898Y-3171650D01*
G01X8444917Y-3183444D01*
G01X8448343Y-3193249D01*
G01X8454725Y-3202555D01*
G01X8455768Y-3203769D01*
G01X8462721Y-3210704D01*
G01X8469899Y-3215398D01*
G01X8478279Y-3218223D01*
G01X8488839Y-3219548D01*
G01X8498031Y-3219781D01*
G01X8507360Y-3219686D01*
G01X8513929Y-3219248D01*
G01X8518915Y-3218241D01*
G01X8523493Y-3216436D01*
G01X8528244Y-3213939D01*
G01X8539017Y-3205813D01*
G01X8547116Y-3195234D01*
G01X8552181Y-3182935D01*
G01X8553848Y-3169652D01*
G01X8553319Y-3163028D01*
G01X8551042Y-3154008D01*
G01X8546825Y-3146664D01*
G01X8540055Y-3140267D01*
G01X8530118Y-3134089D01*
G01X8528047Y-3132996D01*
G01X8512805Y-3125107D01*
G01X8512800Y-3083761D01*
G01X8512795Y-3042415D01*
G01X8522638Y-3052129D01*
G37*
G54D11*
G01X8415354Y-4122047D02*
G01X8415354Y-4295276D01*
G01X8482283Y-4122047D02*
G01X8486220Y-4122047D01*
G01X8482283Y-4295276D02*
G01X8486220Y-4295276D01*
G01X8553150Y-4295276D02*
G01X8553150Y-4122047D01*
G01X8646063Y-3831774D02*
G01X8646063Y-3774525D01*
G01X8717717Y-3831774D02*
G01X8717717Y-3774525D01*
G01X8769685Y-4122047D02*
G01X8769685Y-4295276D01*
G01X8840551Y-4122047D02*
G01X8836614Y-4122047D01*
G01X8840551Y-4295276D02*
G01X8836614Y-4295276D01*
G01X8907480Y-4295276D02*
G01X8907480Y-4122047D01*
M02*
