G04 This is an RS-274x file exported by *
G04 gerbv version  *
G04 More information is available about gerbv at *
G04 https://gerbv.github.io/ *
G04 --End of header info--*
%MOIN*%
%FSLAX36Y36*%
%IPPOS*%
G04 --Define apertures--*
%AMMACRO10*
4,1,4,0.023622,0.023622,-0.023622,0.023622,-0.023622,-0.023622,0.023622,-0.023622,0.023622,0.023622,0.000000*
1,1,0.019685,0.023622,0.023622*
1,1,0.019685,-0.023622,0.023622*
1,1,0.019685,-0.023622,-0.023622*
1,1,0.019685,0.023622,-0.023622*
20,1,0.019685,0.023622,0.023622,-0.023622,0.023622,0.000000*
20,1,0.019685,-0.023622,0.023622,-0.023622,-0.023622,0.000000*
20,1,0.019685,-0.023622,-0.023622,0.023622,-0.023622,0.000000*
20,1,0.019685,0.023622,-0.023622,0.023622,0.023622,0.000000*
%
%ADD10MACRO10*%
%ADD11O,0.0866X0.0669*%
%AMMACRO12*
4,1,4,0.029528,0.049213,-0.029528,0.049213,-0.029528,-0.049213,0.029528,-0.049213,0.029528,0.049213,0.000000*
1,1,0.019685,0.029528,0.049213*
1,1,0.019685,-0.029528,0.049213*
1,1,0.019685,-0.029528,-0.049213*
1,1,0.019685,0.029528,-0.049213*
20,1,0.019685,0.029528,0.049213,-0.029528,0.049213,0.000000*
20,1,0.019685,-0.029528,0.049213,-0.029528,-0.049213,0.000000*
20,1,0.019685,-0.029528,-0.049213,0.029528,-0.049213,0.000000*
20,1,0.019685,0.029528,-0.049213,0.029528,0.049213,0.000000*
%
%ADD12MACRO12*%
%ADD13O,0.0787X0.1181*%
%AMMACRO14*
4,1,4,-0.029173,-0.042953,0.029173,-0.042953,0.029173,0.042953,-0.029173,0.042953,-0.029173,-0.042953,0.000000*
1,1,0.016457,-0.029173,-0.042953*
1,1,0.016457,0.029173,-0.042953*
1,1,0.016457,0.029173,0.042953*
1,1,0.016457,-0.029173,0.042953*
20,1,0.016457,-0.029173,-0.042953,0.029173,-0.042953,0.000000*
20,1,0.016457,0.029173,-0.042953,0.029173,0.042953,0.000000*
20,1,0.016457,0.029173,0.042953,-0.029173,0.042953,0.000000*
20,1,0.016457,-0.029173,0.042953,-0.029173,-0.042953,0.000000*
%
%ADD14MACRO14*%
%ADD15O,0.0787X0.1102*%
%ADD16O,0.0551X0.0787*%
%AMMACRO17*
4,1,4,0.017717,-0.029528,0.017717,0.029528,-0.017717,0.029528,-0.017717,-0.029528,0.017717,-0.029528,0.000000*
1,1,0.019685,0.017717,-0.029528*
1,1,0.019685,0.017717,0.029528*
1,1,0.019685,-0.017717,0.029528*
1,1,0.019685,-0.017717,-0.029528*
20,1,0.019685,0.017717,-0.029528,0.017717,0.029528,0.000000*
20,1,0.019685,0.017717,0.029528,-0.017717,0.029528,0.000000*
20,1,0.019685,-0.017717,0.029528,-0.017717,-0.029528,0.000000*
20,1,0.019685,-0.017717,-0.029528,0.017717,-0.029528,0.000000*
%
%ADD17MACRO17*%
%AMMACRO18*
4,1,4,0.024606,-0.015748,0.024606,0.015748,-0.024606,0.015748,-0.024606,-0.015748,0.024606,-0.015748,0.000000*
1,1,0.019685,0.024606,-0.015748*
1,1,0.019685,0.024606,0.015748*
1,1,0.019685,-0.024606,0.015748*
1,1,0.019685,-0.024606,-0.015748*
20,1,0.019685,0.024606,-0.015748,0.024606,0.015748,0.000000*
20,1,0.019685,0.024606,0.015748,-0.024606,0.015748,0.000000*
20,1,0.019685,-0.024606,0.015748,-0.024606,-0.015748,0.000000*
20,1,0.019685,-0.024606,-0.015748,0.024606,-0.015748,0.000000*
%
%ADD18MACRO18*%
%AMMACRO19*
4,1,4,0.025591,-0.016240,0.025591,0.016240,-0.025591,0.016240,-0.025591,-0.016240,0.025591,-0.016240,0.000000*
1,1,0.019685,0.025591,-0.016240*
1,1,0.019685,0.025591,0.016240*
1,1,0.019685,-0.025591,0.016240*
1,1,0.019685,-0.025591,-0.016240*
20,1,0.019685,0.025591,-0.016240,0.025591,0.016240,0.000000*
20,1,0.019685,0.025591,0.016240,-0.025591,0.016240,0.000000*
20,1,0.019685,-0.025591,0.016240,-0.025591,-0.016240,0.000000*
20,1,0.019685,-0.025591,-0.016240,0.025591,-0.016240,0.000000*
%
%ADD19MACRO19*%
%AMMACRO20*
4,1,4,-0.011811,-0.011811,0.011811,-0.011811,0.011811,0.011811,-0.011811,0.011811,-0.011811,-0.011811,0.000000*
1,1,0.019685,-0.011811,-0.011811*
1,1,0.019685,0.011811,-0.011811*
1,1,0.019685,0.011811,0.011811*
1,1,0.019685,-0.011811,0.011811*
20,1,0.019685,-0.011811,-0.011811,0.011811,-0.011811,0.000000*
20,1,0.019685,0.011811,-0.011811,0.011811,0.011811,0.000000*
20,1,0.019685,0.011811,0.011811,-0.011811,0.011811,0.000000*
20,1,0.019685,-0.011811,0.011811,-0.011811,-0.011811,0.000000*
%
%ADD20MACRO20*%
%AMMACRO21*
4,1,4,-0.024606,0.015748,-0.024606,-0.015748,0.024606,-0.015748,0.024606,0.015748,-0.024606,0.015748,0.000000*
1,1,0.019685,-0.024606,0.015748*
1,1,0.019685,-0.024606,-0.015748*
1,1,0.019685,0.024606,-0.015748*
1,1,0.019685,0.024606,0.015748*
20,1,0.019685,-0.024606,0.015748,-0.024606,-0.015748,0.000000*
20,1,0.019685,-0.024606,-0.015748,0.024606,-0.015748,0.000000*
20,1,0.019685,0.024606,-0.015748,0.024606,0.015748,0.000000*
20,1,0.019685,0.024606,0.015748,-0.024606,0.015748,0.000000*
%
%ADD21MACRO21*%
%AMMACRO22*
4,1,4,0.025859,-0.035701,0.025859,0.035701,-0.025859,0.035701,-0.025859,-0.035701,0.025859,-0.035701,0.000000*
1,1,0.015211,0.025859,-0.035701*
1,1,0.015211,0.025859,0.035701*
1,1,0.015211,-0.025859,0.035701*
1,1,0.015211,-0.025859,-0.035701*
20,1,0.015211,0.025859,-0.035701,0.025859,0.035701,0.000000*
20,1,0.015211,0.025859,0.035701,-0.025859,0.035701,0.000000*
20,1,0.015211,-0.025859,0.035701,-0.025859,-0.035701,0.000000*
20,1,0.015211,-0.025859,-0.035701,0.025859,-0.035701,0.000000*
%
%ADD22MACRO22*%
%ADD23C,0.0787*%
%ADD24C,0.0866*%
%ADD25O,0.0669X0.0984*%
%ADD26R,0.0984X0.0394*%
%ADD27R,0.0394X0.0709*%
%AMMACRO28*
4,1,4,0.032480,0.005906,-0.032480,0.005906,-0.032480,-0.005906,0.032480,-0.005906,0.032480,0.005906,0.000000*
1,1,0.011811,0.032480,0.005906*
1,1,0.011811,-0.032480,0.005906*
1,1,0.011811,-0.032480,-0.005906*
1,1,0.011811,0.032480,-0.005906*
20,1,0.011811,0.032480,0.005906,-0.032480,0.005906,0.000000*
20,1,0.011811,-0.032480,0.005906,-0.032480,-0.005906,0.000000*
20,1,0.011811,-0.032480,-0.005906,0.032480,-0.005906,0.000000*
20,1,0.011811,0.032480,-0.005906,0.032480,0.005906,0.000000*
%
%ADD28MACRO28*%
%ADD29R,0.0118X0.0512*%
%AMMACRO30*
4,1,4,0.025591,0.033465,-0.025591,0.033465,-0.025591,-0.033465,0.025591,-0.033465,0.025591,0.033465,0.000000*
1,1,0.019685,0.025591,0.033465*
1,1,0.019685,-0.025591,0.033465*
1,1,0.019685,-0.025591,-0.033465*
1,1,0.019685,0.025591,-0.033465*
20,1,0.019685,0.025591,0.033465,-0.025591,0.033465,0.000000*
20,1,0.019685,-0.025591,0.033465,-0.025591,-0.033465,0.000000*
20,1,0.019685,-0.025591,-0.033465,0.025591,-0.033465,0.000000*
20,1,0.019685,0.025591,-0.033465,0.025591,0.033465,0.000000*
%
%ADD30MACRO30*%
%ADD31O,0.0827X0.0669*%
%AMMACRO32*
4,1,4,-0.023622,-0.023622,0.023622,-0.023622,0.023622,0.023622,-0.023622,0.023622,-0.023622,-0.023622,0.000000*
1,1,0.019685,-0.023622,-0.023622*
1,1,0.019685,0.023622,-0.023622*
1,1,0.019685,0.023622,0.023622*
1,1,0.019685,-0.023622,0.023622*
20,1,0.019685,-0.023622,-0.023622,0.023622,-0.023622,0.000000*
20,1,0.019685,0.023622,-0.023622,0.023622,0.023622,0.000000*
20,1,0.019685,0.023622,0.023622,-0.023622,0.023622,0.000000*
20,1,0.019685,-0.023622,0.023622,-0.023622,-0.023622,0.000000*
%
%ADD32MACRO32*%
%AMMACRO33*
4,1,4,-0.016240,-0.025591,0.016240,-0.025591,0.016240,0.025591,-0.016240,0.025591,-0.016240,-0.025591,0.000000*
1,1,0.019685,-0.016240,-0.025591*
1,1,0.019685,0.016240,-0.025591*
1,1,0.019685,0.016240,0.025591*
1,1,0.019685,-0.016240,0.025591*
20,1,0.019685,-0.016240,-0.025591,0.016240,-0.025591,0.000000*
20,1,0.019685,0.016240,-0.025591,0.016240,0.025591,0.000000*
20,1,0.019685,0.016240,0.025591,-0.016240,0.025591,0.000000*
20,1,0.019685,-0.016240,0.025591,-0.016240,-0.025591,0.000000*
%
%ADD33MACRO33*%
%AMMACRO34*
4,1,4,0.003937,-0.022146,0.003937,0.022146,-0.003937,0.022146,-0.003937,-0.022146,0.003937,-0.022146,0.000000*
1,1,0.007874,0.003937,-0.022146*
1,1,0.007874,0.003937,0.022146*
1,1,0.007874,-0.003937,0.022146*
1,1,0.007874,-0.003937,-0.022146*
20,1,0.007874,0.003937,-0.022146,0.003937,0.022146,0.000000*
20,1,0.007874,0.003937,0.022146,-0.003937,0.022146,0.000000*
20,1,0.007874,-0.003937,0.022146,-0.003937,-0.022146,0.000000*
20,1,0.007874,-0.003937,-0.022146,0.003937,-0.022146,0.000000*
%
%ADD34MACRO34*%
%AMMACRO35*
4,1,4,-0.014764,0.024606,-0.014764,-0.024606,0.014764,-0.024606,0.014764,0.024606,-0.014764,0.024606,0.000000*
1,1,0.029528,-0.014764,0.024606*
1,1,0.029528,-0.014764,-0.024606*
1,1,0.029528,0.014764,-0.024606*
1,1,0.029528,0.014764,0.024606*
20,1,0.029528,-0.014764,0.024606,-0.014764,-0.024606,0.000000*
20,1,0.029528,-0.014764,-0.024606,0.014764,-0.024606,0.000000*
20,1,0.029528,0.014764,-0.024606,0.014764,0.024606,0.000000*
20,1,0.029528,0.014764,0.024606,-0.014764,0.024606,0.000000*
%
%ADD35MACRO35*%
%AMMACRO36*
4,1,4,-0.055118,0.019685,-0.055118,-0.019685,0.055118,-0.019685,0.055118,0.019685,-0.055118,0.019685,0.000000*
1,1,0.039370,-0.055118,0.019685*
1,1,0.039370,-0.055118,-0.019685*
1,1,0.039370,0.055118,-0.019685*
1,1,0.039370,0.055118,0.019685*
20,1,0.039370,-0.055118,0.019685,-0.055118,-0.019685,0.000000*
20,1,0.039370,-0.055118,-0.019685,0.055118,-0.019685,0.000000*
20,1,0.039370,0.055118,-0.019685,0.055118,0.019685,0.000000*
20,1,0.039370,0.055118,0.019685,-0.055118,0.019685,0.000000*
%
%ADD36MACRO36*%
%AMMACRO37*
4,1,4,0.023130,0.005906,-0.023130,0.005906,-0.023130,-0.005906,0.023130,-0.005906,0.023130,0.005906,0.000000*
1,1,0.011811,0.023130,0.005906*
1,1,0.011811,-0.023130,0.005906*
1,1,0.011811,-0.023130,-0.005906*
1,1,0.011811,0.023130,-0.005906*
20,1,0.011811,0.023130,0.005906,-0.023130,0.005906,0.000000*
20,1,0.011811,-0.023130,0.005906,-0.023130,-0.005906,0.000000*
20,1,0.011811,-0.023130,-0.005906,0.023130,-0.005906,0.000000*
20,1,0.011811,0.023130,-0.005906,0.023130,0.005906,0.000000*
%
%ADD37MACRO37*%
%AMMACRO38*
4,1,4,-0.025591,0.016240,-0.025591,-0.016240,0.025591,-0.016240,0.025591,0.016240,-0.025591,0.016240,0.000000*
1,1,0.019685,-0.025591,0.016240*
1,1,0.019685,-0.025591,-0.016240*
1,1,0.019685,0.025591,-0.016240*
1,1,0.019685,0.025591,0.016240*
20,1,0.019685,-0.025591,0.016240,-0.025591,-0.016240,0.000000*
20,1,0.019685,-0.025591,-0.016240,0.025591,-0.016240,0.000000*
20,1,0.019685,0.025591,-0.016240,0.025591,0.016240,0.000000*
20,1,0.019685,0.025591,0.016240,-0.025591,0.016240,0.000000*
%
%ADD38MACRO38*%
%AMMACRO39*
4,1,4,-0.072835,0.029528,-0.072835,-0.029528,0.072835,-0.029528,0.072835,0.029528,-0.072835,0.029528,0.000000*
1,1,0.019685,-0.072835,0.029528*
1,1,0.019685,-0.072835,-0.029528*
1,1,0.019685,0.072835,-0.029528*
1,1,0.019685,0.072835,0.029528*
20,1,0.019685,-0.072835,0.029528,-0.072835,-0.029528,0.000000*
20,1,0.019685,-0.072835,-0.029528,0.072835,-0.029528,0.000000*
20,1,0.019685,0.072835,-0.029528,0.072835,0.029528,0.000000*
20,1,0.019685,0.072835,0.029528,-0.072835,0.029528,0.000000*
%
%ADD39MACRO39*%
%AMMACRO40*
4,1,4,0.015748,0.015748,-0.015748,0.015748,-0.015748,-0.015748,0.015748,-0.015748,0.015748,0.015748,0.000000*
1,1,0.031496,0.015748,0.015748*
1,1,0.031496,-0.015748,0.015748*
1,1,0.031496,-0.015748,-0.015748*
1,1,0.031496,0.015748,-0.015748*
20,1,0.031496,0.015748,0.015748,-0.015748,0.015748,0.000000*
20,1,0.031496,-0.015748,0.015748,-0.015748,-0.015748,0.000000*
20,1,0.031496,-0.015748,-0.015748,0.015748,-0.015748,0.000000*
20,1,0.031496,0.015748,-0.015748,0.015748,0.015748,0.000000*
%
%ADD40MACRO40*%
%ADD41C,0.0630*%
%AMMACRO42*
4,1,4,-0.024606,0.014764,-0.024606,-0.014764,0.024606,-0.014764,0.024606,0.014764,-0.024606,0.014764,0.000000*
1,1,0.019685,-0.024606,0.014764*
1,1,0.019685,-0.024606,-0.014764*
1,1,0.019685,0.024606,-0.014764*
1,1,0.019685,0.024606,0.014764*
20,1,0.019685,-0.024606,0.014764,-0.024606,-0.014764,0.000000*
20,1,0.019685,-0.024606,-0.014764,0.024606,-0.014764,0.000000*
20,1,0.019685,0.024606,-0.014764,0.024606,0.014764,0.000000*
20,1,0.019685,0.024606,0.014764,-0.024606,0.014764,0.000000*
%
%ADD42MACRO42*%
%AMMACRO43*
4,1,4,-0.006398,0.014272,-0.006398,-0.014272,0.006398,-0.014272,0.006398,0.014272,-0.006398,0.014272,0.000000*
1,1,0.012795,-0.006398,0.014272*
1,1,0.012795,-0.006398,-0.014272*
1,1,0.012795,0.006398,-0.014272*
1,1,0.012795,0.006398,0.014272*
20,1,0.012795,-0.006398,0.014272,-0.006398,-0.014272,0.000000*
20,1,0.012795,-0.006398,-0.014272,0.006398,-0.014272,0.000000*
20,1,0.012795,0.006398,-0.014272,0.006398,0.014272,0.000000*
20,1,0.012795,0.006398,0.014272,-0.006398,0.014272,0.000000*
%
%ADD43MACRO43*%
%ADD44R,0.0157X0.0551*%
%ADD45O,0.0413X0.0748*%
%ADD46R,0.0453X0.0571*%
%ADD47R,0.0689X0.0748*%
%AMMACRO48*
4,1,4,-0.015748,-0.024606,0.015748,-0.024606,0.015748,0.024606,-0.015748,0.024606,-0.015748,-0.024606,0.000000*
1,1,0.019685,-0.015748,-0.024606*
1,1,0.019685,0.015748,-0.024606*
1,1,0.019685,0.015748,0.024606*
1,1,0.019685,-0.015748,0.024606*
20,1,0.019685,-0.015748,-0.024606,0.015748,-0.024606,0.000000*
20,1,0.019685,0.015748,-0.024606,0.015748,0.024606,0.000000*
20,1,0.019685,0.015748,0.024606,-0.015748,0.024606,0.000000*
20,1,0.019685,-0.015748,0.024606,-0.015748,-0.024606,0.000000*
%
%ADD48MACRO48*%
%AMMACRO49*
4,1,4,0.005906,-0.034449,0.005906,0.034449,-0.005906,0.034449,-0.005906,-0.034449,0.005906,-0.034449,0.000000*
1,1,0.011811,0.005906,-0.034449*
1,1,0.011811,0.005906,0.034449*
1,1,0.011811,-0.005906,0.034449*
1,1,0.011811,-0.005906,-0.034449*
20,1,0.011811,0.005906,-0.034449,0.005906,0.034449,0.000000*
20,1,0.011811,0.005906,0.034449,-0.005906,0.034449,0.000000*
20,1,0.011811,-0.005906,0.034449,-0.005906,-0.034449,0.000000*
20,1,0.011811,-0.005906,-0.034449,0.005906,-0.034449,0.000000*
%
%ADD49MACRO49*%
%AMMACRO50*
4,1,4,-0.021654,-0.021654,0.021654,-0.021654,0.021654,0.021654,-0.021654,0.021654,-0.021654,-0.021654,0.000000*
1,1,0.019685,-0.021654,-0.021654*
1,1,0.019685,0.021654,-0.021654*
1,1,0.019685,0.021654,0.021654*
1,1,0.019685,-0.021654,0.021654*
20,1,0.019685,-0.021654,-0.021654,0.021654,-0.021654,0.000000*
20,1,0.019685,0.021654,-0.021654,0.021654,0.021654,0.000000*
20,1,0.019685,0.021654,0.021654,-0.021654,0.021654,0.000000*
20,1,0.019685,-0.021654,0.021654,-0.021654,-0.021654,0.000000*
%
%ADD50MACRO50*%
%AMMACRO51*
4,1,4,0.006398,-0.014272,0.006398,0.014272,-0.006398,0.014272,-0.006398,-0.014272,0.006398,-0.014272,0.000000*
1,1,0.012795,0.006398,-0.014272*
1,1,0.012795,0.006398,0.014272*
1,1,0.012795,-0.006398,0.014272*
1,1,0.012795,-0.006398,-0.014272*
20,1,0.012795,0.006398,-0.014272,0.006398,0.014272,0.000000*
20,1,0.012795,0.006398,0.014272,-0.006398,0.014272,0.000000*
20,1,0.012795,-0.006398,0.014272,-0.006398,-0.014272,0.000000*
20,1,0.012795,-0.006398,-0.014272,0.006398,-0.014272,0.000000*
%
%ADD51MACRO51*%
%AMMACRO52*
4,1,4,-0.024094,-0.024094,0.024094,-0.024094,0.024094,0.024094,-0.024094,0.024094,-0.024094,-0.024094,0.000000*
1,1,0.018740,-0.024094,-0.024094*
1,1,0.018740,0.024094,-0.024094*
1,1,0.018740,0.024094,0.024094*
1,1,0.018740,-0.024094,0.024094*
20,1,0.018740,-0.024094,-0.024094,0.024094,-0.024094,0.000000*
20,1,0.018740,0.024094,-0.024094,0.024094,0.024094,0.000000*
20,1,0.018740,0.024094,0.024094,-0.024094,0.024094,0.000000*
20,1,0.018740,-0.024094,0.024094,-0.024094,-0.024094,0.000000*
%
%ADD52MACRO52*%
%ADD53C,0.0709*%
%ADD54C,0.0472*%
%ADD55C,0.0354*%
%ADD56C,0.0394*%
%ADD57C,0.0197*%
%ADD58C,0.0118*%
%ADD59C,0.0079*%
G04 --Start main section--*
G54D29*
G01X8730315Y-3635827D03*
G01X8710630Y-3635827D03*
G01X8690945Y-3635827D03*
G01X8671260Y-3635827D03*
G01X8651575Y-3635827D03*
G01X8631890Y-3635827D03*
G01X8612205Y-3635827D03*
G01X8592520Y-3635827D03*
G54D30*
G01X8805118Y-3507874D03*
G01X8517717Y-3507874D03*
G54D18*
G01X8445669Y-3864173D03*
G01X8445669Y-3742126D03*
G54D38*
G01X8563780Y-3741634D03*
G01X8563780Y-3864665D03*
G54D42*
G01X8661417Y-4157480D03*
G01X8661417Y-4267717D03*
G54D43*
G01X8526575Y-4126969D03*
G01X8526575Y-4290354D03*
G01X8441929Y-4126969D03*
G01X8441929Y-4289370D03*
G54D18*
G01X8681890Y-3864173D03*
G01X8681890Y-3742126D03*
G54D51*
G01X8796260Y-4290354D03*
G01X8796260Y-4126969D03*
G01X8880906Y-4290354D03*
G01X8880906Y-4127953D03*
G54D52*
G01X8803150Y-4055118D03*
G54D53*
G01X8803150Y-3955118D03*
G01X8803150Y-3855118D03*
G01X8803150Y-3755118D03*
G54D52*
G01X8803150Y-3326772D03*
G54D53*
G01X8803150Y-3226772D03*
G01X8803150Y-3126772D03*
G01X8803150Y-3026772D03*
G01X8803150Y-2926772D03*
G54D57*
G01X8796260Y-4062008D02*
G01X8796260Y-4126969D01*
G01X8803150Y-4055118D02*
G01X8796260Y-4062008D01*
G01X8764033Y-3994234D02*
G01X8803150Y-3955118D01*
G01X8532340Y-4077896D02*
G01X8604471Y-4005766D01*
G01X8618390Y-4000000D02*
G01X8750114Y-4000000D01*
G01X8526575Y-4126969D02*
G01X8526575Y-4091815D01*
G01X8764033Y-3994234D02*
G75*
G02X8750114Y-4000000I-013919J0013919D01*
G01X8604471Y-4005766D02*
G75*
G02X8618390Y-4000000I0013919J-013919D01*
G01X8526575Y-4091815D02*
G75*
G02X8532340Y-4077896I0019685J0000000D01*
G54D59*
G01X8592520Y-3635827D02*
G01X8590551Y-3637795D01*
G01X8592520Y-3633858D02*
G01X8590551Y-3635827D01*
G54D57*
G01X8760630Y-2969291D02*
G01X8803150Y-2926772D01*
G54D59*
G01X8592520Y-3635827D02*
G01X8592520Y-3145555D01*
G01X8598285Y-3131636D02*
G01X8760630Y-2969291D01*
G01X8592520Y-3145555D02*
G75*
G02X8598285Y-3131636I0019685J0000000D01*
G01X8690945Y-3635827D02*
G01X8690945Y-3447130D01*
G01X8696711Y-3433211D02*
G01X8759843Y-3370079D01*
G01X8690945Y-3633858D02*
G01X8688976Y-3635827D01*
G54D57*
G01X8759843Y-3370079D02*
G01X8803150Y-3326772D01*
G54D59*
G01X8690945Y-3447130D02*
G75*
G02X8696710Y-3433211I0019685J0000000D01*
G01X8651575Y-3635827D02*
G01X8651575Y-3286500D01*
G01X8657340Y-3272581D02*
G01X8760236Y-3169685D01*
G54D57*
G01X8760236Y-3169685D02*
G01X8803150Y-3126772D01*
G54D59*
G01X8651575Y-3286500D02*
G75*
G02X8657340Y-3272581I0019685J0000000D01*
G01X8631890Y-3635827D02*
G01X8631890Y-3206185D01*
G01X8637655Y-3192266D02*
G01X8759449Y-3070472D01*
G54D57*
G01X8759449Y-3070472D02*
G01X8803150Y-3026772D01*
G54D59*
G01X8631890Y-3206185D02*
G75*
G02X8637655Y-3192266I0019685J0000000D01*
G01X8677025Y-3352896D02*
G01X8761024Y-3268898D01*
G54D57*
G01X8761024Y-3268898D02*
G01X8803150Y-3226772D01*
G54D59*
G01X8671260Y-3635827D02*
G01X8671260Y-3366815D01*
G01X8677025Y-3352896D02*
G75*
G03X8671260Y-3366815I0013919J-013919D01*
G01X8606439Y-3708522D02*
G01X8579092Y-3735868D01*
G54D57*
G01X8445669Y-3742126D02*
G01X8563287Y-3742126D01*
G01X8681890Y-3807087D02*
G01X8645949Y-3807087D01*
G01X8632030Y-3801321D02*
G01X8578108Y-3747399D01*
G54D59*
G01X8612205Y-3637795D02*
G01X8612205Y-3694602D01*
G01X8610236Y-3635827D02*
G01X8612205Y-3637795D01*
G01X8565173Y-3741634D02*
G01X8563780Y-3741634D01*
G54D57*
G01X8681890Y-3807087D02*
G01X8743027Y-3807087D01*
G01X8563287Y-3742126D02*
G01X8563780Y-3741634D01*
G01X8681890Y-3864173D02*
G01X8681890Y-3807087D01*
G01X8756947Y-3801321D02*
G01X8803150Y-3755118D01*
G01X8564189Y-3741634D02*
G01X8563780Y-3741634D01*
G01X8645949Y-3807087D02*
G75*
G02X8632030Y-3801321I0000000J0019685D01*
G01X8743027Y-3807087D02*
G75*
G03X8756947Y-3801321I0000000J0019685D01*
G54D59*
G01X8579092Y-3735868D02*
G75*
G02X8565173Y-3741634I-013919J0013919D01*
G54D57*
G01X8578108Y-3747399D02*
G75*
G03X8564189Y-3741634I-013919J-013919D01*
G54D59*
G01X8606439Y-3708522D02*
G75*
G03X8612205Y-3694602I-013919J0013919D01*
G54D57*
G01X8880906Y-4204724D02*
G01X8880906Y-4290354D01*
G01X8719151Y-3939116D02*
G01X8803150Y-3855118D01*
G54D59*
G01X8722581Y-3588443D02*
G01X8716396Y-3594628D01*
G54D57*
G01X8562992Y-3944882D02*
G01X8447695Y-4060179D01*
G01X8875140Y-3642856D02*
G01X8820726Y-3588443D01*
G01X8563780Y-3944882D02*
G01X8705232Y-3944882D01*
G01X8880906Y-3855118D02*
G01X8803150Y-3855118D01*
G54D59*
G01X8710630Y-3633858D02*
G01X8708661Y-3635827D01*
G54D57*
G01X8880906Y-4204724D02*
G01X8880906Y-4127953D01*
G54D59*
G01X8710630Y-3608548D02*
G01X8710630Y-3633858D01*
G54D57*
G01X8678994Y-4163246D02*
G01X8714707Y-4198959D01*
G01X8563780Y-3864665D02*
G01X8563780Y-3944882D01*
G01X8563780Y-3944882D02*
G01X8562992Y-3944882D01*
G01X8880906Y-4127953D02*
G01X8880906Y-3855118D01*
G01X8806807Y-3582677D02*
G01X8775591Y-3582677D01*
G01X8880906Y-3855118D02*
G01X8880906Y-3656776D01*
G01X8441929Y-4074099D02*
G01X8441929Y-4126969D01*
G01X8728626Y-4204724D02*
G01X8880906Y-4204724D01*
G54D59*
G01X8775591Y-3582677D02*
G01X8736500Y-3582677D01*
G54D57*
G01X8661417Y-4157480D02*
G01X8665075Y-4157480D01*
G54D59*
G01X8736500Y-3582677D02*
G75*
G03X8722581Y-3588443I0000000J-019685D01*
G54D57*
G01X8719151Y-3939116D02*
G75*
G02X8705232Y-3944882I-013919J0013919D01*
G01X8678994Y-4163246D02*
G75*
G03X8665075Y-4157481I-013919J-013919D01*
G54D59*
G01X8710630Y-3608548D02*
G75*
G02X8716395Y-3594628I0019685J0000000D01*
G54D57*
G01X8441929Y-4074099D02*
G75*
G02X8447695Y-4060179I0019685J0000000D01*
G01X8806807Y-3582677D02*
G75*
G02X8820726Y-3588443I0000000J-019685D01*
G01X8714707Y-4198959D02*
G75*
G03X8728626Y-4204724I0013919J0013919D01*
G01X8880906Y-3656776D02*
G75*
G03X8875140Y-3642856I-019685J0000000D01*
G54D59*
G01X8730315Y-3637795D02*
G01X8732283Y-3635827D01*
G01X8696711Y-3736360D02*
G01X8724549Y-3708521D01*
G01X8681890Y-3742126D02*
G01X8682791Y-3742126D01*
G01X8730315Y-3694602D02*
G01X8730315Y-3637795D01*
G01X8724549Y-3708521D02*
G75*
G03X8730315Y-3694602I-013919J0013919D01*
G01X8696711Y-3736360D02*
G75*
G02X8682791Y-3742126I-013919J0013919D01*
G54D58*
G01X8421260Y-4208661D02*
G01X8583762Y-4208661D01*
G54D57*
G01X8445669Y-3929134D02*
G01X8445669Y-3864173D01*
G54D58*
G01X8597682Y-4214427D02*
G01X8645206Y-4261951D01*
G01X8659125Y-4267717D02*
G01X8661417Y-4267717D01*
G01X8401575Y-4027839D02*
G01X8401575Y-4188976D01*
G01X8445669Y-3929134D02*
G01X8445669Y-3967437D01*
G01X8439904Y-3981356D02*
G01X8407340Y-4013919D01*
G01X8583762Y-4208661D02*
G75*
G02X8597682Y-4214426I0000002J-019685D01*
G01X8659125Y-4267717D02*
G75*
G02X8645206Y-4261950I0000001J0019685D01*
G01X8401575Y-4188976D02*
G75*
G03X8421260Y-4208661I0019685J0000000D01*
G01X8407340Y-4013919D02*
G75*
G03X8401575Y-4027839I0013919J-013919D01*
G01X8445669Y-3967437D02*
G75*
G02X8439904Y-3981356I-019685J0000000D01*
M02*
