G04 This is an RS-274x file exported by *
G04 gerbv version  *
G04 More information is available about gerbv at *
G04 https://gerbv.github.io/ *
G04 --End of header info--*
%MOIN*%
%FSLAX36Y36*%
%IPPOS*%
G04 --Define apertures--*
%ADD10C,0.0059*%
%ADD11C,0.0047*%
%ADD12C,0.0000*%
G04 --Start main section--*
G54D10*
G01X4261769Y-4891539D02*
G01X4260269Y-4889664D01*
G01X4260269Y-4889664D02*
G01X4257270Y-4887789D01*
G01X4257270Y-4887789D02*
G01X4249771Y-4887789D01*
G01X4249771Y-4887789D02*
G01X4246771Y-4889664D01*
G01X4246771Y-4889664D02*
G01X4245271Y-4891539D01*
G01X4245271Y-4891539D02*
G01X4243771Y-4895288D01*
G01X4243771Y-4895288D02*
G01X4243771Y-4899038D01*
G01X4243771Y-4899038D02*
G01X4245271Y-4904662D01*
G01X4245271Y-4904662D02*
G01X4263269Y-4927159D01*
G01X4263269Y-4927159D02*
G01X4243771Y-4927159D01*
G01X4215275Y-4887789D02*
G01X4230273Y-4887789D01*
G01X4230273Y-4887789D02*
G01X4231773Y-4906537D01*
G01X4231773Y-4906537D02*
G01X4230273Y-4904662D01*
G01X4230273Y-4904662D02*
G01X4227273Y-4902787D01*
G01X4227273Y-4902787D02*
G01X4219774Y-4902787D01*
G01X4219774Y-4902787D02*
G01X4216775Y-4904662D01*
G01X4216775Y-4904662D02*
G01X4215275Y-4906537D01*
G01X4215275Y-4906537D02*
G01X4213775Y-4910286D01*
G01X4213775Y-4910286D02*
G01X4213775Y-4919660D01*
G01X4213775Y-4919660D02*
G01X4215275Y-4923410D01*
G01X4215275Y-4923410D02*
G01X4216775Y-4925285D01*
G01X4216775Y-4925285D02*
G01X4219774Y-4927159D01*
G01X4219774Y-4927159D02*
G01X4227273Y-4927159D01*
G01X4227273Y-4927159D02*
G01X4230273Y-4925285D01*
G01X4230273Y-4925285D02*
G01X4231773Y-4923410D01*
G01X4194277Y-4887789D02*
G01X4191278Y-4887789D01*
G01X4191278Y-4887789D02*
G01X4188278Y-4889664D01*
G01X4188278Y-4889664D02*
G01X4186778Y-4891539D01*
G01X4186778Y-4891539D02*
G01X4185279Y-4895288D01*
G01X4185279Y-4895288D02*
G01X4183779Y-4902787D01*
G01X4183779Y-4902787D02*
G01X4183779Y-4912161D01*
G01X4183779Y-4912161D02*
G01X4185279Y-4919660D01*
G01X4185279Y-4919660D02*
G01X4186778Y-4923410D01*
G01X4186778Y-4923410D02*
G01X4188278Y-4925285D01*
G01X4188278Y-4925285D02*
G01X4191278Y-4927159D01*
G01X4191278Y-4927159D02*
G01X4194277Y-4927159D01*
G01X4194277Y-4927159D02*
G01X4197277Y-4925285D01*
G01X4197277Y-4925285D02*
G01X4198777Y-4923410D01*
G01X4198777Y-4923410D02*
G01X4200277Y-4919660D01*
G01X4200277Y-4919660D02*
G01X4201777Y-4912161D01*
G01X4201777Y-4912161D02*
G01X4201777Y-4902787D01*
G01X4201777Y-4902787D02*
G01X4200277Y-4895288D01*
G01X4200277Y-4895288D02*
G01X4198777Y-4891539D01*
G01X4198777Y-4891539D02*
G01X4197277Y-4889664D01*
G01X4197277Y-4889664D02*
G01X4194277Y-4887789D01*
G01X4174780Y-4887789D02*
G01X4164281Y-4927159D01*
G01X4164281Y-4927159D02*
G01X4153783Y-4887789D01*
G01X4144784Y-4915911D02*
G01X4129786Y-4915911D01*
G01X4147783Y-4927159D02*
G01X4137285Y-4887789D01*
G01X4137285Y-4887789D02*
G01X4126786Y-4927159D01*
G01X4098289Y-4923410D02*
G01X4099789Y-4925285D01*
G01X4099789Y-4925285D02*
G01X4104289Y-4927159D01*
G01X4104289Y-4927159D02*
G01X4107288Y-4927159D01*
G01X4107288Y-4927159D02*
G01X4111788Y-4925285D01*
G01X4111788Y-4925285D02*
G01X4114787Y-4921535D01*
G01X4114787Y-4921535D02*
G01X4116287Y-4917785D01*
G01X4116287Y-4917785D02*
G01X4117787Y-4910286D01*
G01X4117787Y-4910286D02*
G01X4117787Y-4904662D01*
G01X4117787Y-4904662D02*
G01X4116287Y-4897163D01*
G01X4116287Y-4897163D02*
G01X4114787Y-4893414D01*
G01X4114787Y-4893414D02*
G01X4111788Y-4889664D01*
G01X4111788Y-4889664D02*
G01X4107288Y-4887789D01*
G01X4107288Y-4887789D02*
G01X4104289Y-4887789D01*
G01X4104289Y-4887789D02*
G01X4099789Y-4889664D01*
G01X4099789Y-4889664D02*
G01X4098289Y-4891539D01*
G01X4261769Y-4954922D02*
G01X4260269Y-4953048D01*
G01X4260269Y-4953048D02*
G01X4257270Y-4951173D01*
G01X4257270Y-4951173D02*
G01X4249771Y-4951173D01*
G01X4249771Y-4951173D02*
G01X4246771Y-4953048D01*
G01X4246771Y-4953048D02*
G01X4245271Y-4954922D01*
G01X4245271Y-4954922D02*
G01X4243771Y-4958672D01*
G01X4243771Y-4958672D02*
G01X4243771Y-4962421D01*
G01X4243771Y-4962421D02*
G01X4245271Y-4968046D01*
G01X4245271Y-4968046D02*
G01X4263269Y-4990543D01*
G01X4263269Y-4990543D02*
G01X4243771Y-4990543D01*
G01X4215275Y-4951173D02*
G01X4230273Y-4951173D01*
G01X4230273Y-4951173D02*
G01X4231773Y-4969921D01*
G01X4231773Y-4969921D02*
G01X4230273Y-4968046D01*
G01X4230273Y-4968046D02*
G01X4227273Y-4966171D01*
G01X4227273Y-4966171D02*
G01X4219774Y-4966171D01*
G01X4219774Y-4966171D02*
G01X4216775Y-4968046D01*
G01X4216775Y-4968046D02*
G01X4215275Y-4969921D01*
G01X4215275Y-4969921D02*
G01X4213775Y-4973670D01*
G01X4213775Y-4973670D02*
G01X4213775Y-4983044D01*
G01X4213775Y-4983044D02*
G01X4215275Y-4986793D01*
G01X4215275Y-4986793D02*
G01X4216775Y-4988668D01*
G01X4216775Y-4988668D02*
G01X4219774Y-4990543D01*
G01X4219774Y-4990543D02*
G01X4227273Y-4990543D01*
G01X4227273Y-4990543D02*
G01X4230273Y-4988668D01*
G01X4230273Y-4988668D02*
G01X4231773Y-4986793D01*
G01X4194277Y-4951173D02*
G01X4191278Y-4951173D01*
G01X4191278Y-4951173D02*
G01X4188278Y-4953048D01*
G01X4188278Y-4953048D02*
G01X4186778Y-4954922D01*
G01X4186778Y-4954922D02*
G01X4185279Y-4958672D01*
G01X4185279Y-4958672D02*
G01X4183779Y-4966171D01*
G01X4183779Y-4966171D02*
G01X4183779Y-4975545D01*
G01X4183779Y-4975545D02*
G01X4185279Y-4983044D01*
G01X4185279Y-4983044D02*
G01X4186778Y-4986793D01*
G01X4186778Y-4986793D02*
G01X4188278Y-4988668D01*
G01X4188278Y-4988668D02*
G01X4191278Y-4990543D01*
G01X4191278Y-4990543D02*
G01X4194277Y-4990543D01*
G01X4194277Y-4990543D02*
G01X4197277Y-4988668D01*
G01X4197277Y-4988668D02*
G01X4198777Y-4986793D01*
G01X4198777Y-4986793D02*
G01X4200277Y-4983044D01*
G01X4200277Y-4983044D02*
G01X4201777Y-4975545D01*
G01X4201777Y-4975545D02*
G01X4201777Y-4966171D01*
G01X4201777Y-4966171D02*
G01X4200277Y-4958672D01*
G01X4200277Y-4958672D02*
G01X4198777Y-4954922D01*
G01X4198777Y-4954922D02*
G01X4197277Y-4953048D01*
G01X4197277Y-4953048D02*
G01X4194277Y-4951173D01*
G01X4170280Y-4990543D02*
G01X4170280Y-4964296D01*
G01X4170280Y-4968046D02*
G01X4168781Y-4966171D01*
G01X4168781Y-4966171D02*
G01X4165781Y-4964296D01*
G01X4165781Y-4964296D02*
G01X4161282Y-4964296D01*
G01X4161282Y-4964296D02*
G01X4158282Y-4966171D01*
G01X4158282Y-4966171D02*
G01X4156782Y-4969921D01*
G01X4156782Y-4969921D02*
G01X4156782Y-4990543D01*
G01X4156782Y-4969921D02*
G01X4155282Y-4966171D01*
G01X4155282Y-4966171D02*
G01X4152283Y-4964296D01*
G01X4152283Y-4964296D02*
G01X4147783Y-4964296D01*
G01X4147783Y-4964296D02*
G01X4144784Y-4966171D01*
G01X4144784Y-4966171D02*
G01X4143284Y-4969921D01*
G01X4143284Y-4969921D02*
G01X4143284Y-4990543D01*
G01X4129786Y-4979294D02*
G01X4114787Y-4979294D01*
G01X4132785Y-4990543D02*
G01X4122286Y-4951173D01*
G01X4122286Y-4951173D02*
G01X4111788Y-4990543D01*
G01X4081792Y-4951173D02*
G01X4063794Y-4951173D01*
G01X4072793Y-4990543D02*
G01X4072793Y-4951173D01*
G54D11*
G01X4403529Y-4702820D02*
G01X4401841Y-4700945D01*
G01X4401841Y-4700945D02*
G01X4398467Y-4699070D01*
G01X4398467Y-4699070D02*
G01X4390030Y-4699070D01*
G01X4390030Y-4699070D02*
G01X4386656Y-4700945D01*
G01X4386656Y-4700945D02*
G01X4384968Y-4702820D01*
G01X4384968Y-4702820D02*
G01X4383281Y-4706569D01*
G01X4383281Y-4706569D02*
G01X4383281Y-4710319D01*
G01X4383281Y-4710319D02*
G01X4384968Y-4715943D01*
G01X4384968Y-4715943D02*
G01X4405216Y-4738440D01*
G01X4405216Y-4738440D02*
G01X4383281Y-4738440D01*
G01X4371470Y-4699070D02*
G01X4349535Y-4699070D01*
G01X4349535Y-4699070D02*
G01X4361346Y-4714068D01*
G01X4361346Y-4714068D02*
G01X4356284Y-4714068D01*
G01X4356284Y-4714068D02*
G01X4352910Y-4715943D01*
G01X4352910Y-4715943D02*
G01X4351223Y-4717818D01*
G01X4351223Y-4717818D02*
G01X4349535Y-4721567D01*
G01X4349535Y-4721567D02*
G01X4349535Y-4730941D01*
G01X4349535Y-4730941D02*
G01X4351223Y-4734691D01*
G01X4351223Y-4734691D02*
G01X4352910Y-4736565D01*
G01X4352910Y-4736565D02*
G01X4356284Y-4738440D01*
G01X4356284Y-4738440D02*
G01X4366408Y-4738440D01*
G01X4366408Y-4738440D02*
G01X4369783Y-4736565D01*
G01X4369783Y-4736565D02*
G01X4371470Y-4734691D01*
G01X4327600Y-4699070D02*
G01X4324226Y-4699070D01*
G01X4324226Y-4699070D02*
G01X4320851Y-4700945D01*
G01X4320851Y-4700945D02*
G01X4319164Y-4702820D01*
G01X4319164Y-4702820D02*
G01X4317477Y-4706569D01*
G01X4317477Y-4706569D02*
G01X4315789Y-4714068D01*
G01X4315789Y-4714068D02*
G01X4315789Y-4723442D01*
G01X4315789Y-4723442D02*
G01X4317477Y-4730941D01*
G01X4317477Y-4730941D02*
G01X4319164Y-4734691D01*
G01X4319164Y-4734691D02*
G01X4320851Y-4736565D01*
G01X4320851Y-4736565D02*
G01X4324226Y-4738440D01*
G01X4324226Y-4738440D02*
G01X4327600Y-4738440D01*
G01X4327600Y-4738440D02*
G01X4330975Y-4736565D01*
G01X4330975Y-4736565D02*
G01X4332662Y-4734691D01*
G01X4332662Y-4734691D02*
G01X4334350Y-4730941D01*
G01X4334350Y-4730941D02*
G01X4336037Y-4723442D01*
G01X4336037Y-4723442D02*
G01X4336037Y-4714068D01*
G01X4336037Y-4714068D02*
G01X4334350Y-4706569D01*
G01X4334350Y-4706569D02*
G01X4332662Y-4702820D01*
G01X4332662Y-4702820D02*
G01X4330975Y-4700945D01*
G01X4330975Y-4700945D02*
G01X4327600Y-4699070D01*
G01X4305666Y-4699070D02*
G01X4293855Y-4738440D01*
G01X4293855Y-4738440D02*
G01X4282044Y-4699070D01*
G01X4271920Y-4727191D02*
G01X4255047Y-4727191D01*
G01X4275294Y-4738440D02*
G01X4263483Y-4699070D01*
G01X4263483Y-4699070D02*
G01X4251672Y-4738440D01*
G01X4219614Y-4734691D02*
G01X4221301Y-4736565D01*
G01X4221301Y-4736565D02*
G01X4226363Y-4738440D01*
G01X4226363Y-4738440D02*
G01X4229738Y-4738440D01*
G01X4229738Y-4738440D02*
G01X4234800Y-4736565D01*
G01X4234800Y-4736565D02*
G01X4238174Y-4732816D01*
G01X4238174Y-4732816D02*
G01X4239861Y-4729066D01*
G01X4239861Y-4729066D02*
G01X4241549Y-4721567D01*
G01X4241549Y-4721567D02*
G01X4241549Y-4715943D01*
G01X4241549Y-4715943D02*
G01X4239861Y-4708444D01*
G01X4239861Y-4708444D02*
G01X4238174Y-4704694D01*
G01X4238174Y-4704694D02*
G01X4234800Y-4700945D01*
G01X4234800Y-4700945D02*
G01X4229738Y-4699070D01*
G01X4229738Y-4699070D02*
G01X4226363Y-4699070D01*
G01X4226363Y-4699070D02*
G01X4221301Y-4700945D01*
G01X4221301Y-4700945D02*
G01X4219614Y-4702820D01*
G01X4152872Y-4809012D02*
G01X4152872Y-4761768D01*
G01X4152872Y-4761768D02*
G01X4130375Y-4809012D01*
G01X4130375Y-4809012D02*
G01X4130375Y-4761768D01*
G01X4330975Y-4809012D02*
G01X4349723Y-4809012D01*
G01X4349723Y-4809012D02*
G01X4349723Y-4761768D01*
G54D10*
G01X4468931Y-4323120D02*
G01X4463306Y-4325932D01*
G01X4463306Y-4325932D02*
G01X4453933Y-4325932D01*
G01X4453933Y-4325932D02*
G01X4450183Y-4323120D01*
G01X4450183Y-4323120D02*
G01X4448308Y-4320308D01*
G01X4448308Y-4320308D02*
G01X4446434Y-4314683D01*
G01X4446434Y-4314683D02*
G01X4446434Y-4309059D01*
G01X4446434Y-4309059D02*
G01X4448308Y-4303435D01*
G01X4448308Y-4303435D02*
G01X4450183Y-4300623D01*
G01X4450183Y-4300623D02*
G01X4453933Y-4297810D01*
G01X4453933Y-4297810D02*
G01X4461432Y-4294998D01*
G01X4461432Y-4294998D02*
G01X4465181Y-4292186D01*
G01X4465181Y-4292186D02*
G01X4467056Y-4289374D01*
G01X4467056Y-4289374D02*
G01X4468931Y-4283750D01*
G01X4468931Y-4283750D02*
G01X4468931Y-4278125D01*
G01X4468931Y-4278125D02*
G01X4467056Y-4272501D01*
G01X4467056Y-4272501D02*
G01X4465181Y-4269689D01*
G01X4465181Y-4269689D02*
G01X4461432Y-4266877D01*
G01X4461432Y-4266877D02*
G01X4452058Y-4266877D01*
G01X4452058Y-4266877D02*
G01X4446434Y-4269689D01*
G01X4412688Y-4323120D02*
G01X4416437Y-4325932D01*
G01X4416437Y-4325932D02*
G01X4423936Y-4325932D01*
G01X4423936Y-4325932D02*
G01X4427686Y-4323120D01*
G01X4427686Y-4323120D02*
G01X4429561Y-4320308D01*
G01X4429561Y-4320308D02*
G01X4431435Y-4314683D01*
G01X4431435Y-4314683D02*
G01X4431435Y-4297810D01*
G01X4431435Y-4297810D02*
G01X4429561Y-4292186D01*
G01X4429561Y-4292186D02*
G01X4427686Y-4289374D01*
G01X4427686Y-4289374D02*
G01X4423936Y-4286562D01*
G01X4423936Y-4286562D02*
G01X4416437Y-4286562D01*
G01X4416437Y-4286562D02*
G01X4412688Y-4289374D01*
G01X4395815Y-4325932D02*
G01X4395815Y-4266877D01*
G01X4378942Y-4325932D02*
G01X4378942Y-4294998D01*
G01X4378942Y-4294998D02*
G01X4380817Y-4289374D01*
G01X4380817Y-4289374D02*
G01X4384566Y-4286562D01*
G01X4384566Y-4286562D02*
G01X4390191Y-4286562D01*
G01X4390191Y-4286562D02*
G01X4393940Y-4289374D01*
G01X4393940Y-4289374D02*
G01X4395815Y-4292186D01*
G01X4360194Y-4320308D02*
G01X4358319Y-4323120D01*
G01X4358319Y-4323120D02*
G01X4360194Y-4325932D01*
G01X4360194Y-4325932D02*
G01X4362069Y-4323120D01*
G01X4362069Y-4323120D02*
G01X4360194Y-4320308D01*
G01X4360194Y-4320308D02*
G01X4360194Y-4325932D01*
G01X4320824Y-4325932D02*
G01X4343321Y-4325932D01*
G01X4332073Y-4325932D02*
G01X4332073Y-4266877D01*
G01X4332073Y-4266877D02*
G01X4335822Y-4275313D01*
G01X4335822Y-4275313D02*
G01X4339572Y-4280938D01*
G01X4339572Y-4280938D02*
G01X4343321Y-4283750D01*
G01X4287078Y-4286562D02*
G01X4287078Y-4325932D01*
G01X4296452Y-4264065D02*
G01X4305826Y-4306247D01*
G01X4305826Y-4306247D02*
G01X4281454Y-4306247D01*
G01X4213963Y-4325932D02*
G01X4227086Y-4297810D01*
G01X4236460Y-4325932D02*
G01X4236460Y-4266877D01*
G01X4236460Y-4266877D02*
G01X4221462Y-4266877D01*
G01X4221462Y-4266877D02*
G01X4217712Y-4269689D01*
G01X4217712Y-4269689D02*
G01X4215837Y-4272501D01*
G01X4215837Y-4272501D02*
G01X4213963Y-4278125D01*
G01X4213963Y-4278125D02*
G01X4213963Y-4286562D01*
G01X4213963Y-4286562D02*
G01X4215837Y-4292186D01*
G01X4215837Y-4292186D02*
G01X4217712Y-4294998D01*
G01X4217712Y-4294998D02*
G01X4221462Y-4297810D01*
G01X4221462Y-4297810D02*
G01X4236460Y-4297810D01*
G01X4197090Y-4320308D02*
G01X4195215Y-4323120D01*
G01X4195215Y-4323120D02*
G01X4197090Y-4325932D01*
G01X4197090Y-4325932D02*
G01X4198964Y-4323120D01*
G01X4198964Y-4323120D02*
G01X4197090Y-4320308D01*
G01X4197090Y-4320308D02*
G01X4197090Y-4325932D01*
G01X4170843Y-4266877D02*
G01X4167093Y-4266877D01*
G01X4167093Y-4266877D02*
G01X4163344Y-4269689D01*
G01X4163344Y-4269689D02*
G01X4161469Y-4272501D01*
G01X4161469Y-4272501D02*
G01X4159594Y-4278125D01*
G01X4159594Y-4278125D02*
G01X4157720Y-4289374D01*
G01X4157720Y-4289374D02*
G01X4157720Y-4303435D01*
G01X4157720Y-4303435D02*
G01X4159594Y-4314683D01*
G01X4159594Y-4314683D02*
G01X4161469Y-4320308D01*
G01X4161469Y-4320308D02*
G01X4163344Y-4323120D01*
G01X4163344Y-4323120D02*
G01X4167093Y-4325932D01*
G01X4167093Y-4325932D02*
G01X4170843Y-4325932D01*
G01X4170843Y-4325932D02*
G01X4174592Y-4323120D01*
G01X4174592Y-4323120D02*
G01X4176467Y-4320308D01*
G01X4176467Y-4320308D02*
G01X4178342Y-4314683D01*
G01X4178342Y-4314683D02*
G01X4180217Y-4303435D01*
G01X4180217Y-4303435D02*
G01X4180217Y-4289374D01*
G01X4180217Y-4289374D02*
G01X4178342Y-4278125D01*
G01X4178342Y-4278125D02*
G01X4176467Y-4272501D01*
G01X4176467Y-4272501D02*
G01X4174592Y-4269689D01*
G01X4174592Y-4269689D02*
G01X4170843Y-4266877D01*
G01X4120224Y-4325932D02*
G01X4142721Y-4325932D01*
G01X4131473Y-4325932D02*
G01X4131473Y-4266877D01*
G01X4131473Y-4266877D02*
G01X4135222Y-4275313D01*
G01X4135222Y-4275313D02*
G01X4138972Y-4280938D01*
G01X4138972Y-4280938D02*
G01X4142721Y-4283750D01*
G01X4459557Y-4361952D02*
G01X4455807Y-4361952D01*
G01X4455807Y-4361952D02*
G01X4452058Y-4364764D01*
G01X4452058Y-4364764D02*
G01X4450183Y-4367576D01*
G01X4450183Y-4367576D02*
G01X4448308Y-4373201D01*
G01X4448308Y-4373201D02*
G01X4446434Y-4384449D01*
G01X4446434Y-4384449D02*
G01X4446434Y-4398510D01*
G01X4446434Y-4398510D02*
G01X4448308Y-4409759D01*
G01X4448308Y-4409759D02*
G01X4450183Y-4415383D01*
G01X4450183Y-4415383D02*
G01X4452058Y-4418195D01*
G01X4452058Y-4418195D02*
G01X4455807Y-4421007D01*
G01X4455807Y-4421007D02*
G01X4459557Y-4421007D01*
G01X4459557Y-4421007D02*
G01X4463306Y-4418195D01*
G01X4463306Y-4418195D02*
G01X4465181Y-4415383D01*
G01X4465181Y-4415383D02*
G01X4467056Y-4409759D01*
G01X4467056Y-4409759D02*
G01X4468931Y-4398510D01*
G01X4468931Y-4398510D02*
G01X4468931Y-4384449D01*
G01X4468931Y-4384449D02*
G01X4467056Y-4373201D01*
G01X4467056Y-4373201D02*
G01X4465181Y-4367576D01*
G01X4465181Y-4367576D02*
G01X4463306Y-4364764D01*
G01X4463306Y-4364764D02*
G01X4459557Y-4361952D01*
G01X4412688Y-4361952D02*
G01X4420187Y-4361952D01*
G01X4420187Y-4361952D02*
G01X4423936Y-4364764D01*
G01X4423936Y-4364764D02*
G01X4425811Y-4367576D01*
G01X4425811Y-4367576D02*
G01X4429561Y-4376013D01*
G01X4429561Y-4376013D02*
G01X4431435Y-4387262D01*
G01X4431435Y-4387262D02*
G01X4431435Y-4409759D01*
G01X4431435Y-4409759D02*
G01X4429561Y-4415383D01*
G01X4429561Y-4415383D02*
G01X4427686Y-4418195D01*
G01X4427686Y-4418195D02*
G01X4423936Y-4421007D01*
G01X4423936Y-4421007D02*
G01X4416437Y-4421007D01*
G01X4416437Y-4421007D02*
G01X4412688Y-4418195D01*
G01X4412688Y-4418195D02*
G01X4410813Y-4415383D01*
G01X4410813Y-4415383D02*
G01X4408938Y-4409759D01*
G01X4408938Y-4409759D02*
G01X4408938Y-4395698D01*
G01X4408938Y-4395698D02*
G01X4410813Y-4390074D01*
G01X4410813Y-4390074D02*
G01X4412688Y-4387262D01*
G01X4412688Y-4387262D02*
G01X4416437Y-4384449D01*
G01X4416437Y-4384449D02*
G01X4423936Y-4384449D01*
G01X4423936Y-4384449D02*
G01X4427686Y-4387262D01*
G01X4427686Y-4387262D02*
G01X4429561Y-4390074D01*
G01X4429561Y-4390074D02*
G01X4431435Y-4395698D01*
G01X4363944Y-4359140D02*
G01X4397690Y-4435068D01*
G01X4352695Y-4367576D02*
G01X4350820Y-4364764D01*
G01X4350820Y-4364764D02*
G01X4347071Y-4361952D01*
G01X4347071Y-4361952D02*
G01X4337697Y-4361952D01*
G01X4337697Y-4361952D02*
G01X4333948Y-4364764D01*
G01X4333948Y-4364764D02*
G01X4332073Y-4367576D01*
G01X4332073Y-4367576D02*
G01X4330198Y-4373201D01*
G01X4330198Y-4373201D02*
G01X4330198Y-4378825D01*
G01X4330198Y-4378825D02*
G01X4332073Y-4387262D01*
G01X4332073Y-4387262D02*
G01X4354570Y-4421007D01*
G01X4354570Y-4421007D02*
G01X4330198Y-4421007D01*
G01X4305826Y-4361952D02*
G01X4302077Y-4361952D01*
G01X4302077Y-4361952D02*
G01X4298327Y-4364764D01*
G01X4298327Y-4364764D02*
G01X4296452Y-4367576D01*
G01X4296452Y-4367576D02*
G01X4294577Y-4373201D01*
G01X4294577Y-4373201D02*
G01X4292703Y-4384449D01*
G01X4292703Y-4384449D02*
G01X4292703Y-4398510D01*
G01X4292703Y-4398510D02*
G01X4294577Y-4409759D01*
G01X4294577Y-4409759D02*
G01X4296452Y-4415383D01*
G01X4296452Y-4415383D02*
G01X4298327Y-4418195D01*
G01X4298327Y-4418195D02*
G01X4302077Y-4421007D01*
G01X4302077Y-4421007D02*
G01X4305826Y-4421007D01*
G01X4305826Y-4421007D02*
G01X4309576Y-4418195D01*
G01X4309576Y-4418195D02*
G01X4311450Y-4415383D01*
G01X4311450Y-4415383D02*
G01X4313325Y-4409759D01*
G01X4313325Y-4409759D02*
G01X4315200Y-4398510D01*
G01X4315200Y-4398510D02*
G01X4315200Y-4384449D01*
G01X4315200Y-4384449D02*
G01X4313325Y-4373201D01*
G01X4313325Y-4373201D02*
G01X4311450Y-4367576D01*
G01X4311450Y-4367576D02*
G01X4309576Y-4364764D01*
G01X4309576Y-4364764D02*
G01X4305826Y-4361952D01*
G01X4277705Y-4367576D02*
G01X4275830Y-4364764D01*
G01X4275830Y-4364764D02*
G01X4272080Y-4361952D01*
G01X4272080Y-4361952D02*
G01X4262706Y-4361952D01*
G01X4262706Y-4361952D02*
G01X4258957Y-4364764D01*
G01X4258957Y-4364764D02*
G01X4257082Y-4367576D01*
G01X4257082Y-4367576D02*
G01X4255207Y-4373201D01*
G01X4255207Y-4373201D02*
G01X4255207Y-4378825D01*
G01X4255207Y-4378825D02*
G01X4257082Y-4387262D01*
G01X4257082Y-4387262D02*
G01X4279579Y-4421007D01*
G01X4279579Y-4421007D02*
G01X4255207Y-4421007D01*
G01X4221462Y-4361952D02*
G01X4228961Y-4361952D01*
G01X4228961Y-4361952D02*
G01X4232710Y-4364764D01*
G01X4232710Y-4364764D02*
G01X4234585Y-4367576D01*
G01X4234585Y-4367576D02*
G01X4238334Y-4376013D01*
G01X4238334Y-4376013D02*
G01X4240209Y-4387262D01*
G01X4240209Y-4387262D02*
G01X4240209Y-4409759D01*
G01X4240209Y-4409759D02*
G01X4238334Y-4415383D01*
G01X4238334Y-4415383D02*
G01X4236460Y-4418195D01*
G01X4236460Y-4418195D02*
G01X4232710Y-4421007D01*
G01X4232710Y-4421007D02*
G01X4225211Y-4421007D01*
G01X4225211Y-4421007D02*
G01X4221462Y-4418195D01*
G01X4221462Y-4418195D02*
G01X4219587Y-4415383D01*
G01X4219587Y-4415383D02*
G01X4217712Y-4409759D01*
G01X4217712Y-4409759D02*
G01X4217712Y-4395698D01*
G01X4217712Y-4395698D02*
G01X4219587Y-4390074D01*
G01X4219587Y-4390074D02*
G01X4221462Y-4387262D01*
G01X4221462Y-4387262D02*
G01X4225211Y-4384449D01*
G01X4225211Y-4384449D02*
G01X4232710Y-4384449D01*
G01X4232710Y-4384449D02*
G01X4236460Y-4387262D01*
G01X4236460Y-4387262D02*
G01X4238334Y-4390074D01*
G01X4238334Y-4390074D02*
G01X4240209Y-4395698D01*
G54D11*
G01X4229738Y-2268357D02*
G01X4193742Y-2268357D01*
G01X4426588Y-2268357D02*
G01X4390593Y-2268357D01*
G01X4408590Y-2290854D02*
G01X4408590Y-2245859D01*
G54D10*
G01X4514675Y-2140061D02*
G01X4492178Y-2140061D01*
G01X4519174Y-2156934D02*
G01X4503426Y-2097879D01*
G01X4503426Y-2097879D02*
G01X4487678Y-2156934D01*
G01X4465181Y-2156934D02*
G01X4469681Y-2154122D01*
G01X4469681Y-2154122D02*
G01X4471930Y-2148498D01*
G01X4471930Y-2148498D02*
G01X4471930Y-2097879D01*
G01X4447183Y-2156934D02*
G01X4447183Y-2117564D01*
G01X4447183Y-2097879D02*
G01X4449433Y-2100691D01*
G01X4449433Y-2100691D02*
G01X4447183Y-2103503D01*
G01X4447183Y-2103503D02*
G01X4444934Y-2100691D01*
G01X4444934Y-2100691D02*
G01X4447183Y-2097879D01*
G01X4447183Y-2097879D02*
G01X4447183Y-2103503D01*
G01X4424686Y-2156934D02*
G01X4424686Y-2117564D01*
G01X4424686Y-2123188D02*
G01X4422436Y-2120376D01*
G01X4422436Y-2120376D02*
G01X4417937Y-2117564D01*
G01X4417937Y-2117564D02*
G01X4411188Y-2117564D01*
G01X4411188Y-2117564D02*
G01X4406688Y-2120376D01*
G01X4406688Y-2120376D02*
G01X4404439Y-2126001D01*
G01X4404439Y-2126001D02*
G01X4404439Y-2156934D01*
G01X4404439Y-2126001D02*
G01X4402189Y-2120376D01*
G01X4402189Y-2120376D02*
G01X4397690Y-2117564D01*
G01X4397690Y-2117564D02*
G01X4390940Y-2117564D01*
G01X4390940Y-2117564D02*
G01X4386441Y-2120376D01*
G01X4386441Y-2120376D02*
G01X4384191Y-2126001D01*
G01X4384191Y-2126001D02*
G01X4384191Y-2156934D01*
G01X4361694Y-2151310D02*
G01X4359444Y-2154122D01*
G01X4359444Y-2154122D02*
G01X4361694Y-2156934D01*
G01X4361694Y-2156934D02*
G01X4363944Y-2154122D01*
G01X4363944Y-2154122D02*
G01X4361694Y-2151310D01*
G01X4361694Y-2151310D02*
G01X4361694Y-2156934D01*
G01X4303201Y-2134437D02*
G01X4267206Y-2134437D01*
G01X4285204Y-2156934D02*
G01X4285204Y-2111940D01*
G01X4222212Y-2097879D02*
G01X4244709Y-2097879D01*
G01X4244709Y-2097879D02*
G01X4246958Y-2126001D01*
G01X4246958Y-2126001D02*
G01X4244709Y-2123188D01*
G01X4244709Y-2123188D02*
G01X4240209Y-2120376D01*
G01X4240209Y-2120376D02*
G01X4228961Y-2120376D01*
G01X4228961Y-2120376D02*
G01X4224461Y-2123188D01*
G01X4224461Y-2123188D02*
G01X4222212Y-2126001D01*
G01X4222212Y-2126001D02*
G01X4219962Y-2131625D01*
G01X4219962Y-2131625D02*
G01X4219962Y-2145686D01*
G01X4219962Y-2145686D02*
G01X4222212Y-2151310D01*
G01X4222212Y-2151310D02*
G01X4224461Y-2154122D01*
G01X4224461Y-2154122D02*
G01X4228961Y-2156934D01*
G01X4228961Y-2156934D02*
G01X4240209Y-2156934D01*
G01X4240209Y-2156934D02*
G01X4244709Y-2154122D01*
G01X4244709Y-2154122D02*
G01X4246958Y-2151310D01*
G01X4206464Y-2097879D02*
G01X4190715Y-2156934D01*
G01X4190715Y-2156934D02*
G01X4174967Y-2097879D01*
G01X4159219Y-2156934D02*
G01X4159219Y-2097879D01*
G01X4159219Y-2097879D02*
G01X4147971Y-2097879D01*
G01X4147971Y-2097879D02*
G01X4141222Y-2100691D01*
G01X4141222Y-2100691D02*
G01X4136722Y-2106316D01*
G01X4136722Y-2106316D02*
G01X4134473Y-2111940D01*
G01X4134473Y-2111940D02*
G01X4132223Y-2123188D01*
G01X4132223Y-2123188D02*
G01X4132223Y-2131625D01*
G01X4132223Y-2131625D02*
G01X4134473Y-2142873D01*
G01X4134473Y-2142873D02*
G01X4136722Y-2148498D01*
G01X4136722Y-2148498D02*
G01X4141222Y-2154122D01*
G01X4141222Y-2154122D02*
G01X4147971Y-2156934D01*
G01X4147971Y-2156934D02*
G01X4159219Y-2156934D01*
G01X4084979Y-2151310D02*
G01X4087228Y-2154122D01*
G01X4087228Y-2154122D02*
G01X4093978Y-2156934D01*
G01X4093978Y-2156934D02*
G01X4098477Y-2156934D01*
G01X4098477Y-2156934D02*
G01X4105226Y-2154122D01*
G01X4105226Y-2154122D02*
G01X4109726Y-2148498D01*
G01X4109726Y-2148498D02*
G01X4111975Y-2142873D01*
G01X4111975Y-2142873D02*
G01X4114225Y-2131625D01*
G01X4114225Y-2131625D02*
G01X4114225Y-2123188D01*
G01X4114225Y-2123188D02*
G01X4111975Y-2111940D01*
G01X4111975Y-2111940D02*
G01X4109726Y-2106316D01*
G01X4109726Y-2106316D02*
G01X4105226Y-2100691D01*
G01X4105226Y-2100691D02*
G01X4098477Y-2097879D01*
G01X4098477Y-2097879D02*
G01X4093978Y-2097879D01*
G01X4093978Y-2097879D02*
G01X4087228Y-2100691D01*
G01X4087228Y-2100691D02*
G01X4084979Y-2103503D01*
G01X4507867Y-4674438D02*
G01X4489119Y-4663939D01*
G01X4507867Y-4656440D02*
G01X4468497Y-4656440D01*
G01X4468497Y-4656440D02*
G01X4468497Y-4668438D01*
G01X4468497Y-4668438D02*
G01X4470372Y-4671438D01*
G01X4470372Y-4671438D02*
G01X4472246Y-4672938D01*
G01X4472246Y-4672938D02*
G01X4475996Y-4674438D01*
G01X4475996Y-4674438D02*
G01X4481620Y-4674438D01*
G01X4481620Y-4674438D02*
G01X4485370Y-4672938D01*
G01X4485370Y-4672938D02*
G01X4487244Y-4671438D01*
G01X4487244Y-4671438D02*
G01X4489119Y-4668438D01*
G01X4489119Y-4668438D02*
G01X4489119Y-4656440D01*
G01X4472246Y-4686436D02*
G01X4470372Y-4687936D01*
G01X4470372Y-4687936D02*
G01X4468497Y-4690935D01*
G01X4468497Y-4690935D02*
G01X4468497Y-4698435D01*
G01X4468497Y-4698435D02*
G01X4470372Y-4701434D01*
G01X4470372Y-4701434D02*
G01X4472246Y-4702934D01*
G01X4472246Y-4702934D02*
G01X4475996Y-4704434D01*
G01X4475996Y-4704434D02*
G01X4479745Y-4704434D01*
G01X4479745Y-4704434D02*
G01X4485370Y-4702934D01*
G01X4485370Y-4702934D02*
G01X4507867Y-4684936D01*
G01X4507867Y-4684936D02*
G01X4507867Y-4704434D01*
G01X4507867Y-4719432D02*
G01X4507867Y-4725431D01*
G01X4507867Y-4725431D02*
G01X4505992Y-4728431D01*
G01X4505992Y-4728431D02*
G01X4504117Y-4729931D01*
G01X4504117Y-4729931D02*
G01X4498493Y-4732930D01*
G01X4498493Y-4732930D02*
G01X4490994Y-4734430D01*
G01X4490994Y-4734430D02*
G01X4475996Y-4734430D01*
G01X4475996Y-4734430D02*
G01X4472246Y-4732930D01*
G01X4472246Y-4732930D02*
G01X4470372Y-4731430D01*
G01X4470372Y-4731430D02*
G01X4468497Y-4728431D01*
G01X4468497Y-4728431D02*
G01X4468497Y-4722432D01*
G01X4468497Y-4722432D02*
G01X4470372Y-4719432D01*
G01X4470372Y-4719432D02*
G01X4472246Y-4717932D01*
G01X4472246Y-4717932D02*
G01X4475996Y-4716432D01*
G01X4475996Y-4716432D02*
G01X4485370Y-4716432D01*
G01X4485370Y-4716432D02*
G01X4489119Y-4717932D01*
G01X4489119Y-4717932D02*
G01X4490994Y-4719432D01*
G01X4490994Y-4719432D02*
G01X4492869Y-4722432D01*
G01X4492869Y-4722432D02*
G01X4492869Y-4728431D01*
G01X4492869Y-4728431D02*
G01X4490994Y-4731430D01*
G01X4490994Y-4731430D02*
G01X4489119Y-4732930D01*
G01X4489119Y-4732930D02*
G01X4485370Y-4734430D01*
G01X4501940Y-4522040D02*
G01X4512439Y-4503292D01*
G01X4519938Y-4522040D02*
G01X4519938Y-4482670D01*
G01X4519938Y-4482670D02*
G01X4507940Y-4482670D01*
G01X4507940Y-4482670D02*
G01X4504940Y-4484545D01*
G01X4504940Y-4484545D02*
G01X4503440Y-4486420D01*
G01X4503440Y-4486420D02*
G01X4501940Y-4490169D01*
G01X4501940Y-4490169D02*
G01X4501940Y-4495793D01*
G01X4501940Y-4495793D02*
G01X4503440Y-4499543D01*
G01X4503440Y-4499543D02*
G01X4504940Y-4501418D01*
G01X4504940Y-4501418D02*
G01X4507940Y-4503292D01*
G01X4507940Y-4503292D02*
G01X4519938Y-4503292D01*
G01X4491442Y-4482670D02*
G01X4471944Y-4482670D01*
G01X4471944Y-4482670D02*
G01X4482443Y-4497668D01*
G01X4482443Y-4497668D02*
G01X4477943Y-4497668D01*
G01X4477943Y-4497668D02*
G01X4474944Y-4499543D01*
G01X4474944Y-4499543D02*
G01X4473444Y-4501418D01*
G01X4473444Y-4501418D02*
G01X4471944Y-4505167D01*
G01X4471944Y-4505167D02*
G01X4471944Y-4514541D01*
G01X4471944Y-4514541D02*
G01X4473444Y-4518291D01*
G01X4473444Y-4518291D02*
G01X4474944Y-4520165D01*
G01X4474944Y-4520165D02*
G01X4477943Y-4522040D01*
G01X4477943Y-4522040D02*
G01X4486942Y-4522040D01*
G01X4486942Y-4522040D02*
G01X4489942Y-4520165D01*
G01X4489942Y-4520165D02*
G01X4491442Y-4518291D01*
G01X4452447Y-4482670D02*
G01X4449447Y-4482670D01*
G01X4449447Y-4482670D02*
G01X4446447Y-4484545D01*
G01X4446447Y-4484545D02*
G01X4444947Y-4486420D01*
G01X4444947Y-4486420D02*
G01X4443448Y-4490169D01*
G01X4443448Y-4490169D02*
G01X4441948Y-4497668D01*
G01X4441948Y-4497668D02*
G01X4441948Y-4507042D01*
G01X4441948Y-4507042D02*
G01X4443448Y-4514541D01*
G01X4443448Y-4514541D02*
G01X4444947Y-4518291D01*
G01X4444947Y-4518291D02*
G01X4446447Y-4520165D01*
G01X4446447Y-4520165D02*
G01X4449447Y-4522040D01*
G01X4449447Y-4522040D02*
G01X4452447Y-4522040D01*
G01X4452447Y-4522040D02*
G01X4455446Y-4520165D01*
G01X4455446Y-4520165D02*
G01X4456946Y-4518291D01*
G01X4456946Y-4518291D02*
G01X4458446Y-4514541D01*
G01X4458446Y-4514541D02*
G01X4459946Y-4507042D01*
G01X4459946Y-4507042D02*
G01X4459946Y-4497668D01*
G01X4459946Y-4497668D02*
G01X4458446Y-4490169D01*
G01X4458446Y-4490169D02*
G01X4456946Y-4486420D01*
G01X4456946Y-4486420D02*
G01X4455446Y-4484545D01*
G01X4455446Y-4484545D02*
G01X4452447Y-4482670D01*
G01X4550656Y-5106339D02*
G01X4561155Y-5106339D01*
G01X4561155Y-5126961D02*
G01X4561155Y-5087591D01*
G01X4561155Y-5087591D02*
G01X4546157Y-5087591D01*
G01X4517660Y-5126961D02*
G01X4535658Y-5126961D01*
G01X4526659Y-5126961D02*
G01X4526659Y-5087591D01*
G01X4526659Y-5087591D02*
G01X4529659Y-5093216D01*
G01X4529659Y-5093216D02*
G01X4532658Y-5096965D01*
G01X4532658Y-5096965D02*
G01X4535658Y-5098840D01*
G01X4507867Y-4930343D02*
G01X4489119Y-4919844D01*
G01X4507867Y-4912345D02*
G01X4468497Y-4912345D01*
G01X4468497Y-4912345D02*
G01X4468497Y-4924344D01*
G01X4468497Y-4924344D02*
G01X4470372Y-4927343D01*
G01X4470372Y-4927343D02*
G01X4472246Y-4928843D01*
G01X4472246Y-4928843D02*
G01X4475996Y-4930343D01*
G01X4475996Y-4930343D02*
G01X4481620Y-4930343D01*
G01X4481620Y-4930343D02*
G01X4485370Y-4928843D01*
G01X4485370Y-4928843D02*
G01X4487244Y-4927343D01*
G01X4487244Y-4927343D02*
G01X4489119Y-4924344D01*
G01X4489119Y-4924344D02*
G01X4489119Y-4912345D01*
G01X4472246Y-4942342D02*
G01X4470372Y-4943841D01*
G01X4470372Y-4943841D02*
G01X4468497Y-4946841D01*
G01X4468497Y-4946841D02*
G01X4468497Y-4954340D01*
G01X4468497Y-4954340D02*
G01X4470372Y-4957340D01*
G01X4470372Y-4957340D02*
G01X4472246Y-4958839D01*
G01X4472246Y-4958839D02*
G01X4475996Y-4960339D01*
G01X4475996Y-4960339D02*
G01X4479745Y-4960339D01*
G01X4479745Y-4960339D02*
G01X4485370Y-4958839D01*
G01X4485370Y-4958839D02*
G01X4507867Y-4940842D01*
G01X4507867Y-4940842D02*
G01X4507867Y-4960339D01*
G01X4485370Y-4978337D02*
G01X4483495Y-4975337D01*
G01X4483495Y-4975337D02*
G01X4481620Y-4973838D01*
G01X4481620Y-4973838D02*
G01X4477871Y-4972338D01*
G01X4477871Y-4972338D02*
G01X4475996Y-4972338D01*
G01X4475996Y-4972338D02*
G01X4472246Y-4973838D01*
G01X4472246Y-4973838D02*
G01X4470372Y-4975337D01*
G01X4470372Y-4975337D02*
G01X4468497Y-4978337D01*
G01X4468497Y-4978337D02*
G01X4468497Y-4984336D01*
G01X4468497Y-4984336D02*
G01X4470372Y-4987336D01*
G01X4470372Y-4987336D02*
G01X4472246Y-4988836D01*
G01X4472246Y-4988836D02*
G01X4475996Y-4990336D01*
G01X4475996Y-4990336D02*
G01X4477871Y-4990336D01*
G01X4477871Y-4990336D02*
G01X4481620Y-4988836D01*
G01X4481620Y-4988836D02*
G01X4483495Y-4987336D01*
G01X4483495Y-4987336D02*
G01X4485370Y-4984336D01*
G01X4485370Y-4984336D02*
G01X4485370Y-4978337D01*
G01X4485370Y-4978337D02*
G01X4487244Y-4975337D01*
G01X4487244Y-4975337D02*
G01X4489119Y-4973838D01*
G01X4489119Y-4973838D02*
G01X4492869Y-4972338D01*
G01X4492869Y-4972338D02*
G01X4500368Y-4972338D01*
G01X4500368Y-4972338D02*
G01X4504117Y-4973838D01*
G01X4504117Y-4973838D02*
G01X4505992Y-4975337D01*
G01X4505992Y-4975337D02*
G01X4507867Y-4978337D01*
G01X4507867Y-4978337D02*
G01X4507867Y-4984336D01*
G01X4507867Y-4984336D02*
G01X4505992Y-4987336D01*
G01X4505992Y-4987336D02*
G01X4504117Y-4988836D01*
G01X4504117Y-4988836D02*
G01X4500368Y-4990336D01*
G01X4500368Y-4990336D02*
G01X4492869Y-4990336D01*
G01X4492869Y-4990336D02*
G01X4489119Y-4988836D01*
G01X4489119Y-4988836D02*
G01X4487244Y-4987336D01*
G01X4487244Y-4987336D02*
G01X4485370Y-4984336D01*
G01X4232846Y-4084048D02*
G01X4243345Y-4065300D01*
G01X4250844Y-4084048D02*
G01X4250844Y-4044678D01*
G01X4250844Y-4044678D02*
G01X4238845Y-4044678D01*
G01X4238845Y-4044678D02*
G01X4235846Y-4046553D01*
G01X4235846Y-4046553D02*
G01X4234346Y-4048427D01*
G01X4234346Y-4048427D02*
G01X4232846Y-4052177D01*
G01X4232846Y-4052177D02*
G01X4232846Y-4057801D01*
G01X4232846Y-4057801D02*
G01X4234346Y-4061551D01*
G01X4234346Y-4061551D02*
G01X4235846Y-4063426D01*
G01X4235846Y-4063426D02*
G01X4238845Y-4065300D01*
G01X4238845Y-4065300D02*
G01X4250844Y-4065300D01*
G01X4222347Y-4044678D02*
G01X4202850Y-4044678D01*
G01X4202850Y-4044678D02*
G01X4213348Y-4059676D01*
G01X4213348Y-4059676D02*
G01X4208849Y-4059676D01*
G01X4208849Y-4059676D02*
G01X4205849Y-4061551D01*
G01X4205849Y-4061551D02*
G01X4204349Y-4063426D01*
G01X4204349Y-4063426D02*
G01X4202850Y-4067175D01*
G01X4202850Y-4067175D02*
G01X4202850Y-4076549D01*
G01X4202850Y-4076549D02*
G01X4204349Y-4080298D01*
G01X4204349Y-4080298D02*
G01X4205849Y-4082173D01*
G01X4205849Y-4082173D02*
G01X4208849Y-4084048D01*
G01X4208849Y-4084048D02*
G01X4217848Y-4084048D01*
G01X4217848Y-4084048D02*
G01X4220847Y-4082173D01*
G01X4220847Y-4082173D02*
G01X4222347Y-4080298D01*
G01X4192351Y-4044678D02*
G01X4172853Y-4044678D01*
G01X4172853Y-4044678D02*
G01X4183352Y-4059676D01*
G01X4183352Y-4059676D02*
G01X4178853Y-4059676D01*
G01X4178853Y-4059676D02*
G01X4175853Y-4061551D01*
G01X4175853Y-4061551D02*
G01X4174353Y-4063426D01*
G01X4174353Y-4063426D02*
G01X4172853Y-4067175D01*
G01X4172853Y-4067175D02*
G01X4172853Y-4076549D01*
G01X4172853Y-4076549D02*
G01X4174353Y-4080298D01*
G01X4174353Y-4080298D02*
G01X4175853Y-4082173D01*
G01X4175853Y-4082173D02*
G01X4178853Y-4084048D01*
G01X4178853Y-4084048D02*
G01X4187851Y-4084048D01*
G01X4187851Y-4084048D02*
G01X4190851Y-4082173D01*
G01X4190851Y-4082173D02*
G01X4192351Y-4080298D01*
G54D11*
G01X4522244Y-4744801D02*
G01X4522244Y-4802050D01*
G01X4593898Y-4744801D02*
G01X4593898Y-4802050D01*
G01X4453068Y-4534055D02*
G01X4510317Y-4534055D01*
G01X4453068Y-4605709D02*
G01X4510317Y-4605709D01*
G54D12*
G36*
G01X4384021Y-3411133D02*
G01X4384021Y-3440661D01*
G01X4379090Y-3440661D01*
G01X4374159Y-3440661D01*
G01X4374159Y-3411133D01*
G01X4374159Y-3381606D01*
G01X4379090Y-3381606D01*
G01X4384021Y-3381606D01*
G01X4384021Y-3411133D01*
G37*
G36*
G01X4302639Y-3382118D02*
G01X4304067Y-3382737D01*
G01X4305062Y-3384281D01*
G01X4305721Y-3387354D01*
G01X4306143Y-3392557D01*
G01X4306422Y-3400492D01*
G01X4306658Y-3411761D01*
G01X4307205Y-3440933D01*
G01X4301727Y-3440305D01*
G01X4299747Y-3440023D01*
G01X4297725Y-3439119D01*
G01X4296592Y-3436877D01*
G01X4296003Y-3432429D01*
G01X4295616Y-3424913D01*
G01X4295471Y-3416805D01*
G01X4295691Y-3405686D01*
G01X4296288Y-3395764D01*
G01X4296547Y-3392989D01*
G01X4297298Y-3386699D01*
G01X4298221Y-3383295D01*
G01X4299633Y-3381986D01*
G01X4301853Y-3381984D01*
G01X4302639Y-3382118D01*
G37*
G36*
G01X4415579Y-3419007D02*
G01X4415579Y-3440661D01*
G01X4410648Y-3440661D01*
G01X4410107Y-3440658D01*
G01X4407645Y-3440308D01*
G01X4406333Y-3438735D01*
G01X4405811Y-3435035D01*
G01X4405717Y-3428304D01*
G01X4405498Y-3422829D01*
G01X4403805Y-3414283D01*
G01X4400521Y-3409003D01*
G01X4395743Y-3407196D01*
G01X4392856Y-3406156D01*
G01X4391910Y-3402275D01*
G01X4391940Y-3401005D01*
G01X4392775Y-3398111D01*
G01X4395396Y-3397632D01*
G01X4400658Y-3399274D01*
G01X4404148Y-3400199D01*
G01X4405717Y-3399274D01*
G01X4406941Y-3398011D01*
G01X4410648Y-3397354D01*
G01X4415579Y-3397354D01*
G01X4415579Y-3419007D01*
G37*
G36*
G01X4241713Y-3385549D02*
G01X4248246Y-3385719D01*
G01X4251901Y-3386286D01*
G01X4253494Y-3387467D01*
G01X4253843Y-3389480D01*
G01X4253797Y-3390432D01*
G01X4252823Y-3392345D01*
G01X4249848Y-3393213D01*
G01X4243905Y-3393417D01*
G01X4233966Y-3393417D01*
G01X4234536Y-3410433D01*
G01X4234548Y-3410783D01*
G01X4235250Y-3420771D01*
G01X4236692Y-3427197D01*
G01X4239122Y-3430397D01*
G01X4242791Y-3430705D01*
G01X4247948Y-3428458D01*
G01X4248477Y-3428157D01*
G01X4252270Y-3426282D01*
G01X4254307Y-3426615D01*
G01X4256063Y-3429311D01*
G01X4256833Y-3430943D01*
G01X4256859Y-3433967D01*
G01X4253887Y-3437084D01*
G01X4250555Y-3439096D01*
G01X4243094Y-3440718D01*
G01X4235407Y-3439602D01*
G01X4229099Y-3435829D01*
G01X4227908Y-3434591D01*
G01X4226208Y-3432265D01*
G01X4225138Y-3429292D01*
G01X4224553Y-3424850D01*
G01X4224307Y-3418117D01*
G01X4224258Y-3408270D01*
G01X4224258Y-3385543D01*
G01X4239050Y-3385543D01*
G01X4241713Y-3385549D01*
G37*
G36*
G01X4214771Y-3423247D02*
G01X4211764Y-3431087D01*
G01X4205892Y-3436819D01*
G01X4205517Y-3437041D01*
G01X4199477Y-3439595D01*
G01X4193686Y-3440646D01*
G01X4191406Y-3440511D01*
G01X4183481Y-3437968D01*
G01X4177037Y-3432848D01*
G01X4173256Y-3425999D01*
G01X4172548Y-3422665D01*
G01X4172683Y-3418834D01*
G01X4182908Y-3418834D01*
G01X4183465Y-3424570D01*
G01X4185204Y-3428456D01*
G01X4185235Y-3428487D01*
G01X4188805Y-3430134D01*
G01X4194011Y-3430818D01*
G01X4194139Y-3430818D01*
G01X4200015Y-3429376D01*
G01X4203429Y-3425021D01*
G01X4204534Y-3417562D01*
G01X4203630Y-3412114D01*
G01X4200121Y-3408378D01*
G01X4193686Y-3407196D01*
G01X4188766Y-3407864D01*
G01X4185204Y-3409558D01*
G01X4183533Y-3413152D01*
G01X4182908Y-3418834D01*
G01X4172683Y-3418834D01*
G01X4172860Y-3413810D01*
G01X4176139Y-3406406D01*
G01X4181734Y-3400947D01*
G01X4188992Y-3397929D01*
G01X4197262Y-3397847D01*
G01X4205892Y-3401196D01*
G01X4210135Y-3404710D01*
G01X4214116Y-3412015D01*
G01X4214623Y-3414173D01*
G01X4214678Y-3417562D01*
G01X4214771Y-3423247D01*
G37*
G36*
G01X4482159Y-3385510D02*
G01X4490858Y-3388829D01*
G01X4497919Y-3394581D01*
G01X4502445Y-3402519D01*
G01X4503983Y-3410674D01*
G01X4502675Y-3420804D01*
G01X4497901Y-3429801D01*
G01X4489929Y-3436927D01*
G01X4488375Y-3437788D01*
G01X4480786Y-3440008D01*
G01X4472271Y-3440239D01*
G01X4464320Y-3438569D01*
G01X4458424Y-3435084D01*
G01X4455996Y-3432431D01*
G01X4455398Y-3430158D01*
G01X4457372Y-3427634D01*
G01X4459235Y-3425978D01*
G01X4461610Y-3425555D01*
G01X4465145Y-3427626D01*
G01X4465911Y-3428138D01*
G01X4473340Y-3430934D01*
G01X4480517Y-3430334D01*
G01X4486640Y-3426780D01*
G01X4490902Y-3420714D01*
G01X4492502Y-3412578D01*
G01X4491627Y-3406188D01*
G01X4487981Y-3399398D01*
G01X4482148Y-3395210D01*
G01X4474839Y-3394070D01*
G01X4466760Y-3396422D01*
G01X4466622Y-3396493D01*
G01X4462300Y-3398455D01*
G01X4459717Y-3398432D01*
G01X4457247Y-3396426D01*
G01X4455825Y-3394879D01*
G01X4455278Y-3392741D01*
G01X4457894Y-3390325D01*
G01X4463434Y-3387149D01*
G01X4472718Y-3384868D01*
G01X4482159Y-3385510D01*
G37*
G36*
G01X4280994Y-3389215D02*
G01X4283129Y-3392433D01*
G01X4283971Y-3394820D01*
G01X4286608Y-3397944D01*
G01X4287920Y-3399087D01*
G01X4289232Y-3402443D01*
G01X4288708Y-3405721D01*
G01X4286388Y-3407196D01*
G01X4286000Y-3407224D01*
G01X4284449Y-3408499D01*
G01X4283653Y-3412209D01*
G01X4283429Y-3419097D01*
G01X4283394Y-3422329D01*
G01X4282859Y-3428359D01*
G01X4281354Y-3432432D01*
G01X4278465Y-3435951D01*
G01X4276419Y-3437657D01*
G01X4271257Y-3440045D01*
G01X4266171Y-3440513D01*
G01X4262291Y-3439073D01*
G01X4260747Y-3435740D01*
G01X4261940Y-3432613D01*
G01X4266171Y-3431180D01*
G01X4266428Y-3431150D01*
G01X4269339Y-3430543D01*
G01X4270881Y-3428951D01*
G01X4271489Y-3425390D01*
G01X4271595Y-3418877D01*
G01X4271595Y-3418435D01*
G01X4271477Y-3412122D01*
G01X4270862Y-3408765D01*
G01X4269346Y-3407433D01*
G01X4266527Y-3407196D01*
G01X4265168Y-3407157D01*
G01X4262353Y-3406075D01*
G01X4262089Y-3402767D01*
G01X4263144Y-3399993D01*
G01X4267036Y-3397725D01*
G01X4269688Y-3396699D01*
G01X4271967Y-3392804D01*
G01X4273761Y-3389602D01*
G01X4277326Y-3388290D01*
G01X4280994Y-3389215D01*
G37*
G36*
G01X4440945Y-3387524D02*
G01X4444292Y-3388615D01*
G01X4445165Y-3392203D01*
G01X4445796Y-3395291D01*
G01X4449110Y-3397924D01*
G01X4451397Y-3399141D01*
G01X4453054Y-3402275D01*
G01X4452318Y-3404393D01*
G01X4449110Y-3406626D01*
G01X4447413Y-3407316D01*
G01X4445980Y-3409270D01*
G01X4445323Y-3413255D01*
G01X4445165Y-3420221D01*
G01X4445158Y-3421669D01*
G01X4444760Y-3428843D01*
G01X4443540Y-3433470D01*
G01X4441220Y-3436724D01*
G01X4438800Y-3438586D01*
G01X4432106Y-3440609D01*
G01X4424834Y-3439549D01*
G01X4423293Y-3437982D01*
G01X4422912Y-3434873D01*
G01X4423973Y-3432116D01*
G01X4426185Y-3431456D01*
G01X4427915Y-3431606D01*
G01X4431851Y-3430483D01*
G01X4433781Y-3428712D01*
G01X4434967Y-3424798D01*
G01X4435303Y-3417954D01*
G01X4435225Y-3412646D01*
G01X4434673Y-3408974D01*
G01X4433203Y-3407480D01*
G01X4430372Y-3407196D01*
G01X4429463Y-3407176D01*
G01X4426256Y-3406021D01*
G01X4425441Y-3402275D01*
G01X4425462Y-3401368D01*
G01X4426618Y-3398167D01*
G01X4430372Y-3397354D01*
G01X4431281Y-3397333D01*
G01X4434488Y-3396179D01*
G01X4435303Y-3392433D01*
G01X4435324Y-3391526D01*
G01X4436480Y-3388324D01*
G01X4440234Y-3387511D01*
G01X4440945Y-3387524D01*
G37*
G36*
G01X4149687Y-3399526D02*
G01X4153020Y-3400699D01*
G01X4155218Y-3399332D01*
G01X4156611Y-3398162D01*
G01X4160391Y-3397675D01*
G01X4161570Y-3398049D01*
G01X4162932Y-3399485D01*
G01X4163792Y-3402608D01*
G01X4164316Y-3408167D01*
G01X4164671Y-3416914D01*
G01X4164777Y-3421293D01*
G01X4164807Y-3429103D01*
G01X4164621Y-3435031D01*
G01X4164240Y-3438053D01*
G01X4162391Y-3439743D01*
G01X4158244Y-3440661D01*
G01X4156611Y-3440619D01*
G01X4154703Y-3440000D01*
G01X4153702Y-3437966D01*
G01X4153316Y-3433677D01*
G01X4153252Y-3426291D01*
G01X4153207Y-3422363D01*
G01X4152568Y-3414745D01*
G01X4150898Y-3410114D01*
G01X4147846Y-3407817D01*
G01X4143065Y-3407196D01*
G01X4142400Y-3407210D01*
G01X4138152Y-3408395D01*
G01X4135420Y-3411860D01*
G01X4133960Y-3418132D01*
G01X4133528Y-3427736D01*
G01X4133524Y-3430039D01*
G01X4133363Y-3436014D01*
G01X4132714Y-3439186D01*
G01X4131237Y-3440440D01*
G01X4128597Y-3440661D01*
G01X4126901Y-3440610D01*
G01X4125066Y-3439949D01*
G01X4124102Y-3437846D01*
G01X4123728Y-3433470D01*
G01X4123666Y-3425990D01*
G01X4123667Y-3425549D01*
G01X4123987Y-3417661D01*
G01X4124770Y-3410840D01*
G01X4125856Y-3406522D01*
G01X4128957Y-3402245D01*
G01X4135124Y-3398583D01*
G01X4142461Y-3397551D01*
G01X4149687Y-3399526D01*
G37*
G36*
G01X4362408Y-3423687D02*
G01X4365461Y-3431177D01*
G01X4367500Y-3436462D01*
G01X4368242Y-3438839D01*
G01X4367032Y-3440034D01*
G01X4363337Y-3440661D01*
G01X4361769Y-3440543D01*
G01X4358333Y-3438660D01*
G01X4355548Y-3433771D01*
G01X4354836Y-3432093D01*
G01X4353173Y-3429088D01*
G01X4350861Y-3427540D01*
G01X4346802Y-3426965D01*
G01X4339896Y-3426881D01*
G01X4327128Y-3426881D01*
G01X4324849Y-3433771D01*
G01X4323433Y-3437355D01*
G01X4320944Y-3440020D01*
G01X4316780Y-3440661D01*
G01X4310990Y-3440661D01*
G01X4314080Y-3433279D01*
G01X4315483Y-3429996D01*
G01X4318448Y-3423197D01*
G01X4320296Y-3419007D01*
G01X4330713Y-3419007D01*
G01X4340628Y-3419007D01*
G01X4350543Y-3419007D01*
G01X4347344Y-3411625D01*
G01X4346796Y-3410346D01*
G01X4344559Y-3404801D01*
G01X4343142Y-3400799D01*
G01X4342375Y-3398964D01*
G01X4340628Y-3397354D01*
G01X4339668Y-3397887D01*
G01X4338114Y-3400799D01*
G01X4337902Y-3401476D01*
G01X4336226Y-3406016D01*
G01X4333913Y-3411625D01*
G01X4330713Y-3419007D01*
G01X4320296Y-3419007D01*
G01X4322182Y-3414734D01*
G01X4326194Y-3405720D01*
G01X4327457Y-3402905D01*
G01X4331124Y-3395002D01*
G01X4333833Y-3389933D01*
G01X4336027Y-3387081D01*
G01X4338151Y-3385824D01*
G01X4340648Y-3385543D01*
G01X4340860Y-3385544D01*
G01X4343060Y-3385818D01*
G01X4344992Y-3386959D01*
G01X4347013Y-3389523D01*
G01X4349478Y-3394061D01*
G01X4352742Y-3401129D01*
G01X4357160Y-3411280D01*
G01X4358622Y-3414692D01*
G01X4360438Y-3419007D01*
G01X4362408Y-3423687D01*
G37*
G36*
G01X4432336Y-3274255D02*
G01X4427565Y-3281363D01*
G01X4423682Y-3284522D01*
G01X4416244Y-3287241D01*
G01X4408671Y-3286137D01*
G01X4401469Y-3281212D01*
G01X4395552Y-3275307D01*
G01X4335915Y-3275307D01*
G01X4276278Y-3275307D01*
G01X4270609Y-3269401D01*
G01X4269524Y-3268299D01*
G01X4269012Y-3267896D01*
G01X4407730Y-3267896D01*
G01X4409741Y-3272448D01*
G01X4410041Y-3272786D01*
G01X4413918Y-3274975D01*
G01X4418062Y-3274870D01*
G01X4420739Y-3272469D01*
G01X4421571Y-3267694D01*
G01X4419557Y-3263888D01*
G01X4414593Y-3262511D01*
G01X4413657Y-3262547D01*
G01X4409193Y-3264274D01*
G01X4407730Y-3267896D01*
G01X4269012Y-3267896D01*
G01X4265615Y-3265220D01*
G01X4261155Y-3263824D01*
G01X4254461Y-3263496D01*
G01X4250339Y-3263352D01*
G01X4245762Y-3262708D01*
G01X4243981Y-3261722D01*
G01X4244118Y-3261224D01*
G01X4245563Y-3257731D01*
G01X4248386Y-3251453D01*
G01X4252338Y-3242929D01*
G01X4257171Y-3232697D01*
G01X4262635Y-3221295D01*
G01X4281289Y-3182642D01*
G01X4300411Y-3183207D01*
G01X4319532Y-3183771D01*
G01X4335859Y-3217728D01*
G01X4352185Y-3251684D01*
G01X4333869Y-3251684D01*
G01X4315553Y-3251684D01*
G01X4308316Y-3235659D01*
G01X4306672Y-3232114D01*
G01X4303557Y-3225957D01*
G01X4301154Y-3221950D01*
G01X4299882Y-3220828D01*
G01X4299034Y-3222291D01*
G01X4296890Y-3226605D01*
G01X4293923Y-3232838D01*
G01X4290555Y-3240078D01*
G01X4287204Y-3247412D01*
G01X4284291Y-3253929D01*
G01X4282235Y-3258716D01*
G01X4281457Y-3260862D01*
G01X4281566Y-3260903D01*
G01X4284319Y-3261070D01*
G01X4290407Y-3261219D01*
G01X4299341Y-3261345D01*
G01X4310626Y-3261442D01*
G01X4323772Y-3261505D01*
G01X4338287Y-3261527D01*
G01X4395117Y-3261527D01*
G01X4400786Y-3255621D01*
G01X4403315Y-3253215D01*
G01X4408264Y-3250436D01*
G01X4414787Y-3249716D01*
G01X4419184Y-3249957D01*
G01X4423929Y-3251655D01*
G01X4428224Y-3255773D01*
G01X4430428Y-3258786D01*
G01X4433294Y-3266570D01*
G01X4433154Y-3267694D01*
G01X4432336Y-3274255D01*
G37*
G36*
G01X4236000Y-3201765D02*
G01X4234437Y-3205821D01*
G01X4232275Y-3209131D01*
G01X4229071Y-3211449D01*
G01X4224245Y-3212950D01*
G01X4217217Y-3213806D01*
G01X4207406Y-3214193D01*
G01X4194233Y-3214283D01*
G01X4163114Y-3214283D01*
G01X4163161Y-3256114D01*
G01X4163190Y-3265142D01*
G01X4163374Y-3279746D01*
G01X4163785Y-3291175D01*
G01X4164491Y-3299927D01*
G01X4165559Y-3306502D01*
G01X4167057Y-3311399D01*
G01X4169055Y-3315117D01*
G01X4171619Y-3318155D01*
G01X4175201Y-3320784D01*
G01X4183058Y-3323552D01*
G01X4192197Y-3324253D01*
G01X4201211Y-3322671D01*
G01X4205133Y-3320813D01*
G01X4212145Y-3315385D01*
G01X4218983Y-3307869D01*
G01X4224659Y-3299254D01*
G01X4225061Y-3298515D01*
G01X4227084Y-3295432D01*
G01X4229574Y-3293791D01*
G01X4233688Y-3293140D01*
G01X4240587Y-3293023D01*
G01X4245047Y-3293084D01*
G01X4250745Y-3293645D01*
G01X4254514Y-3295093D01*
G01X4257643Y-3297790D01*
G01X4262129Y-3302556D01*
G01X4255940Y-3314030D01*
G01X4252282Y-3320309D01*
G01X4241346Y-3334465D01*
G01X4228505Y-3345182D01*
G01X4213740Y-3352479D01*
G01X4208220Y-3353990D01*
G01X4197680Y-3355430D01*
G01X4185936Y-3355774D01*
G01X4174249Y-3355064D01*
G01X4163876Y-3353338D01*
G01X4156076Y-3350638D01*
G01X4155076Y-3350098D01*
G01X4145041Y-3342622D01*
G01X4136424Y-3332620D01*
G01X4130355Y-3321377D01*
G01X4129476Y-3318904D01*
G01X4128616Y-3315697D01*
G01X4127947Y-3311790D01*
G01X4127445Y-3306720D01*
G01X4127087Y-3300025D01*
G01X4126850Y-3291242D01*
G01X4126709Y-3279910D01*
G01X4126642Y-3265566D01*
G01X4126624Y-3247747D01*
G01X4126624Y-3198440D01*
G01X4211407Y-3198440D01*
G01X4212923Y-3200674D01*
G01X4216715Y-3202376D01*
G01X4220822Y-3202087D01*
G01X4223500Y-3199634D01*
G01X4224219Y-3195754D01*
G01X4222823Y-3191304D01*
G01X4219134Y-3189089D01*
G01X4214472Y-3189997D01*
G01X4211518Y-3193523D01*
G01X4211407Y-3198440D01*
G01X4126624Y-3198440D01*
G01X4126624Y-3183771D01*
G01X4164814Y-3183236D01*
G01X4173646Y-3183090D01*
G01X4185649Y-3182769D01*
G01X4194504Y-3182319D01*
G01X4200709Y-3181700D01*
G01X4204763Y-3180871D01*
G01X4207167Y-3179791D01*
G01X4207391Y-3179638D01*
G01X4214302Y-3177165D01*
G01X4222050Y-3177676D01*
G01X4229070Y-3181077D01*
G01X4234185Y-3186346D01*
G01X4236993Y-3193579D01*
G01X4236729Y-3195754D01*
G01X4236000Y-3201765D01*
G37*
G36*
G01X4279942Y-3290525D02*
G01X4283395Y-3293962D01*
G01X4290039Y-3300672D01*
G01X4294500Y-3305527D01*
G01X4297213Y-3309180D01*
G01X4298611Y-3312283D01*
G01X4299131Y-3315490D01*
G01X4299208Y-3319453D01*
G01X4299525Y-3325305D01*
G01X4301113Y-3330341D01*
G01X4304632Y-3334875D01*
G01X4308880Y-3341442D01*
G01X4310441Y-3349273D01*
G01X4310057Y-3351282D01*
G01X4308987Y-3356870D01*
G01X4304522Y-3363075D01*
G01X4303026Y-3364251D01*
G01X4295432Y-3367513D01*
G01X4287456Y-3367070D01*
G01X4279870Y-3362927D01*
G01X4279227Y-3362359D01*
G01X4275197Y-3357493D01*
G01X4272994Y-3352592D01*
G01X4272753Y-3350040D01*
G01X4273100Y-3347919D01*
G01X4285722Y-3347919D01*
G01X4285892Y-3351239D01*
G01X4287694Y-3354286D01*
G01X4291212Y-3355609D01*
G01X4295599Y-3354710D01*
G01X4298290Y-3351282D01*
G01X4298216Y-3346153D01*
G01X4298158Y-3345981D01*
G01X4295476Y-3342909D01*
G01X4291510Y-3342349D01*
G01X4287759Y-3344090D01*
G01X4285722Y-3347919D01*
G01X4273100Y-3347919D01*
G01X4273890Y-3343083D01*
G01X4276966Y-3336671D01*
G01X4281290Y-3332482D01*
G01X4281514Y-3332359D01*
G01X4284512Y-3329084D01*
G01X4285402Y-3323318D01*
G01X4285282Y-3321185D01*
G01X4284308Y-3317592D01*
G01X4281956Y-3313491D01*
G01X4277751Y-3308129D01*
G01X4271218Y-3300750D01*
G01X4257035Y-3285149D01*
G01X4235483Y-3285149D01*
G01X4229401Y-3285160D01*
G01X4221806Y-3285306D01*
G01X4216701Y-3285778D01*
G01X4213171Y-3286767D01*
G01X4210305Y-3288462D01*
G01X4207191Y-3291055D01*
G01X4200204Y-3295620D01*
G01X4192937Y-3296697D01*
G01X4184990Y-3294100D01*
G01X4184363Y-3293761D01*
G01X4178753Y-3288678D01*
G01X4175996Y-3282064D01*
G01X4175955Y-3276307D01*
G01X4187647Y-3276307D01*
G01X4188831Y-3281355D01*
G01X4189051Y-3281737D01*
G01X4192638Y-3284662D01*
G01X4196947Y-3284648D01*
G01X4200352Y-3281653D01*
G01X4200459Y-3281447D01*
G01X4201052Y-3276696D01*
G01X4198562Y-3272913D01*
G01X4193799Y-3271370D01*
G01X4189592Y-3272659D01*
G01X4187647Y-3276307D01*
G01X4175955Y-3276307D01*
G01X4175944Y-3274853D01*
G01X4178449Y-3267976D01*
G01X4183365Y-3262364D01*
G01X4190545Y-3258949D01*
G01X4193451Y-3258665D01*
G01X4200053Y-3259949D01*
G01X4206283Y-3263065D01*
G01X4210361Y-3267266D01*
G01X4211023Y-3268354D01*
G01X4212531Y-3269737D01*
G01X4215131Y-3270618D01*
G01X4219538Y-3271110D01*
G01X4226463Y-3271323D01*
G01X4236619Y-3271370D01*
G01X4260676Y-3271370D01*
G01X4266034Y-3276696D01*
G01X4279942Y-3290525D01*
G37*
G36*
G01X4478498Y-3208815D02*
G01X4488945Y-3222755D01*
G01X4496688Y-3239384D01*
G01X4497303Y-3241195D01*
G01X4498946Y-3247237D01*
G01X4499864Y-3253657D01*
G01X4500175Y-3261636D01*
G01X4499999Y-3272354D01*
G01X4499624Y-3281745D01*
G01X4498972Y-3289287D01*
G01X4497832Y-3295226D01*
G01X4495965Y-3300777D01*
G01X4493130Y-3307156D01*
G01X4485399Y-3320622D01*
G01X4473784Y-3334029D01*
G01X4459443Y-3344638D01*
G01X4442232Y-3352578D01*
G01X4436970Y-3354132D01*
G01X4430311Y-3355207D01*
G01X4421881Y-3355650D01*
G01X4410607Y-3355562D01*
G01X4409211Y-3355527D01*
G01X4399662Y-3355176D01*
G01X4392729Y-3354544D01*
G01X4387225Y-3353394D01*
G01X4381966Y-3351490D01*
G01X4375765Y-3348593D01*
G01X4367334Y-3343880D01*
G01X4358353Y-3336719D01*
G01X4350894Y-3327567D01*
G01X4344031Y-3315457D01*
G01X4337809Y-3302866D01*
G01X4320900Y-3302866D01*
G01X4303991Y-3302866D01*
G01X4294277Y-3293023D01*
G01X4284564Y-3283181D01*
G01X4325910Y-3283186D01*
G01X4367256Y-3283191D01*
G01X4375145Y-3298432D01*
G01X4376238Y-3300503D01*
G01X4382416Y-3310440D01*
G01X4388812Y-3317210D01*
G01X4396156Y-3321427D01*
G01X4405177Y-3323704D01*
G01X4411800Y-3324234D01*
G01X4425084Y-3322566D01*
G01X4437382Y-3317501D01*
G01X4447962Y-3309402D01*
G01X4456087Y-3298629D01*
G01X4458585Y-3293878D01*
G01X4460390Y-3289300D01*
G01X4461397Y-3284314D01*
G01X4461835Y-3277745D01*
G01X4461930Y-3268417D01*
G01X4461697Y-3259224D01*
G01X4460372Y-3248664D01*
G01X4457547Y-3240284D01*
G01X4452852Y-3233107D01*
G01X4445918Y-3226153D01*
G01X4444703Y-3225110D01*
G01X4435398Y-3218728D01*
G01X4425593Y-3215302D01*
G01X4413798Y-3214283D01*
G01X4409961Y-3214347D01*
G01X4400374Y-3215446D01*
G01X4392709Y-3218248D01*
G01X4385568Y-3223197D01*
G01X4384688Y-3223901D01*
G01X4377365Y-3227555D01*
G01X4369964Y-3228073D01*
G01X4363155Y-3225946D01*
G01X4357608Y-3221670D01*
G01X4353992Y-3215736D01*
G01X4353048Y-3209137D01*
G01X4364774Y-3209137D01*
G01X4366132Y-3213134D01*
G01X4368106Y-3214831D01*
G01X4372187Y-3216251D01*
G01X4374493Y-3215745D01*
G01X4378241Y-3213134D01*
G01X4378965Y-3212068D01*
G01X4379394Y-3208068D01*
G01X4376889Y-3204805D01*
G01X4372187Y-3203456D01*
G01X4370726Y-3203567D01*
G01X4366551Y-3205556D01*
G01X4364774Y-3209137D01*
G01X4353048Y-3209137D01*
G01X4352977Y-3208637D01*
G01X4355233Y-3200867D01*
G01X4356577Y-3198313D01*
G01X4358284Y-3195759D01*
G01X4360576Y-3193863D01*
G01X4364253Y-3192182D01*
G01X4370115Y-3190273D01*
G01X4378960Y-3187691D01*
G01X4395873Y-3183921D01*
G01X4415479Y-3182500D01*
G01X4433836Y-3184406D01*
G01X4450652Y-3189513D01*
G01X4465636Y-3197692D01*
G01X4477633Y-3208068D01*
G01X4478498Y-3208815D01*
G37*
G54D11*
G01X4380709Y-5006299D02*
G01X4179921Y-5006299D01*
G01X4380709Y-5133071D02*
G01X4179921Y-5133071D01*
G01X4522244Y-4929840D02*
G01X4522244Y-4987089D01*
G01X4593898Y-4929840D02*
G01X4593898Y-4987089D01*
G01X4183974Y-3942520D02*
G01X4241223Y-3942520D01*
G01X4183974Y-4014173D02*
G01X4241223Y-4014173D01*
M02*
