M48
INCH,TZ
T10C0.018
T11C0.020
T12C0.024
T13C0.024
T14C0.031
T15C0.039
T16C0.047
T17C0.055
%
T10
T11
T12
X040945Y-35630
X040945Y-36220
X040945Y-36811
X040945Y-37402
X040945Y-37992
X040945Y-38583
X041535Y-35630
X041535Y-36220
X041535Y-36811
X041535Y-37402
X041535Y-37992
X041535Y-38583
X042126Y-35630
X042126Y-36220
X042126Y-37992
X042126Y-38583
X042465Y-32283
X042717Y-35630
X042717Y-36220
X042717Y-37992
X042717Y-38583
X043307Y-35630
X043307Y-36220
X043307Y-37992
X043307Y-38583
X043898Y-35630
X043898Y-36220
X043898Y-37992
X043898Y-38583
X044488Y-35630
X044488Y-36220
X044488Y-36811
X044488Y-37402
X044488Y-37992
X044488Y-38583
X044567Y-34587
X044670Y-32283
X045079Y-35630
X045079Y-36220
X045079Y-36811
X045079Y-37402
X045079Y-37992
X045079Y-38583
T13
T14
X042028Y-28287
X042028Y-30933
X043012Y-28287
X043012Y-30933
T15
X044518Y-40752
X044518Y-41752
X044528Y-27551
X044528Y-28551
X044528Y-29551
T16
X040742Y-39790
X040742Y-46207
X043576Y-39790
X043576Y-46207
T17
X042126Y-23917
X042126Y-48130
X044094Y-23917
X044094Y-48130
M30

