G04 This is an RS-274x file exported by *
G04 gerbv version  *
G04 More information is available about gerbv at *
G04 https://gerbv.github.io/ *
G04 --End of header info--*
%MOIN*%
%FSLAX36Y36*%
%IPPOS*%
G04 --Define apertures--*
%AMMACRO10*
4,1,4,0.023622,0.023622,-0.023622,0.023622,-0.023622,-0.023622,0.023622,-0.023622,0.023622,0.023622,0.000000*
1,1,0.019685,0.023622,0.023622*
1,1,0.019685,-0.023622,0.023622*
1,1,0.019685,-0.023622,-0.023622*
1,1,0.019685,0.023622,-0.023622*
20,1,0.019685,0.023622,0.023622,-0.023622,0.023622,0.000000*
20,1,0.019685,-0.023622,0.023622,-0.023622,-0.023622,0.000000*
20,1,0.019685,-0.023622,-0.023622,0.023622,-0.023622,0.000000*
20,1,0.019685,0.023622,-0.023622,0.023622,0.023622,0.000000*
%
%ADD10MACRO10*%
%ADD11O,0.0866X0.0669*%
%AMMACRO12*
4,1,4,0.029528,0.049213,-0.029528,0.049213,-0.029528,-0.049213,0.029528,-0.049213,0.029528,0.049213,0.000000*
1,1,0.019685,0.029528,0.049213*
1,1,0.019685,-0.029528,0.049213*
1,1,0.019685,-0.029528,-0.049213*
1,1,0.019685,0.029528,-0.049213*
20,1,0.019685,0.029528,0.049213,-0.029528,0.049213,0.000000*
20,1,0.019685,-0.029528,0.049213,-0.029528,-0.049213,0.000000*
20,1,0.019685,-0.029528,-0.049213,0.029528,-0.049213,0.000000*
20,1,0.019685,0.029528,-0.049213,0.029528,0.049213,0.000000*
%
%ADD12MACRO12*%
%ADD13O,0.0787X0.1181*%
%AMMACRO14*
4,1,4,-0.029173,-0.042953,0.029173,-0.042953,0.029173,0.042953,-0.029173,0.042953,-0.029173,-0.042953,0.000000*
1,1,0.016457,-0.029173,-0.042953*
1,1,0.016457,0.029173,-0.042953*
1,1,0.016457,0.029173,0.042953*
1,1,0.016457,-0.029173,0.042953*
20,1,0.016457,-0.029173,-0.042953,0.029173,-0.042953,0.000000*
20,1,0.016457,0.029173,-0.042953,0.029173,0.042953,0.000000*
20,1,0.016457,0.029173,0.042953,-0.029173,0.042953,0.000000*
20,1,0.016457,-0.029173,0.042953,-0.029173,-0.042953,0.000000*
%
%ADD14MACRO14*%
%ADD15O,0.0787X0.1102*%
%ADD16O,0.0551X0.0787*%
%AMMACRO17*
4,1,4,0.017717,-0.029528,0.017717,0.029528,-0.017717,0.029528,-0.017717,-0.029528,0.017717,-0.029528,0.000000*
1,1,0.019685,0.017717,-0.029528*
1,1,0.019685,0.017717,0.029528*
1,1,0.019685,-0.017717,0.029528*
1,1,0.019685,-0.017717,-0.029528*
20,1,0.019685,0.017717,-0.029528,0.017717,0.029528,0.000000*
20,1,0.019685,0.017717,0.029528,-0.017717,0.029528,0.000000*
20,1,0.019685,-0.017717,0.029528,-0.017717,-0.029528,0.000000*
20,1,0.019685,-0.017717,-0.029528,0.017717,-0.029528,0.000000*
%
%ADD17MACRO17*%
%AMMACRO18*
4,1,4,0.025859,-0.035701,0.025859,0.035701,-0.025859,0.035701,-0.025859,-0.035701,0.025859,-0.035701,0.000000*
1,1,0.015211,0.025859,-0.035701*
1,1,0.015211,0.025859,0.035701*
1,1,0.015211,-0.025859,0.035701*
1,1,0.015211,-0.025859,-0.035701*
20,1,0.015211,0.025859,-0.035701,0.025859,0.035701,0.000000*
20,1,0.015211,0.025859,0.035701,-0.025859,0.035701,0.000000*
20,1,0.015211,-0.025859,0.035701,-0.025859,-0.035701,0.000000*
20,1,0.015211,-0.025859,-0.035701,0.025859,-0.035701,0.000000*
%
%ADD18MACRO18*%
%ADD19C,0.0787*%
%ADD20C,0.0866*%
%ADD21O,0.0669X0.0984*%
%ADD22O,0.0827X0.0669*%
%AMMACRO23*
4,1,4,-0.023622,-0.023622,0.023622,-0.023622,0.023622,0.023622,-0.023622,0.023622,-0.023622,-0.023622,0.000000*
1,1,0.019685,-0.023622,-0.023622*
1,1,0.019685,0.023622,-0.023622*
1,1,0.019685,0.023622,0.023622*
1,1,0.019685,-0.023622,0.023622*
20,1,0.019685,-0.023622,-0.023622,0.023622,-0.023622,0.000000*
20,1,0.019685,0.023622,-0.023622,0.023622,0.023622,0.000000*
20,1,0.019685,0.023622,0.023622,-0.023622,0.023622,0.000000*
20,1,0.019685,-0.023622,0.023622,-0.023622,-0.023622,0.000000*
%
%ADD23MACRO23*%
%AMMACRO24*
4,1,4,0.015748,0.015748,-0.015748,0.015748,-0.015748,-0.015748,0.015748,-0.015748,0.015748,0.015748,0.000000*
1,1,0.031496,0.015748,0.015748*
1,1,0.031496,-0.015748,0.015748*
1,1,0.031496,-0.015748,-0.015748*
1,1,0.031496,0.015748,-0.015748*
20,1,0.031496,0.015748,0.015748,-0.015748,0.015748,0.000000*
20,1,0.031496,-0.015748,0.015748,-0.015748,-0.015748,0.000000*
20,1,0.031496,-0.015748,-0.015748,0.015748,-0.015748,0.000000*
20,1,0.031496,0.015748,-0.015748,0.015748,0.015748,0.000000*
%
%ADD24MACRO24*%
%ADD25C,0.0630*%
%ADD26O,0.0413X0.0748*%
%AMMACRO27*
4,1,4,-0.021654,-0.021654,0.021654,-0.021654,0.021654,0.021654,-0.021654,0.021654,-0.021654,-0.021654,0.000000*
1,1,0.019685,-0.021654,-0.021654*
1,1,0.019685,0.021654,-0.021654*
1,1,0.019685,0.021654,0.021654*
1,1,0.019685,-0.021654,0.021654*
20,1,0.019685,-0.021654,-0.021654,0.021654,-0.021654,0.000000*
20,1,0.019685,0.021654,-0.021654,0.021654,0.021654,0.000000*
20,1,0.019685,0.021654,0.021654,-0.021654,0.021654,0.000000*
20,1,0.019685,-0.021654,0.021654,-0.021654,-0.021654,0.000000*
%
%ADD27MACRO27*%
%AMMACRO28*
4,1,4,-0.024606,0.015748,-0.024606,-0.015748,0.024606,-0.015748,0.024606,0.015748,-0.024606,0.015748,0.000000*
1,1,0.019685,-0.024606,0.015748*
1,1,0.019685,-0.024606,-0.015748*
1,1,0.019685,0.024606,-0.015748*
1,1,0.019685,0.024606,0.015748*
20,1,0.019685,-0.024606,0.015748,-0.024606,-0.015748,0.000000*
20,1,0.019685,-0.024606,-0.015748,0.024606,-0.015748,0.000000*
20,1,0.019685,0.024606,-0.015748,0.024606,0.015748,0.000000*
20,1,0.019685,0.024606,0.015748,-0.024606,0.015748,0.000000*
%
%ADD28MACRO28*%
%AMMACRO29*
4,1,4,-0.025591,0.016240,-0.025591,-0.016240,0.025591,-0.016240,0.025591,0.016240,-0.025591,0.016240,0.000000*
1,1,0.019685,-0.025591,0.016240*
1,1,0.019685,-0.025591,-0.016240*
1,1,0.019685,0.025591,-0.016240*
1,1,0.019685,0.025591,0.016240*
20,1,0.019685,-0.025591,0.016240,-0.025591,-0.016240,0.000000*
20,1,0.019685,-0.025591,-0.016240,0.025591,-0.016240,0.000000*
20,1,0.019685,0.025591,-0.016240,0.025591,0.016240,0.000000*
20,1,0.019685,0.025591,0.016240,-0.025591,0.016240,0.000000*
%
%ADD29MACRO29*%
%AMMACRO30*
4,1,4,0.024606,-0.015748,0.024606,0.015748,-0.024606,0.015748,-0.024606,-0.015748,0.024606,-0.015748,0.000000*
1,1,0.019685,0.024606,-0.015748*
1,1,0.019685,0.024606,0.015748*
1,1,0.019685,-0.024606,0.015748*
1,1,0.019685,-0.024606,-0.015748*
20,1,0.019685,0.024606,-0.015748,0.024606,0.015748,0.000000*
20,1,0.019685,0.024606,0.015748,-0.024606,0.015748,0.000000*
20,1,0.019685,-0.024606,0.015748,-0.024606,-0.015748,0.000000*
20,1,0.019685,-0.024606,-0.015748,0.024606,-0.015748,0.000000*
%
%ADD30MACRO30*%
%AMMACRO31*
4,1,4,-0.019685,0.015748,-0.019685,-0.015748,0.019685,-0.015748,0.019685,0.015748,-0.019685,0.015748,0.000000*
1,1,0.019685,-0.019685,0.015748*
1,1,0.019685,-0.019685,-0.015748*
1,1,0.019685,0.019685,-0.015748*
1,1,0.019685,0.019685,0.015748*
20,1,0.019685,-0.019685,0.015748,-0.019685,-0.015748,0.000000*
20,1,0.019685,-0.019685,-0.015748,0.019685,-0.015748,0.000000*
20,1,0.019685,0.019685,-0.015748,0.019685,0.015748,0.000000*
20,1,0.019685,0.019685,0.015748,-0.019685,0.015748,0.000000*
%
%ADD31MACRO31*%
%AMMACRO32*
4,1,4,0.025591,-0.016240,0.025591,0.016240,-0.025591,0.016240,-0.025591,-0.016240,0.025591,-0.016240,0.000000*
1,1,0.019685,0.025591,-0.016240*
1,1,0.019685,0.025591,0.016240*
1,1,0.019685,-0.025591,0.016240*
1,1,0.019685,-0.025591,-0.016240*
20,1,0.019685,0.025591,-0.016240,0.025591,0.016240,0.000000*
20,1,0.019685,0.025591,0.016240,-0.025591,0.016240,0.000000*
20,1,0.019685,-0.025591,0.016240,-0.025591,-0.016240,0.000000*
20,1,0.019685,-0.025591,-0.016240,0.025591,-0.016240,0.000000*
%
%ADD32MACRO32*%
%AMMACRO33*
4,1,4,-0.015748,-0.022638,0.015748,-0.022638,0.015748,0.022638,-0.015748,0.022638,-0.015748,-0.022638,0.000000*
1,1,0.019685,-0.015748,-0.022638*
1,1,0.019685,0.015748,-0.022638*
1,1,0.019685,0.015748,0.022638*
1,1,0.019685,-0.015748,0.022638*
20,1,0.019685,-0.015748,-0.022638,0.015748,-0.022638,0.000000*
20,1,0.019685,0.015748,-0.022638,0.015748,0.022638,0.000000*
20,1,0.019685,0.015748,0.022638,-0.015748,0.022638,0.000000*
20,1,0.019685,-0.015748,0.022638,-0.015748,-0.022638,0.000000*
%
%ADD33MACRO33*%
%AMMACRO34*
4,1,4,-0.015748,-0.024606,0.015748,-0.024606,0.015748,0.024606,-0.015748,0.024606,-0.015748,-0.024606,0.000000*
1,1,0.019685,-0.015748,-0.024606*
1,1,0.019685,0.015748,-0.024606*
1,1,0.019685,0.015748,0.024606*
1,1,0.019685,-0.015748,0.024606*
20,1,0.019685,-0.015748,-0.024606,0.015748,-0.024606,0.000000*
20,1,0.019685,0.015748,-0.024606,0.015748,0.024606,0.000000*
20,1,0.019685,0.015748,0.024606,-0.015748,0.024606,0.000000*
20,1,0.019685,-0.015748,0.024606,-0.015748,-0.024606,0.000000*
%
%ADD34MACRO34*%
%AMMACRO35*
4,1,4,-0.024094,-0.024094,0.024094,-0.024094,0.024094,0.024094,-0.024094,0.024094,-0.024094,-0.024094,0.000000*
1,1,0.018740,-0.024094,-0.024094*
1,1,0.018740,0.024094,-0.024094*
1,1,0.018740,0.024094,0.024094*
1,1,0.018740,-0.024094,0.024094*
20,1,0.018740,-0.024094,-0.024094,0.024094,-0.024094,0.000000*
20,1,0.018740,0.024094,-0.024094,0.024094,0.024094,0.000000*
20,1,0.018740,0.024094,0.024094,-0.024094,0.024094,0.000000*
20,1,0.018740,-0.024094,0.024094,-0.024094,-0.024094,0.000000*
%
%ADD35MACRO35*%
%ADD36C,0.0709*%
%AMMACRO37*
4,1,4,0.014764,-0.008858,0.014764,0.008858,-0.014764,0.008858,-0.014764,-0.008858,0.014764,-0.008858,0.000000*
1,1,0.017717,0.014764,-0.008858*
1,1,0.017717,0.014764,0.008858*
1,1,0.017717,-0.014764,0.008858*
1,1,0.017717,-0.014764,-0.008858*
20,1,0.017717,0.014764,-0.008858,0.014764,0.008858,0.000000*
20,1,0.017717,0.014764,0.008858,-0.014764,0.008858,0.000000*
20,1,0.017717,-0.014764,0.008858,-0.014764,-0.008858,0.000000*
20,1,0.017717,-0.014764,-0.008858,0.014764,-0.008858,0.000000*
%
%ADD37MACRO37*%
%AMMACRO38*
4,1,4,0.002461,-0.023130,0.002461,0.023130,-0.002461,0.023130,-0.002461,-0.023130,0.002461,-0.023130,0.000000*
1,1,0.004921,0.002461,-0.023130*
1,1,0.004921,0.002461,0.023130*
1,1,0.004921,-0.002461,0.023130*
1,1,0.004921,-0.002461,-0.023130*
20,1,0.004921,0.002461,-0.023130,0.002461,0.023130,0.000000*
20,1,0.004921,0.002461,0.023130,-0.002461,0.023130,0.000000*
20,1,0.004921,-0.002461,0.023130,-0.002461,-0.023130,0.000000*
20,1,0.004921,-0.002461,-0.023130,0.002461,-0.023130,0.000000*
%
%ADD38MACRO38*%
%AMMACRO39*
4,1,4,0.036909,0.050689,-0.036909,0.050689,-0.036909,-0.050689,0.036909,-0.050689,0.036909,0.050689,0.000000*
1,1,0.024606,0.036909,0.050689*
1,1,0.024606,-0.036909,0.050689*
1,1,0.024606,-0.036909,-0.050689*
1,1,0.024606,0.036909,-0.050689*
20,1,0.024606,0.036909,0.050689,-0.036909,0.050689,0.000000*
20,1,0.024606,-0.036909,0.050689,-0.036909,-0.050689,0.000000*
20,1,0.024606,-0.036909,-0.050689,0.036909,-0.050689,0.000000*
20,1,0.024606,0.036909,-0.050689,0.036909,0.050689,0.000000*
%
%ADD39MACRO39*%
%AMMACRO40*
4,1,4,0.041339,0.049213,-0.041339,0.049213,-0.041339,-0.049213,0.041339,-0.049213,0.041339,0.049213,0.000000*
1,1,0.027559,0.041339,0.049213*
1,1,0.027559,-0.041339,0.049213*
1,1,0.027559,-0.041339,-0.049213*
1,1,0.027559,0.041339,-0.049213*
20,1,0.027559,0.041339,0.049213,-0.041339,0.049213,0.000000*
20,1,0.027559,-0.041339,0.049213,-0.041339,-0.049213,0.000000*
20,1,0.027559,-0.041339,-0.049213,0.041339,-0.049213,0.000000*
20,1,0.027559,0.041339,-0.049213,0.041339,0.049213,0.000000*
%
%ADD40MACRO40*%
%AMMACRO41*
4,1,4,-0.027559,0.010827,-0.027559,-0.010827,0.027559,-0.010827,0.027559,0.010827,-0.027559,0.010827,0.000000*
1,1,0.019685,-0.027559,0.010827*
1,1,0.019685,-0.027559,-0.010827*
1,1,0.019685,0.027559,-0.010827*
1,1,0.019685,0.027559,0.010827*
20,1,0.019685,-0.027559,0.010827,-0.027559,-0.010827,0.000000*
20,1,0.019685,-0.027559,-0.010827,0.027559,-0.010827,0.000000*
20,1,0.019685,0.027559,-0.010827,0.027559,0.010827,0.000000*
20,1,0.019685,0.027559,0.010827,-0.027559,0.010827,0.000000*
%
%ADD41MACRO41*%
%ADD42C,0.0472*%
%ADD43C,0.0354*%
%ADD44C,0.0118*%
%ADD45C,0.0197*%
%ADD46C,0.0079*%
%ADD47C,0.0394*%
G04 --Start main section--*
G54D10*
G01X4452756Y-2955118D03*
G54D11*
G01X4452756Y-2855118D03*
G01X4452756Y-2755118D03*
G54D12*
G01X4409449Y-2391732D03*
G54D13*
G01X4212598Y-2391732D03*
G54D14*
G01X4212598Y-4812992D03*
G54D15*
G01X4409449Y-4812992D03*
G54D18*
G01X4074173Y-4620709D03*
G54D19*
G01X4357638Y-4620709D03*
G54D20*
G01X4357638Y-3978976D03*
G54D21*
G01X4074173Y-3978976D03*
G54D24*
G01X4301181Y-3093307D03*
G54D25*
G01X4202756Y-3093307D03*
G54D27*
G01X4202756Y-2828740D03*
G54D25*
G01X4301181Y-2828740D03*
G54D10*
G01X4451772Y-4175197D03*
G54D22*
G01X4451772Y-4075197D03*
G54D31*
G01X4558071Y-4712402D03*
G01X4558071Y-4834449D03*
G54D33*
G01X4420669Y-4569882D03*
G54D34*
G01X4542717Y-4569882D03*
G54D39*
G01X4447638Y-5069685D03*
G54D40*
G01X4112992Y-5069685D03*
G54D31*
G01X4558071Y-4897441D03*
G01X4558071Y-5019488D03*
G54D34*
G01X4151575Y-3978346D03*
G01X4273622Y-3978346D03*
G54D42*
G01X4330709Y-3858268D03*
G01X4330709Y-3622047D03*
G01X4271654Y-3622047D03*
G01X4448819Y-3622047D03*
G01X4094488Y-3622047D03*
G01X4153543Y-3799213D03*
G01X4094488Y-3740157D03*
G01X4448819Y-3858268D03*
G01X4153543Y-3681102D03*
G01X4507874Y-3562992D03*
G01X4448819Y-3681102D03*
G01X4212598Y-3799213D03*
G01X4389764Y-3622047D03*
G01X4507874Y-3740157D03*
G01X4094488Y-3858268D03*
G01X4153543Y-3858268D03*
G01X4330709Y-3562992D03*
G01X4507874Y-3681102D03*
G01X4448819Y-3562992D03*
G01X4389764Y-3799213D03*
G01X4271654Y-3799213D03*
G01X4389764Y-3562992D03*
G01X4448819Y-3799213D03*
G01X4094488Y-3799213D03*
G01X4212598Y-3622047D03*
G01X4271654Y-3858268D03*
G01X4094488Y-3562992D03*
G01X4094488Y-3681102D03*
G01X4153543Y-3740157D03*
G01X4507874Y-3622047D03*
G01X4507874Y-3858268D03*
G01X4271654Y-3562992D03*
G01X4153543Y-3622047D03*
G01X4507874Y-3799213D03*
G01X4448819Y-3740157D03*
G01X4212598Y-3562992D03*
G01X4389764Y-3858268D03*
G01X4212598Y-3858268D03*
G01X4153543Y-3562992D03*
G01X4330709Y-3799213D03*
G01X4456693Y-3458661D03*
G01X4246555Y-3228346D03*
G01X4467028Y-3228346D03*
G54D47*
G01X4212598Y-4812992D02*
G01X4074173Y-4620709D01*
G01X4201689Y-5069685D02*
G01X4112992Y-5069685D01*
G01X4403683Y-4875844D02*
G01X4215608Y-5063919D01*
G01X4409449Y-4812992D02*
G01X4409449Y-4861925D01*
G01X4201689Y-5069685D02*
G75*
G03X4215608Y-5063920I0000000J0019685D01*
G01X4403683Y-4875844D02*
G75*
G03X4409449Y-4861925I-013919J0013919D01*
G01X4274252Y-3978976D02*
G01X4273622Y-3978346D01*
G01X4357638Y-3981063D02*
G01X4357638Y-3978976D01*
G01X4357638Y-3978976D02*
G01X4274252Y-3978976D01*
G01X4451772Y-4075197D02*
G01X4357638Y-3981063D01*
G54D45*
G01X4558071Y-4834449D02*
G01X4558071Y-4897441D01*
G01X4562008Y-4712402D02*
G01X4542717Y-4693110D01*
G01X4542717Y-4693110D02*
G01X4542717Y-4569882D01*
G01X4369843Y-4620709D02*
G01X4420669Y-4569882D01*
G01X4357638Y-4620709D02*
G01X4369843Y-4620709D01*
G54D47*
G01X4151575Y-3978346D02*
G01X4342660Y-4169431D01*
G01X4150945Y-3978976D02*
G01X4151575Y-3978346D01*
G01X4074173Y-3978976D02*
G01X4150945Y-3978976D01*
G01X4356579Y-4175197D02*
G01X4451772Y-4175197D01*
G01X4356579Y-4175197D02*
G75*
G02X4342659Y-4169431I0000000J0019685D01*
G54D45*
G01X4447638Y-5040354D02*
G01X4468504Y-5019488D01*
G01X4447638Y-5069685D02*
G01X4447638Y-5040354D01*
G01X4468504Y-5019488D02*
G01X4558071Y-5019488D01*
G36*
G01X4543673Y-3525632D02*
G01X4543962Y-3525670D01*
G01X4546850Y-3526050D01*
G01X4549321Y-3526711D01*
G01X4551683Y-3527689D01*
G01X4553898Y-3528967D01*
G01X4555927Y-3530523D01*
G01X4557736Y-3532331D01*
G01X4559293Y-3534359D01*
G01X4560573Y-3536573D01*
G01X4561553Y-3538934D01*
G01X4562217Y-3541404D01*
G01X4562637Y-3544581D01*
G01X4562722Y-3545860D01*
G01X4562976Y-3873358D01*
G01X4562893Y-3874638D01*
G01X4562477Y-3877818D01*
G01X4561816Y-3880292D01*
G01X4560838Y-3882656D01*
G01X4559559Y-3884874D01*
G01X4558002Y-3886905D01*
G01X4556192Y-3888716D01*
G01X4554163Y-3890274D01*
G01X4551946Y-3891555D01*
G01X4549582Y-3892535D01*
G01X4547109Y-3893198D01*
G01X4545630Y-3893393D01*
G01X4543929Y-3893617D01*
G01X4542649Y-3893701D01*
G01X4071493Y-3893701D01*
G01X4070214Y-3893617D01*
G01X4068975Y-3893454D01*
G01X4067037Y-3893199D01*
G01X4064567Y-3892537D01*
G01X4062205Y-3891559D01*
G01X4059989Y-3890281D01*
G01X4057960Y-3888726D01*
G01X4056151Y-3886917D01*
G01X4054594Y-3884890D01*
G01X4053314Y-3882676D01*
G01X4052334Y-3880314D01*
G01X4051671Y-3877844D01*
G01X4051250Y-3874667D01*
G01X4051165Y-3873389D01*
G01X4050911Y-3545891D01*
G01X4050994Y-3544611D01*
G01X4051410Y-3541430D01*
G01X4052071Y-3538957D01*
G01X4053049Y-3536592D01*
G01X4054328Y-3534374D01*
G01X4055885Y-3532344D01*
G01X4057694Y-3530533D01*
G01X4059724Y-3528974D01*
G01X4061941Y-3527693D01*
G01X4062089Y-3527632D01*
G01X4064305Y-3526714D01*
G01X4066778Y-3526051D01*
G01X4069034Y-3525753D01*
G01X4069958Y-3525632D01*
G01X4071238Y-3525548D01*
G01X4542394Y-3525548D01*
G01X4543673Y-3525632D01*
G37*
G36*
G01X4547881Y-2082761D02*
G01X4549216Y-2082937D01*
G01X4551059Y-2083179D01*
G01X4553531Y-2083842D01*
G01X4555894Y-2084821D01*
G01X4558110Y-2086100D01*
G01X4560140Y-2087657D01*
G01X4561949Y-2089467D01*
G01X4563506Y-2091496D01*
G01X4564786Y-2093712D01*
G01X4565764Y-2096075D01*
G01X4566427Y-2098547D01*
G01X4566845Y-2101725D01*
G01X4566929Y-2103005D01*
G01X4566929Y-3477704D01*
G01X4566845Y-3478983D01*
G01X4566845Y-3478984D01*
G01X4566427Y-3482162D01*
G01X4565764Y-3484634D01*
G01X4564786Y-3486997D01*
G01X4563506Y-3489213D01*
G01X4561949Y-3491242D01*
G01X4560140Y-3493052D01*
G01X4558110Y-3494609D01*
G01X4555894Y-3495888D01*
G01X4553531Y-3496867D01*
G01X4551060Y-3497529D01*
G01X4549095Y-3497788D01*
G01X4547881Y-3497948D01*
G01X4546601Y-3498031D01*
G01X4075446Y-3498031D01*
G01X4074166Y-3497948D01*
G01X4073446Y-3497853D01*
G01X4070988Y-3497529D01*
G01X4068516Y-3496867D01*
G01X4066153Y-3495888D01*
G01X4063937Y-3494609D01*
G01X4061907Y-3493051D01*
G01X4060098Y-3491242D01*
G01X4058541Y-3489213D01*
G01X4057261Y-3486997D01*
G01X4056283Y-3484634D01*
G01X4055620Y-3482162D01*
G01X4055202Y-3478983D01*
G01X4055118Y-3477704D01*
G01X4055118Y-3089898D01*
G01X4159449Y-3089898D01*
G01X4159449Y-3096716D01*
G01X4160515Y-3103448D01*
G01X4160515Y-3103448D01*
G01X4162621Y-3109931D01*
G01X4162622Y-3109931D01*
G01X4165716Y-3116005D01*
G01X4165894Y-3116249D01*
G01X4187008Y-3095136D01*
G01X4187008Y-3095380D01*
G01X4188081Y-3099386D01*
G01X4190154Y-3102977D01*
G01X4193086Y-3105909D01*
G01X4196677Y-3107982D01*
G01X4200683Y-3109055D01*
G01X4200927Y-3109055D01*
G01X4179813Y-3130169D01*
G01X4179813Y-3130169D01*
G01X4180058Y-3130347D01*
G01X4186132Y-3133441D01*
G01X4186132Y-3133441D01*
G01X4192615Y-3135548D01*
G01X4199347Y-3136614D01*
G01X4199348Y-3136614D01*
G01X4206164Y-3136614D01*
G01X4206165Y-3136614D01*
G01X4212897Y-3135548D01*
G01X4212897Y-3135548D01*
G01X4219380Y-3133441D01*
G01X4219380Y-3133441D01*
G01X4225454Y-3130347D01*
G01X4225698Y-3130169D01*
G01X4204584Y-3109055D01*
G01X4204829Y-3109055D01*
G01X4208834Y-3107982D01*
G01X4212425Y-3105909D01*
G01X4215357Y-3102977D01*
G01X4217431Y-3099386D01*
G01X4218504Y-3095380D01*
G01X4218504Y-3095136D01*
G01X4239618Y-3116249D01*
G01X4242408Y-3116030D01*
G01X4246207Y-3116480D01*
G01X4249544Y-3118349D01*
G01X4251912Y-3121353D01*
G01X4251929Y-3121392D01*
G01X4252153Y-3121830D01*
G01X4252153Y-3121830D01*
G01X4255536Y-3128470D01*
G01X4260226Y-3134262D01*
G01X4266018Y-3138952D01*
G01X4272658Y-3142335D01*
G01X4279856Y-3144264D01*
G01X4279857Y-3144264D01*
G01X4279857Y-3144264D01*
G01X4280485Y-3144314D01*
G01X4282952Y-3144508D01*
G01X4319410Y-3144508D01*
G01X4322506Y-3144264D01*
G01X4329704Y-3142335D01*
G01X4336344Y-3138952D01*
G01X4342136Y-3134262D01*
G01X4346826Y-3128470D01*
G01X4350209Y-3121830D01*
G01X4352138Y-3114632D01*
G01X4352382Y-3111536D01*
G01X4352382Y-3075078D01*
G01X4352138Y-3071982D01*
G01X4350209Y-3064784D01*
G01X4346826Y-3058144D01*
G01X4342136Y-3052352D01*
G01X4336344Y-3047662D01*
G01X4329704Y-3044279D01*
G01X4322506Y-3042350D01*
G01X4322506Y-3042350D01*
G01X4322505Y-3042350D01*
G01X4319410Y-3042106D01*
G01X4282952Y-3042106D01*
G01X4280212Y-3042322D01*
G01X4279856Y-3042350D01*
G01X4272658Y-3044279D01*
G01X4266018Y-3047662D01*
G01X4266018Y-3047662D01*
G01X4266018Y-3047662D01*
G01X4260226Y-3052352D01*
G01X4260226Y-3052352D01*
G01X4256912Y-3056445D01*
G01X4255536Y-3058144D01*
G01X4252153Y-3064784D01*
G01X4252153Y-3064784D01*
G01X4251920Y-3065242D01*
G01X4251793Y-3065177D01*
G01X4250278Y-3067570D01*
G01X4247151Y-3069773D01*
G01X4243420Y-3070611D01*
G01X4242408Y-3070584D01*
G01X4239618Y-3070365D01*
G01X4218504Y-3091478D01*
G01X4218504Y-3091234D01*
G01X4217431Y-3087229D01*
G01X4215357Y-3083638D01*
G01X4212425Y-3080706D01*
G01X4208834Y-3078632D01*
G01X4204829Y-3077559D01*
G01X4204584Y-3077559D01*
G01X4225698Y-3056445D01*
G01X4225454Y-3056267D01*
G01X4219380Y-3053173D01*
G01X4219380Y-3053173D01*
G01X4212897Y-3051066D01*
G01X4206165Y-3050000D01*
G01X4199347Y-3050000D01*
G01X4192615Y-3051066D01*
G01X4192615Y-3051066D01*
G01X4186132Y-3053173D01*
G01X4186132Y-3053173D01*
G01X4180058Y-3056267D01*
G01X4180058Y-3056268D01*
G01X4179813Y-3056445D01*
G01X4200927Y-3077559D01*
G01X4200683Y-3077559D01*
G01X4196677Y-3078632D01*
G01X4193086Y-3080706D01*
G01X4190154Y-3083638D01*
G01X4188081Y-3087229D01*
G01X4187008Y-3091234D01*
G01X4187008Y-3091478D01*
G01X4165894Y-3070365D01*
G01X4165716Y-3070609D01*
G01X4165716Y-3070609D01*
G01X4162622Y-3076683D01*
G01X4162621Y-3076683D01*
G01X4160515Y-3083166D01*
G01X4160515Y-3083166D01*
G01X4159449Y-3089898D01*
G01X4055118Y-3089898D01*
G01X4055118Y-2805118D01*
G01X4151555Y-2805118D01*
G01X4151555Y-2852362D01*
G01X4151969Y-2856409D01*
G01X4154141Y-2862966D01*
G01X4154141Y-2862966D01*
G01X4157767Y-2868845D01*
G01X4162651Y-2873729D01*
G01X4168530Y-2877355D01*
G01X4168530Y-2877355D01*
G01X4168530Y-2877355D01*
G01X4174973Y-2879490D01*
G01X4175087Y-2879528D01*
G01X4179134Y-2879941D01*
G01X4226378Y-2879941D01*
G01X4230425Y-2879528D01*
G01X4236982Y-2877355D01*
G01X4242860Y-2873729D01*
G01X4247745Y-2868845D01*
G01X4251371Y-2862966D01*
G01X4252927Y-2858268D01*
G01X4254816Y-2854942D01*
G01X4257833Y-2852591D01*
G01X4261521Y-2851575D01*
G01X4263002Y-2851579D01*
G01X4264319Y-2851683D01*
G01X4285433Y-2830569D01*
G01X4285433Y-2830813D01*
G01X4286506Y-2834819D01*
G01X4288580Y-2838410D01*
G01X4291512Y-2841342D01*
G01X4295103Y-2843415D01*
G01X4299108Y-2844488D01*
G01X4299352Y-2844488D01*
G01X4278239Y-2865602D01*
G01X4278239Y-2865602D01*
G01X4278483Y-2865780D01*
G01X4284557Y-2868874D01*
G01X4284557Y-2868875D01*
G01X4291040Y-2870981D01*
G01X4297772Y-2872047D01*
G01X4297773Y-2872047D01*
G01X4304589Y-2872047D01*
G01X4304590Y-2872047D01*
G01X4311322Y-2870981D01*
G01X4311322Y-2870981D01*
G01X4317805Y-2868875D01*
G01X4317805Y-2868874D01*
G01X4323879Y-2865780D01*
G01X4324123Y-2865602D01*
G01X4303010Y-2844488D01*
G01X4303254Y-2844488D01*
G01X4307260Y-2843415D01*
G01X4310851Y-2841342D01*
G01X4313783Y-2838410D01*
G01X4315856Y-2834819D01*
G01X4316929Y-2830813D01*
G01X4316929Y-2830569D01*
G01X4338043Y-2851683D01*
G01X4338221Y-2851438D01*
G01X4341315Y-2845364D01*
G01X4341315Y-2845364D01*
G01X4343422Y-2838881D01*
G01X4343422Y-2838881D01*
G01X4344488Y-2832149D01*
G01X4344488Y-2832148D01*
G01X4344488Y-2825332D01*
G01X4344488Y-2825331D01*
G01X4343422Y-2818599D01*
G01X4343422Y-2818599D01*
G01X4341315Y-2812116D01*
G01X4341315Y-2812116D01*
G01X4338221Y-2806042D01*
G01X4338043Y-2805798D01*
G01X4316929Y-2826911D01*
G01X4316929Y-2826667D01*
G01X4315856Y-2822662D01*
G01X4313783Y-2819071D01*
G01X4310851Y-2816139D01*
G01X4307260Y-2814065D01*
G01X4303254Y-2812992D01*
G01X4303010Y-2812992D01*
G01X4324123Y-2791878D01*
G01X4323879Y-2791701D01*
G01X4317805Y-2788606D01*
G01X4317805Y-2788606D01*
G01X4311322Y-2786499D01*
G01X4304590Y-2785433D01*
G01X4297772Y-2785433D01*
G01X4291040Y-2786499D01*
G01X4291040Y-2786499D01*
G01X4284557Y-2788606D01*
G01X4284557Y-2788606D01*
G01X4278483Y-2791700D01*
G01X4278483Y-2791701D01*
G01X4278239Y-2791878D01*
G01X4299353Y-2812992D01*
G01X4299108Y-2812992D01*
G01X4295103Y-2814065D01*
G01X4291512Y-2816139D01*
G01X4288580Y-2819071D01*
G01X4286506Y-2822662D01*
G01X4285433Y-2826667D01*
G01X4285433Y-2826912D01*
G01X4264319Y-2805798D01*
G01X4263002Y-2805901D01*
G01X4262261Y-2805814D01*
G01X4261521Y-2805906D01*
G01X4260380Y-2805591D01*
G01X4259204Y-2805452D01*
G01X4258553Y-2805087D01*
G01X4257833Y-2804889D01*
G01X4256899Y-2804161D01*
G01X4255867Y-2803583D01*
G01X4255405Y-2802997D01*
G01X4254816Y-2802539D01*
G01X4254231Y-2801509D01*
G01X4253498Y-2800579D01*
G01X4252927Y-2799212D01*
G01X4252757Y-2798698D01*
G01X4251371Y-2794514D01*
G01X4247745Y-2788636D01*
G01X4242860Y-2783751D01*
G01X4236982Y-2780125D01*
G01X4236982Y-2780125D01*
G01X4236981Y-2780125D01*
G01X4236982Y-2780125D01*
G01X4230425Y-2777953D01*
G01X4230425Y-2777953D01*
G01X4230425Y-2777953D01*
G01X4226378Y-2777539D01*
G01X4226378Y-2777539D01*
G01X4179134Y-2777539D01*
G01X4175087Y-2777953D01*
G01X4168530Y-2780125D01*
G01X4162651Y-2783751D01*
G01X4157767Y-2788636D01*
G01X4154141Y-2794514D01*
G01X4151969Y-2801071D01*
G01X4151969Y-2801071D01*
G01X4151555Y-2805118D01*
G01X4055118Y-2805118D01*
G01X4055118Y-2750933D01*
G01X4389744Y-2750933D01*
G01X4389744Y-2759303D01*
G01X4391053Y-2767569D01*
G01X4391053Y-2767569D01*
G01X4393639Y-2775528D01*
G01X4397439Y-2782985D01*
G01X4402358Y-2789756D01*
G01X4408276Y-2795673D01*
G01X4415047Y-2800593D01*
G01X4415047Y-2800593D01*
G01X4416009Y-2801083D01*
G01X4419013Y-2803451D01*
G01X4420882Y-2806788D01*
G01X4421331Y-2810587D01*
G01X4420293Y-2814268D01*
G01X4417925Y-2817272D01*
G01X4417321Y-2817749D01*
G01X4413418Y-2820584D01*
G01X4413418Y-2820584D01*
G01X4408379Y-2825623D01*
G01X4404190Y-2831389D01*
G01X4404190Y-2831389D01*
G01X4400955Y-2837738D01*
G01X4400955Y-2837739D01*
G01X4398753Y-2844516D01*
G01X4398753Y-2844516D01*
G01X4398632Y-2845276D01*
G01X4435708Y-2845276D01*
G01X4434412Y-2847520D01*
G01X4433071Y-2852527D01*
G01X4433071Y-2857710D01*
G01X4434412Y-2862716D01*
G01X4435708Y-2864961D01*
G01X4398632Y-2864961D01*
G01X4398753Y-2865720D01*
G01X4398753Y-2865720D01*
G01X4400955Y-2872498D01*
G01X4400955Y-2872498D01*
G01X4404190Y-2878847D01*
G01X4404190Y-2878848D01*
G01X4408379Y-2884613D01*
G01X4413418Y-2889652D01*
G01X4414108Y-2890153D01*
G01X4416704Y-2892962D01*
G01X4418028Y-2896551D01*
G01X4417878Y-2900373D01*
G01X4416277Y-2903847D01*
G01X4413492Y-2906428D01*
G01X4410683Y-2908161D01*
G01X4405799Y-2913045D01*
G01X4402173Y-2918924D01*
G01X4400000Y-2925480D01*
G01X4400000Y-2925480D01*
G01X4399587Y-2929527D01*
G01X4399587Y-2980709D01*
G01X4400000Y-2984756D01*
G01X4402173Y-2991312D01*
G01X4402173Y-2991312D01*
G01X4405799Y-2997191D01*
G01X4410683Y-3002075D01*
G01X4416562Y-3005701D01*
G01X4416562Y-3005701D01*
G01X4416562Y-3005701D01*
G01X4423004Y-3007836D01*
G01X4423118Y-3007874D01*
G01X4427165Y-3008287D01*
G01X4478347Y-3008287D01*
G01X4482394Y-3007874D01*
G01X4488950Y-3005701D01*
G01X4494829Y-3002075D01*
G01X4499713Y-2997191D01*
G01X4503339Y-2991312D01*
G01X4505512Y-2984756D01*
G01X4505925Y-2980709D01*
G01X4505925Y-2929527D01*
G01X4505512Y-2925480D01*
G01X4503339Y-2918924D01*
G01X4499713Y-2913045D01*
G01X4494829Y-2908161D01*
G01X4494829Y-2908161D01*
G01X4494829Y-2908161D01*
G01X4492020Y-2906428D01*
G01X4489218Y-2903824D01*
G01X4487627Y-2900345D01*
G01X4487488Y-2896523D01*
G01X4488822Y-2892938D01*
G01X4491404Y-2890153D01*
G01X4492094Y-2889652D01*
G01X4497133Y-2884613D01*
G01X4501322Y-2878848D01*
G01X4501322Y-2878847D01*
G01X4504557Y-2872498D01*
G01X4504557Y-2872498D01*
G01X4506759Y-2865720D01*
G01X4506759Y-2865720D01*
G01X4506879Y-2864961D01*
G01X4469804Y-2864961D01*
G01X4471099Y-2862716D01*
G01X4472441Y-2857710D01*
G01X4472441Y-2852527D01*
G01X4471099Y-2847520D01*
G01X4469804Y-2845276D01*
G01X4506879Y-2845276D01*
G01X4506759Y-2844516D01*
G01X4506759Y-2844516D01*
G01X4504557Y-2837739D01*
G01X4504557Y-2837738D01*
G01X4501322Y-2831389D01*
G01X4501322Y-2831389D01*
G01X4497133Y-2825623D01*
G01X4492093Y-2820584D01*
G01X4488191Y-2817749D01*
G01X4485595Y-2814940D01*
G01X4484271Y-2811351D01*
G01X4484421Y-2807529D01*
G01X4486022Y-2804056D01*
G01X4488831Y-2801459D01*
G01X4489502Y-2801083D01*
G01X4490465Y-2800593D01*
G01X4497236Y-2795673D01*
G01X4503154Y-2789756D01*
G01X4508073Y-2782985D01*
G01X4511872Y-2775528D01*
G01X4514459Y-2767569D01*
G01X4515768Y-2759303D01*
G01X4515768Y-2750934D01*
G01X4515768Y-2750933D01*
G01X4515768Y-2750933D01*
G01X4514459Y-2742668D01*
G01X4514459Y-2742668D01*
G01X4511872Y-2734708D01*
G01X4508073Y-2727251D01*
G01X4503154Y-2720481D01*
G01X4497236Y-2714563D01*
G01X4490465Y-2709644D01*
G01X4483008Y-2705844D01*
G01X4483008Y-2705844D01*
G01X4483008Y-2705844D01*
G01X4475049Y-2703258D01*
G01X4466783Y-2701949D01*
G01X4466783Y-2701949D01*
G01X4438729Y-2701949D01*
G01X4438728Y-2701949D01*
G01X4430463Y-2703258D01*
G01X4422504Y-2705844D01*
G01X4415047Y-2709644D01*
G01X4408276Y-2714563D01*
G01X4402358Y-2720481D01*
G01X4397439Y-2727251D01*
G01X4393639Y-2734708D01*
G01X4391053Y-2742668D01*
G01X4389744Y-2750933D01*
G01X4055118Y-2750933D01*
G01X4055118Y-2368019D01*
G01X4161417Y-2368019D01*
G01X4161417Y-2381890D01*
G01X4161417Y-2381890D01*
G01X4186846Y-2381890D01*
G01X4186098Y-2383694D01*
G01X4185039Y-2389018D01*
G01X4185039Y-2394447D01*
G01X4186098Y-2399771D01*
G01X4186846Y-2401575D01*
G01X4161417Y-2401575D01*
G01X4161417Y-2401575D01*
G01X4161417Y-2415445D01*
G01X4161417Y-2415446D01*
G01X4162678Y-2423402D01*
G01X4165167Y-2431064D01*
G01X4165167Y-2431064D01*
G01X4168824Y-2438242D01*
G01X4173560Y-2444759D01*
G01X4179256Y-2450456D01*
G01X4185773Y-2455191D01*
G01X4192952Y-2458849D01*
G01X4192952Y-2458849D01*
G01X4200614Y-2461338D01*
G01X4200614Y-2461338D01*
G01X4202756Y-2461677D01*
G01X4202756Y-2461677D01*
G01X4202756Y-2417485D01*
G01X4204560Y-2418232D01*
G01X4209884Y-2419291D01*
G01X4215313Y-2419291D01*
G01X4220637Y-2418232D01*
G01X4222441Y-2417485D01*
G01X4222441Y-2461677D01*
G01X4224583Y-2461338D01*
G01X4224583Y-2461338D01*
G01X4232245Y-2458849D01*
G01X4232245Y-2458849D01*
G01X4239423Y-2455191D01*
G01X4245941Y-2450456D01*
G01X4251637Y-2444759D01*
G01X4256372Y-2438242D01*
G01X4260030Y-2431064D01*
G01X4260030Y-2431064D01*
G01X4262519Y-2423402D01*
G01X4263779Y-2415446D01*
G01X4263780Y-2415445D01*
G01X4263780Y-2401575D01*
G01X4263779Y-2401575D01*
G01X4238351Y-2401575D01*
G01X4239098Y-2399771D01*
G01X4240157Y-2394447D01*
G01X4240157Y-2389018D01*
G01X4239098Y-2383694D01*
G01X4238351Y-2381890D01*
G01X4263779Y-2381890D01*
G01X4263780Y-2381890D01*
G01X4263780Y-2368019D01*
G01X4263779Y-2368019D01*
G01X4262519Y-2360062D01*
G01X4260030Y-2352401D01*
G01X4260030Y-2352401D01*
G01X4256372Y-2345222D01*
G01X4252978Y-2340551D01*
G01X4350374Y-2340551D01*
G01X4350374Y-2442914D01*
G01X4350787Y-2446961D01*
G01X4351946Y-2450456D01*
G01X4352960Y-2453517D01*
G01X4356586Y-2459396D01*
G01X4361470Y-2464280D01*
G01X4367349Y-2467906D01*
G01X4367349Y-2467906D01*
G01X4367349Y-2467906D01*
G01X4373792Y-2470041D01*
G01X4373906Y-2470079D01*
G01X4377952Y-2470492D01*
G01X4440945Y-2470492D01*
G01X4444992Y-2470079D01*
G01X4451549Y-2467906D01*
G01X4457427Y-2464280D01*
G01X4462311Y-2459396D01*
G01X4465938Y-2453517D01*
G01X4468110Y-2446961D01*
G01X4468524Y-2442914D01*
G01X4468524Y-2340551D01*
G01X4468110Y-2336504D01*
G01X4465938Y-2329947D01*
G01X4462311Y-2324069D01*
G01X4457427Y-2319185D01*
G01X4451549Y-2315559D01*
G01X4451549Y-2315558D01*
G01X4451548Y-2315558D01*
G01X4451549Y-2315558D01*
G01X4444992Y-2313386D01*
G01X4444992Y-2313386D01*
G01X4444992Y-2313386D01*
G01X4440945Y-2312972D01*
G01X4440945Y-2312972D01*
G01X4377952Y-2312972D01*
G01X4373905Y-2313386D01*
G01X4367349Y-2315558D01*
G01X4361470Y-2319184D01*
G01X4356586Y-2324069D01*
G01X4352960Y-2329948D01*
G01X4350787Y-2336504D01*
G01X4350787Y-2336504D01*
G01X4350374Y-2340551D01*
G01X4252978Y-2340551D01*
G01X4251637Y-2338705D01*
G01X4245941Y-2333008D01*
G01X4239423Y-2328273D01*
G01X4232245Y-2324616D01*
G01X4232245Y-2324616D01*
G01X4224583Y-2322126D01*
G01X4224583Y-2322126D01*
G01X4222441Y-2321787D01*
G01X4222441Y-2365979D01*
G01X4220637Y-2365232D01*
G01X4215313Y-2364173D01*
G01X4209884Y-2364173D01*
G01X4204560Y-2365232D01*
G01X4202756Y-2365979D01*
G01X4202756Y-2321787D01*
G01X4202756Y-2321787D01*
G01X4200614Y-2322126D01*
G01X4200613Y-2322126D01*
G01X4192952Y-2324616D01*
G01X4192952Y-2324616D01*
G01X4185773Y-2328273D01*
G01X4179256Y-2333008D01*
G01X4173560Y-2338705D01*
G01X4168824Y-2345222D01*
G01X4165167Y-2352401D01*
G01X4165167Y-2352401D01*
G01X4162678Y-2360062D01*
G01X4161417Y-2368019D01*
G01X4161417Y-2368019D01*
G01X4055118Y-2368019D01*
G01X4055118Y-2103005D01*
G01X4055202Y-2101725D01*
G01X4055620Y-2098547D01*
G01X4055620Y-2098547D01*
G01X4056283Y-2096075D01*
G01X4057262Y-2093712D01*
G01X4058541Y-2091496D01*
G01X4060098Y-2089466D01*
G01X4061907Y-2087657D01*
G01X4063937Y-2086100D01*
G01X4066153Y-2084821D01*
G01X4068516Y-2083842D01*
G01X4070988Y-2083179D01*
G01X4072322Y-2083004D01*
G01X4074166Y-2082761D01*
G01X4075446Y-2082677D01*
G01X4546601Y-2082677D01*
G01X4547881Y-2082761D01*
G37*
M02*
