G04 This is an RS-274x file exported by *
G04 gerbv version  *
G04 More information is available about gerbv at *
G04 https://gerbv.github.io/ *
G04 --End of header info--*
%MOIN*%
%FSLAX36Y36*%
%IPPOS*%
G04 --Define apertures--*
%AMMACRO10*
4,1,4,0.023622,0.023622,-0.023622,0.023622,-0.023622,-0.023622,0.023622,-0.023622,0.023622,0.023622,0.000000*
1,1,0.019685,0.023622,0.023622*
1,1,0.019685,-0.023622,0.023622*
1,1,0.019685,-0.023622,-0.023622*
1,1,0.019685,0.023622,-0.023622*
20,1,0.019685,0.023622,0.023622,-0.023622,0.023622,0.000000*
20,1,0.019685,-0.023622,0.023622,-0.023622,-0.023622,0.000000*
20,1,0.019685,-0.023622,-0.023622,0.023622,-0.023622,0.000000*
20,1,0.019685,0.023622,-0.023622,0.023622,0.023622,0.000000*
%
%ADD10MACRO10*%
%ADD11O,0.0866X0.0669*%
%AMMACRO12*
4,1,4,0.029528,0.049213,-0.029528,0.049213,-0.029528,-0.049213,0.029528,-0.049213,0.029528,0.049213,0.000000*
1,1,0.019685,0.029528,0.049213*
1,1,0.019685,-0.029528,0.049213*
1,1,0.019685,-0.029528,-0.049213*
1,1,0.019685,0.029528,-0.049213*
20,1,0.019685,0.029528,0.049213,-0.029528,0.049213,0.000000*
20,1,0.019685,-0.029528,0.049213,-0.029528,-0.049213,0.000000*
20,1,0.019685,-0.029528,-0.049213,0.029528,-0.049213,0.000000*
20,1,0.019685,0.029528,-0.049213,0.029528,0.049213,0.000000*
%
%ADD12MACRO12*%
%ADD13O,0.0787X0.1181*%
%AMMACRO14*
4,1,4,-0.029173,-0.042953,0.029173,-0.042953,0.029173,0.042953,-0.029173,0.042953,-0.029173,-0.042953,0.000000*
1,1,0.016457,-0.029173,-0.042953*
1,1,0.016457,0.029173,-0.042953*
1,1,0.016457,0.029173,0.042953*
1,1,0.016457,-0.029173,0.042953*
20,1,0.016457,-0.029173,-0.042953,0.029173,-0.042953,0.000000*
20,1,0.016457,0.029173,-0.042953,0.029173,0.042953,0.000000*
20,1,0.016457,0.029173,0.042953,-0.029173,0.042953,0.000000*
20,1,0.016457,-0.029173,0.042953,-0.029173,-0.042953,0.000000*
%
%ADD14MACRO14*%
%ADD15O,0.0787X0.1102*%
%ADD16O,0.0551X0.0787*%
%AMMACRO17*
4,1,4,0.017717,-0.029528,0.017717,0.029528,-0.017717,0.029528,-0.017717,-0.029528,0.017717,-0.029528,0.000000*
1,1,0.019685,0.017717,-0.029528*
1,1,0.019685,0.017717,0.029528*
1,1,0.019685,-0.017717,0.029528*
1,1,0.019685,-0.017717,-0.029528*
20,1,0.019685,0.017717,-0.029528,0.017717,0.029528,0.000000*
20,1,0.019685,0.017717,0.029528,-0.017717,0.029528,0.000000*
20,1,0.019685,-0.017717,0.029528,-0.017717,-0.029528,0.000000*
20,1,0.019685,-0.017717,-0.029528,0.017717,-0.029528,0.000000*
%
%ADD17MACRO17*%
%AMMACRO18*
4,1,4,0.024606,-0.015748,0.024606,0.015748,-0.024606,0.015748,-0.024606,-0.015748,0.024606,-0.015748,0.000000*
1,1,0.019685,0.024606,-0.015748*
1,1,0.019685,0.024606,0.015748*
1,1,0.019685,-0.024606,0.015748*
1,1,0.019685,-0.024606,-0.015748*
20,1,0.019685,0.024606,-0.015748,0.024606,0.015748,0.000000*
20,1,0.019685,0.024606,0.015748,-0.024606,0.015748,0.000000*
20,1,0.019685,-0.024606,0.015748,-0.024606,-0.015748,0.000000*
20,1,0.019685,-0.024606,-0.015748,0.024606,-0.015748,0.000000*
%
%ADD18MACRO18*%
%AMMACRO19*
4,1,4,0.025591,-0.016240,0.025591,0.016240,-0.025591,0.016240,-0.025591,-0.016240,0.025591,-0.016240,0.000000*
1,1,0.019685,0.025591,-0.016240*
1,1,0.019685,0.025591,0.016240*
1,1,0.019685,-0.025591,0.016240*
1,1,0.019685,-0.025591,-0.016240*
20,1,0.019685,0.025591,-0.016240,0.025591,0.016240,0.000000*
20,1,0.019685,0.025591,0.016240,-0.025591,0.016240,0.000000*
20,1,0.019685,-0.025591,0.016240,-0.025591,-0.016240,0.000000*
20,1,0.019685,-0.025591,-0.016240,0.025591,-0.016240,0.000000*
%
%ADD19MACRO19*%
%AMMACRO20*
4,1,4,-0.011811,-0.011811,0.011811,-0.011811,0.011811,0.011811,-0.011811,0.011811,-0.011811,-0.011811,0.000000*
1,1,0.019685,-0.011811,-0.011811*
1,1,0.019685,0.011811,-0.011811*
1,1,0.019685,0.011811,0.011811*
1,1,0.019685,-0.011811,0.011811*
20,1,0.019685,-0.011811,-0.011811,0.011811,-0.011811,0.000000*
20,1,0.019685,0.011811,-0.011811,0.011811,0.011811,0.000000*
20,1,0.019685,0.011811,0.011811,-0.011811,0.011811,0.000000*
20,1,0.019685,-0.011811,0.011811,-0.011811,-0.011811,0.000000*
%
%ADD20MACRO20*%
%AMMACRO21*
4,1,4,-0.024606,0.015748,-0.024606,-0.015748,0.024606,-0.015748,0.024606,0.015748,-0.024606,0.015748,0.000000*
1,1,0.019685,-0.024606,0.015748*
1,1,0.019685,-0.024606,-0.015748*
1,1,0.019685,0.024606,-0.015748*
1,1,0.019685,0.024606,0.015748*
20,1,0.019685,-0.024606,0.015748,-0.024606,-0.015748,0.000000*
20,1,0.019685,-0.024606,-0.015748,0.024606,-0.015748,0.000000*
20,1,0.019685,0.024606,-0.015748,0.024606,0.015748,0.000000*
20,1,0.019685,0.024606,0.015748,-0.024606,0.015748,0.000000*
%
%ADD21MACRO21*%
%AMMACRO22*
4,1,4,0.025859,-0.035701,0.025859,0.035701,-0.025859,0.035701,-0.025859,-0.035701,0.025859,-0.035701,0.000000*
1,1,0.015211,0.025859,-0.035701*
1,1,0.015211,0.025859,0.035701*
1,1,0.015211,-0.025859,0.035701*
1,1,0.015211,-0.025859,-0.035701*
20,1,0.015211,0.025859,-0.035701,0.025859,0.035701,0.000000*
20,1,0.015211,0.025859,0.035701,-0.025859,0.035701,0.000000*
20,1,0.015211,-0.025859,0.035701,-0.025859,-0.035701,0.000000*
20,1,0.015211,-0.025859,-0.035701,0.025859,-0.035701,0.000000*
%
%ADD22MACRO22*%
%ADD23C,0.0787*%
%ADD24C,0.0866*%
%ADD25O,0.0669X0.0984*%
%ADD26R,0.0984X0.0394*%
%ADD27R,0.0394X0.0709*%
%AMMACRO28*
4,1,4,0.032480,0.005906,-0.032480,0.005906,-0.032480,-0.005906,0.032480,-0.005906,0.032480,0.005906,0.000000*
1,1,0.011811,0.032480,0.005906*
1,1,0.011811,-0.032480,0.005906*
1,1,0.011811,-0.032480,-0.005906*
1,1,0.011811,0.032480,-0.005906*
20,1,0.011811,0.032480,0.005906,-0.032480,0.005906,0.000000*
20,1,0.011811,-0.032480,0.005906,-0.032480,-0.005906,0.000000*
20,1,0.011811,-0.032480,-0.005906,0.032480,-0.005906,0.000000*
20,1,0.011811,0.032480,-0.005906,0.032480,0.005906,0.000000*
%
%ADD28MACRO28*%
%ADD29R,0.0118X0.0512*%
%AMMACRO30*
4,1,4,0.025591,0.033465,-0.025591,0.033465,-0.025591,-0.033465,0.025591,-0.033465,0.025591,0.033465,0.000000*
1,1,0.019685,0.025591,0.033465*
1,1,0.019685,-0.025591,0.033465*
1,1,0.019685,-0.025591,-0.033465*
1,1,0.019685,0.025591,-0.033465*
20,1,0.019685,0.025591,0.033465,-0.025591,0.033465,0.000000*
20,1,0.019685,-0.025591,0.033465,-0.025591,-0.033465,0.000000*
20,1,0.019685,-0.025591,-0.033465,0.025591,-0.033465,0.000000*
20,1,0.019685,0.025591,-0.033465,0.025591,0.033465,0.000000*
%
%ADD30MACRO30*%
%ADD31O,0.0827X0.0669*%
%AMMACRO32*
4,1,4,-0.023622,-0.023622,0.023622,-0.023622,0.023622,0.023622,-0.023622,0.023622,-0.023622,-0.023622,0.000000*
1,1,0.019685,-0.023622,-0.023622*
1,1,0.019685,0.023622,-0.023622*
1,1,0.019685,0.023622,0.023622*
1,1,0.019685,-0.023622,0.023622*
20,1,0.019685,-0.023622,-0.023622,0.023622,-0.023622,0.000000*
20,1,0.019685,0.023622,-0.023622,0.023622,0.023622,0.000000*
20,1,0.019685,0.023622,0.023622,-0.023622,0.023622,0.000000*
20,1,0.019685,-0.023622,0.023622,-0.023622,-0.023622,0.000000*
%
%ADD32MACRO32*%
%AMMACRO33*
4,1,4,-0.016240,-0.025591,0.016240,-0.025591,0.016240,0.025591,-0.016240,0.025591,-0.016240,-0.025591,0.000000*
1,1,0.019685,-0.016240,-0.025591*
1,1,0.019685,0.016240,-0.025591*
1,1,0.019685,0.016240,0.025591*
1,1,0.019685,-0.016240,0.025591*
20,1,0.019685,-0.016240,-0.025591,0.016240,-0.025591,0.000000*
20,1,0.019685,0.016240,-0.025591,0.016240,0.025591,0.000000*
20,1,0.019685,0.016240,0.025591,-0.016240,0.025591,0.000000*
20,1,0.019685,-0.016240,0.025591,-0.016240,-0.025591,0.000000*
%
%ADD33MACRO33*%
%AMMACRO34*
4,1,4,0.003937,-0.022146,0.003937,0.022146,-0.003937,0.022146,-0.003937,-0.022146,0.003937,-0.022146,0.000000*
1,1,0.007874,0.003937,-0.022146*
1,1,0.007874,0.003937,0.022146*
1,1,0.007874,-0.003937,0.022146*
1,1,0.007874,-0.003937,-0.022146*
20,1,0.007874,0.003937,-0.022146,0.003937,0.022146,0.000000*
20,1,0.007874,0.003937,0.022146,-0.003937,0.022146,0.000000*
20,1,0.007874,-0.003937,0.022146,-0.003937,-0.022146,0.000000*
20,1,0.007874,-0.003937,-0.022146,0.003937,-0.022146,0.000000*
%
%ADD34MACRO34*%
%AMMACRO35*
4,1,4,-0.014764,0.024606,-0.014764,-0.024606,0.014764,-0.024606,0.014764,0.024606,-0.014764,0.024606,0.000000*
1,1,0.029528,-0.014764,0.024606*
1,1,0.029528,-0.014764,-0.024606*
1,1,0.029528,0.014764,-0.024606*
1,1,0.029528,0.014764,0.024606*
20,1,0.029528,-0.014764,0.024606,-0.014764,-0.024606,0.000000*
20,1,0.029528,-0.014764,-0.024606,0.014764,-0.024606,0.000000*
20,1,0.029528,0.014764,-0.024606,0.014764,0.024606,0.000000*
20,1,0.029528,0.014764,0.024606,-0.014764,0.024606,0.000000*
%
%ADD35MACRO35*%
%AMMACRO36*
4,1,4,-0.055118,0.019685,-0.055118,-0.019685,0.055118,-0.019685,0.055118,0.019685,-0.055118,0.019685,0.000000*
1,1,0.039370,-0.055118,0.019685*
1,1,0.039370,-0.055118,-0.019685*
1,1,0.039370,0.055118,-0.019685*
1,1,0.039370,0.055118,0.019685*
20,1,0.039370,-0.055118,0.019685,-0.055118,-0.019685,0.000000*
20,1,0.039370,-0.055118,-0.019685,0.055118,-0.019685,0.000000*
20,1,0.039370,0.055118,-0.019685,0.055118,0.019685,0.000000*
20,1,0.039370,0.055118,0.019685,-0.055118,0.019685,0.000000*
%
%ADD36MACRO36*%
%AMMACRO37*
4,1,4,0.023130,0.005906,-0.023130,0.005906,-0.023130,-0.005906,0.023130,-0.005906,0.023130,0.005906,0.000000*
1,1,0.011811,0.023130,0.005906*
1,1,0.011811,-0.023130,0.005906*
1,1,0.011811,-0.023130,-0.005906*
1,1,0.011811,0.023130,-0.005906*
20,1,0.011811,0.023130,0.005906,-0.023130,0.005906,0.000000*
20,1,0.011811,-0.023130,0.005906,-0.023130,-0.005906,0.000000*
20,1,0.011811,-0.023130,-0.005906,0.023130,-0.005906,0.000000*
20,1,0.011811,0.023130,-0.005906,0.023130,0.005906,0.000000*
%
%ADD37MACRO37*%
%AMMACRO38*
4,1,4,-0.025591,0.016240,-0.025591,-0.016240,0.025591,-0.016240,0.025591,0.016240,-0.025591,0.016240,0.000000*
1,1,0.019685,-0.025591,0.016240*
1,1,0.019685,-0.025591,-0.016240*
1,1,0.019685,0.025591,-0.016240*
1,1,0.019685,0.025591,0.016240*
20,1,0.019685,-0.025591,0.016240,-0.025591,-0.016240,0.000000*
20,1,0.019685,-0.025591,-0.016240,0.025591,-0.016240,0.000000*
20,1,0.019685,0.025591,-0.016240,0.025591,0.016240,0.000000*
20,1,0.019685,0.025591,0.016240,-0.025591,0.016240,0.000000*
%
%ADD38MACRO38*%
%AMMACRO39*
4,1,4,-0.072835,0.029528,-0.072835,-0.029528,0.072835,-0.029528,0.072835,0.029528,-0.072835,0.029528,0.000000*
1,1,0.019685,-0.072835,0.029528*
1,1,0.019685,-0.072835,-0.029528*
1,1,0.019685,0.072835,-0.029528*
1,1,0.019685,0.072835,0.029528*
20,1,0.019685,-0.072835,0.029528,-0.072835,-0.029528,0.000000*
20,1,0.019685,-0.072835,-0.029528,0.072835,-0.029528,0.000000*
20,1,0.019685,0.072835,-0.029528,0.072835,0.029528,0.000000*
20,1,0.019685,0.072835,0.029528,-0.072835,0.029528,0.000000*
%
%ADD39MACRO39*%
%AMMACRO40*
4,1,4,0.015748,0.015748,-0.015748,0.015748,-0.015748,-0.015748,0.015748,-0.015748,0.015748,0.015748,0.000000*
1,1,0.031496,0.015748,0.015748*
1,1,0.031496,-0.015748,0.015748*
1,1,0.031496,-0.015748,-0.015748*
1,1,0.031496,0.015748,-0.015748*
20,1,0.031496,0.015748,0.015748,-0.015748,0.015748,0.000000*
20,1,0.031496,-0.015748,0.015748,-0.015748,-0.015748,0.000000*
20,1,0.031496,-0.015748,-0.015748,0.015748,-0.015748,0.000000*
20,1,0.031496,0.015748,-0.015748,0.015748,0.015748,0.000000*
%
%ADD40MACRO40*%
%ADD41C,0.0630*%
%AMMACRO42*
4,1,4,-0.024606,0.014764,-0.024606,-0.014764,0.024606,-0.014764,0.024606,0.014764,-0.024606,0.014764,0.000000*
1,1,0.019685,-0.024606,0.014764*
1,1,0.019685,-0.024606,-0.014764*
1,1,0.019685,0.024606,-0.014764*
1,1,0.019685,0.024606,0.014764*
20,1,0.019685,-0.024606,0.014764,-0.024606,-0.014764,0.000000*
20,1,0.019685,-0.024606,-0.014764,0.024606,-0.014764,0.000000*
20,1,0.019685,0.024606,-0.014764,0.024606,0.014764,0.000000*
20,1,0.019685,0.024606,0.014764,-0.024606,0.014764,0.000000*
%
%ADD42MACRO42*%
%AMMACRO43*
4,1,4,-0.006398,0.014272,-0.006398,-0.014272,0.006398,-0.014272,0.006398,0.014272,-0.006398,0.014272,0.000000*
1,1,0.012795,-0.006398,0.014272*
1,1,0.012795,-0.006398,-0.014272*
1,1,0.012795,0.006398,-0.014272*
1,1,0.012795,0.006398,0.014272*
20,1,0.012795,-0.006398,0.014272,-0.006398,-0.014272,0.000000*
20,1,0.012795,-0.006398,-0.014272,0.006398,-0.014272,0.000000*
20,1,0.012795,0.006398,-0.014272,0.006398,0.014272,0.000000*
20,1,0.012795,0.006398,0.014272,-0.006398,0.014272,0.000000*
%
%ADD43MACRO43*%
%ADD44R,0.0157X0.0551*%
%ADD45O,0.0413X0.0748*%
%ADD46R,0.0453X0.0571*%
%ADD47R,0.0689X0.0748*%
%AMMACRO48*
4,1,4,-0.015748,-0.024606,0.015748,-0.024606,0.015748,0.024606,-0.015748,0.024606,-0.015748,-0.024606,0.000000*
1,1,0.019685,-0.015748,-0.024606*
1,1,0.019685,0.015748,-0.024606*
1,1,0.019685,0.015748,0.024606*
1,1,0.019685,-0.015748,0.024606*
20,1,0.019685,-0.015748,-0.024606,0.015748,-0.024606,0.000000*
20,1,0.019685,0.015748,-0.024606,0.015748,0.024606,0.000000*
20,1,0.019685,0.015748,0.024606,-0.015748,0.024606,0.000000*
20,1,0.019685,-0.015748,0.024606,-0.015748,-0.024606,0.000000*
%
%ADD48MACRO48*%
%AMMACRO49*
4,1,4,0.005906,-0.034449,0.005906,0.034449,-0.005906,0.034449,-0.005906,-0.034449,0.005906,-0.034449,0.000000*
1,1,0.011811,0.005906,-0.034449*
1,1,0.011811,0.005906,0.034449*
1,1,0.011811,-0.005906,0.034449*
1,1,0.011811,-0.005906,-0.034449*
20,1,0.011811,0.005906,-0.034449,0.005906,0.034449,0.000000*
20,1,0.011811,0.005906,0.034449,-0.005906,0.034449,0.000000*
20,1,0.011811,-0.005906,0.034449,-0.005906,-0.034449,0.000000*
20,1,0.011811,-0.005906,-0.034449,0.005906,-0.034449,0.000000*
%
%ADD49MACRO49*%
%AMMACRO50*
4,1,4,-0.021654,-0.021654,0.021654,-0.021654,0.021654,0.021654,-0.021654,0.021654,-0.021654,-0.021654,0.000000*
1,1,0.019685,-0.021654,-0.021654*
1,1,0.019685,0.021654,-0.021654*
1,1,0.019685,0.021654,0.021654*
1,1,0.019685,-0.021654,0.021654*
20,1,0.019685,-0.021654,-0.021654,0.021654,-0.021654,0.000000*
20,1,0.019685,0.021654,-0.021654,0.021654,0.021654,0.000000*
20,1,0.019685,0.021654,0.021654,-0.021654,0.021654,0.000000*
20,1,0.019685,-0.021654,0.021654,-0.021654,-0.021654,0.000000*
%
%ADD50MACRO50*%
%AMMACRO51*
4,1,4,0.006398,-0.014272,0.006398,0.014272,-0.006398,0.014272,-0.006398,-0.014272,0.006398,-0.014272,0.000000*
1,1,0.012795,0.006398,-0.014272*
1,1,0.012795,0.006398,0.014272*
1,1,0.012795,-0.006398,0.014272*
1,1,0.012795,-0.006398,-0.014272*
20,1,0.012795,0.006398,-0.014272,0.006398,0.014272,0.000000*
20,1,0.012795,0.006398,0.014272,-0.006398,0.014272,0.000000*
20,1,0.012795,-0.006398,0.014272,-0.006398,-0.014272,0.000000*
20,1,0.012795,-0.006398,-0.014272,0.006398,-0.014272,0.000000*
%
%ADD51MACRO51*%
%AMMACRO52*
4,1,4,-0.024094,-0.024094,0.024094,-0.024094,0.024094,0.024094,-0.024094,0.024094,-0.024094,-0.024094,0.000000*
1,1,0.018740,-0.024094,-0.024094*
1,1,0.018740,0.024094,-0.024094*
1,1,0.018740,0.024094,0.024094*
1,1,0.018740,-0.024094,0.024094*
20,1,0.018740,-0.024094,-0.024094,0.024094,-0.024094,0.000000*
20,1,0.018740,0.024094,-0.024094,0.024094,0.024094,0.000000*
20,1,0.018740,0.024094,0.024094,-0.024094,0.024094,0.000000*
20,1,0.018740,-0.024094,0.024094,-0.024094,-0.024094,0.000000*
%
%ADD52MACRO52*%
%ADD53C,0.0709*%
%ADD54C,0.0472*%
%ADD55C,0.0354*%
%ADD56C,0.0394*%
%ADD57C,0.0197*%
%ADD58C,0.0118*%
%ADD59C,0.0079*%
G04 --Start main section--*
G54D10*
G01X4452756Y-2955118D03*
G54D11*
G01X4452756Y-2855118D03*
G01X4452756Y-2755118D03*
G54D12*
G01X4409449Y-2391732D03*
G54D13*
G01X4212598Y-2391732D03*
G54D14*
G01X4212598Y-4812992D03*
G54D15*
G01X4409449Y-4812992D03*
G54D22*
G01X4074173Y-4620709D03*
G54D23*
G01X4357638Y-4620709D03*
G54D24*
G01X4357638Y-3978976D03*
G54D25*
G01X4074173Y-3978976D03*
G54D33*
G01X4123524Y-3307087D03*
G01X4246555Y-3307087D03*
G54D35*
G01X4389764Y-3458661D03*
G01X4299213Y-3458661D03*
G54D36*
G01X4299213Y-3706693D03*
G54D35*
G01X4208661Y-3458661D03*
G54D33*
G01X4343996Y-3307087D03*
G01X4467028Y-3307087D03*
G54D20*
G01X4352953Y-2600787D03*
G01X4463189Y-2600787D03*
G54D40*
G01X4301181Y-3093307D03*
G54D41*
G01X4202756Y-3093307D03*
G54D48*
G01X4150197Y-2600787D03*
G01X4272244Y-2600787D03*
G54D50*
G01X4202756Y-2828740D03*
G54D41*
G01X4301181Y-2828740D03*
G54D10*
G01X4451772Y-4175197D03*
G54D31*
G01X4451772Y-4075197D03*
G54D54*
G01X4330709Y-3858268D03*
G01X4330709Y-3622047D03*
G01X4271654Y-3622047D03*
G01X4448819Y-3622047D03*
G01X4094488Y-3622047D03*
G01X4153543Y-3799213D03*
G01X4094488Y-3740157D03*
G01X4448819Y-3858268D03*
G01X4153543Y-3681102D03*
G01X4507874Y-3562992D03*
G01X4448819Y-3681102D03*
G01X4212598Y-3799213D03*
G01X4389764Y-3622047D03*
G01X4507874Y-3740157D03*
G01X4094488Y-3858268D03*
G01X4153543Y-3858268D03*
G01X4330709Y-3562992D03*
G01X4507874Y-3681102D03*
G01X4448819Y-3562992D03*
G01X4389764Y-3799213D03*
G01X4271654Y-3799213D03*
G01X4389764Y-3562992D03*
G01X4448819Y-3799213D03*
G01X4094488Y-3799213D03*
G01X4212598Y-3622047D03*
G01X4271654Y-3858268D03*
G01X4094488Y-3562992D03*
G01X4094488Y-3681102D03*
G01X4153543Y-3740157D03*
G01X4507874Y-3622047D03*
G01X4507874Y-3858268D03*
G01X4271654Y-3562992D03*
G01X4153543Y-3622047D03*
G01X4507874Y-3799213D03*
G01X4448819Y-3740157D03*
G01X4212598Y-3562992D03*
G01X4389764Y-3858268D03*
G01X4212598Y-3858268D03*
G01X4153543Y-3562992D03*
G01X4330709Y-3799213D03*
G01X4456693Y-3458661D03*
G01X4246555Y-3228346D03*
G01X4467028Y-3228346D03*
G54D56*
G01X4150197Y-2681413D02*
G01X4150197Y-2600787D01*
G01X4208661Y-3458661D02*
G01X4208661Y-3456973D01*
G01X4202756Y-2911138D02*
G01X4202756Y-2828740D01*
G01X4123524Y-3355527D02*
G01X4123524Y-3307087D01*
G01X4196990Y-2736360D02*
G01X4155962Y-2695333D01*
G01X4129289Y-2992758D02*
G01X4196990Y-2925057D01*
G01X4202896Y-3443053D02*
G01X4129289Y-3369447D01*
G01X4202756Y-2828740D02*
G01X4202756Y-2750280D01*
G01X4123524Y-3307087D02*
G01X4123524Y-3006677D01*
G01X4208661Y-3456973D02*
G75*
G03X4202896Y-3443053I-019685J0000000D01*
G01X4123524Y-3355527D02*
G75*
G03X4129289Y-3369447I0019685J0000000D01*
G01X4123524Y-3006677D02*
G75*
G02X4129289Y-2992758I0019685J0000000D01*
G01X4202756Y-2750280D02*
G75*
G03X4196990Y-2736360I-019685J0000000D01*
G01X4150197Y-2681413D02*
G75*
G03X4155962Y-2695333I0019685J0000000D01*
G01X4202756Y-2911138D02*
G75*
G02X4196990Y-2925057I-019685J0000000D01*
G01X4343996Y-3307087D02*
G01X4343996Y-3215339D01*
G01X4299213Y-3458661D02*
G01X4299213Y-3562992D01*
G54D58*
G01X4299213Y-3767717D02*
G01X4330709Y-3799213D01*
G54D56*
G01X4301181Y-3093307D02*
G01X4301181Y-3049492D01*
G01X4338230Y-3201419D02*
G01X4306947Y-3170136D01*
G01X4343996Y-3309267D02*
G01X4343996Y-3307087D01*
G54D58*
G01X4299213Y-3702756D02*
G01X4299213Y-3767717D01*
G54D56*
G01X4304978Y-3356439D02*
G01X4338230Y-3323187D01*
G01X4395555Y-2955118D02*
G01X4452756Y-2955118D01*
G01X4301181Y-3156216D02*
G01X4301181Y-3093307D01*
G01X4299213Y-3458661D02*
G01X4299213Y-3370359D01*
G01X4306947Y-3035573D02*
G01X4381636Y-2960884D01*
G01X4299213Y-3562992D02*
G01X4271654Y-3562992D01*
G01X4304978Y-3356439D02*
G75*
G03X4299213Y-3370359I0013919J-013919D01*
G01X4338230Y-3201419D02*
G75*
G02X4343996Y-3215339I-013919J-013919D01*
G01X4306947Y-3035573D02*
G75*
G03X4301181Y-3049492I0013919J-013919D01*
G01X4343996Y-3309267D02*
G75*
G02X4338231Y-3323187I-019685J0000000D01*
G01X4306947Y-3170136D02*
G75*
G02X4301181Y-3156216I0013919J0013919D01*
G01X4381636Y-2960884D02*
G75*
G02X4395555Y-2955118I0013919J-013919D01*
G01X4456693Y-3458661D02*
G01X4389764Y-3458661D01*
G01X4467028Y-3228346D02*
G01X4467028Y-3307087D01*
G01X4246555Y-3228346D02*
G01X4246555Y-3307087D01*
G01X4272244Y-2600787D02*
G01X4314961Y-2600787D01*
G01X4452756Y-2755118D02*
G01X4405004Y-2755118D01*
G01X4314961Y-2665075D02*
G01X4314961Y-2600787D01*
G01X4391085Y-2749352D02*
G01X4320726Y-2678994D01*
G01X4314961Y-2600787D02*
G01X4352953Y-2600787D01*
G01X4314961Y-2665075D02*
G75*
G03X4320726Y-2678994I0019685J0000000D01*
G01X4405004Y-2755118D02*
G75*
G02X4391085Y-2749353I0000000J0019685D01*
G01X4409449Y-2413386D02*
G01X4409449Y-2391732D01*
G01X4463189Y-2600787D02*
G01X4463189Y-2467126D01*
G01X4463189Y-2467126D02*
G01X4409449Y-2413386D01*
G36*
G01X4543944Y-3525674D02*
G01X4545279Y-3525850D01*
G01X4547122Y-3526093D01*
G01X4549594Y-3526755D01*
G01X4551957Y-3527734D01*
G01X4554173Y-3529013D01*
G01X4556203Y-3530571D01*
G01X4558012Y-3532380D01*
G01X4559569Y-3534409D01*
G01X4560849Y-3536625D01*
G01X4561827Y-3538988D01*
G01X4562490Y-3541460D01*
G01X4562908Y-3544639D01*
G01X4562992Y-3545918D01*
G01X4562992Y-3873373D01*
G01X4562908Y-3874653D01*
G01X4562908Y-3874653D01*
G01X4562490Y-3877831D01*
G01X4561827Y-3880303D01*
G01X4560849Y-3882666D01*
G01X4559569Y-3884882D01*
G01X4558012Y-3886911D01*
G01X4556203Y-3888721D01*
G01X4554173Y-3890278D01*
G01X4551957Y-3891557D01*
G01X4549594Y-3892536D01*
G01X4547123Y-3893198D01*
G01X4545158Y-3893457D01*
G01X4543944Y-3893617D01*
G01X4542664Y-3893701D01*
G01X4071509Y-3893701D01*
G01X4070229Y-3893617D01*
G01X4069509Y-3893522D01*
G01X4067051Y-3893198D01*
G01X4064579Y-3892536D01*
G01X4062216Y-3891557D01*
G01X4060000Y-3890278D01*
G01X4057970Y-3888721D01*
G01X4056161Y-3886911D01*
G01X4054604Y-3884882D01*
G01X4053324Y-3882666D01*
G01X4052346Y-3880303D01*
G01X4051683Y-3877831D01*
G01X4051265Y-3874653D01*
G01X4051181Y-3873373D01*
G01X4051181Y-3716535D01*
G01X4212598Y-3716535D01*
G01X4212598Y-3728147D01*
G01X4213194Y-3733431D01*
G01X4215538Y-3740130D01*
G01X4215538Y-3740130D01*
G01X4219314Y-3746140D01*
G01X4224333Y-3751158D01*
G01X4230342Y-3754934D01*
G01X4230343Y-3754935D01*
G01X4237042Y-3757279D01*
G01X4242325Y-3757874D01*
G01X4242326Y-3757874D01*
G01X4289370Y-3757874D01*
G01X4289370Y-3757874D01*
G01X4289370Y-3716535D01*
G01X4309055Y-3716535D01*
G01X4309055Y-3757874D01*
G01X4309055Y-3757874D01*
G01X4356099Y-3757874D01*
G01X4356100Y-3757874D01*
G01X4361384Y-3757279D01*
G01X4368082Y-3754935D01*
G01X4368083Y-3754934D01*
G01X4374092Y-3751158D01*
G01X4379111Y-3746140D01*
G01X4382887Y-3740130D01*
G01X4382887Y-3740130D01*
G01X4385231Y-3733431D01*
G01X4385827Y-3728147D01*
G01X4385827Y-3728147D01*
G01X4385827Y-3716535D01*
G01X4385827Y-3716535D01*
G01X4309055Y-3716535D01*
G01X4309055Y-3716535D01*
G01X4289370Y-3716535D01*
G01X4289370Y-3716535D01*
G01X4212598Y-3716535D01*
G01X4212598Y-3716535D01*
G01X4051181Y-3716535D01*
G01X4051181Y-3685239D01*
G01X4212598Y-3685239D01*
G01X4212598Y-3696850D01*
G01X4212598Y-3696850D01*
G01X4289370Y-3696850D01*
G01X4289370Y-3696850D01*
G01X4289370Y-3655512D01*
G01X4309055Y-3655512D01*
G01X4309055Y-3696850D01*
G01X4309055Y-3696850D01*
G01X4385827Y-3696850D01*
G01X4385827Y-3696850D01*
G01X4385827Y-3685239D01*
G01X4385827Y-3685239D01*
G01X4385231Y-3679955D01*
G01X4382887Y-3673256D01*
G01X4382887Y-3673256D01*
G01X4379111Y-3667246D01*
G01X4374092Y-3662227D01*
G01X4368083Y-3658451D01*
G01X4368082Y-3658451D01*
G01X4361384Y-3656107D01*
G01X4356100Y-3655512D01*
G01X4309055Y-3655512D01*
G01X4309055Y-3655512D01*
G01X4289370Y-3655512D01*
G01X4289370Y-3655512D01*
G01X4242325Y-3655512D01*
G01X4237042Y-3656107D01*
G01X4230343Y-3658451D01*
G01X4230342Y-3658451D01*
G01X4224333Y-3662227D01*
G01X4219314Y-3667246D01*
G01X4215538Y-3673256D01*
G01X4215538Y-3673256D01*
G01X4213194Y-3679955D01*
G01X4212598Y-3685239D01*
G01X4051181Y-3685239D01*
G01X4051181Y-3545918D01*
G01X4051265Y-3544639D01*
G01X4051683Y-3541460D01*
G01X4051683Y-3541460D01*
G01X4052346Y-3538988D01*
G01X4053325Y-3536625D01*
G01X4054604Y-3534409D01*
G01X4056161Y-3532380D01*
G01X4057970Y-3530571D01*
G01X4060000Y-3529013D01*
G01X4062216Y-3527734D01*
G01X4064579Y-3526755D01*
G01X4067051Y-3526093D01*
G01X4068385Y-3525917D01*
G01X4070229Y-3525674D01*
G01X4071509Y-3525591D01*
G01X4542664Y-3525591D01*
G01X4543944Y-3525674D01*
G37*
M02*
