%TF.GenerationSoftware,KiCad,Pcbnew,9.0.8-9.0.8~ubuntu24.04.1*%
%TF.CreationDate,2026-05-30T22:55:34+02:00*%
%TF.ProjectId,sch-14_PowerMeter-DIN-ESP8266,7363682d-3134-45f5-906f-7765724d6574,rev?*%
%TF.SameCoordinates,Original*%
%TF.FileFunction,Profile,NP*%
%FSLAX46Y46*%
G04 Gerber Fmt 4.6, Leading zero omitted, Abs format (unit mm)*
G04 Created by KiCad (PCBNEW 9.0.8-9.0.8~ubuntu24.04.1) date 2026-05-30 22:55:34*
%MOMM*%
%LPD*%
G01*
G04 APERTURE LIST*
%TA.AperFunction,Profile*%
%ADD10C,0.100000*%
%TD*%
G04 APERTURE END LIST*
D10*
X150500000Y-120000000D02*
X150500000Y-131000000D01*
X139000000Y-120000000D02*
X150500000Y-120000000D01*
X172500000Y-131000000D02*
X150500000Y-131000000D01*
X102000000Y-52000000D02*
X117000000Y-52000000D01*
X102000000Y-131000000D02*
X102000000Y-52000000D01*
X117000000Y-52000000D02*
X117000000Y-131000000D01*
X117000000Y-131000000D02*
X102000000Y-131000000D01*
X139000000Y-63000000D02*
X150500000Y-63000000D01*
X139000000Y-120000000D02*
X139000000Y-63000000D01*
X150500000Y-52000000D02*
X150500000Y-63000000D01*
X150500000Y-52000000D02*
X172500000Y-52000000D01*
X172500000Y-52000000D02*
X172500000Y-70000000D01*
X172500000Y-70000000D02*
X196500000Y-70000000D01*
X172500000Y-112000000D02*
X172500000Y-131000000D01*
X172500000Y-112000000D02*
X196500000Y-112000000D01*
X196500000Y-70000000D02*
X196500000Y-112000000D01*
X212500000Y-72000000D02*
X227500000Y-72000000D01*
X212500000Y-110000000D02*
X212500000Y-72000000D01*
X227500000Y-72000000D02*
X227500000Y-110000000D01*
X227500000Y-110000000D02*
X212500000Y-110000000D01*
M02*
