%TF.GenerationSoftware,KiCad,Pcbnew,9.0.8-9.0.8~ubuntu24.04.1*%
%TF.CreationDate,2026-05-30T22:55:34+02:00*%
%TF.ProjectId,sch-14_PowerMeter-DIN-ESP8266,7363682d-3134-45f5-906f-7765724d6574,rev?*%
%TF.SameCoordinates,Original*%
%TF.FileFunction,Paste,Top*%
%TF.FilePolarity,Positive*%
%FSLAX46Y46*%
G04 Gerber Fmt 4.6, Leading zero omitted, Abs format (unit mm)*
G04 Created by KiCad (PCBNEW 9.0.8-9.0.8~ubuntu24.04.1) date 2026-05-30 22:55:34*
%MOMM*%
%LPD*%
G01*
G04 APERTURE LIST*
G04 Aperture macros list*
%AMRoundRect*
0 Rectangle with rounded corners*
0 $1 Rounding radius*
0 $2 $3 $4 $5 $6 $7 $8 $9 X,Y pos of 4 corners*
0 Add a 4 corners polygon primitive as box body*
4,1,4,$2,$3,$4,$5,$6,$7,$8,$9,$2,$3,0*
0 Add four circle primitives for the rounded corners*
1,1,$1+$1,$2,$3*
1,1,$1+$1,$4,$5*
1,1,$1+$1,$6,$7*
1,1,$1+$1,$8,$9*
0 Add four rect primitives between the rounded corners*
20,1,$1+$1,$2,$3,$4,$5,0*
20,1,$1+$1,$4,$5,$6,$7,0*
20,1,$1+$1,$6,$7,$8,$9,0*
20,1,$1+$1,$8,$9,$2,$3,0*%
G04 Aperture macros list end*
%ADD10RoundRect,0.250000X0.625000X-0.400000X0.625000X0.400000X-0.625000X0.400000X-0.625000X-0.400000X0*%
%ADD11RoundRect,0.250000X0.650000X-0.412500X0.650000X0.412500X-0.650000X0.412500X-0.650000X-0.412500X0*%
%ADD12RoundRect,0.250000X-0.300000X-0.300000X0.300000X-0.300000X0.300000X0.300000X-0.300000X0.300000X0*%
%ADD13RoundRect,0.250000X-0.625000X0.400000X-0.625000X-0.400000X0.625000X-0.400000X0.625000X0.400000X0*%
%ADD14R,2.500000X1.000000*%
%ADD15R,1.000000X1.800000*%
%ADD16RoundRect,0.150000X0.825000X0.150000X-0.825000X0.150000X-0.825000X-0.150000X0.825000X-0.150000X0*%
%ADD17R,0.300000X1.300000*%
%ADD18RoundRect,0.250000X0.650000X0.850000X-0.650000X0.850000X-0.650000X-0.850000X0.650000X-0.850000X0*%
%ADD19RoundRect,0.250000X-0.412500X-0.650000X0.412500X-0.650000X0.412500X0.650000X-0.412500X0.650000X0*%
%ADD20RoundRect,0.100000X0.100000X-0.562500X0.100000X0.562500X-0.100000X0.562500X-0.100000X-0.562500X0*%
%ADD21RoundRect,0.375000X-0.375000X0.625000X-0.375000X-0.625000X0.375000X-0.625000X0.375000X0.625000X0*%
%ADD22RoundRect,0.500000X-1.400000X0.500000X-1.400000X-0.500000X1.400000X-0.500000X1.400000X0.500000X0*%
%ADD23RoundRect,0.150000X0.587500X0.150000X-0.587500X0.150000X-0.587500X-0.150000X0.587500X-0.150000X0*%
%ADD24RoundRect,0.250000X-0.650000X0.412500X-0.650000X-0.412500X0.650000X-0.412500X0.650000X0.412500X0*%
%ADD25RoundRect,0.250000X-1.850000X0.750000X-1.850000X-0.750000X1.850000X-0.750000X1.850000X0.750000X0*%
%ADD26RoundRect,0.250000X-0.625000X0.375000X-0.625000X-0.375000X0.625000X-0.375000X0.625000X0.375000X0*%
%ADD27RoundRect,0.162500X-0.162500X0.362500X-0.162500X-0.362500X0.162500X-0.362500X0.162500X0.362500X0*%
%ADD28R,0.400000X1.400000*%
%ADD29R,1.150000X1.450000*%
%ADD30R,1.750000X1.900000*%
%ADD31RoundRect,0.250000X-0.400000X-0.625000X0.400000X-0.625000X0.400000X0.625000X-0.400000X0.625000X0*%
%ADD32RoundRect,0.150000X0.150000X-0.875000X0.150000X0.875000X-0.150000X0.875000X-0.150000X-0.875000X0*%
%ADD33RoundRect,0.162500X0.162500X-0.362500X0.162500X0.362500X-0.162500X0.362500X-0.162500X-0.362500X0*%
G04 APERTURE END LIST*
D10*
%TO.C,R7*%
X146090000Y-76970000D03*
X146090000Y-73870000D03*
%TD*%
D11*
%TO.C,C5*%
X163590000Y-93982500D03*
X163590000Y-90857500D03*
%TD*%
D10*
%TO.C,R22*%
X149590000Y-84970000D03*
X149590000Y-81870000D03*
%TD*%
D12*
%TO.C,D1*%
X152600000Y-58500000D03*
X155400000Y-58500000D03*
%TD*%
D13*
%TO.C,R2*%
X163590000Y-72870000D03*
X163590000Y-75970000D03*
%TD*%
D14*
%TO.C,U2*%
X168200000Y-78200000D03*
X168200000Y-80200000D03*
X168200000Y-82200000D03*
X168200000Y-84200000D03*
X168200000Y-86200000D03*
X168200000Y-88200000D03*
X168200000Y-90200000D03*
X168200000Y-92200000D03*
D15*
X170800000Y-93700000D03*
X172800000Y-93700000D03*
X174800000Y-93700000D03*
X176800000Y-93700000D03*
X178800000Y-93700000D03*
X180800000Y-93700000D03*
D14*
X183400000Y-92200000D03*
X183400000Y-90200000D03*
X183400000Y-88200000D03*
X183400000Y-86200000D03*
X183400000Y-84200000D03*
X183400000Y-82200000D03*
X183400000Y-80200000D03*
X183400000Y-78200000D03*
%TD*%
D16*
%TO.C,U3*%
X158980000Y-69965000D03*
X158980000Y-68695000D03*
X158980000Y-67425000D03*
X158980000Y-66155000D03*
X158980000Y-64885000D03*
X158980000Y-63615000D03*
X158980000Y-62345000D03*
X158980000Y-61075000D03*
X154030000Y-61075000D03*
X154030000Y-62345000D03*
X154030000Y-63615000D03*
X154030000Y-64885000D03*
X154030000Y-66155000D03*
X154030000Y-67425000D03*
X154030000Y-68695000D03*
X154030000Y-69965000D03*
%TD*%
D17*
%TO.C,J4*%
X221750000Y-92350000D03*
X221250000Y-92350000D03*
X220750000Y-92350000D03*
X220250000Y-92350000D03*
X219750000Y-92350000D03*
X219250000Y-92350000D03*
X218750000Y-92350000D03*
X218250000Y-92350000D03*
D18*
X223650000Y-89100000D03*
X216350000Y-89100000D03*
%TD*%
D19*
%TO.C,C2*%
X104737500Y-84000000D03*
X107862500Y-84000000D03*
%TD*%
D20*
%TO.C,U4*%
X155440000Y-75307500D03*
X156090000Y-75307500D03*
X156740000Y-75307500D03*
X156740000Y-73532500D03*
X156090000Y-73532500D03*
X155440000Y-73532500D03*
%TD*%
D10*
%TO.C,R24*%
X214520000Y-98150000D03*
X214520000Y-95050000D03*
%TD*%
D21*
%TO.C,U1*%
X111500000Y-87850000D03*
X109200000Y-87850000D03*
D22*
X109200000Y-94150000D03*
D21*
X106900000Y-87850000D03*
%TD*%
D19*
%TO.C,C3*%
X110337500Y-84000000D03*
X113462500Y-84000000D03*
%TD*%
D23*
%TO.C,Q1*%
X157527500Y-102330000D03*
X157527500Y-100430000D03*
X155652500Y-101380000D03*
%TD*%
D24*
%TO.C,C10*%
X217520000Y-95037500D03*
X217520000Y-98162500D03*
%TD*%
D10*
%TO.C,R11*%
X160090000Y-84970000D03*
X160090000Y-81870000D03*
%TD*%
%TO.C,R23*%
X160090000Y-102930000D03*
X160090000Y-99830000D03*
%TD*%
D13*
%TO.C,R20*%
X195000000Y-88450000D03*
X195000000Y-91550000D03*
%TD*%
D25*
%TO.C,BZ1*%
X146535000Y-89475000D03*
X146535000Y-97475000D03*
%TD*%
D12*
%TO.C,D2*%
X110565000Y-66060000D03*
X113365000Y-66060000D03*
%TD*%
D13*
%TO.C,R14*%
X167090000Y-99830000D03*
X167090000Y-102930000D03*
%TD*%
%TO.C,R9*%
X153090000Y-81870000D03*
X153090000Y-84970000D03*
%TD*%
D10*
%TO.C,R21*%
X146090000Y-84970000D03*
X146090000Y-81870000D03*
%TD*%
D11*
%TO.C,C8*%
X149590000Y-69982500D03*
X149590000Y-66857500D03*
%TD*%
D26*
%TO.C,LD1*%
X220000000Y-105600000D03*
X220000000Y-108400000D03*
%TD*%
D27*
%TO.C,SW1*%
X216575000Y-104825000D03*
X216575000Y-108975000D03*
X214425000Y-104825000D03*
X214425000Y-108950000D03*
%TD*%
D10*
%TO.C,R10*%
X192000000Y-91550000D03*
X192000000Y-88450000D03*
%TD*%
%TO.C,R5*%
X220520000Y-98150000D03*
X220520000Y-95050000D03*
%TD*%
%TO.C,R4*%
X156590000Y-93970000D03*
X156590000Y-90870000D03*
%TD*%
D13*
%TO.C,R3*%
X153090000Y-90870000D03*
X153090000Y-93970000D03*
%TD*%
D24*
%TO.C,C14*%
X170590000Y-99817500D03*
X170590000Y-102942500D03*
%TD*%
D13*
%TO.C,R8*%
X149590000Y-73870000D03*
X149590000Y-76970000D03*
%TD*%
D11*
%TO.C,C7*%
X146090000Y-69982500D03*
X146090000Y-66857500D03*
%TD*%
D10*
%TO.C,R15*%
X163590000Y-84970000D03*
X163590000Y-81870000D03*
%TD*%
D28*
%TO.C,J2*%
X161400000Y-56100000D03*
X160750000Y-56100000D03*
X160100000Y-56100000D03*
X159450000Y-56100000D03*
X158800000Y-56100000D03*
D29*
X162420000Y-55680000D03*
D30*
X161225000Y-53450000D03*
X158975000Y-53450000D03*
D29*
X157780000Y-55680000D03*
%TD*%
D31*
%TO.C,TH1*%
X105415000Y-66060000D03*
X108515000Y-66060000D03*
%TD*%
D10*
%TO.C,R12*%
X156590000Y-84970000D03*
X156590000Y-81870000D03*
%TD*%
D13*
%TO.C,R13*%
X163590000Y-99830000D03*
X163590000Y-102930000D03*
%TD*%
D11*
%TO.C,C6*%
X160090000Y-93982500D03*
X160090000Y-90857500D03*
%TD*%
D32*
%TO.C,U6*%
X175095000Y-107945000D03*
X176365000Y-107945000D03*
X177635000Y-107945000D03*
X178905000Y-107945000D03*
X180175000Y-107945000D03*
X181445000Y-107945000D03*
X182715000Y-107945000D03*
X183985000Y-107945000D03*
X183985000Y-98645000D03*
X182715000Y-98645000D03*
X181445000Y-98645000D03*
X180175000Y-98645000D03*
X178905000Y-98645000D03*
X177635000Y-98645000D03*
X176365000Y-98645000D03*
X175095000Y-98645000D03*
%TD*%
D33*
%TO.C,SW2*%
X223425000Y-108975000D03*
X223425000Y-104825000D03*
X225575000Y-108975000D03*
X225575000Y-104850000D03*
%TD*%
D10*
%TO.C,R1*%
X160090000Y-75970000D03*
X160090000Y-72870000D03*
%TD*%
D11*
%TO.C,C9*%
X163590000Y-66982500D03*
X163590000Y-63857500D03*
%TD*%
M02*
