%TF.GenerationSoftware,KiCad,Pcbnew,9.0.8-9.0.8~ubuntu24.04.1*%
%TF.CreationDate,2026-05-30T22:55:35+02:00*%
%TF.ProjectId,sch-14_PowerMeter-DIN-ESP8266,7363682d-3134-45f5-906f-7765724d6574,rev?*%
%TF.SameCoordinates,Original*%
%TF.FileFunction,Other,User*%
%FSLAX46Y46*%
G04 Gerber Fmt 4.6, Leading zero omitted, Abs format (unit mm)*
G04 Created by KiCad (PCBNEW 9.0.8-9.0.8~ubuntu24.04.1) date 2026-05-30 22:55:35*
%MOMM*%
%LPD*%
G01*
G04 APERTURE LIST*
%ADD10C,0.150000*%
G04 APERTURE END LIST*
D10*
X208200057Y-113714284D02*
X208152438Y-113666665D01*
X208152438Y-113666665D02*
X208104819Y-113571427D01*
X208104819Y-113571427D02*
X208104819Y-113333332D01*
X208104819Y-113333332D02*
X208152438Y-113238094D01*
X208152438Y-113238094D02*
X208200057Y-113190475D01*
X208200057Y-113190475D02*
X208295295Y-113142856D01*
X208295295Y-113142856D02*
X208390533Y-113142856D01*
X208390533Y-113142856D02*
X208533390Y-113190475D01*
X208533390Y-113190475D02*
X209104819Y-113761903D01*
X209104819Y-113761903D02*
X209104819Y-113142856D01*
X209057200Y-112666665D02*
X209104819Y-112666665D01*
X209104819Y-112666665D02*
X209200057Y-112714284D01*
X209200057Y-112714284D02*
X209247676Y-112761903D01*
X208104819Y-112047618D02*
X208104819Y-111952380D01*
X208104819Y-111952380D02*
X208152438Y-111857142D01*
X208152438Y-111857142D02*
X208200057Y-111809523D01*
X208200057Y-111809523D02*
X208295295Y-111761904D01*
X208295295Y-111761904D02*
X208485771Y-111714285D01*
X208485771Y-111714285D02*
X208723866Y-111714285D01*
X208723866Y-111714285D02*
X208914342Y-111761904D01*
X208914342Y-111761904D02*
X209009580Y-111809523D01*
X209009580Y-111809523D02*
X209057200Y-111857142D01*
X209057200Y-111857142D02*
X209104819Y-111952380D01*
X209104819Y-111952380D02*
X209104819Y-112047618D01*
X209104819Y-112047618D02*
X209057200Y-112142856D01*
X209057200Y-112142856D02*
X209009580Y-112190475D01*
X209009580Y-112190475D02*
X208914342Y-112238094D01*
X208914342Y-112238094D02*
X208723866Y-112285713D01*
X208723866Y-112285713D02*
X208485771Y-112285713D01*
X208485771Y-112285713D02*
X208295295Y-112238094D01*
X208295295Y-112238094D02*
X208200057Y-112190475D01*
X208200057Y-112190475D02*
X208152438Y-112142856D01*
X208152438Y-112142856D02*
X208104819Y-112047618D01*
X209104819Y-110523808D02*
X208438152Y-110523808D01*
X208533390Y-110523808D02*
X208485771Y-110476189D01*
X208485771Y-110476189D02*
X208438152Y-110380951D01*
X208438152Y-110380951D02*
X208438152Y-110238094D01*
X208438152Y-110238094D02*
X208485771Y-110142856D01*
X208485771Y-110142856D02*
X208581009Y-110095237D01*
X208581009Y-110095237D02*
X209104819Y-110095237D01*
X208581009Y-110095237D02*
X208485771Y-110047618D01*
X208485771Y-110047618D02*
X208438152Y-109952380D01*
X208438152Y-109952380D02*
X208438152Y-109809523D01*
X208438152Y-109809523D02*
X208485771Y-109714284D01*
X208485771Y-109714284D02*
X208581009Y-109666665D01*
X208581009Y-109666665D02*
X209104819Y-109666665D01*
X209104819Y-109190475D02*
X208438152Y-109190475D01*
X208533390Y-109190475D02*
X208485771Y-109142856D01*
X208485771Y-109142856D02*
X208438152Y-109047618D01*
X208438152Y-109047618D02*
X208438152Y-108904761D01*
X208438152Y-108904761D02*
X208485771Y-108809523D01*
X208485771Y-108809523D02*
X208581009Y-108761904D01*
X208581009Y-108761904D02*
X209104819Y-108761904D01*
X208581009Y-108761904D02*
X208485771Y-108714285D01*
X208485771Y-108714285D02*
X208438152Y-108619047D01*
X208438152Y-108619047D02*
X208438152Y-108476190D01*
X208438152Y-108476190D02*
X208485771Y-108380951D01*
X208485771Y-108380951D02*
X208581009Y-108333332D01*
X208581009Y-108333332D02*
X209104819Y-108333332D01*
X212000000Y-110000000D02*
X209213580Y-110000000D01*
X209213580Y-112000000D02*
X212000000Y-112000000D01*
X209800000Y-110000000D02*
X209800000Y-112000000D01*
X209800000Y-110000000D02*
X210386421Y-111126504D01*
X209800000Y-110000000D02*
X209213579Y-111126504D01*
X209800000Y-112000000D02*
X209213579Y-110873496D01*
X209800000Y-112000000D02*
X210386421Y-110873496D01*
X213488096Y-121604819D02*
X214154762Y-121604819D01*
X214154762Y-121604819D02*
X213726191Y-122604819D01*
X214583334Y-122557200D02*
X214583334Y-122604819D01*
X214583334Y-122604819D02*
X214535715Y-122700057D01*
X214535715Y-122700057D02*
X214488096Y-122747676D01*
X215488095Y-121604819D02*
X215011905Y-121604819D01*
X215011905Y-121604819D02*
X214964286Y-122081009D01*
X214964286Y-122081009D02*
X215011905Y-122033390D01*
X215011905Y-122033390D02*
X215107143Y-121985771D01*
X215107143Y-121985771D02*
X215345238Y-121985771D01*
X215345238Y-121985771D02*
X215440476Y-122033390D01*
X215440476Y-122033390D02*
X215488095Y-122081009D01*
X215488095Y-122081009D02*
X215535714Y-122176247D01*
X215535714Y-122176247D02*
X215535714Y-122414342D01*
X215535714Y-122414342D02*
X215488095Y-122509580D01*
X215488095Y-122509580D02*
X215440476Y-122557200D01*
X215440476Y-122557200D02*
X215345238Y-122604819D01*
X215345238Y-122604819D02*
X215107143Y-122604819D01*
X215107143Y-122604819D02*
X215011905Y-122557200D01*
X215011905Y-122557200D02*
X214964286Y-122509580D01*
X216726191Y-122604819D02*
X216726191Y-121938152D01*
X216726191Y-122033390D02*
X216773810Y-121985771D01*
X216773810Y-121985771D02*
X216869048Y-121938152D01*
X216869048Y-121938152D02*
X217011905Y-121938152D01*
X217011905Y-121938152D02*
X217107143Y-121985771D01*
X217107143Y-121985771D02*
X217154762Y-122081009D01*
X217154762Y-122081009D02*
X217154762Y-122604819D01*
X217154762Y-122081009D02*
X217202381Y-121985771D01*
X217202381Y-121985771D02*
X217297619Y-121938152D01*
X217297619Y-121938152D02*
X217440476Y-121938152D01*
X217440476Y-121938152D02*
X217535715Y-121985771D01*
X217535715Y-121985771D02*
X217583334Y-122081009D01*
X217583334Y-122081009D02*
X217583334Y-122604819D01*
X218059524Y-122604819D02*
X218059524Y-121938152D01*
X218059524Y-122033390D02*
X218107143Y-121985771D01*
X218107143Y-121985771D02*
X218202381Y-121938152D01*
X218202381Y-121938152D02*
X218345238Y-121938152D01*
X218345238Y-121938152D02*
X218440476Y-121985771D01*
X218440476Y-121985771D02*
X218488095Y-122081009D01*
X218488095Y-122081009D02*
X218488095Y-122604819D01*
X218488095Y-122081009D02*
X218535714Y-121985771D01*
X218535714Y-121985771D02*
X218630952Y-121938152D01*
X218630952Y-121938152D02*
X218773809Y-121938152D01*
X218773809Y-121938152D02*
X218869048Y-121985771D01*
X218869048Y-121985771D02*
X218916667Y-122081009D01*
X218916667Y-122081009D02*
X218916667Y-122604819D01*
X212500000Y-110500000D02*
X212500000Y-123886420D01*
X220000000Y-123886420D02*
X220000000Y-107700000D01*
X212500000Y-123300000D02*
X220000000Y-123300000D01*
X212500000Y-123300000D02*
X213626504Y-122713579D01*
X212500000Y-123300000D02*
X213626504Y-123886421D01*
X220000000Y-123300000D02*
X218873496Y-123886421D01*
X220000000Y-123300000D02*
X218873496Y-122713579D01*
X176504819Y-63619047D02*
X176504819Y-64190475D01*
X176504819Y-63904761D02*
X175504819Y-63904761D01*
X175504819Y-63904761D02*
X175647676Y-63999999D01*
X175647676Y-63999999D02*
X175742914Y-64095237D01*
X175742914Y-64095237D02*
X175790533Y-64190475D01*
X175933390Y-63047618D02*
X175885771Y-63142856D01*
X175885771Y-63142856D02*
X175838152Y-63190475D01*
X175838152Y-63190475D02*
X175742914Y-63238094D01*
X175742914Y-63238094D02*
X175695295Y-63238094D01*
X175695295Y-63238094D02*
X175600057Y-63190475D01*
X175600057Y-63190475D02*
X175552438Y-63142856D01*
X175552438Y-63142856D02*
X175504819Y-63047618D01*
X175504819Y-63047618D02*
X175504819Y-62857142D01*
X175504819Y-62857142D02*
X175552438Y-62761904D01*
X175552438Y-62761904D02*
X175600057Y-62714285D01*
X175600057Y-62714285D02*
X175695295Y-62666666D01*
X175695295Y-62666666D02*
X175742914Y-62666666D01*
X175742914Y-62666666D02*
X175838152Y-62714285D01*
X175838152Y-62714285D02*
X175885771Y-62761904D01*
X175885771Y-62761904D02*
X175933390Y-62857142D01*
X175933390Y-62857142D02*
X175933390Y-63047618D01*
X175933390Y-63047618D02*
X175981009Y-63142856D01*
X175981009Y-63142856D02*
X176028628Y-63190475D01*
X176028628Y-63190475D02*
X176123866Y-63238094D01*
X176123866Y-63238094D02*
X176314342Y-63238094D01*
X176314342Y-63238094D02*
X176409580Y-63190475D01*
X176409580Y-63190475D02*
X176457200Y-63142856D01*
X176457200Y-63142856D02*
X176504819Y-63047618D01*
X176504819Y-63047618D02*
X176504819Y-62857142D01*
X176504819Y-62857142D02*
X176457200Y-62761904D01*
X176457200Y-62761904D02*
X176409580Y-62714285D01*
X176409580Y-62714285D02*
X176314342Y-62666666D01*
X176314342Y-62666666D02*
X176123866Y-62666666D01*
X176123866Y-62666666D02*
X176028628Y-62714285D01*
X176028628Y-62714285D02*
X175981009Y-62761904D01*
X175981009Y-62761904D02*
X175933390Y-62857142D01*
X176457200Y-62190475D02*
X176504819Y-62190475D01*
X176504819Y-62190475D02*
X176600057Y-62238094D01*
X176600057Y-62238094D02*
X176647676Y-62285713D01*
X175504819Y-61571428D02*
X175504819Y-61476190D01*
X175504819Y-61476190D02*
X175552438Y-61380952D01*
X175552438Y-61380952D02*
X175600057Y-61333333D01*
X175600057Y-61333333D02*
X175695295Y-61285714D01*
X175695295Y-61285714D02*
X175885771Y-61238095D01*
X175885771Y-61238095D02*
X176123866Y-61238095D01*
X176123866Y-61238095D02*
X176314342Y-61285714D01*
X176314342Y-61285714D02*
X176409580Y-61333333D01*
X176409580Y-61333333D02*
X176457200Y-61380952D01*
X176457200Y-61380952D02*
X176504819Y-61476190D01*
X176504819Y-61476190D02*
X176504819Y-61571428D01*
X176504819Y-61571428D02*
X176457200Y-61666666D01*
X176457200Y-61666666D02*
X176409580Y-61714285D01*
X176409580Y-61714285D02*
X176314342Y-61761904D01*
X176314342Y-61761904D02*
X176123866Y-61809523D01*
X176123866Y-61809523D02*
X175885771Y-61809523D01*
X175885771Y-61809523D02*
X175695295Y-61761904D01*
X175695295Y-61761904D02*
X175600057Y-61714285D01*
X175600057Y-61714285D02*
X175552438Y-61666666D01*
X175552438Y-61666666D02*
X175504819Y-61571428D01*
X176504819Y-60047618D02*
X175838152Y-60047618D01*
X175933390Y-60047618D02*
X175885771Y-59999999D01*
X175885771Y-59999999D02*
X175838152Y-59904761D01*
X175838152Y-59904761D02*
X175838152Y-59761904D01*
X175838152Y-59761904D02*
X175885771Y-59666666D01*
X175885771Y-59666666D02*
X175981009Y-59619047D01*
X175981009Y-59619047D02*
X176504819Y-59619047D01*
X175981009Y-59619047D02*
X175885771Y-59571428D01*
X175885771Y-59571428D02*
X175838152Y-59476190D01*
X175838152Y-59476190D02*
X175838152Y-59333333D01*
X175838152Y-59333333D02*
X175885771Y-59238094D01*
X175885771Y-59238094D02*
X175981009Y-59190475D01*
X175981009Y-59190475D02*
X176504819Y-59190475D01*
X176504819Y-58714285D02*
X175838152Y-58714285D01*
X175933390Y-58714285D02*
X175885771Y-58666666D01*
X175885771Y-58666666D02*
X175838152Y-58571428D01*
X175838152Y-58571428D02*
X175838152Y-58428571D01*
X175838152Y-58428571D02*
X175885771Y-58333333D01*
X175885771Y-58333333D02*
X175981009Y-58285714D01*
X175981009Y-58285714D02*
X176504819Y-58285714D01*
X175981009Y-58285714D02*
X175885771Y-58238095D01*
X175885771Y-58238095D02*
X175838152Y-58142857D01*
X175838152Y-58142857D02*
X175838152Y-58000000D01*
X175838152Y-58000000D02*
X175885771Y-57904761D01*
X175885771Y-57904761D02*
X175981009Y-57857142D01*
X175981009Y-57857142D02*
X176504819Y-57857142D01*
X173000000Y-52000000D02*
X177786420Y-52000000D01*
X177786420Y-70000000D02*
X173000000Y-70000000D01*
X177200000Y-52000000D02*
X177200000Y-70000000D01*
X177200000Y-52000000D02*
X177786421Y-53126504D01*
X177200000Y-52000000D02*
X176613579Y-53126504D01*
X177200000Y-70000000D02*
X176613579Y-68873496D01*
X177200000Y-70000000D02*
X177786421Y-68873496D01*
X176404819Y-124119047D02*
X176404819Y-124690475D01*
X176404819Y-124404761D02*
X175404819Y-124404761D01*
X175404819Y-124404761D02*
X175547676Y-124499999D01*
X175547676Y-124499999D02*
X175642914Y-124595237D01*
X175642914Y-124595237D02*
X175690533Y-124690475D01*
X176404819Y-123642856D02*
X176404819Y-123452380D01*
X176404819Y-123452380D02*
X176357200Y-123357142D01*
X176357200Y-123357142D02*
X176309580Y-123309523D01*
X176309580Y-123309523D02*
X176166723Y-123214285D01*
X176166723Y-123214285D02*
X175976247Y-123166666D01*
X175976247Y-123166666D02*
X175595295Y-123166666D01*
X175595295Y-123166666D02*
X175500057Y-123214285D01*
X175500057Y-123214285D02*
X175452438Y-123261904D01*
X175452438Y-123261904D02*
X175404819Y-123357142D01*
X175404819Y-123357142D02*
X175404819Y-123547618D01*
X175404819Y-123547618D02*
X175452438Y-123642856D01*
X175452438Y-123642856D02*
X175500057Y-123690475D01*
X175500057Y-123690475D02*
X175595295Y-123738094D01*
X175595295Y-123738094D02*
X175833390Y-123738094D01*
X175833390Y-123738094D02*
X175928628Y-123690475D01*
X175928628Y-123690475D02*
X175976247Y-123642856D01*
X175976247Y-123642856D02*
X176023866Y-123547618D01*
X176023866Y-123547618D02*
X176023866Y-123357142D01*
X176023866Y-123357142D02*
X175976247Y-123261904D01*
X175976247Y-123261904D02*
X175928628Y-123214285D01*
X175928628Y-123214285D02*
X175833390Y-123166666D01*
X176357200Y-122690475D02*
X176404819Y-122690475D01*
X176404819Y-122690475D02*
X176500057Y-122738094D01*
X176500057Y-122738094D02*
X176547676Y-122785713D01*
X175404819Y-122071428D02*
X175404819Y-121976190D01*
X175404819Y-121976190D02*
X175452438Y-121880952D01*
X175452438Y-121880952D02*
X175500057Y-121833333D01*
X175500057Y-121833333D02*
X175595295Y-121785714D01*
X175595295Y-121785714D02*
X175785771Y-121738095D01*
X175785771Y-121738095D02*
X176023866Y-121738095D01*
X176023866Y-121738095D02*
X176214342Y-121785714D01*
X176214342Y-121785714D02*
X176309580Y-121833333D01*
X176309580Y-121833333D02*
X176357200Y-121880952D01*
X176357200Y-121880952D02*
X176404819Y-121976190D01*
X176404819Y-121976190D02*
X176404819Y-122071428D01*
X176404819Y-122071428D02*
X176357200Y-122166666D01*
X176357200Y-122166666D02*
X176309580Y-122214285D01*
X176309580Y-122214285D02*
X176214342Y-122261904D01*
X176214342Y-122261904D02*
X176023866Y-122309523D01*
X176023866Y-122309523D02*
X175785771Y-122309523D01*
X175785771Y-122309523D02*
X175595295Y-122261904D01*
X175595295Y-122261904D02*
X175500057Y-122214285D01*
X175500057Y-122214285D02*
X175452438Y-122166666D01*
X175452438Y-122166666D02*
X175404819Y-122071428D01*
X176404819Y-120547618D02*
X175738152Y-120547618D01*
X175833390Y-120547618D02*
X175785771Y-120499999D01*
X175785771Y-120499999D02*
X175738152Y-120404761D01*
X175738152Y-120404761D02*
X175738152Y-120261904D01*
X175738152Y-120261904D02*
X175785771Y-120166666D01*
X175785771Y-120166666D02*
X175881009Y-120119047D01*
X175881009Y-120119047D02*
X176404819Y-120119047D01*
X175881009Y-120119047D02*
X175785771Y-120071428D01*
X175785771Y-120071428D02*
X175738152Y-119976190D01*
X175738152Y-119976190D02*
X175738152Y-119833333D01*
X175738152Y-119833333D02*
X175785771Y-119738094D01*
X175785771Y-119738094D02*
X175881009Y-119690475D01*
X175881009Y-119690475D02*
X176404819Y-119690475D01*
X176404819Y-119214285D02*
X175738152Y-119214285D01*
X175833390Y-119214285D02*
X175785771Y-119166666D01*
X175785771Y-119166666D02*
X175738152Y-119071428D01*
X175738152Y-119071428D02*
X175738152Y-118928571D01*
X175738152Y-118928571D02*
X175785771Y-118833333D01*
X175785771Y-118833333D02*
X175881009Y-118785714D01*
X175881009Y-118785714D02*
X176404819Y-118785714D01*
X175881009Y-118785714D02*
X175785771Y-118738095D01*
X175785771Y-118738095D02*
X175738152Y-118642857D01*
X175738152Y-118642857D02*
X175738152Y-118500000D01*
X175738152Y-118500000D02*
X175785771Y-118404761D01*
X175785771Y-118404761D02*
X175881009Y-118357142D01*
X175881009Y-118357142D02*
X176404819Y-118357142D01*
X173000000Y-112000000D02*
X177686420Y-112000000D01*
X177686420Y-131000000D02*
X173000000Y-131000000D01*
X177100000Y-112000000D02*
X177100000Y-131000000D01*
X177100000Y-112000000D02*
X177686421Y-113126504D01*
X177100000Y-112000000D02*
X176513579Y-113126504D01*
X177100000Y-131000000D02*
X176513579Y-129873496D01*
X177100000Y-131000000D02*
X177686421Y-129873496D01*
X181309524Y-141000057D02*
X181357143Y-140952438D01*
X181357143Y-140952438D02*
X181452381Y-140904819D01*
X181452381Y-140904819D02*
X181690476Y-140904819D01*
X181690476Y-140904819D02*
X181785714Y-140952438D01*
X181785714Y-140952438D02*
X181833333Y-141000057D01*
X181833333Y-141000057D02*
X181880952Y-141095295D01*
X181880952Y-141095295D02*
X181880952Y-141190533D01*
X181880952Y-141190533D02*
X181833333Y-141333390D01*
X181833333Y-141333390D02*
X181261905Y-141904819D01*
X181261905Y-141904819D02*
X181880952Y-141904819D01*
X182738095Y-141238152D02*
X182738095Y-141904819D01*
X182500000Y-140857200D02*
X182261905Y-141571485D01*
X182261905Y-141571485D02*
X182880952Y-141571485D01*
X183309524Y-141857200D02*
X183309524Y-141904819D01*
X183309524Y-141904819D02*
X183261905Y-142000057D01*
X183261905Y-142000057D02*
X183214286Y-142047676D01*
X183928571Y-140904819D02*
X184023809Y-140904819D01*
X184023809Y-140904819D02*
X184119047Y-140952438D01*
X184119047Y-140952438D02*
X184166666Y-141000057D01*
X184166666Y-141000057D02*
X184214285Y-141095295D01*
X184214285Y-141095295D02*
X184261904Y-141285771D01*
X184261904Y-141285771D02*
X184261904Y-141523866D01*
X184261904Y-141523866D02*
X184214285Y-141714342D01*
X184214285Y-141714342D02*
X184166666Y-141809580D01*
X184166666Y-141809580D02*
X184119047Y-141857200D01*
X184119047Y-141857200D02*
X184023809Y-141904819D01*
X184023809Y-141904819D02*
X183928571Y-141904819D01*
X183928571Y-141904819D02*
X183833333Y-141857200D01*
X183833333Y-141857200D02*
X183785714Y-141809580D01*
X183785714Y-141809580D02*
X183738095Y-141714342D01*
X183738095Y-141714342D02*
X183690476Y-141523866D01*
X183690476Y-141523866D02*
X183690476Y-141285771D01*
X183690476Y-141285771D02*
X183738095Y-141095295D01*
X183738095Y-141095295D02*
X183785714Y-141000057D01*
X183785714Y-141000057D02*
X183833333Y-140952438D01*
X183833333Y-140952438D02*
X183928571Y-140904819D01*
X185452381Y-141904819D02*
X185452381Y-141238152D01*
X185452381Y-141333390D02*
X185500000Y-141285771D01*
X185500000Y-141285771D02*
X185595238Y-141238152D01*
X185595238Y-141238152D02*
X185738095Y-141238152D01*
X185738095Y-141238152D02*
X185833333Y-141285771D01*
X185833333Y-141285771D02*
X185880952Y-141381009D01*
X185880952Y-141381009D02*
X185880952Y-141904819D01*
X185880952Y-141381009D02*
X185928571Y-141285771D01*
X185928571Y-141285771D02*
X186023809Y-141238152D01*
X186023809Y-141238152D02*
X186166666Y-141238152D01*
X186166666Y-141238152D02*
X186261905Y-141285771D01*
X186261905Y-141285771D02*
X186309524Y-141381009D01*
X186309524Y-141381009D02*
X186309524Y-141904819D01*
X186785714Y-141904819D02*
X186785714Y-141238152D01*
X186785714Y-141333390D02*
X186833333Y-141285771D01*
X186833333Y-141285771D02*
X186928571Y-141238152D01*
X186928571Y-141238152D02*
X187071428Y-141238152D01*
X187071428Y-141238152D02*
X187166666Y-141285771D01*
X187166666Y-141285771D02*
X187214285Y-141381009D01*
X187214285Y-141381009D02*
X187214285Y-141904819D01*
X187214285Y-141381009D02*
X187261904Y-141285771D01*
X187261904Y-141285771D02*
X187357142Y-141238152D01*
X187357142Y-141238152D02*
X187499999Y-141238152D01*
X187499999Y-141238152D02*
X187595238Y-141285771D01*
X187595238Y-141285771D02*
X187642857Y-141381009D01*
X187642857Y-141381009D02*
X187642857Y-141904819D01*
X172500000Y-112500000D02*
X172500000Y-143186420D01*
X196500000Y-143186420D02*
X196500000Y-112500000D01*
X172500000Y-142600000D02*
X196500000Y-142600000D01*
X172500000Y-142600000D02*
X173626504Y-142013579D01*
X172500000Y-142600000D02*
X173626504Y-143186421D01*
X196500000Y-142600000D02*
X195373496Y-143186421D01*
X196500000Y-142600000D02*
X195373496Y-142013579D01*
X181309524Y-43900057D02*
X181357143Y-43852438D01*
X181357143Y-43852438D02*
X181452381Y-43804819D01*
X181452381Y-43804819D02*
X181690476Y-43804819D01*
X181690476Y-43804819D02*
X181785714Y-43852438D01*
X181785714Y-43852438D02*
X181833333Y-43900057D01*
X181833333Y-43900057D02*
X181880952Y-43995295D01*
X181880952Y-43995295D02*
X181880952Y-44090533D01*
X181880952Y-44090533D02*
X181833333Y-44233390D01*
X181833333Y-44233390D02*
X181261905Y-44804819D01*
X181261905Y-44804819D02*
X181880952Y-44804819D01*
X182738095Y-44138152D02*
X182738095Y-44804819D01*
X182500000Y-43757200D02*
X182261905Y-44471485D01*
X182261905Y-44471485D02*
X182880952Y-44471485D01*
X183309524Y-44757200D02*
X183309524Y-44804819D01*
X183309524Y-44804819D02*
X183261905Y-44900057D01*
X183261905Y-44900057D02*
X183214286Y-44947676D01*
X183928571Y-43804819D02*
X184023809Y-43804819D01*
X184023809Y-43804819D02*
X184119047Y-43852438D01*
X184119047Y-43852438D02*
X184166666Y-43900057D01*
X184166666Y-43900057D02*
X184214285Y-43995295D01*
X184214285Y-43995295D02*
X184261904Y-44185771D01*
X184261904Y-44185771D02*
X184261904Y-44423866D01*
X184261904Y-44423866D02*
X184214285Y-44614342D01*
X184214285Y-44614342D02*
X184166666Y-44709580D01*
X184166666Y-44709580D02*
X184119047Y-44757200D01*
X184119047Y-44757200D02*
X184023809Y-44804819D01*
X184023809Y-44804819D02*
X183928571Y-44804819D01*
X183928571Y-44804819D02*
X183833333Y-44757200D01*
X183833333Y-44757200D02*
X183785714Y-44709580D01*
X183785714Y-44709580D02*
X183738095Y-44614342D01*
X183738095Y-44614342D02*
X183690476Y-44423866D01*
X183690476Y-44423866D02*
X183690476Y-44185771D01*
X183690476Y-44185771D02*
X183738095Y-43995295D01*
X183738095Y-43995295D02*
X183785714Y-43900057D01*
X183785714Y-43900057D02*
X183833333Y-43852438D01*
X183833333Y-43852438D02*
X183928571Y-43804819D01*
X185452381Y-44804819D02*
X185452381Y-44138152D01*
X185452381Y-44233390D02*
X185500000Y-44185771D01*
X185500000Y-44185771D02*
X185595238Y-44138152D01*
X185595238Y-44138152D02*
X185738095Y-44138152D01*
X185738095Y-44138152D02*
X185833333Y-44185771D01*
X185833333Y-44185771D02*
X185880952Y-44281009D01*
X185880952Y-44281009D02*
X185880952Y-44804819D01*
X185880952Y-44281009D02*
X185928571Y-44185771D01*
X185928571Y-44185771D02*
X186023809Y-44138152D01*
X186023809Y-44138152D02*
X186166666Y-44138152D01*
X186166666Y-44138152D02*
X186261905Y-44185771D01*
X186261905Y-44185771D02*
X186309524Y-44281009D01*
X186309524Y-44281009D02*
X186309524Y-44804819D01*
X186785714Y-44804819D02*
X186785714Y-44138152D01*
X186785714Y-44233390D02*
X186833333Y-44185771D01*
X186833333Y-44185771D02*
X186928571Y-44138152D01*
X186928571Y-44138152D02*
X187071428Y-44138152D01*
X187071428Y-44138152D02*
X187166666Y-44185771D01*
X187166666Y-44185771D02*
X187214285Y-44281009D01*
X187214285Y-44281009D02*
X187214285Y-44804819D01*
X187214285Y-44281009D02*
X187261904Y-44185771D01*
X187261904Y-44185771D02*
X187357142Y-44138152D01*
X187357142Y-44138152D02*
X187499999Y-44138152D01*
X187499999Y-44138152D02*
X187595238Y-44185771D01*
X187595238Y-44185771D02*
X187642857Y-44281009D01*
X187642857Y-44281009D02*
X187642857Y-44804819D01*
X172500000Y-69500000D02*
X172500000Y-44913580D01*
X196500000Y-44913580D02*
X196500000Y-69500000D01*
X172500000Y-45500000D02*
X196500000Y-45500000D01*
X172500000Y-45500000D02*
X173626504Y-44913579D01*
X172500000Y-45500000D02*
X173626504Y-46086421D01*
X196500000Y-45500000D02*
X195373496Y-46086421D01*
X196500000Y-45500000D02*
X195373496Y-44913579D01*
X158309524Y-43900057D02*
X158357143Y-43852438D01*
X158357143Y-43852438D02*
X158452381Y-43804819D01*
X158452381Y-43804819D02*
X158690476Y-43804819D01*
X158690476Y-43804819D02*
X158785714Y-43852438D01*
X158785714Y-43852438D02*
X158833333Y-43900057D01*
X158833333Y-43900057D02*
X158880952Y-43995295D01*
X158880952Y-43995295D02*
X158880952Y-44090533D01*
X158880952Y-44090533D02*
X158833333Y-44233390D01*
X158833333Y-44233390D02*
X158261905Y-44804819D01*
X158261905Y-44804819D02*
X158880952Y-44804819D01*
X159261905Y-43900057D02*
X159309524Y-43852438D01*
X159309524Y-43852438D02*
X159404762Y-43804819D01*
X159404762Y-43804819D02*
X159642857Y-43804819D01*
X159642857Y-43804819D02*
X159738095Y-43852438D01*
X159738095Y-43852438D02*
X159785714Y-43900057D01*
X159785714Y-43900057D02*
X159833333Y-43995295D01*
X159833333Y-43995295D02*
X159833333Y-44090533D01*
X159833333Y-44090533D02*
X159785714Y-44233390D01*
X159785714Y-44233390D02*
X159214286Y-44804819D01*
X159214286Y-44804819D02*
X159833333Y-44804819D01*
X160309524Y-44757200D02*
X160309524Y-44804819D01*
X160309524Y-44804819D02*
X160261905Y-44900057D01*
X160261905Y-44900057D02*
X160214286Y-44947676D01*
X160928571Y-43804819D02*
X161023809Y-43804819D01*
X161023809Y-43804819D02*
X161119047Y-43852438D01*
X161119047Y-43852438D02*
X161166666Y-43900057D01*
X161166666Y-43900057D02*
X161214285Y-43995295D01*
X161214285Y-43995295D02*
X161261904Y-44185771D01*
X161261904Y-44185771D02*
X161261904Y-44423866D01*
X161261904Y-44423866D02*
X161214285Y-44614342D01*
X161214285Y-44614342D02*
X161166666Y-44709580D01*
X161166666Y-44709580D02*
X161119047Y-44757200D01*
X161119047Y-44757200D02*
X161023809Y-44804819D01*
X161023809Y-44804819D02*
X160928571Y-44804819D01*
X160928571Y-44804819D02*
X160833333Y-44757200D01*
X160833333Y-44757200D02*
X160785714Y-44709580D01*
X160785714Y-44709580D02*
X160738095Y-44614342D01*
X160738095Y-44614342D02*
X160690476Y-44423866D01*
X160690476Y-44423866D02*
X160690476Y-44185771D01*
X160690476Y-44185771D02*
X160738095Y-43995295D01*
X160738095Y-43995295D02*
X160785714Y-43900057D01*
X160785714Y-43900057D02*
X160833333Y-43852438D01*
X160833333Y-43852438D02*
X160928571Y-43804819D01*
X162452381Y-44804819D02*
X162452381Y-44138152D01*
X162452381Y-44233390D02*
X162500000Y-44185771D01*
X162500000Y-44185771D02*
X162595238Y-44138152D01*
X162595238Y-44138152D02*
X162738095Y-44138152D01*
X162738095Y-44138152D02*
X162833333Y-44185771D01*
X162833333Y-44185771D02*
X162880952Y-44281009D01*
X162880952Y-44281009D02*
X162880952Y-44804819D01*
X162880952Y-44281009D02*
X162928571Y-44185771D01*
X162928571Y-44185771D02*
X163023809Y-44138152D01*
X163023809Y-44138152D02*
X163166666Y-44138152D01*
X163166666Y-44138152D02*
X163261905Y-44185771D01*
X163261905Y-44185771D02*
X163309524Y-44281009D01*
X163309524Y-44281009D02*
X163309524Y-44804819D01*
X163785714Y-44804819D02*
X163785714Y-44138152D01*
X163785714Y-44233390D02*
X163833333Y-44185771D01*
X163833333Y-44185771D02*
X163928571Y-44138152D01*
X163928571Y-44138152D02*
X164071428Y-44138152D01*
X164071428Y-44138152D02*
X164166666Y-44185771D01*
X164166666Y-44185771D02*
X164214285Y-44281009D01*
X164214285Y-44281009D02*
X164214285Y-44804819D01*
X164214285Y-44281009D02*
X164261904Y-44185771D01*
X164261904Y-44185771D02*
X164357142Y-44138152D01*
X164357142Y-44138152D02*
X164499999Y-44138152D01*
X164499999Y-44138152D02*
X164595238Y-44185771D01*
X164595238Y-44185771D02*
X164642857Y-44281009D01*
X164642857Y-44281009D02*
X164642857Y-44804819D01*
X150500000Y-51500000D02*
X150500000Y-44913580D01*
X172500000Y-44913580D02*
X172500000Y-51500000D01*
X150500000Y-45500000D02*
X172500000Y-45500000D01*
X150500000Y-45500000D02*
X151626504Y-44913579D01*
X150500000Y-45500000D02*
X151626504Y-46086421D01*
X172500000Y-45500000D02*
X171373496Y-46086421D01*
X172500000Y-45500000D02*
X171373496Y-44913579D01*
X142130952Y-44804819D02*
X141559524Y-44804819D01*
X141845238Y-44804819D02*
X141845238Y-43804819D01*
X141845238Y-43804819D02*
X141750000Y-43947676D01*
X141750000Y-43947676D02*
X141654762Y-44042914D01*
X141654762Y-44042914D02*
X141559524Y-44090533D01*
X143083333Y-44804819D02*
X142511905Y-44804819D01*
X142797619Y-44804819D02*
X142797619Y-43804819D01*
X142797619Y-43804819D02*
X142702381Y-43947676D01*
X142702381Y-43947676D02*
X142607143Y-44042914D01*
X142607143Y-44042914D02*
X142511905Y-44090533D01*
X143559524Y-44757200D02*
X143559524Y-44804819D01*
X143559524Y-44804819D02*
X143511905Y-44900057D01*
X143511905Y-44900057D02*
X143464286Y-44947676D01*
X144464285Y-43804819D02*
X143988095Y-43804819D01*
X143988095Y-43804819D02*
X143940476Y-44281009D01*
X143940476Y-44281009D02*
X143988095Y-44233390D01*
X143988095Y-44233390D02*
X144083333Y-44185771D01*
X144083333Y-44185771D02*
X144321428Y-44185771D01*
X144321428Y-44185771D02*
X144416666Y-44233390D01*
X144416666Y-44233390D02*
X144464285Y-44281009D01*
X144464285Y-44281009D02*
X144511904Y-44376247D01*
X144511904Y-44376247D02*
X144511904Y-44614342D01*
X144511904Y-44614342D02*
X144464285Y-44709580D01*
X144464285Y-44709580D02*
X144416666Y-44757200D01*
X144416666Y-44757200D02*
X144321428Y-44804819D01*
X144321428Y-44804819D02*
X144083333Y-44804819D01*
X144083333Y-44804819D02*
X143988095Y-44757200D01*
X143988095Y-44757200D02*
X143940476Y-44709580D01*
X145702381Y-44804819D02*
X145702381Y-44138152D01*
X145702381Y-44233390D02*
X145750000Y-44185771D01*
X145750000Y-44185771D02*
X145845238Y-44138152D01*
X145845238Y-44138152D02*
X145988095Y-44138152D01*
X145988095Y-44138152D02*
X146083333Y-44185771D01*
X146083333Y-44185771D02*
X146130952Y-44281009D01*
X146130952Y-44281009D02*
X146130952Y-44804819D01*
X146130952Y-44281009D02*
X146178571Y-44185771D01*
X146178571Y-44185771D02*
X146273809Y-44138152D01*
X146273809Y-44138152D02*
X146416666Y-44138152D01*
X146416666Y-44138152D02*
X146511905Y-44185771D01*
X146511905Y-44185771D02*
X146559524Y-44281009D01*
X146559524Y-44281009D02*
X146559524Y-44804819D01*
X147035714Y-44804819D02*
X147035714Y-44138152D01*
X147035714Y-44233390D02*
X147083333Y-44185771D01*
X147083333Y-44185771D02*
X147178571Y-44138152D01*
X147178571Y-44138152D02*
X147321428Y-44138152D01*
X147321428Y-44138152D02*
X147416666Y-44185771D01*
X147416666Y-44185771D02*
X147464285Y-44281009D01*
X147464285Y-44281009D02*
X147464285Y-44804819D01*
X147464285Y-44281009D02*
X147511904Y-44185771D01*
X147511904Y-44185771D02*
X147607142Y-44138152D01*
X147607142Y-44138152D02*
X147749999Y-44138152D01*
X147749999Y-44138152D02*
X147845238Y-44185771D01*
X147845238Y-44185771D02*
X147892857Y-44281009D01*
X147892857Y-44281009D02*
X147892857Y-44804819D01*
X139000000Y-62500000D02*
X139000000Y-44913580D01*
X150500000Y-44913580D02*
X150500000Y-62500000D01*
X139000000Y-45500000D02*
X150500000Y-45500000D01*
X139000000Y-45500000D02*
X140126504Y-44913579D01*
X139000000Y-45500000D02*
X140126504Y-46086421D01*
X150500000Y-45500000D02*
X149373496Y-46086421D01*
X150500000Y-45500000D02*
X149373496Y-44913579D01*
X142130952Y-141804819D02*
X141559524Y-141804819D01*
X141845238Y-141804819D02*
X141845238Y-140804819D01*
X141845238Y-140804819D02*
X141750000Y-140947676D01*
X141750000Y-140947676D02*
X141654762Y-141042914D01*
X141654762Y-141042914D02*
X141559524Y-141090533D01*
X143083333Y-141804819D02*
X142511905Y-141804819D01*
X142797619Y-141804819D02*
X142797619Y-140804819D01*
X142797619Y-140804819D02*
X142702381Y-140947676D01*
X142702381Y-140947676D02*
X142607143Y-141042914D01*
X142607143Y-141042914D02*
X142511905Y-141090533D01*
X143559524Y-141757200D02*
X143559524Y-141804819D01*
X143559524Y-141804819D02*
X143511905Y-141900057D01*
X143511905Y-141900057D02*
X143464286Y-141947676D01*
X144464285Y-140804819D02*
X143988095Y-140804819D01*
X143988095Y-140804819D02*
X143940476Y-141281009D01*
X143940476Y-141281009D02*
X143988095Y-141233390D01*
X143988095Y-141233390D02*
X144083333Y-141185771D01*
X144083333Y-141185771D02*
X144321428Y-141185771D01*
X144321428Y-141185771D02*
X144416666Y-141233390D01*
X144416666Y-141233390D02*
X144464285Y-141281009D01*
X144464285Y-141281009D02*
X144511904Y-141376247D01*
X144511904Y-141376247D02*
X144511904Y-141614342D01*
X144511904Y-141614342D02*
X144464285Y-141709580D01*
X144464285Y-141709580D02*
X144416666Y-141757200D01*
X144416666Y-141757200D02*
X144321428Y-141804819D01*
X144321428Y-141804819D02*
X144083333Y-141804819D01*
X144083333Y-141804819D02*
X143988095Y-141757200D01*
X143988095Y-141757200D02*
X143940476Y-141709580D01*
X145702381Y-141804819D02*
X145702381Y-141138152D01*
X145702381Y-141233390D02*
X145750000Y-141185771D01*
X145750000Y-141185771D02*
X145845238Y-141138152D01*
X145845238Y-141138152D02*
X145988095Y-141138152D01*
X145988095Y-141138152D02*
X146083333Y-141185771D01*
X146083333Y-141185771D02*
X146130952Y-141281009D01*
X146130952Y-141281009D02*
X146130952Y-141804819D01*
X146130952Y-141281009D02*
X146178571Y-141185771D01*
X146178571Y-141185771D02*
X146273809Y-141138152D01*
X146273809Y-141138152D02*
X146416666Y-141138152D01*
X146416666Y-141138152D02*
X146511905Y-141185771D01*
X146511905Y-141185771D02*
X146559524Y-141281009D01*
X146559524Y-141281009D02*
X146559524Y-141804819D01*
X147035714Y-141804819D02*
X147035714Y-141138152D01*
X147035714Y-141233390D02*
X147083333Y-141185771D01*
X147083333Y-141185771D02*
X147178571Y-141138152D01*
X147178571Y-141138152D02*
X147321428Y-141138152D01*
X147321428Y-141138152D02*
X147416666Y-141185771D01*
X147416666Y-141185771D02*
X147464285Y-141281009D01*
X147464285Y-141281009D02*
X147464285Y-141804819D01*
X147464285Y-141281009D02*
X147511904Y-141185771D01*
X147511904Y-141185771D02*
X147607142Y-141138152D01*
X147607142Y-141138152D02*
X147749999Y-141138152D01*
X147749999Y-141138152D02*
X147845238Y-141185771D01*
X147845238Y-141185771D02*
X147892857Y-141281009D01*
X147892857Y-141281009D02*
X147892857Y-141804819D01*
X150500000Y-131500000D02*
X150500000Y-143086420D01*
X139000000Y-143086420D02*
X139000000Y-120500000D01*
X150500000Y-142500000D02*
X139000000Y-142500000D01*
X150500000Y-142500000D02*
X149373496Y-143086421D01*
X150500000Y-142500000D02*
X149373496Y-141913579D01*
X139000000Y-142500000D02*
X140126504Y-141913579D01*
X139000000Y-142500000D02*
X140126504Y-143086421D01*
X122804819Y-128119047D02*
X122804819Y-128690475D01*
X122804819Y-128404761D02*
X121804819Y-128404761D01*
X121804819Y-128404761D02*
X121947676Y-128499999D01*
X121947676Y-128499999D02*
X122042914Y-128595237D01*
X122042914Y-128595237D02*
X122090533Y-128690475D01*
X122804819Y-127166666D02*
X122804819Y-127738094D01*
X122804819Y-127452380D02*
X121804819Y-127452380D01*
X121804819Y-127452380D02*
X121947676Y-127547618D01*
X121947676Y-127547618D02*
X122042914Y-127642856D01*
X122042914Y-127642856D02*
X122090533Y-127738094D01*
X122757200Y-126690475D02*
X122804819Y-126690475D01*
X122804819Y-126690475D02*
X122900057Y-126738094D01*
X122900057Y-126738094D02*
X122947676Y-126785713D01*
X121804819Y-126071428D02*
X121804819Y-125976190D01*
X121804819Y-125976190D02*
X121852438Y-125880952D01*
X121852438Y-125880952D02*
X121900057Y-125833333D01*
X121900057Y-125833333D02*
X121995295Y-125785714D01*
X121995295Y-125785714D02*
X122185771Y-125738095D01*
X122185771Y-125738095D02*
X122423866Y-125738095D01*
X122423866Y-125738095D02*
X122614342Y-125785714D01*
X122614342Y-125785714D02*
X122709580Y-125833333D01*
X122709580Y-125833333D02*
X122757200Y-125880952D01*
X122757200Y-125880952D02*
X122804819Y-125976190D01*
X122804819Y-125976190D02*
X122804819Y-126071428D01*
X122804819Y-126071428D02*
X122757200Y-126166666D01*
X122757200Y-126166666D02*
X122709580Y-126214285D01*
X122709580Y-126214285D02*
X122614342Y-126261904D01*
X122614342Y-126261904D02*
X122423866Y-126309523D01*
X122423866Y-126309523D02*
X122185771Y-126309523D01*
X122185771Y-126309523D02*
X121995295Y-126261904D01*
X121995295Y-126261904D02*
X121900057Y-126214285D01*
X121900057Y-126214285D02*
X121852438Y-126166666D01*
X121852438Y-126166666D02*
X121804819Y-126071428D01*
X122804819Y-124547618D02*
X122138152Y-124547618D01*
X122233390Y-124547618D02*
X122185771Y-124499999D01*
X122185771Y-124499999D02*
X122138152Y-124404761D01*
X122138152Y-124404761D02*
X122138152Y-124261904D01*
X122138152Y-124261904D02*
X122185771Y-124166666D01*
X122185771Y-124166666D02*
X122281009Y-124119047D01*
X122281009Y-124119047D02*
X122804819Y-124119047D01*
X122281009Y-124119047D02*
X122185771Y-124071428D01*
X122185771Y-124071428D02*
X122138152Y-123976190D01*
X122138152Y-123976190D02*
X122138152Y-123833333D01*
X122138152Y-123833333D02*
X122185771Y-123738094D01*
X122185771Y-123738094D02*
X122281009Y-123690475D01*
X122281009Y-123690475D02*
X122804819Y-123690475D01*
X122804819Y-123214285D02*
X122138152Y-123214285D01*
X122233390Y-123214285D02*
X122185771Y-123166666D01*
X122185771Y-123166666D02*
X122138152Y-123071428D01*
X122138152Y-123071428D02*
X122138152Y-122928571D01*
X122138152Y-122928571D02*
X122185771Y-122833333D01*
X122185771Y-122833333D02*
X122281009Y-122785714D01*
X122281009Y-122785714D02*
X122804819Y-122785714D01*
X122281009Y-122785714D02*
X122185771Y-122738095D01*
X122185771Y-122738095D02*
X122138152Y-122642857D01*
X122138152Y-122642857D02*
X122138152Y-122500000D01*
X122138152Y-122500000D02*
X122185771Y-122404761D01*
X122185771Y-122404761D02*
X122281009Y-122357142D01*
X122281009Y-122357142D02*
X122804819Y-122357142D01*
X138500000Y-120000000D02*
X122913580Y-120000000D01*
X122913580Y-131000000D02*
X150000000Y-131000000D01*
X123500000Y-120000000D02*
X123500000Y-131000000D01*
X123500000Y-120000000D02*
X124086421Y-121126504D01*
X123500000Y-120000000D02*
X122913579Y-121126504D01*
X123500000Y-131000000D02*
X122913579Y-129873496D01*
X123500000Y-131000000D02*
X124086421Y-129873496D01*
X122804819Y-60119047D02*
X122804819Y-60690475D01*
X122804819Y-60404761D02*
X121804819Y-60404761D01*
X121804819Y-60404761D02*
X121947676Y-60499999D01*
X121947676Y-60499999D02*
X122042914Y-60595237D01*
X122042914Y-60595237D02*
X122090533Y-60690475D01*
X122804819Y-59166666D02*
X122804819Y-59738094D01*
X122804819Y-59452380D02*
X121804819Y-59452380D01*
X121804819Y-59452380D02*
X121947676Y-59547618D01*
X121947676Y-59547618D02*
X122042914Y-59642856D01*
X122042914Y-59642856D02*
X122090533Y-59738094D01*
X122757200Y-58690475D02*
X122804819Y-58690475D01*
X122804819Y-58690475D02*
X122900057Y-58738094D01*
X122900057Y-58738094D02*
X122947676Y-58785713D01*
X121804819Y-58071428D02*
X121804819Y-57976190D01*
X121804819Y-57976190D02*
X121852438Y-57880952D01*
X121852438Y-57880952D02*
X121900057Y-57833333D01*
X121900057Y-57833333D02*
X121995295Y-57785714D01*
X121995295Y-57785714D02*
X122185771Y-57738095D01*
X122185771Y-57738095D02*
X122423866Y-57738095D01*
X122423866Y-57738095D02*
X122614342Y-57785714D01*
X122614342Y-57785714D02*
X122709580Y-57833333D01*
X122709580Y-57833333D02*
X122757200Y-57880952D01*
X122757200Y-57880952D02*
X122804819Y-57976190D01*
X122804819Y-57976190D02*
X122804819Y-58071428D01*
X122804819Y-58071428D02*
X122757200Y-58166666D01*
X122757200Y-58166666D02*
X122709580Y-58214285D01*
X122709580Y-58214285D02*
X122614342Y-58261904D01*
X122614342Y-58261904D02*
X122423866Y-58309523D01*
X122423866Y-58309523D02*
X122185771Y-58309523D01*
X122185771Y-58309523D02*
X121995295Y-58261904D01*
X121995295Y-58261904D02*
X121900057Y-58214285D01*
X121900057Y-58214285D02*
X121852438Y-58166666D01*
X121852438Y-58166666D02*
X121804819Y-58071428D01*
X122804819Y-56547618D02*
X122138152Y-56547618D01*
X122233390Y-56547618D02*
X122185771Y-56499999D01*
X122185771Y-56499999D02*
X122138152Y-56404761D01*
X122138152Y-56404761D02*
X122138152Y-56261904D01*
X122138152Y-56261904D02*
X122185771Y-56166666D01*
X122185771Y-56166666D02*
X122281009Y-56119047D01*
X122281009Y-56119047D02*
X122804819Y-56119047D01*
X122281009Y-56119047D02*
X122185771Y-56071428D01*
X122185771Y-56071428D02*
X122138152Y-55976190D01*
X122138152Y-55976190D02*
X122138152Y-55833333D01*
X122138152Y-55833333D02*
X122185771Y-55738094D01*
X122185771Y-55738094D02*
X122281009Y-55690475D01*
X122281009Y-55690475D02*
X122804819Y-55690475D01*
X122804819Y-55214285D02*
X122138152Y-55214285D01*
X122233390Y-55214285D02*
X122185771Y-55166666D01*
X122185771Y-55166666D02*
X122138152Y-55071428D01*
X122138152Y-55071428D02*
X122138152Y-54928571D01*
X122138152Y-54928571D02*
X122185771Y-54833333D01*
X122185771Y-54833333D02*
X122281009Y-54785714D01*
X122281009Y-54785714D02*
X122804819Y-54785714D01*
X122281009Y-54785714D02*
X122185771Y-54738095D01*
X122185771Y-54738095D02*
X122138152Y-54642857D01*
X122138152Y-54642857D02*
X122138152Y-54500000D01*
X122138152Y-54500000D02*
X122185771Y-54404761D01*
X122185771Y-54404761D02*
X122281009Y-54357142D01*
X122281009Y-54357142D02*
X122804819Y-54357142D01*
X138500000Y-63000000D02*
X122913580Y-63000000D01*
X122913580Y-52000000D02*
X150000000Y-52000000D01*
X123500000Y-63000000D02*
X123500000Y-52000000D01*
X123500000Y-63000000D02*
X122913579Y-61873496D01*
X123500000Y-63000000D02*
X124086421Y-61873496D01*
X123500000Y-52000000D02*
X124086421Y-53126504D01*
X123500000Y-52000000D02*
X122913579Y-53126504D01*
X121804819Y-94166666D02*
X121804819Y-94642856D01*
X121804819Y-94642856D02*
X122281009Y-94690475D01*
X122281009Y-94690475D02*
X122233390Y-94642856D01*
X122233390Y-94642856D02*
X122185771Y-94547618D01*
X122185771Y-94547618D02*
X122185771Y-94309523D01*
X122185771Y-94309523D02*
X122233390Y-94214285D01*
X122233390Y-94214285D02*
X122281009Y-94166666D01*
X122281009Y-94166666D02*
X122376247Y-94119047D01*
X122376247Y-94119047D02*
X122614342Y-94119047D01*
X122614342Y-94119047D02*
X122709580Y-94166666D01*
X122709580Y-94166666D02*
X122757200Y-94214285D01*
X122757200Y-94214285D02*
X122804819Y-94309523D01*
X122804819Y-94309523D02*
X122804819Y-94547618D01*
X122804819Y-94547618D02*
X122757200Y-94642856D01*
X122757200Y-94642856D02*
X122709580Y-94690475D01*
X121804819Y-93785713D02*
X121804819Y-93119047D01*
X121804819Y-93119047D02*
X122804819Y-93547618D01*
X122757200Y-92690475D02*
X122804819Y-92690475D01*
X122804819Y-92690475D02*
X122900057Y-92738094D01*
X122900057Y-92738094D02*
X122947676Y-92785713D01*
X121804819Y-92071428D02*
X121804819Y-91976190D01*
X121804819Y-91976190D02*
X121852438Y-91880952D01*
X121852438Y-91880952D02*
X121900057Y-91833333D01*
X121900057Y-91833333D02*
X121995295Y-91785714D01*
X121995295Y-91785714D02*
X122185771Y-91738095D01*
X122185771Y-91738095D02*
X122423866Y-91738095D01*
X122423866Y-91738095D02*
X122614342Y-91785714D01*
X122614342Y-91785714D02*
X122709580Y-91833333D01*
X122709580Y-91833333D02*
X122757200Y-91880952D01*
X122757200Y-91880952D02*
X122804819Y-91976190D01*
X122804819Y-91976190D02*
X122804819Y-92071428D01*
X122804819Y-92071428D02*
X122757200Y-92166666D01*
X122757200Y-92166666D02*
X122709580Y-92214285D01*
X122709580Y-92214285D02*
X122614342Y-92261904D01*
X122614342Y-92261904D02*
X122423866Y-92309523D01*
X122423866Y-92309523D02*
X122185771Y-92309523D01*
X122185771Y-92309523D02*
X121995295Y-92261904D01*
X121995295Y-92261904D02*
X121900057Y-92214285D01*
X121900057Y-92214285D02*
X121852438Y-92166666D01*
X121852438Y-92166666D02*
X121804819Y-92071428D01*
X122804819Y-90547618D02*
X122138152Y-90547618D01*
X122233390Y-90547618D02*
X122185771Y-90499999D01*
X122185771Y-90499999D02*
X122138152Y-90404761D01*
X122138152Y-90404761D02*
X122138152Y-90261904D01*
X122138152Y-90261904D02*
X122185771Y-90166666D01*
X122185771Y-90166666D02*
X122281009Y-90119047D01*
X122281009Y-90119047D02*
X122804819Y-90119047D01*
X122281009Y-90119047D02*
X122185771Y-90071428D01*
X122185771Y-90071428D02*
X122138152Y-89976190D01*
X122138152Y-89976190D02*
X122138152Y-89833333D01*
X122138152Y-89833333D02*
X122185771Y-89738094D01*
X122185771Y-89738094D02*
X122281009Y-89690475D01*
X122281009Y-89690475D02*
X122804819Y-89690475D01*
X122804819Y-89214285D02*
X122138152Y-89214285D01*
X122233390Y-89214285D02*
X122185771Y-89166666D01*
X122185771Y-89166666D02*
X122138152Y-89071428D01*
X122138152Y-89071428D02*
X122138152Y-88928571D01*
X122138152Y-88928571D02*
X122185771Y-88833333D01*
X122185771Y-88833333D02*
X122281009Y-88785714D01*
X122281009Y-88785714D02*
X122804819Y-88785714D01*
X122281009Y-88785714D02*
X122185771Y-88738095D01*
X122185771Y-88738095D02*
X122138152Y-88642857D01*
X122138152Y-88642857D02*
X122138152Y-88500000D01*
X122138152Y-88500000D02*
X122185771Y-88404761D01*
X122185771Y-88404761D02*
X122281009Y-88357142D01*
X122281009Y-88357142D02*
X122804819Y-88357142D01*
X138500000Y-120000000D02*
X122913580Y-120000000D01*
X122913580Y-63000000D02*
X138500000Y-63000000D01*
X123500000Y-120000000D02*
X123500000Y-63000000D01*
X123500000Y-120000000D02*
X122913579Y-118873496D01*
X123500000Y-120000000D02*
X124086421Y-118873496D01*
X123500000Y-63000000D02*
X124086421Y-64126504D01*
X123500000Y-63000000D02*
X122913579Y-64126504D01*
X202738152Y-93714285D02*
X203404819Y-93714285D01*
X202357200Y-93952380D02*
X203071485Y-94190475D01*
X203071485Y-94190475D02*
X203071485Y-93571428D01*
X202500057Y-93238094D02*
X202452438Y-93190475D01*
X202452438Y-93190475D02*
X202404819Y-93095237D01*
X202404819Y-93095237D02*
X202404819Y-92857142D01*
X202404819Y-92857142D02*
X202452438Y-92761904D01*
X202452438Y-92761904D02*
X202500057Y-92714285D01*
X202500057Y-92714285D02*
X202595295Y-92666666D01*
X202595295Y-92666666D02*
X202690533Y-92666666D01*
X202690533Y-92666666D02*
X202833390Y-92714285D01*
X202833390Y-92714285D02*
X203404819Y-93285713D01*
X203404819Y-93285713D02*
X203404819Y-92666666D01*
X203357200Y-92190475D02*
X203404819Y-92190475D01*
X203404819Y-92190475D02*
X203500057Y-92238094D01*
X203500057Y-92238094D02*
X203547676Y-92285713D01*
X202404819Y-91571428D02*
X202404819Y-91476190D01*
X202404819Y-91476190D02*
X202452438Y-91380952D01*
X202452438Y-91380952D02*
X202500057Y-91333333D01*
X202500057Y-91333333D02*
X202595295Y-91285714D01*
X202595295Y-91285714D02*
X202785771Y-91238095D01*
X202785771Y-91238095D02*
X203023866Y-91238095D01*
X203023866Y-91238095D02*
X203214342Y-91285714D01*
X203214342Y-91285714D02*
X203309580Y-91333333D01*
X203309580Y-91333333D02*
X203357200Y-91380952D01*
X203357200Y-91380952D02*
X203404819Y-91476190D01*
X203404819Y-91476190D02*
X203404819Y-91571428D01*
X203404819Y-91571428D02*
X203357200Y-91666666D01*
X203357200Y-91666666D02*
X203309580Y-91714285D01*
X203309580Y-91714285D02*
X203214342Y-91761904D01*
X203214342Y-91761904D02*
X203023866Y-91809523D01*
X203023866Y-91809523D02*
X202785771Y-91809523D01*
X202785771Y-91809523D02*
X202595295Y-91761904D01*
X202595295Y-91761904D02*
X202500057Y-91714285D01*
X202500057Y-91714285D02*
X202452438Y-91666666D01*
X202452438Y-91666666D02*
X202404819Y-91571428D01*
X203404819Y-90047618D02*
X202738152Y-90047618D01*
X202833390Y-90047618D02*
X202785771Y-89999999D01*
X202785771Y-89999999D02*
X202738152Y-89904761D01*
X202738152Y-89904761D02*
X202738152Y-89761904D01*
X202738152Y-89761904D02*
X202785771Y-89666666D01*
X202785771Y-89666666D02*
X202881009Y-89619047D01*
X202881009Y-89619047D02*
X203404819Y-89619047D01*
X202881009Y-89619047D02*
X202785771Y-89571428D01*
X202785771Y-89571428D02*
X202738152Y-89476190D01*
X202738152Y-89476190D02*
X202738152Y-89333333D01*
X202738152Y-89333333D02*
X202785771Y-89238094D01*
X202785771Y-89238094D02*
X202881009Y-89190475D01*
X202881009Y-89190475D02*
X203404819Y-89190475D01*
X203404819Y-88714285D02*
X202738152Y-88714285D01*
X202833390Y-88714285D02*
X202785771Y-88666666D01*
X202785771Y-88666666D02*
X202738152Y-88571428D01*
X202738152Y-88571428D02*
X202738152Y-88428571D01*
X202738152Y-88428571D02*
X202785771Y-88333333D01*
X202785771Y-88333333D02*
X202881009Y-88285714D01*
X202881009Y-88285714D02*
X203404819Y-88285714D01*
X202881009Y-88285714D02*
X202785771Y-88238095D01*
X202785771Y-88238095D02*
X202738152Y-88142857D01*
X202738152Y-88142857D02*
X202738152Y-88000000D01*
X202738152Y-88000000D02*
X202785771Y-87904761D01*
X202785771Y-87904761D02*
X202881009Y-87857142D01*
X202881009Y-87857142D02*
X203404819Y-87857142D01*
X197000000Y-112000000D02*
X204686420Y-112000000D01*
X204686420Y-70000000D02*
X197000000Y-70000000D01*
X204100000Y-112000000D02*
X204100000Y-70000000D01*
X204100000Y-112000000D02*
X203513579Y-110873496D01*
X204100000Y-112000000D02*
X204686421Y-110873496D01*
X204100000Y-70000000D02*
X204686421Y-71126504D01*
X204100000Y-70000000D02*
X203513579Y-71126504D01*
X223238096Y-115804819D02*
X223857143Y-115804819D01*
X223857143Y-115804819D02*
X223523810Y-116185771D01*
X223523810Y-116185771D02*
X223666667Y-116185771D01*
X223666667Y-116185771D02*
X223761905Y-116233390D01*
X223761905Y-116233390D02*
X223809524Y-116281009D01*
X223809524Y-116281009D02*
X223857143Y-116376247D01*
X223857143Y-116376247D02*
X223857143Y-116614342D01*
X223857143Y-116614342D02*
X223809524Y-116709580D01*
X223809524Y-116709580D02*
X223761905Y-116757200D01*
X223761905Y-116757200D02*
X223666667Y-116804819D01*
X223666667Y-116804819D02*
X223380953Y-116804819D01*
X223380953Y-116804819D02*
X223285715Y-116757200D01*
X223285715Y-116757200D02*
X223238096Y-116709580D01*
X224333334Y-116757200D02*
X224333334Y-116804819D01*
X224333334Y-116804819D02*
X224285715Y-116900057D01*
X224285715Y-116900057D02*
X224238096Y-116947676D01*
X224952381Y-115804819D02*
X225047619Y-115804819D01*
X225047619Y-115804819D02*
X225142857Y-115852438D01*
X225142857Y-115852438D02*
X225190476Y-115900057D01*
X225190476Y-115900057D02*
X225238095Y-115995295D01*
X225238095Y-115995295D02*
X225285714Y-116185771D01*
X225285714Y-116185771D02*
X225285714Y-116423866D01*
X225285714Y-116423866D02*
X225238095Y-116614342D01*
X225238095Y-116614342D02*
X225190476Y-116709580D01*
X225190476Y-116709580D02*
X225142857Y-116757200D01*
X225142857Y-116757200D02*
X225047619Y-116804819D01*
X225047619Y-116804819D02*
X224952381Y-116804819D01*
X224952381Y-116804819D02*
X224857143Y-116757200D01*
X224857143Y-116757200D02*
X224809524Y-116709580D01*
X224809524Y-116709580D02*
X224761905Y-116614342D01*
X224761905Y-116614342D02*
X224714286Y-116423866D01*
X224714286Y-116423866D02*
X224714286Y-116185771D01*
X224714286Y-116185771D02*
X224761905Y-115995295D01*
X224761905Y-115995295D02*
X224809524Y-115900057D01*
X224809524Y-115900057D02*
X224857143Y-115852438D01*
X224857143Y-115852438D02*
X224952381Y-115804819D01*
X226476191Y-116804819D02*
X226476191Y-116138152D01*
X226476191Y-116233390D02*
X226523810Y-116185771D01*
X226523810Y-116185771D02*
X226619048Y-116138152D01*
X226619048Y-116138152D02*
X226761905Y-116138152D01*
X226761905Y-116138152D02*
X226857143Y-116185771D01*
X226857143Y-116185771D02*
X226904762Y-116281009D01*
X226904762Y-116281009D02*
X226904762Y-116804819D01*
X226904762Y-116281009D02*
X226952381Y-116185771D01*
X226952381Y-116185771D02*
X227047619Y-116138152D01*
X227047619Y-116138152D02*
X227190476Y-116138152D01*
X227190476Y-116138152D02*
X227285715Y-116185771D01*
X227285715Y-116185771D02*
X227333334Y-116281009D01*
X227333334Y-116281009D02*
X227333334Y-116804819D01*
X227809524Y-116804819D02*
X227809524Y-116138152D01*
X227809524Y-116233390D02*
X227857143Y-116185771D01*
X227857143Y-116185771D02*
X227952381Y-116138152D01*
X227952381Y-116138152D02*
X228095238Y-116138152D01*
X228095238Y-116138152D02*
X228190476Y-116185771D01*
X228190476Y-116185771D02*
X228238095Y-116281009D01*
X228238095Y-116281009D02*
X228238095Y-116804819D01*
X228238095Y-116281009D02*
X228285714Y-116185771D01*
X228285714Y-116185771D02*
X228380952Y-116138152D01*
X228380952Y-116138152D02*
X228523809Y-116138152D01*
X228523809Y-116138152D02*
X228619048Y-116185771D01*
X228619048Y-116185771D02*
X228666667Y-116281009D01*
X228666667Y-116281009D02*
X228666667Y-116804819D01*
X227500000Y-110500000D02*
X227500000Y-118086420D01*
X224500000Y-118086420D02*
X224500000Y-107500002D01*
X227500000Y-117500000D02*
X224500000Y-117500000D01*
X227500000Y-117500000D02*
X226373496Y-118086421D01*
X227500000Y-117500000D02*
X226373496Y-116913579D01*
X224500000Y-117500000D02*
X225626504Y-116913579D01*
X224500000Y-117500000D02*
X225626504Y-118086421D01*
X217380952Y-61204819D02*
X216809524Y-61204819D01*
X217095238Y-61204819D02*
X217095238Y-60204819D01*
X217095238Y-60204819D02*
X217000000Y-60347676D01*
X217000000Y-60347676D02*
X216904762Y-60442914D01*
X216904762Y-60442914D02*
X216809524Y-60490533D01*
X218285714Y-60204819D02*
X217809524Y-60204819D01*
X217809524Y-60204819D02*
X217761905Y-60681009D01*
X217761905Y-60681009D02*
X217809524Y-60633390D01*
X217809524Y-60633390D02*
X217904762Y-60585771D01*
X217904762Y-60585771D02*
X218142857Y-60585771D01*
X218142857Y-60585771D02*
X218238095Y-60633390D01*
X218238095Y-60633390D02*
X218285714Y-60681009D01*
X218285714Y-60681009D02*
X218333333Y-60776247D01*
X218333333Y-60776247D02*
X218333333Y-61014342D01*
X218333333Y-61014342D02*
X218285714Y-61109580D01*
X218285714Y-61109580D02*
X218238095Y-61157200D01*
X218238095Y-61157200D02*
X218142857Y-61204819D01*
X218142857Y-61204819D02*
X217904762Y-61204819D01*
X217904762Y-61204819D02*
X217809524Y-61157200D01*
X217809524Y-61157200D02*
X217761905Y-61109580D01*
X218809524Y-61157200D02*
X218809524Y-61204819D01*
X218809524Y-61204819D02*
X218761905Y-61300057D01*
X218761905Y-61300057D02*
X218714286Y-61347676D01*
X219428571Y-60204819D02*
X219523809Y-60204819D01*
X219523809Y-60204819D02*
X219619047Y-60252438D01*
X219619047Y-60252438D02*
X219666666Y-60300057D01*
X219666666Y-60300057D02*
X219714285Y-60395295D01*
X219714285Y-60395295D02*
X219761904Y-60585771D01*
X219761904Y-60585771D02*
X219761904Y-60823866D01*
X219761904Y-60823866D02*
X219714285Y-61014342D01*
X219714285Y-61014342D02*
X219666666Y-61109580D01*
X219666666Y-61109580D02*
X219619047Y-61157200D01*
X219619047Y-61157200D02*
X219523809Y-61204819D01*
X219523809Y-61204819D02*
X219428571Y-61204819D01*
X219428571Y-61204819D02*
X219333333Y-61157200D01*
X219333333Y-61157200D02*
X219285714Y-61109580D01*
X219285714Y-61109580D02*
X219238095Y-61014342D01*
X219238095Y-61014342D02*
X219190476Y-60823866D01*
X219190476Y-60823866D02*
X219190476Y-60585771D01*
X219190476Y-60585771D02*
X219238095Y-60395295D01*
X219238095Y-60395295D02*
X219285714Y-60300057D01*
X219285714Y-60300057D02*
X219333333Y-60252438D01*
X219333333Y-60252438D02*
X219428571Y-60204819D01*
X220952381Y-61204819D02*
X220952381Y-60538152D01*
X220952381Y-60633390D02*
X221000000Y-60585771D01*
X221000000Y-60585771D02*
X221095238Y-60538152D01*
X221095238Y-60538152D02*
X221238095Y-60538152D01*
X221238095Y-60538152D02*
X221333333Y-60585771D01*
X221333333Y-60585771D02*
X221380952Y-60681009D01*
X221380952Y-60681009D02*
X221380952Y-61204819D01*
X221380952Y-60681009D02*
X221428571Y-60585771D01*
X221428571Y-60585771D02*
X221523809Y-60538152D01*
X221523809Y-60538152D02*
X221666666Y-60538152D01*
X221666666Y-60538152D02*
X221761905Y-60585771D01*
X221761905Y-60585771D02*
X221809524Y-60681009D01*
X221809524Y-60681009D02*
X221809524Y-61204819D01*
X222285714Y-61204819D02*
X222285714Y-60538152D01*
X222285714Y-60633390D02*
X222333333Y-60585771D01*
X222333333Y-60585771D02*
X222428571Y-60538152D01*
X222428571Y-60538152D02*
X222571428Y-60538152D01*
X222571428Y-60538152D02*
X222666666Y-60585771D01*
X222666666Y-60585771D02*
X222714285Y-60681009D01*
X222714285Y-60681009D02*
X222714285Y-61204819D01*
X222714285Y-60681009D02*
X222761904Y-60585771D01*
X222761904Y-60585771D02*
X222857142Y-60538152D01*
X222857142Y-60538152D02*
X222999999Y-60538152D01*
X222999999Y-60538152D02*
X223095238Y-60585771D01*
X223095238Y-60585771D02*
X223142857Y-60681009D01*
X223142857Y-60681009D02*
X223142857Y-61204819D01*
X212500000Y-71500000D02*
X212500000Y-61313580D01*
X227500000Y-61313580D02*
X227500000Y-71500000D01*
X212500000Y-61900000D02*
X227500000Y-61900000D01*
X212500000Y-61900000D02*
X213626504Y-61313579D01*
X212500000Y-61900000D02*
X213626504Y-62486421D01*
X227500000Y-61900000D02*
X226373496Y-62486421D01*
X227500000Y-61900000D02*
X226373496Y-61313579D01*
X234304819Y-94238094D02*
X234304819Y-93619047D01*
X234304819Y-93619047D02*
X234685771Y-93952380D01*
X234685771Y-93952380D02*
X234685771Y-93809523D01*
X234685771Y-93809523D02*
X234733390Y-93714285D01*
X234733390Y-93714285D02*
X234781009Y-93666666D01*
X234781009Y-93666666D02*
X234876247Y-93619047D01*
X234876247Y-93619047D02*
X235114342Y-93619047D01*
X235114342Y-93619047D02*
X235209580Y-93666666D01*
X235209580Y-93666666D02*
X235257200Y-93714285D01*
X235257200Y-93714285D02*
X235304819Y-93809523D01*
X235304819Y-93809523D02*
X235304819Y-94095237D01*
X235304819Y-94095237D02*
X235257200Y-94190475D01*
X235257200Y-94190475D02*
X235209580Y-94238094D01*
X234733390Y-93047618D02*
X234685771Y-93142856D01*
X234685771Y-93142856D02*
X234638152Y-93190475D01*
X234638152Y-93190475D02*
X234542914Y-93238094D01*
X234542914Y-93238094D02*
X234495295Y-93238094D01*
X234495295Y-93238094D02*
X234400057Y-93190475D01*
X234400057Y-93190475D02*
X234352438Y-93142856D01*
X234352438Y-93142856D02*
X234304819Y-93047618D01*
X234304819Y-93047618D02*
X234304819Y-92857142D01*
X234304819Y-92857142D02*
X234352438Y-92761904D01*
X234352438Y-92761904D02*
X234400057Y-92714285D01*
X234400057Y-92714285D02*
X234495295Y-92666666D01*
X234495295Y-92666666D02*
X234542914Y-92666666D01*
X234542914Y-92666666D02*
X234638152Y-92714285D01*
X234638152Y-92714285D02*
X234685771Y-92761904D01*
X234685771Y-92761904D02*
X234733390Y-92857142D01*
X234733390Y-92857142D02*
X234733390Y-93047618D01*
X234733390Y-93047618D02*
X234781009Y-93142856D01*
X234781009Y-93142856D02*
X234828628Y-93190475D01*
X234828628Y-93190475D02*
X234923866Y-93238094D01*
X234923866Y-93238094D02*
X235114342Y-93238094D01*
X235114342Y-93238094D02*
X235209580Y-93190475D01*
X235209580Y-93190475D02*
X235257200Y-93142856D01*
X235257200Y-93142856D02*
X235304819Y-93047618D01*
X235304819Y-93047618D02*
X235304819Y-92857142D01*
X235304819Y-92857142D02*
X235257200Y-92761904D01*
X235257200Y-92761904D02*
X235209580Y-92714285D01*
X235209580Y-92714285D02*
X235114342Y-92666666D01*
X235114342Y-92666666D02*
X234923866Y-92666666D01*
X234923866Y-92666666D02*
X234828628Y-92714285D01*
X234828628Y-92714285D02*
X234781009Y-92761904D01*
X234781009Y-92761904D02*
X234733390Y-92857142D01*
X235257200Y-92190475D02*
X235304819Y-92190475D01*
X235304819Y-92190475D02*
X235400057Y-92238094D01*
X235400057Y-92238094D02*
X235447676Y-92285713D01*
X234304819Y-91571428D02*
X234304819Y-91476190D01*
X234304819Y-91476190D02*
X234352438Y-91380952D01*
X234352438Y-91380952D02*
X234400057Y-91333333D01*
X234400057Y-91333333D02*
X234495295Y-91285714D01*
X234495295Y-91285714D02*
X234685771Y-91238095D01*
X234685771Y-91238095D02*
X234923866Y-91238095D01*
X234923866Y-91238095D02*
X235114342Y-91285714D01*
X235114342Y-91285714D02*
X235209580Y-91333333D01*
X235209580Y-91333333D02*
X235257200Y-91380952D01*
X235257200Y-91380952D02*
X235304819Y-91476190D01*
X235304819Y-91476190D02*
X235304819Y-91571428D01*
X235304819Y-91571428D02*
X235257200Y-91666666D01*
X235257200Y-91666666D02*
X235209580Y-91714285D01*
X235209580Y-91714285D02*
X235114342Y-91761904D01*
X235114342Y-91761904D02*
X234923866Y-91809523D01*
X234923866Y-91809523D02*
X234685771Y-91809523D01*
X234685771Y-91809523D02*
X234495295Y-91761904D01*
X234495295Y-91761904D02*
X234400057Y-91714285D01*
X234400057Y-91714285D02*
X234352438Y-91666666D01*
X234352438Y-91666666D02*
X234304819Y-91571428D01*
X235304819Y-90047618D02*
X234638152Y-90047618D01*
X234733390Y-90047618D02*
X234685771Y-89999999D01*
X234685771Y-89999999D02*
X234638152Y-89904761D01*
X234638152Y-89904761D02*
X234638152Y-89761904D01*
X234638152Y-89761904D02*
X234685771Y-89666666D01*
X234685771Y-89666666D02*
X234781009Y-89619047D01*
X234781009Y-89619047D02*
X235304819Y-89619047D01*
X234781009Y-89619047D02*
X234685771Y-89571428D01*
X234685771Y-89571428D02*
X234638152Y-89476190D01*
X234638152Y-89476190D02*
X234638152Y-89333333D01*
X234638152Y-89333333D02*
X234685771Y-89238094D01*
X234685771Y-89238094D02*
X234781009Y-89190475D01*
X234781009Y-89190475D02*
X235304819Y-89190475D01*
X235304819Y-88714285D02*
X234638152Y-88714285D01*
X234733390Y-88714285D02*
X234685771Y-88666666D01*
X234685771Y-88666666D02*
X234638152Y-88571428D01*
X234638152Y-88571428D02*
X234638152Y-88428571D01*
X234638152Y-88428571D02*
X234685771Y-88333333D01*
X234685771Y-88333333D02*
X234781009Y-88285714D01*
X234781009Y-88285714D02*
X235304819Y-88285714D01*
X234781009Y-88285714D02*
X234685771Y-88238095D01*
X234685771Y-88238095D02*
X234638152Y-88142857D01*
X234638152Y-88142857D02*
X234638152Y-88000000D01*
X234638152Y-88000000D02*
X234685771Y-87904761D01*
X234685771Y-87904761D02*
X234781009Y-87857142D01*
X234781009Y-87857142D02*
X235304819Y-87857142D01*
X228000000Y-72000000D02*
X236586420Y-72000000D01*
X236586420Y-110000000D02*
X228000000Y-110000000D01*
X236000000Y-72000000D02*
X236000000Y-110000000D01*
X236000000Y-72000000D02*
X236586421Y-73126504D01*
X236000000Y-72000000D02*
X235413579Y-73126504D01*
X236000000Y-110000000D02*
X235413579Y-108873496D01*
X236000000Y-110000000D02*
X236586421Y-108873496D01*
X208300057Y-73714284D02*
X208252438Y-73666665D01*
X208252438Y-73666665D02*
X208204819Y-73571427D01*
X208204819Y-73571427D02*
X208204819Y-73333332D01*
X208204819Y-73333332D02*
X208252438Y-73238094D01*
X208252438Y-73238094D02*
X208300057Y-73190475D01*
X208300057Y-73190475D02*
X208395295Y-73142856D01*
X208395295Y-73142856D02*
X208490533Y-73142856D01*
X208490533Y-73142856D02*
X208633390Y-73190475D01*
X208633390Y-73190475D02*
X209204819Y-73761903D01*
X209204819Y-73761903D02*
X209204819Y-73142856D01*
X209157200Y-72666665D02*
X209204819Y-72666665D01*
X209204819Y-72666665D02*
X209300057Y-72714284D01*
X209300057Y-72714284D02*
X209347676Y-72761903D01*
X208204819Y-72047618D02*
X208204819Y-71952380D01*
X208204819Y-71952380D02*
X208252438Y-71857142D01*
X208252438Y-71857142D02*
X208300057Y-71809523D01*
X208300057Y-71809523D02*
X208395295Y-71761904D01*
X208395295Y-71761904D02*
X208585771Y-71714285D01*
X208585771Y-71714285D02*
X208823866Y-71714285D01*
X208823866Y-71714285D02*
X209014342Y-71761904D01*
X209014342Y-71761904D02*
X209109580Y-71809523D01*
X209109580Y-71809523D02*
X209157200Y-71857142D01*
X209157200Y-71857142D02*
X209204819Y-71952380D01*
X209204819Y-71952380D02*
X209204819Y-72047618D01*
X209204819Y-72047618D02*
X209157200Y-72142856D01*
X209157200Y-72142856D02*
X209109580Y-72190475D01*
X209109580Y-72190475D02*
X209014342Y-72238094D01*
X209014342Y-72238094D02*
X208823866Y-72285713D01*
X208823866Y-72285713D02*
X208585771Y-72285713D01*
X208585771Y-72285713D02*
X208395295Y-72238094D01*
X208395295Y-72238094D02*
X208300057Y-72190475D01*
X208300057Y-72190475D02*
X208252438Y-72142856D01*
X208252438Y-72142856D02*
X208204819Y-72047618D01*
X209204819Y-70523808D02*
X208538152Y-70523808D01*
X208633390Y-70523808D02*
X208585771Y-70476189D01*
X208585771Y-70476189D02*
X208538152Y-70380951D01*
X208538152Y-70380951D02*
X208538152Y-70238094D01*
X208538152Y-70238094D02*
X208585771Y-70142856D01*
X208585771Y-70142856D02*
X208681009Y-70095237D01*
X208681009Y-70095237D02*
X209204819Y-70095237D01*
X208681009Y-70095237D02*
X208585771Y-70047618D01*
X208585771Y-70047618D02*
X208538152Y-69952380D01*
X208538152Y-69952380D02*
X208538152Y-69809523D01*
X208538152Y-69809523D02*
X208585771Y-69714284D01*
X208585771Y-69714284D02*
X208681009Y-69666665D01*
X208681009Y-69666665D02*
X209204819Y-69666665D01*
X209204819Y-69190475D02*
X208538152Y-69190475D01*
X208633390Y-69190475D02*
X208585771Y-69142856D01*
X208585771Y-69142856D02*
X208538152Y-69047618D01*
X208538152Y-69047618D02*
X208538152Y-68904761D01*
X208538152Y-68904761D02*
X208585771Y-68809523D01*
X208585771Y-68809523D02*
X208681009Y-68761904D01*
X208681009Y-68761904D02*
X209204819Y-68761904D01*
X208681009Y-68761904D02*
X208585771Y-68714285D01*
X208585771Y-68714285D02*
X208538152Y-68619047D01*
X208538152Y-68619047D02*
X208538152Y-68476190D01*
X208538152Y-68476190D02*
X208585771Y-68380951D01*
X208585771Y-68380951D02*
X208681009Y-68333332D01*
X208681009Y-68333332D02*
X209204819Y-68333332D01*
X212000000Y-72000000D02*
X209313580Y-72000000D01*
X209313580Y-70000000D02*
X212000000Y-70000000D01*
X209900000Y-72000000D02*
X209900000Y-70000000D01*
X209900000Y-72000000D02*
X209313579Y-70873496D01*
X209900000Y-72000000D02*
X210486421Y-70873496D01*
X209900000Y-70000000D02*
X210486421Y-71126504D01*
X209900000Y-70000000D02*
X209313579Y-71126504D01*
X106880952Y-44804819D02*
X106309524Y-44804819D01*
X106595238Y-44804819D02*
X106595238Y-43804819D01*
X106595238Y-43804819D02*
X106500000Y-43947676D01*
X106500000Y-43947676D02*
X106404762Y-44042914D01*
X106404762Y-44042914D02*
X106309524Y-44090533D01*
X107785714Y-43804819D02*
X107309524Y-43804819D01*
X107309524Y-43804819D02*
X107261905Y-44281009D01*
X107261905Y-44281009D02*
X107309524Y-44233390D01*
X107309524Y-44233390D02*
X107404762Y-44185771D01*
X107404762Y-44185771D02*
X107642857Y-44185771D01*
X107642857Y-44185771D02*
X107738095Y-44233390D01*
X107738095Y-44233390D02*
X107785714Y-44281009D01*
X107785714Y-44281009D02*
X107833333Y-44376247D01*
X107833333Y-44376247D02*
X107833333Y-44614342D01*
X107833333Y-44614342D02*
X107785714Y-44709580D01*
X107785714Y-44709580D02*
X107738095Y-44757200D01*
X107738095Y-44757200D02*
X107642857Y-44804819D01*
X107642857Y-44804819D02*
X107404762Y-44804819D01*
X107404762Y-44804819D02*
X107309524Y-44757200D01*
X107309524Y-44757200D02*
X107261905Y-44709580D01*
X108309524Y-44757200D02*
X108309524Y-44804819D01*
X108309524Y-44804819D02*
X108261905Y-44900057D01*
X108261905Y-44900057D02*
X108214286Y-44947676D01*
X108928571Y-43804819D02*
X109023809Y-43804819D01*
X109023809Y-43804819D02*
X109119047Y-43852438D01*
X109119047Y-43852438D02*
X109166666Y-43900057D01*
X109166666Y-43900057D02*
X109214285Y-43995295D01*
X109214285Y-43995295D02*
X109261904Y-44185771D01*
X109261904Y-44185771D02*
X109261904Y-44423866D01*
X109261904Y-44423866D02*
X109214285Y-44614342D01*
X109214285Y-44614342D02*
X109166666Y-44709580D01*
X109166666Y-44709580D02*
X109119047Y-44757200D01*
X109119047Y-44757200D02*
X109023809Y-44804819D01*
X109023809Y-44804819D02*
X108928571Y-44804819D01*
X108928571Y-44804819D02*
X108833333Y-44757200D01*
X108833333Y-44757200D02*
X108785714Y-44709580D01*
X108785714Y-44709580D02*
X108738095Y-44614342D01*
X108738095Y-44614342D02*
X108690476Y-44423866D01*
X108690476Y-44423866D02*
X108690476Y-44185771D01*
X108690476Y-44185771D02*
X108738095Y-43995295D01*
X108738095Y-43995295D02*
X108785714Y-43900057D01*
X108785714Y-43900057D02*
X108833333Y-43852438D01*
X108833333Y-43852438D02*
X108928571Y-43804819D01*
X110452381Y-44804819D02*
X110452381Y-44138152D01*
X110452381Y-44233390D02*
X110500000Y-44185771D01*
X110500000Y-44185771D02*
X110595238Y-44138152D01*
X110595238Y-44138152D02*
X110738095Y-44138152D01*
X110738095Y-44138152D02*
X110833333Y-44185771D01*
X110833333Y-44185771D02*
X110880952Y-44281009D01*
X110880952Y-44281009D02*
X110880952Y-44804819D01*
X110880952Y-44281009D02*
X110928571Y-44185771D01*
X110928571Y-44185771D02*
X111023809Y-44138152D01*
X111023809Y-44138152D02*
X111166666Y-44138152D01*
X111166666Y-44138152D02*
X111261905Y-44185771D01*
X111261905Y-44185771D02*
X111309524Y-44281009D01*
X111309524Y-44281009D02*
X111309524Y-44804819D01*
X111785714Y-44804819D02*
X111785714Y-44138152D01*
X111785714Y-44233390D02*
X111833333Y-44185771D01*
X111833333Y-44185771D02*
X111928571Y-44138152D01*
X111928571Y-44138152D02*
X112071428Y-44138152D01*
X112071428Y-44138152D02*
X112166666Y-44185771D01*
X112166666Y-44185771D02*
X112214285Y-44281009D01*
X112214285Y-44281009D02*
X112214285Y-44804819D01*
X112214285Y-44281009D02*
X112261904Y-44185771D01*
X112261904Y-44185771D02*
X112357142Y-44138152D01*
X112357142Y-44138152D02*
X112499999Y-44138152D01*
X112499999Y-44138152D02*
X112595238Y-44185771D01*
X112595238Y-44185771D02*
X112642857Y-44281009D01*
X112642857Y-44281009D02*
X112642857Y-44804819D01*
X117000000Y-51500000D02*
X117000000Y-44913580D01*
X102000000Y-44913580D02*
X102000000Y-51500000D01*
X117000000Y-45500000D02*
X102000000Y-45500000D01*
X117000000Y-45500000D02*
X115873496Y-46086421D01*
X117000000Y-45500000D02*
X115873496Y-44913579D01*
X102000000Y-45500000D02*
X103126504Y-44913579D01*
X102000000Y-45500000D02*
X103126504Y-46086421D01*
X230404819Y-111261903D02*
X230404819Y-110642856D01*
X230404819Y-110642856D02*
X230785771Y-110976189D01*
X230785771Y-110976189D02*
X230785771Y-110833332D01*
X230785771Y-110833332D02*
X230833390Y-110738094D01*
X230833390Y-110738094D02*
X230881009Y-110690475D01*
X230881009Y-110690475D02*
X230976247Y-110642856D01*
X230976247Y-110642856D02*
X231214342Y-110642856D01*
X231214342Y-110642856D02*
X231309580Y-110690475D01*
X231309580Y-110690475D02*
X231357200Y-110738094D01*
X231357200Y-110738094D02*
X231404819Y-110833332D01*
X231404819Y-110833332D02*
X231404819Y-111119046D01*
X231404819Y-111119046D02*
X231357200Y-111214284D01*
X231357200Y-111214284D02*
X231309580Y-111261903D01*
X231357200Y-110166665D02*
X231404819Y-110166665D01*
X231404819Y-110166665D02*
X231500057Y-110214284D01*
X231500057Y-110214284D02*
X231547676Y-110261903D01*
X230404819Y-109547618D02*
X230404819Y-109452380D01*
X230404819Y-109452380D02*
X230452438Y-109357142D01*
X230452438Y-109357142D02*
X230500057Y-109309523D01*
X230500057Y-109309523D02*
X230595295Y-109261904D01*
X230595295Y-109261904D02*
X230785771Y-109214285D01*
X230785771Y-109214285D02*
X231023866Y-109214285D01*
X231023866Y-109214285D02*
X231214342Y-109261904D01*
X231214342Y-109261904D02*
X231309580Y-109309523D01*
X231309580Y-109309523D02*
X231357200Y-109357142D01*
X231357200Y-109357142D02*
X231404819Y-109452380D01*
X231404819Y-109452380D02*
X231404819Y-109547618D01*
X231404819Y-109547618D02*
X231357200Y-109642856D01*
X231357200Y-109642856D02*
X231309580Y-109690475D01*
X231309580Y-109690475D02*
X231214342Y-109738094D01*
X231214342Y-109738094D02*
X231023866Y-109785713D01*
X231023866Y-109785713D02*
X230785771Y-109785713D01*
X230785771Y-109785713D02*
X230595295Y-109738094D01*
X230595295Y-109738094D02*
X230500057Y-109690475D01*
X230500057Y-109690475D02*
X230452438Y-109642856D01*
X230452438Y-109642856D02*
X230404819Y-109547618D01*
X231404819Y-108023808D02*
X230738152Y-108023808D01*
X230833390Y-108023808D02*
X230785771Y-107976189D01*
X230785771Y-107976189D02*
X230738152Y-107880951D01*
X230738152Y-107880951D02*
X230738152Y-107738094D01*
X230738152Y-107738094D02*
X230785771Y-107642856D01*
X230785771Y-107642856D02*
X230881009Y-107595237D01*
X230881009Y-107595237D02*
X231404819Y-107595237D01*
X230881009Y-107595237D02*
X230785771Y-107547618D01*
X230785771Y-107547618D02*
X230738152Y-107452380D01*
X230738152Y-107452380D02*
X230738152Y-107309523D01*
X230738152Y-107309523D02*
X230785771Y-107214284D01*
X230785771Y-107214284D02*
X230881009Y-107166665D01*
X230881009Y-107166665D02*
X231404819Y-107166665D01*
X231404819Y-106690475D02*
X230738152Y-106690475D01*
X230833390Y-106690475D02*
X230785771Y-106642856D01*
X230785771Y-106642856D02*
X230738152Y-106547618D01*
X230738152Y-106547618D02*
X230738152Y-106404761D01*
X230738152Y-106404761D02*
X230785771Y-106309523D01*
X230785771Y-106309523D02*
X230881009Y-106261904D01*
X230881009Y-106261904D02*
X231404819Y-106261904D01*
X230881009Y-106261904D02*
X230785771Y-106214285D01*
X230785771Y-106214285D02*
X230738152Y-106119047D01*
X230738152Y-106119047D02*
X230738152Y-105976190D01*
X230738152Y-105976190D02*
X230785771Y-105880951D01*
X230785771Y-105880951D02*
X230881009Y-105833332D01*
X230881009Y-105833332D02*
X231404819Y-105833332D01*
X216000000Y-107000000D02*
X232686420Y-107000000D01*
X232686420Y-110000000D02*
X216000000Y-110000000D01*
X232100000Y-107000000D02*
X232100000Y-110000000D01*
X232100000Y-107000000D02*
X232686421Y-108126504D01*
X232100000Y-107000000D02*
X231513579Y-108126504D01*
X232100000Y-110000000D02*
X231513579Y-108873496D01*
X232100000Y-110000000D02*
X232686421Y-108873496D01*
X94804819Y-94738094D02*
X94804819Y-94071428D01*
X94804819Y-94071428D02*
X95804819Y-94499999D01*
X95804819Y-93642856D02*
X95804819Y-93452380D01*
X95804819Y-93452380D02*
X95757200Y-93357142D01*
X95757200Y-93357142D02*
X95709580Y-93309523D01*
X95709580Y-93309523D02*
X95566723Y-93214285D01*
X95566723Y-93214285D02*
X95376247Y-93166666D01*
X95376247Y-93166666D02*
X94995295Y-93166666D01*
X94995295Y-93166666D02*
X94900057Y-93214285D01*
X94900057Y-93214285D02*
X94852438Y-93261904D01*
X94852438Y-93261904D02*
X94804819Y-93357142D01*
X94804819Y-93357142D02*
X94804819Y-93547618D01*
X94804819Y-93547618D02*
X94852438Y-93642856D01*
X94852438Y-93642856D02*
X94900057Y-93690475D01*
X94900057Y-93690475D02*
X94995295Y-93738094D01*
X94995295Y-93738094D02*
X95233390Y-93738094D01*
X95233390Y-93738094D02*
X95328628Y-93690475D01*
X95328628Y-93690475D02*
X95376247Y-93642856D01*
X95376247Y-93642856D02*
X95423866Y-93547618D01*
X95423866Y-93547618D02*
X95423866Y-93357142D01*
X95423866Y-93357142D02*
X95376247Y-93261904D01*
X95376247Y-93261904D02*
X95328628Y-93214285D01*
X95328628Y-93214285D02*
X95233390Y-93166666D01*
X95757200Y-92690475D02*
X95804819Y-92690475D01*
X95804819Y-92690475D02*
X95900057Y-92738094D01*
X95900057Y-92738094D02*
X95947676Y-92785713D01*
X94804819Y-92071428D02*
X94804819Y-91976190D01*
X94804819Y-91976190D02*
X94852438Y-91880952D01*
X94852438Y-91880952D02*
X94900057Y-91833333D01*
X94900057Y-91833333D02*
X94995295Y-91785714D01*
X94995295Y-91785714D02*
X95185771Y-91738095D01*
X95185771Y-91738095D02*
X95423866Y-91738095D01*
X95423866Y-91738095D02*
X95614342Y-91785714D01*
X95614342Y-91785714D02*
X95709580Y-91833333D01*
X95709580Y-91833333D02*
X95757200Y-91880952D01*
X95757200Y-91880952D02*
X95804819Y-91976190D01*
X95804819Y-91976190D02*
X95804819Y-92071428D01*
X95804819Y-92071428D02*
X95757200Y-92166666D01*
X95757200Y-92166666D02*
X95709580Y-92214285D01*
X95709580Y-92214285D02*
X95614342Y-92261904D01*
X95614342Y-92261904D02*
X95423866Y-92309523D01*
X95423866Y-92309523D02*
X95185771Y-92309523D01*
X95185771Y-92309523D02*
X94995295Y-92261904D01*
X94995295Y-92261904D02*
X94900057Y-92214285D01*
X94900057Y-92214285D02*
X94852438Y-92166666D01*
X94852438Y-92166666D02*
X94804819Y-92071428D01*
X95804819Y-90547618D02*
X95138152Y-90547618D01*
X95233390Y-90547618D02*
X95185771Y-90499999D01*
X95185771Y-90499999D02*
X95138152Y-90404761D01*
X95138152Y-90404761D02*
X95138152Y-90261904D01*
X95138152Y-90261904D02*
X95185771Y-90166666D01*
X95185771Y-90166666D02*
X95281009Y-90119047D01*
X95281009Y-90119047D02*
X95804819Y-90119047D01*
X95281009Y-90119047D02*
X95185771Y-90071428D01*
X95185771Y-90071428D02*
X95138152Y-89976190D01*
X95138152Y-89976190D02*
X95138152Y-89833333D01*
X95138152Y-89833333D02*
X95185771Y-89738094D01*
X95185771Y-89738094D02*
X95281009Y-89690475D01*
X95281009Y-89690475D02*
X95804819Y-89690475D01*
X95804819Y-89214285D02*
X95138152Y-89214285D01*
X95233390Y-89214285D02*
X95185771Y-89166666D01*
X95185771Y-89166666D02*
X95138152Y-89071428D01*
X95138152Y-89071428D02*
X95138152Y-88928571D01*
X95138152Y-88928571D02*
X95185771Y-88833333D01*
X95185771Y-88833333D02*
X95281009Y-88785714D01*
X95281009Y-88785714D02*
X95804819Y-88785714D01*
X95281009Y-88785714D02*
X95185771Y-88738095D01*
X95185771Y-88738095D02*
X95138152Y-88642857D01*
X95138152Y-88642857D02*
X95138152Y-88500000D01*
X95138152Y-88500000D02*
X95185771Y-88404761D01*
X95185771Y-88404761D02*
X95281009Y-88357142D01*
X95281009Y-88357142D02*
X95804819Y-88357142D01*
X101500000Y-52000000D02*
X95913580Y-52000000D01*
X95913580Y-131000000D02*
X101500000Y-131000000D01*
X96500000Y-52000000D02*
X96500000Y-131000000D01*
X96500000Y-52000000D02*
X97086421Y-53126504D01*
X96500000Y-52000000D02*
X95913579Y-53126504D01*
X96500000Y-131000000D02*
X95913579Y-129873496D01*
X96500000Y-131000000D02*
X97086421Y-129873496D01*
X211238096Y-115804819D02*
X211857143Y-115804819D01*
X211857143Y-115804819D02*
X211523810Y-116185771D01*
X211523810Y-116185771D02*
X211666667Y-116185771D01*
X211666667Y-116185771D02*
X211761905Y-116233390D01*
X211761905Y-116233390D02*
X211809524Y-116281009D01*
X211809524Y-116281009D02*
X211857143Y-116376247D01*
X211857143Y-116376247D02*
X211857143Y-116614342D01*
X211857143Y-116614342D02*
X211809524Y-116709580D01*
X211809524Y-116709580D02*
X211761905Y-116757200D01*
X211761905Y-116757200D02*
X211666667Y-116804819D01*
X211666667Y-116804819D02*
X211380953Y-116804819D01*
X211380953Y-116804819D02*
X211285715Y-116757200D01*
X211285715Y-116757200D02*
X211238096Y-116709580D01*
X212333334Y-116757200D02*
X212333334Y-116804819D01*
X212333334Y-116804819D02*
X212285715Y-116900057D01*
X212285715Y-116900057D02*
X212238096Y-116947676D01*
X212952381Y-115804819D02*
X213047619Y-115804819D01*
X213047619Y-115804819D02*
X213142857Y-115852438D01*
X213142857Y-115852438D02*
X213190476Y-115900057D01*
X213190476Y-115900057D02*
X213238095Y-115995295D01*
X213238095Y-115995295D02*
X213285714Y-116185771D01*
X213285714Y-116185771D02*
X213285714Y-116423866D01*
X213285714Y-116423866D02*
X213238095Y-116614342D01*
X213238095Y-116614342D02*
X213190476Y-116709580D01*
X213190476Y-116709580D02*
X213142857Y-116757200D01*
X213142857Y-116757200D02*
X213047619Y-116804819D01*
X213047619Y-116804819D02*
X212952381Y-116804819D01*
X212952381Y-116804819D02*
X212857143Y-116757200D01*
X212857143Y-116757200D02*
X212809524Y-116709580D01*
X212809524Y-116709580D02*
X212761905Y-116614342D01*
X212761905Y-116614342D02*
X212714286Y-116423866D01*
X212714286Y-116423866D02*
X212714286Y-116185771D01*
X212714286Y-116185771D02*
X212761905Y-115995295D01*
X212761905Y-115995295D02*
X212809524Y-115900057D01*
X212809524Y-115900057D02*
X212857143Y-115852438D01*
X212857143Y-115852438D02*
X212952381Y-115804819D01*
X214476191Y-116804819D02*
X214476191Y-116138152D01*
X214476191Y-116233390D02*
X214523810Y-116185771D01*
X214523810Y-116185771D02*
X214619048Y-116138152D01*
X214619048Y-116138152D02*
X214761905Y-116138152D01*
X214761905Y-116138152D02*
X214857143Y-116185771D01*
X214857143Y-116185771D02*
X214904762Y-116281009D01*
X214904762Y-116281009D02*
X214904762Y-116804819D01*
X214904762Y-116281009D02*
X214952381Y-116185771D01*
X214952381Y-116185771D02*
X215047619Y-116138152D01*
X215047619Y-116138152D02*
X215190476Y-116138152D01*
X215190476Y-116138152D02*
X215285715Y-116185771D01*
X215285715Y-116185771D02*
X215333334Y-116281009D01*
X215333334Y-116281009D02*
X215333334Y-116804819D01*
X215809524Y-116804819D02*
X215809524Y-116138152D01*
X215809524Y-116233390D02*
X215857143Y-116185771D01*
X215857143Y-116185771D02*
X215952381Y-116138152D01*
X215952381Y-116138152D02*
X216095238Y-116138152D01*
X216095238Y-116138152D02*
X216190476Y-116185771D01*
X216190476Y-116185771D02*
X216238095Y-116281009D01*
X216238095Y-116281009D02*
X216238095Y-116804819D01*
X216238095Y-116281009D02*
X216285714Y-116185771D01*
X216285714Y-116185771D02*
X216380952Y-116138152D01*
X216380952Y-116138152D02*
X216523809Y-116138152D01*
X216523809Y-116138152D02*
X216619048Y-116185771D01*
X216619048Y-116185771D02*
X216666667Y-116281009D01*
X216666667Y-116281009D02*
X216666667Y-116804819D01*
X212500000Y-110500000D02*
X212500000Y-118086420D01*
X215500000Y-118086420D02*
X215500000Y-107500000D01*
X212500000Y-117500000D02*
X215500000Y-117500000D01*
X212500000Y-117500000D02*
X213626504Y-116913579D01*
X212500000Y-117500000D02*
X213626504Y-118086421D01*
X215500000Y-117500000D02*
X214373496Y-118086421D01*
X215500000Y-117500000D02*
X214373496Y-116913579D01*
X158309524Y-141000057D02*
X158357143Y-140952438D01*
X158357143Y-140952438D02*
X158452381Y-140904819D01*
X158452381Y-140904819D02*
X158690476Y-140904819D01*
X158690476Y-140904819D02*
X158785714Y-140952438D01*
X158785714Y-140952438D02*
X158833333Y-141000057D01*
X158833333Y-141000057D02*
X158880952Y-141095295D01*
X158880952Y-141095295D02*
X158880952Y-141190533D01*
X158880952Y-141190533D02*
X158833333Y-141333390D01*
X158833333Y-141333390D02*
X158261905Y-141904819D01*
X158261905Y-141904819D02*
X158880952Y-141904819D01*
X159261905Y-141000057D02*
X159309524Y-140952438D01*
X159309524Y-140952438D02*
X159404762Y-140904819D01*
X159404762Y-140904819D02*
X159642857Y-140904819D01*
X159642857Y-140904819D02*
X159738095Y-140952438D01*
X159738095Y-140952438D02*
X159785714Y-141000057D01*
X159785714Y-141000057D02*
X159833333Y-141095295D01*
X159833333Y-141095295D02*
X159833333Y-141190533D01*
X159833333Y-141190533D02*
X159785714Y-141333390D01*
X159785714Y-141333390D02*
X159214286Y-141904819D01*
X159214286Y-141904819D02*
X159833333Y-141904819D01*
X160309524Y-141857200D02*
X160309524Y-141904819D01*
X160309524Y-141904819D02*
X160261905Y-142000057D01*
X160261905Y-142000057D02*
X160214286Y-142047676D01*
X160928571Y-140904819D02*
X161023809Y-140904819D01*
X161023809Y-140904819D02*
X161119047Y-140952438D01*
X161119047Y-140952438D02*
X161166666Y-141000057D01*
X161166666Y-141000057D02*
X161214285Y-141095295D01*
X161214285Y-141095295D02*
X161261904Y-141285771D01*
X161261904Y-141285771D02*
X161261904Y-141523866D01*
X161261904Y-141523866D02*
X161214285Y-141714342D01*
X161214285Y-141714342D02*
X161166666Y-141809580D01*
X161166666Y-141809580D02*
X161119047Y-141857200D01*
X161119047Y-141857200D02*
X161023809Y-141904819D01*
X161023809Y-141904819D02*
X160928571Y-141904819D01*
X160928571Y-141904819D02*
X160833333Y-141857200D01*
X160833333Y-141857200D02*
X160785714Y-141809580D01*
X160785714Y-141809580D02*
X160738095Y-141714342D01*
X160738095Y-141714342D02*
X160690476Y-141523866D01*
X160690476Y-141523866D02*
X160690476Y-141285771D01*
X160690476Y-141285771D02*
X160738095Y-141095295D01*
X160738095Y-141095295D02*
X160785714Y-141000057D01*
X160785714Y-141000057D02*
X160833333Y-140952438D01*
X160833333Y-140952438D02*
X160928571Y-140904819D01*
X162452381Y-141904819D02*
X162452381Y-141238152D01*
X162452381Y-141333390D02*
X162500000Y-141285771D01*
X162500000Y-141285771D02*
X162595238Y-141238152D01*
X162595238Y-141238152D02*
X162738095Y-141238152D01*
X162738095Y-141238152D02*
X162833333Y-141285771D01*
X162833333Y-141285771D02*
X162880952Y-141381009D01*
X162880952Y-141381009D02*
X162880952Y-141904819D01*
X162880952Y-141381009D02*
X162928571Y-141285771D01*
X162928571Y-141285771D02*
X163023809Y-141238152D01*
X163023809Y-141238152D02*
X163166666Y-141238152D01*
X163166666Y-141238152D02*
X163261905Y-141285771D01*
X163261905Y-141285771D02*
X163309524Y-141381009D01*
X163309524Y-141381009D02*
X163309524Y-141904819D01*
X163785714Y-141904819D02*
X163785714Y-141238152D01*
X163785714Y-141333390D02*
X163833333Y-141285771D01*
X163833333Y-141285771D02*
X163928571Y-141238152D01*
X163928571Y-141238152D02*
X164071428Y-141238152D01*
X164071428Y-141238152D02*
X164166666Y-141285771D01*
X164166666Y-141285771D02*
X164214285Y-141381009D01*
X164214285Y-141381009D02*
X164214285Y-141904819D01*
X164214285Y-141381009D02*
X164261904Y-141285771D01*
X164261904Y-141285771D02*
X164357142Y-141238152D01*
X164357142Y-141238152D02*
X164499999Y-141238152D01*
X164499999Y-141238152D02*
X164595238Y-141285771D01*
X164595238Y-141285771D02*
X164642857Y-141381009D01*
X164642857Y-141381009D02*
X164642857Y-141904819D01*
X150500000Y-131500000D02*
X150500000Y-143186420D01*
X172500000Y-143186420D02*
X172500000Y-131500000D01*
X150500000Y-142600000D02*
X172500000Y-142600000D01*
X150500000Y-142600000D02*
X151626504Y-142013579D01*
X150500000Y-142600000D02*
X151626504Y-143186421D01*
X172500000Y-142600000D02*
X171373496Y-143186421D01*
X172500000Y-142600000D02*
X171373496Y-142013579D01*
M02*
