%TF.GenerationSoftware,KiCad,Pcbnew,9.0.8-9.0.8~ubuntu24.04.1*%
%TF.CreationDate,2026-05-30T22:55:34+02:00*%
%TF.ProjectId,sch-14_PowerMeter-DIN-ESP8266,7363682d-3134-45f5-906f-7765724d6574,rev?*%
%TF.SameCoordinates,Original*%
%TF.FileFunction,Legend,Top*%
%TF.FilePolarity,Positive*%
%FSLAX46Y46*%
G04 Gerber Fmt 4.6, Leading zero omitted, Abs format (unit mm)*
G04 Created by KiCad (PCBNEW 9.0.8-9.0.8~ubuntu24.04.1) date 2026-05-30 22:55:34*
%MOMM*%
%LPD*%
G01*
G04 APERTURE LIST*
%ADD10C,0.150000*%
%ADD11C,0.120000*%
%ADD12C,0.200000*%
%ADD13C,0.100000*%
%ADD14C,0.000000*%
G04 APERTURE END LIST*
D10*
X102489160Y-62273866D02*
X103098684Y-62273866D01*
X102589160Y-122354819D02*
X102589160Y-121354819D01*
X102589160Y-121354819D02*
X103046303Y-122354819D01*
X103046303Y-122354819D02*
X103046303Y-121354819D01*
X115789160Y-62473866D02*
X116398684Y-62473866D01*
X116093922Y-62854819D02*
X116093922Y-62092914D01*
X116370112Y-122354819D02*
X115989160Y-122354819D01*
X115989160Y-122354819D02*
X115989160Y-121354819D01*
X172069819Y-129125125D02*
X172069819Y-128667982D01*
X173069819Y-128896554D02*
X172069819Y-128896554D01*
X172784104Y-128439411D02*
X172784104Y-128058458D01*
X173069819Y-128515601D02*
X172069819Y-128248934D01*
X172069819Y-128248934D02*
X173069819Y-127982268D01*
X173022200Y-127144173D02*
X173069819Y-127029887D01*
X173069819Y-127029887D02*
X173069819Y-126839411D01*
X173069819Y-126839411D02*
X173022200Y-126763220D01*
X173022200Y-126763220D02*
X172974580Y-126725125D01*
X172974580Y-126725125D02*
X172879342Y-126687030D01*
X172879342Y-126687030D02*
X172784104Y-126687030D01*
X172784104Y-126687030D02*
X172688866Y-126725125D01*
X172688866Y-126725125D02*
X172641247Y-126763220D01*
X172641247Y-126763220D02*
X172593628Y-126839411D01*
X172593628Y-126839411D02*
X172546009Y-126991792D01*
X172546009Y-126991792D02*
X172498390Y-127067982D01*
X172498390Y-127067982D02*
X172450771Y-127106077D01*
X172450771Y-127106077D02*
X172355533Y-127144173D01*
X172355533Y-127144173D02*
X172260295Y-127144173D01*
X172260295Y-127144173D02*
X172165057Y-127106077D01*
X172165057Y-127106077D02*
X172117438Y-127067982D01*
X172117438Y-127067982D02*
X172069819Y-126991792D01*
X172069819Y-126991792D02*
X172069819Y-126801315D01*
X172069819Y-126801315D02*
X172117438Y-126687030D01*
X172974580Y-125887029D02*
X173022200Y-125925125D01*
X173022200Y-125925125D02*
X173069819Y-126039410D01*
X173069819Y-126039410D02*
X173069819Y-126115601D01*
X173069819Y-126115601D02*
X173022200Y-126229887D01*
X173022200Y-126229887D02*
X172926961Y-126306077D01*
X172926961Y-126306077D02*
X172831723Y-126344172D01*
X172831723Y-126344172D02*
X172641247Y-126382268D01*
X172641247Y-126382268D02*
X172498390Y-126382268D01*
X172498390Y-126382268D02*
X172307914Y-126344172D01*
X172307914Y-126344172D02*
X172212676Y-126306077D01*
X172212676Y-126306077D02*
X172117438Y-126229887D01*
X172117438Y-126229887D02*
X172069819Y-126115601D01*
X172069819Y-126115601D02*
X172069819Y-126039410D01*
X172069819Y-126039410D02*
X172117438Y-125925125D01*
X172117438Y-125925125D02*
X172165057Y-125887029D01*
X172069819Y-125658458D02*
X172069819Y-125201315D01*
X173069819Y-125429887D02*
X172069819Y-125429887D01*
X172688866Y-124934648D02*
X172688866Y-124325125D01*
X172069819Y-123791791D02*
X172069819Y-123715601D01*
X172069819Y-123715601D02*
X172117438Y-123639410D01*
X172117438Y-123639410D02*
X172165057Y-123601315D01*
X172165057Y-123601315D02*
X172260295Y-123563220D01*
X172260295Y-123563220D02*
X172450771Y-123525125D01*
X172450771Y-123525125D02*
X172688866Y-123525125D01*
X172688866Y-123525125D02*
X172879342Y-123563220D01*
X172879342Y-123563220D02*
X172974580Y-123601315D01*
X172974580Y-123601315D02*
X173022200Y-123639410D01*
X173022200Y-123639410D02*
X173069819Y-123715601D01*
X173069819Y-123715601D02*
X173069819Y-123791791D01*
X173069819Y-123791791D02*
X173022200Y-123867982D01*
X173022200Y-123867982D02*
X172974580Y-123906077D01*
X172974580Y-123906077D02*
X172879342Y-123944172D01*
X172879342Y-123944172D02*
X172688866Y-123982268D01*
X172688866Y-123982268D02*
X172450771Y-123982268D01*
X172450771Y-123982268D02*
X172260295Y-123944172D01*
X172260295Y-123944172D02*
X172165057Y-123906077D01*
X172165057Y-123906077D02*
X172117438Y-123867982D01*
X172117438Y-123867982D02*
X172069819Y-123791791D01*
X173069819Y-122763220D02*
X173069819Y-123220363D01*
X173069819Y-122991791D02*
X172069819Y-122991791D01*
X172069819Y-122991791D02*
X172212676Y-123067982D01*
X172212676Y-123067982D02*
X172307914Y-123144172D01*
X172307914Y-123144172D02*
X172355533Y-123220363D01*
X172069819Y-122496553D02*
X172069819Y-122001315D01*
X172069819Y-122001315D02*
X172450771Y-122267981D01*
X172450771Y-122267981D02*
X172450771Y-122153696D01*
X172450771Y-122153696D02*
X172498390Y-122077505D01*
X172498390Y-122077505D02*
X172546009Y-122039410D01*
X172546009Y-122039410D02*
X172641247Y-122001315D01*
X172641247Y-122001315D02*
X172879342Y-122001315D01*
X172879342Y-122001315D02*
X172974580Y-122039410D01*
X172974580Y-122039410D02*
X173022200Y-122077505D01*
X173022200Y-122077505D02*
X173069819Y-122153696D01*
X173069819Y-122153696D02*
X173069819Y-122382267D01*
X173069819Y-122382267D02*
X173022200Y-122458458D01*
X173022200Y-122458458D02*
X172974580Y-122496553D01*
X152789160Y-126607242D02*
X152932017Y-126678670D01*
X152932017Y-126678670D02*
X153170112Y-126678670D01*
X153170112Y-126678670D02*
X153265350Y-126607242D01*
X153265350Y-126607242D02*
X153312969Y-126535813D01*
X153312969Y-126535813D02*
X153360588Y-126392956D01*
X153360588Y-126392956D02*
X153360588Y-126250099D01*
X153360588Y-126250099D02*
X153312969Y-126107242D01*
X153312969Y-126107242D02*
X153265350Y-126035813D01*
X153265350Y-126035813D02*
X153170112Y-125964384D01*
X153170112Y-125964384D02*
X152979636Y-125892956D01*
X152979636Y-125892956D02*
X152884398Y-125821527D01*
X152884398Y-125821527D02*
X152836779Y-125750099D01*
X152836779Y-125750099D02*
X152789160Y-125607242D01*
X152789160Y-125607242D02*
X152789160Y-125464384D01*
X152789160Y-125464384D02*
X152836779Y-125321527D01*
X152836779Y-125321527D02*
X152884398Y-125250099D01*
X152884398Y-125250099D02*
X152979636Y-125178670D01*
X152979636Y-125178670D02*
X153217731Y-125178670D01*
X153217731Y-125178670D02*
X153360588Y-125250099D01*
X154217731Y-126607242D02*
X154122493Y-126678670D01*
X154122493Y-126678670D02*
X153932017Y-126678670D01*
X153932017Y-126678670D02*
X153836779Y-126607242D01*
X153836779Y-126607242D02*
X153789160Y-126535813D01*
X153789160Y-126535813D02*
X153741541Y-126392956D01*
X153741541Y-126392956D02*
X153741541Y-125964384D01*
X153741541Y-125964384D02*
X153789160Y-125821527D01*
X153789160Y-125821527D02*
X153836779Y-125750099D01*
X153836779Y-125750099D02*
X153932017Y-125678670D01*
X153932017Y-125678670D02*
X154122493Y-125678670D01*
X154122493Y-125678670D02*
X154217731Y-125750099D01*
X154646303Y-126678670D02*
X154646303Y-125178670D01*
X155074874Y-126678670D02*
X155074874Y-125892956D01*
X155074874Y-125892956D02*
X155027255Y-125750099D01*
X155027255Y-125750099D02*
X154932017Y-125678670D01*
X154932017Y-125678670D02*
X154789160Y-125678670D01*
X154789160Y-125678670D02*
X154693922Y-125750099D01*
X154693922Y-125750099D02*
X154646303Y-125821527D01*
X155551065Y-126535813D02*
X155598684Y-126607242D01*
X155598684Y-126607242D02*
X155551065Y-126678670D01*
X155551065Y-126678670D02*
X155503446Y-126607242D01*
X155503446Y-126607242D02*
X155551065Y-126535813D01*
X155551065Y-126535813D02*
X155551065Y-126678670D01*
X156551064Y-126678670D02*
X155979636Y-126678670D01*
X156265350Y-126678670D02*
X156265350Y-125178670D01*
X156265350Y-125178670D02*
X156170112Y-125392956D01*
X156170112Y-125392956D02*
X156074874Y-125535813D01*
X156074874Y-125535813D02*
X155979636Y-125607242D01*
X157408207Y-125678670D02*
X157408207Y-126678670D01*
X157170112Y-125107242D02*
X156932017Y-126178670D01*
X156932017Y-126178670D02*
X157551064Y-126178670D01*
X159265350Y-126678670D02*
X158932017Y-125964384D01*
X158693922Y-126678670D02*
X158693922Y-125178670D01*
X158693922Y-125178670D02*
X159074874Y-125178670D01*
X159074874Y-125178670D02*
X159170112Y-125250099D01*
X159170112Y-125250099D02*
X159217731Y-125321527D01*
X159217731Y-125321527D02*
X159265350Y-125464384D01*
X159265350Y-125464384D02*
X159265350Y-125678670D01*
X159265350Y-125678670D02*
X159217731Y-125821527D01*
X159217731Y-125821527D02*
X159170112Y-125892956D01*
X159170112Y-125892956D02*
X159074874Y-125964384D01*
X159074874Y-125964384D02*
X158693922Y-125964384D01*
X159693922Y-126535813D02*
X159741541Y-126607242D01*
X159741541Y-126607242D02*
X159693922Y-126678670D01*
X159693922Y-126678670D02*
X159646303Y-126607242D01*
X159646303Y-126607242D02*
X159693922Y-126535813D01*
X159693922Y-126535813D02*
X159693922Y-126678670D01*
X160360588Y-125178670D02*
X160455826Y-125178670D01*
X160455826Y-125178670D02*
X160551064Y-125250099D01*
X160551064Y-125250099D02*
X160598683Y-125321527D01*
X160598683Y-125321527D02*
X160646302Y-125464384D01*
X160646302Y-125464384D02*
X160693921Y-125750099D01*
X160693921Y-125750099D02*
X160693921Y-126107242D01*
X160693921Y-126107242D02*
X160646302Y-126392956D01*
X160646302Y-126392956D02*
X160598683Y-126535813D01*
X160598683Y-126535813D02*
X160551064Y-126607242D01*
X160551064Y-126607242D02*
X160455826Y-126678670D01*
X160455826Y-126678670D02*
X160360588Y-126678670D01*
X160360588Y-126678670D02*
X160265350Y-126607242D01*
X160265350Y-126607242D02*
X160217731Y-126535813D01*
X160217731Y-126535813D02*
X160170112Y-126392956D01*
X160170112Y-126392956D02*
X160122493Y-126107242D01*
X160122493Y-126107242D02*
X160122493Y-125750099D01*
X160122493Y-125750099D02*
X160170112Y-125464384D01*
X160170112Y-125464384D02*
X160217731Y-125321527D01*
X160217731Y-125321527D02*
X160265350Y-125250099D01*
X160265350Y-125250099D02*
X160360588Y-125178670D01*
X161312969Y-125178670D02*
X161408207Y-125178670D01*
X161408207Y-125178670D02*
X161503445Y-125250099D01*
X161503445Y-125250099D02*
X161551064Y-125321527D01*
X161551064Y-125321527D02*
X161598683Y-125464384D01*
X161598683Y-125464384D02*
X161646302Y-125750099D01*
X161646302Y-125750099D02*
X161646302Y-126107242D01*
X161646302Y-126107242D02*
X161598683Y-126392956D01*
X161598683Y-126392956D02*
X161551064Y-126535813D01*
X161551064Y-126535813D02*
X161503445Y-126607242D01*
X161503445Y-126607242D02*
X161408207Y-126678670D01*
X161408207Y-126678670D02*
X161312969Y-126678670D01*
X161312969Y-126678670D02*
X161217731Y-126607242D01*
X161217731Y-126607242D02*
X161170112Y-126535813D01*
X161170112Y-126535813D02*
X161122493Y-126392956D01*
X161122493Y-126392956D02*
X161074874Y-126107242D01*
X161074874Y-126107242D02*
X161074874Y-125750099D01*
X161074874Y-125750099D02*
X161122493Y-125464384D01*
X161122493Y-125464384D02*
X161170112Y-125321527D01*
X161170112Y-125321527D02*
X161217731Y-125250099D01*
X161217731Y-125250099D02*
X161312969Y-125178670D01*
X153027255Y-127593586D02*
X153122493Y-127593586D01*
X153122493Y-127593586D02*
X153217731Y-127665015D01*
X153217731Y-127665015D02*
X153265350Y-127736443D01*
X153265350Y-127736443D02*
X153312969Y-127879300D01*
X153312969Y-127879300D02*
X153360588Y-128165015D01*
X153360588Y-128165015D02*
X153360588Y-128522158D01*
X153360588Y-128522158D02*
X153312969Y-128807872D01*
X153312969Y-128807872D02*
X153265350Y-128950729D01*
X153265350Y-128950729D02*
X153217731Y-129022158D01*
X153217731Y-129022158D02*
X153122493Y-129093586D01*
X153122493Y-129093586D02*
X153027255Y-129093586D01*
X153027255Y-129093586D02*
X152932017Y-129022158D01*
X152932017Y-129022158D02*
X152884398Y-128950729D01*
X152884398Y-128950729D02*
X152836779Y-128807872D01*
X152836779Y-128807872D02*
X152789160Y-128522158D01*
X152789160Y-128522158D02*
X152789160Y-128165015D01*
X152789160Y-128165015D02*
X152836779Y-127879300D01*
X152836779Y-127879300D02*
X152884398Y-127736443D01*
X152884398Y-127736443D02*
X152932017Y-127665015D01*
X152932017Y-127665015D02*
X153027255Y-127593586D01*
X154217731Y-128093586D02*
X154217731Y-129093586D01*
X153979636Y-127522158D02*
X153741541Y-128593586D01*
X153741541Y-128593586D02*
X154360588Y-128593586D01*
X155455826Y-127522158D02*
X154598684Y-129450729D01*
X155741541Y-127736443D02*
X155789160Y-127665015D01*
X155789160Y-127665015D02*
X155884398Y-127593586D01*
X155884398Y-127593586D02*
X156122493Y-127593586D01*
X156122493Y-127593586D02*
X156217731Y-127665015D01*
X156217731Y-127665015D02*
X156265350Y-127736443D01*
X156265350Y-127736443D02*
X156312969Y-127879300D01*
X156312969Y-127879300D02*
X156312969Y-128022158D01*
X156312969Y-128022158D02*
X156265350Y-128236443D01*
X156265350Y-128236443D02*
X155693922Y-129093586D01*
X155693922Y-129093586D02*
X156312969Y-129093586D01*
X156932017Y-127593586D02*
X157027255Y-127593586D01*
X157027255Y-127593586D02*
X157122493Y-127665015D01*
X157122493Y-127665015D02*
X157170112Y-127736443D01*
X157170112Y-127736443D02*
X157217731Y-127879300D01*
X157217731Y-127879300D02*
X157265350Y-128165015D01*
X157265350Y-128165015D02*
X157265350Y-128522158D01*
X157265350Y-128522158D02*
X157217731Y-128807872D01*
X157217731Y-128807872D02*
X157170112Y-128950729D01*
X157170112Y-128950729D02*
X157122493Y-129022158D01*
X157122493Y-129022158D02*
X157027255Y-129093586D01*
X157027255Y-129093586D02*
X156932017Y-129093586D01*
X156932017Y-129093586D02*
X156836779Y-129022158D01*
X156836779Y-129022158D02*
X156789160Y-128950729D01*
X156789160Y-128950729D02*
X156741541Y-128807872D01*
X156741541Y-128807872D02*
X156693922Y-128522158D01*
X156693922Y-128522158D02*
X156693922Y-128165015D01*
X156693922Y-128165015D02*
X156741541Y-127879300D01*
X156741541Y-127879300D02*
X156789160Y-127736443D01*
X156789160Y-127736443D02*
X156836779Y-127665015D01*
X156836779Y-127665015D02*
X156932017Y-127593586D01*
X157646303Y-127736443D02*
X157693922Y-127665015D01*
X157693922Y-127665015D02*
X157789160Y-127593586D01*
X157789160Y-127593586D02*
X158027255Y-127593586D01*
X158027255Y-127593586D02*
X158122493Y-127665015D01*
X158122493Y-127665015D02*
X158170112Y-127736443D01*
X158170112Y-127736443D02*
X158217731Y-127879300D01*
X158217731Y-127879300D02*
X158217731Y-128022158D01*
X158217731Y-128022158D02*
X158170112Y-128236443D01*
X158170112Y-128236443D02*
X157598684Y-129093586D01*
X157598684Y-129093586D02*
X158217731Y-129093586D01*
X159074874Y-127593586D02*
X158884398Y-127593586D01*
X158884398Y-127593586D02*
X158789160Y-127665015D01*
X158789160Y-127665015D02*
X158741541Y-127736443D01*
X158741541Y-127736443D02*
X158646303Y-127950729D01*
X158646303Y-127950729D02*
X158598684Y-128236443D01*
X158598684Y-128236443D02*
X158598684Y-128807872D01*
X158598684Y-128807872D02*
X158646303Y-128950729D01*
X158646303Y-128950729D02*
X158693922Y-129022158D01*
X158693922Y-129022158D02*
X158789160Y-129093586D01*
X158789160Y-129093586D02*
X158979636Y-129093586D01*
X158979636Y-129093586D02*
X159074874Y-129022158D01*
X159074874Y-129022158D02*
X159122493Y-128950729D01*
X159122493Y-128950729D02*
X159170112Y-128807872D01*
X159170112Y-128807872D02*
X159170112Y-128450729D01*
X159170112Y-128450729D02*
X159122493Y-128307872D01*
X159122493Y-128307872D02*
X159074874Y-128236443D01*
X159074874Y-128236443D02*
X158979636Y-128165015D01*
X158979636Y-128165015D02*
X158789160Y-128165015D01*
X158789160Y-128165015D02*
X158693922Y-128236443D01*
X158693922Y-128236443D02*
X158646303Y-128307872D01*
X158646303Y-128307872D02*
X158598684Y-128450729D01*
X213827255Y-83886128D02*
X213922493Y-83886128D01*
X213922493Y-83886128D02*
X214017731Y-83957557D01*
X214017731Y-83957557D02*
X214065350Y-84028985D01*
X214065350Y-84028985D02*
X214112969Y-84171842D01*
X214112969Y-84171842D02*
X214160588Y-84457557D01*
X214160588Y-84457557D02*
X214160588Y-84814700D01*
X214160588Y-84814700D02*
X214112969Y-85100414D01*
X214112969Y-85100414D02*
X214065350Y-85243271D01*
X214065350Y-85243271D02*
X214017731Y-85314700D01*
X214017731Y-85314700D02*
X213922493Y-85386128D01*
X213922493Y-85386128D02*
X213827255Y-85386128D01*
X213827255Y-85386128D02*
X213732017Y-85314700D01*
X213732017Y-85314700D02*
X213684398Y-85243271D01*
X213684398Y-85243271D02*
X213636779Y-85100414D01*
X213636779Y-85100414D02*
X213589160Y-84814700D01*
X213589160Y-84814700D02*
X213589160Y-84457557D01*
X213589160Y-84457557D02*
X213636779Y-84171842D01*
X213636779Y-84171842D02*
X213684398Y-84028985D01*
X213684398Y-84028985D02*
X213732017Y-83957557D01*
X213732017Y-83957557D02*
X213827255Y-83886128D01*
X215017731Y-84386128D02*
X215017731Y-85386128D01*
X214779636Y-83814700D02*
X214541541Y-84886128D01*
X214541541Y-84886128D02*
X215160588Y-84886128D01*
X216255826Y-83814700D02*
X215398684Y-85743271D01*
X216541541Y-84028985D02*
X216589160Y-83957557D01*
X216589160Y-83957557D02*
X216684398Y-83886128D01*
X216684398Y-83886128D02*
X216922493Y-83886128D01*
X216922493Y-83886128D02*
X217017731Y-83957557D01*
X217017731Y-83957557D02*
X217065350Y-84028985D01*
X217065350Y-84028985D02*
X217112969Y-84171842D01*
X217112969Y-84171842D02*
X217112969Y-84314700D01*
X217112969Y-84314700D02*
X217065350Y-84528985D01*
X217065350Y-84528985D02*
X216493922Y-85386128D01*
X216493922Y-85386128D02*
X217112969Y-85386128D01*
X217732017Y-83886128D02*
X217827255Y-83886128D01*
X217827255Y-83886128D02*
X217922493Y-83957557D01*
X217922493Y-83957557D02*
X217970112Y-84028985D01*
X217970112Y-84028985D02*
X218017731Y-84171842D01*
X218017731Y-84171842D02*
X218065350Y-84457557D01*
X218065350Y-84457557D02*
X218065350Y-84814700D01*
X218065350Y-84814700D02*
X218017731Y-85100414D01*
X218017731Y-85100414D02*
X217970112Y-85243271D01*
X217970112Y-85243271D02*
X217922493Y-85314700D01*
X217922493Y-85314700D02*
X217827255Y-85386128D01*
X217827255Y-85386128D02*
X217732017Y-85386128D01*
X217732017Y-85386128D02*
X217636779Y-85314700D01*
X217636779Y-85314700D02*
X217589160Y-85243271D01*
X217589160Y-85243271D02*
X217541541Y-85100414D01*
X217541541Y-85100414D02*
X217493922Y-84814700D01*
X217493922Y-84814700D02*
X217493922Y-84457557D01*
X217493922Y-84457557D02*
X217541541Y-84171842D01*
X217541541Y-84171842D02*
X217589160Y-84028985D01*
X217589160Y-84028985D02*
X217636779Y-83957557D01*
X217636779Y-83957557D02*
X217732017Y-83886128D01*
X218446303Y-84028985D02*
X218493922Y-83957557D01*
X218493922Y-83957557D02*
X218589160Y-83886128D01*
X218589160Y-83886128D02*
X218827255Y-83886128D01*
X218827255Y-83886128D02*
X218922493Y-83957557D01*
X218922493Y-83957557D02*
X218970112Y-84028985D01*
X218970112Y-84028985D02*
X219017731Y-84171842D01*
X219017731Y-84171842D02*
X219017731Y-84314700D01*
X219017731Y-84314700D02*
X218970112Y-84528985D01*
X218970112Y-84528985D02*
X218398684Y-85386128D01*
X218398684Y-85386128D02*
X219017731Y-85386128D01*
X219874874Y-83886128D02*
X219684398Y-83886128D01*
X219684398Y-83886128D02*
X219589160Y-83957557D01*
X219589160Y-83957557D02*
X219541541Y-84028985D01*
X219541541Y-84028985D02*
X219446303Y-84243271D01*
X219446303Y-84243271D02*
X219398684Y-84528985D01*
X219398684Y-84528985D02*
X219398684Y-85100414D01*
X219398684Y-85100414D02*
X219446303Y-85243271D01*
X219446303Y-85243271D02*
X219493922Y-85314700D01*
X219493922Y-85314700D02*
X219589160Y-85386128D01*
X219589160Y-85386128D02*
X219779636Y-85386128D01*
X219779636Y-85386128D02*
X219874874Y-85314700D01*
X219874874Y-85314700D02*
X219922493Y-85243271D01*
X219922493Y-85243271D02*
X219970112Y-85100414D01*
X219970112Y-85100414D02*
X219970112Y-84743271D01*
X219970112Y-84743271D02*
X219922493Y-84600414D01*
X219922493Y-84600414D02*
X219874874Y-84528985D01*
X219874874Y-84528985D02*
X219779636Y-84457557D01*
X219779636Y-84457557D02*
X219589160Y-84457557D01*
X219589160Y-84457557D02*
X219493922Y-84528985D01*
X219493922Y-84528985D02*
X219446303Y-84600414D01*
X219446303Y-84600414D02*
X219398684Y-84743271D01*
X226614700Y-82310839D02*
X226686128Y-82167982D01*
X226686128Y-82167982D02*
X226686128Y-81929887D01*
X226686128Y-81929887D02*
X226614700Y-81834649D01*
X226614700Y-81834649D02*
X226543271Y-81787030D01*
X226543271Y-81787030D02*
X226400414Y-81739411D01*
X226400414Y-81739411D02*
X226257557Y-81739411D01*
X226257557Y-81739411D02*
X226114700Y-81787030D01*
X226114700Y-81787030D02*
X226043271Y-81834649D01*
X226043271Y-81834649D02*
X225971842Y-81929887D01*
X225971842Y-81929887D02*
X225900414Y-82120363D01*
X225900414Y-82120363D02*
X225828985Y-82215601D01*
X225828985Y-82215601D02*
X225757557Y-82263220D01*
X225757557Y-82263220D02*
X225614700Y-82310839D01*
X225614700Y-82310839D02*
X225471842Y-82310839D01*
X225471842Y-82310839D02*
X225328985Y-82263220D01*
X225328985Y-82263220D02*
X225257557Y-82215601D01*
X225257557Y-82215601D02*
X225186128Y-82120363D01*
X225186128Y-82120363D02*
X225186128Y-81882268D01*
X225186128Y-81882268D02*
X225257557Y-81739411D01*
X226614700Y-80882268D02*
X226686128Y-80977506D01*
X226686128Y-80977506D02*
X226686128Y-81167982D01*
X226686128Y-81167982D02*
X226614700Y-81263220D01*
X226614700Y-81263220D02*
X226543271Y-81310839D01*
X226543271Y-81310839D02*
X226400414Y-81358458D01*
X226400414Y-81358458D02*
X225971842Y-81358458D01*
X225971842Y-81358458D02*
X225828985Y-81310839D01*
X225828985Y-81310839D02*
X225757557Y-81263220D01*
X225757557Y-81263220D02*
X225686128Y-81167982D01*
X225686128Y-81167982D02*
X225686128Y-80977506D01*
X225686128Y-80977506D02*
X225757557Y-80882268D01*
X226686128Y-80453696D02*
X225186128Y-80453696D01*
X226686128Y-80025125D02*
X225900414Y-80025125D01*
X225900414Y-80025125D02*
X225757557Y-80072744D01*
X225757557Y-80072744D02*
X225686128Y-80167982D01*
X225686128Y-80167982D02*
X225686128Y-80310839D01*
X225686128Y-80310839D02*
X225757557Y-80406077D01*
X225757557Y-80406077D02*
X225828985Y-80453696D01*
X226543271Y-79548934D02*
X226614700Y-79501315D01*
X226614700Y-79501315D02*
X226686128Y-79548934D01*
X226686128Y-79548934D02*
X226614700Y-79596553D01*
X226614700Y-79596553D02*
X226543271Y-79548934D01*
X226543271Y-79548934D02*
X226686128Y-79548934D01*
X226686128Y-78548935D02*
X226686128Y-79120363D01*
X226686128Y-78834649D02*
X225186128Y-78834649D01*
X225186128Y-78834649D02*
X225400414Y-78929887D01*
X225400414Y-78929887D02*
X225543271Y-79025125D01*
X225543271Y-79025125D02*
X225614700Y-79120363D01*
X225686128Y-77691792D02*
X226686128Y-77691792D01*
X225114700Y-77929887D02*
X226186128Y-78167982D01*
X226186128Y-78167982D02*
X226186128Y-77548935D01*
X226686128Y-75834649D02*
X225971842Y-76167982D01*
X226686128Y-76406077D02*
X225186128Y-76406077D01*
X225186128Y-76406077D02*
X225186128Y-76025125D01*
X225186128Y-76025125D02*
X225257557Y-75929887D01*
X225257557Y-75929887D02*
X225328985Y-75882268D01*
X225328985Y-75882268D02*
X225471842Y-75834649D01*
X225471842Y-75834649D02*
X225686128Y-75834649D01*
X225686128Y-75834649D02*
X225828985Y-75882268D01*
X225828985Y-75882268D02*
X225900414Y-75929887D01*
X225900414Y-75929887D02*
X225971842Y-76025125D01*
X225971842Y-76025125D02*
X225971842Y-76406077D01*
X226543271Y-75406077D02*
X226614700Y-75358458D01*
X226614700Y-75358458D02*
X226686128Y-75406077D01*
X226686128Y-75406077D02*
X226614700Y-75453696D01*
X226614700Y-75453696D02*
X226543271Y-75406077D01*
X226543271Y-75406077D02*
X226686128Y-75406077D01*
X225186128Y-74739411D02*
X225186128Y-74644173D01*
X225186128Y-74644173D02*
X225257557Y-74548935D01*
X225257557Y-74548935D02*
X225328985Y-74501316D01*
X225328985Y-74501316D02*
X225471842Y-74453697D01*
X225471842Y-74453697D02*
X225757557Y-74406078D01*
X225757557Y-74406078D02*
X226114700Y-74406078D01*
X226114700Y-74406078D02*
X226400414Y-74453697D01*
X226400414Y-74453697D02*
X226543271Y-74501316D01*
X226543271Y-74501316D02*
X226614700Y-74548935D01*
X226614700Y-74548935D02*
X226686128Y-74644173D01*
X226686128Y-74644173D02*
X226686128Y-74739411D01*
X226686128Y-74739411D02*
X226614700Y-74834649D01*
X226614700Y-74834649D02*
X226543271Y-74882268D01*
X226543271Y-74882268D02*
X226400414Y-74929887D01*
X226400414Y-74929887D02*
X226114700Y-74977506D01*
X226114700Y-74977506D02*
X225757557Y-74977506D01*
X225757557Y-74977506D02*
X225471842Y-74929887D01*
X225471842Y-74929887D02*
X225328985Y-74882268D01*
X225328985Y-74882268D02*
X225257557Y-74834649D01*
X225257557Y-74834649D02*
X225186128Y-74739411D01*
X225186128Y-73787030D02*
X225186128Y-73691792D01*
X225186128Y-73691792D02*
X225257557Y-73596554D01*
X225257557Y-73596554D02*
X225328985Y-73548935D01*
X225328985Y-73548935D02*
X225471842Y-73501316D01*
X225471842Y-73501316D02*
X225757557Y-73453697D01*
X225757557Y-73453697D02*
X226114700Y-73453697D01*
X226114700Y-73453697D02*
X226400414Y-73501316D01*
X226400414Y-73501316D02*
X226543271Y-73548935D01*
X226543271Y-73548935D02*
X226614700Y-73596554D01*
X226614700Y-73596554D02*
X226686128Y-73691792D01*
X226686128Y-73691792D02*
X226686128Y-73787030D01*
X226686128Y-73787030D02*
X226614700Y-73882268D01*
X226614700Y-73882268D02*
X226543271Y-73929887D01*
X226543271Y-73929887D02*
X226400414Y-73977506D01*
X226400414Y-73977506D02*
X226114700Y-74025125D01*
X226114700Y-74025125D02*
X225757557Y-74025125D01*
X225757557Y-74025125D02*
X225471842Y-73977506D01*
X225471842Y-73977506D02*
X225328985Y-73929887D01*
X225328985Y-73929887D02*
X225257557Y-73882268D01*
X225257557Y-73882268D02*
X225186128Y-73787030D01*
X148324819Y-75553332D02*
X147848628Y-75819999D01*
X148324819Y-76010475D02*
X147324819Y-76010475D01*
X147324819Y-76010475D02*
X147324819Y-75705713D01*
X147324819Y-75705713D02*
X147372438Y-75629523D01*
X147372438Y-75629523D02*
X147420057Y-75591428D01*
X147420057Y-75591428D02*
X147515295Y-75553332D01*
X147515295Y-75553332D02*
X147658152Y-75553332D01*
X147658152Y-75553332D02*
X147753390Y-75591428D01*
X147753390Y-75591428D02*
X147801009Y-75629523D01*
X147801009Y-75629523D02*
X147848628Y-75705713D01*
X147848628Y-75705713D02*
X147848628Y-76010475D01*
X147324819Y-75286666D02*
X147324819Y-74753332D01*
X147324819Y-74753332D02*
X148324819Y-75096190D01*
X165699580Y-92553332D02*
X165747200Y-92591428D01*
X165747200Y-92591428D02*
X165794819Y-92705713D01*
X165794819Y-92705713D02*
X165794819Y-92781904D01*
X165794819Y-92781904D02*
X165747200Y-92896190D01*
X165747200Y-92896190D02*
X165651961Y-92972380D01*
X165651961Y-92972380D02*
X165556723Y-93010475D01*
X165556723Y-93010475D02*
X165366247Y-93048571D01*
X165366247Y-93048571D02*
X165223390Y-93048571D01*
X165223390Y-93048571D02*
X165032914Y-93010475D01*
X165032914Y-93010475D02*
X164937676Y-92972380D01*
X164937676Y-92972380D02*
X164842438Y-92896190D01*
X164842438Y-92896190D02*
X164794819Y-92781904D01*
X164794819Y-92781904D02*
X164794819Y-92705713D01*
X164794819Y-92705713D02*
X164842438Y-92591428D01*
X164842438Y-92591428D02*
X164890057Y-92553332D01*
X164794819Y-91829523D02*
X164794819Y-92210475D01*
X164794819Y-92210475D02*
X165271009Y-92248571D01*
X165271009Y-92248571D02*
X165223390Y-92210475D01*
X165223390Y-92210475D02*
X165175771Y-92134285D01*
X165175771Y-92134285D02*
X165175771Y-91943809D01*
X165175771Y-91943809D02*
X165223390Y-91867618D01*
X165223390Y-91867618D02*
X165271009Y-91829523D01*
X165271009Y-91829523D02*
X165366247Y-91791428D01*
X165366247Y-91791428D02*
X165604342Y-91791428D01*
X165604342Y-91791428D02*
X165699580Y-91829523D01*
X165699580Y-91829523D02*
X165747200Y-91867618D01*
X165747200Y-91867618D02*
X165794819Y-91943809D01*
X165794819Y-91943809D02*
X165794819Y-92134285D01*
X165794819Y-92134285D02*
X165747200Y-92210475D01*
X165747200Y-92210475D02*
X165699580Y-92248571D01*
X151814819Y-83934285D02*
X151338628Y-84200952D01*
X151814819Y-84391428D02*
X150814819Y-84391428D01*
X150814819Y-84391428D02*
X150814819Y-84086666D01*
X150814819Y-84086666D02*
X150862438Y-84010476D01*
X150862438Y-84010476D02*
X150910057Y-83972381D01*
X150910057Y-83972381D02*
X151005295Y-83934285D01*
X151005295Y-83934285D02*
X151148152Y-83934285D01*
X151148152Y-83934285D02*
X151243390Y-83972381D01*
X151243390Y-83972381D02*
X151291009Y-84010476D01*
X151291009Y-84010476D02*
X151338628Y-84086666D01*
X151338628Y-84086666D02*
X151338628Y-84391428D01*
X150910057Y-83629524D02*
X150862438Y-83591428D01*
X150862438Y-83591428D02*
X150814819Y-83515238D01*
X150814819Y-83515238D02*
X150814819Y-83324762D01*
X150814819Y-83324762D02*
X150862438Y-83248571D01*
X150862438Y-83248571D02*
X150910057Y-83210476D01*
X150910057Y-83210476D02*
X151005295Y-83172381D01*
X151005295Y-83172381D02*
X151100533Y-83172381D01*
X151100533Y-83172381D02*
X151243390Y-83210476D01*
X151243390Y-83210476D02*
X151814819Y-83667619D01*
X151814819Y-83667619D02*
X151814819Y-83172381D01*
X150910057Y-82867619D02*
X150862438Y-82829523D01*
X150862438Y-82829523D02*
X150814819Y-82753333D01*
X150814819Y-82753333D02*
X150814819Y-82562857D01*
X150814819Y-82562857D02*
X150862438Y-82486666D01*
X150862438Y-82486666D02*
X150910057Y-82448571D01*
X150910057Y-82448571D02*
X151005295Y-82410476D01*
X151005295Y-82410476D02*
X151100533Y-82410476D01*
X151100533Y-82410476D02*
X151243390Y-82448571D01*
X151243390Y-82448571D02*
X151814819Y-82905714D01*
X151814819Y-82905714D02*
X151814819Y-82410476D01*
X153282524Y-57049819D02*
X153282524Y-56049819D01*
X153282524Y-56049819D02*
X153473000Y-56049819D01*
X153473000Y-56049819D02*
X153587286Y-56097438D01*
X153587286Y-56097438D02*
X153663476Y-56192676D01*
X153663476Y-56192676D02*
X153701571Y-56287914D01*
X153701571Y-56287914D02*
X153739667Y-56478390D01*
X153739667Y-56478390D02*
X153739667Y-56621247D01*
X153739667Y-56621247D02*
X153701571Y-56811723D01*
X153701571Y-56811723D02*
X153663476Y-56906961D01*
X153663476Y-56906961D02*
X153587286Y-57002200D01*
X153587286Y-57002200D02*
X153473000Y-57049819D01*
X153473000Y-57049819D02*
X153282524Y-57049819D01*
X154501571Y-57049819D02*
X154044428Y-57049819D01*
X154273000Y-57049819D02*
X154273000Y-56049819D01*
X154273000Y-56049819D02*
X154196809Y-56192676D01*
X154196809Y-56192676D02*
X154120619Y-56287914D01*
X154120619Y-56287914D02*
X154044428Y-56335533D01*
X165774819Y-74500396D02*
X165298628Y-74767063D01*
X165774819Y-74957539D02*
X164774819Y-74957539D01*
X164774819Y-74957539D02*
X164774819Y-74652777D01*
X164774819Y-74652777D02*
X164822438Y-74576587D01*
X164822438Y-74576587D02*
X164870057Y-74538492D01*
X164870057Y-74538492D02*
X164965295Y-74500396D01*
X164965295Y-74500396D02*
X165108152Y-74500396D01*
X165108152Y-74500396D02*
X165203390Y-74538492D01*
X165203390Y-74538492D02*
X165251009Y-74576587D01*
X165251009Y-74576587D02*
X165298628Y-74652777D01*
X165298628Y-74652777D02*
X165298628Y-74957539D01*
X164870057Y-74195635D02*
X164822438Y-74157539D01*
X164822438Y-74157539D02*
X164774819Y-74081349D01*
X164774819Y-74081349D02*
X164774819Y-73890873D01*
X164774819Y-73890873D02*
X164822438Y-73814682D01*
X164822438Y-73814682D02*
X164870057Y-73776587D01*
X164870057Y-73776587D02*
X164965295Y-73738492D01*
X164965295Y-73738492D02*
X165060533Y-73738492D01*
X165060533Y-73738492D02*
X165203390Y-73776587D01*
X165203390Y-73776587D02*
X165774819Y-74233730D01*
X165774819Y-74233730D02*
X165774819Y-73738492D01*
X112754819Y-112059523D02*
X112754819Y-111602380D01*
X113754819Y-111830952D02*
X112754819Y-111830952D01*
X113754819Y-110878570D02*
X113278628Y-111145237D01*
X113754819Y-111335713D02*
X112754819Y-111335713D01*
X112754819Y-111335713D02*
X112754819Y-111030951D01*
X112754819Y-111030951D02*
X112802438Y-110954761D01*
X112802438Y-110954761D02*
X112850057Y-110916666D01*
X112850057Y-110916666D02*
X112945295Y-110878570D01*
X112945295Y-110878570D02*
X113088152Y-110878570D01*
X113088152Y-110878570D02*
X113183390Y-110916666D01*
X113183390Y-110916666D02*
X113231009Y-110954761D01*
X113231009Y-110954761D02*
X113278628Y-111030951D01*
X113278628Y-111030951D02*
X113278628Y-111335713D01*
X113754819Y-110116666D02*
X113754819Y-110573809D01*
X113754819Y-110345237D02*
X112754819Y-110345237D01*
X112754819Y-110345237D02*
X112897676Y-110421428D01*
X112897676Y-110421428D02*
X112992914Y-110497618D01*
X112992914Y-110497618D02*
X113040533Y-110573809D01*
X182730476Y-94734819D02*
X182730476Y-95544342D01*
X182730476Y-95544342D02*
X182768571Y-95639580D01*
X182768571Y-95639580D02*
X182806666Y-95687200D01*
X182806666Y-95687200D02*
X182882857Y-95734819D01*
X182882857Y-95734819D02*
X183035238Y-95734819D01*
X183035238Y-95734819D02*
X183111428Y-95687200D01*
X183111428Y-95687200D02*
X183149523Y-95639580D01*
X183149523Y-95639580D02*
X183187619Y-95544342D01*
X183187619Y-95544342D02*
X183187619Y-94734819D01*
X183530475Y-94830057D02*
X183568571Y-94782438D01*
X183568571Y-94782438D02*
X183644761Y-94734819D01*
X183644761Y-94734819D02*
X183835237Y-94734819D01*
X183835237Y-94734819D02*
X183911428Y-94782438D01*
X183911428Y-94782438D02*
X183949523Y-94830057D01*
X183949523Y-94830057D02*
X183987618Y-94925295D01*
X183987618Y-94925295D02*
X183987618Y-95020533D01*
X183987618Y-95020533D02*
X183949523Y-95163390D01*
X183949523Y-95163390D02*
X183492380Y-95734819D01*
X183492380Y-95734819D02*
X183987618Y-95734819D01*
X153195476Y-71074819D02*
X153195476Y-71884342D01*
X153195476Y-71884342D02*
X153233571Y-71979580D01*
X153233571Y-71979580D02*
X153271666Y-72027200D01*
X153271666Y-72027200D02*
X153347857Y-72074819D01*
X153347857Y-72074819D02*
X153500238Y-72074819D01*
X153500238Y-72074819D02*
X153576428Y-72027200D01*
X153576428Y-72027200D02*
X153614523Y-71979580D01*
X153614523Y-71979580D02*
X153652619Y-71884342D01*
X153652619Y-71884342D02*
X153652619Y-71074819D01*
X153957380Y-71074819D02*
X154452618Y-71074819D01*
X154452618Y-71074819D02*
X154185952Y-71455771D01*
X154185952Y-71455771D02*
X154300237Y-71455771D01*
X154300237Y-71455771D02*
X154376428Y-71503390D01*
X154376428Y-71503390D02*
X154414523Y-71551009D01*
X154414523Y-71551009D02*
X154452618Y-71646247D01*
X154452618Y-71646247D02*
X154452618Y-71884342D01*
X154452618Y-71884342D02*
X154414523Y-71979580D01*
X154414523Y-71979580D02*
X154376428Y-72027200D01*
X154376428Y-72027200D02*
X154300237Y-72074819D01*
X154300237Y-72074819D02*
X154071666Y-72074819D01*
X154071666Y-72074819D02*
X153995475Y-72027200D01*
X153995475Y-72027200D02*
X153957380Y-71979580D01*
X214833333Y-91354819D02*
X214833333Y-92069104D01*
X214833333Y-92069104D02*
X214795238Y-92211961D01*
X214795238Y-92211961D02*
X214719047Y-92307200D01*
X214719047Y-92307200D02*
X214604762Y-92354819D01*
X214604762Y-92354819D02*
X214528571Y-92354819D01*
X215557143Y-91688152D02*
X215557143Y-92354819D01*
X215366667Y-91307200D02*
X215176190Y-92021485D01*
X215176190Y-92021485D02*
X215671429Y-92021485D01*
X140744819Y-109867619D02*
X141459104Y-109867619D01*
X141459104Y-109867619D02*
X141601961Y-109905714D01*
X141601961Y-109905714D02*
X141697200Y-109981905D01*
X141697200Y-109981905D02*
X141744819Y-110096190D01*
X141744819Y-110096190D02*
X141744819Y-110172381D01*
X141744819Y-109067619D02*
X141744819Y-109524762D01*
X141744819Y-109296190D02*
X140744819Y-109296190D01*
X140744819Y-109296190D02*
X140887676Y-109372381D01*
X140887676Y-109372381D02*
X140982914Y-109448571D01*
X140982914Y-109448571D02*
X141030533Y-109524762D01*
X140744819Y-108343809D02*
X140744819Y-108724761D01*
X140744819Y-108724761D02*
X141221009Y-108762857D01*
X141221009Y-108762857D02*
X141173390Y-108724761D01*
X141173390Y-108724761D02*
X141125771Y-108648571D01*
X141125771Y-108648571D02*
X141125771Y-108458095D01*
X141125771Y-108458095D02*
X141173390Y-108381904D01*
X141173390Y-108381904D02*
X141221009Y-108343809D01*
X141221009Y-108343809D02*
X141316247Y-108305714D01*
X141316247Y-108305714D02*
X141554342Y-108305714D01*
X141554342Y-108305714D02*
X141649580Y-108343809D01*
X141649580Y-108343809D02*
X141697200Y-108381904D01*
X141697200Y-108381904D02*
X141744819Y-108458095D01*
X141744819Y-108458095D02*
X141744819Y-108648571D01*
X141744819Y-108648571D02*
X141697200Y-108724761D01*
X141697200Y-108724761D02*
X141649580Y-108762857D01*
X188207380Y-92364819D02*
X188207380Y-93079104D01*
X188207380Y-93079104D02*
X188169285Y-93221961D01*
X188169285Y-93221961D02*
X188093094Y-93317200D01*
X188093094Y-93317200D02*
X187978809Y-93364819D01*
X187978809Y-93364819D02*
X187902618Y-93364819D01*
X188550237Y-92460057D02*
X188588333Y-92412438D01*
X188588333Y-92412438D02*
X188664523Y-92364819D01*
X188664523Y-92364819D02*
X188854999Y-92364819D01*
X188854999Y-92364819D02*
X188931190Y-92412438D01*
X188931190Y-92412438D02*
X188969285Y-92460057D01*
X188969285Y-92460057D02*
X189007380Y-92555295D01*
X189007380Y-92555295D02*
X189007380Y-92650533D01*
X189007380Y-92650533D02*
X188969285Y-92793390D01*
X188969285Y-92793390D02*
X188512142Y-93364819D01*
X188512142Y-93364819D02*
X189007380Y-93364819D01*
X189312142Y-92460057D02*
X189350238Y-92412438D01*
X189350238Y-92412438D02*
X189426428Y-92364819D01*
X189426428Y-92364819D02*
X189616904Y-92364819D01*
X189616904Y-92364819D02*
X189693095Y-92412438D01*
X189693095Y-92412438D02*
X189731190Y-92460057D01*
X189731190Y-92460057D02*
X189769285Y-92555295D01*
X189769285Y-92555295D02*
X189769285Y-92650533D01*
X189769285Y-92650533D02*
X189731190Y-92793390D01*
X189731190Y-92793390D02*
X189274047Y-93364819D01*
X189274047Y-93364819D02*
X189769285Y-93364819D01*
X106166667Y-86209580D02*
X106128571Y-86257200D01*
X106128571Y-86257200D02*
X106014286Y-86304819D01*
X106014286Y-86304819D02*
X105938095Y-86304819D01*
X105938095Y-86304819D02*
X105823809Y-86257200D01*
X105823809Y-86257200D02*
X105747619Y-86161961D01*
X105747619Y-86161961D02*
X105709524Y-86066723D01*
X105709524Y-86066723D02*
X105671428Y-85876247D01*
X105671428Y-85876247D02*
X105671428Y-85733390D01*
X105671428Y-85733390D02*
X105709524Y-85542914D01*
X105709524Y-85542914D02*
X105747619Y-85447676D01*
X105747619Y-85447676D02*
X105823809Y-85352438D01*
X105823809Y-85352438D02*
X105938095Y-85304819D01*
X105938095Y-85304819D02*
X106014286Y-85304819D01*
X106014286Y-85304819D02*
X106128571Y-85352438D01*
X106128571Y-85352438D02*
X106166667Y-85400057D01*
X106471428Y-85400057D02*
X106509524Y-85352438D01*
X106509524Y-85352438D02*
X106585714Y-85304819D01*
X106585714Y-85304819D02*
X106776190Y-85304819D01*
X106776190Y-85304819D02*
X106852381Y-85352438D01*
X106852381Y-85352438D02*
X106890476Y-85400057D01*
X106890476Y-85400057D02*
X106928571Y-85495295D01*
X106928571Y-85495295D02*
X106928571Y-85590533D01*
X106928571Y-85590533D02*
X106890476Y-85733390D01*
X106890476Y-85733390D02*
X106433333Y-86304819D01*
X106433333Y-86304819D02*
X106928571Y-86304819D01*
X153210476Y-73514819D02*
X153210476Y-74324342D01*
X153210476Y-74324342D02*
X153248571Y-74419580D01*
X153248571Y-74419580D02*
X153286666Y-74467200D01*
X153286666Y-74467200D02*
X153362857Y-74514819D01*
X153362857Y-74514819D02*
X153515238Y-74514819D01*
X153515238Y-74514819D02*
X153591428Y-74467200D01*
X153591428Y-74467200D02*
X153629523Y-74419580D01*
X153629523Y-74419580D02*
X153667619Y-74324342D01*
X153667619Y-74324342D02*
X153667619Y-73514819D01*
X154391428Y-73848152D02*
X154391428Y-74514819D01*
X154200952Y-73467200D02*
X154010475Y-74181485D01*
X154010475Y-74181485D02*
X154505714Y-74181485D01*
X215044819Y-100814285D02*
X214568628Y-101080952D01*
X215044819Y-101271428D02*
X214044819Y-101271428D01*
X214044819Y-101271428D02*
X214044819Y-100966666D01*
X214044819Y-100966666D02*
X214092438Y-100890476D01*
X214092438Y-100890476D02*
X214140057Y-100852381D01*
X214140057Y-100852381D02*
X214235295Y-100814285D01*
X214235295Y-100814285D02*
X214378152Y-100814285D01*
X214378152Y-100814285D02*
X214473390Y-100852381D01*
X214473390Y-100852381D02*
X214521009Y-100890476D01*
X214521009Y-100890476D02*
X214568628Y-100966666D01*
X214568628Y-100966666D02*
X214568628Y-101271428D01*
X214140057Y-100509524D02*
X214092438Y-100471428D01*
X214092438Y-100471428D02*
X214044819Y-100395238D01*
X214044819Y-100395238D02*
X214044819Y-100204762D01*
X214044819Y-100204762D02*
X214092438Y-100128571D01*
X214092438Y-100128571D02*
X214140057Y-100090476D01*
X214140057Y-100090476D02*
X214235295Y-100052381D01*
X214235295Y-100052381D02*
X214330533Y-100052381D01*
X214330533Y-100052381D02*
X214473390Y-100090476D01*
X214473390Y-100090476D02*
X215044819Y-100547619D01*
X215044819Y-100547619D02*
X215044819Y-100052381D01*
X214378152Y-99366666D02*
X215044819Y-99366666D01*
X213997200Y-99557142D02*
X214711485Y-99747619D01*
X214711485Y-99747619D02*
X214711485Y-99252380D01*
X103790476Y-88054819D02*
X103790476Y-88864342D01*
X103790476Y-88864342D02*
X103828571Y-88959580D01*
X103828571Y-88959580D02*
X103866666Y-89007200D01*
X103866666Y-89007200D02*
X103942857Y-89054819D01*
X103942857Y-89054819D02*
X104095238Y-89054819D01*
X104095238Y-89054819D02*
X104171428Y-89007200D01*
X104171428Y-89007200D02*
X104209523Y-88959580D01*
X104209523Y-88959580D02*
X104247619Y-88864342D01*
X104247619Y-88864342D02*
X104247619Y-88054819D01*
X105047618Y-89054819D02*
X104590475Y-89054819D01*
X104819047Y-89054819D02*
X104819047Y-88054819D01*
X104819047Y-88054819D02*
X104742856Y-88197676D01*
X104742856Y-88197676D02*
X104666666Y-88292914D01*
X104666666Y-88292914D02*
X104590475Y-88340533D01*
X111766667Y-86209580D02*
X111728571Y-86257200D01*
X111728571Y-86257200D02*
X111614286Y-86304819D01*
X111614286Y-86304819D02*
X111538095Y-86304819D01*
X111538095Y-86304819D02*
X111423809Y-86257200D01*
X111423809Y-86257200D02*
X111347619Y-86161961D01*
X111347619Y-86161961D02*
X111309524Y-86066723D01*
X111309524Y-86066723D02*
X111271428Y-85876247D01*
X111271428Y-85876247D02*
X111271428Y-85733390D01*
X111271428Y-85733390D02*
X111309524Y-85542914D01*
X111309524Y-85542914D02*
X111347619Y-85447676D01*
X111347619Y-85447676D02*
X111423809Y-85352438D01*
X111423809Y-85352438D02*
X111538095Y-85304819D01*
X111538095Y-85304819D02*
X111614286Y-85304819D01*
X111614286Y-85304819D02*
X111728571Y-85352438D01*
X111728571Y-85352438D02*
X111766667Y-85400057D01*
X112033333Y-85304819D02*
X112528571Y-85304819D01*
X112528571Y-85304819D02*
X112261905Y-85685771D01*
X112261905Y-85685771D02*
X112376190Y-85685771D01*
X112376190Y-85685771D02*
X112452381Y-85733390D01*
X112452381Y-85733390D02*
X112490476Y-85781009D01*
X112490476Y-85781009D02*
X112528571Y-85876247D01*
X112528571Y-85876247D02*
X112528571Y-86114342D01*
X112528571Y-86114342D02*
X112490476Y-86209580D01*
X112490476Y-86209580D02*
X112452381Y-86257200D01*
X112452381Y-86257200D02*
X112376190Y-86304819D01*
X112376190Y-86304819D02*
X112147619Y-86304819D01*
X112147619Y-86304819D02*
X112071428Y-86257200D01*
X112071428Y-86257200D02*
X112033333Y-86209580D01*
X157230057Y-98786190D02*
X157182438Y-98862380D01*
X157182438Y-98862380D02*
X157087200Y-98938571D01*
X157087200Y-98938571D02*
X156944342Y-99052857D01*
X156944342Y-99052857D02*
X156896723Y-99129047D01*
X156896723Y-99129047D02*
X156896723Y-99205238D01*
X157134819Y-99167142D02*
X157087200Y-99243333D01*
X157087200Y-99243333D02*
X156991961Y-99319523D01*
X156991961Y-99319523D02*
X156801485Y-99357619D01*
X156801485Y-99357619D02*
X156468152Y-99357619D01*
X156468152Y-99357619D02*
X156277676Y-99319523D01*
X156277676Y-99319523D02*
X156182438Y-99243333D01*
X156182438Y-99243333D02*
X156134819Y-99167142D01*
X156134819Y-99167142D02*
X156134819Y-99014761D01*
X156134819Y-99014761D02*
X156182438Y-98938571D01*
X156182438Y-98938571D02*
X156277676Y-98862380D01*
X156277676Y-98862380D02*
X156468152Y-98824285D01*
X156468152Y-98824285D02*
X156801485Y-98824285D01*
X156801485Y-98824285D02*
X156991961Y-98862380D01*
X156991961Y-98862380D02*
X157087200Y-98938571D01*
X157087200Y-98938571D02*
X157134819Y-99014761D01*
X157134819Y-99014761D02*
X157134819Y-99167142D01*
X157134819Y-98062381D02*
X157134819Y-98519524D01*
X157134819Y-98290952D02*
X156134819Y-98290952D01*
X156134819Y-98290952D02*
X156277676Y-98367143D01*
X156277676Y-98367143D02*
X156372914Y-98443333D01*
X156372914Y-98443333D02*
X156420533Y-98519524D01*
X217929580Y-100814285D02*
X217977200Y-100852381D01*
X217977200Y-100852381D02*
X218024819Y-100966666D01*
X218024819Y-100966666D02*
X218024819Y-101042857D01*
X218024819Y-101042857D02*
X217977200Y-101157143D01*
X217977200Y-101157143D02*
X217881961Y-101233333D01*
X217881961Y-101233333D02*
X217786723Y-101271428D01*
X217786723Y-101271428D02*
X217596247Y-101309524D01*
X217596247Y-101309524D02*
X217453390Y-101309524D01*
X217453390Y-101309524D02*
X217262914Y-101271428D01*
X217262914Y-101271428D02*
X217167676Y-101233333D01*
X217167676Y-101233333D02*
X217072438Y-101157143D01*
X217072438Y-101157143D02*
X217024819Y-101042857D01*
X217024819Y-101042857D02*
X217024819Y-100966666D01*
X217024819Y-100966666D02*
X217072438Y-100852381D01*
X217072438Y-100852381D02*
X217120057Y-100814285D01*
X218024819Y-100052381D02*
X218024819Y-100509524D01*
X218024819Y-100280952D02*
X217024819Y-100280952D01*
X217024819Y-100280952D02*
X217167676Y-100357143D01*
X217167676Y-100357143D02*
X217262914Y-100433333D01*
X217262914Y-100433333D02*
X217310533Y-100509524D01*
X217024819Y-99557142D02*
X217024819Y-99480952D01*
X217024819Y-99480952D02*
X217072438Y-99404761D01*
X217072438Y-99404761D02*
X217120057Y-99366666D01*
X217120057Y-99366666D02*
X217215295Y-99328571D01*
X217215295Y-99328571D02*
X217405771Y-99290476D01*
X217405771Y-99290476D02*
X217643866Y-99290476D01*
X217643866Y-99290476D02*
X217834342Y-99328571D01*
X217834342Y-99328571D02*
X217929580Y-99366666D01*
X217929580Y-99366666D02*
X217977200Y-99404761D01*
X217977200Y-99404761D02*
X218024819Y-99480952D01*
X218024819Y-99480952D02*
X218024819Y-99557142D01*
X218024819Y-99557142D02*
X217977200Y-99633333D01*
X217977200Y-99633333D02*
X217929580Y-99671428D01*
X217929580Y-99671428D02*
X217834342Y-99709523D01*
X217834342Y-99709523D02*
X217643866Y-99747619D01*
X217643866Y-99747619D02*
X217405771Y-99747619D01*
X217405771Y-99747619D02*
X217215295Y-99709523D01*
X217215295Y-99709523D02*
X217120057Y-99671428D01*
X217120057Y-99671428D02*
X217072438Y-99633333D01*
X217072438Y-99633333D02*
X217024819Y-99557142D01*
X162324819Y-83834285D02*
X161848628Y-84100952D01*
X162324819Y-84291428D02*
X161324819Y-84291428D01*
X161324819Y-84291428D02*
X161324819Y-83986666D01*
X161324819Y-83986666D02*
X161372438Y-83910476D01*
X161372438Y-83910476D02*
X161420057Y-83872381D01*
X161420057Y-83872381D02*
X161515295Y-83834285D01*
X161515295Y-83834285D02*
X161658152Y-83834285D01*
X161658152Y-83834285D02*
X161753390Y-83872381D01*
X161753390Y-83872381D02*
X161801009Y-83910476D01*
X161801009Y-83910476D02*
X161848628Y-83986666D01*
X161848628Y-83986666D02*
X161848628Y-84291428D01*
X162324819Y-83072381D02*
X162324819Y-83529524D01*
X162324819Y-83300952D02*
X161324819Y-83300952D01*
X161324819Y-83300952D02*
X161467676Y-83377143D01*
X161467676Y-83377143D02*
X161562914Y-83453333D01*
X161562914Y-83453333D02*
X161610533Y-83529524D01*
X162324819Y-82310476D02*
X162324819Y-82767619D01*
X162324819Y-82539047D02*
X161324819Y-82539047D01*
X161324819Y-82539047D02*
X161467676Y-82615238D01*
X161467676Y-82615238D02*
X161562914Y-82691428D01*
X161562914Y-82691428D02*
X161610533Y-82767619D01*
X162314819Y-101894285D02*
X161838628Y-102160952D01*
X162314819Y-102351428D02*
X161314819Y-102351428D01*
X161314819Y-102351428D02*
X161314819Y-102046666D01*
X161314819Y-102046666D02*
X161362438Y-101970476D01*
X161362438Y-101970476D02*
X161410057Y-101932381D01*
X161410057Y-101932381D02*
X161505295Y-101894285D01*
X161505295Y-101894285D02*
X161648152Y-101894285D01*
X161648152Y-101894285D02*
X161743390Y-101932381D01*
X161743390Y-101932381D02*
X161791009Y-101970476D01*
X161791009Y-101970476D02*
X161838628Y-102046666D01*
X161838628Y-102046666D02*
X161838628Y-102351428D01*
X161410057Y-101589524D02*
X161362438Y-101551428D01*
X161362438Y-101551428D02*
X161314819Y-101475238D01*
X161314819Y-101475238D02*
X161314819Y-101284762D01*
X161314819Y-101284762D02*
X161362438Y-101208571D01*
X161362438Y-101208571D02*
X161410057Y-101170476D01*
X161410057Y-101170476D02*
X161505295Y-101132381D01*
X161505295Y-101132381D02*
X161600533Y-101132381D01*
X161600533Y-101132381D02*
X161743390Y-101170476D01*
X161743390Y-101170476D02*
X162314819Y-101627619D01*
X162314819Y-101627619D02*
X162314819Y-101132381D01*
X161314819Y-100865714D02*
X161314819Y-100370476D01*
X161314819Y-100370476D02*
X161695771Y-100637142D01*
X161695771Y-100637142D02*
X161695771Y-100522857D01*
X161695771Y-100522857D02*
X161743390Y-100446666D01*
X161743390Y-100446666D02*
X161791009Y-100408571D01*
X161791009Y-100408571D02*
X161886247Y-100370476D01*
X161886247Y-100370476D02*
X162124342Y-100370476D01*
X162124342Y-100370476D02*
X162219580Y-100408571D01*
X162219580Y-100408571D02*
X162267200Y-100446666D01*
X162267200Y-100446666D02*
X162314819Y-100522857D01*
X162314819Y-100522857D02*
X162314819Y-100751428D01*
X162314819Y-100751428D02*
X162267200Y-100827619D01*
X162267200Y-100827619D02*
X162219580Y-100865714D01*
X190584819Y-90414285D02*
X190108628Y-90680952D01*
X190584819Y-90871428D02*
X189584819Y-90871428D01*
X189584819Y-90871428D02*
X189584819Y-90566666D01*
X189584819Y-90566666D02*
X189632438Y-90490476D01*
X189632438Y-90490476D02*
X189680057Y-90452381D01*
X189680057Y-90452381D02*
X189775295Y-90414285D01*
X189775295Y-90414285D02*
X189918152Y-90414285D01*
X189918152Y-90414285D02*
X190013390Y-90452381D01*
X190013390Y-90452381D02*
X190061009Y-90490476D01*
X190061009Y-90490476D02*
X190108628Y-90566666D01*
X190108628Y-90566666D02*
X190108628Y-90871428D01*
X189680057Y-90109524D02*
X189632438Y-90071428D01*
X189632438Y-90071428D02*
X189584819Y-89995238D01*
X189584819Y-89995238D02*
X189584819Y-89804762D01*
X189584819Y-89804762D02*
X189632438Y-89728571D01*
X189632438Y-89728571D02*
X189680057Y-89690476D01*
X189680057Y-89690476D02*
X189775295Y-89652381D01*
X189775295Y-89652381D02*
X189870533Y-89652381D01*
X189870533Y-89652381D02*
X190013390Y-89690476D01*
X190013390Y-89690476D02*
X190584819Y-90147619D01*
X190584819Y-90147619D02*
X190584819Y-89652381D01*
X189584819Y-89157142D02*
X189584819Y-89080952D01*
X189584819Y-89080952D02*
X189632438Y-89004761D01*
X189632438Y-89004761D02*
X189680057Y-88966666D01*
X189680057Y-88966666D02*
X189775295Y-88928571D01*
X189775295Y-88928571D02*
X189965771Y-88890476D01*
X189965771Y-88890476D02*
X190203866Y-88890476D01*
X190203866Y-88890476D02*
X190394342Y-88928571D01*
X190394342Y-88928571D02*
X190489580Y-88966666D01*
X190489580Y-88966666D02*
X190537200Y-89004761D01*
X190537200Y-89004761D02*
X190584819Y-89080952D01*
X190584819Y-89080952D02*
X190584819Y-89157142D01*
X190584819Y-89157142D02*
X190537200Y-89233333D01*
X190537200Y-89233333D02*
X190489580Y-89271428D01*
X190489580Y-89271428D02*
X190394342Y-89309523D01*
X190394342Y-89309523D02*
X190203866Y-89347619D01*
X190203866Y-89347619D02*
X189965771Y-89347619D01*
X189965771Y-89347619D02*
X189775295Y-89309523D01*
X189775295Y-89309523D02*
X189680057Y-89271428D01*
X189680057Y-89271428D02*
X189632438Y-89233333D01*
X189632438Y-89233333D02*
X189584819Y-89157142D01*
X113533333Y-118704819D02*
X113533333Y-119419104D01*
X113533333Y-119419104D02*
X113495238Y-119561961D01*
X113495238Y-119561961D02*
X113419047Y-119657200D01*
X113419047Y-119657200D02*
X113304762Y-119704819D01*
X113304762Y-119704819D02*
X113228571Y-119704819D01*
X113838095Y-118704819D02*
X114333333Y-118704819D01*
X114333333Y-118704819D02*
X114066667Y-119085771D01*
X114066667Y-119085771D02*
X114180952Y-119085771D01*
X114180952Y-119085771D02*
X114257143Y-119133390D01*
X114257143Y-119133390D02*
X114295238Y-119181009D01*
X114295238Y-119181009D02*
X114333333Y-119276247D01*
X114333333Y-119276247D02*
X114333333Y-119514342D01*
X114333333Y-119514342D02*
X114295238Y-119609580D01*
X114295238Y-119609580D02*
X114257143Y-119657200D01*
X114257143Y-119657200D02*
X114180952Y-119704819D01*
X114180952Y-119704819D02*
X113952381Y-119704819D01*
X113952381Y-119704819D02*
X113876190Y-119657200D01*
X113876190Y-119657200D02*
X113838095Y-119609580D01*
X140751009Y-90519762D02*
X140798628Y-90405476D01*
X140798628Y-90405476D02*
X140846247Y-90367381D01*
X140846247Y-90367381D02*
X140941485Y-90329285D01*
X140941485Y-90329285D02*
X141084342Y-90329285D01*
X141084342Y-90329285D02*
X141179580Y-90367381D01*
X141179580Y-90367381D02*
X141227200Y-90405476D01*
X141227200Y-90405476D02*
X141274819Y-90481666D01*
X141274819Y-90481666D02*
X141274819Y-90786428D01*
X141274819Y-90786428D02*
X140274819Y-90786428D01*
X140274819Y-90786428D02*
X140274819Y-90519762D01*
X140274819Y-90519762D02*
X140322438Y-90443571D01*
X140322438Y-90443571D02*
X140370057Y-90405476D01*
X140370057Y-90405476D02*
X140465295Y-90367381D01*
X140465295Y-90367381D02*
X140560533Y-90367381D01*
X140560533Y-90367381D02*
X140655771Y-90405476D01*
X140655771Y-90405476D02*
X140703390Y-90443571D01*
X140703390Y-90443571D02*
X140751009Y-90519762D01*
X140751009Y-90519762D02*
X140751009Y-90786428D01*
X140274819Y-90062619D02*
X140274819Y-89529285D01*
X140274819Y-89529285D02*
X141274819Y-90062619D01*
X141274819Y-90062619D02*
X141274819Y-89529285D01*
X141274819Y-88805476D02*
X141274819Y-89262619D01*
X141274819Y-89034047D02*
X140274819Y-89034047D01*
X140274819Y-89034047D02*
X140417676Y-89110238D01*
X140417676Y-89110238D02*
X140512914Y-89186428D01*
X140512914Y-89186428D02*
X140560533Y-89262619D01*
X111361524Y-64669819D02*
X111361524Y-63669819D01*
X111361524Y-63669819D02*
X111552000Y-63669819D01*
X111552000Y-63669819D02*
X111666286Y-63717438D01*
X111666286Y-63717438D02*
X111742476Y-63812676D01*
X111742476Y-63812676D02*
X111780571Y-63907914D01*
X111780571Y-63907914D02*
X111818667Y-64098390D01*
X111818667Y-64098390D02*
X111818667Y-64241247D01*
X111818667Y-64241247D02*
X111780571Y-64431723D01*
X111780571Y-64431723D02*
X111742476Y-64526961D01*
X111742476Y-64526961D02*
X111666286Y-64622200D01*
X111666286Y-64622200D02*
X111552000Y-64669819D01*
X111552000Y-64669819D02*
X111361524Y-64669819D01*
X112123428Y-63765057D02*
X112161524Y-63717438D01*
X112161524Y-63717438D02*
X112237714Y-63669819D01*
X112237714Y-63669819D02*
X112428190Y-63669819D01*
X112428190Y-63669819D02*
X112504381Y-63717438D01*
X112504381Y-63717438D02*
X112542476Y-63765057D01*
X112542476Y-63765057D02*
X112580571Y-63860295D01*
X112580571Y-63860295D02*
X112580571Y-63955533D01*
X112580571Y-63955533D02*
X112542476Y-64098390D01*
X112542476Y-64098390D02*
X112085333Y-64669819D01*
X112085333Y-64669819D02*
X112580571Y-64669819D01*
X169264819Y-101894285D02*
X168788628Y-102160952D01*
X169264819Y-102351428D02*
X168264819Y-102351428D01*
X168264819Y-102351428D02*
X168264819Y-102046666D01*
X168264819Y-102046666D02*
X168312438Y-101970476D01*
X168312438Y-101970476D02*
X168360057Y-101932381D01*
X168360057Y-101932381D02*
X168455295Y-101894285D01*
X168455295Y-101894285D02*
X168598152Y-101894285D01*
X168598152Y-101894285D02*
X168693390Y-101932381D01*
X168693390Y-101932381D02*
X168741009Y-101970476D01*
X168741009Y-101970476D02*
X168788628Y-102046666D01*
X168788628Y-102046666D02*
X168788628Y-102351428D01*
X169264819Y-101132381D02*
X169264819Y-101589524D01*
X169264819Y-101360952D02*
X168264819Y-101360952D01*
X168264819Y-101360952D02*
X168407676Y-101437143D01*
X168407676Y-101437143D02*
X168502914Y-101513333D01*
X168502914Y-101513333D02*
X168550533Y-101589524D01*
X168598152Y-100446666D02*
X169264819Y-100446666D01*
X168217200Y-100637142D02*
X168931485Y-100827619D01*
X168931485Y-100827619D02*
X168931485Y-100332380D01*
X103766667Y-77229580D02*
X103728571Y-77277200D01*
X103728571Y-77277200D02*
X103614286Y-77324819D01*
X103614286Y-77324819D02*
X103538095Y-77324819D01*
X103538095Y-77324819D02*
X103423809Y-77277200D01*
X103423809Y-77277200D02*
X103347619Y-77181961D01*
X103347619Y-77181961D02*
X103309524Y-77086723D01*
X103309524Y-77086723D02*
X103271428Y-76896247D01*
X103271428Y-76896247D02*
X103271428Y-76753390D01*
X103271428Y-76753390D02*
X103309524Y-76562914D01*
X103309524Y-76562914D02*
X103347619Y-76467676D01*
X103347619Y-76467676D02*
X103423809Y-76372438D01*
X103423809Y-76372438D02*
X103538095Y-76324819D01*
X103538095Y-76324819D02*
X103614286Y-76324819D01*
X103614286Y-76324819D02*
X103728571Y-76372438D01*
X103728571Y-76372438D02*
X103766667Y-76420057D01*
X104452381Y-76658152D02*
X104452381Y-77324819D01*
X104261905Y-76277200D02*
X104071428Y-76991485D01*
X104071428Y-76991485D02*
X104566667Y-76991485D01*
X155274819Y-83553332D02*
X154798628Y-83819999D01*
X155274819Y-84010475D02*
X154274819Y-84010475D01*
X154274819Y-84010475D02*
X154274819Y-83705713D01*
X154274819Y-83705713D02*
X154322438Y-83629523D01*
X154322438Y-83629523D02*
X154370057Y-83591428D01*
X154370057Y-83591428D02*
X154465295Y-83553332D01*
X154465295Y-83553332D02*
X154608152Y-83553332D01*
X154608152Y-83553332D02*
X154703390Y-83591428D01*
X154703390Y-83591428D02*
X154751009Y-83629523D01*
X154751009Y-83629523D02*
X154798628Y-83705713D01*
X154798628Y-83705713D02*
X154798628Y-84010475D01*
X155274819Y-83172380D02*
X155274819Y-83019999D01*
X155274819Y-83019999D02*
X155227200Y-82943809D01*
X155227200Y-82943809D02*
X155179580Y-82905713D01*
X155179580Y-82905713D02*
X155036723Y-82829523D01*
X155036723Y-82829523D02*
X154846247Y-82791428D01*
X154846247Y-82791428D02*
X154465295Y-82791428D01*
X154465295Y-82791428D02*
X154370057Y-82829523D01*
X154370057Y-82829523D02*
X154322438Y-82867618D01*
X154322438Y-82867618D02*
X154274819Y-82943809D01*
X154274819Y-82943809D02*
X154274819Y-83096190D01*
X154274819Y-83096190D02*
X154322438Y-83172380D01*
X154322438Y-83172380D02*
X154370057Y-83210475D01*
X154370057Y-83210475D02*
X154465295Y-83248571D01*
X154465295Y-83248571D02*
X154703390Y-83248571D01*
X154703390Y-83248571D02*
X154798628Y-83210475D01*
X154798628Y-83210475D02*
X154846247Y-83172380D01*
X154846247Y-83172380D02*
X154893866Y-83096190D01*
X154893866Y-83096190D02*
X154893866Y-82943809D01*
X154893866Y-82943809D02*
X154846247Y-82867618D01*
X154846247Y-82867618D02*
X154798628Y-82829523D01*
X154798628Y-82829523D02*
X154703390Y-82791428D01*
X112290476Y-76894819D02*
X112290476Y-77609104D01*
X112290476Y-77609104D02*
X112242857Y-77751961D01*
X112242857Y-77751961D02*
X112147619Y-77847200D01*
X112147619Y-77847200D02*
X112004762Y-77894819D01*
X112004762Y-77894819D02*
X111909524Y-77894819D01*
X113290476Y-77894819D02*
X112719048Y-77894819D01*
X113004762Y-77894819D02*
X113004762Y-76894819D01*
X113004762Y-76894819D02*
X112909524Y-77037676D01*
X112909524Y-77037676D02*
X112814286Y-77132914D01*
X112814286Y-77132914D02*
X112719048Y-77180533D01*
X113909524Y-76894819D02*
X114004762Y-76894819D01*
X114004762Y-76894819D02*
X114100000Y-76942438D01*
X114100000Y-76942438D02*
X114147619Y-76990057D01*
X114147619Y-76990057D02*
X114195238Y-77085295D01*
X114195238Y-77085295D02*
X114242857Y-77275771D01*
X114242857Y-77275771D02*
X114242857Y-77513866D01*
X114242857Y-77513866D02*
X114195238Y-77704342D01*
X114195238Y-77704342D02*
X114147619Y-77799580D01*
X114147619Y-77799580D02*
X114100000Y-77847200D01*
X114100000Y-77847200D02*
X114004762Y-77894819D01*
X114004762Y-77894819D02*
X113909524Y-77894819D01*
X113909524Y-77894819D02*
X113814286Y-77847200D01*
X113814286Y-77847200D02*
X113766667Y-77799580D01*
X113766667Y-77799580D02*
X113719048Y-77704342D01*
X113719048Y-77704342D02*
X113671429Y-77513866D01*
X113671429Y-77513866D02*
X113671429Y-77275771D01*
X113671429Y-77275771D02*
X113719048Y-77085295D01*
X113719048Y-77085295D02*
X113766667Y-76990057D01*
X113766667Y-76990057D02*
X113814286Y-76942438D01*
X113814286Y-76942438D02*
X113909524Y-76894819D01*
X148314819Y-83834285D02*
X147838628Y-84100952D01*
X148314819Y-84291428D02*
X147314819Y-84291428D01*
X147314819Y-84291428D02*
X147314819Y-83986666D01*
X147314819Y-83986666D02*
X147362438Y-83910476D01*
X147362438Y-83910476D02*
X147410057Y-83872381D01*
X147410057Y-83872381D02*
X147505295Y-83834285D01*
X147505295Y-83834285D02*
X147648152Y-83834285D01*
X147648152Y-83834285D02*
X147743390Y-83872381D01*
X147743390Y-83872381D02*
X147791009Y-83910476D01*
X147791009Y-83910476D02*
X147838628Y-83986666D01*
X147838628Y-83986666D02*
X147838628Y-84291428D01*
X147410057Y-83529524D02*
X147362438Y-83491428D01*
X147362438Y-83491428D02*
X147314819Y-83415238D01*
X147314819Y-83415238D02*
X147314819Y-83224762D01*
X147314819Y-83224762D02*
X147362438Y-83148571D01*
X147362438Y-83148571D02*
X147410057Y-83110476D01*
X147410057Y-83110476D02*
X147505295Y-83072381D01*
X147505295Y-83072381D02*
X147600533Y-83072381D01*
X147600533Y-83072381D02*
X147743390Y-83110476D01*
X147743390Y-83110476D02*
X148314819Y-83567619D01*
X148314819Y-83567619D02*
X148314819Y-83072381D01*
X148314819Y-82310476D02*
X148314819Y-82767619D01*
X148314819Y-82539047D02*
X147314819Y-82539047D01*
X147314819Y-82539047D02*
X147457676Y-82615238D01*
X147457676Y-82615238D02*
X147552914Y-82691428D01*
X147552914Y-82691428D02*
X147600533Y-82767619D01*
X151799580Y-68553332D02*
X151847200Y-68591428D01*
X151847200Y-68591428D02*
X151894819Y-68705713D01*
X151894819Y-68705713D02*
X151894819Y-68781904D01*
X151894819Y-68781904D02*
X151847200Y-68896190D01*
X151847200Y-68896190D02*
X151751961Y-68972380D01*
X151751961Y-68972380D02*
X151656723Y-69010475D01*
X151656723Y-69010475D02*
X151466247Y-69048571D01*
X151466247Y-69048571D02*
X151323390Y-69048571D01*
X151323390Y-69048571D02*
X151132914Y-69010475D01*
X151132914Y-69010475D02*
X151037676Y-68972380D01*
X151037676Y-68972380D02*
X150942438Y-68896190D01*
X150942438Y-68896190D02*
X150894819Y-68781904D01*
X150894819Y-68781904D02*
X150894819Y-68705713D01*
X150894819Y-68705713D02*
X150942438Y-68591428D01*
X150942438Y-68591428D02*
X150990057Y-68553332D01*
X151323390Y-68096190D02*
X151275771Y-68172380D01*
X151275771Y-68172380D02*
X151228152Y-68210475D01*
X151228152Y-68210475D02*
X151132914Y-68248571D01*
X151132914Y-68248571D02*
X151085295Y-68248571D01*
X151085295Y-68248571D02*
X150990057Y-68210475D01*
X150990057Y-68210475D02*
X150942438Y-68172380D01*
X150942438Y-68172380D02*
X150894819Y-68096190D01*
X150894819Y-68096190D02*
X150894819Y-67943809D01*
X150894819Y-67943809D02*
X150942438Y-67867618D01*
X150942438Y-67867618D02*
X150990057Y-67829523D01*
X150990057Y-67829523D02*
X151085295Y-67791428D01*
X151085295Y-67791428D02*
X151132914Y-67791428D01*
X151132914Y-67791428D02*
X151228152Y-67829523D01*
X151228152Y-67829523D02*
X151275771Y-67867618D01*
X151275771Y-67867618D02*
X151323390Y-67943809D01*
X151323390Y-67943809D02*
X151323390Y-68096190D01*
X151323390Y-68096190D02*
X151371009Y-68172380D01*
X151371009Y-68172380D02*
X151418628Y-68210475D01*
X151418628Y-68210475D02*
X151513866Y-68248571D01*
X151513866Y-68248571D02*
X151704342Y-68248571D01*
X151704342Y-68248571D02*
X151799580Y-68210475D01*
X151799580Y-68210475D02*
X151847200Y-68172380D01*
X151847200Y-68172380D02*
X151894819Y-68096190D01*
X151894819Y-68096190D02*
X151894819Y-67943809D01*
X151894819Y-67943809D02*
X151847200Y-67867618D01*
X151847200Y-67867618D02*
X151799580Y-67829523D01*
X151799580Y-67829523D02*
X151704342Y-67791428D01*
X151704342Y-67791428D02*
X151513866Y-67791428D01*
X151513866Y-67791428D02*
X151418628Y-67829523D01*
X151418628Y-67829523D02*
X151371009Y-67867618D01*
X151371009Y-67867618D02*
X151323390Y-67943809D01*
X219496666Y-104254819D02*
X219115714Y-104254819D01*
X219115714Y-104254819D02*
X219115714Y-103254819D01*
X219763333Y-104254819D02*
X219763333Y-103254819D01*
X219763333Y-103254819D02*
X219953809Y-103254819D01*
X219953809Y-103254819D02*
X220068095Y-103302438D01*
X220068095Y-103302438D02*
X220144285Y-103397676D01*
X220144285Y-103397676D02*
X220182380Y-103492914D01*
X220182380Y-103492914D02*
X220220476Y-103683390D01*
X220220476Y-103683390D02*
X220220476Y-103826247D01*
X220220476Y-103826247D02*
X220182380Y-104016723D01*
X220182380Y-104016723D02*
X220144285Y-104111961D01*
X220144285Y-104111961D02*
X220068095Y-104207200D01*
X220068095Y-104207200D02*
X219953809Y-104254819D01*
X219953809Y-104254819D02*
X219763333Y-104254819D01*
X220982380Y-104254819D02*
X220525237Y-104254819D01*
X220753809Y-104254819D02*
X220753809Y-103254819D01*
X220753809Y-103254819D02*
X220677618Y-103397676D01*
X220677618Y-103397676D02*
X220601428Y-103492914D01*
X220601428Y-103492914D02*
X220525237Y-103540533D01*
X137905476Y-76784819D02*
X137905476Y-77499104D01*
X137905476Y-77499104D02*
X137857857Y-77641961D01*
X137857857Y-77641961D02*
X137762619Y-77737200D01*
X137762619Y-77737200D02*
X137619762Y-77784819D01*
X137619762Y-77784819D02*
X137524524Y-77784819D01*
X138905476Y-77784819D02*
X138334048Y-77784819D01*
X138619762Y-77784819D02*
X138619762Y-76784819D01*
X138619762Y-76784819D02*
X138524524Y-76927676D01*
X138524524Y-76927676D02*
X138429286Y-77022914D01*
X138429286Y-77022914D02*
X138334048Y-77070533D01*
X139857857Y-77784819D02*
X139286429Y-77784819D01*
X139572143Y-77784819D02*
X139572143Y-76784819D01*
X139572143Y-76784819D02*
X139476905Y-76927676D01*
X139476905Y-76927676D02*
X139381667Y-77022914D01*
X139381667Y-77022914D02*
X139286429Y-77070533D01*
X214483332Y-103807200D02*
X214597618Y-103854819D01*
X214597618Y-103854819D02*
X214788094Y-103854819D01*
X214788094Y-103854819D02*
X214864285Y-103807200D01*
X214864285Y-103807200D02*
X214902380Y-103759580D01*
X214902380Y-103759580D02*
X214940475Y-103664342D01*
X214940475Y-103664342D02*
X214940475Y-103569104D01*
X214940475Y-103569104D02*
X214902380Y-103473866D01*
X214902380Y-103473866D02*
X214864285Y-103426247D01*
X214864285Y-103426247D02*
X214788094Y-103378628D01*
X214788094Y-103378628D02*
X214635713Y-103331009D01*
X214635713Y-103331009D02*
X214559523Y-103283390D01*
X214559523Y-103283390D02*
X214521428Y-103235771D01*
X214521428Y-103235771D02*
X214483332Y-103140533D01*
X214483332Y-103140533D02*
X214483332Y-103045295D01*
X214483332Y-103045295D02*
X214521428Y-102950057D01*
X214521428Y-102950057D02*
X214559523Y-102902438D01*
X214559523Y-102902438D02*
X214635713Y-102854819D01*
X214635713Y-102854819D02*
X214826190Y-102854819D01*
X214826190Y-102854819D02*
X214940475Y-102902438D01*
X215207142Y-102854819D02*
X215397618Y-103854819D01*
X215397618Y-103854819D02*
X215549999Y-103140533D01*
X215549999Y-103140533D02*
X215702380Y-103854819D01*
X215702380Y-103854819D02*
X215892857Y-102854819D01*
X216616666Y-103854819D02*
X216159523Y-103854819D01*
X216388095Y-103854819D02*
X216388095Y-102854819D01*
X216388095Y-102854819D02*
X216311904Y-102997676D01*
X216311904Y-102997676D02*
X216235714Y-103092914D01*
X216235714Y-103092914D02*
X216159523Y-103140533D01*
X189134819Y-90414285D02*
X188658628Y-90680952D01*
X189134819Y-90871428D02*
X188134819Y-90871428D01*
X188134819Y-90871428D02*
X188134819Y-90566666D01*
X188134819Y-90566666D02*
X188182438Y-90490476D01*
X188182438Y-90490476D02*
X188230057Y-90452381D01*
X188230057Y-90452381D02*
X188325295Y-90414285D01*
X188325295Y-90414285D02*
X188468152Y-90414285D01*
X188468152Y-90414285D02*
X188563390Y-90452381D01*
X188563390Y-90452381D02*
X188611009Y-90490476D01*
X188611009Y-90490476D02*
X188658628Y-90566666D01*
X188658628Y-90566666D02*
X188658628Y-90871428D01*
X189134819Y-89652381D02*
X189134819Y-90109524D01*
X189134819Y-89880952D02*
X188134819Y-89880952D01*
X188134819Y-89880952D02*
X188277676Y-89957143D01*
X188277676Y-89957143D02*
X188372914Y-90033333D01*
X188372914Y-90033333D02*
X188420533Y-90109524D01*
X188134819Y-89157142D02*
X188134819Y-89080952D01*
X188134819Y-89080952D02*
X188182438Y-89004761D01*
X188182438Y-89004761D02*
X188230057Y-88966666D01*
X188230057Y-88966666D02*
X188325295Y-88928571D01*
X188325295Y-88928571D02*
X188515771Y-88890476D01*
X188515771Y-88890476D02*
X188753866Y-88890476D01*
X188753866Y-88890476D02*
X188944342Y-88928571D01*
X188944342Y-88928571D02*
X189039580Y-88966666D01*
X189039580Y-88966666D02*
X189087200Y-89004761D01*
X189087200Y-89004761D02*
X189134819Y-89080952D01*
X189134819Y-89080952D02*
X189134819Y-89157142D01*
X189134819Y-89157142D02*
X189087200Y-89233333D01*
X189087200Y-89233333D02*
X189039580Y-89271428D01*
X189039580Y-89271428D02*
X188944342Y-89309523D01*
X188944342Y-89309523D02*
X188753866Y-89347619D01*
X188753866Y-89347619D02*
X188515771Y-89347619D01*
X188515771Y-89347619D02*
X188325295Y-89309523D01*
X188325295Y-89309523D02*
X188230057Y-89271428D01*
X188230057Y-89271428D02*
X188182438Y-89233333D01*
X188182438Y-89233333D02*
X188134819Y-89157142D01*
X221054819Y-100033332D02*
X220578628Y-100299999D01*
X221054819Y-100490475D02*
X220054819Y-100490475D01*
X220054819Y-100490475D02*
X220054819Y-100185713D01*
X220054819Y-100185713D02*
X220102438Y-100109523D01*
X220102438Y-100109523D02*
X220150057Y-100071428D01*
X220150057Y-100071428D02*
X220245295Y-100033332D01*
X220245295Y-100033332D02*
X220388152Y-100033332D01*
X220388152Y-100033332D02*
X220483390Y-100071428D01*
X220483390Y-100071428D02*
X220531009Y-100109523D01*
X220531009Y-100109523D02*
X220578628Y-100185713D01*
X220578628Y-100185713D02*
X220578628Y-100490475D01*
X220054819Y-99309523D02*
X220054819Y-99690475D01*
X220054819Y-99690475D02*
X220531009Y-99728571D01*
X220531009Y-99728571D02*
X220483390Y-99690475D01*
X220483390Y-99690475D02*
X220435771Y-99614285D01*
X220435771Y-99614285D02*
X220435771Y-99423809D01*
X220435771Y-99423809D02*
X220483390Y-99347618D01*
X220483390Y-99347618D02*
X220531009Y-99309523D01*
X220531009Y-99309523D02*
X220626247Y-99271428D01*
X220626247Y-99271428D02*
X220864342Y-99271428D01*
X220864342Y-99271428D02*
X220959580Y-99309523D01*
X220959580Y-99309523D02*
X221007200Y-99347618D01*
X221007200Y-99347618D02*
X221054819Y-99423809D01*
X221054819Y-99423809D02*
X221054819Y-99614285D01*
X221054819Y-99614285D02*
X221007200Y-99690475D01*
X221007200Y-99690475D02*
X220959580Y-99728571D01*
X158814819Y-92553332D02*
X158338628Y-92819999D01*
X158814819Y-93010475D02*
X157814819Y-93010475D01*
X157814819Y-93010475D02*
X157814819Y-92705713D01*
X157814819Y-92705713D02*
X157862438Y-92629523D01*
X157862438Y-92629523D02*
X157910057Y-92591428D01*
X157910057Y-92591428D02*
X158005295Y-92553332D01*
X158005295Y-92553332D02*
X158148152Y-92553332D01*
X158148152Y-92553332D02*
X158243390Y-92591428D01*
X158243390Y-92591428D02*
X158291009Y-92629523D01*
X158291009Y-92629523D02*
X158338628Y-92705713D01*
X158338628Y-92705713D02*
X158338628Y-93010475D01*
X158148152Y-91867618D02*
X158814819Y-91867618D01*
X157767200Y-92058094D02*
X158481485Y-92248571D01*
X158481485Y-92248571D02*
X158481485Y-91753332D01*
X155274819Y-92553332D02*
X154798628Y-92819999D01*
X155274819Y-93010475D02*
X154274819Y-93010475D01*
X154274819Y-93010475D02*
X154274819Y-92705713D01*
X154274819Y-92705713D02*
X154322438Y-92629523D01*
X154322438Y-92629523D02*
X154370057Y-92591428D01*
X154370057Y-92591428D02*
X154465295Y-92553332D01*
X154465295Y-92553332D02*
X154608152Y-92553332D01*
X154608152Y-92553332D02*
X154703390Y-92591428D01*
X154703390Y-92591428D02*
X154751009Y-92629523D01*
X154751009Y-92629523D02*
X154798628Y-92705713D01*
X154798628Y-92705713D02*
X154798628Y-93010475D01*
X154274819Y-92286666D02*
X154274819Y-91791428D01*
X154274819Y-91791428D02*
X154655771Y-92058094D01*
X154655771Y-92058094D02*
X154655771Y-91943809D01*
X154655771Y-91943809D02*
X154703390Y-91867618D01*
X154703390Y-91867618D02*
X154751009Y-91829523D01*
X154751009Y-91829523D02*
X154846247Y-91791428D01*
X154846247Y-91791428D02*
X155084342Y-91791428D01*
X155084342Y-91791428D02*
X155179580Y-91829523D01*
X155179580Y-91829523D02*
X155227200Y-91867618D01*
X155227200Y-91867618D02*
X155274819Y-91943809D01*
X155274819Y-91943809D02*
X155274819Y-92172380D01*
X155274819Y-92172380D02*
X155227200Y-92248571D01*
X155227200Y-92248571D02*
X155179580Y-92286666D01*
X172699580Y-101894285D02*
X172747200Y-101932381D01*
X172747200Y-101932381D02*
X172794819Y-102046666D01*
X172794819Y-102046666D02*
X172794819Y-102122857D01*
X172794819Y-102122857D02*
X172747200Y-102237143D01*
X172747200Y-102237143D02*
X172651961Y-102313333D01*
X172651961Y-102313333D02*
X172556723Y-102351428D01*
X172556723Y-102351428D02*
X172366247Y-102389524D01*
X172366247Y-102389524D02*
X172223390Y-102389524D01*
X172223390Y-102389524D02*
X172032914Y-102351428D01*
X172032914Y-102351428D02*
X171937676Y-102313333D01*
X171937676Y-102313333D02*
X171842438Y-102237143D01*
X171842438Y-102237143D02*
X171794819Y-102122857D01*
X171794819Y-102122857D02*
X171794819Y-102046666D01*
X171794819Y-102046666D02*
X171842438Y-101932381D01*
X171842438Y-101932381D02*
X171890057Y-101894285D01*
X172794819Y-101132381D02*
X172794819Y-101589524D01*
X172794819Y-101360952D02*
X171794819Y-101360952D01*
X171794819Y-101360952D02*
X171937676Y-101437143D01*
X171937676Y-101437143D02*
X172032914Y-101513333D01*
X172032914Y-101513333D02*
X172080533Y-101589524D01*
X172128152Y-100446666D02*
X172794819Y-100446666D01*
X171747200Y-100637142D02*
X172461485Y-100827619D01*
X172461485Y-100827619D02*
X172461485Y-100332380D01*
X151774819Y-75553332D02*
X151298628Y-75819999D01*
X151774819Y-76010475D02*
X150774819Y-76010475D01*
X150774819Y-76010475D02*
X150774819Y-75705713D01*
X150774819Y-75705713D02*
X150822438Y-75629523D01*
X150822438Y-75629523D02*
X150870057Y-75591428D01*
X150870057Y-75591428D02*
X150965295Y-75553332D01*
X150965295Y-75553332D02*
X151108152Y-75553332D01*
X151108152Y-75553332D02*
X151203390Y-75591428D01*
X151203390Y-75591428D02*
X151251009Y-75629523D01*
X151251009Y-75629523D02*
X151298628Y-75705713D01*
X151298628Y-75705713D02*
X151298628Y-76010475D01*
X151203390Y-75096190D02*
X151155771Y-75172380D01*
X151155771Y-75172380D02*
X151108152Y-75210475D01*
X151108152Y-75210475D02*
X151012914Y-75248571D01*
X151012914Y-75248571D02*
X150965295Y-75248571D01*
X150965295Y-75248571D02*
X150870057Y-75210475D01*
X150870057Y-75210475D02*
X150822438Y-75172380D01*
X150822438Y-75172380D02*
X150774819Y-75096190D01*
X150774819Y-75096190D02*
X150774819Y-74943809D01*
X150774819Y-74943809D02*
X150822438Y-74867618D01*
X150822438Y-74867618D02*
X150870057Y-74829523D01*
X150870057Y-74829523D02*
X150965295Y-74791428D01*
X150965295Y-74791428D02*
X151012914Y-74791428D01*
X151012914Y-74791428D02*
X151108152Y-74829523D01*
X151108152Y-74829523D02*
X151155771Y-74867618D01*
X151155771Y-74867618D02*
X151203390Y-74943809D01*
X151203390Y-74943809D02*
X151203390Y-75096190D01*
X151203390Y-75096190D02*
X151251009Y-75172380D01*
X151251009Y-75172380D02*
X151298628Y-75210475D01*
X151298628Y-75210475D02*
X151393866Y-75248571D01*
X151393866Y-75248571D02*
X151584342Y-75248571D01*
X151584342Y-75248571D02*
X151679580Y-75210475D01*
X151679580Y-75210475D02*
X151727200Y-75172380D01*
X151727200Y-75172380D02*
X151774819Y-75096190D01*
X151774819Y-75096190D02*
X151774819Y-74943809D01*
X151774819Y-74943809D02*
X151727200Y-74867618D01*
X151727200Y-74867618D02*
X151679580Y-74829523D01*
X151679580Y-74829523D02*
X151584342Y-74791428D01*
X151584342Y-74791428D02*
X151393866Y-74791428D01*
X151393866Y-74791428D02*
X151298628Y-74829523D01*
X151298628Y-74829523D02*
X151251009Y-74867618D01*
X151251009Y-74867618D02*
X151203390Y-74943809D01*
X105333333Y-63304819D02*
X105333333Y-64019104D01*
X105333333Y-64019104D02*
X105295238Y-64161961D01*
X105295238Y-64161961D02*
X105219047Y-64257200D01*
X105219047Y-64257200D02*
X105104762Y-64304819D01*
X105104762Y-64304819D02*
X105028571Y-64304819D01*
X106133333Y-64304819D02*
X105676190Y-64304819D01*
X105904762Y-64304819D02*
X105904762Y-63304819D01*
X105904762Y-63304819D02*
X105828571Y-63447676D01*
X105828571Y-63447676D02*
X105752381Y-63542914D01*
X105752381Y-63542914D02*
X105676190Y-63590533D01*
X148199580Y-68653332D02*
X148247200Y-68691428D01*
X148247200Y-68691428D02*
X148294819Y-68805713D01*
X148294819Y-68805713D02*
X148294819Y-68881904D01*
X148294819Y-68881904D02*
X148247200Y-68996190D01*
X148247200Y-68996190D02*
X148151961Y-69072380D01*
X148151961Y-69072380D02*
X148056723Y-69110475D01*
X148056723Y-69110475D02*
X147866247Y-69148571D01*
X147866247Y-69148571D02*
X147723390Y-69148571D01*
X147723390Y-69148571D02*
X147532914Y-69110475D01*
X147532914Y-69110475D02*
X147437676Y-69072380D01*
X147437676Y-69072380D02*
X147342438Y-68996190D01*
X147342438Y-68996190D02*
X147294819Y-68881904D01*
X147294819Y-68881904D02*
X147294819Y-68805713D01*
X147294819Y-68805713D02*
X147342438Y-68691428D01*
X147342438Y-68691428D02*
X147390057Y-68653332D01*
X147294819Y-68386666D02*
X147294819Y-67853332D01*
X147294819Y-67853332D02*
X148294819Y-68196190D01*
X165824819Y-83934285D02*
X165348628Y-84200952D01*
X165824819Y-84391428D02*
X164824819Y-84391428D01*
X164824819Y-84391428D02*
X164824819Y-84086666D01*
X164824819Y-84086666D02*
X164872438Y-84010476D01*
X164872438Y-84010476D02*
X164920057Y-83972381D01*
X164920057Y-83972381D02*
X165015295Y-83934285D01*
X165015295Y-83934285D02*
X165158152Y-83934285D01*
X165158152Y-83934285D02*
X165253390Y-83972381D01*
X165253390Y-83972381D02*
X165301009Y-84010476D01*
X165301009Y-84010476D02*
X165348628Y-84086666D01*
X165348628Y-84086666D02*
X165348628Y-84391428D01*
X165824819Y-83172381D02*
X165824819Y-83629524D01*
X165824819Y-83400952D02*
X164824819Y-83400952D01*
X164824819Y-83400952D02*
X164967676Y-83477143D01*
X164967676Y-83477143D02*
X165062914Y-83553333D01*
X165062914Y-83553333D02*
X165110533Y-83629524D01*
X164824819Y-82448571D02*
X164824819Y-82829523D01*
X164824819Y-82829523D02*
X165301009Y-82867619D01*
X165301009Y-82867619D02*
X165253390Y-82829523D01*
X165253390Y-82829523D02*
X165205771Y-82753333D01*
X165205771Y-82753333D02*
X165205771Y-82562857D01*
X165205771Y-82562857D02*
X165253390Y-82486666D01*
X165253390Y-82486666D02*
X165301009Y-82448571D01*
X165301009Y-82448571D02*
X165396247Y-82410476D01*
X165396247Y-82410476D02*
X165634342Y-82410476D01*
X165634342Y-82410476D02*
X165729580Y-82448571D01*
X165729580Y-82448571D02*
X165777200Y-82486666D01*
X165777200Y-82486666D02*
X165824819Y-82562857D01*
X165824819Y-82562857D02*
X165824819Y-82753333D01*
X165824819Y-82753333D02*
X165777200Y-82829523D01*
X165777200Y-82829523D02*
X165729580Y-82867619D01*
X165233333Y-55104819D02*
X165233333Y-55819104D01*
X165233333Y-55819104D02*
X165195238Y-55961961D01*
X165195238Y-55961961D02*
X165119047Y-56057200D01*
X165119047Y-56057200D02*
X165004762Y-56104819D01*
X165004762Y-56104819D02*
X164928571Y-56104819D01*
X165576190Y-55200057D02*
X165614286Y-55152438D01*
X165614286Y-55152438D02*
X165690476Y-55104819D01*
X165690476Y-55104819D02*
X165880952Y-55104819D01*
X165880952Y-55104819D02*
X165957143Y-55152438D01*
X165957143Y-55152438D02*
X165995238Y-55200057D01*
X165995238Y-55200057D02*
X166033333Y-55295295D01*
X166033333Y-55295295D02*
X166033333Y-55390533D01*
X166033333Y-55390533D02*
X165995238Y-55533390D01*
X165995238Y-55533390D02*
X165538095Y-56104819D01*
X165538095Y-56104819D02*
X166033333Y-56104819D01*
X106036428Y-67384819D02*
X106493571Y-67384819D01*
X106264999Y-68384819D02*
X106264999Y-67384819D01*
X106760238Y-68384819D02*
X106760238Y-67384819D01*
X106760238Y-67861009D02*
X107217381Y-67861009D01*
X107217381Y-68384819D02*
X107217381Y-67384819D01*
X108017380Y-68384819D02*
X107560237Y-68384819D01*
X107788809Y-68384819D02*
X107788809Y-67384819D01*
X107788809Y-67384819D02*
X107712618Y-67527676D01*
X107712618Y-67527676D02*
X107636428Y-67622914D01*
X107636428Y-67622914D02*
X107560237Y-67670533D01*
X158824819Y-83834285D02*
X158348628Y-84100952D01*
X158824819Y-84291428D02*
X157824819Y-84291428D01*
X157824819Y-84291428D02*
X157824819Y-83986666D01*
X157824819Y-83986666D02*
X157872438Y-83910476D01*
X157872438Y-83910476D02*
X157920057Y-83872381D01*
X157920057Y-83872381D02*
X158015295Y-83834285D01*
X158015295Y-83834285D02*
X158158152Y-83834285D01*
X158158152Y-83834285D02*
X158253390Y-83872381D01*
X158253390Y-83872381D02*
X158301009Y-83910476D01*
X158301009Y-83910476D02*
X158348628Y-83986666D01*
X158348628Y-83986666D02*
X158348628Y-84291428D01*
X158824819Y-83072381D02*
X158824819Y-83529524D01*
X158824819Y-83300952D02*
X157824819Y-83300952D01*
X157824819Y-83300952D02*
X157967676Y-83377143D01*
X157967676Y-83377143D02*
X158062914Y-83453333D01*
X158062914Y-83453333D02*
X158110533Y-83529524D01*
X157920057Y-82767619D02*
X157872438Y-82729523D01*
X157872438Y-82729523D02*
X157824819Y-82653333D01*
X157824819Y-82653333D02*
X157824819Y-82462857D01*
X157824819Y-82462857D02*
X157872438Y-82386666D01*
X157872438Y-82386666D02*
X157920057Y-82348571D01*
X157920057Y-82348571D02*
X158015295Y-82310476D01*
X158015295Y-82310476D02*
X158110533Y-82310476D01*
X158110533Y-82310476D02*
X158253390Y-82348571D01*
X158253390Y-82348571D02*
X158824819Y-82805714D01*
X158824819Y-82805714D02*
X158824819Y-82310476D01*
X165764819Y-101894285D02*
X165288628Y-102160952D01*
X165764819Y-102351428D02*
X164764819Y-102351428D01*
X164764819Y-102351428D02*
X164764819Y-102046666D01*
X164764819Y-102046666D02*
X164812438Y-101970476D01*
X164812438Y-101970476D02*
X164860057Y-101932381D01*
X164860057Y-101932381D02*
X164955295Y-101894285D01*
X164955295Y-101894285D02*
X165098152Y-101894285D01*
X165098152Y-101894285D02*
X165193390Y-101932381D01*
X165193390Y-101932381D02*
X165241009Y-101970476D01*
X165241009Y-101970476D02*
X165288628Y-102046666D01*
X165288628Y-102046666D02*
X165288628Y-102351428D01*
X165764819Y-101132381D02*
X165764819Y-101589524D01*
X165764819Y-101360952D02*
X164764819Y-101360952D01*
X164764819Y-101360952D02*
X164907676Y-101437143D01*
X164907676Y-101437143D02*
X165002914Y-101513333D01*
X165002914Y-101513333D02*
X165050533Y-101589524D01*
X164764819Y-100865714D02*
X164764819Y-100370476D01*
X164764819Y-100370476D02*
X165145771Y-100637142D01*
X165145771Y-100637142D02*
X165145771Y-100522857D01*
X165145771Y-100522857D02*
X165193390Y-100446666D01*
X165193390Y-100446666D02*
X165241009Y-100408571D01*
X165241009Y-100408571D02*
X165336247Y-100370476D01*
X165336247Y-100370476D02*
X165574342Y-100370476D01*
X165574342Y-100370476D02*
X165669580Y-100408571D01*
X165669580Y-100408571D02*
X165717200Y-100446666D01*
X165717200Y-100446666D02*
X165764819Y-100522857D01*
X165764819Y-100522857D02*
X165764819Y-100751428D01*
X165764819Y-100751428D02*
X165717200Y-100827619D01*
X165717200Y-100827619D02*
X165669580Y-100865714D01*
X188197380Y-71284819D02*
X188197380Y-71999104D01*
X188197380Y-71999104D02*
X188159285Y-72141961D01*
X188159285Y-72141961D02*
X188083094Y-72237200D01*
X188083094Y-72237200D02*
X187968809Y-72284819D01*
X187968809Y-72284819D02*
X187892618Y-72284819D01*
X188540237Y-71380057D02*
X188578333Y-71332438D01*
X188578333Y-71332438D02*
X188654523Y-71284819D01*
X188654523Y-71284819D02*
X188844999Y-71284819D01*
X188844999Y-71284819D02*
X188921190Y-71332438D01*
X188921190Y-71332438D02*
X188959285Y-71380057D01*
X188959285Y-71380057D02*
X188997380Y-71475295D01*
X188997380Y-71475295D02*
X188997380Y-71570533D01*
X188997380Y-71570533D02*
X188959285Y-71713390D01*
X188959285Y-71713390D02*
X188502142Y-72284819D01*
X188502142Y-72284819D02*
X188997380Y-72284819D01*
X189492619Y-71284819D02*
X189568809Y-71284819D01*
X189568809Y-71284819D02*
X189645000Y-71332438D01*
X189645000Y-71332438D02*
X189683095Y-71380057D01*
X189683095Y-71380057D02*
X189721190Y-71475295D01*
X189721190Y-71475295D02*
X189759285Y-71665771D01*
X189759285Y-71665771D02*
X189759285Y-71903866D01*
X189759285Y-71903866D02*
X189721190Y-72094342D01*
X189721190Y-72094342D02*
X189683095Y-72189580D01*
X189683095Y-72189580D02*
X189645000Y-72237200D01*
X189645000Y-72237200D02*
X189568809Y-72284819D01*
X189568809Y-72284819D02*
X189492619Y-72284819D01*
X189492619Y-72284819D02*
X189416428Y-72237200D01*
X189416428Y-72237200D02*
X189378333Y-72189580D01*
X189378333Y-72189580D02*
X189340238Y-72094342D01*
X189340238Y-72094342D02*
X189302142Y-71903866D01*
X189302142Y-71903866D02*
X189302142Y-71665771D01*
X189302142Y-71665771D02*
X189340238Y-71475295D01*
X189340238Y-71475295D02*
X189378333Y-71380057D01*
X189378333Y-71380057D02*
X189416428Y-71332438D01*
X189416428Y-71332438D02*
X189492619Y-71284819D01*
X162199580Y-92553332D02*
X162247200Y-92591428D01*
X162247200Y-92591428D02*
X162294819Y-92705713D01*
X162294819Y-92705713D02*
X162294819Y-92781904D01*
X162294819Y-92781904D02*
X162247200Y-92896190D01*
X162247200Y-92896190D02*
X162151961Y-92972380D01*
X162151961Y-92972380D02*
X162056723Y-93010475D01*
X162056723Y-93010475D02*
X161866247Y-93048571D01*
X161866247Y-93048571D02*
X161723390Y-93048571D01*
X161723390Y-93048571D02*
X161532914Y-93010475D01*
X161532914Y-93010475D02*
X161437676Y-92972380D01*
X161437676Y-92972380D02*
X161342438Y-92896190D01*
X161342438Y-92896190D02*
X161294819Y-92781904D01*
X161294819Y-92781904D02*
X161294819Y-92705713D01*
X161294819Y-92705713D02*
X161342438Y-92591428D01*
X161342438Y-92591428D02*
X161390057Y-92553332D01*
X161294819Y-91867618D02*
X161294819Y-92019999D01*
X161294819Y-92019999D02*
X161342438Y-92096190D01*
X161342438Y-92096190D02*
X161390057Y-92134285D01*
X161390057Y-92134285D02*
X161532914Y-92210475D01*
X161532914Y-92210475D02*
X161723390Y-92248571D01*
X161723390Y-92248571D02*
X162104342Y-92248571D01*
X162104342Y-92248571D02*
X162199580Y-92210475D01*
X162199580Y-92210475D02*
X162247200Y-92172380D01*
X162247200Y-92172380D02*
X162294819Y-92096190D01*
X162294819Y-92096190D02*
X162294819Y-91943809D01*
X162294819Y-91943809D02*
X162247200Y-91867618D01*
X162247200Y-91867618D02*
X162199580Y-91829523D01*
X162199580Y-91829523D02*
X162104342Y-91791428D01*
X162104342Y-91791428D02*
X161866247Y-91791428D01*
X161866247Y-91791428D02*
X161771009Y-91829523D01*
X161771009Y-91829523D02*
X161723390Y-91867618D01*
X161723390Y-91867618D02*
X161675771Y-91943809D01*
X161675771Y-91943809D02*
X161675771Y-92096190D01*
X161675771Y-92096190D02*
X161723390Y-92172380D01*
X161723390Y-92172380D02*
X161771009Y-92210475D01*
X161771009Y-92210475D02*
X161866247Y-92248571D01*
X172914819Y-107014523D02*
X173724342Y-107014523D01*
X173724342Y-107014523D02*
X173819580Y-106976428D01*
X173819580Y-106976428D02*
X173867200Y-106938333D01*
X173867200Y-106938333D02*
X173914819Y-106862142D01*
X173914819Y-106862142D02*
X173914819Y-106709761D01*
X173914819Y-106709761D02*
X173867200Y-106633571D01*
X173867200Y-106633571D02*
X173819580Y-106595476D01*
X173819580Y-106595476D02*
X173724342Y-106557380D01*
X173724342Y-106557380D02*
X172914819Y-106557380D01*
X172914819Y-105833571D02*
X172914819Y-105985952D01*
X172914819Y-105985952D02*
X172962438Y-106062143D01*
X172962438Y-106062143D02*
X173010057Y-106100238D01*
X173010057Y-106100238D02*
X173152914Y-106176428D01*
X173152914Y-106176428D02*
X173343390Y-106214524D01*
X173343390Y-106214524D02*
X173724342Y-106214524D01*
X173724342Y-106214524D02*
X173819580Y-106176428D01*
X173819580Y-106176428D02*
X173867200Y-106138333D01*
X173867200Y-106138333D02*
X173914819Y-106062143D01*
X173914819Y-106062143D02*
X173914819Y-105909762D01*
X173914819Y-105909762D02*
X173867200Y-105833571D01*
X173867200Y-105833571D02*
X173819580Y-105795476D01*
X173819580Y-105795476D02*
X173724342Y-105757381D01*
X173724342Y-105757381D02*
X173486247Y-105757381D01*
X173486247Y-105757381D02*
X173391009Y-105795476D01*
X173391009Y-105795476D02*
X173343390Y-105833571D01*
X173343390Y-105833571D02*
X173295771Y-105909762D01*
X173295771Y-105909762D02*
X173295771Y-106062143D01*
X173295771Y-106062143D02*
X173343390Y-106138333D01*
X173343390Y-106138333D02*
X173391009Y-106176428D01*
X173391009Y-106176428D02*
X173486247Y-106214524D01*
X107209580Y-76133332D02*
X107257200Y-76171428D01*
X107257200Y-76171428D02*
X107304819Y-76285713D01*
X107304819Y-76285713D02*
X107304819Y-76361904D01*
X107304819Y-76361904D02*
X107257200Y-76476190D01*
X107257200Y-76476190D02*
X107161961Y-76552380D01*
X107161961Y-76552380D02*
X107066723Y-76590475D01*
X107066723Y-76590475D02*
X106876247Y-76628571D01*
X106876247Y-76628571D02*
X106733390Y-76628571D01*
X106733390Y-76628571D02*
X106542914Y-76590475D01*
X106542914Y-76590475D02*
X106447676Y-76552380D01*
X106447676Y-76552380D02*
X106352438Y-76476190D01*
X106352438Y-76476190D02*
X106304819Y-76361904D01*
X106304819Y-76361904D02*
X106304819Y-76285713D01*
X106304819Y-76285713D02*
X106352438Y-76171428D01*
X106352438Y-76171428D02*
X106400057Y-76133332D01*
X107304819Y-75371428D02*
X107304819Y-75828571D01*
X107304819Y-75599999D02*
X106304819Y-75599999D01*
X106304819Y-75599999D02*
X106447676Y-75676190D01*
X106447676Y-75676190D02*
X106542914Y-75752380D01*
X106542914Y-75752380D02*
X106590533Y-75828571D01*
X226307200Y-104016667D02*
X226354819Y-103902381D01*
X226354819Y-103902381D02*
X226354819Y-103711905D01*
X226354819Y-103711905D02*
X226307200Y-103635714D01*
X226307200Y-103635714D02*
X226259580Y-103597619D01*
X226259580Y-103597619D02*
X226164342Y-103559524D01*
X226164342Y-103559524D02*
X226069104Y-103559524D01*
X226069104Y-103559524D02*
X225973866Y-103597619D01*
X225973866Y-103597619D02*
X225926247Y-103635714D01*
X225926247Y-103635714D02*
X225878628Y-103711905D01*
X225878628Y-103711905D02*
X225831009Y-103864286D01*
X225831009Y-103864286D02*
X225783390Y-103940476D01*
X225783390Y-103940476D02*
X225735771Y-103978571D01*
X225735771Y-103978571D02*
X225640533Y-104016667D01*
X225640533Y-104016667D02*
X225545295Y-104016667D01*
X225545295Y-104016667D02*
X225450057Y-103978571D01*
X225450057Y-103978571D02*
X225402438Y-103940476D01*
X225402438Y-103940476D02*
X225354819Y-103864286D01*
X225354819Y-103864286D02*
X225354819Y-103673809D01*
X225354819Y-103673809D02*
X225402438Y-103559524D01*
X225354819Y-103292857D02*
X226354819Y-103102381D01*
X226354819Y-103102381D02*
X225640533Y-102950000D01*
X225640533Y-102950000D02*
X226354819Y-102797619D01*
X226354819Y-102797619D02*
X225354819Y-102607143D01*
X225450057Y-102340476D02*
X225402438Y-102302380D01*
X225402438Y-102302380D02*
X225354819Y-102226190D01*
X225354819Y-102226190D02*
X225354819Y-102035714D01*
X225354819Y-102035714D02*
X225402438Y-101959523D01*
X225402438Y-101959523D02*
X225450057Y-101921428D01*
X225450057Y-101921428D02*
X225545295Y-101883333D01*
X225545295Y-101883333D02*
X225640533Y-101883333D01*
X225640533Y-101883333D02*
X225783390Y-101921428D01*
X225783390Y-101921428D02*
X226354819Y-102378571D01*
X226354819Y-102378571D02*
X226354819Y-101883333D01*
X170004819Y-116911666D02*
X170719104Y-116911666D01*
X170719104Y-116911666D02*
X170861961Y-116949761D01*
X170861961Y-116949761D02*
X170957200Y-117025952D01*
X170957200Y-117025952D02*
X171004819Y-117140237D01*
X171004819Y-117140237D02*
X171004819Y-117216428D01*
X170004819Y-116149761D02*
X170004819Y-116530713D01*
X170004819Y-116530713D02*
X170481009Y-116568809D01*
X170481009Y-116568809D02*
X170433390Y-116530713D01*
X170433390Y-116530713D02*
X170385771Y-116454523D01*
X170385771Y-116454523D02*
X170385771Y-116264047D01*
X170385771Y-116264047D02*
X170433390Y-116187856D01*
X170433390Y-116187856D02*
X170481009Y-116149761D01*
X170481009Y-116149761D02*
X170576247Y-116111666D01*
X170576247Y-116111666D02*
X170814342Y-116111666D01*
X170814342Y-116111666D02*
X170909580Y-116149761D01*
X170909580Y-116149761D02*
X170957200Y-116187856D01*
X170957200Y-116187856D02*
X171004819Y-116264047D01*
X171004819Y-116264047D02*
X171004819Y-116454523D01*
X171004819Y-116454523D02*
X170957200Y-116530713D01*
X170957200Y-116530713D02*
X170909580Y-116568809D01*
X162324819Y-74453332D02*
X161848628Y-74719999D01*
X162324819Y-74910475D02*
X161324819Y-74910475D01*
X161324819Y-74910475D02*
X161324819Y-74605713D01*
X161324819Y-74605713D02*
X161372438Y-74529523D01*
X161372438Y-74529523D02*
X161420057Y-74491428D01*
X161420057Y-74491428D02*
X161515295Y-74453332D01*
X161515295Y-74453332D02*
X161658152Y-74453332D01*
X161658152Y-74453332D02*
X161753390Y-74491428D01*
X161753390Y-74491428D02*
X161801009Y-74529523D01*
X161801009Y-74529523D02*
X161848628Y-74605713D01*
X161848628Y-74605713D02*
X161848628Y-74910475D01*
X162324819Y-73691428D02*
X162324819Y-74148571D01*
X162324819Y-73919999D02*
X161324819Y-73919999D01*
X161324819Y-73919999D02*
X161467676Y-73996190D01*
X161467676Y-73996190D02*
X161562914Y-74072380D01*
X161562914Y-74072380D02*
X161610533Y-74148571D01*
X165899580Y-65553332D02*
X165947200Y-65591428D01*
X165947200Y-65591428D02*
X165994819Y-65705713D01*
X165994819Y-65705713D02*
X165994819Y-65781904D01*
X165994819Y-65781904D02*
X165947200Y-65896190D01*
X165947200Y-65896190D02*
X165851961Y-65972380D01*
X165851961Y-65972380D02*
X165756723Y-66010475D01*
X165756723Y-66010475D02*
X165566247Y-66048571D01*
X165566247Y-66048571D02*
X165423390Y-66048571D01*
X165423390Y-66048571D02*
X165232914Y-66010475D01*
X165232914Y-66010475D02*
X165137676Y-65972380D01*
X165137676Y-65972380D02*
X165042438Y-65896190D01*
X165042438Y-65896190D02*
X164994819Y-65781904D01*
X164994819Y-65781904D02*
X164994819Y-65705713D01*
X164994819Y-65705713D02*
X165042438Y-65591428D01*
X165042438Y-65591428D02*
X165090057Y-65553332D01*
X165994819Y-65172380D02*
X165994819Y-65019999D01*
X165994819Y-65019999D02*
X165947200Y-64943809D01*
X165947200Y-64943809D02*
X165899580Y-64905713D01*
X165899580Y-64905713D02*
X165756723Y-64829523D01*
X165756723Y-64829523D02*
X165566247Y-64791428D01*
X165566247Y-64791428D02*
X165185295Y-64791428D01*
X165185295Y-64791428D02*
X165090057Y-64829523D01*
X165090057Y-64829523D02*
X165042438Y-64867618D01*
X165042438Y-64867618D02*
X164994819Y-64943809D01*
X164994819Y-64943809D02*
X164994819Y-65096190D01*
X164994819Y-65096190D02*
X165042438Y-65172380D01*
X165042438Y-65172380D02*
X165090057Y-65210475D01*
X165090057Y-65210475D02*
X165185295Y-65248571D01*
X165185295Y-65248571D02*
X165423390Y-65248571D01*
X165423390Y-65248571D02*
X165518628Y-65210475D01*
X165518628Y-65210475D02*
X165566247Y-65172380D01*
X165566247Y-65172380D02*
X165613866Y-65096190D01*
X165613866Y-65096190D02*
X165613866Y-64943809D01*
X165613866Y-64943809D02*
X165566247Y-64867618D01*
X165566247Y-64867618D02*
X165518628Y-64829523D01*
X165518628Y-64829523D02*
X165423390Y-64791428D01*
D11*
%TO.C,R7*%
X145180000Y-76147064D02*
X145180000Y-74692936D01*
X147000000Y-76147064D02*
X147000000Y-74692936D01*
%TO.C,C5*%
X162680000Y-93131252D02*
X162680000Y-91708748D01*
X164500000Y-93131252D02*
X164500000Y-91708748D01*
%TO.C,R22*%
X148680000Y-84147064D02*
X148680000Y-82692936D01*
X150500000Y-84147064D02*
X150500000Y-82692936D01*
%TO.C,D1*%
X151790000Y-57500000D02*
X151790000Y-59500000D01*
X151790000Y-57500000D02*
X155650000Y-57500000D01*
X151790000Y-59500000D02*
X155650000Y-59500000D01*
%TO.C,R2*%
X162680000Y-73692936D02*
X162680000Y-75147064D01*
X164500000Y-73692936D02*
X164500000Y-75147064D01*
D12*
%TO.C,TR1*%
X102722000Y-115267000D02*
X102722000Y-116547000D01*
D13*
X102976000Y-100310000D02*
X102976000Y-116542000D01*
X102976000Y-100310000D02*
X112374000Y-100310000D01*
D12*
X104133800Y-119890000D02*
X102853800Y-119890000D01*
D13*
X112374000Y-100310000D02*
X112374000Y-119590000D01*
X112374000Y-119590000D02*
X102849000Y-119590000D01*
D11*
%TO.C,U2*%
X167680000Y-77200000D02*
X167070000Y-77200000D01*
X167680000Y-93820000D02*
X167680000Y-93200000D01*
X169800000Y-93820000D02*
X167680000Y-93820000D01*
X183920000Y-93200000D02*
X183920000Y-93820000D01*
X183920000Y-93820000D02*
X181800000Y-93820000D01*
X184355000Y-77200000D02*
X183745000Y-77200000D01*
%TO.C,U3*%
X154445000Y-60460000D02*
X158565000Y-60460000D01*
X154445000Y-60515000D02*
X154445000Y-60460000D01*
X154445000Y-70580000D02*
X154445000Y-70525000D01*
X158565000Y-60460000D02*
X158565000Y-60515000D01*
X158565000Y-70525000D02*
X158565000Y-70580000D01*
X158565000Y-70580000D02*
X154445000Y-70580000D01*
X159345000Y-70860000D02*
X158865000Y-70860000D01*
X159105000Y-70530000D01*
X159345000Y-70860000D01*
G36*
X159345000Y-70860000D02*
G01*
X158865000Y-70860000D01*
X159105000Y-70530000D01*
X159345000Y-70860000D01*
G37*
%TO.C,J4*%
X216350000Y-86000000D02*
X216350000Y-87740000D01*
X216350000Y-91800000D02*
X216350000Y-90460000D01*
X217840000Y-91800000D02*
X216350000Y-91800000D01*
X222160000Y-91800000D02*
X222160000Y-93000000D01*
X222160000Y-91800000D02*
X223650000Y-91800000D01*
X223650000Y-86000000D02*
X216350000Y-86000000D01*
X223650000Y-87740000D02*
X223650000Y-86000000D01*
X223650000Y-91800000D02*
X223650000Y-90460000D01*
%TO.C,J15*%
X141685000Y-104780000D02*
X139975000Y-104780000D01*
X141906600Y-103080000D02*
X141685000Y-103080000D01*
X141906600Y-103940000D02*
X141685000Y-103940000D01*
X141915000Y-105620000D02*
X141685000Y-105620000D01*
X141915000Y-106480000D02*
X141685000Y-106480000D01*
X144345000Y-106050000D02*
X144345000Y-107320000D01*
X144345000Y-107320000D02*
X143075000Y-107320000D01*
X141685000Y-107430000D02*
X139925000Y-107430000D01*
X139925000Y-102130000D01*
X141685000Y-102130000D01*
X141685000Y-107430000D01*
%TO.C,J22*%
X187600000Y-94110000D02*
X188870000Y-94110000D01*
X187600000Y-95380000D02*
X187600000Y-94110000D01*
X190030000Y-94950000D02*
X190260000Y-94950000D01*
X190030000Y-95810000D02*
X190260000Y-95810000D01*
X190038400Y-97490000D02*
X190260000Y-97490000D01*
X190038400Y-98350000D02*
X190260000Y-98350000D01*
X190038400Y-100030000D02*
X190260000Y-100030000D01*
X190038400Y-100890000D02*
X190260000Y-100890000D01*
X190038400Y-102570000D02*
X190260000Y-102570000D01*
X190038400Y-103430000D02*
X190260000Y-103430000D01*
X190260000Y-96650000D02*
X193020000Y-96650000D01*
X190260000Y-99190000D02*
X193020000Y-99190000D01*
X190260000Y-101730000D02*
X193020000Y-101730000D01*
X193020000Y-97490000D02*
X195972000Y-97490000D01*
X193020000Y-100030000D02*
X195972000Y-100030000D01*
X193020000Y-102570000D02*
X195972000Y-102570000D01*
X195972000Y-97490000D02*
X195972000Y-98350000D01*
X195972000Y-98350000D02*
X193020000Y-98350000D01*
X195972000Y-100030000D02*
X195972000Y-100890000D01*
X195972000Y-100890000D02*
X193020000Y-100890000D01*
X195972000Y-102570000D02*
X195972000Y-103430000D01*
X195972000Y-103430000D02*
X193020000Y-103430000D01*
X190260000Y-94000000D02*
X193020000Y-94000000D01*
X193020000Y-104380000D01*
X190260000Y-104380000D01*
X190260000Y-94000000D01*
X193020000Y-94950000D02*
X196010000Y-94950000D01*
X196010000Y-95810000D01*
X193020000Y-95810000D01*
X193020000Y-94950000D01*
G36*
X193020000Y-94950000D02*
G01*
X196010000Y-94950000D01*
X196010000Y-95810000D01*
X193020000Y-95810000D01*
X193020000Y-94950000D01*
G37*
%TO.C,C2*%
X105588748Y-83090000D02*
X107011252Y-83090000D01*
X105588748Y-84910000D02*
X107011252Y-84910000D01*
%TO.C,U4*%
X154980000Y-75019252D02*
X154980000Y-73685000D01*
X157200000Y-73685000D02*
X157200000Y-75155000D01*
X154970000Y-75310000D02*
X154780000Y-75450000D01*
X154780000Y-75170000D01*
X154970000Y-75310000D01*
G36*
X154970000Y-75310000D02*
G01*
X154780000Y-75450000D01*
X154780000Y-75170000D01*
X154970000Y-75310000D01*
G37*
%TO.C,R24*%
X213610000Y-97327064D02*
X213610000Y-95872936D01*
X215430000Y-97327064D02*
X215430000Y-95872936D01*
%TO.C,U1*%
X105790000Y-89150000D02*
X105790000Y-92910000D01*
X105790000Y-92910000D02*
X107050000Y-92910000D01*
X112610000Y-89150000D02*
X112610000Y-92910000D01*
X112610000Y-92910000D02*
X111350000Y-92910000D01*
X112840000Y-88110000D02*
X112510000Y-87870000D01*
X112840000Y-87630000D01*
X112840000Y-88110000D01*
G36*
X112840000Y-88110000D02*
G01*
X112510000Y-87870000D01*
X112840000Y-87630000D01*
X112840000Y-88110000D01*
G37*
%TO.C,C3*%
X111188748Y-83090000D02*
X112611252Y-83090000D01*
X111188748Y-84910000D02*
X112611252Y-84910000D01*
%TO.C,Q1*%
X155830000Y-99820000D02*
X157350000Y-99820000D01*
X155830000Y-100820000D02*
X155830000Y-99820000D01*
X155830000Y-102940000D02*
X155830000Y-101940000D01*
X157350000Y-99820000D02*
X157350000Y-99870000D01*
X157350000Y-100990000D02*
X157350000Y-101770000D01*
X157350000Y-102890000D02*
X157350000Y-102940000D01*
X157350000Y-102940000D02*
X155830000Y-102940000D01*
X157890000Y-101760000D02*
X157650000Y-101430000D01*
X158130000Y-101430000D01*
X157890000Y-101760000D01*
G36*
X157890000Y-101760000D02*
G01*
X157650000Y-101430000D01*
X158130000Y-101430000D01*
X157890000Y-101760000D01*
G37*
%TO.C,C10*%
X216610000Y-95888748D02*
X216610000Y-97311252D01*
X218430000Y-95888748D02*
X218430000Y-97311252D01*
%TO.C,R11*%
X159180000Y-84147064D02*
X159180000Y-82692936D01*
X161000000Y-84147064D02*
X161000000Y-82692936D01*
%TO.C,R23*%
X159180000Y-102107064D02*
X159180000Y-100652936D01*
X161000000Y-102107064D02*
X161000000Y-100652936D01*
%TO.C,R20*%
X194090000Y-89272936D02*
X194090000Y-90727064D01*
X195910000Y-89272936D02*
X195910000Y-90727064D01*
%TO.C,J3*%
X106000000Y-132360000D02*
X108000000Y-132360000D01*
X106250000Y-130860000D02*
X106000000Y-132360000D01*
X107750000Y-130860000D02*
X106250000Y-130860000D01*
X108000000Y-132360000D02*
X107750000Y-130860000D01*
X111000000Y-132360000D02*
X113000000Y-132360000D01*
X111250000Y-130860000D02*
X111000000Y-132360000D01*
X112750000Y-130860000D02*
X111250000Y-130860000D01*
X113000000Y-132360000D02*
X112750000Y-130860000D01*
X103390000Y-120140000D02*
X115610000Y-120140000D01*
X115610000Y-132360000D01*
X103390000Y-132360000D01*
X103390000Y-120140000D01*
X103390000Y-129060000D02*
X115610000Y-129060000D01*
X115610000Y-130860000D01*
X103390000Y-130860000D01*
X103390000Y-129060000D01*
%TO.C,BZ1*%
X141935000Y-98075000D02*
X141935000Y-88875000D01*
X144135000Y-88875000D02*
X141935000Y-88875000D01*
X144135000Y-98075000D02*
X141935000Y-98075000D01*
X148935000Y-88875000D02*
X148935000Y-88475000D01*
X150446600Y-88875000D02*
X148935000Y-88875000D01*
X151135000Y-89563400D02*
X150446600Y-88875000D01*
X151135000Y-89563400D02*
X151135000Y-98075000D01*
X151135000Y-98075000D02*
X148935000Y-98075000D01*
%TO.C,D2*%
X109755000Y-65060000D02*
X109755000Y-67060000D01*
X109755000Y-65060000D02*
X113615000Y-65060000D01*
X109755000Y-67060000D02*
X113615000Y-67060000D01*
%TO.C,R14*%
X166180000Y-100652936D02*
X166180000Y-102107064D01*
X168000000Y-100652936D02*
X168000000Y-102107064D01*
%TO.C,C4*%
X104759000Y-78972000D02*
X104759000Y-78168000D01*
X104799000Y-79203000D02*
X104799000Y-77937000D01*
X104839000Y-79372000D02*
X104839000Y-77768000D01*
X104879000Y-79510000D02*
X104879000Y-77630000D01*
X104919000Y-79629000D02*
X104919000Y-77511000D01*
X104959000Y-79735000D02*
X104959000Y-77405000D01*
X104999000Y-79832000D02*
X104999000Y-77308000D01*
X105039000Y-79920000D02*
X105039000Y-77220000D01*
X105079000Y-80002000D02*
X105079000Y-77138000D01*
X105119000Y-80079000D02*
X105119000Y-77061000D01*
X105159000Y-80151000D02*
X105159000Y-76989000D01*
X105199000Y-80220000D02*
X105199000Y-76920000D01*
X105239000Y-80284000D02*
X105239000Y-76856000D01*
X105279000Y-80346000D02*
X105279000Y-76794000D01*
X105319000Y-80404000D02*
X105319000Y-76736000D01*
X105359000Y-80460000D02*
X105359000Y-76680000D01*
X105399000Y-80514000D02*
X105399000Y-76626000D01*
X105439000Y-80565000D02*
X105439000Y-76575000D01*
X105479000Y-80614000D02*
X105479000Y-76526000D01*
X105519000Y-80662000D02*
X105519000Y-76478000D01*
X105559000Y-80707000D02*
X105559000Y-76433000D01*
X105599000Y-80752000D02*
X105599000Y-76388000D01*
X105639000Y-80794000D02*
X105639000Y-76346000D01*
X105679000Y-80835000D02*
X105679000Y-76305000D01*
X105719000Y-77530000D02*
X105719000Y-76265000D01*
X105719000Y-80875000D02*
X105719000Y-79610000D01*
X105759000Y-77530000D02*
X105759000Y-76227000D01*
X105759000Y-80913000D02*
X105759000Y-79610000D01*
X105799000Y-77530000D02*
X105799000Y-76190000D01*
X105799000Y-80950000D02*
X105799000Y-79610000D01*
X105839000Y-77530000D02*
X105839000Y-76154000D01*
X105839000Y-80986000D02*
X105839000Y-79610000D01*
X105879000Y-77530000D02*
X105879000Y-76120000D01*
X105879000Y-81020000D02*
X105879000Y-79610000D01*
X105919000Y-77530000D02*
X105919000Y-76086000D01*
X105919000Y-81054000D02*
X105919000Y-79610000D01*
X105959000Y-77530000D02*
X105959000Y-76054000D01*
X105959000Y-81086000D02*
X105959000Y-79610000D01*
X105999000Y-77530000D02*
X105999000Y-76022000D01*
X105999000Y-81118000D02*
X105999000Y-79610000D01*
X106039000Y-77530000D02*
X106039000Y-75992000D01*
X106039000Y-81148000D02*
X106039000Y-79610000D01*
X106079000Y-77530000D02*
X106079000Y-75963000D01*
X106079000Y-81177000D02*
X106079000Y-79610000D01*
X106119000Y-77530000D02*
X106119000Y-75934000D01*
X106119000Y-81206000D02*
X106119000Y-79610000D01*
X106159000Y-77530000D02*
X106159000Y-75906000D01*
X106159000Y-81234000D02*
X106159000Y-79610000D01*
X106199000Y-77530000D02*
X106199000Y-75880000D01*
X106199000Y-81260000D02*
X106199000Y-79610000D01*
X106239000Y-77530000D02*
X106239000Y-75854000D01*
X106239000Y-81286000D02*
X106239000Y-79610000D01*
X106279000Y-77530000D02*
X106279000Y-75828000D01*
X106279000Y-81312000D02*
X106279000Y-79610000D01*
X106319000Y-77530000D02*
X106319000Y-75804000D01*
X106319000Y-81336000D02*
X106319000Y-79610000D01*
X106359000Y-77530000D02*
X106359000Y-75780000D01*
X106359000Y-81360000D02*
X106359000Y-79610000D01*
X106399000Y-77530000D02*
X106399000Y-75758000D01*
X106399000Y-81382000D02*
X106399000Y-79610000D01*
X106439000Y-77530000D02*
X106439000Y-75736000D01*
X106439000Y-81404000D02*
X106439000Y-79610000D01*
X106479000Y-77530000D02*
X106479000Y-75714000D01*
X106479000Y-81426000D02*
X106479000Y-79610000D01*
X106519000Y-77530000D02*
X106519000Y-75694000D01*
X106519000Y-81446000D02*
X106519000Y-79610000D01*
X106559000Y-77530000D02*
X106559000Y-75674000D01*
X106559000Y-81466000D02*
X106559000Y-79610000D01*
X106599000Y-77530000D02*
X106599000Y-75654000D01*
X106599000Y-81486000D02*
X106599000Y-79610000D01*
X106639000Y-77530000D02*
X106639000Y-75636000D01*
X106639000Y-81504000D02*
X106639000Y-79610000D01*
X106679000Y-77530000D02*
X106679000Y-75618000D01*
X106679000Y-81522000D02*
X106679000Y-79610000D01*
X106719000Y-77530000D02*
X106719000Y-75600000D01*
X106719000Y-81540000D02*
X106719000Y-79610000D01*
X106759000Y-77530000D02*
X106759000Y-75584000D01*
X106759000Y-81556000D02*
X106759000Y-79610000D01*
X106799000Y-77530000D02*
X106799000Y-75568000D01*
X106799000Y-81572000D02*
X106799000Y-79610000D01*
X106839000Y-77530000D02*
X106839000Y-75552000D01*
X106839000Y-81588000D02*
X106839000Y-79610000D01*
X106879000Y-77530000D02*
X106879000Y-75537000D01*
X106879000Y-81603000D02*
X106879000Y-79610000D01*
X106919000Y-77530000D02*
X106919000Y-75523000D01*
X106919000Y-81617000D02*
X106919000Y-79610000D01*
X106959000Y-77530000D02*
X106959000Y-75509000D01*
X106959000Y-81631000D02*
X106959000Y-79610000D01*
X106999000Y-77530000D02*
X106999000Y-75496000D01*
X106999000Y-81644000D02*
X106999000Y-79610000D01*
X107039000Y-77530000D02*
X107039000Y-75484000D01*
X107039000Y-81656000D02*
X107039000Y-79610000D01*
X107079000Y-77530000D02*
X107079000Y-75472000D01*
X107079000Y-81668000D02*
X107079000Y-79610000D01*
X107119000Y-77530000D02*
X107119000Y-75460000D01*
X107119000Y-81680000D02*
X107119000Y-79610000D01*
X107159000Y-77530000D02*
X107159000Y-75449000D01*
X107159000Y-81691000D02*
X107159000Y-79610000D01*
X107199000Y-77530000D02*
X107199000Y-75439000D01*
X107199000Y-81701000D02*
X107199000Y-79610000D01*
X107239000Y-77530000D02*
X107239000Y-75429000D01*
X107239000Y-81711000D02*
X107239000Y-79610000D01*
X107279000Y-77530000D02*
X107279000Y-75420000D01*
X107279000Y-81720000D02*
X107279000Y-79610000D01*
X107320000Y-77530000D02*
X107320000Y-75411000D01*
X107320000Y-81729000D02*
X107320000Y-79610000D01*
X107360000Y-77530000D02*
X107360000Y-75403000D01*
X107360000Y-81737000D02*
X107360000Y-79610000D01*
X107400000Y-77530000D02*
X107400000Y-75395000D01*
X107400000Y-81745000D02*
X107400000Y-79610000D01*
X107440000Y-77530000D02*
X107440000Y-75388000D01*
X107440000Y-81752000D02*
X107440000Y-79610000D01*
X107480000Y-77530000D02*
X107480000Y-75381000D01*
X107480000Y-81759000D02*
X107480000Y-79610000D01*
X107520000Y-77530000D02*
X107520000Y-75375000D01*
X107520000Y-81765000D02*
X107520000Y-79610000D01*
X107560000Y-77530000D02*
X107560000Y-75369000D01*
X107560000Y-81771000D02*
X107560000Y-79610000D01*
X107600000Y-77530000D02*
X107600000Y-75364000D01*
X107600000Y-81776000D02*
X107600000Y-79610000D01*
X107640000Y-77530000D02*
X107640000Y-75359000D01*
X107640000Y-81781000D02*
X107640000Y-79610000D01*
X107680000Y-77530000D02*
X107680000Y-75355000D01*
X107680000Y-81785000D02*
X107680000Y-79610000D01*
X107720000Y-77530000D02*
X107720000Y-75352000D01*
X107720000Y-81788000D02*
X107720000Y-79610000D01*
X107760000Y-77530000D02*
X107760000Y-75348000D01*
X107760000Y-81792000D02*
X107760000Y-79610000D01*
X107800000Y-81794000D02*
X107800000Y-75346000D01*
X107840000Y-81797000D02*
X107840000Y-75343000D01*
X107880000Y-81798000D02*
X107880000Y-75342000D01*
X107920000Y-81800000D02*
X107920000Y-75340000D01*
X107960000Y-81800000D02*
X107960000Y-75340000D01*
X108000000Y-81800000D02*
X108000000Y-75340000D01*
X111185241Y-80724000D02*
X111185241Y-80094000D01*
X111500241Y-80409000D02*
X110870241Y-80409000D01*
X111270000Y-78570000D02*
G75*
G02*
X104730000Y-78570000I-3270000J0D01*
G01*
X104730000Y-78570000D02*
G75*
G02*
X111270000Y-78570000I3270000J0D01*
G01*
%TO.C,R9*%
X152180000Y-82692936D02*
X152180000Y-84147064D01*
X154000000Y-82692936D02*
X154000000Y-84147064D01*
%TO.C,J10*%
X111720000Y-73790000D02*
X111720000Y-68600000D01*
X114480000Y-68600000D02*
X111720000Y-68600000D01*
X114480000Y-73790000D02*
X111720000Y-73790000D01*
X114480000Y-73790000D02*
X114480000Y-68600000D01*
X114480000Y-75060000D02*
X114480000Y-76440000D01*
X114480000Y-76440000D02*
X113100000Y-76440000D01*
%TO.C,R21*%
X145180000Y-84147064D02*
X145180000Y-82692936D01*
X147000000Y-84147064D02*
X147000000Y-82692936D01*
%TO.C,C8*%
X148680000Y-69131252D02*
X148680000Y-67708748D01*
X150500000Y-69131252D02*
X150500000Y-67708748D01*
%TO.C,LD1*%
X218865000Y-104715000D02*
X218865000Y-108600000D01*
X221135000Y-104715000D02*
X218865000Y-104715000D01*
X221135000Y-108600000D02*
X221135000Y-104715000D01*
D14*
%TO.C,LOGO3*%
G36*
X220225000Y-79678304D02*
G01*
X220225000Y-79803551D01*
X219475000Y-79803551D01*
X218725000Y-79803551D01*
X218725000Y-79678304D01*
X218725000Y-79553058D01*
X219475000Y-79553058D01*
X220225000Y-79553058D01*
X220225000Y-79678304D01*
G37*
G36*
X219825000Y-77558062D02*
G01*
X220015920Y-77567898D01*
X220128878Y-77582849D01*
X220185845Y-77611642D01*
X220208792Y-77663000D01*
X220215952Y-77713293D01*
X220231904Y-77852423D01*
X219490952Y-77838539D01*
X219204706Y-77832550D01*
X219003157Y-77825442D01*
X218871007Y-77814746D01*
X218792963Y-77797994D01*
X218753729Y-77772719D01*
X218738010Y-77736450D01*
X218734616Y-77716479D01*
X218734667Y-77660093D01*
X218767906Y-77624232D01*
X218854381Y-77600802D01*
X219014139Y-77581705D01*
X219084616Y-77575132D01*
X219336629Y-77559979D01*
X219619066Y-77554386D01*
X219825000Y-77558062D01*
G37*
G36*
X219348575Y-80027956D02*
G01*
X219375000Y-80101302D01*
X219420888Y-80222650D01*
X219555012Y-80306080D01*
X219772058Y-80349080D01*
X219911125Y-80354636D01*
X220082112Y-80357020D01*
X220176090Y-80370285D01*
X220216035Y-80403600D01*
X220224924Y-80466133D01*
X220225000Y-80479882D01*
X220225000Y-80605129D01*
X219675000Y-80605129D01*
X219125000Y-80605129D01*
X219125000Y-80479882D01*
X219141694Y-80385725D01*
X219173762Y-80354636D01*
X219197281Y-80314784D01*
X219173762Y-80226128D01*
X219132056Y-80092490D01*
X219144240Y-80025907D01*
X219217752Y-80004703D01*
X219250000Y-80003945D01*
X219348575Y-80027956D01*
G37*
G36*
X219652391Y-75746824D02*
G01*
X219823412Y-75753056D01*
X219936228Y-75767928D01*
X220011733Y-75795110D01*
X220070821Y-75838274D01*
X220102272Y-75868532D01*
X220198097Y-76028761D01*
X220226446Y-76224013D01*
X220185256Y-76413523D01*
X220134149Y-76498161D01*
X220054988Y-76573652D01*
X219978160Y-76572988D01*
X219936701Y-76553415D01*
X219868233Y-76508814D01*
X219859779Y-76457069D01*
X219907406Y-76360748D01*
X219915051Y-76347311D01*
X219972131Y-76216318D01*
X219964298Y-76123126D01*
X219883030Y-76061391D01*
X219719806Y-76024775D01*
X219466103Y-76006934D01*
X219457216Y-76006630D01*
X219025000Y-75992155D01*
X219025000Y-76244598D01*
X219019817Y-76395558D01*
X218997787Y-76471126D01*
X218949184Y-76495854D01*
X218925000Y-76497042D01*
X218873871Y-76488167D01*
X218843871Y-76447701D01*
X218829475Y-76354880D01*
X218825156Y-76188938D01*
X218825000Y-76121302D01*
X218825000Y-75745563D01*
X219402272Y-75745563D01*
X219652391Y-75746824D01*
G37*
G36*
X219062138Y-81627374D02*
G01*
X219101442Y-81663496D01*
X219152391Y-81726242D01*
X219152963Y-81791830D01*
X219103137Y-81901610D01*
X219101327Y-81905121D01*
X219041589Y-82110321D01*
X219070548Y-82295987D01*
X219176912Y-82444127D01*
X219349389Y-82536752D01*
X219511700Y-82558975D01*
X219718341Y-82518344D01*
X219872417Y-82410065D01*
X219962694Y-82254562D01*
X219977938Y-82072254D01*
X219906918Y-81883565D01*
X219893919Y-81864099D01*
X219841317Y-81774326D01*
X219852064Y-81713987D01*
X219894117Y-81666672D01*
X219958235Y-81616525D01*
X220015971Y-81631709D01*
X220083338Y-81693387D01*
X220171860Y-81843145D01*
X220214293Y-82045092D01*
X220208423Y-82261379D01*
X220152035Y-82454156D01*
X220130170Y-82493630D01*
X219949162Y-82696107D01*
X219720645Y-82817358D01*
X219463323Y-82850579D01*
X219256194Y-82811516D01*
X219054566Y-82696557D01*
X218908478Y-82517208D01*
X218824167Y-82296250D01*
X218807866Y-82056464D01*
X218865811Y-81820633D01*
X218946480Y-81679935D01*
X219007837Y-81613474D01*
X219062138Y-81627374D01*
G37*
G36*
X219852600Y-74450111D02*
G01*
X220026564Y-74546154D01*
X220156602Y-74709833D01*
X220221196Y-74911134D01*
X220224626Y-74969034D01*
X220197915Y-75116142D01*
X220133053Y-75269557D01*
X220127413Y-75279076D01*
X219981830Y-75428217D01*
X219782693Y-75504594D01*
X219638287Y-75502245D01*
X219552207Y-75500844D01*
X219497399Y-75487957D01*
X219311854Y-75386861D01*
X219222586Y-75279076D01*
X219137525Y-75059864D01*
X219138428Y-74969034D01*
X219375000Y-74969034D01*
X219405026Y-75132497D01*
X219499907Y-75221628D01*
X219638287Y-75244577D01*
X219827756Y-75216523D01*
X219938373Y-75129794D01*
X219974989Y-74980541D01*
X219975000Y-74977291D01*
X219957630Y-74845070D01*
X219915775Y-74754400D01*
X219915000Y-74753610D01*
X219816295Y-74709437D01*
X219670586Y-74695290D01*
X219526272Y-74711169D01*
X219434999Y-74753610D01*
X219391965Y-74844084D01*
X219375000Y-74969034D01*
X219138428Y-74969034D01*
X219139613Y-74849807D01*
X219216273Y-74665456D01*
X219354925Y-74523359D01*
X219542993Y-74440068D01*
X219767898Y-74432131D01*
X219852600Y-74450111D01*
G37*
G36*
X220184677Y-76711618D02*
G01*
X220221247Y-76810175D01*
X220209366Y-76939357D01*
X220148692Y-77070463D01*
X220105378Y-77122440D01*
X220015977Y-77195820D01*
X219912533Y-77234049D01*
X219759367Y-77247634D01*
X219677272Y-77248521D01*
X219502329Y-77254216D01*
X219408082Y-77274420D01*
X219375709Y-77313811D01*
X219375000Y-77323669D01*
X219337516Y-77382601D01*
X219254260Y-77395924D01*
X219169020Y-77362599D01*
X219139984Y-77329254D01*
X219060653Y-77262275D01*
X219000000Y-77240895D01*
X218918274Y-77186669D01*
X218894768Y-77093512D01*
X218928099Y-77002948D01*
X219009425Y-76957374D01*
X219108376Y-76899503D01*
X219134425Y-76832127D01*
X219192025Y-76733273D01*
X219262500Y-76706477D01*
X219346531Y-76713197D01*
X219373991Y-76784688D01*
X219375000Y-76819199D01*
X219381022Y-76890817D01*
X219414848Y-76929307D01*
X219500113Y-76944925D01*
X219660452Y-76947927D01*
X219671678Y-76947930D01*
X219837131Y-76945235D01*
X219927582Y-76929809D01*
X219968016Y-76890636D01*
X219983417Y-76816702D01*
X219984178Y-76810158D01*
X220020594Y-76702707D01*
X220100000Y-76672387D01*
X220184677Y-76711618D01*
G37*
G36*
X220156946Y-80801064D02*
G01*
X220196770Y-80840206D01*
X220223695Y-81024903D01*
X220172305Y-81194935D01*
X220125000Y-81256411D01*
X220042350Y-81315345D01*
X219924821Y-81346316D01*
X219742610Y-81356445D01*
X219705831Y-81356608D01*
X219528901Y-81360620D01*
X219427684Y-81377322D01*
X219378051Y-81413716D01*
X219360512Y-81456805D01*
X219303803Y-81538307D01*
X219250000Y-81557003D01*
X219170393Y-81514913D01*
X219139487Y-81456805D01*
X219072601Y-81372634D01*
X218994168Y-81356608D01*
X218903032Y-81334443D01*
X218875323Y-81249419D01*
X218875000Y-81231362D01*
X218895651Y-81136023D01*
X218976964Y-81106644D01*
X219000000Y-81106115D01*
X219095150Y-81085423D01*
X219124472Y-81003949D01*
X219125000Y-80980868D01*
X219145651Y-80885530D01*
X219226964Y-80856151D01*
X219250000Y-80855622D01*
X219345150Y-80876314D01*
X219374472Y-80957787D01*
X219375000Y-80980868D01*
X219382199Y-81052773D01*
X219420163Y-81090109D01*
X219513434Y-81104128D01*
X219648240Y-81106115D01*
X219822090Y-81097575D01*
X219921501Y-81067461D01*
X219966484Y-81018442D01*
X219995012Y-80918460D01*
X219991199Y-80874525D01*
X220007961Y-80818343D01*
X220077989Y-80791389D01*
X220156946Y-80801064D01*
G37*
G36*
X220042362Y-73192118D02*
G01*
X220153504Y-73201606D01*
X220206908Y-73226101D01*
X220223704Y-73272702D01*
X220225000Y-73315780D01*
X220219378Y-73382848D01*
X220187527Y-73420345D01*
X220106964Y-73436850D01*
X219955206Y-73440938D01*
X219896712Y-73441026D01*
X219652766Y-73452008D01*
X219493465Y-73489091D01*
X219405449Y-73558477D01*
X219375354Y-73666373D01*
X219375000Y-73683262D01*
X219390755Y-73804721D01*
X219449118Y-73882222D01*
X219566732Y-73924644D01*
X219760244Y-73940869D01*
X219859999Y-73942012D01*
X220047599Y-73943636D01*
X220156554Y-73953454D01*
X220208215Y-73978884D01*
X220223936Y-74027345D01*
X220225000Y-74068831D01*
X220201693Y-74174165D01*
X220158749Y-74221123D01*
X220082002Y-74230797D01*
X219931418Y-74235517D01*
X219733063Y-74234752D01*
X219621820Y-74232075D01*
X219399662Y-74223047D01*
X219258450Y-74209732D01*
X219179131Y-74187892D01*
X219142651Y-74153288D01*
X219133151Y-74123361D01*
X219145530Y-74027344D01*
X219175242Y-73991961D01*
X219209978Y-73936128D01*
X219180162Y-73851480D01*
X219130010Y-73667926D01*
X219156214Y-73481580D01*
X219249233Y-73324940D01*
X219357866Y-73246156D01*
X219467560Y-73218589D01*
X219640791Y-73198692D01*
X219841157Y-73190558D01*
X219852352Y-73190533D01*
X220042362Y-73192118D01*
G37*
G36*
X220225000Y-78095640D02*
G01*
X220208717Y-78201396D01*
X220141024Y-78264612D01*
X220050000Y-78300592D01*
X219875000Y-78358461D01*
X219875000Y-78682774D01*
X219877132Y-78858183D01*
X219891719Y-78961298D01*
X219931041Y-79020022D01*
X220007380Y-79062255D01*
X220050000Y-79080350D01*
X220174176Y-79151084D01*
X220222005Y-79238353D01*
X220225000Y-79278188D01*
X220209076Y-79372036D01*
X220178733Y-79402762D01*
X220118344Y-79383910D01*
X219984119Y-79332130D01*
X219793869Y-79254583D01*
X219675000Y-79204556D01*
X219565402Y-79158430D01*
X219478733Y-79121287D01*
X219220891Y-79009062D01*
X219041366Y-78926160D01*
X218926086Y-78863557D01*
X218860982Y-78812226D01*
X218831985Y-78763140D01*
X218825026Y-78707273D01*
X218825000Y-78701881D01*
X218825056Y-78701381D01*
X219125000Y-78701381D01*
X219165889Y-78745741D01*
X219212500Y-78765240D01*
X219314171Y-78801221D01*
X219455008Y-78858044D01*
X219487500Y-78871952D01*
X219675000Y-78953219D01*
X219675000Y-78701381D01*
X219675000Y-78449543D01*
X219487500Y-78530810D01*
X219345018Y-78589572D01*
X219229716Y-78632142D01*
X219212500Y-78637523D01*
X219138539Y-78676982D01*
X219125000Y-78701381D01*
X218825056Y-78701381D01*
X218832141Y-78638450D01*
X218864065Y-78584510D01*
X218936520Y-78528781D01*
X219065253Y-78459980D01*
X219266012Y-78366827D01*
X219337500Y-78334745D01*
X219566454Y-78232833D01*
X219781412Y-78138004D01*
X219954111Y-78062680D01*
X220037500Y-78027048D01*
X220225000Y-77948557D01*
X220225000Y-78095640D01*
G37*
G36*
X215704991Y-76291767D02*
G01*
X215721348Y-76408044D01*
X215725000Y-76512718D01*
X215733343Y-76682756D01*
X215768803Y-76796031D01*
X215847020Y-76895318D01*
X215875000Y-76922880D01*
X216025000Y-77066873D01*
X216025000Y-78581654D01*
X216025000Y-80096435D01*
X216175000Y-80246731D01*
X216300089Y-80429660D01*
X216328140Y-80622020D01*
X216259077Y-80810953D01*
X216178846Y-80909574D01*
X215998297Y-81030753D01*
X215831645Y-81051536D01*
X215803085Y-81055098D01*
X215605391Y-80982296D01*
X215528836Y-80926316D01*
X215424242Y-80817215D01*
X215381123Y-80696695D01*
X215375000Y-80584999D01*
X215375543Y-80580079D01*
X215700000Y-80580079D01*
X215734980Y-80706171D01*
X215831645Y-80757316D01*
X215952920Y-80736185D01*
X216013923Y-80668186D01*
X216016586Y-80562927D01*
X215960991Y-80464464D01*
X215952401Y-80456830D01*
X215836780Y-80405761D01*
X215744778Y-80442912D01*
X215700913Y-80556311D01*
X215700000Y-80580079D01*
X215375543Y-80580079D01*
X215393279Y-80419326D01*
X215463866Y-80293634D01*
X215525000Y-80229389D01*
X215675000Y-80085397D01*
X215675000Y-78641910D01*
X215674438Y-78273237D01*
X215672849Y-77939327D01*
X215670380Y-77652673D01*
X215667178Y-77425771D01*
X215663387Y-77271116D01*
X215659156Y-77201204D01*
X215658105Y-77198423D01*
X215603612Y-77218198D01*
X215482016Y-77270414D01*
X215316485Y-77344408D01*
X215130190Y-77429516D01*
X214946300Y-77515074D01*
X214787984Y-77590418D01*
X214678413Y-77644884D01*
X214641251Y-77666426D01*
X214669749Y-77698729D01*
X214771531Y-77759757D01*
X214927915Y-77838885D01*
X215017946Y-77880653D01*
X215425000Y-78064462D01*
X215425000Y-78529693D01*
X215425000Y-78994924D01*
X214562500Y-78580230D01*
X213700000Y-78165537D01*
X213685663Y-77679849D01*
X213671327Y-77194162D01*
X214653111Y-76720355D01*
X214942711Y-76581553D01*
X215202611Y-76458805D01*
X215419131Y-76358425D01*
X215578590Y-76286726D01*
X215667307Y-76250020D01*
X215679947Y-76246549D01*
X215704991Y-76291767D01*
G37*
G36*
X215777594Y-73266118D02*
G01*
X216141935Y-73267827D01*
X216429768Y-73271403D01*
X216652838Y-73277440D01*
X216822890Y-73286534D01*
X216951668Y-73299279D01*
X217050918Y-73316271D01*
X217132384Y-73338106D01*
X217195179Y-73360436D01*
X217480766Y-73514601D01*
X217734813Y-73733460D01*
X217924714Y-73988350D01*
X217938413Y-74013743D01*
X218007004Y-74211861D01*
X218050834Y-74475340D01*
X218068883Y-74772206D01*
X218060129Y-75070487D01*
X218023552Y-75338210D01*
X217985189Y-75478414D01*
X217799838Y-75853444D01*
X217527613Y-76179602D01*
X217168067Y-76457380D01*
X217008572Y-76550287D01*
X216717144Y-76707508D01*
X216596072Y-76593542D01*
X216527581Y-76514066D01*
X216490785Y-76418336D01*
X216476538Y-76273623D01*
X216475000Y-76160338D01*
X216477958Y-75985102D01*
X216494515Y-75880593D01*
X216536187Y-75817364D01*
X216614496Y-75765965D01*
X216633260Y-75755757D01*
X216852088Y-75611591D01*
X217042982Y-75437894D01*
X217180854Y-75259787D01*
X217228045Y-75160183D01*
X217268228Y-74931216D01*
X217250444Y-74699102D01*
X217180139Y-74499520D01*
X217113352Y-74408556D01*
X217036180Y-74343419D01*
X216941746Y-74292681D01*
X216817370Y-74254610D01*
X216650370Y-74227480D01*
X216428064Y-74209560D01*
X216137773Y-74199123D01*
X215766814Y-74194438D01*
X215537500Y-74193701D01*
X214475000Y-74192505D01*
X214474999Y-74982936D01*
X214472710Y-75317537D01*
X214462897Y-75566727D01*
X214441143Y-75745243D01*
X214403031Y-75867823D01*
X214344145Y-75949204D01*
X214260067Y-76004124D01*
X214157047Y-76043824D01*
X214004371Y-76062338D01*
X213949128Y-76069037D01*
X213765400Y-75997721D01*
X213631566Y-75867794D01*
X213545178Y-75689491D01*
X213540298Y-75615420D01*
X213835087Y-75615420D01*
X213891338Y-75709126D01*
X214004371Y-75744596D01*
X214102920Y-75726323D01*
X214165222Y-75658305D01*
X214172567Y-75553971D01*
X214129332Y-75457659D01*
X214072600Y-75419159D01*
X213947689Y-75421974D01*
X213858129Y-75497015D01*
X213835087Y-75615420D01*
X213540298Y-75615420D01*
X213532214Y-75492697D01*
X213595007Y-75317145D01*
X213598900Y-75311451D01*
X213626334Y-75250411D01*
X213647398Y-75147423D01*
X213663125Y-74989812D01*
X213674545Y-74764902D01*
X213682689Y-74460018D01*
X213686400Y-74235708D01*
X213700000Y-73265681D01*
X215325000Y-73265681D01*
X215777594Y-73266118D01*
G37*
G36*
X216196646Y-74519726D02*
G01*
X216364623Y-74589759D01*
X216493751Y-74732238D01*
X216502357Y-74748159D01*
X216568330Y-74950027D01*
X216540970Y-75134609D01*
X216424999Y-75312070D01*
X216359148Y-75391179D01*
X216316087Y-75463969D01*
X216290978Y-75553617D01*
X216278985Y-75683300D01*
X216275269Y-75876195D01*
X216274999Y-76030679D01*
X216275000Y-76578110D01*
X216671260Y-76938365D01*
X216858693Y-77104291D01*
X216994897Y-77211103D01*
X217099044Y-77270848D01*
X217190304Y-77295576D01*
X217244501Y-77298620D01*
X217390946Y-77276026D01*
X217474128Y-77199875D01*
X217477265Y-77194181D01*
X217583670Y-77084358D01*
X217746514Y-77006228D01*
X217923235Y-76977350D01*
X217988060Y-76983480D01*
X218112528Y-77039434D01*
X218236140Y-77141779D01*
X218250548Y-77158113D01*
X218355781Y-77350811D01*
X218367036Y-77553400D01*
X218284194Y-77746269D01*
X218254329Y-77784288D01*
X218096703Y-77897700D01*
X217954776Y-77924865D01*
X217903740Y-77934634D01*
X217704846Y-77894976D01*
X217538047Y-77787081D01*
X217422882Y-77697695D01*
X217294949Y-77657344D01*
X217146325Y-77649310D01*
X217045648Y-77647361D01*
X216964197Y-77634147D01*
X216885381Y-77598619D01*
X216792609Y-77529728D01*
X216709938Y-77453770D01*
X217727878Y-77453770D01*
X217742095Y-77554506D01*
X217820120Y-77622639D01*
X217824492Y-77624100D01*
X217954776Y-77625998D01*
X218041841Y-77557646D01*
X218064691Y-77446204D01*
X218031079Y-77356860D01*
X217953673Y-77311081D01*
X217869345Y-77306761D01*
X217772088Y-77358499D01*
X217727878Y-77453770D01*
X216709938Y-77453770D01*
X216669291Y-77416423D01*
X216498837Y-77247656D01*
X216411561Y-77159952D01*
X216060304Y-76806677D01*
X215925000Y-76670595D01*
X215925000Y-76059545D01*
X215923823Y-75801571D01*
X215918406Y-75625678D01*
X215905919Y-75513757D01*
X215883532Y-75447703D01*
X215848416Y-75409409D01*
X215820767Y-75392603D01*
X215714060Y-75289001D01*
X215634920Y-75130765D01*
X215604026Y-74971905D01*
X215925000Y-74971905D01*
X215964209Y-75092884D01*
X216060304Y-75156137D01*
X216180980Y-75141077D01*
X216186208Y-75138369D01*
X216262264Y-75051870D01*
X216262618Y-74942429D01*
X216188337Y-74851306D01*
X216178622Y-74845730D01*
X216050407Y-74815649D01*
X215957742Y-74865050D01*
X215925000Y-74971905D01*
X215604026Y-74971905D01*
X215602311Y-74963088D01*
X215609522Y-74889255D01*
X215696257Y-74706903D01*
X215838798Y-74582038D01*
X216013483Y-74518399D01*
X216196646Y-74519726D01*
G37*
G36*
X216475000Y-77524064D02*
G01*
X216725000Y-77770790D01*
X216725000Y-78200284D01*
X216725000Y-78629777D01*
X217044818Y-78787798D01*
X217352411Y-78962122D01*
X217584880Y-79151597D01*
X217766756Y-79379715D01*
X217886472Y-79593863D01*
X217960048Y-79751351D01*
X218008427Y-79884936D01*
X218037631Y-80024728D01*
X218053685Y-80200837D01*
X218062611Y-80443373D01*
X218063500Y-80478828D01*
X218065729Y-80765209D01*
X218054477Y-80979312D01*
X218027166Y-81148457D01*
X217987694Y-81282114D01*
X217786031Y-81719265D01*
X217516554Y-82083540D01*
X217176025Y-82378568D01*
X216833980Y-82574929D01*
X216671948Y-82646935D01*
X216530949Y-82694364D01*
X216380102Y-82723311D01*
X216188525Y-82739870D01*
X215950000Y-82749396D01*
X215677768Y-82753876D01*
X215475109Y-82745965D01*
X215312034Y-82722651D01*
X215158556Y-82680921D01*
X215112563Y-82665297D01*
X214690197Y-82468636D01*
X214336124Y-82203266D01*
X214317133Y-82181307D01*
X214053591Y-81876582D01*
X213845845Y-81495979D01*
X213716134Y-81068852D01*
X213667704Y-80602597D01*
X213703802Y-80104607D01*
X213799553Y-79675002D01*
X213849781Y-79502959D01*
X214200000Y-79502959D01*
X214234262Y-79622408D01*
X214317133Y-79686030D01*
X214418736Y-79675135D01*
X214445808Y-79656740D01*
X214512141Y-79561533D01*
X214525000Y-79502959D01*
X214488932Y-79399315D01*
X214445808Y-79349178D01*
X214344283Y-79314680D01*
X214253330Y-79359804D01*
X214202826Y-79465860D01*
X214200000Y-79502959D01*
X213849781Y-79502959D01*
X213865143Y-79450339D01*
X213913646Y-79301458D01*
X213956336Y-79208056D01*
X214004488Y-79149832D01*
X214069376Y-79106483D01*
X214134244Y-79072331D01*
X214331598Y-79015031D01*
X214511899Y-79040812D01*
X214662625Y-79132661D01*
X214771251Y-79273567D01*
X214825256Y-79446514D01*
X214812116Y-79634492D01*
X214719307Y-79820486D01*
X214701406Y-79842839D01*
X214575722Y-80024218D01*
X214504531Y-80218914D01*
X214476622Y-80462433D01*
X214474999Y-80559901D01*
X214500893Y-80859472D01*
X214587900Y-81108518D01*
X214750007Y-81344888D01*
X214776511Y-81375728D01*
X214953121Y-81551873D01*
X215135439Y-81671115D01*
X215348290Y-81742860D01*
X215616504Y-81776515D01*
X215850000Y-81782446D01*
X216086944Y-81780024D01*
X216253801Y-81768907D01*
X216380436Y-81743319D01*
X216496721Y-81697483D01*
X216617400Y-81634041D01*
X216891023Y-81427654D01*
X217096751Y-81158934D01*
X217225391Y-80846545D01*
X217267750Y-80509149D01*
X217254308Y-80340914D01*
X217196466Y-80111795D01*
X217089352Y-79925257D01*
X216917386Y-79762784D01*
X216664987Y-79605862D01*
X216612383Y-79578107D01*
X216225258Y-79377713D01*
X216225129Y-78327525D01*
X216225000Y-77277337D01*
X216475000Y-77524064D01*
G37*
D11*
%TO.C,J11*%
X132950000Y-69550000D02*
X138950000Y-69550000D01*
X132950000Y-70410000D02*
X132950000Y-69550000D01*
X132950000Y-72090000D02*
X138950000Y-72090000D01*
X132950000Y-72950000D02*
X132950000Y-72090000D01*
X138950000Y-70410000D02*
X132950000Y-70410000D01*
X138950000Y-72950000D02*
X132950000Y-72950000D01*
X141710000Y-71250000D02*
X138950000Y-71250000D01*
X141710000Y-73790000D02*
X138950000Y-73790000D01*
X141940000Y-74630000D02*
X141710000Y-74630000D01*
X141940000Y-75490000D02*
X141710000Y-75490000D01*
X142022642Y-69550000D02*
X141710000Y-69550000D01*
X142022642Y-70410000D02*
X141710000Y-70410000D01*
X142022642Y-72090000D02*
X141710000Y-72090000D01*
X142022642Y-72950000D02*
X141710000Y-72950000D01*
X144370000Y-75060000D02*
X144370000Y-76330000D01*
X144370000Y-76330000D02*
X143100000Y-76330000D01*
X138950000Y-75490000D02*
X132950000Y-75490000D01*
X132950000Y-74630000D01*
X138950000Y-74630000D01*
X138950000Y-75490000D01*
G36*
X138950000Y-75490000D02*
G01*
X132950000Y-75490000D01*
X132950000Y-74630000D01*
X138950000Y-74630000D01*
X138950000Y-75490000D01*
G37*
X141710000Y-76440000D02*
X138950000Y-76440000D01*
X138950000Y-68600000D01*
X141710000Y-68600000D01*
X141710000Y-76440000D01*
D14*
%TO.C,LOGO2*%
G36*
X154997521Y-117442786D02*
G01*
X154997521Y-118192786D01*
X154872275Y-118192786D01*
X154747028Y-118192786D01*
X154747028Y-117442786D01*
X154747028Y-116692786D01*
X154872275Y-116692786D01*
X154997521Y-116692786D01*
X154997521Y-117442786D01*
G37*
G36*
X156890486Y-116702453D02*
G01*
X156926347Y-116735692D01*
X156949777Y-116822167D01*
X156968874Y-116981925D01*
X156975447Y-117052402D01*
X156990600Y-117304415D01*
X156996193Y-117586852D01*
X156992517Y-117792786D01*
X156982681Y-117983706D01*
X156967730Y-118096664D01*
X156938937Y-118153631D01*
X156887579Y-118176578D01*
X156837286Y-118183738D01*
X156698156Y-118199690D01*
X156712040Y-117458738D01*
X156718029Y-117172492D01*
X156725137Y-116970943D01*
X156735833Y-116838793D01*
X156752585Y-116760749D01*
X156777860Y-116721515D01*
X156814129Y-116705796D01*
X156834100Y-116702402D01*
X156890486Y-116702453D01*
G37*
G36*
X154164854Y-117109480D02*
G01*
X154195943Y-117141548D01*
X154235795Y-117165067D01*
X154324451Y-117141548D01*
X154458089Y-117099842D01*
X154524672Y-117112026D01*
X154545876Y-117185538D01*
X154546634Y-117217786D01*
X154522623Y-117316361D01*
X154449277Y-117342786D01*
X154327929Y-117388674D01*
X154244499Y-117522798D01*
X154201499Y-117739844D01*
X154195943Y-117878911D01*
X154193559Y-118049898D01*
X154180294Y-118143876D01*
X154146979Y-118183821D01*
X154084446Y-118192710D01*
X154070697Y-118192786D01*
X153945450Y-118192786D01*
X153945450Y-117642786D01*
X153945450Y-117092786D01*
X154070697Y-117092786D01*
X154164854Y-117109480D01*
G37*
G36*
X158805016Y-117370058D02*
G01*
X158803755Y-117620177D01*
X158797523Y-117791198D01*
X158782651Y-117904014D01*
X158755469Y-117979519D01*
X158712305Y-118038607D01*
X158682047Y-118070058D01*
X158521818Y-118165883D01*
X158326566Y-118194232D01*
X158137056Y-118153042D01*
X158052418Y-118101935D01*
X157976927Y-118022774D01*
X157977591Y-117945946D01*
X157997164Y-117904487D01*
X158041765Y-117836019D01*
X158093510Y-117827565D01*
X158189831Y-117875192D01*
X158203268Y-117882837D01*
X158334261Y-117939917D01*
X158427453Y-117932084D01*
X158489188Y-117850816D01*
X158525804Y-117687592D01*
X158543645Y-117433889D01*
X158543949Y-117425002D01*
X158558424Y-116992786D01*
X158305981Y-116992786D01*
X158155021Y-116987603D01*
X158079453Y-116965573D01*
X158054725Y-116916970D01*
X158053537Y-116892786D01*
X158062412Y-116841657D01*
X158102878Y-116811657D01*
X158195699Y-116797261D01*
X158361641Y-116792942D01*
X158429277Y-116792786D01*
X158805016Y-116792786D01*
X158805016Y-117370058D01*
G37*
G36*
X152729946Y-116833597D02*
G01*
X152870644Y-116914266D01*
X152937105Y-116975623D01*
X152923205Y-117029924D01*
X152887083Y-117069228D01*
X152824337Y-117120177D01*
X152758749Y-117120749D01*
X152648969Y-117070923D01*
X152645458Y-117069113D01*
X152440258Y-117009375D01*
X152254592Y-117038334D01*
X152106452Y-117144698D01*
X152013827Y-117317175D01*
X151991604Y-117479486D01*
X152032235Y-117686127D01*
X152140514Y-117840203D01*
X152296017Y-117930480D01*
X152478325Y-117945724D01*
X152667014Y-117874704D01*
X152686480Y-117861705D01*
X152776253Y-117809103D01*
X152836592Y-117819850D01*
X152883907Y-117861903D01*
X152934054Y-117926021D01*
X152918870Y-117983757D01*
X152857192Y-118051124D01*
X152707434Y-118139646D01*
X152505487Y-118182079D01*
X152289200Y-118176209D01*
X152096423Y-118119821D01*
X152056949Y-118097956D01*
X151854472Y-117916948D01*
X151733221Y-117688431D01*
X151700000Y-117431109D01*
X151739063Y-117223980D01*
X151854022Y-117022352D01*
X152033371Y-116876264D01*
X152254329Y-116791953D01*
X152494115Y-116775652D01*
X152729946Y-116833597D01*
G37*
G36*
X159700772Y-117107399D02*
G01*
X159885123Y-117184059D01*
X160027220Y-117322711D01*
X160110511Y-117510779D01*
X160118448Y-117735684D01*
X160100468Y-117820386D01*
X160004425Y-117994350D01*
X159840746Y-118124388D01*
X159639445Y-118188982D01*
X159581545Y-118192412D01*
X159434437Y-118165701D01*
X159281022Y-118100839D01*
X159271503Y-118095199D01*
X159122362Y-117949616D01*
X159045985Y-117750479D01*
X159048334Y-117606073D01*
X159306002Y-117606073D01*
X159334056Y-117795542D01*
X159420785Y-117906159D01*
X159570038Y-117942775D01*
X159573288Y-117942786D01*
X159705509Y-117925416D01*
X159796179Y-117883561D01*
X159796969Y-117882786D01*
X159841142Y-117784081D01*
X159855289Y-117638372D01*
X159839410Y-117494058D01*
X159796969Y-117402785D01*
X159706495Y-117359751D01*
X159581545Y-117342786D01*
X159418082Y-117372812D01*
X159328951Y-117467693D01*
X159306002Y-117606073D01*
X159048334Y-117606073D01*
X159049735Y-117519993D01*
X159062622Y-117465185D01*
X159163718Y-117279640D01*
X159271503Y-117190372D01*
X159490715Y-117105311D01*
X159700772Y-117107399D01*
G37*
G36*
X157547631Y-116895885D02*
G01*
X157593205Y-116977211D01*
X157651076Y-117076162D01*
X157718452Y-117102211D01*
X157817306Y-117159811D01*
X157844102Y-117230286D01*
X157837382Y-117314317D01*
X157765891Y-117341777D01*
X157731380Y-117342786D01*
X157659762Y-117348808D01*
X157621272Y-117382634D01*
X157605654Y-117467899D01*
X157602652Y-117628238D01*
X157602649Y-117639464D01*
X157605344Y-117804917D01*
X157620770Y-117895368D01*
X157659943Y-117935802D01*
X157733877Y-117951203D01*
X157740421Y-117951964D01*
X157847872Y-117988380D01*
X157878192Y-118067786D01*
X157838961Y-118152463D01*
X157740404Y-118189033D01*
X157611222Y-118177152D01*
X157480116Y-118116478D01*
X157428139Y-118073164D01*
X157354759Y-117983763D01*
X157316530Y-117880319D01*
X157302945Y-117727153D01*
X157302058Y-117645058D01*
X157296363Y-117470115D01*
X157276159Y-117375868D01*
X157236768Y-117343495D01*
X157226910Y-117342786D01*
X157167978Y-117305302D01*
X157154655Y-117222046D01*
X157187980Y-117136806D01*
X157221325Y-117107770D01*
X157288304Y-117028439D01*
X157309684Y-116967786D01*
X157363910Y-116886060D01*
X157457067Y-116862554D01*
X157547631Y-116895885D01*
G37*
G36*
X153414556Y-116863437D02*
G01*
X153443935Y-116944750D01*
X153444464Y-116967786D01*
X153465156Y-117062936D01*
X153546630Y-117092258D01*
X153569711Y-117092786D01*
X153665049Y-117113437D01*
X153694428Y-117194750D01*
X153694957Y-117217786D01*
X153674265Y-117312936D01*
X153592792Y-117342258D01*
X153569711Y-117342786D01*
X153497806Y-117349985D01*
X153460470Y-117387949D01*
X153446451Y-117481220D01*
X153444464Y-117616026D01*
X153453004Y-117789876D01*
X153483118Y-117889287D01*
X153532137Y-117934270D01*
X153632119Y-117962798D01*
X153676054Y-117958985D01*
X153732236Y-117975747D01*
X153759190Y-118045775D01*
X153749515Y-118124732D01*
X153710373Y-118164556D01*
X153525676Y-118191481D01*
X153355644Y-118140091D01*
X153294168Y-118092786D01*
X153235234Y-118010136D01*
X153204263Y-117892607D01*
X153194134Y-117710396D01*
X153193971Y-117673617D01*
X153189959Y-117496687D01*
X153173257Y-117395470D01*
X153136863Y-117345837D01*
X153093774Y-117328298D01*
X153012272Y-117271589D01*
X152993576Y-117217786D01*
X153035666Y-117138179D01*
X153093774Y-117107273D01*
X153177945Y-117040387D01*
X153193971Y-116961954D01*
X153216136Y-116870818D01*
X153301160Y-116843109D01*
X153319217Y-116842786D01*
X153414556Y-116863437D01*
G37*
G36*
X161068999Y-117124000D02*
G01*
X161225639Y-117217019D01*
X161304423Y-117325652D01*
X161331990Y-117435346D01*
X161351887Y-117608577D01*
X161360021Y-117808943D01*
X161360046Y-117820138D01*
X161358461Y-118010148D01*
X161348973Y-118121290D01*
X161324478Y-118174694D01*
X161277877Y-118191490D01*
X161234799Y-118192786D01*
X161167731Y-118187164D01*
X161130234Y-118155313D01*
X161113729Y-118074750D01*
X161109641Y-117922992D01*
X161109553Y-117864498D01*
X161098571Y-117620552D01*
X161061488Y-117461251D01*
X160992102Y-117373235D01*
X160884206Y-117343140D01*
X160867317Y-117342786D01*
X160745858Y-117358541D01*
X160668357Y-117416904D01*
X160625935Y-117534518D01*
X160609710Y-117728030D01*
X160608567Y-117827785D01*
X160606943Y-118015385D01*
X160597125Y-118124340D01*
X160571695Y-118176001D01*
X160523234Y-118191722D01*
X160481748Y-118192786D01*
X160376414Y-118169479D01*
X160329456Y-118126535D01*
X160319782Y-118049788D01*
X160315062Y-117899204D01*
X160315827Y-117700849D01*
X160318504Y-117589606D01*
X160327532Y-117367448D01*
X160340847Y-117226236D01*
X160362687Y-117146917D01*
X160397291Y-117110437D01*
X160427218Y-117100937D01*
X160523235Y-117113316D01*
X160558618Y-117143028D01*
X160614451Y-117177764D01*
X160699099Y-117147948D01*
X160882653Y-117097796D01*
X161068999Y-117124000D01*
G37*
G36*
X155912129Y-116799927D02*
G01*
X155966069Y-116831851D01*
X156021798Y-116904306D01*
X156090599Y-117033039D01*
X156183752Y-117233798D01*
X156215834Y-117305286D01*
X156317746Y-117534240D01*
X156412575Y-117749198D01*
X156487899Y-117921897D01*
X156523531Y-118005286D01*
X156602022Y-118192786D01*
X156454939Y-118192786D01*
X156349183Y-118176503D01*
X156285967Y-118108810D01*
X156249987Y-118017786D01*
X156192118Y-117842786D01*
X155867805Y-117842786D01*
X155692396Y-117844918D01*
X155589281Y-117859505D01*
X155530557Y-117898827D01*
X155488324Y-117975166D01*
X155470229Y-118017786D01*
X155399495Y-118141962D01*
X155312226Y-118189791D01*
X155272391Y-118192786D01*
X155178543Y-118176862D01*
X155147817Y-118146519D01*
X155166669Y-118086130D01*
X155218449Y-117951905D01*
X155295996Y-117761655D01*
X155346023Y-117642786D01*
X155597360Y-117642786D01*
X155849198Y-117642786D01*
X156101036Y-117642786D01*
X156019769Y-117455286D01*
X155961007Y-117312804D01*
X155918437Y-117197502D01*
X155913056Y-117180286D01*
X155873597Y-117106325D01*
X155849198Y-117092786D01*
X155804838Y-117133675D01*
X155785339Y-117180286D01*
X155749358Y-117281957D01*
X155692535Y-117422794D01*
X155678627Y-117455286D01*
X155597360Y-117642786D01*
X155346023Y-117642786D01*
X155392149Y-117533188D01*
X155429292Y-117446519D01*
X155541517Y-117188677D01*
X155624419Y-117009152D01*
X155687022Y-116893872D01*
X155738353Y-116828768D01*
X155787439Y-116799771D01*
X155843306Y-116792812D01*
X155848698Y-116792786D01*
X155912129Y-116799927D01*
G37*
G36*
X157830224Y-112620897D02*
G01*
X157969026Y-112910497D01*
X158091774Y-113170397D01*
X158192154Y-113386917D01*
X158263853Y-113546376D01*
X158300559Y-113635093D01*
X158304030Y-113647733D01*
X158258812Y-113672777D01*
X158142535Y-113689134D01*
X158037861Y-113692786D01*
X157867823Y-113701129D01*
X157754548Y-113736589D01*
X157655261Y-113814806D01*
X157627699Y-113842786D01*
X157483706Y-113992786D01*
X155968925Y-113992786D01*
X154454144Y-113992786D01*
X154303848Y-114142786D01*
X154120919Y-114267875D01*
X153928559Y-114295926D01*
X153739626Y-114226863D01*
X153641005Y-114146632D01*
X153519826Y-113966083D01*
X153499043Y-113799431D01*
X153793263Y-113799431D01*
X153814394Y-113920706D01*
X153882393Y-113981709D01*
X153987652Y-113984372D01*
X154086115Y-113928777D01*
X154093749Y-113920187D01*
X154144818Y-113804566D01*
X154107667Y-113712564D01*
X153994268Y-113668699D01*
X153970500Y-113667786D01*
X153844408Y-113702766D01*
X153793263Y-113799431D01*
X153499043Y-113799431D01*
X153495481Y-113770871D01*
X153568283Y-113573177D01*
X153624263Y-113496622D01*
X153733364Y-113392028D01*
X153853884Y-113348909D01*
X153965580Y-113342786D01*
X154131253Y-113361065D01*
X154256945Y-113431652D01*
X154321190Y-113492786D01*
X154465182Y-113642786D01*
X155908669Y-113642786D01*
X156277342Y-113642224D01*
X156611252Y-113640635D01*
X156897906Y-113638166D01*
X157124808Y-113634964D01*
X157279463Y-113631173D01*
X157349375Y-113626942D01*
X157352156Y-113625891D01*
X157332381Y-113571398D01*
X157280165Y-113449802D01*
X157206171Y-113284271D01*
X157121063Y-113097976D01*
X157035505Y-112914086D01*
X156960161Y-112755770D01*
X156905695Y-112646199D01*
X156884153Y-112609037D01*
X156851850Y-112637535D01*
X156790822Y-112739317D01*
X156711694Y-112895701D01*
X156669926Y-112985732D01*
X156486117Y-113392786D01*
X156020886Y-113392786D01*
X155555655Y-113392786D01*
X155970349Y-112530286D01*
X156385042Y-111667786D01*
X156870730Y-111653449D01*
X157356417Y-111639113D01*
X157830224Y-112620897D01*
G37*
G36*
X159233434Y-111562793D02*
G01*
X159239128Y-111566686D01*
X159300168Y-111594120D01*
X159403156Y-111615184D01*
X159560767Y-111630911D01*
X159785677Y-111642331D01*
X160090561Y-111650475D01*
X160314871Y-111654186D01*
X161284898Y-111667786D01*
X161284898Y-113292786D01*
X161284461Y-113745380D01*
X161282752Y-114109721D01*
X161279176Y-114397554D01*
X161273139Y-114620624D01*
X161264045Y-114790676D01*
X161251300Y-114919454D01*
X161234308Y-115018704D01*
X161212473Y-115100170D01*
X161190143Y-115162965D01*
X161035978Y-115448552D01*
X160817119Y-115702599D01*
X160562229Y-115892500D01*
X160536836Y-115906199D01*
X160338718Y-115974790D01*
X160075239Y-116018620D01*
X159778373Y-116036669D01*
X159480092Y-116027915D01*
X159212369Y-115991338D01*
X159072165Y-115952975D01*
X158697135Y-115767624D01*
X158370977Y-115495399D01*
X158093199Y-115135853D01*
X158000292Y-114976358D01*
X157843071Y-114684930D01*
X157957037Y-114563858D01*
X158036513Y-114495367D01*
X158132243Y-114458571D01*
X158276956Y-114444324D01*
X158390241Y-114442786D01*
X158565477Y-114445744D01*
X158669986Y-114462301D01*
X158733215Y-114503973D01*
X158784614Y-114582282D01*
X158794822Y-114601046D01*
X158938988Y-114819874D01*
X159112685Y-115010768D01*
X159290792Y-115148640D01*
X159390396Y-115195831D01*
X159619363Y-115236014D01*
X159851477Y-115218230D01*
X160051059Y-115147925D01*
X160142023Y-115081138D01*
X160207160Y-115003966D01*
X160257898Y-114909532D01*
X160295969Y-114785156D01*
X160323099Y-114618156D01*
X160341019Y-114395850D01*
X160351456Y-114105559D01*
X160356141Y-113734600D01*
X160356878Y-113505286D01*
X160358074Y-112442786D01*
X159567643Y-112442785D01*
X159233042Y-112440496D01*
X158983852Y-112430683D01*
X158805336Y-112408929D01*
X158682756Y-112370817D01*
X158601375Y-112311931D01*
X158546455Y-112227853D01*
X158506755Y-112124833D01*
X158488241Y-111972157D01*
X158805983Y-111972157D01*
X158824256Y-112070706D01*
X158892274Y-112133008D01*
X158996608Y-112140353D01*
X159092920Y-112097118D01*
X159131420Y-112040386D01*
X159128605Y-111915475D01*
X159053564Y-111825915D01*
X158935159Y-111802873D01*
X158841453Y-111859124D01*
X158805983Y-111972157D01*
X158488241Y-111972157D01*
X158481542Y-111916914D01*
X158552858Y-111733186D01*
X158682785Y-111599352D01*
X158861088Y-111512964D01*
X159057882Y-111500000D01*
X159233434Y-111562793D01*
G37*
G36*
X159661324Y-113577308D02*
G01*
X159843676Y-113664043D01*
X159968541Y-113806584D01*
X160032180Y-113981269D01*
X160030853Y-114164432D01*
X159960820Y-114332409D01*
X159818341Y-114461537D01*
X159802420Y-114470143D01*
X159600552Y-114536116D01*
X159415970Y-114508756D01*
X159238509Y-114392785D01*
X159159400Y-114326934D01*
X159086610Y-114283873D01*
X158996962Y-114258764D01*
X158867279Y-114246771D01*
X158674384Y-114243055D01*
X158519900Y-114242785D01*
X157972469Y-114242786D01*
X157612214Y-114639046D01*
X157446288Y-114826479D01*
X157339476Y-114962683D01*
X157279731Y-115066830D01*
X157255003Y-115158090D01*
X157251959Y-115212287D01*
X157274553Y-115358732D01*
X157350704Y-115441914D01*
X157356398Y-115445051D01*
X157466221Y-115551456D01*
X157544351Y-115714300D01*
X157573229Y-115891021D01*
X157567099Y-115955846D01*
X157511145Y-116080314D01*
X157408800Y-116203926D01*
X157392466Y-116218334D01*
X157199768Y-116323567D01*
X156997179Y-116334822D01*
X156804310Y-116251980D01*
X156766291Y-116222115D01*
X156652879Y-116064489D01*
X156625714Y-115922562D01*
X156924581Y-115922562D01*
X156992933Y-116009627D01*
X157104375Y-116032477D01*
X157193719Y-115998865D01*
X157239498Y-115921459D01*
X157243818Y-115837131D01*
X157192080Y-115739874D01*
X157096809Y-115695664D01*
X156996073Y-115709881D01*
X156927940Y-115787906D01*
X156926479Y-115792278D01*
X156924581Y-115922562D01*
X156625714Y-115922562D01*
X156615945Y-115871526D01*
X156655603Y-115672632D01*
X156763498Y-115505833D01*
X156852884Y-115390668D01*
X156893235Y-115262735D01*
X156901269Y-115114111D01*
X156903218Y-115013434D01*
X156916432Y-114931983D01*
X156951960Y-114853167D01*
X157020851Y-114760395D01*
X157134156Y-114637077D01*
X157302923Y-114466623D01*
X157390627Y-114379347D01*
X157743902Y-114028090D01*
X159394442Y-114028090D01*
X159409502Y-114148766D01*
X159412210Y-114153994D01*
X159498709Y-114230050D01*
X159608150Y-114230404D01*
X159699273Y-114156123D01*
X159704849Y-114146408D01*
X159734930Y-114018193D01*
X159685529Y-113925528D01*
X159578674Y-113892786D01*
X159457695Y-113931995D01*
X159394442Y-114028090D01*
X157743902Y-114028090D01*
X157879984Y-113892786D01*
X158491034Y-113892786D01*
X158749008Y-113891609D01*
X158924901Y-113886192D01*
X159036822Y-113873705D01*
X159102876Y-113851318D01*
X159141170Y-113816202D01*
X159157976Y-113788553D01*
X159261578Y-113681846D01*
X159419814Y-113602706D01*
X159587491Y-113570097D01*
X159661324Y-113577308D01*
G37*
G36*
X154445972Y-111671588D02*
G01*
X154875577Y-111767339D01*
X155100240Y-111832929D01*
X155249121Y-111881432D01*
X155342523Y-111924122D01*
X155400747Y-111972274D01*
X155444096Y-112037162D01*
X155478248Y-112102030D01*
X155535548Y-112299384D01*
X155509767Y-112479685D01*
X155417918Y-112630411D01*
X155277012Y-112739037D01*
X155104065Y-112793042D01*
X154916087Y-112779902D01*
X154730093Y-112687093D01*
X154707740Y-112669192D01*
X154526361Y-112543508D01*
X154331665Y-112472317D01*
X154088146Y-112444408D01*
X153990678Y-112442785D01*
X153691107Y-112468679D01*
X153442061Y-112555686D01*
X153205691Y-112717793D01*
X153174851Y-112744297D01*
X152998706Y-112920907D01*
X152879464Y-113103225D01*
X152807719Y-113316076D01*
X152774064Y-113584290D01*
X152768133Y-113817786D01*
X152770555Y-114054730D01*
X152781672Y-114221587D01*
X152807260Y-114348222D01*
X152853096Y-114464507D01*
X152916538Y-114585186D01*
X153122925Y-114858809D01*
X153391645Y-115064537D01*
X153704034Y-115193177D01*
X154041430Y-115235536D01*
X154209665Y-115222094D01*
X154438784Y-115164252D01*
X154625322Y-115057138D01*
X154787795Y-114885172D01*
X154944717Y-114632773D01*
X154972472Y-114580169D01*
X155172866Y-114193044D01*
X156223054Y-114192915D01*
X157273242Y-114192786D01*
X157026515Y-114442786D01*
X156779789Y-114692786D01*
X156350295Y-114692786D01*
X155920802Y-114692786D01*
X155762781Y-115012604D01*
X155588457Y-115320197D01*
X155398982Y-115552666D01*
X155170864Y-115734542D01*
X154956716Y-115854258D01*
X154799228Y-115927834D01*
X154665643Y-115976213D01*
X154525851Y-116005417D01*
X154349742Y-116021471D01*
X154107206Y-116030397D01*
X154071751Y-116031286D01*
X153785370Y-116033515D01*
X153571267Y-116022263D01*
X153402122Y-115994952D01*
X153268465Y-115955480D01*
X152831314Y-115753817D01*
X152467039Y-115484340D01*
X152172011Y-115143811D01*
X151975650Y-114801766D01*
X151903644Y-114639734D01*
X151856215Y-114498735D01*
X151827268Y-114347888D01*
X151810709Y-114156311D01*
X151801183Y-113917786D01*
X151796703Y-113645554D01*
X151804614Y-113442895D01*
X151827928Y-113279820D01*
X151869658Y-113126342D01*
X151885282Y-113080349D01*
X152081943Y-112657983D01*
X152347313Y-112303910D01*
X152369272Y-112284919D01*
X154864549Y-112284919D01*
X154875444Y-112386522D01*
X154893839Y-112413594D01*
X154989046Y-112479927D01*
X155047620Y-112492786D01*
X155151264Y-112456718D01*
X155201401Y-112413594D01*
X155235899Y-112312069D01*
X155190775Y-112221116D01*
X155084719Y-112170612D01*
X155047620Y-112167786D01*
X154928171Y-112202048D01*
X154864549Y-112284919D01*
X152369272Y-112284919D01*
X152673997Y-112021377D01*
X153054600Y-111813631D01*
X153481727Y-111683920D01*
X153947982Y-111635490D01*
X154445972Y-111671588D01*
G37*
D11*
%TO.C,SW1*%
X213750000Y-104700000D02*
X213750000Y-109100000D01*
X215450000Y-104700000D02*
X215550000Y-104700000D01*
X215450000Y-109100000D02*
X215550000Y-109100000D01*
X217250000Y-109100000D02*
X217250000Y-104700000D01*
%TO.C,R10*%
X191090000Y-90727064D02*
X191090000Y-89272936D01*
X192910000Y-90727064D02*
X192910000Y-89272936D01*
%TO.C,R5*%
X219610000Y-97327064D02*
X219610000Y-95872936D01*
X221430000Y-97327064D02*
X221430000Y-95872936D01*
%TO.C,R4*%
X155680000Y-93147064D02*
X155680000Y-91692936D01*
X157500000Y-93147064D02*
X157500000Y-91692936D01*
%TO.C,R3*%
X152180000Y-91692936D02*
X152180000Y-93147064D01*
X154000000Y-91692936D02*
X154000000Y-93147064D01*
%TO.C,C14*%
X169680000Y-100668748D02*
X169680000Y-102091252D01*
X171500000Y-100668748D02*
X171500000Y-102091252D01*
%TO.C,R8*%
X148680000Y-74692936D02*
X148680000Y-76147064D01*
X150500000Y-74692936D02*
X150500000Y-76147064D01*
%TO.C,J1*%
X106000000Y-50640000D02*
X106250000Y-52140000D01*
X106250000Y-52140000D02*
X107750000Y-52140000D01*
X107750000Y-52140000D02*
X108000000Y-50640000D01*
X108000000Y-50640000D02*
X106000000Y-50640000D01*
X111000000Y-50640000D02*
X111250000Y-52140000D01*
X111250000Y-52140000D02*
X112750000Y-52140000D01*
X112750000Y-52140000D02*
X113000000Y-50640000D01*
X113000000Y-50640000D02*
X111000000Y-50640000D01*
X115610000Y-53940000D02*
X103390000Y-53940000D01*
X103390000Y-52140000D01*
X115610000Y-52140000D01*
X115610000Y-53940000D01*
X115610000Y-62860000D02*
X103390000Y-62860000D01*
X103390000Y-50640000D01*
X115610000Y-50640000D01*
X115610000Y-62860000D01*
%TO.C,C7*%
X145180000Y-69131252D02*
X145180000Y-67708748D01*
X147000000Y-69131252D02*
X147000000Y-67708748D01*
%TO.C,R15*%
X162680000Y-84147064D02*
X162680000Y-82692936D01*
X164500000Y-84147064D02*
X164500000Y-82692936D01*
%TO.C,J2*%
X156290000Y-52060000D02*
X156290000Y-52270000D01*
X156290000Y-54630000D02*
X156290000Y-56360000D01*
X156290000Y-56360000D02*
X156940000Y-56360000D01*
X161860000Y-57060000D02*
X161410000Y-57060000D01*
X161860000Y-57060000D02*
X161860000Y-56670000D01*
X163910000Y-52060000D02*
X163910000Y-52270000D01*
X163910000Y-54630000D02*
X163910000Y-56360000D01*
X163910000Y-56360000D02*
X163250000Y-56360000D01*
%TO.C,TH1*%
X106237936Y-65150000D02*
X107692064Y-65150000D01*
X106237936Y-66970000D02*
X107692064Y-66970000D01*
%TO.C,R12*%
X155680000Y-84147064D02*
X155680000Y-82692936D01*
X157500000Y-84147064D02*
X157500000Y-82692936D01*
%TO.C,R13*%
X162680000Y-100652936D02*
X162680000Y-102107064D01*
X164500000Y-100652936D02*
X164500000Y-102107064D01*
%TO.C,J20*%
X187600000Y-73070000D02*
X188870000Y-73070000D01*
X187600000Y-74340000D02*
X187600000Y-73070000D01*
X190030000Y-73910000D02*
X190260000Y-73910000D01*
X190030000Y-74770000D02*
X190260000Y-74770000D01*
X190038400Y-76450000D02*
X190260000Y-76450000D01*
X190038400Y-77310000D02*
X190260000Y-77310000D01*
X190038400Y-78990000D02*
X190260000Y-78990000D01*
X190038400Y-79850000D02*
X190260000Y-79850000D01*
X190038400Y-81530000D02*
X190260000Y-81530000D01*
X190038400Y-82390000D02*
X190260000Y-82390000D01*
X190038400Y-84070000D02*
X190260000Y-84070000D01*
X190038400Y-84930000D02*
X190260000Y-84930000D01*
X190260000Y-75610000D02*
X193020000Y-75610000D01*
X190260000Y-78150000D02*
X193020000Y-78150000D01*
X190260000Y-80690000D02*
X193020000Y-80690000D01*
X190260000Y-83230000D02*
X193020000Y-83230000D01*
X193020000Y-76450000D02*
X195972000Y-76450000D01*
X193020000Y-78990000D02*
X195972000Y-78990000D01*
X193020000Y-81530000D02*
X195972000Y-81530000D01*
X193020000Y-84070000D02*
X195972000Y-84070000D01*
X195972000Y-76450000D02*
X195972000Y-77310000D01*
X195972000Y-77310000D02*
X193020000Y-77310000D01*
X195972000Y-78990000D02*
X195972000Y-79850000D01*
X195972000Y-79850000D02*
X193020000Y-79850000D01*
X195972000Y-81530000D02*
X195972000Y-82390000D01*
X195972000Y-82390000D02*
X193020000Y-82390000D01*
X195972000Y-84070000D02*
X195972000Y-84930000D01*
X195972000Y-84930000D02*
X193020000Y-84930000D01*
X190260000Y-72960000D02*
X193020000Y-72960000D01*
X193020000Y-85880000D01*
X190260000Y-85880000D01*
X190260000Y-72960000D01*
X193020000Y-73910000D02*
X196010000Y-73910000D01*
X196010000Y-74770000D01*
X193020000Y-74770000D01*
X193020000Y-73910000D01*
G36*
X193020000Y-73910000D02*
G01*
X196010000Y-73910000D01*
X196010000Y-74770000D01*
X193020000Y-74770000D01*
X193020000Y-73910000D01*
G37*
%TO.C,C6*%
X159180000Y-93131252D02*
X159180000Y-91708748D01*
X161000000Y-93131252D02*
X161000000Y-91708748D01*
%TO.C,U6*%
X174280000Y-99435000D02*
X174535000Y-99435000D01*
X174280000Y-107155000D02*
X174280000Y-99435000D01*
X174535000Y-107155000D02*
X174280000Y-107155000D01*
X184545000Y-99435000D02*
X184800000Y-99435000D01*
X184800000Y-99435000D02*
X184800000Y-107155000D01*
X184800000Y-107155000D02*
X184545000Y-107155000D01*
X174530000Y-107945000D02*
X174060000Y-108285000D01*
X174060000Y-107605000D01*
X174530000Y-107945000D01*
G36*
X174530000Y-107945000D02*
G01*
X174060000Y-108285000D01*
X174060000Y-107605000D01*
X174530000Y-107945000D01*
G37*
%TO.C,C1*%
X104499759Y-70011000D02*
X105129759Y-70011000D01*
X104814759Y-69696000D02*
X104814759Y-70326000D01*
X108000000Y-68620000D02*
X108000000Y-75080000D01*
X108040000Y-68620000D02*
X108040000Y-75080000D01*
X108080000Y-68621000D02*
X108080000Y-75079000D01*
X108120000Y-68622000D02*
X108120000Y-75078000D01*
X108160000Y-68624000D02*
X108160000Y-75076000D01*
X108200000Y-68626000D02*
X108200000Y-75074000D01*
X108240000Y-68629000D02*
X108240000Y-70810000D01*
X108240000Y-72890000D02*
X108240000Y-75071000D01*
X108280000Y-68632000D02*
X108280000Y-70810000D01*
X108280000Y-72890000D02*
X108280000Y-75068000D01*
X108320000Y-68636000D02*
X108320000Y-70810000D01*
X108320000Y-72890000D02*
X108320000Y-75064000D01*
X108360000Y-68640000D02*
X108360000Y-70810000D01*
X108360000Y-72890000D02*
X108360000Y-75060000D01*
X108400000Y-68645000D02*
X108400000Y-70810000D01*
X108400000Y-72890000D02*
X108400000Y-75055000D01*
X108440000Y-68650000D02*
X108440000Y-70810000D01*
X108440000Y-72890000D02*
X108440000Y-75050000D01*
X108480000Y-68655000D02*
X108480000Y-70810000D01*
X108480000Y-72890000D02*
X108480000Y-75045000D01*
X108520000Y-68662000D02*
X108520000Y-70810000D01*
X108520000Y-72890000D02*
X108520000Y-75038000D01*
X108560000Y-68668000D02*
X108560000Y-70810000D01*
X108560000Y-72890000D02*
X108560000Y-75032000D01*
X108600000Y-68676000D02*
X108600000Y-70810000D01*
X108600000Y-72890000D02*
X108600000Y-75024000D01*
X108640000Y-68683000D02*
X108640000Y-70810000D01*
X108640000Y-72890000D02*
X108640000Y-75017000D01*
X108680000Y-68691000D02*
X108680000Y-70810000D01*
X108680000Y-72890000D02*
X108680000Y-75009000D01*
X108720000Y-68700000D02*
X108720000Y-70810000D01*
X108720000Y-72890000D02*
X108720000Y-75000000D01*
X108760000Y-68710000D02*
X108760000Y-70810000D01*
X108760000Y-72890000D02*
X108760000Y-74990000D01*
X108800000Y-68719000D02*
X108800000Y-70810000D01*
X108800000Y-72890000D02*
X108800000Y-74981000D01*
X108840000Y-68730000D02*
X108840000Y-70810000D01*
X108840000Y-72890000D02*
X108840000Y-74970000D01*
X108880000Y-68741000D02*
X108880000Y-70810000D01*
X108880000Y-72890000D02*
X108880000Y-74959000D01*
X108920000Y-68752000D02*
X108920000Y-70810000D01*
X108920000Y-72890000D02*
X108920000Y-74948000D01*
X108960000Y-68764000D02*
X108960000Y-70810000D01*
X108960000Y-72890000D02*
X108960000Y-74936000D01*
X109000000Y-68777000D02*
X109000000Y-70810000D01*
X109000000Y-72890000D02*
X109000000Y-74923000D01*
X109040000Y-68790000D02*
X109040000Y-70810000D01*
X109040000Y-72890000D02*
X109040000Y-74910000D01*
X109080000Y-68803000D02*
X109080000Y-70810000D01*
X109080000Y-72890000D02*
X109080000Y-74897000D01*
X109120000Y-68818000D02*
X109120000Y-70810000D01*
X109120000Y-72890000D02*
X109120000Y-74882000D01*
X109160000Y-68833000D02*
X109160000Y-70810000D01*
X109160000Y-72890000D02*
X109160000Y-74867000D01*
X109200000Y-68848000D02*
X109200000Y-70810000D01*
X109200000Y-72890000D02*
X109200000Y-74852000D01*
X109240000Y-68864000D02*
X109240000Y-70810000D01*
X109240000Y-72890000D02*
X109240000Y-74836000D01*
X109280000Y-68881000D02*
X109280000Y-70810000D01*
X109280000Y-72890000D02*
X109280000Y-74819000D01*
X109320000Y-68898000D02*
X109320000Y-70810000D01*
X109320000Y-72890000D02*
X109320000Y-74802000D01*
X109360000Y-68916000D02*
X109360000Y-70810000D01*
X109360000Y-72890000D02*
X109360000Y-74784000D01*
X109400000Y-68935000D02*
X109400000Y-70810000D01*
X109400000Y-72890000D02*
X109400000Y-74765000D01*
X109440000Y-68954000D02*
X109440000Y-70810000D01*
X109440000Y-72890000D02*
X109440000Y-74746000D01*
X109480000Y-68974000D02*
X109480000Y-70810000D01*
X109480000Y-72890000D02*
X109480000Y-74726000D01*
X109520000Y-68995000D02*
X109520000Y-70810000D01*
X109520000Y-72890000D02*
X109520000Y-74705000D01*
X109560000Y-69016000D02*
X109560000Y-70810000D01*
X109560000Y-72890000D02*
X109560000Y-74684000D01*
X109600000Y-69038000D02*
X109600000Y-70810000D01*
X109600000Y-72890000D02*
X109600000Y-74662000D01*
X109640000Y-69061000D02*
X109640000Y-70810000D01*
X109640000Y-72890000D02*
X109640000Y-74639000D01*
X109680000Y-69085000D02*
X109680000Y-70810000D01*
X109680000Y-72890000D02*
X109680000Y-74615000D01*
X109720000Y-69109000D02*
X109720000Y-70810000D01*
X109720000Y-72890000D02*
X109720000Y-74591000D01*
X109760000Y-69134000D02*
X109760000Y-70810000D01*
X109760000Y-72890000D02*
X109760000Y-74566000D01*
X109800000Y-69160000D02*
X109800000Y-70810000D01*
X109800000Y-72890000D02*
X109800000Y-74540000D01*
X109840000Y-69187000D02*
X109840000Y-70810000D01*
X109840000Y-72890000D02*
X109840000Y-74513000D01*
X109880000Y-69214000D02*
X109880000Y-70810000D01*
X109880000Y-72890000D02*
X109880000Y-74486000D01*
X109920000Y-69243000D02*
X109920000Y-70810000D01*
X109920000Y-72890000D02*
X109920000Y-74457000D01*
X109960000Y-69273000D02*
X109960000Y-70810000D01*
X109960000Y-72890000D02*
X109960000Y-74427000D01*
X110000000Y-69303000D02*
X110000000Y-70810000D01*
X110000000Y-72890000D02*
X110000000Y-74397000D01*
X110040000Y-69334000D02*
X110040000Y-70810000D01*
X110040000Y-72890000D02*
X110040000Y-74366000D01*
X110080000Y-69367000D02*
X110080000Y-70810000D01*
X110080000Y-72890000D02*
X110080000Y-74333000D01*
X110120000Y-69400000D02*
X110120000Y-70810000D01*
X110120000Y-72890000D02*
X110120000Y-74300000D01*
X110160000Y-69435000D02*
X110160000Y-70810000D01*
X110160000Y-72890000D02*
X110160000Y-74265000D01*
X110200000Y-69471000D02*
X110200000Y-70810000D01*
X110200000Y-72890000D02*
X110200000Y-74229000D01*
X110240000Y-69508000D02*
X110240000Y-70810000D01*
X110240000Y-72890000D02*
X110240000Y-74192000D01*
X110280000Y-69546000D02*
X110280000Y-70810000D01*
X110280000Y-72890000D02*
X110280000Y-74154000D01*
X110320000Y-69586000D02*
X110320000Y-74114000D01*
X110360000Y-69627000D02*
X110360000Y-74073000D01*
X110400000Y-69669000D02*
X110400000Y-74031000D01*
X110440000Y-69713000D02*
X110440000Y-73987000D01*
X110480000Y-69759000D02*
X110480000Y-73941000D01*
X110520000Y-69806000D02*
X110520000Y-73894000D01*
X110560000Y-69855000D02*
X110560000Y-73845000D01*
X110600000Y-69907000D02*
X110600000Y-73793000D01*
X110640000Y-69960000D02*
X110640000Y-73740000D01*
X110680000Y-70016000D02*
X110680000Y-73684000D01*
X110720000Y-70075000D02*
X110720000Y-73625000D01*
X110760000Y-70136000D02*
X110760000Y-73564000D01*
X110800000Y-70201000D02*
X110800000Y-73499000D01*
X110840000Y-70269000D02*
X110840000Y-73431000D01*
X110880000Y-70341000D02*
X110880000Y-73359000D01*
X110920000Y-70418000D02*
X110920000Y-73282000D01*
X110960000Y-70500000D02*
X110960000Y-73200000D01*
X111000000Y-70589000D02*
X111000000Y-73111000D01*
X111040000Y-70685000D02*
X111040000Y-73015000D01*
X111080000Y-70792000D02*
X111080000Y-72908000D01*
X111120000Y-70911000D02*
X111120000Y-72789000D01*
X111160000Y-71049000D02*
X111160000Y-72651000D01*
X111200000Y-71217000D02*
X111200000Y-72483000D01*
X111240000Y-71448000D02*
X111240000Y-72252000D01*
X111270000Y-71850000D02*
G75*
G02*
X104730000Y-71850000I-3270000J0D01*
G01*
X104730000Y-71850000D02*
G75*
G02*
X111270000Y-71850000I3270000J0D01*
G01*
%TO.C,SW2*%
X222750000Y-104700000D02*
X222750000Y-109100000D01*
X224550000Y-104700000D02*
X224450000Y-104700000D01*
X224550000Y-109100000D02*
X224450000Y-109100000D01*
X226250000Y-109100000D02*
X226250000Y-104700000D01*
%TO.C,J5*%
X164190000Y-117875000D02*
X165290000Y-117875000D01*
X164190000Y-129275000D02*
X164190000Y-117875000D01*
X165390000Y-129275000D02*
X164190000Y-129275000D01*
X165390000Y-129275000D02*
X165390000Y-132075000D01*
X165390000Y-132075000D02*
X171190000Y-132075000D01*
X171190000Y-129275000D02*
X171190000Y-132075000D01*
X171490000Y-117875000D02*
X166890000Y-117875000D01*
X171490000Y-129275000D02*
X171190000Y-129275000D01*
X171490000Y-129275000D02*
X171490000Y-117875000D01*
X171790000Y-119975000D02*
X172290000Y-120475000D01*
X172290000Y-119475000D02*
X171790000Y-119975000D01*
X172290000Y-120475000D02*
X172290000Y-119475000D01*
%TO.C,R1*%
X159180000Y-75147064D02*
X159180000Y-73692936D01*
X161000000Y-75147064D02*
X161000000Y-73692936D01*
%TO.C,C9*%
X162680000Y-66131252D02*
X162680000Y-64708748D01*
X164500000Y-66131252D02*
X164500000Y-64708748D01*
%TD*%
M02*
