%TF.GenerationSoftware,KiCad,Pcbnew,9.0.8-9.0.8~ubuntu24.04.1*%
%TF.CreationDate,2026-06-16T20:54:13+02:00*%
%TF.ProjectId,sch-14_PeterThePowerMeter,7363682d-3134-45f5-9065-746572546865,01*%
%TF.SameCoordinates,Original*%
%TF.FileFunction,AssemblyDrawing,Bot*%
%FSLAX46Y46*%
G04 Gerber Fmt 4.6, Leading zero omitted, Abs format (unit mm)*
G04 Created by KiCad (PCBNEW 9.0.8-9.0.8~ubuntu24.04.1) date 2026-06-16 20:54:13*
%MOMM*%
%LPD*%
G01*
G04 APERTURE LIST*
%ADD10C,0.150000*%
G04 APERTURE END LIST*
D10*
X157237342Y-102862857D02*
X156665914Y-102496190D01*
X157237342Y-102234285D02*
X156037342Y-102234285D01*
X156037342Y-102234285D02*
X156037342Y-102653333D01*
X156037342Y-102653333D02*
X156094485Y-102758095D01*
X156094485Y-102758095D02*
X156151628Y-102810476D01*
X156151628Y-102810476D02*
X156265914Y-102862857D01*
X156265914Y-102862857D02*
X156437342Y-102862857D01*
X156437342Y-102862857D02*
X156551628Y-102810476D01*
X156551628Y-102810476D02*
X156608771Y-102758095D01*
X156608771Y-102758095D02*
X156665914Y-102653333D01*
X156665914Y-102653333D02*
X156665914Y-102234285D01*
X156037342Y-103229523D02*
X156037342Y-103910476D01*
X156037342Y-103910476D02*
X156494485Y-103543809D01*
X156494485Y-103543809D02*
X156494485Y-103700952D01*
X156494485Y-103700952D02*
X156551628Y-103805714D01*
X156551628Y-103805714D02*
X156608771Y-103858095D01*
X156608771Y-103858095D02*
X156723057Y-103910476D01*
X156723057Y-103910476D02*
X157008771Y-103910476D01*
X157008771Y-103910476D02*
X157123057Y-103858095D01*
X157123057Y-103858095D02*
X157180200Y-103805714D01*
X157180200Y-103805714D02*
X157237342Y-103700952D01*
X157237342Y-103700952D02*
X157237342Y-103386666D01*
X157237342Y-103386666D02*
X157180200Y-103281904D01*
X157180200Y-103281904D02*
X157123057Y-103229523D01*
X157237342Y-104958095D02*
X157237342Y-104329523D01*
X157237342Y-104643809D02*
X156037342Y-104643809D01*
X156037342Y-104643809D02*
X156208771Y-104539047D01*
X156208771Y-104539047D02*
X156323057Y-104434285D01*
X156323057Y-104434285D02*
X156380200Y-104329523D01*
X158923057Y-113612857D02*
X158980200Y-113560476D01*
X158980200Y-113560476D02*
X159037342Y-113403333D01*
X159037342Y-113403333D02*
X159037342Y-113298571D01*
X159037342Y-113298571D02*
X158980200Y-113141428D01*
X158980200Y-113141428D02*
X158865914Y-113036666D01*
X158865914Y-113036666D02*
X158751628Y-112984285D01*
X158751628Y-112984285D02*
X158523057Y-112931904D01*
X158523057Y-112931904D02*
X158351628Y-112931904D01*
X158351628Y-112931904D02*
X158123057Y-112984285D01*
X158123057Y-112984285D02*
X158008771Y-113036666D01*
X158008771Y-113036666D02*
X157894485Y-113141428D01*
X157894485Y-113141428D02*
X157837342Y-113298571D01*
X157837342Y-113298571D02*
X157837342Y-113403333D01*
X157837342Y-113403333D02*
X157894485Y-113560476D01*
X157894485Y-113560476D02*
X157951628Y-113612857D01*
X159037342Y-114660476D02*
X159037342Y-114031904D01*
X159037342Y-114346190D02*
X157837342Y-114346190D01*
X157837342Y-114346190D02*
X158008771Y-114241428D01*
X158008771Y-114241428D02*
X158123057Y-114136666D01*
X158123057Y-114136666D02*
X158180200Y-114031904D01*
X157951628Y-115079523D02*
X157894485Y-115131904D01*
X157894485Y-115131904D02*
X157837342Y-115236666D01*
X157837342Y-115236666D02*
X157837342Y-115498571D01*
X157837342Y-115498571D02*
X157894485Y-115603333D01*
X157894485Y-115603333D02*
X157951628Y-115655714D01*
X157951628Y-115655714D02*
X158065914Y-115708095D01*
X158065914Y-115708095D02*
X158180200Y-115708095D01*
X158180200Y-115708095D02*
X158351628Y-115655714D01*
X158351628Y-115655714D02*
X159037342Y-115027142D01*
X159037342Y-115027142D02*
X159037342Y-115708095D01*
X153637342Y-102762857D02*
X153065914Y-102396190D01*
X153637342Y-102134285D02*
X152437342Y-102134285D01*
X152437342Y-102134285D02*
X152437342Y-102553333D01*
X152437342Y-102553333D02*
X152494485Y-102658095D01*
X152494485Y-102658095D02*
X152551628Y-102710476D01*
X152551628Y-102710476D02*
X152665914Y-102762857D01*
X152665914Y-102762857D02*
X152837342Y-102762857D01*
X152837342Y-102762857D02*
X152951628Y-102710476D01*
X152951628Y-102710476D02*
X153008771Y-102658095D01*
X153008771Y-102658095D02*
X153065914Y-102553333D01*
X153065914Y-102553333D02*
X153065914Y-102134285D01*
X152437342Y-103129523D02*
X152437342Y-103810476D01*
X152437342Y-103810476D02*
X152894485Y-103443809D01*
X152894485Y-103443809D02*
X152894485Y-103600952D01*
X152894485Y-103600952D02*
X152951628Y-103705714D01*
X152951628Y-103705714D02*
X153008771Y-103758095D01*
X153008771Y-103758095D02*
X153123057Y-103810476D01*
X153123057Y-103810476D02*
X153408771Y-103810476D01*
X153408771Y-103810476D02*
X153523057Y-103758095D01*
X153523057Y-103758095D02*
X153580200Y-103705714D01*
X153580200Y-103705714D02*
X153637342Y-103600952D01*
X153637342Y-103600952D02*
X153637342Y-103286666D01*
X153637342Y-103286666D02*
X153580200Y-103181904D01*
X153580200Y-103181904D02*
X153523057Y-103129523D01*
X152551628Y-104229523D02*
X152494485Y-104281904D01*
X152494485Y-104281904D02*
X152437342Y-104386666D01*
X152437342Y-104386666D02*
X152437342Y-104648571D01*
X152437342Y-104648571D02*
X152494485Y-104753333D01*
X152494485Y-104753333D02*
X152551628Y-104805714D01*
X152551628Y-104805714D02*
X152665914Y-104858095D01*
X152665914Y-104858095D02*
X152780200Y-104858095D01*
X152780200Y-104858095D02*
X152951628Y-104805714D01*
X152951628Y-104805714D02*
X153637342Y-104177142D01*
X153637342Y-104177142D02*
X153637342Y-104858095D01*
X159037342Y-127236667D02*
X158465914Y-126870000D01*
X159037342Y-126608095D02*
X157837342Y-126608095D01*
X157837342Y-126608095D02*
X157837342Y-127027143D01*
X157837342Y-127027143D02*
X157894485Y-127131905D01*
X157894485Y-127131905D02*
X157951628Y-127184286D01*
X157951628Y-127184286D02*
X158065914Y-127236667D01*
X158065914Y-127236667D02*
X158237342Y-127236667D01*
X158237342Y-127236667D02*
X158351628Y-127184286D01*
X158351628Y-127184286D02*
X158408771Y-127131905D01*
X158408771Y-127131905D02*
X158465914Y-127027143D01*
X158465914Y-127027143D02*
X158465914Y-126608095D01*
X157837342Y-128179524D02*
X157837342Y-127970000D01*
X157837342Y-127970000D02*
X157894485Y-127865238D01*
X157894485Y-127865238D02*
X157951628Y-127812857D01*
X157951628Y-127812857D02*
X158123057Y-127708095D01*
X158123057Y-127708095D02*
X158351628Y-127655714D01*
X158351628Y-127655714D02*
X158808771Y-127655714D01*
X158808771Y-127655714D02*
X158923057Y-127708095D01*
X158923057Y-127708095D02*
X158980200Y-127760476D01*
X158980200Y-127760476D02*
X159037342Y-127865238D01*
X159037342Y-127865238D02*
X159037342Y-128074762D01*
X159037342Y-128074762D02*
X158980200Y-128179524D01*
X158980200Y-128179524D02*
X158923057Y-128231905D01*
X158923057Y-128231905D02*
X158808771Y-128284286D01*
X158808771Y-128284286D02*
X158523057Y-128284286D01*
X158523057Y-128284286D02*
X158408771Y-128231905D01*
X158408771Y-128231905D02*
X158351628Y-128179524D01*
X158351628Y-128179524D02*
X158294485Y-128074762D01*
X158294485Y-128074762D02*
X158294485Y-127865238D01*
X158294485Y-127865238D02*
X158351628Y-127760476D01*
X158351628Y-127760476D02*
X158408771Y-127708095D01*
X158408771Y-127708095D02*
X158523057Y-127655714D01*
X114522342Y-120637857D02*
X113950914Y-120271190D01*
X114522342Y-120009285D02*
X113322342Y-120009285D01*
X113322342Y-120009285D02*
X113322342Y-120428333D01*
X113322342Y-120428333D02*
X113379485Y-120533095D01*
X113379485Y-120533095D02*
X113436628Y-120585476D01*
X113436628Y-120585476D02*
X113550914Y-120637857D01*
X113550914Y-120637857D02*
X113722342Y-120637857D01*
X113722342Y-120637857D02*
X113836628Y-120585476D01*
X113836628Y-120585476D02*
X113893771Y-120533095D01*
X113893771Y-120533095D02*
X113950914Y-120428333D01*
X113950914Y-120428333D02*
X113950914Y-120009285D01*
X113436628Y-121056904D02*
X113379485Y-121109285D01*
X113379485Y-121109285D02*
X113322342Y-121214047D01*
X113322342Y-121214047D02*
X113322342Y-121475952D01*
X113322342Y-121475952D02*
X113379485Y-121580714D01*
X113379485Y-121580714D02*
X113436628Y-121633095D01*
X113436628Y-121633095D02*
X113550914Y-121685476D01*
X113550914Y-121685476D02*
X113665200Y-121685476D01*
X113665200Y-121685476D02*
X113836628Y-121633095D01*
X113836628Y-121633095D02*
X114522342Y-121004523D01*
X114522342Y-121004523D02*
X114522342Y-121685476D01*
X114522342Y-122209285D02*
X114522342Y-122418809D01*
X114522342Y-122418809D02*
X114465200Y-122523571D01*
X114465200Y-122523571D02*
X114408057Y-122575952D01*
X114408057Y-122575952D02*
X114236628Y-122680714D01*
X114236628Y-122680714D02*
X114008057Y-122733095D01*
X114008057Y-122733095D02*
X113550914Y-122733095D01*
X113550914Y-122733095D02*
X113436628Y-122680714D01*
X113436628Y-122680714D02*
X113379485Y-122628333D01*
X113379485Y-122628333D02*
X113322342Y-122523571D01*
X113322342Y-122523571D02*
X113322342Y-122314047D01*
X113322342Y-122314047D02*
X113379485Y-122209285D01*
X113379485Y-122209285D02*
X113436628Y-122156904D01*
X113436628Y-122156904D02*
X113550914Y-122104523D01*
X113550914Y-122104523D02*
X113836628Y-122104523D01*
X113836628Y-122104523D02*
X113950914Y-122156904D01*
X113950914Y-122156904D02*
X114008057Y-122209285D01*
X114008057Y-122209285D02*
X114065200Y-122314047D01*
X114065200Y-122314047D02*
X114065200Y-122523571D01*
X114065200Y-122523571D02*
X114008057Y-122628333D01*
X114008057Y-122628333D02*
X113950914Y-122680714D01*
X113950914Y-122680714D02*
X113836628Y-122733095D01*
X155337342Y-119612857D02*
X154765914Y-119246190D01*
X155337342Y-118984285D02*
X154137342Y-118984285D01*
X154137342Y-118984285D02*
X154137342Y-119403333D01*
X154137342Y-119403333D02*
X154194485Y-119508095D01*
X154194485Y-119508095D02*
X154251628Y-119560476D01*
X154251628Y-119560476D02*
X154365914Y-119612857D01*
X154365914Y-119612857D02*
X154537342Y-119612857D01*
X154537342Y-119612857D02*
X154651628Y-119560476D01*
X154651628Y-119560476D02*
X154708771Y-119508095D01*
X154708771Y-119508095D02*
X154765914Y-119403333D01*
X154765914Y-119403333D02*
X154765914Y-118984285D01*
X155337342Y-120660476D02*
X155337342Y-120031904D01*
X155337342Y-120346190D02*
X154137342Y-120346190D01*
X154137342Y-120346190D02*
X154308771Y-120241428D01*
X154308771Y-120241428D02*
X154423057Y-120136666D01*
X154423057Y-120136666D02*
X154480200Y-120031904D01*
X154137342Y-121603333D02*
X154137342Y-121393809D01*
X154137342Y-121393809D02*
X154194485Y-121289047D01*
X154194485Y-121289047D02*
X154251628Y-121236666D01*
X154251628Y-121236666D02*
X154423057Y-121131904D01*
X154423057Y-121131904D02*
X154651628Y-121079523D01*
X154651628Y-121079523D02*
X155108771Y-121079523D01*
X155108771Y-121079523D02*
X155223057Y-121131904D01*
X155223057Y-121131904D02*
X155280200Y-121184285D01*
X155280200Y-121184285D02*
X155337342Y-121289047D01*
X155337342Y-121289047D02*
X155337342Y-121498571D01*
X155337342Y-121498571D02*
X155280200Y-121603333D01*
X155280200Y-121603333D02*
X155223057Y-121655714D01*
X155223057Y-121655714D02*
X155108771Y-121708095D01*
X155108771Y-121708095D02*
X154823057Y-121708095D01*
X154823057Y-121708095D02*
X154708771Y-121655714D01*
X154708771Y-121655714D02*
X154651628Y-121603333D01*
X154651628Y-121603333D02*
X154594485Y-121498571D01*
X154594485Y-121498571D02*
X154594485Y-121289047D01*
X154594485Y-121289047D02*
X154651628Y-121184285D01*
X154651628Y-121184285D02*
X154708771Y-121131904D01*
X154708771Y-121131904D02*
X154823057Y-121079523D01*
X150123057Y-102762857D02*
X150180200Y-102710476D01*
X150180200Y-102710476D02*
X150237342Y-102553333D01*
X150237342Y-102553333D02*
X150237342Y-102448571D01*
X150237342Y-102448571D02*
X150180200Y-102291428D01*
X150180200Y-102291428D02*
X150065914Y-102186666D01*
X150065914Y-102186666D02*
X149951628Y-102134285D01*
X149951628Y-102134285D02*
X149723057Y-102081904D01*
X149723057Y-102081904D02*
X149551628Y-102081904D01*
X149551628Y-102081904D02*
X149323057Y-102134285D01*
X149323057Y-102134285D02*
X149208771Y-102186666D01*
X149208771Y-102186666D02*
X149094485Y-102291428D01*
X149094485Y-102291428D02*
X149037342Y-102448571D01*
X149037342Y-102448571D02*
X149037342Y-102553333D01*
X149037342Y-102553333D02*
X149094485Y-102710476D01*
X149094485Y-102710476D02*
X149151628Y-102762857D01*
X150237342Y-103810476D02*
X150237342Y-103181904D01*
X150237342Y-103496190D02*
X149037342Y-103496190D01*
X149037342Y-103496190D02*
X149208771Y-103391428D01*
X149208771Y-103391428D02*
X149323057Y-103286666D01*
X149323057Y-103286666D02*
X149380200Y-103181904D01*
X149037342Y-104805714D02*
X149037342Y-104281904D01*
X149037342Y-104281904D02*
X149608771Y-104229523D01*
X149608771Y-104229523D02*
X149551628Y-104281904D01*
X149551628Y-104281904D02*
X149494485Y-104386666D01*
X149494485Y-104386666D02*
X149494485Y-104648571D01*
X149494485Y-104648571D02*
X149551628Y-104753333D01*
X149551628Y-104753333D02*
X149608771Y-104805714D01*
X149608771Y-104805714D02*
X149723057Y-104858095D01*
X149723057Y-104858095D02*
X150008771Y-104858095D01*
X150008771Y-104858095D02*
X150123057Y-104805714D01*
X150123057Y-104805714D02*
X150180200Y-104753333D01*
X150180200Y-104753333D02*
X150237342Y-104648571D01*
X150237342Y-104648571D02*
X150237342Y-104386666D01*
X150237342Y-104386666D02*
X150180200Y-104281904D01*
X150180200Y-104281904D02*
X150123057Y-104229523D01*
X170523057Y-110312857D02*
X170580200Y-110260476D01*
X170580200Y-110260476D02*
X170637342Y-110103333D01*
X170637342Y-110103333D02*
X170637342Y-109998571D01*
X170637342Y-109998571D02*
X170580200Y-109841428D01*
X170580200Y-109841428D02*
X170465914Y-109736666D01*
X170465914Y-109736666D02*
X170351628Y-109684285D01*
X170351628Y-109684285D02*
X170123057Y-109631904D01*
X170123057Y-109631904D02*
X169951628Y-109631904D01*
X169951628Y-109631904D02*
X169723057Y-109684285D01*
X169723057Y-109684285D02*
X169608771Y-109736666D01*
X169608771Y-109736666D02*
X169494485Y-109841428D01*
X169494485Y-109841428D02*
X169437342Y-109998571D01*
X169437342Y-109998571D02*
X169437342Y-110103333D01*
X169437342Y-110103333D02*
X169494485Y-110260476D01*
X169494485Y-110260476D02*
X169551628Y-110312857D01*
X170637342Y-111360476D02*
X170637342Y-110731904D01*
X170637342Y-111046190D02*
X169437342Y-111046190D01*
X169437342Y-111046190D02*
X169608771Y-110941428D01*
X169608771Y-110941428D02*
X169723057Y-110836666D01*
X169723057Y-110836666D02*
X169780200Y-110731904D01*
X169437342Y-111727142D02*
X169437342Y-112408095D01*
X169437342Y-112408095D02*
X169894485Y-112041428D01*
X169894485Y-112041428D02*
X169894485Y-112198571D01*
X169894485Y-112198571D02*
X169951628Y-112303333D01*
X169951628Y-112303333D02*
X170008771Y-112355714D01*
X170008771Y-112355714D02*
X170123057Y-112408095D01*
X170123057Y-112408095D02*
X170408771Y-112408095D01*
X170408771Y-112408095D02*
X170523057Y-112355714D01*
X170523057Y-112355714D02*
X170580200Y-112303333D01*
X170580200Y-112303333D02*
X170637342Y-112198571D01*
X170637342Y-112198571D02*
X170637342Y-111884285D01*
X170637342Y-111884285D02*
X170580200Y-111779523D01*
X170580200Y-111779523D02*
X170523057Y-111727142D01*
X114542142Y-114922342D02*
X114908809Y-114350914D01*
X115170714Y-114922342D02*
X115170714Y-113722342D01*
X115170714Y-113722342D02*
X114751666Y-113722342D01*
X114751666Y-113722342D02*
X114646904Y-113779485D01*
X114646904Y-113779485D02*
X114594523Y-113836628D01*
X114594523Y-113836628D02*
X114542142Y-113950914D01*
X114542142Y-113950914D02*
X114542142Y-114122342D01*
X114542142Y-114122342D02*
X114594523Y-114236628D01*
X114594523Y-114236628D02*
X114646904Y-114293771D01*
X114646904Y-114293771D02*
X114751666Y-114350914D01*
X114751666Y-114350914D02*
X115170714Y-114350914D01*
X114175476Y-113722342D02*
X113494523Y-113722342D01*
X113494523Y-113722342D02*
X113861190Y-114179485D01*
X113861190Y-114179485D02*
X113704047Y-114179485D01*
X113704047Y-114179485D02*
X113599285Y-114236628D01*
X113599285Y-114236628D02*
X113546904Y-114293771D01*
X113546904Y-114293771D02*
X113494523Y-114408057D01*
X113494523Y-114408057D02*
X113494523Y-114693771D01*
X113494523Y-114693771D02*
X113546904Y-114808057D01*
X113546904Y-114808057D02*
X113599285Y-114865200D01*
X113599285Y-114865200D02*
X113704047Y-114922342D01*
X113704047Y-114922342D02*
X114018333Y-114922342D01*
X114018333Y-114922342D02*
X114123095Y-114865200D01*
X114123095Y-114865200D02*
X114175476Y-114808057D01*
X112813571Y-113722342D02*
X112708809Y-113722342D01*
X112708809Y-113722342D02*
X112604047Y-113779485D01*
X112604047Y-113779485D02*
X112551666Y-113836628D01*
X112551666Y-113836628D02*
X112499285Y-113950914D01*
X112499285Y-113950914D02*
X112446904Y-114179485D01*
X112446904Y-114179485D02*
X112446904Y-114465200D01*
X112446904Y-114465200D02*
X112499285Y-114693771D01*
X112499285Y-114693771D02*
X112551666Y-114808057D01*
X112551666Y-114808057D02*
X112604047Y-114865200D01*
X112604047Y-114865200D02*
X112708809Y-114922342D01*
X112708809Y-114922342D02*
X112813571Y-114922342D01*
X112813571Y-114922342D02*
X112918333Y-114865200D01*
X112918333Y-114865200D02*
X112970714Y-114808057D01*
X112970714Y-114808057D02*
X113023095Y-114693771D01*
X113023095Y-114693771D02*
X113075476Y-114465200D01*
X113075476Y-114465200D02*
X113075476Y-114179485D01*
X113075476Y-114179485D02*
X113023095Y-113950914D01*
X113023095Y-113950914D02*
X112970714Y-113836628D01*
X112970714Y-113836628D02*
X112918333Y-113779485D01*
X112918333Y-113779485D02*
X112813571Y-113722342D01*
X158868057Y-121212857D02*
X158925200Y-121160476D01*
X158925200Y-121160476D02*
X158982342Y-121003333D01*
X158982342Y-121003333D02*
X158982342Y-120898571D01*
X158982342Y-120898571D02*
X158925200Y-120741428D01*
X158925200Y-120741428D02*
X158810914Y-120636666D01*
X158810914Y-120636666D02*
X158696628Y-120584285D01*
X158696628Y-120584285D02*
X158468057Y-120531904D01*
X158468057Y-120531904D02*
X158296628Y-120531904D01*
X158296628Y-120531904D02*
X158068057Y-120584285D01*
X158068057Y-120584285D02*
X157953771Y-120636666D01*
X157953771Y-120636666D02*
X157839485Y-120741428D01*
X157839485Y-120741428D02*
X157782342Y-120898571D01*
X157782342Y-120898571D02*
X157782342Y-121003333D01*
X157782342Y-121003333D02*
X157839485Y-121160476D01*
X157839485Y-121160476D02*
X157896628Y-121212857D01*
X158982342Y-122260476D02*
X158982342Y-121631904D01*
X158982342Y-121946190D02*
X157782342Y-121946190D01*
X157782342Y-121946190D02*
X157953771Y-121841428D01*
X157953771Y-121841428D02*
X158068057Y-121736666D01*
X158068057Y-121736666D02*
X158125200Y-121631904D01*
X158982342Y-123308095D02*
X158982342Y-122679523D01*
X158982342Y-122993809D02*
X157782342Y-122993809D01*
X157782342Y-122993809D02*
X157953771Y-122889047D01*
X157953771Y-122889047D02*
X158068057Y-122784285D01*
X158068057Y-122784285D02*
X158125200Y-122679523D01*
X164737342Y-110312857D02*
X164165914Y-109946190D01*
X164737342Y-109684285D02*
X163537342Y-109684285D01*
X163537342Y-109684285D02*
X163537342Y-110103333D01*
X163537342Y-110103333D02*
X163594485Y-110208095D01*
X163594485Y-110208095D02*
X163651628Y-110260476D01*
X163651628Y-110260476D02*
X163765914Y-110312857D01*
X163765914Y-110312857D02*
X163937342Y-110312857D01*
X163937342Y-110312857D02*
X164051628Y-110260476D01*
X164051628Y-110260476D02*
X164108771Y-110208095D01*
X164108771Y-110208095D02*
X164165914Y-110103333D01*
X164165914Y-110103333D02*
X164165914Y-109684285D01*
X164737342Y-111360476D02*
X164737342Y-110731904D01*
X164737342Y-111046190D02*
X163537342Y-111046190D01*
X163537342Y-111046190D02*
X163708771Y-110941428D01*
X163708771Y-110941428D02*
X163823057Y-110836666D01*
X163823057Y-110836666D02*
X163880200Y-110731904D01*
X164051628Y-111989047D02*
X163994485Y-111884285D01*
X163994485Y-111884285D02*
X163937342Y-111831904D01*
X163937342Y-111831904D02*
X163823057Y-111779523D01*
X163823057Y-111779523D02*
X163765914Y-111779523D01*
X163765914Y-111779523D02*
X163651628Y-111831904D01*
X163651628Y-111831904D02*
X163594485Y-111884285D01*
X163594485Y-111884285D02*
X163537342Y-111989047D01*
X163537342Y-111989047D02*
X163537342Y-112198571D01*
X163537342Y-112198571D02*
X163594485Y-112303333D01*
X163594485Y-112303333D02*
X163651628Y-112355714D01*
X163651628Y-112355714D02*
X163765914Y-112408095D01*
X163765914Y-112408095D02*
X163823057Y-112408095D01*
X163823057Y-112408095D02*
X163937342Y-112355714D01*
X163937342Y-112355714D02*
X163994485Y-112303333D01*
X163994485Y-112303333D02*
X164051628Y-112198571D01*
X164051628Y-112198571D02*
X164051628Y-111989047D01*
X164051628Y-111989047D02*
X164108771Y-111884285D01*
X164108771Y-111884285D02*
X164165914Y-111831904D01*
X164165914Y-111831904D02*
X164280200Y-111779523D01*
X164280200Y-111779523D02*
X164508771Y-111779523D01*
X164508771Y-111779523D02*
X164623057Y-111831904D01*
X164623057Y-111831904D02*
X164680200Y-111884285D01*
X164680200Y-111884285D02*
X164737342Y-111989047D01*
X164737342Y-111989047D02*
X164737342Y-112198571D01*
X164737342Y-112198571D02*
X164680200Y-112303333D01*
X164680200Y-112303333D02*
X164623057Y-112355714D01*
X164623057Y-112355714D02*
X164508771Y-112408095D01*
X164508771Y-112408095D02*
X164280200Y-112408095D01*
X164280200Y-112408095D02*
X164165914Y-112355714D01*
X164165914Y-112355714D02*
X164108771Y-112303333D01*
X164108771Y-112303333D02*
X164051628Y-112198571D01*
X222947342Y-98299524D02*
X223804485Y-98299524D01*
X223804485Y-98299524D02*
X223975914Y-98247143D01*
X223975914Y-98247143D02*
X224090200Y-98142381D01*
X224090200Y-98142381D02*
X224147342Y-97985238D01*
X224147342Y-97985238D02*
X224147342Y-97880476D01*
X223061628Y-98770952D02*
X223004485Y-98823333D01*
X223004485Y-98823333D02*
X222947342Y-98928095D01*
X222947342Y-98928095D02*
X222947342Y-99190000D01*
X222947342Y-99190000D02*
X223004485Y-99294762D01*
X223004485Y-99294762D02*
X223061628Y-99347143D01*
X223061628Y-99347143D02*
X223175914Y-99399524D01*
X223175914Y-99399524D02*
X223290200Y-99399524D01*
X223290200Y-99399524D02*
X223461628Y-99347143D01*
X223461628Y-99347143D02*
X224147342Y-98718571D01*
X224147342Y-98718571D02*
X224147342Y-99399524D01*
X222947342Y-99766190D02*
X222947342Y-100447143D01*
X222947342Y-100447143D02*
X223404485Y-100080476D01*
X223404485Y-100080476D02*
X223404485Y-100237619D01*
X223404485Y-100237619D02*
X223461628Y-100342381D01*
X223461628Y-100342381D02*
X223518771Y-100394762D01*
X223518771Y-100394762D02*
X223633057Y-100447143D01*
X223633057Y-100447143D02*
X223918771Y-100447143D01*
X223918771Y-100447143D02*
X224033057Y-100394762D01*
X224033057Y-100394762D02*
X224090200Y-100342381D01*
X224090200Y-100342381D02*
X224147342Y-100237619D01*
X224147342Y-100237619D02*
X224147342Y-99923333D01*
X224147342Y-99923333D02*
X224090200Y-99818571D01*
X224090200Y-99818571D02*
X224033057Y-99766190D01*
X149082342Y-94663095D02*
X147882342Y-94663095D01*
X147882342Y-94663095D02*
X147882342Y-94925000D01*
X147882342Y-94925000D02*
X147939485Y-95082143D01*
X147939485Y-95082143D02*
X148053771Y-95186905D01*
X148053771Y-95186905D02*
X148168057Y-95239286D01*
X148168057Y-95239286D02*
X148396628Y-95291667D01*
X148396628Y-95291667D02*
X148568057Y-95291667D01*
X148568057Y-95291667D02*
X148796628Y-95239286D01*
X148796628Y-95239286D02*
X148910914Y-95186905D01*
X148910914Y-95186905D02*
X149025200Y-95082143D01*
X149025200Y-95082143D02*
X149082342Y-94925000D01*
X149082342Y-94925000D02*
X149082342Y-94663095D01*
X147882342Y-95658333D02*
X147882342Y-96339286D01*
X147882342Y-96339286D02*
X148339485Y-95972619D01*
X148339485Y-95972619D02*
X148339485Y-96129762D01*
X148339485Y-96129762D02*
X148396628Y-96234524D01*
X148396628Y-96234524D02*
X148453771Y-96286905D01*
X148453771Y-96286905D02*
X148568057Y-96339286D01*
X148568057Y-96339286D02*
X148853771Y-96339286D01*
X148853771Y-96339286D02*
X148968057Y-96286905D01*
X148968057Y-96286905D02*
X149025200Y-96234524D01*
X149025200Y-96234524D02*
X149082342Y-96129762D01*
X149082342Y-96129762D02*
X149082342Y-95815476D01*
X149082342Y-95815476D02*
X149025200Y-95710714D01*
X149025200Y-95710714D02*
X148968057Y-95658333D01*
X222947342Y-78529524D02*
X223804485Y-78529524D01*
X223804485Y-78529524D02*
X223975914Y-78477143D01*
X223975914Y-78477143D02*
X224090200Y-78372381D01*
X224090200Y-78372381D02*
X224147342Y-78215238D01*
X224147342Y-78215238D02*
X224147342Y-78110476D01*
X223061628Y-79000952D02*
X223004485Y-79053333D01*
X223004485Y-79053333D02*
X222947342Y-79158095D01*
X222947342Y-79158095D02*
X222947342Y-79420000D01*
X222947342Y-79420000D02*
X223004485Y-79524762D01*
X223004485Y-79524762D02*
X223061628Y-79577143D01*
X223061628Y-79577143D02*
X223175914Y-79629524D01*
X223175914Y-79629524D02*
X223290200Y-79629524D01*
X223290200Y-79629524D02*
X223461628Y-79577143D01*
X223461628Y-79577143D02*
X224147342Y-78948571D01*
X224147342Y-78948571D02*
X224147342Y-79629524D01*
X224147342Y-80677143D02*
X224147342Y-80048571D01*
X224147342Y-80362857D02*
X222947342Y-80362857D01*
X222947342Y-80362857D02*
X223118771Y-80258095D01*
X223118771Y-80258095D02*
X223233057Y-80153333D01*
X223233057Y-80153333D02*
X223290200Y-80048571D01*
X167637342Y-110312857D02*
X167065914Y-109946190D01*
X167637342Y-109684285D02*
X166437342Y-109684285D01*
X166437342Y-109684285D02*
X166437342Y-110103333D01*
X166437342Y-110103333D02*
X166494485Y-110208095D01*
X166494485Y-110208095D02*
X166551628Y-110260476D01*
X166551628Y-110260476D02*
X166665914Y-110312857D01*
X166665914Y-110312857D02*
X166837342Y-110312857D01*
X166837342Y-110312857D02*
X166951628Y-110260476D01*
X166951628Y-110260476D02*
X167008771Y-110208095D01*
X167008771Y-110208095D02*
X167065914Y-110103333D01*
X167065914Y-110103333D02*
X167065914Y-109684285D01*
X167637342Y-111360476D02*
X167637342Y-110731904D01*
X167637342Y-111046190D02*
X166437342Y-111046190D01*
X166437342Y-111046190D02*
X166608771Y-110941428D01*
X166608771Y-110941428D02*
X166723057Y-110836666D01*
X166723057Y-110836666D02*
X166780200Y-110731904D01*
X167637342Y-111884285D02*
X167637342Y-112093809D01*
X167637342Y-112093809D02*
X167580200Y-112198571D01*
X167580200Y-112198571D02*
X167523057Y-112250952D01*
X167523057Y-112250952D02*
X167351628Y-112355714D01*
X167351628Y-112355714D02*
X167123057Y-112408095D01*
X167123057Y-112408095D02*
X166665914Y-112408095D01*
X166665914Y-112408095D02*
X166551628Y-112355714D01*
X166551628Y-112355714D02*
X166494485Y-112303333D01*
X166494485Y-112303333D02*
X166437342Y-112198571D01*
X166437342Y-112198571D02*
X166437342Y-111989047D01*
X166437342Y-111989047D02*
X166494485Y-111884285D01*
X166494485Y-111884285D02*
X166551628Y-111831904D01*
X166551628Y-111831904D02*
X166665914Y-111779523D01*
X166665914Y-111779523D02*
X166951628Y-111779523D01*
X166951628Y-111779523D02*
X167065914Y-111831904D01*
X167065914Y-111831904D02*
X167123057Y-111884285D01*
X167123057Y-111884285D02*
X167180200Y-111989047D01*
X167180200Y-111989047D02*
X167180200Y-112198571D01*
X167180200Y-112198571D02*
X167123057Y-112303333D01*
X167123057Y-112303333D02*
X167065914Y-112355714D01*
X167065914Y-112355714D02*
X166951628Y-112408095D01*
X160037342Y-117681904D02*
X161008771Y-117681904D01*
X161008771Y-117681904D02*
X161123057Y-117734285D01*
X161123057Y-117734285D02*
X161180200Y-117786666D01*
X161180200Y-117786666D02*
X161237342Y-117891428D01*
X161237342Y-117891428D02*
X161237342Y-118100952D01*
X161237342Y-118100952D02*
X161180200Y-118205714D01*
X161180200Y-118205714D02*
X161123057Y-118258095D01*
X161123057Y-118258095D02*
X161008771Y-118310476D01*
X161008771Y-118310476D02*
X160037342Y-118310476D01*
X160037342Y-119358095D02*
X160037342Y-118834285D01*
X160037342Y-118834285D02*
X160608771Y-118781904D01*
X160608771Y-118781904D02*
X160551628Y-118834285D01*
X160551628Y-118834285D02*
X160494485Y-118939047D01*
X160494485Y-118939047D02*
X160494485Y-119200952D01*
X160494485Y-119200952D02*
X160551628Y-119305714D01*
X160551628Y-119305714D02*
X160608771Y-119358095D01*
X160608771Y-119358095D02*
X160723057Y-119410476D01*
X160723057Y-119410476D02*
X161008771Y-119410476D01*
X161008771Y-119410476D02*
X161123057Y-119358095D01*
X161123057Y-119358095D02*
X161180200Y-119305714D01*
X161180200Y-119305714D02*
X161237342Y-119200952D01*
X161237342Y-119200952D02*
X161237342Y-118939047D01*
X161237342Y-118939047D02*
X161180200Y-118834285D01*
X161180200Y-118834285D02*
X161123057Y-118781904D01*
X109086666Y-128688771D02*
X109453333Y-128688771D01*
X109453333Y-129317342D02*
X109453333Y-128117342D01*
X109453333Y-128117342D02*
X108929523Y-128117342D01*
X107934285Y-129317342D02*
X108562857Y-129317342D01*
X108248571Y-129317342D02*
X108248571Y-128117342D01*
X108248571Y-128117342D02*
X108353333Y-128288771D01*
X108353333Y-128288771D02*
X108458095Y-128403057D01*
X108458095Y-128403057D02*
X108562857Y-128460200D01*
X114422342Y-123837857D02*
X113850914Y-123471190D01*
X114422342Y-123209285D02*
X113222342Y-123209285D01*
X113222342Y-123209285D02*
X113222342Y-123628333D01*
X113222342Y-123628333D02*
X113279485Y-123733095D01*
X113279485Y-123733095D02*
X113336628Y-123785476D01*
X113336628Y-123785476D02*
X113450914Y-123837857D01*
X113450914Y-123837857D02*
X113622342Y-123837857D01*
X113622342Y-123837857D02*
X113736628Y-123785476D01*
X113736628Y-123785476D02*
X113793771Y-123733095D01*
X113793771Y-123733095D02*
X113850914Y-123628333D01*
X113850914Y-123628333D02*
X113850914Y-123209285D01*
X113336628Y-124256904D02*
X113279485Y-124309285D01*
X113279485Y-124309285D02*
X113222342Y-124414047D01*
X113222342Y-124414047D02*
X113222342Y-124675952D01*
X113222342Y-124675952D02*
X113279485Y-124780714D01*
X113279485Y-124780714D02*
X113336628Y-124833095D01*
X113336628Y-124833095D02*
X113450914Y-124885476D01*
X113450914Y-124885476D02*
X113565200Y-124885476D01*
X113565200Y-124885476D02*
X113736628Y-124833095D01*
X113736628Y-124833095D02*
X114422342Y-124204523D01*
X114422342Y-124204523D02*
X114422342Y-124885476D01*
X113736628Y-125514047D02*
X113679485Y-125409285D01*
X113679485Y-125409285D02*
X113622342Y-125356904D01*
X113622342Y-125356904D02*
X113508057Y-125304523D01*
X113508057Y-125304523D02*
X113450914Y-125304523D01*
X113450914Y-125304523D02*
X113336628Y-125356904D01*
X113336628Y-125356904D02*
X113279485Y-125409285D01*
X113279485Y-125409285D02*
X113222342Y-125514047D01*
X113222342Y-125514047D02*
X113222342Y-125723571D01*
X113222342Y-125723571D02*
X113279485Y-125828333D01*
X113279485Y-125828333D02*
X113336628Y-125880714D01*
X113336628Y-125880714D02*
X113450914Y-125933095D01*
X113450914Y-125933095D02*
X113508057Y-125933095D01*
X113508057Y-125933095D02*
X113622342Y-125880714D01*
X113622342Y-125880714D02*
X113679485Y-125828333D01*
X113679485Y-125828333D02*
X113736628Y-125723571D01*
X113736628Y-125723571D02*
X113736628Y-125514047D01*
X113736628Y-125514047D02*
X113793771Y-125409285D01*
X113793771Y-125409285D02*
X113850914Y-125356904D01*
X113850914Y-125356904D02*
X113965200Y-125304523D01*
X113965200Y-125304523D02*
X114193771Y-125304523D01*
X114193771Y-125304523D02*
X114308057Y-125356904D01*
X114308057Y-125356904D02*
X114365200Y-125409285D01*
X114365200Y-125409285D02*
X114422342Y-125514047D01*
X114422342Y-125514047D02*
X114422342Y-125723571D01*
X114422342Y-125723571D02*
X114365200Y-125828333D01*
X114365200Y-125828333D02*
X114308057Y-125880714D01*
X114308057Y-125880714D02*
X114193771Y-125933095D01*
X114193771Y-125933095D02*
X113965200Y-125933095D01*
X113965200Y-125933095D02*
X113850914Y-125880714D01*
X113850914Y-125880714D02*
X113793771Y-125828333D01*
X113793771Y-125828333D02*
X113736628Y-125723571D01*
X155382342Y-123112857D02*
X154810914Y-122746190D01*
X155382342Y-122484285D02*
X154182342Y-122484285D01*
X154182342Y-122484285D02*
X154182342Y-122903333D01*
X154182342Y-122903333D02*
X154239485Y-123008095D01*
X154239485Y-123008095D02*
X154296628Y-123060476D01*
X154296628Y-123060476D02*
X154410914Y-123112857D01*
X154410914Y-123112857D02*
X154582342Y-123112857D01*
X154582342Y-123112857D02*
X154696628Y-123060476D01*
X154696628Y-123060476D02*
X154753771Y-123008095D01*
X154753771Y-123008095D02*
X154810914Y-122903333D01*
X154810914Y-122903333D02*
X154810914Y-122484285D01*
X155382342Y-124160476D02*
X155382342Y-123531904D01*
X155382342Y-123846190D02*
X154182342Y-123846190D01*
X154182342Y-123846190D02*
X154353771Y-123741428D01*
X154353771Y-123741428D02*
X154468057Y-123636666D01*
X154468057Y-123636666D02*
X154525200Y-123531904D01*
X154182342Y-124527142D02*
X154182342Y-125260476D01*
X154182342Y-125260476D02*
X155382342Y-124789047D01*
X107707142Y-103497342D02*
X108073809Y-102925914D01*
X108335714Y-103497342D02*
X108335714Y-102297342D01*
X108335714Y-102297342D02*
X107916666Y-102297342D01*
X107916666Y-102297342D02*
X107811904Y-102354485D01*
X107811904Y-102354485D02*
X107759523Y-102411628D01*
X107759523Y-102411628D02*
X107707142Y-102525914D01*
X107707142Y-102525914D02*
X107707142Y-102697342D01*
X107707142Y-102697342D02*
X107759523Y-102811628D01*
X107759523Y-102811628D02*
X107811904Y-102868771D01*
X107811904Y-102868771D02*
X107916666Y-102925914D01*
X107916666Y-102925914D02*
X108335714Y-102925914D01*
X107340476Y-102297342D02*
X106659523Y-102297342D01*
X106659523Y-102297342D02*
X107026190Y-102754485D01*
X107026190Y-102754485D02*
X106869047Y-102754485D01*
X106869047Y-102754485D02*
X106764285Y-102811628D01*
X106764285Y-102811628D02*
X106711904Y-102868771D01*
X106711904Y-102868771D02*
X106659523Y-102983057D01*
X106659523Y-102983057D02*
X106659523Y-103268771D01*
X106659523Y-103268771D02*
X106711904Y-103383057D01*
X106711904Y-103383057D02*
X106764285Y-103440200D01*
X106764285Y-103440200D02*
X106869047Y-103497342D01*
X106869047Y-103497342D02*
X107183333Y-103497342D01*
X107183333Y-103497342D02*
X107288095Y-103440200D01*
X107288095Y-103440200D02*
X107340476Y-103383057D01*
X106292857Y-102297342D02*
X105611904Y-102297342D01*
X105611904Y-102297342D02*
X105978571Y-102754485D01*
X105978571Y-102754485D02*
X105821428Y-102754485D01*
X105821428Y-102754485D02*
X105716666Y-102811628D01*
X105716666Y-102811628D02*
X105664285Y-102868771D01*
X105664285Y-102868771D02*
X105611904Y-102983057D01*
X105611904Y-102983057D02*
X105611904Y-103268771D01*
X105611904Y-103268771D02*
X105664285Y-103383057D01*
X105664285Y-103383057D02*
X105716666Y-103440200D01*
X105716666Y-103440200D02*
X105821428Y-103497342D01*
X105821428Y-103497342D02*
X106135714Y-103497342D01*
X106135714Y-103497342D02*
X106240476Y-103440200D01*
X106240476Y-103440200D02*
X106292857Y-103383057D01*
X151108771Y-113303333D02*
X151108771Y-112936666D01*
X151737342Y-112936666D02*
X150537342Y-112936666D01*
X150537342Y-112936666D02*
X150537342Y-113460476D01*
X151108771Y-114246190D02*
X151165914Y-114403333D01*
X151165914Y-114403333D02*
X151223057Y-114455714D01*
X151223057Y-114455714D02*
X151337342Y-114508095D01*
X151337342Y-114508095D02*
X151508771Y-114508095D01*
X151508771Y-114508095D02*
X151623057Y-114455714D01*
X151623057Y-114455714D02*
X151680200Y-114403333D01*
X151680200Y-114403333D02*
X151737342Y-114298571D01*
X151737342Y-114298571D02*
X151737342Y-113879523D01*
X151737342Y-113879523D02*
X150537342Y-113879523D01*
X150537342Y-113879523D02*
X150537342Y-114246190D01*
X150537342Y-114246190D02*
X150594485Y-114350952D01*
X150594485Y-114350952D02*
X150651628Y-114403333D01*
X150651628Y-114403333D02*
X150765914Y-114455714D01*
X150765914Y-114455714D02*
X150880200Y-114455714D01*
X150880200Y-114455714D02*
X150994485Y-114403333D01*
X150994485Y-114403333D02*
X151051628Y-114350952D01*
X151051628Y-114350952D02*
X151108771Y-114246190D01*
X151108771Y-114246190D02*
X151108771Y-113879523D01*
X151737342Y-115555714D02*
X151737342Y-114927142D01*
X151737342Y-115241428D02*
X150537342Y-115241428D01*
X150537342Y-115241428D02*
X150708771Y-115136666D01*
X150708771Y-115136666D02*
X150823057Y-115031904D01*
X150823057Y-115031904D02*
X150880200Y-114927142D01*
%TO.C,R31*%
X155790000Y-105370000D02*
X157390000Y-105370000D01*
X157390000Y-108570000D01*
X155790000Y-108570000D01*
X155790000Y-105370000D01*
%TO.C,C12*%
X155790000Y-112820000D02*
X157390000Y-112820000D01*
X157390000Y-116020000D01*
X155790000Y-116020000D01*
X155790000Y-112820000D01*
%TO.C,R32*%
X153890000Y-108570000D02*
X152290000Y-108570000D01*
X152290000Y-105370000D01*
X153890000Y-105370000D01*
X153890000Y-108570000D01*
%TO.C,R6*%
X157390000Y-129020000D02*
X155790000Y-129020000D01*
X155790000Y-125820000D01*
X157390000Y-125820000D01*
X157390000Y-129020000D01*
%TO.C,R29*%
X114975000Y-119645000D02*
X116575000Y-119645000D01*
X116575000Y-122845000D01*
X114975000Y-122845000D01*
X114975000Y-119645000D01*
%TO.C,R16*%
X152290000Y-118820000D02*
X153890000Y-118820000D01*
X153890000Y-122020000D01*
X152290000Y-122020000D01*
X152290000Y-118820000D01*
%TO.C,C15*%
X150390000Y-108570000D02*
X148790000Y-108570000D01*
X148790000Y-105370000D01*
X150390000Y-105370000D01*
X150390000Y-108570000D01*
%TO.C,C13*%
X169290000Y-112820000D02*
X170890000Y-112820000D01*
X170890000Y-116020000D01*
X169290000Y-116020000D01*
X169290000Y-112820000D01*
%TO.C,R30*%
X112235000Y-116875000D02*
X115435000Y-116875000D01*
X115435000Y-115275000D01*
X112235000Y-115275000D01*
X112235000Y-116875000D01*
%TO.C,C11*%
X157435000Y-122020000D02*
X155835000Y-122020000D01*
X155835000Y-118820000D01*
X157435000Y-118820000D01*
X157435000Y-122020000D01*
%TO.C,R18*%
X163290000Y-112820000D02*
X164890000Y-112820000D01*
X164890000Y-116020000D01*
X163290000Y-116020000D01*
X163290000Y-112820000D01*
%TO.C,J23*%
X222330000Y-94110000D02*
X222330000Y-103635000D01*
X222330000Y-103635000D02*
X222965000Y-104270000D01*
X222965000Y-104270000D02*
X224870000Y-104270000D01*
X224870000Y-94110000D02*
X222330000Y-94110000D01*
X224870000Y-104270000D02*
X224870000Y-94110000D01*
%TO.C,D3*%
X145635000Y-94075000D02*
X145635000Y-96875000D01*
X145635000Y-96875000D02*
X147435000Y-96875000D01*
X146135000Y-95225000D02*
X146535000Y-95825000D01*
X146535000Y-95225000D02*
X146535000Y-94725000D01*
X146535000Y-95825000D02*
X145985000Y-95825000D01*
X146535000Y-95825000D02*
X146935000Y-95225000D01*
X146535000Y-95825000D02*
X147085000Y-95825000D01*
X146535000Y-96225000D02*
X146535000Y-95825000D01*
X146935000Y-95225000D02*
X146135000Y-95225000D01*
X147435000Y-94075000D02*
X145635000Y-94075000D01*
X147435000Y-96875000D02*
X147435000Y-94075000D01*
%TO.C,J21*%
X222330000Y-73070000D02*
X222330000Y-85135000D01*
X222330000Y-85135000D02*
X222965000Y-85770000D01*
X222965000Y-85770000D02*
X224870000Y-85770000D01*
X224870000Y-73070000D02*
X222330000Y-73070000D01*
X224870000Y-85770000D02*
X224870000Y-73070000D01*
%TO.C,R19*%
X166290000Y-112820000D02*
X167890000Y-112820000D01*
X167890000Y-116020000D01*
X166290000Y-116020000D01*
X166290000Y-112820000D01*
%TO.C,U5*%
X159190000Y-117020000D02*
X159190000Y-120020000D01*
X159190000Y-120020000D02*
X161190000Y-120020000D01*
X161190000Y-120020000D02*
X162190000Y-119020000D01*
X162190000Y-117020000D02*
X159190000Y-117020000D01*
X162190000Y-119020000D02*
X162190000Y-117020000D01*
%TO.C,F1*%
X103270000Y-128055000D02*
X103270000Y-129485000D01*
X103370000Y-126670000D02*
X105370000Y-126670000D01*
X103370000Y-128055000D02*
X103270000Y-128055000D01*
X103370000Y-129485000D02*
X103270000Y-129485000D01*
X103370000Y-130870000D02*
X103370000Y-126670000D01*
X103670000Y-127270000D02*
X103670000Y-130270000D01*
X103670000Y-130270000D02*
X113770000Y-130270000D01*
X105370000Y-126670000D02*
X105370000Y-127270000D01*
X105370000Y-130270000D02*
X105370000Y-130870000D01*
X105370000Y-130870000D02*
X103370000Y-130870000D01*
X112070000Y-126670000D02*
X114070000Y-126670000D01*
X112070000Y-127270000D02*
X112070000Y-126670000D01*
X112070000Y-130870000D02*
X112070000Y-130270000D01*
X113770000Y-127270000D02*
X103670000Y-127270000D01*
X113770000Y-130270000D02*
X113770000Y-127270000D01*
X114070000Y-126670000D02*
X114070000Y-130870000D01*
X114070000Y-128055000D02*
X114170000Y-128055000D01*
X114070000Y-129485000D02*
X114170000Y-129485000D01*
X114070000Y-130870000D02*
X112070000Y-130870000D01*
X114170000Y-129485000D02*
X114170000Y-128055000D01*
%TO.C,R28*%
X114975000Y-124345000D02*
X116575000Y-124345000D01*
X116575000Y-127545000D01*
X114975000Y-127545000D01*
X114975000Y-124345000D01*
%TO.C,R17*%
X152335000Y-121920000D02*
X153935000Y-121920000D01*
X153935000Y-125120000D01*
X152335000Y-125120000D01*
X152335000Y-121920000D01*
%TO.C,R33*%
X105400000Y-101850000D02*
X108600000Y-101850000D01*
X108600000Y-100250000D01*
X105400000Y-100250000D01*
X105400000Y-101850000D01*
%TO.C,FB1*%
X152290000Y-112820000D02*
X153890000Y-112820000D01*
X153890000Y-116020000D01*
X152290000Y-116020000D01*
X152290000Y-112820000D01*
%TD*%
M02*
