%TF.GenerationSoftware,KiCad,Pcbnew,9.0.8-9.0.8~ubuntu24.04.1*%
%TF.CreationDate,2026-06-16T20:54:12+02:00*%
%TF.ProjectId,sch-14_PeterThePowerMeter,7363682d-3134-45f5-9065-746572546865,01*%
%TF.SameCoordinates,Original*%
%TF.FileFunction,Soldermask,Bot*%
%TF.FilePolarity,Negative*%
%FSLAX46Y46*%
G04 Gerber Fmt 4.6, Leading zero omitted, Abs format (unit mm)*
G04 Created by KiCad (PCBNEW 9.0.8-9.0.8~ubuntu24.04.1) date 2026-06-16 20:54:12*
%MOMM*%
%LPD*%
G01*
G04 APERTURE LIST*
G04 Aperture macros list*
%AMRoundRect*
0 Rectangle with rounded corners*
0 $1 Rounding radius*
0 $2 $3 $4 $5 $6 $7 $8 $9 X,Y pos of 4 corners*
0 Add a 4 corners polygon primitive as box body*
4,1,4,$2,$3,$4,$5,$6,$7,$8,$9,$2,$3,0*
0 Add four circle primitives for the rounded corners*
1,1,$1+$1,$2,$3*
1,1,$1+$1,$4,$5*
1,1,$1+$1,$6,$7*
1,1,$1+$1,$8,$9*
0 Add four rect primitives between the rounded corners*
20,1,$1+$1,$2,$3,$4,$5,0*
20,1,$1+$1,$4,$5,$6,$7,0*
20,1,$1+$1,$6,$7,$8,$9,0*
20,1,$1+$1,$8,$9,$2,$3,0*%
G04 Aperture macros list end*
%ADD10RoundRect,0.204545X0.695455X-0.945455X0.695455X0.945455X-0.695455X0.945455X-0.695455X-0.945455X0*%
%ADD11C,2.100000*%
%ADD12C,2.300000*%
%ADD13O,1.800000X2.600000*%
%ADD14RoundRect,0.264706X0.635294X0.635294X-0.635294X0.635294X-0.635294X-0.635294X0.635294X-0.635294X0*%
%ADD15O,2.200000X1.800000*%
%ADD16RoundRect,0.264706X-0.635294X-0.635294X0.635294X-0.635294X0.635294X0.635294X-0.635294X0.635294X0*%
%ADD17RoundRect,0.220000X-0.780000X-1.130000X0.780000X-1.130000X0.780000X1.130000X-0.780000X1.130000X0*%
%ADD18O,2.100000X2.900000*%
%ADD19RoundRect,0.425000X0.425000X0.425000X-0.425000X0.425000X-0.425000X-0.425000X0.425000X-0.425000X0*%
%ADD20C,1.700000*%
%ADD21O,2.300000X1.800000*%
%ADD22RoundRect,0.262500X0.787500X1.287500X-0.787500X1.287500X-0.787500X-1.287500X0.787500X-1.287500X0*%
%ADD23O,2.100000X3.100000*%
%ADD24O,1.150000X2.000000*%
%ADD25RoundRect,0.265625X-0.584375X-0.584375X0.584375X-0.584375X0.584375X0.584375X-0.584375X0.584375X0*%
%ADD26C,1.300000*%
%ADD27O,1.500000X2.100000*%
%ADD28RoundRect,0.267857X0.482143X-0.782143X0.482143X0.782143X-0.482143X0.782143X-0.482143X-0.782143X0*%
%ADD29RoundRect,0.269231X-0.655769X0.430769X-0.655769X-0.430769X0.655769X-0.430769X0.655769X0.430769X0*%
%ADD30RoundRect,0.268868X-0.681132X0.443632X-0.681132X-0.443632X0.681132X-0.443632X0.681132X0.443632X0*%
%ADD31RoundRect,0.269231X0.655769X-0.430769X0.655769X0.430769X-0.655769X0.430769X-0.655769X-0.430769X0*%
%ADD32RoundRect,0.269231X-0.530769X0.430769X-0.530769X-0.430769X0.530769X-0.430769X0.530769X0.430769X0*%
%ADD33RoundRect,0.268868X0.681132X-0.443632X0.681132X0.443632X-0.681132X0.443632X-0.681132X-0.443632X0*%
%ADD34RoundRect,0.269231X-0.430769X-0.605769X0.430769X-0.605769X0.430769X0.605769X-0.430769X0.605769X0*%
%ADD35RoundRect,0.269231X-0.430769X-0.655769X0.430769X-0.655769X0.430769X0.655769X-0.430769X0.655769X0*%
%ADD36RoundRect,0.252000X-0.648000X-0.648000X0.648000X-0.648000X0.648000X0.648000X-0.648000X0.648000X0*%
%ADD37C,1.900000*%
%ADD38RoundRect,0.250000X0.400000X-0.250000X0.400000X0.250000X-0.400000X0.250000X-0.400000X-0.250000X0*%
%ADD39RoundRect,0.087500X0.087500X-0.612500X0.087500X0.612500X-0.087500X0.612500X-0.087500X-0.612500X0*%
%ADD40RoundRect,0.325000X0.975000X1.325000X-0.975000X1.325000X-0.975000X-1.325000X0.975000X-1.325000X0*%
%ADD41RoundRect,0.362500X1.087500X1.287500X-1.087500X1.287500X-1.087500X-1.287500X1.087500X-1.287500X0*%
%ADD42RoundRect,0.273809X-0.726191X0.301191X-0.726191X-0.301191X0.726191X-0.301191X0.726191X0.301191X0*%
G04 APERTURE END LIST*
D10*
%TO.C,TR1*%
X103484000Y-117366000D03*
D11*
X110684000Y-117366000D03*
D12*
X110684000Y-101066000D03*
D13*
X103484000Y-101066000D03*
%TD*%
D14*
%TO.C,J15*%
X143075000Y-106050000D03*
D15*
X143075000Y-103510000D03*
%TD*%
D16*
%TO.C,J22*%
X188870000Y-95380000D03*
D15*
X188870000Y-97920000D03*
X188870000Y-100460000D03*
X188870000Y-103000000D03*
%TD*%
D17*
%TO.C,J3*%
X107000000Y-122250000D03*
D18*
X112000000Y-122250000D03*
%TD*%
D19*
%TO.C,C4*%
X109250000Y-78570000D03*
D20*
X106750000Y-78570000D03*
%TD*%
D14*
%TO.C,J10*%
X113100000Y-75060000D03*
D21*
X113100000Y-72520000D03*
X113100000Y-69980000D03*
%TD*%
D14*
%TO.C,J11*%
X143100000Y-75060000D03*
D21*
X143100000Y-72520000D03*
X143100000Y-69980000D03*
%TD*%
D22*
%TO.C,J1*%
X112000000Y-60750000D03*
D23*
X107000000Y-60750000D03*
%TD*%
D24*
%TO.C,J2*%
X163675000Y-53450000D03*
X156525000Y-53450000D03*
%TD*%
D16*
%TO.C,J20*%
X188870000Y-74340000D03*
D15*
X188870000Y-76880000D03*
X188870000Y-79420000D03*
X188870000Y-81960000D03*
X188870000Y-84500000D03*
%TD*%
D25*
%TO.C,C1*%
X106750000Y-71850000D03*
D20*
X109250000Y-71850000D03*
%TD*%
D26*
%TO.C,J5*%
X168290000Y-125675000D03*
X168290000Y-118675000D03*
D27*
X165090000Y-126975000D03*
X170590000Y-123975000D03*
X170590000Y-126975000D03*
X166090000Y-118475000D03*
D28*
X170590000Y-119975000D03*
%TD*%
D14*
%TO.C,J14*%
X113075000Y-106050000D03*
D15*
X113075000Y-103510000D03*
%TD*%
D29*
%TO.C,R31*%
X156590000Y-105420000D03*
X156590000Y-108520000D03*
%TD*%
D30*
%TO.C,C12*%
X156590000Y-112857500D03*
X156590000Y-115982500D03*
%TD*%
D31*
%TO.C,R32*%
X153090000Y-108520000D03*
X153090000Y-105420000D03*
%TD*%
%TO.C,R6*%
X156590000Y-128970000D03*
X156590000Y-125870000D03*
%TD*%
D32*
%TO.C,R29*%
X115775000Y-119695000D03*
X115775000Y-122795000D03*
%TD*%
D29*
%TO.C,R16*%
X153090000Y-118870000D03*
X153090000Y-121970000D03*
%TD*%
D33*
%TO.C,C15*%
X149590000Y-108532500D03*
X149590000Y-105407500D03*
%TD*%
D30*
%TO.C,C13*%
X170090000Y-112857500D03*
X170090000Y-115982500D03*
%TD*%
D34*
%TO.C,R30*%
X112285000Y-116075000D03*
D35*
X115385000Y-116075000D03*
%TD*%
D33*
%TO.C,C11*%
X156635000Y-121982500D03*
X156635000Y-118857500D03*
%TD*%
D29*
%TO.C,R18*%
X164090000Y-112870000D03*
X164090000Y-115970000D03*
%TD*%
D36*
%TO.C,J23*%
X223600000Y-103000000D03*
D37*
X223600000Y-100460000D03*
X223600000Y-97920000D03*
X223600000Y-95380000D03*
%TD*%
D38*
%TO.C,D3*%
X146535000Y-97125000D03*
X146535000Y-93825000D03*
%TD*%
D36*
%TO.C,J21*%
X223600000Y-84500000D03*
D37*
X223600000Y-81960000D03*
X223600000Y-79420000D03*
X223600000Y-76880000D03*
X223600000Y-74340000D03*
%TD*%
D29*
%TO.C,R19*%
X167090000Y-112870000D03*
X167090000Y-115970000D03*
%TD*%
D39*
%TO.C,U5*%
X161690000Y-120670000D03*
X161190000Y-120670000D03*
X160690000Y-120670000D03*
X160190000Y-120670000D03*
X159690000Y-120670000D03*
X159690000Y-116370000D03*
X160190000Y-116370000D03*
X160690000Y-116370000D03*
X161190000Y-116370000D03*
X161690000Y-116370000D03*
%TD*%
D40*
%TO.C,F1*%
X112970000Y-128770000D03*
D41*
X104470000Y-128770000D03*
%TD*%
D32*
%TO.C,R28*%
X115775000Y-124395000D03*
X115775000Y-127495000D03*
%TD*%
D29*
%TO.C,R17*%
X153135000Y-121970000D03*
X153135000Y-125070000D03*
%TD*%
D35*
%TO.C,R33*%
X105450000Y-101050000D03*
X108550000Y-101050000D03*
%TD*%
D42*
%TO.C,FB1*%
X153090000Y-112845000D03*
X153090000Y-115995000D03*
%TD*%
M02*
