%TF.GenerationSoftware,KiCad,Pcbnew,9.0.8-9.0.8~ubuntu24.04.1*%
%TF.CreationDate,2026-06-16T20:54:13+02:00*%
%TF.ProjectId,sch-14_PeterThePowerMeter,7363682d-3134-45f5-9065-746572546865,01*%
%TF.SameCoordinates,Original*%
%TF.FileFunction,Other,User*%
%FSLAX46Y46*%
G04 Gerber Fmt 4.6, Leading zero omitted, Abs format (unit mm)*
G04 Created by KiCad (PCBNEW 9.0.8-9.0.8~ubuntu24.04.1) date 2026-06-16 20:54:13*
%MOMM*%
%LPD*%
G01*
G04 APERTURE LIST*
%ADD10C,0.150000*%
G04 APERTURE END LIST*
D10*
X127500000Y-50500000D02*
X127500000Y-77500000D01*
X127500000Y-77500000D02*
X134000000Y-77500000D01*
X127500000Y-105500000D02*
X127500000Y-132500000D01*
X127500000Y-132500000D02*
X177000000Y-132500000D01*
X128500000Y-51500000D02*
X176000000Y-51500000D01*
X128500000Y-76500000D02*
X128500000Y-51500000D01*
X128500000Y-106500000D02*
X135000000Y-106500000D01*
X128500000Y-131500000D02*
X128500000Y-106500000D01*
X134000000Y-77500000D02*
X134000000Y-105500000D01*
X134000000Y-105500000D02*
X127500000Y-105500000D01*
X135000000Y-76500000D02*
X128500000Y-76500000D01*
X135000000Y-106500000D02*
X135000000Y-76500000D01*
X176000000Y-51500000D02*
X176000000Y-69500000D01*
X176000000Y-69500000D02*
X202500000Y-69500000D01*
X176000000Y-112500000D02*
X176000000Y-131500000D01*
X176000000Y-131500000D02*
X128500000Y-131500000D01*
X177000000Y-50500000D02*
X127500000Y-50500000D01*
X177000000Y-68500000D02*
X177000000Y-50500000D01*
X177000000Y-113500000D02*
X203500000Y-113500000D01*
X177000000Y-132500000D02*
X177000000Y-113500000D01*
X202500000Y-69500000D02*
X202500000Y-112500000D01*
X202500000Y-112500000D02*
X176000000Y-112500000D01*
X203500000Y-68500000D02*
X177000000Y-68500000D01*
X203500000Y-113500000D02*
X203500000Y-68500000D01*
X213500000Y-74700000D02*
X226500000Y-74700000D01*
X213500000Y-102700000D02*
X213500000Y-74700000D01*
X215750000Y-74700000D02*
X216250000Y-74100000D01*
X216250000Y-72300000D02*
X215650000Y-72300000D01*
X216250000Y-74100000D02*
X216250000Y-72300000D01*
X217600000Y-72300000D02*
X217000000Y-72300000D01*
X218900000Y-72300000D02*
X218300000Y-72300000D01*
X220300000Y-72300000D02*
X219700000Y-72300000D01*
X221600000Y-72300000D02*
X221000000Y-72300000D01*
X222700000Y-73600000D02*
X223500000Y-73600000D01*
X222900000Y-72300000D02*
X222300000Y-72300000D01*
X223100000Y-72700000D02*
X222700000Y-73600000D01*
X223200000Y-72200000D02*
X223400000Y-71500000D01*
X223400000Y-71500000D02*
X223800000Y-71800000D01*
X223500000Y-70200000D02*
X224000000Y-70600000D01*
X223500000Y-71600000D02*
X223600000Y-71700000D01*
X223500000Y-71700000D02*
X223300000Y-71850000D01*
X223500000Y-73600000D02*
X223100000Y-72700000D01*
X223600000Y-71700000D02*
X223600000Y-71800000D01*
X223600000Y-71800000D02*
X223600000Y-71900000D01*
X223600000Y-71900000D02*
X223400000Y-71700000D01*
X223650000Y-72300000D02*
X223650000Y-74100000D01*
X223650000Y-74100000D02*
X224250000Y-74700000D01*
X223800000Y-71800000D02*
X223200000Y-72200000D01*
X224000000Y-70600000D02*
X224000000Y-71100000D01*
X224000000Y-71100000D02*
X223200000Y-72200000D01*
X224250000Y-72300000D02*
X223650000Y-72300000D01*
X226500000Y-74700000D02*
X226500000Y-102700000D01*
X226500000Y-102700000D02*
X213500000Y-102700000D01*
X214904762Y-72928985D02*
X214809524Y-72857557D01*
X214809524Y-72857557D02*
X214761905Y-72786128D01*
X214761905Y-72786128D02*
X214714286Y-72643271D01*
X214714286Y-72643271D02*
X214714286Y-72571842D01*
X214714286Y-72571842D02*
X214761905Y-72428985D01*
X214761905Y-72428985D02*
X214809524Y-72357557D01*
X214809524Y-72357557D02*
X214904762Y-72286128D01*
X214904762Y-72286128D02*
X215095238Y-72286128D01*
X215095238Y-72286128D02*
X215190476Y-72357557D01*
X215190476Y-72357557D02*
X215238095Y-72428985D01*
X215238095Y-72428985D02*
X215285714Y-72571842D01*
X215285714Y-72571842D02*
X215285714Y-72643271D01*
X215285714Y-72643271D02*
X215238095Y-72786128D01*
X215238095Y-72786128D02*
X215190476Y-72857557D01*
X215190476Y-72857557D02*
X215095238Y-72928985D01*
X215095238Y-72928985D02*
X214904762Y-72928985D01*
X214904762Y-72928985D02*
X214809524Y-73000414D01*
X214809524Y-73000414D02*
X214761905Y-73071842D01*
X214761905Y-73071842D02*
X214714286Y-73214700D01*
X214714286Y-73214700D02*
X214714286Y-73500414D01*
X214714286Y-73500414D02*
X214761905Y-73643271D01*
X214761905Y-73643271D02*
X214809524Y-73714700D01*
X214809524Y-73714700D02*
X214904762Y-73786128D01*
X214904762Y-73786128D02*
X215095238Y-73786128D01*
X215095238Y-73786128D02*
X215190476Y-73714700D01*
X215190476Y-73714700D02*
X215238095Y-73643271D01*
X215238095Y-73643271D02*
X215285714Y-73500414D01*
X215285714Y-73500414D02*
X215285714Y-73214700D01*
X215285714Y-73214700D02*
X215238095Y-73071842D01*
X215238095Y-73071842D02*
X215190476Y-73000414D01*
X215190476Y-73000414D02*
X215095238Y-72928985D01*
X213352379Y-67478670D02*
X213352379Y-65978670D01*
X213828569Y-66478670D02*
X213828569Y-67478670D01*
X213828569Y-66621527D02*
X213876188Y-66550099D01*
X213876188Y-66550099D02*
X213971426Y-66478670D01*
X213971426Y-66478670D02*
X214114283Y-66478670D01*
X214114283Y-66478670D02*
X214209521Y-66550099D01*
X214209521Y-66550099D02*
X214257140Y-66692956D01*
X214257140Y-66692956D02*
X214257140Y-67478670D01*
X214733331Y-66478670D02*
X214733331Y-67978670D01*
X214733331Y-66550099D02*
X214828569Y-66478670D01*
X214828569Y-66478670D02*
X215019045Y-66478670D01*
X215019045Y-66478670D02*
X215114283Y-66550099D01*
X215114283Y-66550099D02*
X215161902Y-66621527D01*
X215161902Y-66621527D02*
X215209521Y-66764384D01*
X215209521Y-66764384D02*
X215209521Y-67192956D01*
X215209521Y-67192956D02*
X215161902Y-67335813D01*
X215161902Y-67335813D02*
X215114283Y-67407242D01*
X215114283Y-67407242D02*
X215019045Y-67478670D01*
X215019045Y-67478670D02*
X214828569Y-67478670D01*
X214828569Y-67478670D02*
X214733331Y-67407242D01*
X216066664Y-66478670D02*
X216066664Y-67478670D01*
X215638093Y-66478670D02*
X215638093Y-67264384D01*
X215638093Y-67264384D02*
X215685712Y-67407242D01*
X215685712Y-67407242D02*
X215780950Y-67478670D01*
X215780950Y-67478670D02*
X215923807Y-67478670D01*
X215923807Y-67478670D02*
X216019045Y-67407242D01*
X216019045Y-67407242D02*
X216066664Y-67335813D01*
X216399998Y-66478670D02*
X216780950Y-66478670D01*
X216542855Y-65978670D02*
X216542855Y-67264384D01*
X216542855Y-67264384D02*
X216590474Y-67407242D01*
X216590474Y-67407242D02*
X216685712Y-67478670D01*
X216685712Y-67478670D02*
X216780950Y-67478670D01*
X217733332Y-66478670D02*
X218114284Y-66478670D01*
X217876189Y-67478670D02*
X217876189Y-66192956D01*
X217876189Y-66192956D02*
X217923808Y-66050099D01*
X217923808Y-66050099D02*
X218019046Y-65978670D01*
X218019046Y-65978670D02*
X218114284Y-65978670D01*
X218590475Y-67478670D02*
X218495237Y-67407242D01*
X218495237Y-67407242D02*
X218447618Y-67264384D01*
X218447618Y-67264384D02*
X218447618Y-65978670D01*
X219399999Y-67478670D02*
X219399999Y-66692956D01*
X219399999Y-66692956D02*
X219352380Y-66550099D01*
X219352380Y-66550099D02*
X219257142Y-66478670D01*
X219257142Y-66478670D02*
X219066666Y-66478670D01*
X219066666Y-66478670D02*
X218971428Y-66550099D01*
X219399999Y-67407242D02*
X219304761Y-67478670D01*
X219304761Y-67478670D02*
X219066666Y-67478670D01*
X219066666Y-67478670D02*
X218971428Y-67407242D01*
X218971428Y-67407242D02*
X218923809Y-67264384D01*
X218923809Y-67264384D02*
X218923809Y-67121527D01*
X218923809Y-67121527D02*
X218971428Y-66978670D01*
X218971428Y-66978670D02*
X219066666Y-66907242D01*
X219066666Y-66907242D02*
X219304761Y-66907242D01*
X219304761Y-66907242D02*
X219399999Y-66835813D01*
X219733333Y-66478670D02*
X220114285Y-66478670D01*
X219876190Y-65978670D02*
X219876190Y-67264384D01*
X219876190Y-67264384D02*
X219923809Y-67407242D01*
X219923809Y-67407242D02*
X220019047Y-67478670D01*
X220019047Y-67478670D02*
X220114285Y-67478670D01*
X221066667Y-66478670D02*
X221447619Y-66478670D01*
X221209524Y-65978670D02*
X221209524Y-67264384D01*
X221209524Y-67264384D02*
X221257143Y-67407242D01*
X221257143Y-67407242D02*
X221352381Y-67478670D01*
X221352381Y-67478670D02*
X221447619Y-67478670D01*
X221780953Y-67478670D02*
X221780953Y-65978670D01*
X222209524Y-67478670D02*
X222209524Y-66692956D01*
X222209524Y-66692956D02*
X222161905Y-66550099D01*
X222161905Y-66550099D02*
X222066667Y-66478670D01*
X222066667Y-66478670D02*
X221923810Y-66478670D01*
X221923810Y-66478670D02*
X221828572Y-66550099D01*
X221828572Y-66550099D02*
X221780953Y-66621527D01*
X222685715Y-67478670D02*
X222685715Y-66478670D01*
X222685715Y-66764384D02*
X222733334Y-66621527D01*
X222733334Y-66621527D02*
X222780953Y-66550099D01*
X222780953Y-66550099D02*
X222876191Y-66478670D01*
X222876191Y-66478670D02*
X222971429Y-66478670D01*
X223447620Y-67478670D02*
X223352382Y-67407242D01*
X223352382Y-67407242D02*
X223304763Y-67335813D01*
X223304763Y-67335813D02*
X223257144Y-67192956D01*
X223257144Y-67192956D02*
X223257144Y-66764384D01*
X223257144Y-66764384D02*
X223304763Y-66621527D01*
X223304763Y-66621527D02*
X223352382Y-66550099D01*
X223352382Y-66550099D02*
X223447620Y-66478670D01*
X223447620Y-66478670D02*
X223590477Y-66478670D01*
X223590477Y-66478670D02*
X223685715Y-66550099D01*
X223685715Y-66550099D02*
X223733334Y-66621527D01*
X223733334Y-66621527D02*
X223780953Y-66764384D01*
X223780953Y-66764384D02*
X223780953Y-67192956D01*
X223780953Y-67192956D02*
X223733334Y-67335813D01*
X223733334Y-67335813D02*
X223685715Y-67407242D01*
X223685715Y-67407242D02*
X223590477Y-67478670D01*
X223590477Y-67478670D02*
X223447620Y-67478670D01*
X224638096Y-66478670D02*
X224638096Y-67478670D01*
X224209525Y-66478670D02*
X224209525Y-67264384D01*
X224209525Y-67264384D02*
X224257144Y-67407242D01*
X224257144Y-67407242D02*
X224352382Y-67478670D01*
X224352382Y-67478670D02*
X224495239Y-67478670D01*
X224495239Y-67478670D02*
X224590477Y-67407242D01*
X224590477Y-67407242D02*
X224638096Y-67335813D01*
X225542858Y-66478670D02*
X225542858Y-67692956D01*
X225542858Y-67692956D02*
X225495239Y-67835813D01*
X225495239Y-67835813D02*
X225447620Y-67907242D01*
X225447620Y-67907242D02*
X225352382Y-67978670D01*
X225352382Y-67978670D02*
X225209525Y-67978670D01*
X225209525Y-67978670D02*
X225114287Y-67907242D01*
X225542858Y-67407242D02*
X225447620Y-67478670D01*
X225447620Y-67478670D02*
X225257144Y-67478670D01*
X225257144Y-67478670D02*
X225161906Y-67407242D01*
X225161906Y-67407242D02*
X225114287Y-67335813D01*
X225114287Y-67335813D02*
X225066668Y-67192956D01*
X225066668Y-67192956D02*
X225066668Y-66764384D01*
X225066668Y-66764384D02*
X225114287Y-66621527D01*
X225114287Y-66621527D02*
X225161906Y-66550099D01*
X225161906Y-66550099D02*
X225257144Y-66478670D01*
X225257144Y-66478670D02*
X225447620Y-66478670D01*
X225447620Y-66478670D02*
X225542858Y-66550099D01*
X226019049Y-67478670D02*
X226019049Y-65978670D01*
X226447620Y-67478670D02*
X226447620Y-66692956D01*
X226447620Y-66692956D02*
X226400001Y-66550099D01*
X226400001Y-66550099D02*
X226304763Y-66478670D01*
X226304763Y-66478670D02*
X226161906Y-66478670D01*
X226161906Y-66478670D02*
X226066668Y-66550099D01*
X226066668Y-66550099D02*
X226019049Y-66621527D01*
X211804761Y-69893586D02*
X211804761Y-68393586D01*
X211804761Y-68965015D02*
X211899999Y-68893586D01*
X211899999Y-68893586D02*
X212090475Y-68893586D01*
X212090475Y-68893586D02*
X212185713Y-68965015D01*
X212185713Y-68965015D02*
X212233332Y-69036443D01*
X212233332Y-69036443D02*
X212280951Y-69179300D01*
X212280951Y-69179300D02*
X212280951Y-69607872D01*
X212280951Y-69607872D02*
X212233332Y-69750729D01*
X212233332Y-69750729D02*
X212185713Y-69822158D01*
X212185713Y-69822158D02*
X212090475Y-69893586D01*
X212090475Y-69893586D02*
X211899999Y-69893586D01*
X211899999Y-69893586D02*
X211804761Y-69822158D01*
X212852380Y-69893586D02*
X212757142Y-69822158D01*
X212757142Y-69822158D02*
X212709523Y-69750729D01*
X212709523Y-69750729D02*
X212661904Y-69607872D01*
X212661904Y-69607872D02*
X212661904Y-69179300D01*
X212661904Y-69179300D02*
X212709523Y-69036443D01*
X212709523Y-69036443D02*
X212757142Y-68965015D01*
X212757142Y-68965015D02*
X212852380Y-68893586D01*
X212852380Y-68893586D02*
X212995237Y-68893586D01*
X212995237Y-68893586D02*
X213090475Y-68965015D01*
X213090475Y-68965015D02*
X213138094Y-69036443D01*
X213138094Y-69036443D02*
X213185713Y-69179300D01*
X213185713Y-69179300D02*
X213185713Y-69607872D01*
X213185713Y-69607872D02*
X213138094Y-69750729D01*
X213138094Y-69750729D02*
X213090475Y-69822158D01*
X213090475Y-69822158D02*
X212995237Y-69893586D01*
X212995237Y-69893586D02*
X212852380Y-69893586D01*
X213519047Y-69893586D02*
X214042856Y-68893586D01*
X213519047Y-68893586D02*
X214042856Y-69893586D01*
X215185714Y-69893586D02*
X215185714Y-68893586D01*
X215185714Y-68393586D02*
X215138095Y-68465015D01*
X215138095Y-68465015D02*
X215185714Y-68536443D01*
X215185714Y-68536443D02*
X215233333Y-68465015D01*
X215233333Y-68465015D02*
X215185714Y-68393586D01*
X215185714Y-68393586D02*
X215185714Y-68536443D01*
X215661904Y-68893586D02*
X215661904Y-69893586D01*
X215661904Y-69036443D02*
X215709523Y-68965015D01*
X215709523Y-68965015D02*
X215804761Y-68893586D01*
X215804761Y-68893586D02*
X215947618Y-68893586D01*
X215947618Y-68893586D02*
X216042856Y-68965015D01*
X216042856Y-68965015D02*
X216090475Y-69107872D01*
X216090475Y-69107872D02*
X216090475Y-69893586D01*
X217328571Y-69893586D02*
X217328571Y-68393586D01*
X217328571Y-68393586D02*
X217709523Y-68393586D01*
X217709523Y-68393586D02*
X217804761Y-68465015D01*
X217804761Y-68465015D02*
X217852380Y-68536443D01*
X217852380Y-68536443D02*
X217899999Y-68679300D01*
X217899999Y-68679300D02*
X217899999Y-68893586D01*
X217899999Y-68893586D02*
X217852380Y-69036443D01*
X217852380Y-69036443D02*
X217804761Y-69107872D01*
X217804761Y-69107872D02*
X217709523Y-69179300D01*
X217709523Y-69179300D02*
X217328571Y-69179300D01*
X218899999Y-69750729D02*
X218852380Y-69822158D01*
X218852380Y-69822158D02*
X218709523Y-69893586D01*
X218709523Y-69893586D02*
X218614285Y-69893586D01*
X218614285Y-69893586D02*
X218471428Y-69822158D01*
X218471428Y-69822158D02*
X218376190Y-69679300D01*
X218376190Y-69679300D02*
X218328571Y-69536443D01*
X218328571Y-69536443D02*
X218280952Y-69250729D01*
X218280952Y-69250729D02*
X218280952Y-69036443D01*
X218280952Y-69036443D02*
X218328571Y-68750729D01*
X218328571Y-68750729D02*
X218376190Y-68607872D01*
X218376190Y-68607872D02*
X218471428Y-68465015D01*
X218471428Y-68465015D02*
X218614285Y-68393586D01*
X218614285Y-68393586D02*
X218709523Y-68393586D01*
X218709523Y-68393586D02*
X218852380Y-68465015D01*
X218852380Y-68465015D02*
X218899999Y-68536443D01*
X219661904Y-69107872D02*
X219804761Y-69179300D01*
X219804761Y-69179300D02*
X219852380Y-69250729D01*
X219852380Y-69250729D02*
X219899999Y-69393586D01*
X219899999Y-69393586D02*
X219899999Y-69607872D01*
X219899999Y-69607872D02*
X219852380Y-69750729D01*
X219852380Y-69750729D02*
X219804761Y-69822158D01*
X219804761Y-69822158D02*
X219709523Y-69893586D01*
X219709523Y-69893586D02*
X219328571Y-69893586D01*
X219328571Y-69893586D02*
X219328571Y-68393586D01*
X219328571Y-68393586D02*
X219661904Y-68393586D01*
X219661904Y-68393586D02*
X219757142Y-68465015D01*
X219757142Y-68465015D02*
X219804761Y-68536443D01*
X219804761Y-68536443D02*
X219852380Y-68679300D01*
X219852380Y-68679300D02*
X219852380Y-68822158D01*
X219852380Y-68822158D02*
X219804761Y-68965015D01*
X219804761Y-68965015D02*
X219757142Y-69036443D01*
X219757142Y-69036443D02*
X219661904Y-69107872D01*
X219661904Y-69107872D02*
X219328571Y-69107872D01*
X221519047Y-69822158D02*
X221423809Y-69893586D01*
X221423809Y-69893586D02*
X221233333Y-69893586D01*
X221233333Y-69893586D02*
X221138095Y-69822158D01*
X221138095Y-69822158D02*
X221090476Y-69750729D01*
X221090476Y-69750729D02*
X221042857Y-69607872D01*
X221042857Y-69607872D02*
X221042857Y-69179300D01*
X221042857Y-69179300D02*
X221090476Y-69036443D01*
X221090476Y-69036443D02*
X221138095Y-68965015D01*
X221138095Y-68965015D02*
X221233333Y-68893586D01*
X221233333Y-68893586D02*
X221423809Y-68893586D01*
X221423809Y-68893586D02*
X221519047Y-68965015D01*
X222090476Y-69893586D02*
X221995238Y-69822158D01*
X221995238Y-69822158D02*
X221947619Y-69750729D01*
X221947619Y-69750729D02*
X221900000Y-69607872D01*
X221900000Y-69607872D02*
X221900000Y-69179300D01*
X221900000Y-69179300D02*
X221947619Y-69036443D01*
X221947619Y-69036443D02*
X221995238Y-68965015D01*
X221995238Y-68965015D02*
X222090476Y-68893586D01*
X222090476Y-68893586D02*
X222233333Y-68893586D01*
X222233333Y-68893586D02*
X222328571Y-68965015D01*
X222328571Y-68965015D02*
X222376190Y-69036443D01*
X222376190Y-69036443D02*
X222423809Y-69179300D01*
X222423809Y-69179300D02*
X222423809Y-69607872D01*
X222423809Y-69607872D02*
X222376190Y-69750729D01*
X222376190Y-69750729D02*
X222328571Y-69822158D01*
X222328571Y-69822158D02*
X222233333Y-69893586D01*
X222233333Y-69893586D02*
X222090476Y-69893586D01*
X222852381Y-68893586D02*
X222852381Y-69893586D01*
X222852381Y-69036443D02*
X222900000Y-68965015D01*
X222900000Y-68965015D02*
X222995238Y-68893586D01*
X222995238Y-68893586D02*
X223138095Y-68893586D01*
X223138095Y-68893586D02*
X223233333Y-68965015D01*
X223233333Y-68965015D02*
X223280952Y-69107872D01*
X223280952Y-69107872D02*
X223280952Y-69893586D01*
X223757143Y-68893586D02*
X223757143Y-69893586D01*
X223757143Y-69036443D02*
X223804762Y-68965015D01*
X223804762Y-68965015D02*
X223900000Y-68893586D01*
X223900000Y-68893586D02*
X224042857Y-68893586D01*
X224042857Y-68893586D02*
X224138095Y-68965015D01*
X224138095Y-68965015D02*
X224185714Y-69107872D01*
X224185714Y-69107872D02*
X224185714Y-69893586D01*
X225042857Y-69822158D02*
X224947619Y-69893586D01*
X224947619Y-69893586D02*
X224757143Y-69893586D01*
X224757143Y-69893586D02*
X224661905Y-69822158D01*
X224661905Y-69822158D02*
X224614286Y-69679300D01*
X224614286Y-69679300D02*
X224614286Y-69107872D01*
X224614286Y-69107872D02*
X224661905Y-68965015D01*
X224661905Y-68965015D02*
X224757143Y-68893586D01*
X224757143Y-68893586D02*
X224947619Y-68893586D01*
X224947619Y-68893586D02*
X225042857Y-68965015D01*
X225042857Y-68965015D02*
X225090476Y-69107872D01*
X225090476Y-69107872D02*
X225090476Y-69250729D01*
X225090476Y-69250729D02*
X224614286Y-69393586D01*
X225947619Y-69822158D02*
X225852381Y-69893586D01*
X225852381Y-69893586D02*
X225661905Y-69893586D01*
X225661905Y-69893586D02*
X225566667Y-69822158D01*
X225566667Y-69822158D02*
X225519048Y-69750729D01*
X225519048Y-69750729D02*
X225471429Y-69607872D01*
X225471429Y-69607872D02*
X225471429Y-69179300D01*
X225471429Y-69179300D02*
X225519048Y-69036443D01*
X225519048Y-69036443D02*
X225566667Y-68965015D01*
X225566667Y-68965015D02*
X225661905Y-68893586D01*
X225661905Y-68893586D02*
X225852381Y-68893586D01*
X225852381Y-68893586D02*
X225947619Y-68965015D01*
X226233334Y-68893586D02*
X226614286Y-68893586D01*
X226376191Y-68393586D02*
X226376191Y-69679300D01*
X226376191Y-69679300D02*
X226423810Y-69822158D01*
X226423810Y-69822158D02*
X226519048Y-69893586D01*
X226519048Y-69893586D02*
X226614286Y-69893586D01*
X227090477Y-69893586D02*
X226995239Y-69822158D01*
X226995239Y-69822158D02*
X226947620Y-69750729D01*
X226947620Y-69750729D02*
X226900001Y-69607872D01*
X226900001Y-69607872D02*
X226900001Y-69179300D01*
X226900001Y-69179300D02*
X226947620Y-69036443D01*
X226947620Y-69036443D02*
X226995239Y-68965015D01*
X226995239Y-68965015D02*
X227090477Y-68893586D01*
X227090477Y-68893586D02*
X227233334Y-68893586D01*
X227233334Y-68893586D02*
X227328572Y-68965015D01*
X227328572Y-68965015D02*
X227376191Y-69036443D01*
X227376191Y-69036443D02*
X227423810Y-69179300D01*
X227423810Y-69179300D02*
X227423810Y-69607872D01*
X227423810Y-69607872D02*
X227376191Y-69750729D01*
X227376191Y-69750729D02*
X227328572Y-69822158D01*
X227328572Y-69822158D02*
X227233334Y-69893586D01*
X227233334Y-69893586D02*
X227090477Y-69893586D01*
X227852382Y-69893586D02*
X227852382Y-68893586D01*
X227852382Y-69179300D02*
X227900001Y-69036443D01*
X227900001Y-69036443D02*
X227947620Y-68965015D01*
X227947620Y-68965015D02*
X228042858Y-68893586D01*
X228042858Y-68893586D02*
X228138096Y-68893586D01*
X225085714Y-73786128D02*
X224514286Y-73786128D01*
X224800000Y-73786128D02*
X224800000Y-72286128D01*
X224800000Y-72286128D02*
X224704762Y-72500414D01*
X224704762Y-72500414D02*
X224609524Y-72643271D01*
X224609524Y-72643271D02*
X224514286Y-72714700D01*
X216980952Y-84697550D02*
X216504762Y-84697550D01*
X216504762Y-84697550D02*
X216504762Y-82697550D01*
X217885714Y-84507073D02*
X217838095Y-84602312D01*
X217838095Y-84602312D02*
X217695238Y-84697550D01*
X217695238Y-84697550D02*
X217600000Y-84697550D01*
X217600000Y-84697550D02*
X217457143Y-84602312D01*
X217457143Y-84602312D02*
X217361905Y-84411835D01*
X217361905Y-84411835D02*
X217314286Y-84221359D01*
X217314286Y-84221359D02*
X217266667Y-83840407D01*
X217266667Y-83840407D02*
X217266667Y-83554692D01*
X217266667Y-83554692D02*
X217314286Y-83173740D01*
X217314286Y-83173740D02*
X217361905Y-82983264D01*
X217361905Y-82983264D02*
X217457143Y-82792788D01*
X217457143Y-82792788D02*
X217600000Y-82697550D01*
X217600000Y-82697550D02*
X217695238Y-82697550D01*
X217695238Y-82697550D02*
X217838095Y-82792788D01*
X217838095Y-82792788D02*
X217885714Y-82888026D01*
X218314286Y-84697550D02*
X218314286Y-82697550D01*
X218314286Y-82697550D02*
X218552381Y-82697550D01*
X218552381Y-82697550D02*
X218695238Y-82792788D01*
X218695238Y-82792788D02*
X218790476Y-82983264D01*
X218790476Y-82983264D02*
X218838095Y-83173740D01*
X218838095Y-83173740D02*
X218885714Y-83554692D01*
X218885714Y-83554692D02*
X218885714Y-83840407D01*
X218885714Y-83840407D02*
X218838095Y-84221359D01*
X218838095Y-84221359D02*
X218790476Y-84411835D01*
X218790476Y-84411835D02*
X218695238Y-84602312D01*
X218695238Y-84602312D02*
X218552381Y-84697550D01*
X218552381Y-84697550D02*
X218314286Y-84697550D01*
X220266667Y-82697550D02*
X220361905Y-82697550D01*
X220361905Y-82697550D02*
X220457143Y-82792788D01*
X220457143Y-82792788D02*
X220504762Y-82888026D01*
X220504762Y-82888026D02*
X220552381Y-83078502D01*
X220552381Y-83078502D02*
X220600000Y-83459454D01*
X220600000Y-83459454D02*
X220600000Y-83935645D01*
X220600000Y-83935645D02*
X220552381Y-84316597D01*
X220552381Y-84316597D02*
X220504762Y-84507073D01*
X220504762Y-84507073D02*
X220457143Y-84602312D01*
X220457143Y-84602312D02*
X220361905Y-84697550D01*
X220361905Y-84697550D02*
X220266667Y-84697550D01*
X220266667Y-84697550D02*
X220171429Y-84602312D01*
X220171429Y-84602312D02*
X220123810Y-84507073D01*
X220123810Y-84507073D02*
X220076191Y-84316597D01*
X220076191Y-84316597D02*
X220028572Y-83935645D01*
X220028572Y-83935645D02*
X220028572Y-83459454D01*
X220028572Y-83459454D02*
X220076191Y-83078502D01*
X220076191Y-83078502D02*
X220123810Y-82888026D01*
X220123810Y-82888026D02*
X220171429Y-82792788D01*
X220171429Y-82792788D02*
X220266667Y-82697550D01*
X221028572Y-84507073D02*
X221076191Y-84602312D01*
X221076191Y-84602312D02*
X221028572Y-84697550D01*
X221028572Y-84697550D02*
X220980953Y-84602312D01*
X220980953Y-84602312D02*
X221028572Y-84507073D01*
X221028572Y-84507073D02*
X221028572Y-84697550D01*
X221552381Y-84697550D02*
X221742857Y-84697550D01*
X221742857Y-84697550D02*
X221838095Y-84602312D01*
X221838095Y-84602312D02*
X221885714Y-84507073D01*
X221885714Y-84507073D02*
X221980952Y-84221359D01*
X221980952Y-84221359D02*
X222028571Y-83840407D01*
X222028571Y-83840407D02*
X222028571Y-83078502D01*
X222028571Y-83078502D02*
X221980952Y-82888026D01*
X221980952Y-82888026D02*
X221933333Y-82792788D01*
X221933333Y-82792788D02*
X221838095Y-82697550D01*
X221838095Y-82697550D02*
X221647619Y-82697550D01*
X221647619Y-82697550D02*
X221552381Y-82792788D01*
X221552381Y-82792788D02*
X221504762Y-82888026D01*
X221504762Y-82888026D02*
X221457143Y-83078502D01*
X221457143Y-83078502D02*
X221457143Y-83554692D01*
X221457143Y-83554692D02*
X221504762Y-83745169D01*
X221504762Y-83745169D02*
X221552381Y-83840407D01*
X221552381Y-83840407D02*
X221647619Y-83935645D01*
X221647619Y-83935645D02*
X221838095Y-83935645D01*
X221838095Y-83935645D02*
X221933333Y-83840407D01*
X221933333Y-83840407D02*
X221980952Y-83745169D01*
X221980952Y-83745169D02*
X222028571Y-83554692D01*
X222885714Y-82697550D02*
X222695238Y-82697550D01*
X222695238Y-82697550D02*
X222600000Y-82792788D01*
X222600000Y-82792788D02*
X222552381Y-82888026D01*
X222552381Y-82888026D02*
X222457143Y-83173740D01*
X222457143Y-83173740D02*
X222409524Y-83554692D01*
X222409524Y-83554692D02*
X222409524Y-84316597D01*
X222409524Y-84316597D02*
X222457143Y-84507073D01*
X222457143Y-84507073D02*
X222504762Y-84602312D01*
X222504762Y-84602312D02*
X222600000Y-84697550D01*
X222600000Y-84697550D02*
X222790476Y-84697550D01*
X222790476Y-84697550D02*
X222885714Y-84602312D01*
X222885714Y-84602312D02*
X222933333Y-84507073D01*
X222933333Y-84507073D02*
X222980952Y-84316597D01*
X222980952Y-84316597D02*
X222980952Y-83840407D01*
X222980952Y-83840407D02*
X222933333Y-83649931D01*
X222933333Y-83649931D02*
X222885714Y-83554692D01*
X222885714Y-83554692D02*
X222790476Y-83459454D01*
X222790476Y-83459454D02*
X222600000Y-83459454D01*
X222600000Y-83459454D02*
X222504762Y-83554692D01*
X222504762Y-83554692D02*
X222457143Y-83649931D01*
X222457143Y-83649931D02*
X222409524Y-83840407D01*
X223361905Y-82697550D02*
X223361905Y-83078502D01*
X223742857Y-82697550D02*
X223742857Y-83078502D01*
X219409523Y-87917438D02*
X219076190Y-86965057D01*
X218838095Y-87917438D02*
X218838095Y-85917438D01*
X218838095Y-85917438D02*
X219219047Y-85917438D01*
X219219047Y-85917438D02*
X219314285Y-86012676D01*
X219314285Y-86012676D02*
X219361904Y-86107914D01*
X219361904Y-86107914D02*
X219409523Y-86298390D01*
X219409523Y-86298390D02*
X219409523Y-86584104D01*
X219409523Y-86584104D02*
X219361904Y-86774580D01*
X219361904Y-86774580D02*
X219314285Y-86869819D01*
X219314285Y-86869819D02*
X219219047Y-86965057D01*
X219219047Y-86965057D02*
X218838095Y-86965057D01*
X220361904Y-86012676D02*
X220266666Y-85917438D01*
X220266666Y-85917438D02*
X220123809Y-85917438D01*
X220123809Y-85917438D02*
X219980952Y-86012676D01*
X219980952Y-86012676D02*
X219885714Y-86203152D01*
X219885714Y-86203152D02*
X219838095Y-86393628D01*
X219838095Y-86393628D02*
X219790476Y-86774580D01*
X219790476Y-86774580D02*
X219790476Y-87060295D01*
X219790476Y-87060295D02*
X219838095Y-87441247D01*
X219838095Y-87441247D02*
X219885714Y-87631723D01*
X219885714Y-87631723D02*
X219980952Y-87822200D01*
X219980952Y-87822200D02*
X220123809Y-87917438D01*
X220123809Y-87917438D02*
X220219047Y-87917438D01*
X220219047Y-87917438D02*
X220361904Y-87822200D01*
X220361904Y-87822200D02*
X220409523Y-87726961D01*
X220409523Y-87726961D02*
X220409523Y-87060295D01*
X220409523Y-87060295D02*
X220219047Y-87060295D01*
X221171428Y-86869819D02*
X221314285Y-86965057D01*
X221314285Y-86965057D02*
X221361904Y-87060295D01*
X221361904Y-87060295D02*
X221409523Y-87250771D01*
X221409523Y-87250771D02*
X221409523Y-87536485D01*
X221409523Y-87536485D02*
X221361904Y-87726961D01*
X221361904Y-87726961D02*
X221314285Y-87822200D01*
X221314285Y-87822200D02*
X221219047Y-87917438D01*
X221219047Y-87917438D02*
X220838095Y-87917438D01*
X220838095Y-87917438D02*
X220838095Y-85917438D01*
X220838095Y-85917438D02*
X221171428Y-85917438D01*
X221171428Y-85917438D02*
X221266666Y-86012676D01*
X221266666Y-86012676D02*
X221314285Y-86107914D01*
X221314285Y-86107914D02*
X221361904Y-86298390D01*
X221361904Y-86298390D02*
X221361904Y-86488866D01*
X221361904Y-86488866D02*
X221314285Y-86679342D01*
X221314285Y-86679342D02*
X221266666Y-86774580D01*
X221266666Y-86774580D02*
X221171428Y-86869819D01*
X221171428Y-86869819D02*
X220838095Y-86869819D01*
X217695238Y-89994468D02*
X217600000Y-89899230D01*
X217600000Y-89899230D02*
X217552381Y-89803992D01*
X217552381Y-89803992D02*
X217504762Y-89613516D01*
X217504762Y-89613516D02*
X217504762Y-89518278D01*
X217504762Y-89518278D02*
X217552381Y-89327802D01*
X217552381Y-89327802D02*
X217600000Y-89232564D01*
X217600000Y-89232564D02*
X217695238Y-89137326D01*
X217695238Y-89137326D02*
X217885714Y-89137326D01*
X217885714Y-89137326D02*
X217980952Y-89232564D01*
X217980952Y-89232564D02*
X218028571Y-89327802D01*
X218028571Y-89327802D02*
X218076190Y-89518278D01*
X218076190Y-89518278D02*
X218076190Y-89613516D01*
X218076190Y-89613516D02*
X218028571Y-89803992D01*
X218028571Y-89803992D02*
X217980952Y-89899230D01*
X217980952Y-89899230D02*
X217885714Y-89994468D01*
X217885714Y-89994468D02*
X217695238Y-89994468D01*
X217695238Y-89994468D02*
X217600000Y-90089707D01*
X217600000Y-90089707D02*
X217552381Y-90184945D01*
X217552381Y-90184945D02*
X217504762Y-90375421D01*
X217504762Y-90375421D02*
X217504762Y-90756373D01*
X217504762Y-90756373D02*
X217552381Y-90946849D01*
X217552381Y-90946849D02*
X217600000Y-91042088D01*
X217600000Y-91042088D02*
X217695238Y-91137326D01*
X217695238Y-91137326D02*
X217885714Y-91137326D01*
X217885714Y-91137326D02*
X217980952Y-91042088D01*
X217980952Y-91042088D02*
X218028571Y-90946849D01*
X218028571Y-90946849D02*
X218076190Y-90756373D01*
X218076190Y-90756373D02*
X218076190Y-90375421D01*
X218076190Y-90375421D02*
X218028571Y-90184945D01*
X218028571Y-90184945D02*
X217980952Y-90089707D01*
X217980952Y-90089707D02*
X217885714Y-89994468D01*
X218695238Y-89137326D02*
X218790476Y-89137326D01*
X218790476Y-89137326D02*
X218885714Y-89232564D01*
X218885714Y-89232564D02*
X218933333Y-89327802D01*
X218933333Y-89327802D02*
X218980952Y-89518278D01*
X218980952Y-89518278D02*
X219028571Y-89899230D01*
X219028571Y-89899230D02*
X219028571Y-90375421D01*
X219028571Y-90375421D02*
X218980952Y-90756373D01*
X218980952Y-90756373D02*
X218933333Y-90946849D01*
X218933333Y-90946849D02*
X218885714Y-91042088D01*
X218885714Y-91042088D02*
X218790476Y-91137326D01*
X218790476Y-91137326D02*
X218695238Y-91137326D01*
X218695238Y-91137326D02*
X218600000Y-91042088D01*
X218600000Y-91042088D02*
X218552381Y-90946849D01*
X218552381Y-90946849D02*
X218504762Y-90756373D01*
X218504762Y-90756373D02*
X218457143Y-90375421D01*
X218457143Y-90375421D02*
X218457143Y-89899230D01*
X218457143Y-89899230D02*
X218504762Y-89518278D01*
X218504762Y-89518278D02*
X218552381Y-89327802D01*
X218552381Y-89327802D02*
X218600000Y-89232564D01*
X218600000Y-89232564D02*
X218695238Y-89137326D01*
X219361905Y-91137326D02*
X219885714Y-89803992D01*
X219361905Y-89803992D02*
X219885714Y-91137326D01*
X220790476Y-91137326D02*
X220219048Y-91137326D01*
X220504762Y-91137326D02*
X220504762Y-89137326D01*
X220504762Y-89137326D02*
X220409524Y-89423040D01*
X220409524Y-89423040D02*
X220314286Y-89613516D01*
X220314286Y-89613516D02*
X220219048Y-89708754D01*
X221647619Y-89137326D02*
X221457143Y-89137326D01*
X221457143Y-89137326D02*
X221361905Y-89232564D01*
X221361905Y-89232564D02*
X221314286Y-89327802D01*
X221314286Y-89327802D02*
X221219048Y-89613516D01*
X221219048Y-89613516D02*
X221171429Y-89994468D01*
X221171429Y-89994468D02*
X221171429Y-90756373D01*
X221171429Y-90756373D02*
X221219048Y-90946849D01*
X221219048Y-90946849D02*
X221266667Y-91042088D01*
X221266667Y-91042088D02*
X221361905Y-91137326D01*
X221361905Y-91137326D02*
X221552381Y-91137326D01*
X221552381Y-91137326D02*
X221647619Y-91042088D01*
X221647619Y-91042088D02*
X221695238Y-90946849D01*
X221695238Y-90946849D02*
X221742857Y-90756373D01*
X221742857Y-90756373D02*
X221742857Y-90280183D01*
X221742857Y-90280183D02*
X221695238Y-90089707D01*
X221695238Y-90089707D02*
X221647619Y-89994468D01*
X221647619Y-89994468D02*
X221552381Y-89899230D01*
X221552381Y-89899230D02*
X221361905Y-89899230D01*
X221361905Y-89899230D02*
X221266667Y-89994468D01*
X221266667Y-89994468D02*
X221219048Y-90089707D01*
X221219048Y-90089707D02*
X221171429Y-90280183D01*
X222361905Y-89137326D02*
X222457143Y-89137326D01*
X222457143Y-89137326D02*
X222552381Y-89232564D01*
X222552381Y-89232564D02*
X222600000Y-89327802D01*
X222600000Y-89327802D02*
X222647619Y-89518278D01*
X222647619Y-89518278D02*
X222695238Y-89899230D01*
X222695238Y-89899230D02*
X222695238Y-90375421D01*
X222695238Y-90375421D02*
X222647619Y-90756373D01*
X222647619Y-90756373D02*
X222600000Y-90946849D01*
X222600000Y-90946849D02*
X222552381Y-91042088D01*
X222552381Y-91042088D02*
X222457143Y-91137326D01*
X222457143Y-91137326D02*
X222361905Y-91137326D01*
X222361905Y-91137326D02*
X222266667Y-91042088D01*
X222266667Y-91042088D02*
X222219048Y-90946849D01*
X222219048Y-90946849D02*
X222171429Y-90756373D01*
X222171429Y-90756373D02*
X222123810Y-90375421D01*
X222123810Y-90375421D02*
X222123810Y-89899230D01*
X222123810Y-89899230D02*
X222171429Y-89518278D01*
X222171429Y-89518278D02*
X222219048Y-89327802D01*
X222219048Y-89327802D02*
X222266667Y-89232564D01*
X222266667Y-89232564D02*
X222361905Y-89137326D01*
M02*
