%TF.GenerationSoftware,KiCad,Pcbnew,9.0.8-9.0.8~ubuntu24.04.1*%
%TF.CreationDate,2026-06-16T20:54:12+02:00*%
%TF.ProjectId,sch-14_PeterThePowerMeter,7363682d-3134-45f5-9065-746572546865,01*%
%TF.SameCoordinates,Original*%
%TF.FileFunction,Soldermask,Top*%
%TF.FilePolarity,Negative*%
%FSLAX46Y46*%
G04 Gerber Fmt 4.6, Leading zero omitted, Abs format (unit mm)*
G04 Created by KiCad (PCBNEW 9.0.8-9.0.8~ubuntu24.04.1) date 2026-06-16 20:54:12*
%MOMM*%
%LPD*%
G01*
G04 APERTURE LIST*
G04 Aperture macros list*
%AMRoundRect*
0 Rectangle with rounded corners*
0 $1 Rounding radius*
0 $2 $3 $4 $5 $6 $7 $8 $9 X,Y pos of 4 corners*
0 Add a 4 corners polygon primitive as box body*
4,1,4,$2,$3,$4,$5,$6,$7,$8,$9,$2,$3,0*
0 Add four circle primitives for the rounded corners*
1,1,$1+$1,$2,$3*
1,1,$1+$1,$4,$5*
1,1,$1+$1,$6,$7*
1,1,$1+$1,$8,$9*
0 Add four rect primitives between the rounded corners*
20,1,$1+$1,$2,$3,$4,$5,0*
20,1,$1+$1,$4,$5,$6,$7,0*
20,1,$1+$1,$6,$7,$8,$9,0*
20,1,$1+$1,$8,$9,$2,$3,0*%
G04 Aperture macros list end*
%ADD10RoundRect,0.269231X0.655769X-0.430769X0.655769X0.430769X-0.655769X0.430769X-0.655769X-0.430769X0*%
%ADD11RoundRect,0.268868X0.681132X-0.443632X0.681132X0.443632X-0.681132X0.443632X-0.681132X-0.443632X0*%
%ADD12RoundRect,0.272727X-0.327273X-0.327273X0.327273X-0.327273X0.327273X0.327273X-0.327273X0.327273X0*%
%ADD13RoundRect,0.269231X-0.655769X0.430769X-0.655769X-0.430769X0.655769X-0.430769X0.655769X0.430769X0*%
%ADD14RoundRect,0.204545X0.695455X-0.945455X0.695455X0.945455X-0.695455X0.945455X-0.695455X-0.945455X0*%
%ADD15C,2.100000*%
%ADD16C,2.300000*%
%ADD17O,1.800000X2.600000*%
%ADD18RoundRect,0.050000X-1.250000X-0.500000X1.250000X-0.500000X1.250000X0.500000X-1.250000X0.500000X0*%
%ADD19RoundRect,0.050000X-0.500000X-0.900000X0.500000X-0.900000X0.500000X0.900000X-0.500000X0.900000X0*%
%ADD20RoundRect,0.175000X0.850000X0.175000X-0.850000X0.175000X-0.850000X-0.175000X0.850000X-0.175000X0*%
%ADD21RoundRect,0.050000X0.150000X0.650000X-0.150000X0.650000X-0.150000X-0.650000X0.150000X-0.650000X0*%
%ADD22RoundRect,0.263889X0.686111X0.886111X-0.686111X0.886111X-0.686111X-0.886111X0.686111X-0.886111X0*%
%ADD23RoundRect,0.264706X0.635294X0.635294X-0.635294X0.635294X-0.635294X-0.635294X0.635294X-0.635294X0*%
%ADD24O,2.200000X1.800000*%
%ADD25RoundRect,0.264706X-0.635294X-0.635294X0.635294X-0.635294X0.635294X0.635294X-0.635294X0.635294X0*%
%ADD26RoundRect,0.268868X-0.443632X-0.681132X0.443632X-0.681132X0.443632X0.681132X-0.443632X0.681132X0*%
%ADD27RoundRect,0.125000X0.125000X-0.587500X0.125000X0.587500X-0.125000X0.587500X-0.125000X-0.587500X0*%
%ADD28RoundRect,0.400000X-0.400000X0.650000X-0.400000X-0.650000X0.400000X-0.650000X0.400000X0.650000X0*%
%ADD29RoundRect,0.525000X-1.425000X0.525000X-1.425000X-0.525000X1.425000X-0.525000X1.425000X0.525000X0*%
%ADD30RoundRect,0.175000X0.612500X0.175000X-0.612500X0.175000X-0.612500X-0.175000X0.612500X-0.175000X0*%
%ADD31RoundRect,0.268868X-0.681132X0.443632X-0.681132X-0.443632X0.681132X-0.443632X0.681132X0.443632X0*%
%ADD32RoundRect,0.220000X-0.780000X-1.130000X0.780000X-1.130000X0.780000X1.130000X-0.780000X1.130000X0*%
%ADD33O,2.100000X2.900000*%
%ADD34RoundRect,0.262500X-1.887500X0.787500X-1.887500X-0.787500X1.887500X-0.787500X1.887500X0.787500X0*%
%ADD35RoundRect,0.425000X0.425000X0.425000X-0.425000X0.425000X-0.425000X-0.425000X0.425000X-0.425000X0*%
%ADD36C,1.700000*%
%ADD37O,2.300000X1.800000*%
%ADD38RoundRect,0.270000X-0.655000X0.405000X-0.655000X-0.405000X0.655000X-0.405000X0.655000X0.405000X0*%
%ADD39RoundRect,0.187500X-0.187500X0.387500X-0.187500X-0.387500X0.187500X-0.387500X0.187500X0.387500X0*%
%ADD40RoundRect,0.262500X0.787500X1.287500X-0.787500X1.287500X-0.787500X-1.287500X0.787500X-1.287500X0*%
%ADD41O,2.100000X3.100000*%
%ADD42RoundRect,0.050000X0.200000X0.700000X-0.200000X0.700000X-0.200000X-0.700000X0.200000X-0.700000X0*%
%ADD43O,1.150000X2.000000*%
%ADD44RoundRect,0.050000X0.575000X0.725000X-0.575000X0.725000X-0.575000X-0.725000X0.575000X-0.725000X0*%
%ADD45RoundRect,0.050000X0.875000X0.950000X-0.875000X0.950000X-0.875000X-0.950000X0.875000X-0.950000X0*%
%ADD46RoundRect,0.269231X-0.430769X-0.655769X0.430769X-0.655769X0.430769X0.655769X-0.430769X0.655769X0*%
%ADD47RoundRect,0.175000X0.175000X-0.900000X0.175000X0.900000X-0.175000X0.900000X-0.175000X-0.900000X0*%
%ADD48RoundRect,0.265625X-0.584375X-0.584375X0.584375X-0.584375X0.584375X0.584375X-0.584375X0.584375X0*%
%ADD49RoundRect,0.187500X0.187500X-0.387500X0.187500X0.387500X-0.187500X0.387500X-0.187500X-0.387500X0*%
%ADD50C,1.300000*%
%ADD51O,1.500000X2.100000*%
%ADD52RoundRect,0.267857X0.482143X-0.782143X0.482143X0.782143X-0.482143X0.782143X-0.482143X-0.782143X0*%
%ADD53RoundRect,0.252000X-0.648000X-0.648000X0.648000X-0.648000X0.648000X0.648000X-0.648000X0.648000X0*%
%ADD54C,1.900000*%
G04 APERTURE END LIST*
D10*
%TO.C,R7*%
X146090000Y-76970000D03*
X146090000Y-73870000D03*
%TD*%
D11*
%TO.C,C5*%
X163590000Y-93982500D03*
X163590000Y-90857500D03*
%TD*%
D10*
%TO.C,R22*%
X149590000Y-84970000D03*
X149590000Y-81870000D03*
%TD*%
D12*
%TO.C,D1*%
X152600000Y-58500000D03*
X155400000Y-58500000D03*
%TD*%
D13*
%TO.C,R2*%
X163590000Y-72870000D03*
X163590000Y-75970000D03*
%TD*%
D14*
%TO.C,TR1*%
X103484000Y-117366000D03*
D15*
X110684000Y-117366000D03*
D16*
X110684000Y-101066000D03*
D17*
X103484000Y-101066000D03*
%TD*%
D18*
%TO.C,U2*%
X168200000Y-78200000D03*
X168200000Y-80200000D03*
X168200000Y-82200000D03*
X168200000Y-84200000D03*
X168200000Y-86200000D03*
X168200000Y-88200000D03*
X168200000Y-90200000D03*
X168200000Y-92200000D03*
D19*
X170800000Y-93700000D03*
X172800000Y-93700000D03*
X174800000Y-93700000D03*
X176800000Y-93700000D03*
X178800000Y-93700000D03*
X180800000Y-93700000D03*
D18*
X183400000Y-92200000D03*
X183400000Y-90200000D03*
X183400000Y-88200000D03*
X183400000Y-86200000D03*
X183400000Y-84200000D03*
X183400000Y-82200000D03*
X183400000Y-80200000D03*
X183400000Y-78200000D03*
%TD*%
D20*
%TO.C,U3*%
X158980000Y-69965000D03*
X158980000Y-68695000D03*
X158980000Y-67425000D03*
X158980000Y-66155000D03*
X158980000Y-64885000D03*
X158980000Y-63615000D03*
X158980000Y-62345000D03*
X158980000Y-61075000D03*
X154030000Y-61075000D03*
X154030000Y-62345000D03*
X154030000Y-63615000D03*
X154030000Y-64885000D03*
X154030000Y-66155000D03*
X154030000Y-67425000D03*
X154030000Y-68695000D03*
X154030000Y-69965000D03*
%TD*%
D21*
%TO.C,J4*%
X221750000Y-92350000D03*
X221250000Y-92350000D03*
X220750000Y-92350000D03*
X220250000Y-92350000D03*
X219750000Y-92350000D03*
X219250000Y-92350000D03*
X218750000Y-92350000D03*
X218250000Y-92350000D03*
D22*
X223650000Y-89100000D03*
X216350000Y-89100000D03*
%TD*%
D23*
%TO.C,J15*%
X143075000Y-106050000D03*
D24*
X143075000Y-103510000D03*
%TD*%
D25*
%TO.C,J22*%
X188870000Y-95380000D03*
D24*
X188870000Y-97920000D03*
X188870000Y-100460000D03*
X188870000Y-103000000D03*
%TD*%
D26*
%TO.C,C2*%
X104737500Y-84000000D03*
X107862500Y-84000000D03*
%TD*%
D27*
%TO.C,U4*%
X155440000Y-75307500D03*
X156090000Y-75307500D03*
X156740000Y-75307500D03*
X156740000Y-73532500D03*
X156090000Y-73532500D03*
X155440000Y-73532500D03*
%TD*%
D10*
%TO.C,R24*%
X214520000Y-98150000D03*
X214520000Y-95050000D03*
%TD*%
D28*
%TO.C,U1*%
X111500000Y-87850000D03*
X109200000Y-87850000D03*
D29*
X109200000Y-94150000D03*
D28*
X106900000Y-87850000D03*
%TD*%
D26*
%TO.C,C3*%
X110337500Y-84000000D03*
X113462500Y-84000000D03*
%TD*%
D30*
%TO.C,Q1*%
X157527500Y-102330000D03*
X157527500Y-100430000D03*
X155652500Y-101380000D03*
%TD*%
D31*
%TO.C,C10*%
X217520000Y-95037500D03*
X217520000Y-98162500D03*
%TD*%
D10*
%TO.C,R11*%
X160090000Y-84970000D03*
X160090000Y-81870000D03*
%TD*%
%TO.C,R23*%
X160090000Y-102930000D03*
X160090000Y-99830000D03*
%TD*%
D13*
%TO.C,R20*%
X195000000Y-88450000D03*
X195000000Y-91550000D03*
%TD*%
D32*
%TO.C,J3*%
X107000000Y-122250000D03*
D33*
X112000000Y-122250000D03*
%TD*%
D34*
%TO.C,BZ1*%
X146535000Y-89475000D03*
X146535000Y-97475000D03*
%TD*%
D12*
%TO.C,D2*%
X110565000Y-66060000D03*
X113365000Y-66060000D03*
%TD*%
D13*
%TO.C,R14*%
X167090000Y-99830000D03*
X167090000Y-102930000D03*
%TD*%
D35*
%TO.C,C4*%
X109250000Y-78570000D03*
D36*
X106750000Y-78570000D03*
%TD*%
D13*
%TO.C,R9*%
X153090000Y-81870000D03*
X153090000Y-84970000D03*
%TD*%
D23*
%TO.C,J10*%
X113100000Y-75060000D03*
D37*
X113100000Y-72520000D03*
X113100000Y-69980000D03*
%TD*%
D10*
%TO.C,R21*%
X146090000Y-84970000D03*
X146090000Y-81870000D03*
%TD*%
D11*
%TO.C,C8*%
X149590000Y-69982500D03*
X149590000Y-66857500D03*
%TD*%
D38*
%TO.C,LD1*%
X220000000Y-105600000D03*
X220000000Y-108400000D03*
%TD*%
D23*
%TO.C,J11*%
X143100000Y-75060000D03*
D37*
X143100000Y-72520000D03*
X143100000Y-69980000D03*
%TD*%
D39*
%TO.C,SW1*%
X216575000Y-104825000D03*
X216575000Y-108975000D03*
X214425000Y-104825000D03*
X214425000Y-108950000D03*
%TD*%
D10*
%TO.C,R10*%
X192000000Y-91550000D03*
X192000000Y-88450000D03*
%TD*%
%TO.C,R5*%
X220520000Y-98150000D03*
X220520000Y-95050000D03*
%TD*%
%TO.C,R4*%
X156590000Y-93970000D03*
X156590000Y-90870000D03*
%TD*%
D13*
%TO.C,R3*%
X153090000Y-90870000D03*
X153090000Y-93970000D03*
%TD*%
D31*
%TO.C,C14*%
X170590000Y-99817500D03*
X170590000Y-102942500D03*
%TD*%
D13*
%TO.C,R8*%
X149590000Y-73870000D03*
X149590000Y-76970000D03*
%TD*%
D40*
%TO.C,J1*%
X112000000Y-60750000D03*
D41*
X107000000Y-60750000D03*
%TD*%
D11*
%TO.C,C7*%
X146090000Y-69982500D03*
X146090000Y-66857500D03*
%TD*%
D10*
%TO.C,R15*%
X163590000Y-84970000D03*
X163590000Y-81870000D03*
%TD*%
D42*
%TO.C,J2*%
X161400000Y-56100000D03*
X160750000Y-56100000D03*
X160100000Y-56100000D03*
X159450000Y-56100000D03*
X158800000Y-56100000D03*
D43*
X163675000Y-53450000D03*
D44*
X162420000Y-55680000D03*
D45*
X161225000Y-53450000D03*
X158975000Y-53450000D03*
D44*
X157780000Y-55680000D03*
D43*
X156525000Y-53450000D03*
%TD*%
D46*
%TO.C,TH1*%
X105415000Y-66060000D03*
X108515000Y-66060000D03*
%TD*%
D10*
%TO.C,R12*%
X156590000Y-84970000D03*
X156590000Y-81870000D03*
%TD*%
D13*
%TO.C,R13*%
X163590000Y-99830000D03*
X163590000Y-102930000D03*
%TD*%
D25*
%TO.C,J20*%
X188870000Y-74340000D03*
D24*
X188870000Y-76880000D03*
X188870000Y-79420000D03*
X188870000Y-81960000D03*
X188870000Y-84500000D03*
%TD*%
D11*
%TO.C,C6*%
X160090000Y-93982500D03*
X160090000Y-90857500D03*
%TD*%
D47*
%TO.C,U6*%
X175095000Y-107945000D03*
X176365000Y-107945000D03*
X177635000Y-107945000D03*
X178905000Y-107945000D03*
X180175000Y-107945000D03*
X181445000Y-107945000D03*
X182715000Y-107945000D03*
X183985000Y-107945000D03*
X183985000Y-98645000D03*
X182715000Y-98645000D03*
X181445000Y-98645000D03*
X180175000Y-98645000D03*
X178905000Y-98645000D03*
X177635000Y-98645000D03*
X176365000Y-98645000D03*
X175095000Y-98645000D03*
%TD*%
D48*
%TO.C,C1*%
X106750000Y-71850000D03*
D36*
X109250000Y-71850000D03*
%TD*%
D49*
%TO.C,SW2*%
X223425000Y-108975000D03*
X223425000Y-104825000D03*
X225575000Y-108975000D03*
X225575000Y-104850000D03*
%TD*%
D50*
%TO.C,J5*%
X168290000Y-125675000D03*
X168290000Y-118675000D03*
D51*
X165090000Y-126975000D03*
X170590000Y-123975000D03*
X170590000Y-126975000D03*
X166090000Y-118475000D03*
D52*
X170590000Y-119975000D03*
%TD*%
D10*
%TO.C,R1*%
X160090000Y-75970000D03*
X160090000Y-72870000D03*
%TD*%
D11*
%TO.C,C9*%
X163590000Y-66982500D03*
X163590000Y-63857500D03*
%TD*%
D23*
%TO.C,J14*%
X113075000Y-106050000D03*
D24*
X113075000Y-103510000D03*
%TD*%
D53*
%TO.C,J23*%
X223600000Y-103000000D03*
D54*
X223600000Y-100460000D03*
X223600000Y-97920000D03*
X223600000Y-95380000D03*
%TD*%
D53*
%TO.C,J21*%
X223600000Y-84500000D03*
D54*
X223600000Y-81960000D03*
X223600000Y-79420000D03*
X223600000Y-76880000D03*
X223600000Y-74340000D03*
%TD*%
M02*
