%TF.GenerationSoftware,KiCad,Pcbnew,9.0.8-9.0.8~ubuntu24.04.1*%
%TF.CreationDate,2026-06-16T20:54:13+02:00*%
%TF.ProjectId,sch-14_PeterThePowerMeter,7363682d-3134-45f5-9065-746572546865,01*%
%TF.SameCoordinates,Original*%
%TF.FileFunction,Other,User*%
%FSLAX46Y46*%
G04 Gerber Fmt 4.6, Leading zero omitted, Abs format (unit mm)*
G04 Created by KiCad (PCBNEW 9.0.8-9.0.8~ubuntu24.04.1) date 2026-06-16 20:54:13*
%MOMM*%
%LPD*%
G01*
G04 APERTURE LIST*
%ADD10C,0.150000*%
G04 APERTURE END LIST*
D10*
X214000000Y-105000000D02*
X217000000Y-105000000D01*
X217000000Y-109000000D01*
X214000000Y-109000000D01*
X214000000Y-105000000D01*
X219000000Y-105000000D02*
X221000000Y-105000000D01*
X221000000Y-109000000D01*
X219000000Y-109000000D01*
X219000000Y-105000000D01*
X223000000Y-105000000D02*
X226000000Y-105000000D01*
X226000000Y-109000000D01*
X223000000Y-109000000D01*
X223000000Y-105000000D01*
X214289160Y-104322200D02*
X214432017Y-104369819D01*
X214432017Y-104369819D02*
X214670112Y-104369819D01*
X214670112Y-104369819D02*
X214765350Y-104322200D01*
X214765350Y-104322200D02*
X214812969Y-104274580D01*
X214812969Y-104274580D02*
X214860588Y-104179342D01*
X214860588Y-104179342D02*
X214860588Y-104084104D01*
X214860588Y-104084104D02*
X214812969Y-103988866D01*
X214812969Y-103988866D02*
X214765350Y-103941247D01*
X214765350Y-103941247D02*
X214670112Y-103893628D01*
X214670112Y-103893628D02*
X214479636Y-103846009D01*
X214479636Y-103846009D02*
X214384398Y-103798390D01*
X214384398Y-103798390D02*
X214336779Y-103750771D01*
X214336779Y-103750771D02*
X214289160Y-103655533D01*
X214289160Y-103655533D02*
X214289160Y-103560295D01*
X214289160Y-103560295D02*
X214336779Y-103465057D01*
X214336779Y-103465057D02*
X214384398Y-103417438D01*
X214384398Y-103417438D02*
X214479636Y-103369819D01*
X214479636Y-103369819D02*
X214717731Y-103369819D01*
X214717731Y-103369819D02*
X214860588Y-103417438D01*
X215193922Y-103369819D02*
X215432017Y-104369819D01*
X215432017Y-104369819D02*
X215622493Y-103655533D01*
X215622493Y-103655533D02*
X215812969Y-104369819D01*
X215812969Y-104369819D02*
X216051065Y-103369819D01*
X216955826Y-104369819D02*
X216384398Y-104369819D01*
X216670112Y-104369819D02*
X216670112Y-103369819D01*
X216670112Y-103369819D02*
X216574874Y-103512676D01*
X216574874Y-103512676D02*
X216479636Y-103607914D01*
X216479636Y-103607914D02*
X216384398Y-103655533D01*
X219312969Y-104369819D02*
X218836779Y-104369819D01*
X218836779Y-104369819D02*
X218836779Y-103369819D01*
X219646303Y-104369819D02*
X219646303Y-103369819D01*
X219646303Y-103369819D02*
X219884398Y-103369819D01*
X219884398Y-103369819D02*
X220027255Y-103417438D01*
X220027255Y-103417438D02*
X220122493Y-103512676D01*
X220122493Y-103512676D02*
X220170112Y-103607914D01*
X220170112Y-103607914D02*
X220217731Y-103798390D01*
X220217731Y-103798390D02*
X220217731Y-103941247D01*
X220217731Y-103941247D02*
X220170112Y-104131723D01*
X220170112Y-104131723D02*
X220122493Y-104226961D01*
X220122493Y-104226961D02*
X220027255Y-104322200D01*
X220027255Y-104322200D02*
X219884398Y-104369819D01*
X219884398Y-104369819D02*
X219646303Y-104369819D01*
X221170112Y-104369819D02*
X220598684Y-104369819D01*
X220884398Y-104369819D02*
X220884398Y-103369819D01*
X220884398Y-103369819D02*
X220789160Y-103512676D01*
X220789160Y-103512676D02*
X220693922Y-103607914D01*
X220693922Y-103607914D02*
X220598684Y-103655533D01*
X223289160Y-104322200D02*
X223432017Y-104369819D01*
X223432017Y-104369819D02*
X223670112Y-104369819D01*
X223670112Y-104369819D02*
X223765350Y-104322200D01*
X223765350Y-104322200D02*
X223812969Y-104274580D01*
X223812969Y-104274580D02*
X223860588Y-104179342D01*
X223860588Y-104179342D02*
X223860588Y-104084104D01*
X223860588Y-104084104D02*
X223812969Y-103988866D01*
X223812969Y-103988866D02*
X223765350Y-103941247D01*
X223765350Y-103941247D02*
X223670112Y-103893628D01*
X223670112Y-103893628D02*
X223479636Y-103846009D01*
X223479636Y-103846009D02*
X223384398Y-103798390D01*
X223384398Y-103798390D02*
X223336779Y-103750771D01*
X223336779Y-103750771D02*
X223289160Y-103655533D01*
X223289160Y-103655533D02*
X223289160Y-103560295D01*
X223289160Y-103560295D02*
X223336779Y-103465057D01*
X223336779Y-103465057D02*
X223384398Y-103417438D01*
X223384398Y-103417438D02*
X223479636Y-103369819D01*
X223479636Y-103369819D02*
X223717731Y-103369819D01*
X223717731Y-103369819D02*
X223860588Y-103417438D01*
X224193922Y-103369819D02*
X224432017Y-104369819D01*
X224432017Y-104369819D02*
X224622493Y-103655533D01*
X224622493Y-103655533D02*
X224812969Y-104369819D01*
X224812969Y-104369819D02*
X225051065Y-103369819D01*
X225384398Y-103465057D02*
X225432017Y-103417438D01*
X225432017Y-103417438D02*
X225527255Y-103369819D01*
X225527255Y-103369819D02*
X225765350Y-103369819D01*
X225765350Y-103369819D02*
X225860588Y-103417438D01*
X225860588Y-103417438D02*
X225908207Y-103465057D01*
X225908207Y-103465057D02*
X225955826Y-103560295D01*
X225955826Y-103560295D02*
X225955826Y-103655533D01*
X225955826Y-103655533D02*
X225908207Y-103798390D01*
X225908207Y-103798390D02*
X225336779Y-104369819D01*
X225336779Y-104369819D02*
X225955826Y-104369819D01*
X205238096Y-121604819D02*
X205904762Y-121604819D01*
X205904762Y-121604819D02*
X205476191Y-122604819D01*
X206333334Y-122557200D02*
X206333334Y-122604819D01*
X206333334Y-122604819D02*
X206285715Y-122700057D01*
X206285715Y-122700057D02*
X206238096Y-122747676D01*
X207238095Y-121604819D02*
X206761905Y-121604819D01*
X206761905Y-121604819D02*
X206714286Y-122081009D01*
X206714286Y-122081009D02*
X206761905Y-122033390D01*
X206761905Y-122033390D02*
X206857143Y-121985771D01*
X206857143Y-121985771D02*
X207095238Y-121985771D01*
X207095238Y-121985771D02*
X207190476Y-122033390D01*
X207190476Y-122033390D02*
X207238095Y-122081009D01*
X207238095Y-122081009D02*
X207285714Y-122176247D01*
X207285714Y-122176247D02*
X207285714Y-122414342D01*
X207285714Y-122414342D02*
X207238095Y-122509580D01*
X207238095Y-122509580D02*
X207190476Y-122557200D01*
X207190476Y-122557200D02*
X207095238Y-122604819D01*
X207095238Y-122604819D02*
X206857143Y-122604819D01*
X206857143Y-122604819D02*
X206761905Y-122557200D01*
X206761905Y-122557200D02*
X206714286Y-122509580D01*
X208476191Y-122604819D02*
X208476191Y-121938152D01*
X208476191Y-122033390D02*
X208523810Y-121985771D01*
X208523810Y-121985771D02*
X208619048Y-121938152D01*
X208619048Y-121938152D02*
X208761905Y-121938152D01*
X208761905Y-121938152D02*
X208857143Y-121985771D01*
X208857143Y-121985771D02*
X208904762Y-122081009D01*
X208904762Y-122081009D02*
X208904762Y-122604819D01*
X208904762Y-122081009D02*
X208952381Y-121985771D01*
X208952381Y-121985771D02*
X209047619Y-121938152D01*
X209047619Y-121938152D02*
X209190476Y-121938152D01*
X209190476Y-121938152D02*
X209285715Y-121985771D01*
X209285715Y-121985771D02*
X209333334Y-122081009D01*
X209333334Y-122081009D02*
X209333334Y-122604819D01*
X209809524Y-122604819D02*
X209809524Y-121938152D01*
X209809524Y-122033390D02*
X209857143Y-121985771D01*
X209857143Y-121985771D02*
X209952381Y-121938152D01*
X209952381Y-121938152D02*
X210095238Y-121938152D01*
X210095238Y-121938152D02*
X210190476Y-121985771D01*
X210190476Y-121985771D02*
X210238095Y-122081009D01*
X210238095Y-122081009D02*
X210238095Y-122604819D01*
X210238095Y-122081009D02*
X210285714Y-121985771D01*
X210285714Y-121985771D02*
X210380952Y-121938152D01*
X210380952Y-121938152D02*
X210523809Y-121938152D01*
X210523809Y-121938152D02*
X210619048Y-121985771D01*
X210619048Y-121985771D02*
X210666667Y-122081009D01*
X210666667Y-122081009D02*
X210666667Y-122604819D01*
X212500000Y-110500000D02*
X212500000Y-123886420D01*
X220000000Y-123886420D02*
X220000000Y-107700000D01*
X212500000Y-123300000D02*
X220000000Y-123300000D01*
X212500000Y-123300000D02*
X209960000Y-123300000D01*
X212500000Y-123300000D02*
X211373496Y-123886421D01*
X212500000Y-123300000D02*
X211373496Y-122713579D01*
X220000000Y-123300000D02*
X222540000Y-123300000D01*
X220000000Y-123300000D02*
X221126504Y-122713579D01*
X220000000Y-123300000D02*
X221126504Y-123886421D01*
X130804819Y-128119047D02*
X130804819Y-128690475D01*
X130804819Y-128404761D02*
X129804819Y-128404761D01*
X129804819Y-128404761D02*
X129947676Y-128499999D01*
X129947676Y-128499999D02*
X130042914Y-128595237D01*
X130042914Y-128595237D02*
X130090533Y-128690475D01*
X130804819Y-127166666D02*
X130804819Y-127738094D01*
X130804819Y-127452380D02*
X129804819Y-127452380D01*
X129804819Y-127452380D02*
X129947676Y-127547618D01*
X129947676Y-127547618D02*
X130042914Y-127642856D01*
X130042914Y-127642856D02*
X130090533Y-127738094D01*
X130757200Y-126690475D02*
X130804819Y-126690475D01*
X130804819Y-126690475D02*
X130900057Y-126738094D01*
X130900057Y-126738094D02*
X130947676Y-126785713D01*
X129804819Y-126071428D02*
X129804819Y-125976190D01*
X129804819Y-125976190D02*
X129852438Y-125880952D01*
X129852438Y-125880952D02*
X129900057Y-125833333D01*
X129900057Y-125833333D02*
X129995295Y-125785714D01*
X129995295Y-125785714D02*
X130185771Y-125738095D01*
X130185771Y-125738095D02*
X130423866Y-125738095D01*
X130423866Y-125738095D02*
X130614342Y-125785714D01*
X130614342Y-125785714D02*
X130709580Y-125833333D01*
X130709580Y-125833333D02*
X130757200Y-125880952D01*
X130757200Y-125880952D02*
X130804819Y-125976190D01*
X130804819Y-125976190D02*
X130804819Y-126071428D01*
X130804819Y-126071428D02*
X130757200Y-126166666D01*
X130757200Y-126166666D02*
X130709580Y-126214285D01*
X130709580Y-126214285D02*
X130614342Y-126261904D01*
X130614342Y-126261904D02*
X130423866Y-126309523D01*
X130423866Y-126309523D02*
X130185771Y-126309523D01*
X130185771Y-126309523D02*
X129995295Y-126261904D01*
X129995295Y-126261904D02*
X129900057Y-126214285D01*
X129900057Y-126214285D02*
X129852438Y-126166666D01*
X129852438Y-126166666D02*
X129804819Y-126071428D01*
X130804819Y-124547618D02*
X130138152Y-124547618D01*
X130233390Y-124547618D02*
X130185771Y-124499999D01*
X130185771Y-124499999D02*
X130138152Y-124404761D01*
X130138152Y-124404761D02*
X130138152Y-124261904D01*
X130138152Y-124261904D02*
X130185771Y-124166666D01*
X130185771Y-124166666D02*
X130281009Y-124119047D01*
X130281009Y-124119047D02*
X130804819Y-124119047D01*
X130281009Y-124119047D02*
X130185771Y-124071428D01*
X130185771Y-124071428D02*
X130138152Y-123976190D01*
X130138152Y-123976190D02*
X130138152Y-123833333D01*
X130138152Y-123833333D02*
X130185771Y-123738094D01*
X130185771Y-123738094D02*
X130281009Y-123690475D01*
X130281009Y-123690475D02*
X130804819Y-123690475D01*
X130804819Y-123214285D02*
X130138152Y-123214285D01*
X130233390Y-123214285D02*
X130185771Y-123166666D01*
X130185771Y-123166666D02*
X130138152Y-123071428D01*
X130138152Y-123071428D02*
X130138152Y-122928571D01*
X130138152Y-122928571D02*
X130185771Y-122833333D01*
X130185771Y-122833333D02*
X130281009Y-122785714D01*
X130281009Y-122785714D02*
X130804819Y-122785714D01*
X130281009Y-122785714D02*
X130185771Y-122738095D01*
X130185771Y-122738095D02*
X130138152Y-122642857D01*
X130138152Y-122642857D02*
X130138152Y-122500000D01*
X130138152Y-122500000D02*
X130185771Y-122404761D01*
X130185771Y-122404761D02*
X130281009Y-122357142D01*
X130281009Y-122357142D02*
X130804819Y-122357142D01*
X138500000Y-120000000D02*
X130913580Y-120000000D01*
X130913580Y-131000000D02*
X150000000Y-131000000D01*
X131500000Y-120000000D02*
X131500000Y-131000000D01*
X131500000Y-120000000D02*
X132086421Y-121126504D01*
X131500000Y-120000000D02*
X130913579Y-121126504D01*
X131500000Y-131000000D02*
X130913579Y-129873496D01*
X131500000Y-131000000D02*
X132086421Y-129873496D01*
X129804819Y-94166666D02*
X129804819Y-94642856D01*
X129804819Y-94642856D02*
X130281009Y-94690475D01*
X130281009Y-94690475D02*
X130233390Y-94642856D01*
X130233390Y-94642856D02*
X130185771Y-94547618D01*
X130185771Y-94547618D02*
X130185771Y-94309523D01*
X130185771Y-94309523D02*
X130233390Y-94214285D01*
X130233390Y-94214285D02*
X130281009Y-94166666D01*
X130281009Y-94166666D02*
X130376247Y-94119047D01*
X130376247Y-94119047D02*
X130614342Y-94119047D01*
X130614342Y-94119047D02*
X130709580Y-94166666D01*
X130709580Y-94166666D02*
X130757200Y-94214285D01*
X130757200Y-94214285D02*
X130804819Y-94309523D01*
X130804819Y-94309523D02*
X130804819Y-94547618D01*
X130804819Y-94547618D02*
X130757200Y-94642856D01*
X130757200Y-94642856D02*
X130709580Y-94690475D01*
X129804819Y-93785713D02*
X129804819Y-93119047D01*
X129804819Y-93119047D02*
X130804819Y-93547618D01*
X130757200Y-92690475D02*
X130804819Y-92690475D01*
X130804819Y-92690475D02*
X130900057Y-92738094D01*
X130900057Y-92738094D02*
X130947676Y-92785713D01*
X129804819Y-92071428D02*
X129804819Y-91976190D01*
X129804819Y-91976190D02*
X129852438Y-91880952D01*
X129852438Y-91880952D02*
X129900057Y-91833333D01*
X129900057Y-91833333D02*
X129995295Y-91785714D01*
X129995295Y-91785714D02*
X130185771Y-91738095D01*
X130185771Y-91738095D02*
X130423866Y-91738095D01*
X130423866Y-91738095D02*
X130614342Y-91785714D01*
X130614342Y-91785714D02*
X130709580Y-91833333D01*
X130709580Y-91833333D02*
X130757200Y-91880952D01*
X130757200Y-91880952D02*
X130804819Y-91976190D01*
X130804819Y-91976190D02*
X130804819Y-92071428D01*
X130804819Y-92071428D02*
X130757200Y-92166666D01*
X130757200Y-92166666D02*
X130709580Y-92214285D01*
X130709580Y-92214285D02*
X130614342Y-92261904D01*
X130614342Y-92261904D02*
X130423866Y-92309523D01*
X130423866Y-92309523D02*
X130185771Y-92309523D01*
X130185771Y-92309523D02*
X129995295Y-92261904D01*
X129995295Y-92261904D02*
X129900057Y-92214285D01*
X129900057Y-92214285D02*
X129852438Y-92166666D01*
X129852438Y-92166666D02*
X129804819Y-92071428D01*
X130804819Y-90547618D02*
X130138152Y-90547618D01*
X130233390Y-90547618D02*
X130185771Y-90499999D01*
X130185771Y-90499999D02*
X130138152Y-90404761D01*
X130138152Y-90404761D02*
X130138152Y-90261904D01*
X130138152Y-90261904D02*
X130185771Y-90166666D01*
X130185771Y-90166666D02*
X130281009Y-90119047D01*
X130281009Y-90119047D02*
X130804819Y-90119047D01*
X130281009Y-90119047D02*
X130185771Y-90071428D01*
X130185771Y-90071428D02*
X130138152Y-89976190D01*
X130138152Y-89976190D02*
X130138152Y-89833333D01*
X130138152Y-89833333D02*
X130185771Y-89738094D01*
X130185771Y-89738094D02*
X130281009Y-89690475D01*
X130281009Y-89690475D02*
X130804819Y-89690475D01*
X130804819Y-89214285D02*
X130138152Y-89214285D01*
X130233390Y-89214285D02*
X130185771Y-89166666D01*
X130185771Y-89166666D02*
X130138152Y-89071428D01*
X130138152Y-89071428D02*
X130138152Y-88928571D01*
X130138152Y-88928571D02*
X130185771Y-88833333D01*
X130185771Y-88833333D02*
X130281009Y-88785714D01*
X130281009Y-88785714D02*
X130804819Y-88785714D01*
X130281009Y-88785714D02*
X130185771Y-88738095D01*
X130185771Y-88738095D02*
X130138152Y-88642857D01*
X130138152Y-88642857D02*
X130138152Y-88500000D01*
X130138152Y-88500000D02*
X130185771Y-88404761D01*
X130185771Y-88404761D02*
X130281009Y-88357142D01*
X130281009Y-88357142D02*
X130804819Y-88357142D01*
X138500000Y-120000000D02*
X130913580Y-120000000D01*
X130913580Y-63000000D02*
X138500000Y-63000000D01*
X131500000Y-120000000D02*
X131500000Y-63000000D01*
X131500000Y-120000000D02*
X130913579Y-118873496D01*
X131500000Y-120000000D02*
X132086421Y-118873496D01*
X131500000Y-63000000D02*
X132086421Y-64126504D01*
X131500000Y-63000000D02*
X130913579Y-64126504D01*
X181309524Y-43900057D02*
X181357143Y-43852438D01*
X181357143Y-43852438D02*
X181452381Y-43804819D01*
X181452381Y-43804819D02*
X181690476Y-43804819D01*
X181690476Y-43804819D02*
X181785714Y-43852438D01*
X181785714Y-43852438D02*
X181833333Y-43900057D01*
X181833333Y-43900057D02*
X181880952Y-43995295D01*
X181880952Y-43995295D02*
X181880952Y-44090533D01*
X181880952Y-44090533D02*
X181833333Y-44233390D01*
X181833333Y-44233390D02*
X181261905Y-44804819D01*
X181261905Y-44804819D02*
X181880952Y-44804819D01*
X182738095Y-44138152D02*
X182738095Y-44804819D01*
X182500000Y-43757200D02*
X182261905Y-44471485D01*
X182261905Y-44471485D02*
X182880952Y-44471485D01*
X183309524Y-44757200D02*
X183309524Y-44804819D01*
X183309524Y-44804819D02*
X183261905Y-44900057D01*
X183261905Y-44900057D02*
X183214286Y-44947676D01*
X183928571Y-43804819D02*
X184023809Y-43804819D01*
X184023809Y-43804819D02*
X184119047Y-43852438D01*
X184119047Y-43852438D02*
X184166666Y-43900057D01*
X184166666Y-43900057D02*
X184214285Y-43995295D01*
X184214285Y-43995295D02*
X184261904Y-44185771D01*
X184261904Y-44185771D02*
X184261904Y-44423866D01*
X184261904Y-44423866D02*
X184214285Y-44614342D01*
X184214285Y-44614342D02*
X184166666Y-44709580D01*
X184166666Y-44709580D02*
X184119047Y-44757200D01*
X184119047Y-44757200D02*
X184023809Y-44804819D01*
X184023809Y-44804819D02*
X183928571Y-44804819D01*
X183928571Y-44804819D02*
X183833333Y-44757200D01*
X183833333Y-44757200D02*
X183785714Y-44709580D01*
X183785714Y-44709580D02*
X183738095Y-44614342D01*
X183738095Y-44614342D02*
X183690476Y-44423866D01*
X183690476Y-44423866D02*
X183690476Y-44185771D01*
X183690476Y-44185771D02*
X183738095Y-43995295D01*
X183738095Y-43995295D02*
X183785714Y-43900057D01*
X183785714Y-43900057D02*
X183833333Y-43852438D01*
X183833333Y-43852438D02*
X183928571Y-43804819D01*
X185452381Y-44804819D02*
X185452381Y-44138152D01*
X185452381Y-44233390D02*
X185500000Y-44185771D01*
X185500000Y-44185771D02*
X185595238Y-44138152D01*
X185595238Y-44138152D02*
X185738095Y-44138152D01*
X185738095Y-44138152D02*
X185833333Y-44185771D01*
X185833333Y-44185771D02*
X185880952Y-44281009D01*
X185880952Y-44281009D02*
X185880952Y-44804819D01*
X185880952Y-44281009D02*
X185928571Y-44185771D01*
X185928571Y-44185771D02*
X186023809Y-44138152D01*
X186023809Y-44138152D02*
X186166666Y-44138152D01*
X186166666Y-44138152D02*
X186261905Y-44185771D01*
X186261905Y-44185771D02*
X186309524Y-44281009D01*
X186309524Y-44281009D02*
X186309524Y-44804819D01*
X186785714Y-44804819D02*
X186785714Y-44138152D01*
X186785714Y-44233390D02*
X186833333Y-44185771D01*
X186833333Y-44185771D02*
X186928571Y-44138152D01*
X186928571Y-44138152D02*
X187071428Y-44138152D01*
X187071428Y-44138152D02*
X187166666Y-44185771D01*
X187166666Y-44185771D02*
X187214285Y-44281009D01*
X187214285Y-44281009D02*
X187214285Y-44804819D01*
X187214285Y-44281009D02*
X187261904Y-44185771D01*
X187261904Y-44185771D02*
X187357142Y-44138152D01*
X187357142Y-44138152D02*
X187499999Y-44138152D01*
X187499999Y-44138152D02*
X187595238Y-44185771D01*
X187595238Y-44185771D02*
X187642857Y-44281009D01*
X187642857Y-44281009D02*
X187642857Y-44804819D01*
X172500000Y-69500000D02*
X172500000Y-44913580D01*
X196500000Y-44913580D02*
X196500000Y-69500000D01*
X172500000Y-45500000D02*
X196500000Y-45500000D01*
X172500000Y-45500000D02*
X173626504Y-44913579D01*
X172500000Y-45500000D02*
X173626504Y-46086421D01*
X196500000Y-45500000D02*
X195373496Y-46086421D01*
X196500000Y-45500000D02*
X195373496Y-44913579D01*
X200638152Y-93714285D02*
X201304819Y-93714285D01*
X200257200Y-93952380D02*
X200971485Y-94190475D01*
X200971485Y-94190475D02*
X200971485Y-93571428D01*
X200400057Y-93238094D02*
X200352438Y-93190475D01*
X200352438Y-93190475D02*
X200304819Y-93095237D01*
X200304819Y-93095237D02*
X200304819Y-92857142D01*
X200304819Y-92857142D02*
X200352438Y-92761904D01*
X200352438Y-92761904D02*
X200400057Y-92714285D01*
X200400057Y-92714285D02*
X200495295Y-92666666D01*
X200495295Y-92666666D02*
X200590533Y-92666666D01*
X200590533Y-92666666D02*
X200733390Y-92714285D01*
X200733390Y-92714285D02*
X201304819Y-93285713D01*
X201304819Y-93285713D02*
X201304819Y-92666666D01*
X201257200Y-92190475D02*
X201304819Y-92190475D01*
X201304819Y-92190475D02*
X201400057Y-92238094D01*
X201400057Y-92238094D02*
X201447676Y-92285713D01*
X200304819Y-91571428D02*
X200304819Y-91476190D01*
X200304819Y-91476190D02*
X200352438Y-91380952D01*
X200352438Y-91380952D02*
X200400057Y-91333333D01*
X200400057Y-91333333D02*
X200495295Y-91285714D01*
X200495295Y-91285714D02*
X200685771Y-91238095D01*
X200685771Y-91238095D02*
X200923866Y-91238095D01*
X200923866Y-91238095D02*
X201114342Y-91285714D01*
X201114342Y-91285714D02*
X201209580Y-91333333D01*
X201209580Y-91333333D02*
X201257200Y-91380952D01*
X201257200Y-91380952D02*
X201304819Y-91476190D01*
X201304819Y-91476190D02*
X201304819Y-91571428D01*
X201304819Y-91571428D02*
X201257200Y-91666666D01*
X201257200Y-91666666D02*
X201209580Y-91714285D01*
X201209580Y-91714285D02*
X201114342Y-91761904D01*
X201114342Y-91761904D02*
X200923866Y-91809523D01*
X200923866Y-91809523D02*
X200685771Y-91809523D01*
X200685771Y-91809523D02*
X200495295Y-91761904D01*
X200495295Y-91761904D02*
X200400057Y-91714285D01*
X200400057Y-91714285D02*
X200352438Y-91666666D01*
X200352438Y-91666666D02*
X200304819Y-91571428D01*
X201304819Y-90047618D02*
X200638152Y-90047618D01*
X200733390Y-90047618D02*
X200685771Y-89999999D01*
X200685771Y-89999999D02*
X200638152Y-89904761D01*
X200638152Y-89904761D02*
X200638152Y-89761904D01*
X200638152Y-89761904D02*
X200685771Y-89666666D01*
X200685771Y-89666666D02*
X200781009Y-89619047D01*
X200781009Y-89619047D02*
X201304819Y-89619047D01*
X200781009Y-89619047D02*
X200685771Y-89571428D01*
X200685771Y-89571428D02*
X200638152Y-89476190D01*
X200638152Y-89476190D02*
X200638152Y-89333333D01*
X200638152Y-89333333D02*
X200685771Y-89238094D01*
X200685771Y-89238094D02*
X200781009Y-89190475D01*
X200781009Y-89190475D02*
X201304819Y-89190475D01*
X201304819Y-88714285D02*
X200638152Y-88714285D01*
X200733390Y-88714285D02*
X200685771Y-88666666D01*
X200685771Y-88666666D02*
X200638152Y-88571428D01*
X200638152Y-88571428D02*
X200638152Y-88428571D01*
X200638152Y-88428571D02*
X200685771Y-88333333D01*
X200685771Y-88333333D02*
X200781009Y-88285714D01*
X200781009Y-88285714D02*
X201304819Y-88285714D01*
X200781009Y-88285714D02*
X200685771Y-88238095D01*
X200685771Y-88238095D02*
X200638152Y-88142857D01*
X200638152Y-88142857D02*
X200638152Y-88000000D01*
X200638152Y-88000000D02*
X200685771Y-87904761D01*
X200685771Y-87904761D02*
X200781009Y-87857142D01*
X200781009Y-87857142D02*
X201304819Y-87857142D01*
X197000000Y-112000000D02*
X202586420Y-112000000D01*
X202586420Y-70000000D02*
X197000000Y-70000000D01*
X202000000Y-112000000D02*
X202000000Y-70000000D01*
X202000000Y-112000000D02*
X201413579Y-110873496D01*
X202000000Y-112000000D02*
X202586421Y-110873496D01*
X202000000Y-70000000D02*
X202586421Y-71126504D01*
X202000000Y-70000000D02*
X201413579Y-71126504D01*
X142130952Y-44804819D02*
X141559524Y-44804819D01*
X141845238Y-44804819D02*
X141845238Y-43804819D01*
X141845238Y-43804819D02*
X141750000Y-43947676D01*
X141750000Y-43947676D02*
X141654762Y-44042914D01*
X141654762Y-44042914D02*
X141559524Y-44090533D01*
X143083333Y-44804819D02*
X142511905Y-44804819D01*
X142797619Y-44804819D02*
X142797619Y-43804819D01*
X142797619Y-43804819D02*
X142702381Y-43947676D01*
X142702381Y-43947676D02*
X142607143Y-44042914D01*
X142607143Y-44042914D02*
X142511905Y-44090533D01*
X143559524Y-44757200D02*
X143559524Y-44804819D01*
X143559524Y-44804819D02*
X143511905Y-44900057D01*
X143511905Y-44900057D02*
X143464286Y-44947676D01*
X144464285Y-43804819D02*
X143988095Y-43804819D01*
X143988095Y-43804819D02*
X143940476Y-44281009D01*
X143940476Y-44281009D02*
X143988095Y-44233390D01*
X143988095Y-44233390D02*
X144083333Y-44185771D01*
X144083333Y-44185771D02*
X144321428Y-44185771D01*
X144321428Y-44185771D02*
X144416666Y-44233390D01*
X144416666Y-44233390D02*
X144464285Y-44281009D01*
X144464285Y-44281009D02*
X144511904Y-44376247D01*
X144511904Y-44376247D02*
X144511904Y-44614342D01*
X144511904Y-44614342D02*
X144464285Y-44709580D01*
X144464285Y-44709580D02*
X144416666Y-44757200D01*
X144416666Y-44757200D02*
X144321428Y-44804819D01*
X144321428Y-44804819D02*
X144083333Y-44804819D01*
X144083333Y-44804819D02*
X143988095Y-44757200D01*
X143988095Y-44757200D02*
X143940476Y-44709580D01*
X145702381Y-44804819D02*
X145702381Y-44138152D01*
X145702381Y-44233390D02*
X145750000Y-44185771D01*
X145750000Y-44185771D02*
X145845238Y-44138152D01*
X145845238Y-44138152D02*
X145988095Y-44138152D01*
X145988095Y-44138152D02*
X146083333Y-44185771D01*
X146083333Y-44185771D02*
X146130952Y-44281009D01*
X146130952Y-44281009D02*
X146130952Y-44804819D01*
X146130952Y-44281009D02*
X146178571Y-44185771D01*
X146178571Y-44185771D02*
X146273809Y-44138152D01*
X146273809Y-44138152D02*
X146416666Y-44138152D01*
X146416666Y-44138152D02*
X146511905Y-44185771D01*
X146511905Y-44185771D02*
X146559524Y-44281009D01*
X146559524Y-44281009D02*
X146559524Y-44804819D01*
X147035714Y-44804819D02*
X147035714Y-44138152D01*
X147035714Y-44233390D02*
X147083333Y-44185771D01*
X147083333Y-44185771D02*
X147178571Y-44138152D01*
X147178571Y-44138152D02*
X147321428Y-44138152D01*
X147321428Y-44138152D02*
X147416666Y-44185771D01*
X147416666Y-44185771D02*
X147464285Y-44281009D01*
X147464285Y-44281009D02*
X147464285Y-44804819D01*
X147464285Y-44281009D02*
X147511904Y-44185771D01*
X147511904Y-44185771D02*
X147607142Y-44138152D01*
X147607142Y-44138152D02*
X147749999Y-44138152D01*
X147749999Y-44138152D02*
X147845238Y-44185771D01*
X147845238Y-44185771D02*
X147892857Y-44281009D01*
X147892857Y-44281009D02*
X147892857Y-44804819D01*
X139000000Y-62500000D02*
X139000000Y-44913580D01*
X150500000Y-44913580D02*
X150500000Y-62500000D01*
X139000000Y-45500000D02*
X150500000Y-45500000D01*
X139000000Y-45500000D02*
X140126504Y-44913579D01*
X139000000Y-45500000D02*
X140126504Y-46086421D01*
X150500000Y-45500000D02*
X149373496Y-46086421D01*
X150500000Y-45500000D02*
X149373496Y-44913579D01*
X201304819Y-124119047D02*
X201304819Y-124690475D01*
X201304819Y-124404761D02*
X200304819Y-124404761D01*
X200304819Y-124404761D02*
X200447676Y-124499999D01*
X200447676Y-124499999D02*
X200542914Y-124595237D01*
X200542914Y-124595237D02*
X200590533Y-124690475D01*
X201304819Y-123642856D02*
X201304819Y-123452380D01*
X201304819Y-123452380D02*
X201257200Y-123357142D01*
X201257200Y-123357142D02*
X201209580Y-123309523D01*
X201209580Y-123309523D02*
X201066723Y-123214285D01*
X201066723Y-123214285D02*
X200876247Y-123166666D01*
X200876247Y-123166666D02*
X200495295Y-123166666D01*
X200495295Y-123166666D02*
X200400057Y-123214285D01*
X200400057Y-123214285D02*
X200352438Y-123261904D01*
X200352438Y-123261904D02*
X200304819Y-123357142D01*
X200304819Y-123357142D02*
X200304819Y-123547618D01*
X200304819Y-123547618D02*
X200352438Y-123642856D01*
X200352438Y-123642856D02*
X200400057Y-123690475D01*
X200400057Y-123690475D02*
X200495295Y-123738094D01*
X200495295Y-123738094D02*
X200733390Y-123738094D01*
X200733390Y-123738094D02*
X200828628Y-123690475D01*
X200828628Y-123690475D02*
X200876247Y-123642856D01*
X200876247Y-123642856D02*
X200923866Y-123547618D01*
X200923866Y-123547618D02*
X200923866Y-123357142D01*
X200923866Y-123357142D02*
X200876247Y-123261904D01*
X200876247Y-123261904D02*
X200828628Y-123214285D01*
X200828628Y-123214285D02*
X200733390Y-123166666D01*
X201257200Y-122690475D02*
X201304819Y-122690475D01*
X201304819Y-122690475D02*
X201400057Y-122738094D01*
X201400057Y-122738094D02*
X201447676Y-122785713D01*
X200304819Y-122071428D02*
X200304819Y-121976190D01*
X200304819Y-121976190D02*
X200352438Y-121880952D01*
X200352438Y-121880952D02*
X200400057Y-121833333D01*
X200400057Y-121833333D02*
X200495295Y-121785714D01*
X200495295Y-121785714D02*
X200685771Y-121738095D01*
X200685771Y-121738095D02*
X200923866Y-121738095D01*
X200923866Y-121738095D02*
X201114342Y-121785714D01*
X201114342Y-121785714D02*
X201209580Y-121833333D01*
X201209580Y-121833333D02*
X201257200Y-121880952D01*
X201257200Y-121880952D02*
X201304819Y-121976190D01*
X201304819Y-121976190D02*
X201304819Y-122071428D01*
X201304819Y-122071428D02*
X201257200Y-122166666D01*
X201257200Y-122166666D02*
X201209580Y-122214285D01*
X201209580Y-122214285D02*
X201114342Y-122261904D01*
X201114342Y-122261904D02*
X200923866Y-122309523D01*
X200923866Y-122309523D02*
X200685771Y-122309523D01*
X200685771Y-122309523D02*
X200495295Y-122261904D01*
X200495295Y-122261904D02*
X200400057Y-122214285D01*
X200400057Y-122214285D02*
X200352438Y-122166666D01*
X200352438Y-122166666D02*
X200304819Y-122071428D01*
X201304819Y-120547618D02*
X200638152Y-120547618D01*
X200733390Y-120547618D02*
X200685771Y-120499999D01*
X200685771Y-120499999D02*
X200638152Y-120404761D01*
X200638152Y-120404761D02*
X200638152Y-120261904D01*
X200638152Y-120261904D02*
X200685771Y-120166666D01*
X200685771Y-120166666D02*
X200781009Y-120119047D01*
X200781009Y-120119047D02*
X201304819Y-120119047D01*
X200781009Y-120119047D02*
X200685771Y-120071428D01*
X200685771Y-120071428D02*
X200638152Y-119976190D01*
X200638152Y-119976190D02*
X200638152Y-119833333D01*
X200638152Y-119833333D02*
X200685771Y-119738094D01*
X200685771Y-119738094D02*
X200781009Y-119690475D01*
X200781009Y-119690475D02*
X201304819Y-119690475D01*
X201304819Y-119214285D02*
X200638152Y-119214285D01*
X200733390Y-119214285D02*
X200685771Y-119166666D01*
X200685771Y-119166666D02*
X200638152Y-119071428D01*
X200638152Y-119071428D02*
X200638152Y-118928571D01*
X200638152Y-118928571D02*
X200685771Y-118833333D01*
X200685771Y-118833333D02*
X200781009Y-118785714D01*
X200781009Y-118785714D02*
X201304819Y-118785714D01*
X200781009Y-118785714D02*
X200685771Y-118738095D01*
X200685771Y-118738095D02*
X200638152Y-118642857D01*
X200638152Y-118642857D02*
X200638152Y-118500000D01*
X200638152Y-118500000D02*
X200685771Y-118404761D01*
X200685771Y-118404761D02*
X200781009Y-118357142D01*
X200781009Y-118357142D02*
X201304819Y-118357142D01*
X173000000Y-112000000D02*
X202586420Y-112000000D01*
X202586420Y-131000000D02*
X173000000Y-131000000D01*
X202000000Y-112000000D02*
X202000000Y-131000000D01*
X202000000Y-112000000D02*
X202586421Y-113126504D01*
X202000000Y-112000000D02*
X201413579Y-113126504D01*
X202000000Y-131000000D02*
X201413579Y-129873496D01*
X202000000Y-131000000D02*
X202586421Y-129873496D01*
X229738096Y-115804819D02*
X230357143Y-115804819D01*
X230357143Y-115804819D02*
X230023810Y-116185771D01*
X230023810Y-116185771D02*
X230166667Y-116185771D01*
X230166667Y-116185771D02*
X230261905Y-116233390D01*
X230261905Y-116233390D02*
X230309524Y-116281009D01*
X230309524Y-116281009D02*
X230357143Y-116376247D01*
X230357143Y-116376247D02*
X230357143Y-116614342D01*
X230357143Y-116614342D02*
X230309524Y-116709580D01*
X230309524Y-116709580D02*
X230261905Y-116757200D01*
X230261905Y-116757200D02*
X230166667Y-116804819D01*
X230166667Y-116804819D02*
X229880953Y-116804819D01*
X229880953Y-116804819D02*
X229785715Y-116757200D01*
X229785715Y-116757200D02*
X229738096Y-116709580D01*
X230833334Y-116757200D02*
X230833334Y-116804819D01*
X230833334Y-116804819D02*
X230785715Y-116900057D01*
X230785715Y-116900057D02*
X230738096Y-116947676D01*
X231452381Y-115804819D02*
X231547619Y-115804819D01*
X231547619Y-115804819D02*
X231642857Y-115852438D01*
X231642857Y-115852438D02*
X231690476Y-115900057D01*
X231690476Y-115900057D02*
X231738095Y-115995295D01*
X231738095Y-115995295D02*
X231785714Y-116185771D01*
X231785714Y-116185771D02*
X231785714Y-116423866D01*
X231785714Y-116423866D02*
X231738095Y-116614342D01*
X231738095Y-116614342D02*
X231690476Y-116709580D01*
X231690476Y-116709580D02*
X231642857Y-116757200D01*
X231642857Y-116757200D02*
X231547619Y-116804819D01*
X231547619Y-116804819D02*
X231452381Y-116804819D01*
X231452381Y-116804819D02*
X231357143Y-116757200D01*
X231357143Y-116757200D02*
X231309524Y-116709580D01*
X231309524Y-116709580D02*
X231261905Y-116614342D01*
X231261905Y-116614342D02*
X231214286Y-116423866D01*
X231214286Y-116423866D02*
X231214286Y-116185771D01*
X231214286Y-116185771D02*
X231261905Y-115995295D01*
X231261905Y-115995295D02*
X231309524Y-115900057D01*
X231309524Y-115900057D02*
X231357143Y-115852438D01*
X231357143Y-115852438D02*
X231452381Y-115804819D01*
X232976191Y-116804819D02*
X232976191Y-116138152D01*
X232976191Y-116233390D02*
X233023810Y-116185771D01*
X233023810Y-116185771D02*
X233119048Y-116138152D01*
X233119048Y-116138152D02*
X233261905Y-116138152D01*
X233261905Y-116138152D02*
X233357143Y-116185771D01*
X233357143Y-116185771D02*
X233404762Y-116281009D01*
X233404762Y-116281009D02*
X233404762Y-116804819D01*
X233404762Y-116281009D02*
X233452381Y-116185771D01*
X233452381Y-116185771D02*
X233547619Y-116138152D01*
X233547619Y-116138152D02*
X233690476Y-116138152D01*
X233690476Y-116138152D02*
X233785715Y-116185771D01*
X233785715Y-116185771D02*
X233833334Y-116281009D01*
X233833334Y-116281009D02*
X233833334Y-116804819D01*
X234309524Y-116804819D02*
X234309524Y-116138152D01*
X234309524Y-116233390D02*
X234357143Y-116185771D01*
X234357143Y-116185771D02*
X234452381Y-116138152D01*
X234452381Y-116138152D02*
X234595238Y-116138152D01*
X234595238Y-116138152D02*
X234690476Y-116185771D01*
X234690476Y-116185771D02*
X234738095Y-116281009D01*
X234738095Y-116281009D02*
X234738095Y-116804819D01*
X234738095Y-116281009D02*
X234785714Y-116185771D01*
X234785714Y-116185771D02*
X234880952Y-116138152D01*
X234880952Y-116138152D02*
X235023809Y-116138152D01*
X235023809Y-116138152D02*
X235119048Y-116185771D01*
X235119048Y-116185771D02*
X235166667Y-116281009D01*
X235166667Y-116281009D02*
X235166667Y-116804819D01*
X227500000Y-110500000D02*
X227500000Y-118086420D01*
X224500000Y-118086420D02*
X224500000Y-107500002D01*
X227500000Y-117500000D02*
X224500000Y-117500000D01*
X227500000Y-117500000D02*
X230040000Y-117500000D01*
X227500000Y-117500000D02*
X228626504Y-116913579D01*
X227500000Y-117500000D02*
X228626504Y-118086421D01*
X224500000Y-117500000D02*
X221960000Y-117500000D01*
X224500000Y-117500000D02*
X223373496Y-118086421D01*
X224500000Y-117500000D02*
X223373496Y-116913579D01*
X130804819Y-60119047D02*
X130804819Y-60690475D01*
X130804819Y-60404761D02*
X129804819Y-60404761D01*
X129804819Y-60404761D02*
X129947676Y-60499999D01*
X129947676Y-60499999D02*
X130042914Y-60595237D01*
X130042914Y-60595237D02*
X130090533Y-60690475D01*
X130804819Y-59166666D02*
X130804819Y-59738094D01*
X130804819Y-59452380D02*
X129804819Y-59452380D01*
X129804819Y-59452380D02*
X129947676Y-59547618D01*
X129947676Y-59547618D02*
X130042914Y-59642856D01*
X130042914Y-59642856D02*
X130090533Y-59738094D01*
X130757200Y-58690475D02*
X130804819Y-58690475D01*
X130804819Y-58690475D02*
X130900057Y-58738094D01*
X130900057Y-58738094D02*
X130947676Y-58785713D01*
X129804819Y-58071428D02*
X129804819Y-57976190D01*
X129804819Y-57976190D02*
X129852438Y-57880952D01*
X129852438Y-57880952D02*
X129900057Y-57833333D01*
X129900057Y-57833333D02*
X129995295Y-57785714D01*
X129995295Y-57785714D02*
X130185771Y-57738095D01*
X130185771Y-57738095D02*
X130423866Y-57738095D01*
X130423866Y-57738095D02*
X130614342Y-57785714D01*
X130614342Y-57785714D02*
X130709580Y-57833333D01*
X130709580Y-57833333D02*
X130757200Y-57880952D01*
X130757200Y-57880952D02*
X130804819Y-57976190D01*
X130804819Y-57976190D02*
X130804819Y-58071428D01*
X130804819Y-58071428D02*
X130757200Y-58166666D01*
X130757200Y-58166666D02*
X130709580Y-58214285D01*
X130709580Y-58214285D02*
X130614342Y-58261904D01*
X130614342Y-58261904D02*
X130423866Y-58309523D01*
X130423866Y-58309523D02*
X130185771Y-58309523D01*
X130185771Y-58309523D02*
X129995295Y-58261904D01*
X129995295Y-58261904D02*
X129900057Y-58214285D01*
X129900057Y-58214285D02*
X129852438Y-58166666D01*
X129852438Y-58166666D02*
X129804819Y-58071428D01*
X130804819Y-56547618D02*
X130138152Y-56547618D01*
X130233390Y-56547618D02*
X130185771Y-56499999D01*
X130185771Y-56499999D02*
X130138152Y-56404761D01*
X130138152Y-56404761D02*
X130138152Y-56261904D01*
X130138152Y-56261904D02*
X130185771Y-56166666D01*
X130185771Y-56166666D02*
X130281009Y-56119047D01*
X130281009Y-56119047D02*
X130804819Y-56119047D01*
X130281009Y-56119047D02*
X130185771Y-56071428D01*
X130185771Y-56071428D02*
X130138152Y-55976190D01*
X130138152Y-55976190D02*
X130138152Y-55833333D01*
X130138152Y-55833333D02*
X130185771Y-55738094D01*
X130185771Y-55738094D02*
X130281009Y-55690475D01*
X130281009Y-55690475D02*
X130804819Y-55690475D01*
X130804819Y-55214285D02*
X130138152Y-55214285D01*
X130233390Y-55214285D02*
X130185771Y-55166666D01*
X130185771Y-55166666D02*
X130138152Y-55071428D01*
X130138152Y-55071428D02*
X130138152Y-54928571D01*
X130138152Y-54928571D02*
X130185771Y-54833333D01*
X130185771Y-54833333D02*
X130281009Y-54785714D01*
X130281009Y-54785714D02*
X130804819Y-54785714D01*
X130281009Y-54785714D02*
X130185771Y-54738095D01*
X130185771Y-54738095D02*
X130138152Y-54642857D01*
X130138152Y-54642857D02*
X130138152Y-54500000D01*
X130138152Y-54500000D02*
X130185771Y-54404761D01*
X130185771Y-54404761D02*
X130281009Y-54357142D01*
X130281009Y-54357142D02*
X130804819Y-54357142D01*
X138500000Y-63000000D02*
X130913580Y-63000000D01*
X130913580Y-52000000D02*
X150000000Y-52000000D01*
X131500000Y-63000000D02*
X131500000Y-52000000D01*
X131500000Y-63000000D02*
X130913579Y-61873496D01*
X131500000Y-63000000D02*
X132086421Y-61873496D01*
X131500000Y-52000000D02*
X132086421Y-53126504D01*
X131500000Y-52000000D02*
X130913579Y-53126504D01*
X217380952Y-67304819D02*
X216809524Y-67304819D01*
X217095238Y-67304819D02*
X217095238Y-66304819D01*
X217095238Y-66304819D02*
X217000000Y-66447676D01*
X217000000Y-66447676D02*
X216904762Y-66542914D01*
X216904762Y-66542914D02*
X216809524Y-66590533D01*
X218285714Y-66304819D02*
X217809524Y-66304819D01*
X217809524Y-66304819D02*
X217761905Y-66781009D01*
X217761905Y-66781009D02*
X217809524Y-66733390D01*
X217809524Y-66733390D02*
X217904762Y-66685771D01*
X217904762Y-66685771D02*
X218142857Y-66685771D01*
X218142857Y-66685771D02*
X218238095Y-66733390D01*
X218238095Y-66733390D02*
X218285714Y-66781009D01*
X218285714Y-66781009D02*
X218333333Y-66876247D01*
X218333333Y-66876247D02*
X218333333Y-67114342D01*
X218333333Y-67114342D02*
X218285714Y-67209580D01*
X218285714Y-67209580D02*
X218238095Y-67257200D01*
X218238095Y-67257200D02*
X218142857Y-67304819D01*
X218142857Y-67304819D02*
X217904762Y-67304819D01*
X217904762Y-67304819D02*
X217809524Y-67257200D01*
X217809524Y-67257200D02*
X217761905Y-67209580D01*
X218809524Y-67257200D02*
X218809524Y-67304819D01*
X218809524Y-67304819D02*
X218761905Y-67400057D01*
X218761905Y-67400057D02*
X218714286Y-67447676D01*
X219428571Y-66304819D02*
X219523809Y-66304819D01*
X219523809Y-66304819D02*
X219619047Y-66352438D01*
X219619047Y-66352438D02*
X219666666Y-66400057D01*
X219666666Y-66400057D02*
X219714285Y-66495295D01*
X219714285Y-66495295D02*
X219761904Y-66685771D01*
X219761904Y-66685771D02*
X219761904Y-66923866D01*
X219761904Y-66923866D02*
X219714285Y-67114342D01*
X219714285Y-67114342D02*
X219666666Y-67209580D01*
X219666666Y-67209580D02*
X219619047Y-67257200D01*
X219619047Y-67257200D02*
X219523809Y-67304819D01*
X219523809Y-67304819D02*
X219428571Y-67304819D01*
X219428571Y-67304819D02*
X219333333Y-67257200D01*
X219333333Y-67257200D02*
X219285714Y-67209580D01*
X219285714Y-67209580D02*
X219238095Y-67114342D01*
X219238095Y-67114342D02*
X219190476Y-66923866D01*
X219190476Y-66923866D02*
X219190476Y-66685771D01*
X219190476Y-66685771D02*
X219238095Y-66495295D01*
X219238095Y-66495295D02*
X219285714Y-66400057D01*
X219285714Y-66400057D02*
X219333333Y-66352438D01*
X219333333Y-66352438D02*
X219428571Y-66304819D01*
X220952381Y-67304819D02*
X220952381Y-66638152D01*
X220952381Y-66733390D02*
X221000000Y-66685771D01*
X221000000Y-66685771D02*
X221095238Y-66638152D01*
X221095238Y-66638152D02*
X221238095Y-66638152D01*
X221238095Y-66638152D02*
X221333333Y-66685771D01*
X221333333Y-66685771D02*
X221380952Y-66781009D01*
X221380952Y-66781009D02*
X221380952Y-67304819D01*
X221380952Y-66781009D02*
X221428571Y-66685771D01*
X221428571Y-66685771D02*
X221523809Y-66638152D01*
X221523809Y-66638152D02*
X221666666Y-66638152D01*
X221666666Y-66638152D02*
X221761905Y-66685771D01*
X221761905Y-66685771D02*
X221809524Y-66781009D01*
X221809524Y-66781009D02*
X221809524Y-67304819D01*
X222285714Y-67304819D02*
X222285714Y-66638152D01*
X222285714Y-66733390D02*
X222333333Y-66685771D01*
X222333333Y-66685771D02*
X222428571Y-66638152D01*
X222428571Y-66638152D02*
X222571428Y-66638152D01*
X222571428Y-66638152D02*
X222666666Y-66685771D01*
X222666666Y-66685771D02*
X222714285Y-66781009D01*
X222714285Y-66781009D02*
X222714285Y-67304819D01*
X222714285Y-66781009D02*
X222761904Y-66685771D01*
X222761904Y-66685771D02*
X222857142Y-66638152D01*
X222857142Y-66638152D02*
X222999999Y-66638152D01*
X222999999Y-66638152D02*
X223095238Y-66685771D01*
X223095238Y-66685771D02*
X223142857Y-66781009D01*
X223142857Y-66781009D02*
X223142857Y-67304819D01*
X212500000Y-71500000D02*
X212500000Y-67413580D01*
X227500000Y-67413580D02*
X227500000Y-71500000D01*
X212500000Y-68000000D02*
X227500000Y-68000000D01*
X212500000Y-68000000D02*
X213626504Y-67413579D01*
X212500000Y-68000000D02*
X213626504Y-68586421D01*
X227500000Y-68000000D02*
X226373496Y-68586421D01*
X227500000Y-68000000D02*
X226373496Y-67413579D01*
X201304819Y-63619047D02*
X201304819Y-64190475D01*
X201304819Y-63904761D02*
X200304819Y-63904761D01*
X200304819Y-63904761D02*
X200447676Y-63999999D01*
X200447676Y-63999999D02*
X200542914Y-64095237D01*
X200542914Y-64095237D02*
X200590533Y-64190475D01*
X200733390Y-63047618D02*
X200685771Y-63142856D01*
X200685771Y-63142856D02*
X200638152Y-63190475D01*
X200638152Y-63190475D02*
X200542914Y-63238094D01*
X200542914Y-63238094D02*
X200495295Y-63238094D01*
X200495295Y-63238094D02*
X200400057Y-63190475D01*
X200400057Y-63190475D02*
X200352438Y-63142856D01*
X200352438Y-63142856D02*
X200304819Y-63047618D01*
X200304819Y-63047618D02*
X200304819Y-62857142D01*
X200304819Y-62857142D02*
X200352438Y-62761904D01*
X200352438Y-62761904D02*
X200400057Y-62714285D01*
X200400057Y-62714285D02*
X200495295Y-62666666D01*
X200495295Y-62666666D02*
X200542914Y-62666666D01*
X200542914Y-62666666D02*
X200638152Y-62714285D01*
X200638152Y-62714285D02*
X200685771Y-62761904D01*
X200685771Y-62761904D02*
X200733390Y-62857142D01*
X200733390Y-62857142D02*
X200733390Y-63047618D01*
X200733390Y-63047618D02*
X200781009Y-63142856D01*
X200781009Y-63142856D02*
X200828628Y-63190475D01*
X200828628Y-63190475D02*
X200923866Y-63238094D01*
X200923866Y-63238094D02*
X201114342Y-63238094D01*
X201114342Y-63238094D02*
X201209580Y-63190475D01*
X201209580Y-63190475D02*
X201257200Y-63142856D01*
X201257200Y-63142856D02*
X201304819Y-63047618D01*
X201304819Y-63047618D02*
X201304819Y-62857142D01*
X201304819Y-62857142D02*
X201257200Y-62761904D01*
X201257200Y-62761904D02*
X201209580Y-62714285D01*
X201209580Y-62714285D02*
X201114342Y-62666666D01*
X201114342Y-62666666D02*
X200923866Y-62666666D01*
X200923866Y-62666666D02*
X200828628Y-62714285D01*
X200828628Y-62714285D02*
X200781009Y-62761904D01*
X200781009Y-62761904D02*
X200733390Y-62857142D01*
X201257200Y-62190475D02*
X201304819Y-62190475D01*
X201304819Y-62190475D02*
X201400057Y-62238094D01*
X201400057Y-62238094D02*
X201447676Y-62285713D01*
X200304819Y-61571428D02*
X200304819Y-61476190D01*
X200304819Y-61476190D02*
X200352438Y-61380952D01*
X200352438Y-61380952D02*
X200400057Y-61333333D01*
X200400057Y-61333333D02*
X200495295Y-61285714D01*
X200495295Y-61285714D02*
X200685771Y-61238095D01*
X200685771Y-61238095D02*
X200923866Y-61238095D01*
X200923866Y-61238095D02*
X201114342Y-61285714D01*
X201114342Y-61285714D02*
X201209580Y-61333333D01*
X201209580Y-61333333D02*
X201257200Y-61380952D01*
X201257200Y-61380952D02*
X201304819Y-61476190D01*
X201304819Y-61476190D02*
X201304819Y-61571428D01*
X201304819Y-61571428D02*
X201257200Y-61666666D01*
X201257200Y-61666666D02*
X201209580Y-61714285D01*
X201209580Y-61714285D02*
X201114342Y-61761904D01*
X201114342Y-61761904D02*
X200923866Y-61809523D01*
X200923866Y-61809523D02*
X200685771Y-61809523D01*
X200685771Y-61809523D02*
X200495295Y-61761904D01*
X200495295Y-61761904D02*
X200400057Y-61714285D01*
X200400057Y-61714285D02*
X200352438Y-61666666D01*
X200352438Y-61666666D02*
X200304819Y-61571428D01*
X201304819Y-60047618D02*
X200638152Y-60047618D01*
X200733390Y-60047618D02*
X200685771Y-59999999D01*
X200685771Y-59999999D02*
X200638152Y-59904761D01*
X200638152Y-59904761D02*
X200638152Y-59761904D01*
X200638152Y-59761904D02*
X200685771Y-59666666D01*
X200685771Y-59666666D02*
X200781009Y-59619047D01*
X200781009Y-59619047D02*
X201304819Y-59619047D01*
X200781009Y-59619047D02*
X200685771Y-59571428D01*
X200685771Y-59571428D02*
X200638152Y-59476190D01*
X200638152Y-59476190D02*
X200638152Y-59333333D01*
X200638152Y-59333333D02*
X200685771Y-59238094D01*
X200685771Y-59238094D02*
X200781009Y-59190475D01*
X200781009Y-59190475D02*
X201304819Y-59190475D01*
X201304819Y-58714285D02*
X200638152Y-58714285D01*
X200733390Y-58714285D02*
X200685771Y-58666666D01*
X200685771Y-58666666D02*
X200638152Y-58571428D01*
X200638152Y-58571428D02*
X200638152Y-58428571D01*
X200638152Y-58428571D02*
X200685771Y-58333333D01*
X200685771Y-58333333D02*
X200781009Y-58285714D01*
X200781009Y-58285714D02*
X201304819Y-58285714D01*
X200781009Y-58285714D02*
X200685771Y-58238095D01*
X200685771Y-58238095D02*
X200638152Y-58142857D01*
X200638152Y-58142857D02*
X200638152Y-58000000D01*
X200638152Y-58000000D02*
X200685771Y-57904761D01*
X200685771Y-57904761D02*
X200781009Y-57857142D01*
X200781009Y-57857142D02*
X201304819Y-57857142D01*
X173000000Y-52000000D02*
X202586420Y-52000000D01*
X202586420Y-70000000D02*
X173000000Y-70000000D01*
X202000000Y-52000000D02*
X202000000Y-70000000D01*
X202000000Y-52000000D02*
X202586421Y-53126504D01*
X202000000Y-52000000D02*
X201413579Y-53126504D01*
X202000000Y-70000000D02*
X201413579Y-68873496D01*
X202000000Y-70000000D02*
X202586421Y-68873496D01*
X206304819Y-94238094D02*
X206304819Y-93619047D01*
X206304819Y-93619047D02*
X206685771Y-93952380D01*
X206685771Y-93952380D02*
X206685771Y-93809523D01*
X206685771Y-93809523D02*
X206733390Y-93714285D01*
X206733390Y-93714285D02*
X206781009Y-93666666D01*
X206781009Y-93666666D02*
X206876247Y-93619047D01*
X206876247Y-93619047D02*
X207114342Y-93619047D01*
X207114342Y-93619047D02*
X207209580Y-93666666D01*
X207209580Y-93666666D02*
X207257200Y-93714285D01*
X207257200Y-93714285D02*
X207304819Y-93809523D01*
X207304819Y-93809523D02*
X207304819Y-94095237D01*
X207304819Y-94095237D02*
X207257200Y-94190475D01*
X207257200Y-94190475D02*
X207209580Y-94238094D01*
X206733390Y-93047618D02*
X206685771Y-93142856D01*
X206685771Y-93142856D02*
X206638152Y-93190475D01*
X206638152Y-93190475D02*
X206542914Y-93238094D01*
X206542914Y-93238094D02*
X206495295Y-93238094D01*
X206495295Y-93238094D02*
X206400057Y-93190475D01*
X206400057Y-93190475D02*
X206352438Y-93142856D01*
X206352438Y-93142856D02*
X206304819Y-93047618D01*
X206304819Y-93047618D02*
X206304819Y-92857142D01*
X206304819Y-92857142D02*
X206352438Y-92761904D01*
X206352438Y-92761904D02*
X206400057Y-92714285D01*
X206400057Y-92714285D02*
X206495295Y-92666666D01*
X206495295Y-92666666D02*
X206542914Y-92666666D01*
X206542914Y-92666666D02*
X206638152Y-92714285D01*
X206638152Y-92714285D02*
X206685771Y-92761904D01*
X206685771Y-92761904D02*
X206733390Y-92857142D01*
X206733390Y-92857142D02*
X206733390Y-93047618D01*
X206733390Y-93047618D02*
X206781009Y-93142856D01*
X206781009Y-93142856D02*
X206828628Y-93190475D01*
X206828628Y-93190475D02*
X206923866Y-93238094D01*
X206923866Y-93238094D02*
X207114342Y-93238094D01*
X207114342Y-93238094D02*
X207209580Y-93190475D01*
X207209580Y-93190475D02*
X207257200Y-93142856D01*
X207257200Y-93142856D02*
X207304819Y-93047618D01*
X207304819Y-93047618D02*
X207304819Y-92857142D01*
X207304819Y-92857142D02*
X207257200Y-92761904D01*
X207257200Y-92761904D02*
X207209580Y-92714285D01*
X207209580Y-92714285D02*
X207114342Y-92666666D01*
X207114342Y-92666666D02*
X206923866Y-92666666D01*
X206923866Y-92666666D02*
X206828628Y-92714285D01*
X206828628Y-92714285D02*
X206781009Y-92761904D01*
X206781009Y-92761904D02*
X206733390Y-92857142D01*
X207257200Y-92190475D02*
X207304819Y-92190475D01*
X207304819Y-92190475D02*
X207400057Y-92238094D01*
X207400057Y-92238094D02*
X207447676Y-92285713D01*
X206304819Y-91571428D02*
X206304819Y-91476190D01*
X206304819Y-91476190D02*
X206352438Y-91380952D01*
X206352438Y-91380952D02*
X206400057Y-91333333D01*
X206400057Y-91333333D02*
X206495295Y-91285714D01*
X206495295Y-91285714D02*
X206685771Y-91238095D01*
X206685771Y-91238095D02*
X206923866Y-91238095D01*
X206923866Y-91238095D02*
X207114342Y-91285714D01*
X207114342Y-91285714D02*
X207209580Y-91333333D01*
X207209580Y-91333333D02*
X207257200Y-91380952D01*
X207257200Y-91380952D02*
X207304819Y-91476190D01*
X207304819Y-91476190D02*
X207304819Y-91571428D01*
X207304819Y-91571428D02*
X207257200Y-91666666D01*
X207257200Y-91666666D02*
X207209580Y-91714285D01*
X207209580Y-91714285D02*
X207114342Y-91761904D01*
X207114342Y-91761904D02*
X206923866Y-91809523D01*
X206923866Y-91809523D02*
X206685771Y-91809523D01*
X206685771Y-91809523D02*
X206495295Y-91761904D01*
X206495295Y-91761904D02*
X206400057Y-91714285D01*
X206400057Y-91714285D02*
X206352438Y-91666666D01*
X206352438Y-91666666D02*
X206304819Y-91571428D01*
X207304819Y-90047618D02*
X206638152Y-90047618D01*
X206733390Y-90047618D02*
X206685771Y-89999999D01*
X206685771Y-89999999D02*
X206638152Y-89904761D01*
X206638152Y-89904761D02*
X206638152Y-89761904D01*
X206638152Y-89761904D02*
X206685771Y-89666666D01*
X206685771Y-89666666D02*
X206781009Y-89619047D01*
X206781009Y-89619047D02*
X207304819Y-89619047D01*
X206781009Y-89619047D02*
X206685771Y-89571428D01*
X206685771Y-89571428D02*
X206638152Y-89476190D01*
X206638152Y-89476190D02*
X206638152Y-89333333D01*
X206638152Y-89333333D02*
X206685771Y-89238094D01*
X206685771Y-89238094D02*
X206781009Y-89190475D01*
X206781009Y-89190475D02*
X207304819Y-89190475D01*
X207304819Y-88714285D02*
X206638152Y-88714285D01*
X206733390Y-88714285D02*
X206685771Y-88666666D01*
X206685771Y-88666666D02*
X206638152Y-88571428D01*
X206638152Y-88571428D02*
X206638152Y-88428571D01*
X206638152Y-88428571D02*
X206685771Y-88333333D01*
X206685771Y-88333333D02*
X206781009Y-88285714D01*
X206781009Y-88285714D02*
X207304819Y-88285714D01*
X206781009Y-88285714D02*
X206685771Y-88238095D01*
X206685771Y-88238095D02*
X206638152Y-88142857D01*
X206638152Y-88142857D02*
X206638152Y-88000000D01*
X206638152Y-88000000D02*
X206685771Y-87904761D01*
X206685771Y-87904761D02*
X206781009Y-87857142D01*
X206781009Y-87857142D02*
X207304819Y-87857142D01*
X212000000Y-72000000D02*
X207413580Y-72000000D01*
X207413580Y-110000000D02*
X212000000Y-110000000D01*
X208000000Y-72000000D02*
X208000000Y-110000000D01*
X208000000Y-72000000D02*
X208586421Y-73126504D01*
X208000000Y-72000000D02*
X207413579Y-73126504D01*
X208000000Y-110000000D02*
X207413579Y-108873496D01*
X208000000Y-110000000D02*
X208586421Y-108873496D01*
X106880952Y-44804819D02*
X106309524Y-44804819D01*
X106595238Y-44804819D02*
X106595238Y-43804819D01*
X106595238Y-43804819D02*
X106500000Y-43947676D01*
X106500000Y-43947676D02*
X106404762Y-44042914D01*
X106404762Y-44042914D02*
X106309524Y-44090533D01*
X107785714Y-43804819D02*
X107309524Y-43804819D01*
X107309524Y-43804819D02*
X107261905Y-44281009D01*
X107261905Y-44281009D02*
X107309524Y-44233390D01*
X107309524Y-44233390D02*
X107404762Y-44185771D01*
X107404762Y-44185771D02*
X107642857Y-44185771D01*
X107642857Y-44185771D02*
X107738095Y-44233390D01*
X107738095Y-44233390D02*
X107785714Y-44281009D01*
X107785714Y-44281009D02*
X107833333Y-44376247D01*
X107833333Y-44376247D02*
X107833333Y-44614342D01*
X107833333Y-44614342D02*
X107785714Y-44709580D01*
X107785714Y-44709580D02*
X107738095Y-44757200D01*
X107738095Y-44757200D02*
X107642857Y-44804819D01*
X107642857Y-44804819D02*
X107404762Y-44804819D01*
X107404762Y-44804819D02*
X107309524Y-44757200D01*
X107309524Y-44757200D02*
X107261905Y-44709580D01*
X108309524Y-44757200D02*
X108309524Y-44804819D01*
X108309524Y-44804819D02*
X108261905Y-44900057D01*
X108261905Y-44900057D02*
X108214286Y-44947676D01*
X108928571Y-43804819D02*
X109023809Y-43804819D01*
X109023809Y-43804819D02*
X109119047Y-43852438D01*
X109119047Y-43852438D02*
X109166666Y-43900057D01*
X109166666Y-43900057D02*
X109214285Y-43995295D01*
X109214285Y-43995295D02*
X109261904Y-44185771D01*
X109261904Y-44185771D02*
X109261904Y-44423866D01*
X109261904Y-44423866D02*
X109214285Y-44614342D01*
X109214285Y-44614342D02*
X109166666Y-44709580D01*
X109166666Y-44709580D02*
X109119047Y-44757200D01*
X109119047Y-44757200D02*
X109023809Y-44804819D01*
X109023809Y-44804819D02*
X108928571Y-44804819D01*
X108928571Y-44804819D02*
X108833333Y-44757200D01*
X108833333Y-44757200D02*
X108785714Y-44709580D01*
X108785714Y-44709580D02*
X108738095Y-44614342D01*
X108738095Y-44614342D02*
X108690476Y-44423866D01*
X108690476Y-44423866D02*
X108690476Y-44185771D01*
X108690476Y-44185771D02*
X108738095Y-43995295D01*
X108738095Y-43995295D02*
X108785714Y-43900057D01*
X108785714Y-43900057D02*
X108833333Y-43852438D01*
X108833333Y-43852438D02*
X108928571Y-43804819D01*
X110452381Y-44804819D02*
X110452381Y-44138152D01*
X110452381Y-44233390D02*
X110500000Y-44185771D01*
X110500000Y-44185771D02*
X110595238Y-44138152D01*
X110595238Y-44138152D02*
X110738095Y-44138152D01*
X110738095Y-44138152D02*
X110833333Y-44185771D01*
X110833333Y-44185771D02*
X110880952Y-44281009D01*
X110880952Y-44281009D02*
X110880952Y-44804819D01*
X110880952Y-44281009D02*
X110928571Y-44185771D01*
X110928571Y-44185771D02*
X111023809Y-44138152D01*
X111023809Y-44138152D02*
X111166666Y-44138152D01*
X111166666Y-44138152D02*
X111261905Y-44185771D01*
X111261905Y-44185771D02*
X111309524Y-44281009D01*
X111309524Y-44281009D02*
X111309524Y-44804819D01*
X111785714Y-44804819D02*
X111785714Y-44138152D01*
X111785714Y-44233390D02*
X111833333Y-44185771D01*
X111833333Y-44185771D02*
X111928571Y-44138152D01*
X111928571Y-44138152D02*
X112071428Y-44138152D01*
X112071428Y-44138152D02*
X112166666Y-44185771D01*
X112166666Y-44185771D02*
X112214285Y-44281009D01*
X112214285Y-44281009D02*
X112214285Y-44804819D01*
X112214285Y-44281009D02*
X112261904Y-44185771D01*
X112261904Y-44185771D02*
X112357142Y-44138152D01*
X112357142Y-44138152D02*
X112499999Y-44138152D01*
X112499999Y-44138152D02*
X112595238Y-44185771D01*
X112595238Y-44185771D02*
X112642857Y-44281009D01*
X112642857Y-44281009D02*
X112642857Y-44804819D01*
X117000000Y-51500000D02*
X117000000Y-44913580D01*
X102000000Y-44913580D02*
X102000000Y-51500000D01*
X117000000Y-45500000D02*
X102000000Y-45500000D01*
X117000000Y-45500000D02*
X115873496Y-46086421D01*
X117000000Y-45500000D02*
X115873496Y-44913579D01*
X102000000Y-45500000D02*
X103126504Y-44913579D01*
X102000000Y-45500000D02*
X103126504Y-46086421D01*
X158309524Y-43900057D02*
X158357143Y-43852438D01*
X158357143Y-43852438D02*
X158452381Y-43804819D01*
X158452381Y-43804819D02*
X158690476Y-43804819D01*
X158690476Y-43804819D02*
X158785714Y-43852438D01*
X158785714Y-43852438D02*
X158833333Y-43900057D01*
X158833333Y-43900057D02*
X158880952Y-43995295D01*
X158880952Y-43995295D02*
X158880952Y-44090533D01*
X158880952Y-44090533D02*
X158833333Y-44233390D01*
X158833333Y-44233390D02*
X158261905Y-44804819D01*
X158261905Y-44804819D02*
X158880952Y-44804819D01*
X159261905Y-43900057D02*
X159309524Y-43852438D01*
X159309524Y-43852438D02*
X159404762Y-43804819D01*
X159404762Y-43804819D02*
X159642857Y-43804819D01*
X159642857Y-43804819D02*
X159738095Y-43852438D01*
X159738095Y-43852438D02*
X159785714Y-43900057D01*
X159785714Y-43900057D02*
X159833333Y-43995295D01*
X159833333Y-43995295D02*
X159833333Y-44090533D01*
X159833333Y-44090533D02*
X159785714Y-44233390D01*
X159785714Y-44233390D02*
X159214286Y-44804819D01*
X159214286Y-44804819D02*
X159833333Y-44804819D01*
X160309524Y-44757200D02*
X160309524Y-44804819D01*
X160309524Y-44804819D02*
X160261905Y-44900057D01*
X160261905Y-44900057D02*
X160214286Y-44947676D01*
X160928571Y-43804819D02*
X161023809Y-43804819D01*
X161023809Y-43804819D02*
X161119047Y-43852438D01*
X161119047Y-43852438D02*
X161166666Y-43900057D01*
X161166666Y-43900057D02*
X161214285Y-43995295D01*
X161214285Y-43995295D02*
X161261904Y-44185771D01*
X161261904Y-44185771D02*
X161261904Y-44423866D01*
X161261904Y-44423866D02*
X161214285Y-44614342D01*
X161214285Y-44614342D02*
X161166666Y-44709580D01*
X161166666Y-44709580D02*
X161119047Y-44757200D01*
X161119047Y-44757200D02*
X161023809Y-44804819D01*
X161023809Y-44804819D02*
X160928571Y-44804819D01*
X160928571Y-44804819D02*
X160833333Y-44757200D01*
X160833333Y-44757200D02*
X160785714Y-44709580D01*
X160785714Y-44709580D02*
X160738095Y-44614342D01*
X160738095Y-44614342D02*
X160690476Y-44423866D01*
X160690476Y-44423866D02*
X160690476Y-44185771D01*
X160690476Y-44185771D02*
X160738095Y-43995295D01*
X160738095Y-43995295D02*
X160785714Y-43900057D01*
X160785714Y-43900057D02*
X160833333Y-43852438D01*
X160833333Y-43852438D02*
X160928571Y-43804819D01*
X162452381Y-44804819D02*
X162452381Y-44138152D01*
X162452381Y-44233390D02*
X162500000Y-44185771D01*
X162500000Y-44185771D02*
X162595238Y-44138152D01*
X162595238Y-44138152D02*
X162738095Y-44138152D01*
X162738095Y-44138152D02*
X162833333Y-44185771D01*
X162833333Y-44185771D02*
X162880952Y-44281009D01*
X162880952Y-44281009D02*
X162880952Y-44804819D01*
X162880952Y-44281009D02*
X162928571Y-44185771D01*
X162928571Y-44185771D02*
X163023809Y-44138152D01*
X163023809Y-44138152D02*
X163166666Y-44138152D01*
X163166666Y-44138152D02*
X163261905Y-44185771D01*
X163261905Y-44185771D02*
X163309524Y-44281009D01*
X163309524Y-44281009D02*
X163309524Y-44804819D01*
X163785714Y-44804819D02*
X163785714Y-44138152D01*
X163785714Y-44233390D02*
X163833333Y-44185771D01*
X163833333Y-44185771D02*
X163928571Y-44138152D01*
X163928571Y-44138152D02*
X164071428Y-44138152D01*
X164071428Y-44138152D02*
X164166666Y-44185771D01*
X164166666Y-44185771D02*
X164214285Y-44281009D01*
X164214285Y-44281009D02*
X164214285Y-44804819D01*
X164214285Y-44281009D02*
X164261904Y-44185771D01*
X164261904Y-44185771D02*
X164357142Y-44138152D01*
X164357142Y-44138152D02*
X164499999Y-44138152D01*
X164499999Y-44138152D02*
X164595238Y-44185771D01*
X164595238Y-44185771D02*
X164642857Y-44281009D01*
X164642857Y-44281009D02*
X164642857Y-44804819D01*
X150500000Y-51500000D02*
X150500000Y-44913580D01*
X172500000Y-44913580D02*
X172500000Y-51500000D01*
X150500000Y-45500000D02*
X172500000Y-45500000D01*
X150500000Y-45500000D02*
X151626504Y-44913579D01*
X150500000Y-45500000D02*
X151626504Y-46086421D01*
X172500000Y-45500000D02*
X171373496Y-46086421D01*
X172500000Y-45500000D02*
X171373496Y-44913579D01*
X230454819Y-105261903D02*
X230454819Y-104642856D01*
X230454819Y-104642856D02*
X230835771Y-104976189D01*
X230835771Y-104976189D02*
X230835771Y-104833332D01*
X230835771Y-104833332D02*
X230883390Y-104738094D01*
X230883390Y-104738094D02*
X230931009Y-104690475D01*
X230931009Y-104690475D02*
X231026247Y-104642856D01*
X231026247Y-104642856D02*
X231264342Y-104642856D01*
X231264342Y-104642856D02*
X231359580Y-104690475D01*
X231359580Y-104690475D02*
X231407200Y-104738094D01*
X231407200Y-104738094D02*
X231454819Y-104833332D01*
X231454819Y-104833332D02*
X231454819Y-105119046D01*
X231454819Y-105119046D02*
X231407200Y-105214284D01*
X231407200Y-105214284D02*
X231359580Y-105261903D01*
X231407200Y-104166665D02*
X231454819Y-104166665D01*
X231454819Y-104166665D02*
X231550057Y-104214284D01*
X231550057Y-104214284D02*
X231597676Y-104261903D01*
X230454819Y-103547618D02*
X230454819Y-103452380D01*
X230454819Y-103452380D02*
X230502438Y-103357142D01*
X230502438Y-103357142D02*
X230550057Y-103309523D01*
X230550057Y-103309523D02*
X230645295Y-103261904D01*
X230645295Y-103261904D02*
X230835771Y-103214285D01*
X230835771Y-103214285D02*
X231073866Y-103214285D01*
X231073866Y-103214285D02*
X231264342Y-103261904D01*
X231264342Y-103261904D02*
X231359580Y-103309523D01*
X231359580Y-103309523D02*
X231407200Y-103357142D01*
X231407200Y-103357142D02*
X231454819Y-103452380D01*
X231454819Y-103452380D02*
X231454819Y-103547618D01*
X231454819Y-103547618D02*
X231407200Y-103642856D01*
X231407200Y-103642856D02*
X231359580Y-103690475D01*
X231359580Y-103690475D02*
X231264342Y-103738094D01*
X231264342Y-103738094D02*
X231073866Y-103785713D01*
X231073866Y-103785713D02*
X230835771Y-103785713D01*
X230835771Y-103785713D02*
X230645295Y-103738094D01*
X230645295Y-103738094D02*
X230550057Y-103690475D01*
X230550057Y-103690475D02*
X230502438Y-103642856D01*
X230502438Y-103642856D02*
X230454819Y-103547618D01*
X231454819Y-102023808D02*
X230788152Y-102023808D01*
X230883390Y-102023808D02*
X230835771Y-101976189D01*
X230835771Y-101976189D02*
X230788152Y-101880951D01*
X230788152Y-101880951D02*
X230788152Y-101738094D01*
X230788152Y-101738094D02*
X230835771Y-101642856D01*
X230835771Y-101642856D02*
X230931009Y-101595237D01*
X230931009Y-101595237D02*
X231454819Y-101595237D01*
X230931009Y-101595237D02*
X230835771Y-101547618D01*
X230835771Y-101547618D02*
X230788152Y-101452380D01*
X230788152Y-101452380D02*
X230788152Y-101309523D01*
X230788152Y-101309523D02*
X230835771Y-101214284D01*
X230835771Y-101214284D02*
X230931009Y-101166665D01*
X230931009Y-101166665D02*
X231454819Y-101166665D01*
X231454819Y-100690475D02*
X230788152Y-100690475D01*
X230883390Y-100690475D02*
X230835771Y-100642856D01*
X230835771Y-100642856D02*
X230788152Y-100547618D01*
X230788152Y-100547618D02*
X230788152Y-100404761D01*
X230788152Y-100404761D02*
X230835771Y-100309523D01*
X230835771Y-100309523D02*
X230931009Y-100261904D01*
X230931009Y-100261904D02*
X231454819Y-100261904D01*
X230931009Y-100261904D02*
X230835771Y-100214285D01*
X230835771Y-100214285D02*
X230788152Y-100119047D01*
X230788152Y-100119047D02*
X230788152Y-99976190D01*
X230788152Y-99976190D02*
X230835771Y-99880951D01*
X230835771Y-99880951D02*
X230931009Y-99833332D01*
X230931009Y-99833332D02*
X231454819Y-99833332D01*
X216000000Y-107000000D02*
X232686420Y-107000000D01*
X232686420Y-110000000D02*
X216000000Y-110000000D01*
X232100000Y-107000000D02*
X232100000Y-110000000D01*
X232100000Y-107000000D02*
X232100000Y-104460000D01*
X232100000Y-107000000D02*
X231513579Y-105873496D01*
X232100000Y-107000000D02*
X232686421Y-105873496D01*
X232100000Y-110000000D02*
X232100000Y-112540000D01*
X232100000Y-110000000D02*
X232686421Y-111126504D01*
X232100000Y-110000000D02*
X231513579Y-111126504D01*
X94804819Y-94738094D02*
X94804819Y-94071428D01*
X94804819Y-94071428D02*
X95804819Y-94499999D01*
X95804819Y-93642856D02*
X95804819Y-93452380D01*
X95804819Y-93452380D02*
X95757200Y-93357142D01*
X95757200Y-93357142D02*
X95709580Y-93309523D01*
X95709580Y-93309523D02*
X95566723Y-93214285D01*
X95566723Y-93214285D02*
X95376247Y-93166666D01*
X95376247Y-93166666D02*
X94995295Y-93166666D01*
X94995295Y-93166666D02*
X94900057Y-93214285D01*
X94900057Y-93214285D02*
X94852438Y-93261904D01*
X94852438Y-93261904D02*
X94804819Y-93357142D01*
X94804819Y-93357142D02*
X94804819Y-93547618D01*
X94804819Y-93547618D02*
X94852438Y-93642856D01*
X94852438Y-93642856D02*
X94900057Y-93690475D01*
X94900057Y-93690475D02*
X94995295Y-93738094D01*
X94995295Y-93738094D02*
X95233390Y-93738094D01*
X95233390Y-93738094D02*
X95328628Y-93690475D01*
X95328628Y-93690475D02*
X95376247Y-93642856D01*
X95376247Y-93642856D02*
X95423866Y-93547618D01*
X95423866Y-93547618D02*
X95423866Y-93357142D01*
X95423866Y-93357142D02*
X95376247Y-93261904D01*
X95376247Y-93261904D02*
X95328628Y-93214285D01*
X95328628Y-93214285D02*
X95233390Y-93166666D01*
X95757200Y-92690475D02*
X95804819Y-92690475D01*
X95804819Y-92690475D02*
X95900057Y-92738094D01*
X95900057Y-92738094D02*
X95947676Y-92785713D01*
X94804819Y-92071428D02*
X94804819Y-91976190D01*
X94804819Y-91976190D02*
X94852438Y-91880952D01*
X94852438Y-91880952D02*
X94900057Y-91833333D01*
X94900057Y-91833333D02*
X94995295Y-91785714D01*
X94995295Y-91785714D02*
X95185771Y-91738095D01*
X95185771Y-91738095D02*
X95423866Y-91738095D01*
X95423866Y-91738095D02*
X95614342Y-91785714D01*
X95614342Y-91785714D02*
X95709580Y-91833333D01*
X95709580Y-91833333D02*
X95757200Y-91880952D01*
X95757200Y-91880952D02*
X95804819Y-91976190D01*
X95804819Y-91976190D02*
X95804819Y-92071428D01*
X95804819Y-92071428D02*
X95757200Y-92166666D01*
X95757200Y-92166666D02*
X95709580Y-92214285D01*
X95709580Y-92214285D02*
X95614342Y-92261904D01*
X95614342Y-92261904D02*
X95423866Y-92309523D01*
X95423866Y-92309523D02*
X95185771Y-92309523D01*
X95185771Y-92309523D02*
X94995295Y-92261904D01*
X94995295Y-92261904D02*
X94900057Y-92214285D01*
X94900057Y-92214285D02*
X94852438Y-92166666D01*
X94852438Y-92166666D02*
X94804819Y-92071428D01*
X95804819Y-90547618D02*
X95138152Y-90547618D01*
X95233390Y-90547618D02*
X95185771Y-90499999D01*
X95185771Y-90499999D02*
X95138152Y-90404761D01*
X95138152Y-90404761D02*
X95138152Y-90261904D01*
X95138152Y-90261904D02*
X95185771Y-90166666D01*
X95185771Y-90166666D02*
X95281009Y-90119047D01*
X95281009Y-90119047D02*
X95804819Y-90119047D01*
X95281009Y-90119047D02*
X95185771Y-90071428D01*
X95185771Y-90071428D02*
X95138152Y-89976190D01*
X95138152Y-89976190D02*
X95138152Y-89833333D01*
X95138152Y-89833333D02*
X95185771Y-89738094D01*
X95185771Y-89738094D02*
X95281009Y-89690475D01*
X95281009Y-89690475D02*
X95804819Y-89690475D01*
X95804819Y-89214285D02*
X95138152Y-89214285D01*
X95233390Y-89214285D02*
X95185771Y-89166666D01*
X95185771Y-89166666D02*
X95138152Y-89071428D01*
X95138152Y-89071428D02*
X95138152Y-88928571D01*
X95138152Y-88928571D02*
X95185771Y-88833333D01*
X95185771Y-88833333D02*
X95281009Y-88785714D01*
X95281009Y-88785714D02*
X95804819Y-88785714D01*
X95281009Y-88785714D02*
X95185771Y-88738095D01*
X95185771Y-88738095D02*
X95138152Y-88642857D01*
X95138152Y-88642857D02*
X95138152Y-88500000D01*
X95138152Y-88500000D02*
X95185771Y-88404761D01*
X95185771Y-88404761D02*
X95281009Y-88357142D01*
X95281009Y-88357142D02*
X95804819Y-88357142D01*
X101500000Y-52000000D02*
X95913580Y-52000000D01*
X95913580Y-131000000D02*
X101500000Y-131000000D01*
X96500000Y-52000000D02*
X96500000Y-131000000D01*
X96500000Y-52000000D02*
X97086421Y-53126504D01*
X96500000Y-52000000D02*
X95913579Y-53126504D01*
X96500000Y-131000000D02*
X95913579Y-129873496D01*
X96500000Y-131000000D02*
X97086421Y-129873496D01*
X205238096Y-115804819D02*
X205857143Y-115804819D01*
X205857143Y-115804819D02*
X205523810Y-116185771D01*
X205523810Y-116185771D02*
X205666667Y-116185771D01*
X205666667Y-116185771D02*
X205761905Y-116233390D01*
X205761905Y-116233390D02*
X205809524Y-116281009D01*
X205809524Y-116281009D02*
X205857143Y-116376247D01*
X205857143Y-116376247D02*
X205857143Y-116614342D01*
X205857143Y-116614342D02*
X205809524Y-116709580D01*
X205809524Y-116709580D02*
X205761905Y-116757200D01*
X205761905Y-116757200D02*
X205666667Y-116804819D01*
X205666667Y-116804819D02*
X205380953Y-116804819D01*
X205380953Y-116804819D02*
X205285715Y-116757200D01*
X205285715Y-116757200D02*
X205238096Y-116709580D01*
X206333334Y-116757200D02*
X206333334Y-116804819D01*
X206333334Y-116804819D02*
X206285715Y-116900057D01*
X206285715Y-116900057D02*
X206238096Y-116947676D01*
X206952381Y-115804819D02*
X207047619Y-115804819D01*
X207047619Y-115804819D02*
X207142857Y-115852438D01*
X207142857Y-115852438D02*
X207190476Y-115900057D01*
X207190476Y-115900057D02*
X207238095Y-115995295D01*
X207238095Y-115995295D02*
X207285714Y-116185771D01*
X207285714Y-116185771D02*
X207285714Y-116423866D01*
X207285714Y-116423866D02*
X207238095Y-116614342D01*
X207238095Y-116614342D02*
X207190476Y-116709580D01*
X207190476Y-116709580D02*
X207142857Y-116757200D01*
X207142857Y-116757200D02*
X207047619Y-116804819D01*
X207047619Y-116804819D02*
X206952381Y-116804819D01*
X206952381Y-116804819D02*
X206857143Y-116757200D01*
X206857143Y-116757200D02*
X206809524Y-116709580D01*
X206809524Y-116709580D02*
X206761905Y-116614342D01*
X206761905Y-116614342D02*
X206714286Y-116423866D01*
X206714286Y-116423866D02*
X206714286Y-116185771D01*
X206714286Y-116185771D02*
X206761905Y-115995295D01*
X206761905Y-115995295D02*
X206809524Y-115900057D01*
X206809524Y-115900057D02*
X206857143Y-115852438D01*
X206857143Y-115852438D02*
X206952381Y-115804819D01*
X208476191Y-116804819D02*
X208476191Y-116138152D01*
X208476191Y-116233390D02*
X208523810Y-116185771D01*
X208523810Y-116185771D02*
X208619048Y-116138152D01*
X208619048Y-116138152D02*
X208761905Y-116138152D01*
X208761905Y-116138152D02*
X208857143Y-116185771D01*
X208857143Y-116185771D02*
X208904762Y-116281009D01*
X208904762Y-116281009D02*
X208904762Y-116804819D01*
X208904762Y-116281009D02*
X208952381Y-116185771D01*
X208952381Y-116185771D02*
X209047619Y-116138152D01*
X209047619Y-116138152D02*
X209190476Y-116138152D01*
X209190476Y-116138152D02*
X209285715Y-116185771D01*
X209285715Y-116185771D02*
X209333334Y-116281009D01*
X209333334Y-116281009D02*
X209333334Y-116804819D01*
X209809524Y-116804819D02*
X209809524Y-116138152D01*
X209809524Y-116233390D02*
X209857143Y-116185771D01*
X209857143Y-116185771D02*
X209952381Y-116138152D01*
X209952381Y-116138152D02*
X210095238Y-116138152D01*
X210095238Y-116138152D02*
X210190476Y-116185771D01*
X210190476Y-116185771D02*
X210238095Y-116281009D01*
X210238095Y-116281009D02*
X210238095Y-116804819D01*
X210238095Y-116281009D02*
X210285714Y-116185771D01*
X210285714Y-116185771D02*
X210380952Y-116138152D01*
X210380952Y-116138152D02*
X210523809Y-116138152D01*
X210523809Y-116138152D02*
X210619048Y-116185771D01*
X210619048Y-116185771D02*
X210666667Y-116281009D01*
X210666667Y-116281009D02*
X210666667Y-116804819D01*
X212500000Y-110500000D02*
X212500000Y-118086420D01*
X215500000Y-118086420D02*
X215500000Y-107500000D01*
X212500000Y-117500000D02*
X215500000Y-117500000D01*
X212500000Y-117500000D02*
X209960000Y-117500000D01*
X212500000Y-117500000D02*
X211373496Y-118086421D01*
X212500000Y-117500000D02*
X211373496Y-116913579D01*
X215500000Y-117500000D02*
X218040000Y-117500000D01*
X215500000Y-117500000D02*
X216626504Y-116913579D01*
X215500000Y-117500000D02*
X216626504Y-118086421D01*
M02*
