%TF.GenerationSoftware,KiCad,Pcbnew,9.0.8-9.0.8~ubuntu24.04.1*%
%TF.CreationDate,2026-06-16T20:54:12+02:00*%
%TF.ProjectId,sch-14_PeterThePowerMeter,7363682d-3134-45f5-9065-746572546865,01*%
%TF.SameCoordinates,Original*%
%TF.FileFunction,Copper,L1,Top*%
%TF.FilePolarity,Positive*%
%FSLAX46Y46*%
G04 Gerber Fmt 4.6, Leading zero omitted, Abs format (unit mm)*
G04 Created by KiCad (PCBNEW 9.0.8-9.0.8~ubuntu24.04.1) date 2026-06-16 20:54:12*
%MOMM*%
%LPD*%
G01*
G04 APERTURE LIST*
G04 Aperture macros list*
%AMRoundRect*
0 Rectangle with rounded corners*
0 $1 Rounding radius*
0 $2 $3 $4 $5 $6 $7 $8 $9 X,Y pos of 4 corners*
0 Add a 4 corners polygon primitive as box body*
4,1,4,$2,$3,$4,$5,$6,$7,$8,$9,$2,$3,0*
0 Add four circle primitives for the rounded corners*
1,1,$1+$1,$2,$3*
1,1,$1+$1,$4,$5*
1,1,$1+$1,$6,$7*
1,1,$1+$1,$8,$9*
0 Add four rect primitives between the rounded corners*
20,1,$1+$1,$2,$3,$4,$5,0*
20,1,$1+$1,$4,$5,$6,$7,0*
20,1,$1+$1,$6,$7,$8,$9,0*
20,1,$1+$1,$8,$9,$2,$3,0*%
G04 Aperture macros list end*
%TA.AperFunction,SMDPad,CuDef*%
%ADD10RoundRect,0.250000X0.625000X-0.400000X0.625000X0.400000X-0.625000X0.400000X-0.625000X-0.400000X0*%
%TD*%
%TA.AperFunction,SMDPad,CuDef*%
%ADD11RoundRect,0.250000X0.650000X-0.412500X0.650000X0.412500X-0.650000X0.412500X-0.650000X-0.412500X0*%
%TD*%
%TA.AperFunction,SMDPad,CuDef*%
%ADD12RoundRect,0.250000X-0.300000X-0.300000X0.300000X-0.300000X0.300000X0.300000X-0.300000X0.300000X0*%
%TD*%
%TA.AperFunction,SMDPad,CuDef*%
%ADD13RoundRect,0.250000X-0.625000X0.400000X-0.625000X-0.400000X0.625000X-0.400000X0.625000X0.400000X0*%
%TD*%
%TA.AperFunction,ComponentPad*%
%ADD14RoundRect,0.193182X0.656818X-0.906818X0.656818X0.906818X-0.656818X0.906818X-0.656818X-0.906818X0*%
%TD*%
%TA.AperFunction,ComponentPad*%
%ADD15C,2.000000*%
%TD*%
%TA.AperFunction,ComponentPad*%
%ADD16C,2.200000*%
%TD*%
%TA.AperFunction,ComponentPad*%
%ADD17O,1.700000X2.500000*%
%TD*%
%TA.AperFunction,SMDPad,CuDef*%
%ADD18R,2.500000X1.000000*%
%TD*%
%TA.AperFunction,SMDPad,CuDef*%
%ADD19R,1.000000X1.800000*%
%TD*%
%TA.AperFunction,SMDPad,CuDef*%
%ADD20RoundRect,0.150000X0.825000X0.150000X-0.825000X0.150000X-0.825000X-0.150000X0.825000X-0.150000X0*%
%TD*%
%TA.AperFunction,SMDPad,CuDef*%
%ADD21R,0.300000X1.300000*%
%TD*%
%TA.AperFunction,SMDPad,CuDef*%
%ADD22RoundRect,0.250000X0.650000X0.850000X-0.650000X0.850000X-0.650000X-0.850000X0.650000X-0.850000X0*%
%TD*%
%TA.AperFunction,ComponentPad*%
%ADD23RoundRect,0.250000X0.600000X0.600000X-0.600000X0.600000X-0.600000X-0.600000X0.600000X-0.600000X0*%
%TD*%
%TA.AperFunction,ComponentPad*%
%ADD24O,2.100000X1.700000*%
%TD*%
%TA.AperFunction,ComponentPad*%
%ADD25RoundRect,0.250000X-0.600000X-0.600000X0.600000X-0.600000X0.600000X0.600000X-0.600000X0.600000X0*%
%TD*%
%TA.AperFunction,SMDPad,CuDef*%
%ADD26RoundRect,0.250000X-0.412500X-0.650000X0.412500X-0.650000X0.412500X0.650000X-0.412500X0.650000X0*%
%TD*%
%TA.AperFunction,SMDPad,CuDef*%
%ADD27RoundRect,0.100000X0.100000X-0.562500X0.100000X0.562500X-0.100000X0.562500X-0.100000X-0.562500X0*%
%TD*%
%TA.AperFunction,SMDPad,CuDef*%
%ADD28RoundRect,0.375000X-0.375000X0.625000X-0.375000X-0.625000X0.375000X-0.625000X0.375000X0.625000X0*%
%TD*%
%TA.AperFunction,SMDPad,CuDef*%
%ADD29RoundRect,0.500000X-1.400000X0.500000X-1.400000X-0.500000X1.400000X-0.500000X1.400000X0.500000X0*%
%TD*%
%TA.AperFunction,SMDPad,CuDef*%
%ADD30RoundRect,0.150000X0.587500X0.150000X-0.587500X0.150000X-0.587500X-0.150000X0.587500X-0.150000X0*%
%TD*%
%TA.AperFunction,SMDPad,CuDef*%
%ADD31RoundRect,0.250000X-0.650000X0.412500X-0.650000X-0.412500X0.650000X-0.412500X0.650000X0.412500X0*%
%TD*%
%TA.AperFunction,ComponentPad*%
%ADD32RoundRect,0.209000X-0.741000X-1.091000X0.741000X-1.091000X0.741000X1.091000X-0.741000X1.091000X0*%
%TD*%
%TA.AperFunction,ComponentPad*%
%ADD33O,2.000000X2.800000*%
%TD*%
%TA.AperFunction,SMDPad,CuDef*%
%ADD34RoundRect,0.250000X-1.850000X0.750000X-1.850000X-0.750000X1.850000X-0.750000X1.850000X0.750000X0*%
%TD*%
%TA.AperFunction,ComponentPad*%
%ADD35RoundRect,0.400000X0.400000X0.400000X-0.400000X0.400000X-0.400000X-0.400000X0.400000X-0.400000X0*%
%TD*%
%TA.AperFunction,ComponentPad*%
%ADD36C,1.600000*%
%TD*%
%TA.AperFunction,ComponentPad*%
%ADD37O,2.200000X1.700000*%
%TD*%
%TA.AperFunction,SMDPad,CuDef*%
%ADD38RoundRect,0.250000X-0.625000X0.375000X-0.625000X-0.375000X0.625000X-0.375000X0.625000X0.375000X0*%
%TD*%
%TA.AperFunction,SMDPad,CuDef*%
%ADD39RoundRect,0.162500X-0.162500X0.362500X-0.162500X-0.362500X0.162500X-0.362500X0.162500X0.362500X0*%
%TD*%
%TA.AperFunction,ComponentPad*%
%ADD40RoundRect,0.250000X0.750000X1.250000X-0.750000X1.250000X-0.750000X-1.250000X0.750000X-1.250000X0*%
%TD*%
%TA.AperFunction,ComponentPad*%
%ADD41O,2.000000X3.000000*%
%TD*%
%TA.AperFunction,SMDPad,CuDef*%
%ADD42R,0.400000X1.400000*%
%TD*%
%TA.AperFunction,HeatsinkPad*%
%ADD43O,1.050000X1.900000*%
%TD*%
%TA.AperFunction,SMDPad,CuDef*%
%ADD44R,1.150000X1.450000*%
%TD*%
%TA.AperFunction,SMDPad,CuDef*%
%ADD45R,1.750000X1.900000*%
%TD*%
%TA.AperFunction,SMDPad,CuDef*%
%ADD46RoundRect,0.250000X-0.400000X-0.625000X0.400000X-0.625000X0.400000X0.625000X-0.400000X0.625000X0*%
%TD*%
%TA.AperFunction,SMDPad,CuDef*%
%ADD47RoundRect,0.150000X0.150000X-0.875000X0.150000X0.875000X-0.150000X0.875000X-0.150000X-0.875000X0*%
%TD*%
%TA.AperFunction,ComponentPad*%
%ADD48RoundRect,0.250000X-0.550000X-0.550000X0.550000X-0.550000X0.550000X0.550000X-0.550000X0.550000X0*%
%TD*%
%TA.AperFunction,SMDPad,CuDef*%
%ADD49RoundRect,0.162500X0.162500X-0.362500X0.162500X0.362500X-0.162500X0.362500X-0.162500X-0.362500X0*%
%TD*%
%TA.AperFunction,ComponentPad*%
%ADD50O,1.400000X2.000000*%
%TD*%
%TA.AperFunction,ComponentPad*%
%ADD51RoundRect,0.250000X0.450000X-0.750000X0.450000X0.750000X-0.450000X0.750000X-0.450000X-0.750000X0*%
%TD*%
%TA.AperFunction,ComponentPad*%
%ADD52RoundRect,0.238000X-0.612000X-0.612000X0.612000X-0.612000X0.612000X0.612000X-0.612000X0.612000X0*%
%TD*%
%TA.AperFunction,ComponentPad*%
%ADD53C,1.800000*%
%TD*%
%TA.AperFunction,ViaPad*%
%ADD54C,1.200000*%
%TD*%
%TA.AperFunction,ViaPad*%
%ADD55C,0.900000*%
%TD*%
%TA.AperFunction,Conductor*%
%ADD56C,1.000000*%
%TD*%
%TA.AperFunction,Conductor*%
%ADD57C,0.500000*%
%TD*%
%TA.AperFunction,Conductor*%
%ADD58C,0.300000*%
%TD*%
%TA.AperFunction,Conductor*%
%ADD59C,0.200000*%
%TD*%
G04 APERTURE END LIST*
D10*
%TO.P,R7,1*%
%TO.N,Net-(R21-Pad2)*%
X146090000Y-76970000D03*
%TO.P,R7,2*%
%TO.N,+3.3V*%
X146090000Y-73870000D03*
%TD*%
D11*
%TO.P,C5,1*%
%TO.N,+3.3V*%
X163590000Y-93982500D03*
%TO.P,C5,2*%
%TO.N,GND*%
X163590000Y-90857500D03*
%TD*%
D10*
%TO.P,R22,1*%
%TO.N,TEMP*%
X149590000Y-84970000D03*
%TO.P,R22,2*%
%TO.N,GND*%
X149590000Y-81870000D03*
%TD*%
D12*
%TO.P,D1,1,K*%
%TO.N,+5Vin*%
X152600000Y-58500000D03*
%TO.P,D1,2,A*%
%TO.N,Net-(D1-A)*%
X155400000Y-58500000D03*
%TD*%
D13*
%TO.P,R2,1*%
%TO.N,TX*%
X163590000Y-72870000D03*
%TO.P,R2,2*%
%TO.N,Net-(U2-GPIO1{slash}TXD)*%
X163590000Y-75970000D03*
%TD*%
D14*
%TO.P,TR1,1*%
%TO.N,Net-(J3-Pin_1)*%
X103484000Y-117366000D03*
D15*
%TO.P,TR1,2*%
%TO.N,Net-(R30-Pad1)*%
X110684000Y-117366000D03*
D16*
%TO.P,TR1,3*%
%TO.N,A3*%
X110684000Y-101066000D03*
D17*
%TO.P,TR1,4*%
%TO.N,A2*%
X103484000Y-101066000D03*
%TD*%
D18*
%TO.P,U2,1,~{RST}*%
%TO.N,RST*%
X168200000Y-78200000D03*
%TO.P,U2,2,ADC*%
%TO.N,TEMP*%
X168200000Y-80200000D03*
%TO.P,U2,3,EN*%
%TO.N,EN*%
X168200000Y-82200000D03*
%TO.P,U2,4,GPIO16*%
%TO.N,GPIO16_RST-LCD*%
X168200000Y-84200000D03*
%TO.P,U2,5,GPIO14*%
%TO.N,SPI_CLK*%
X168200000Y-86200000D03*
%TO.P,U2,6,GPIO12*%
%TO.N,GPIO12*%
X168200000Y-88200000D03*
%TO.P,U2,7,GPIO13*%
%TO.N,SPI_MOSI*%
X168200000Y-90200000D03*
%TO.P,U2,8,VCC*%
%TO.N,+3.3V*%
X168200000Y-92200000D03*
D19*
%TO.P,U2,9,CS0*%
%TO.N,unconnected-(U2-CS0-Pad9)*%
X170800000Y-93700000D03*
%TO.P,U2,10,MISO*%
%TO.N,unconnected-(U2-MISO-Pad10)*%
X172800000Y-93700000D03*
%TO.P,U2,11,GPIO9*%
%TO.N,unconnected-(U2-GPIO9-Pad11)*%
X174800000Y-93700000D03*
%TO.P,U2,12,GPIO10*%
%TO.N,unconnected-(U2-GPIO10-Pad12)*%
X176800000Y-93700000D03*
%TO.P,U2,13,MOSI*%
%TO.N,unconnected-(U2-MOSI-Pad13)*%
X178800000Y-93700000D03*
%TO.P,U2,14,SCLK*%
%TO.N,unconnected-(U2-SCLK-Pad14)*%
X180800000Y-93700000D03*
D18*
%TO.P,U2,15,GND*%
%TO.N,GND*%
X183400000Y-92200000D03*
%TO.P,U2,16,GPIO15*%
%TO.N,GPIO15_CS-LCD*%
X183400000Y-90200000D03*
%TO.P,U2,17,GPIO2*%
%TO.N,GPIO2_RS-LCD*%
X183400000Y-88200000D03*
%TO.P,U2,18,GPIO0*%
%TO.N,GPIO0*%
X183400000Y-86200000D03*
%TO.P,U2,19,GPIO4*%
%TO.N,SDA*%
X183400000Y-84200000D03*
%TO.P,U2,20,GPIO5*%
%TO.N,SCL*%
X183400000Y-82200000D03*
%TO.P,U2,21,GPIO3/RXD*%
%TO.N,RX*%
X183400000Y-80200000D03*
%TO.P,U2,22,GPIO1/TXD*%
%TO.N,Net-(U2-GPIO1{slash}TXD)*%
X183400000Y-78200000D03*
%TD*%
D20*
%TO.P,U3,1,GND*%
%TO.N,GND*%
X158980000Y-69965000D03*
%TO.P,U3,2,TXD*%
%TO.N,Net-(U3-TXD)*%
X158980000Y-68695000D03*
%TO.P,U3,3,RXD*%
%TO.N,TX*%
X158980000Y-67425000D03*
%TO.P,U3,4,V3*%
%TO.N,+3.3V*%
X158980000Y-66155000D03*
%TO.P,U3,5,UD+*%
%TO.N,D_P*%
X158980000Y-64885000D03*
%TO.P,U3,6,UD-*%
%TO.N,D_N*%
X158980000Y-63615000D03*
%TO.P,U3,7,NC*%
%TO.N,unconnected-(U3-NC-Pad7)*%
X158980000Y-62345000D03*
%TO.P,U3,8,NC*%
%TO.N,unconnected-(U3-NC-Pad8)*%
X158980000Y-61075000D03*
%TO.P,U3,9,~{CTS}*%
%TO.N,unconnected-(U3-~{CTS}-Pad9)*%
X154030000Y-61075000D03*
%TO.P,U3,10,~{DSR}*%
%TO.N,unconnected-(U3-~{DSR}-Pad10)*%
X154030000Y-62345000D03*
%TO.P,U3,11,~{RI}*%
%TO.N,unconnected-(U3-~{RI}-Pad11)*%
X154030000Y-63615000D03*
%TO.P,U3,12,~{DCD}*%
%TO.N,unconnected-(U3-~{DCD}-Pad12)*%
X154030000Y-64885000D03*
%TO.P,U3,13,~{DTR}*%
%TO.N,Net-(U3-~{DTR})*%
X154030000Y-66155000D03*
%TO.P,U3,14,~{RTS}*%
%TO.N,Net-(U3-~{RTS})*%
X154030000Y-67425000D03*
%TO.P,U3,15,R232*%
%TO.N,unconnected-(U3-R232-Pad15)*%
X154030000Y-68695000D03*
%TO.P,U3,16,VCC*%
%TO.N,+3.3V*%
X154030000Y-69965000D03*
%TD*%
D21*
%TO.P,J4,1,Pin_1*%
%TO.N,Net-(J4-Pin_1)*%
X221750000Y-92350000D03*
%TO.P,J4,2,Pin_2*%
%TO.N,GND_TOP*%
X221250000Y-92350000D03*
%TO.P,J4,3,Pin_3*%
%TO.N,RST-LCD*%
X220750000Y-92350000D03*
%TO.P,J4,4,Pin_4*%
%TO.N,RS-LCD*%
X220250000Y-92350000D03*
%TO.P,J4,5,Pin_5*%
%TO.N,SPI_MOSI_TOP*%
X219750000Y-92350000D03*
%TO.P,J4,6,Pin_6*%
%TO.N,SPI_CLK_TOP*%
X219250000Y-92350000D03*
%TO.P,J4,7,Pin_7*%
%TO.N,+3.3V_TOP*%
X218750000Y-92350000D03*
%TO.P,J4,8,Pin_8*%
%TO.N,CS-LCD*%
X218250000Y-92350000D03*
D22*
%TO.P,J4,MP*%
%TO.N,N/C*%
X223650000Y-89100000D03*
X216350000Y-89100000D03*
%TD*%
D23*
%TO.P,J15,1,Pin_1*%
%TO.N,A2*%
X143075000Y-106050000D03*
D24*
%TO.P,J15,2,Pin_2*%
%TO.N,A3*%
X143075000Y-103510000D03*
%TD*%
D25*
%TO.P,J22,1,Pin_1*%
%TO.N,+3.3V*%
X188870000Y-95380000D03*
D24*
%TO.P,J22,2,Pin_2*%
%TO.N,GND*%
X188870000Y-97920000D03*
%TO.P,J22,3,Pin_3*%
%TO.N,RST*%
X188870000Y-100460000D03*
%TO.P,J22,4,Pin_4*%
%TO.N,GPIO12_DX*%
X188870000Y-103000000D03*
%TD*%
D26*
%TO.P,C2,1*%
%TO.N,+5V*%
X104737500Y-84000000D03*
%TO.P,C2,2*%
%TO.N,GND*%
X107862500Y-84000000D03*
%TD*%
D27*
%TO.P,U4,1,E1*%
%TO.N,Net-(U3-~{RTS})*%
X155440000Y-75307500D03*
%TO.P,U4,2,B1*%
%TO.N,Net-(U3-~{DTR})*%
X156090000Y-75307500D03*
%TO.P,U4,3,C2*%
%TO.N,GPIO0*%
X156740000Y-75307500D03*
%TO.P,U4,4,E2*%
%TO.N,Net-(U3-~{DTR})*%
X156740000Y-73532500D03*
%TO.P,U4,5,B2*%
%TO.N,Net-(U3-~{RTS})*%
X156090000Y-73532500D03*
%TO.P,U4,6,C1*%
%TO.N,RST*%
X155440000Y-73532500D03*
%TD*%
D10*
%TO.P,R24,1*%
%TO.N,Net-(LD1-A)*%
X214520000Y-98150000D03*
%TO.P,R24,2*%
%TO.N,+3.3V_TOP*%
X214520000Y-95050000D03*
%TD*%
D28*
%TO.P,U1,1,GND*%
%TO.N,GND*%
X111500000Y-87850000D03*
%TO.P,U1,2,VO*%
%TO.N,+3.3V*%
X109200000Y-87850000D03*
D29*
X109200000Y-94150000D03*
D28*
%TO.P,U1,3,VI*%
%TO.N,+5V*%
X106900000Y-87850000D03*
%TD*%
D26*
%TO.P,C3,1*%
%TO.N,+3.3V*%
X110337500Y-84000000D03*
%TO.P,C3,2*%
%TO.N,GND*%
X113462500Y-84000000D03*
%TD*%
D30*
%TO.P,Q1,1,B*%
%TO.N,Net-(Q1-B)*%
X157527500Y-102330000D03*
%TO.P,Q1,2,E*%
%TO.N,+3.3V*%
X157527500Y-100430000D03*
%TO.P,Q1,3,C*%
%TO.N,Net-(BZ1--)*%
X155652500Y-101380000D03*
%TD*%
D31*
%TO.P,C10,1*%
%TO.N,+3.3V_TOP*%
X217520000Y-95037500D03*
%TO.P,C10,2*%
%TO.N,GND_TOP*%
X217520000Y-98162500D03*
%TD*%
D10*
%TO.P,R11,1*%
%TO.N,+3.3V*%
X160090000Y-84970000D03*
%TO.P,R11,2*%
%TO.N,EN*%
X160090000Y-81870000D03*
%TD*%
%TO.P,R23,1*%
%TO.N,DO0_BUZZER*%
X160090000Y-102930000D03*
%TO.P,R23,2*%
%TO.N,Net-(Q1-B)*%
X160090000Y-99830000D03*
%TD*%
D13*
%TO.P,R20,1*%
%TO.N,GPIO15_CS-LCD*%
X195000000Y-88450000D03*
%TO.P,R20,2*%
%TO.N,GND*%
X195000000Y-91550000D03*
%TD*%
D32*
%TO.P,J3,1,Pin_1*%
%TO.N,Net-(J3-Pin_1)*%
X107000000Y-122250000D03*
D33*
%TO.P,J3,2,Pin_2*%
%TO.N,Net-(J3-Pin_2)*%
X112000000Y-122250000D03*
%TD*%
D34*
%TO.P,BZ1,1,+*%
%TO.N,GND*%
X146535000Y-89475000D03*
%TO.P,BZ1,2,-*%
%TO.N,Net-(BZ1--)*%
X146535000Y-97475000D03*
%TD*%
D12*
%TO.P,D2,1,K*%
%TO.N,+5Vin*%
X110565000Y-66060000D03*
%TO.P,D2,2,A*%
%TO.N,Net-(D2-A)*%
X113365000Y-66060000D03*
%TD*%
D13*
%TO.P,R14,1*%
%TO.N,+3.3V*%
X167090000Y-99830000D03*
%TO.P,R14,2*%
%TO.N,SCL*%
X167090000Y-102930000D03*
%TD*%
D35*
%TO.P,C4,1*%
%TO.N,+3.3V*%
X109250000Y-78570000D03*
D36*
%TO.P,C4,2*%
%TO.N,GND*%
X106750000Y-78570000D03*
%TD*%
D13*
%TO.P,R9,1*%
%TO.N,GPIO0*%
X153090000Y-81870000D03*
%TO.P,R9,2*%
%TO.N,+3.3V*%
X153090000Y-84970000D03*
%TD*%
D23*
%TO.P,J10,1,Pin_1*%
%TO.N,+3.3V*%
X113100000Y-75060000D03*
D37*
%TO.P,J10,2,Pin_2*%
%TO.N,GND*%
X113100000Y-72520000D03*
%TO.P,J10,3,Pin_3*%
%TO.N,+5Vin*%
X113100000Y-69980000D03*
%TD*%
D10*
%TO.P,R21,1*%
%TO.N,TEMP*%
X146090000Y-84970000D03*
%TO.P,R21,2*%
%TO.N,Net-(R21-Pad2)*%
X146090000Y-81870000D03*
%TD*%
D11*
%TO.P,C8,1*%
%TO.N,+3.3V*%
X149590000Y-69982500D03*
%TO.P,C8,2*%
%TO.N,GND*%
X149590000Y-66857500D03*
%TD*%
D38*
%TO.P,LD1,1,K*%
%TO.N,GND_TOP*%
X220000000Y-105600000D03*
%TO.P,LD1,2,A*%
%TO.N,Net-(LD1-A)*%
X220000000Y-108400000D03*
%TD*%
D23*
%TO.P,J11,1,Pin_1*%
%TO.N,+3.3V*%
X143100000Y-75060000D03*
D37*
%TO.P,J11,2,Pin_2*%
%TO.N,GND*%
X143100000Y-72520000D03*
%TO.P,J11,3,Pin_3*%
%TO.N,+5Vin*%
X143100000Y-69980000D03*
%TD*%
D39*
%TO.P,SW1,1,1*%
%TO.N,RST_TOP*%
X216575000Y-104825000D03*
X216575000Y-108975000D03*
%TO.P,SW1,2,2*%
%TO.N,GND_TOP*%
X214425000Y-104825000D03*
X214425000Y-108950000D03*
%TD*%
D10*
%TO.P,R10,1*%
%TO.N,+3.3V*%
X192000000Y-91550000D03*
%TO.P,R10,2*%
%TO.N,GPIO2_RS-LCD*%
X192000000Y-88450000D03*
%TD*%
%TO.P,R5,1*%
%TO.N,+3.3V_TOP*%
X220520000Y-98150000D03*
%TO.P,R5,2*%
%TO.N,Net-(J4-Pin_1)*%
X220520000Y-95050000D03*
%TD*%
%TO.P,R4,1*%
%TO.N,GPIO12_DX*%
X156590000Y-93970000D03*
%TO.P,R4,2*%
%TO.N,GPIO12*%
X156590000Y-90870000D03*
%TD*%
D13*
%TO.P,R3,1*%
%TO.N,GPIO12*%
X153090000Y-90870000D03*
%TO.P,R3,2*%
%TO.N,+3.3V*%
X153090000Y-93970000D03*
%TD*%
D31*
%TO.P,C14,1*%
%TO.N,+3.3V*%
X170590000Y-99817500D03*
%TO.P,C14,2*%
%TO.N,GND*%
X170590000Y-102942500D03*
%TD*%
D13*
%TO.P,R8,1*%
%TO.N,GND*%
X149590000Y-73870000D03*
%TO.P,R8,2*%
%TO.N,Net-(R21-Pad2)*%
X149590000Y-76970000D03*
%TD*%
D40*
%TO.P,J1,1,Pin_1*%
%TO.N,Net-(D2-A)*%
X112000000Y-60750000D03*
D41*
%TO.P,J1,2,Pin_2*%
%TO.N,GND*%
X107000000Y-60750000D03*
%TD*%
D11*
%TO.P,C7,1*%
%TO.N,+3.3V*%
X146090000Y-69982500D03*
%TO.P,C7,2*%
%TO.N,GND*%
X146090000Y-66857500D03*
%TD*%
D10*
%TO.P,R15,1*%
%TO.N,GPIO16_RST-LCD*%
X163590000Y-84970000D03*
%TO.P,R15,2*%
%TO.N,GND*%
X163590000Y-81870000D03*
%TD*%
D42*
%TO.P,J2,1,VBUS*%
%TO.N,Net-(D1-A)*%
X161400000Y-56100000D03*
%TO.P,J2,2,D-*%
%TO.N,D_N*%
X160750000Y-56100000D03*
%TO.P,J2,3,D+*%
%TO.N,D_P*%
X160100000Y-56100000D03*
%TO.P,J2,4,ID*%
%TO.N,unconnected-(J2-ID-Pad4)*%
X159450000Y-56100000D03*
%TO.P,J2,5,GND*%
%TO.N,GND*%
X158800000Y-56100000D03*
D43*
%TO.P,J2,6,Shield*%
X163675000Y-53450000D03*
D44*
X162420000Y-55680000D03*
D45*
X161225000Y-53450000D03*
X158975000Y-53450000D03*
D44*
X157780000Y-55680000D03*
D43*
X156525000Y-53450000D03*
%TD*%
D46*
%TO.P,TH1,1*%
%TO.N,+5V*%
X105415000Y-66060000D03*
%TO.P,TH1,2*%
%TO.N,+5Vin*%
X108515000Y-66060000D03*
%TD*%
D10*
%TO.P,R12,1*%
%TO.N,+3.3V*%
X156590000Y-84970000D03*
%TO.P,R12,2*%
%TO.N,RST*%
X156590000Y-81870000D03*
%TD*%
D13*
%TO.P,R13,1*%
%TO.N,+3.3V*%
X163590000Y-99830000D03*
%TO.P,R13,2*%
%TO.N,SDA*%
X163590000Y-102930000D03*
%TD*%
D25*
%TO.P,J20,1,Pin_1*%
%TO.N,GPIO15_CS-LCD*%
X188870000Y-74340000D03*
D24*
%TO.P,J20,2,Pin_2*%
%TO.N,SPI_CLK*%
X188870000Y-76880000D03*
%TO.P,J20,3,Pin_3*%
%TO.N,SPI_MOSI*%
X188870000Y-79420000D03*
%TO.P,J20,4,Pin_4*%
%TO.N,GPIO2_RS-LCD*%
X188870000Y-81960000D03*
%TO.P,J20,5,Pin_5*%
%TO.N,GPIO16_RST-LCD*%
X188870000Y-84500000D03*
%TD*%
D11*
%TO.P,C6,1*%
%TO.N,+3.3V*%
X160090000Y-93982500D03*
%TO.P,C6,2*%
%TO.N,GND*%
X160090000Y-90857500D03*
%TD*%
D47*
%TO.P,U6,1,A0*%
%TO.N,+3.3V*%
X175095000Y-107945000D03*
%TO.P,U6,2,A1*%
%TO.N,GND*%
X176365000Y-107945000D03*
%TO.P,U6,3,A2*%
X177635000Y-107945000D03*
%TO.P,U6,4,P0*%
%TO.N,DO0_BUZZER*%
X178905000Y-107945000D03*
%TO.P,U6,5,P1*%
%TO.N,unconnected-(U6-P1-Pad5)*%
X180175000Y-107945000D03*
%TO.P,U6,6,P2*%
%TO.N,unconnected-(U6-P2-Pad6)*%
X181445000Y-107945000D03*
%TO.P,U6,7,P3*%
%TO.N,unconnected-(U6-P3-Pad7)*%
X182715000Y-107945000D03*
%TO.P,U6,8,VSS*%
%TO.N,GND*%
X183985000Y-107945000D03*
%TO.P,U6,9,P4*%
%TO.N,unconnected-(U6-P4-Pad9)*%
X183985000Y-98645000D03*
%TO.P,U6,10,P5*%
%TO.N,unconnected-(U6-P5-Pad10)*%
X182715000Y-98645000D03*
%TO.P,U6,11,P6*%
%TO.N,unconnected-(U6-P6-Pad11)*%
X181445000Y-98645000D03*
%TO.P,U6,12,P7*%
%TO.N,unconnected-(U6-P7-Pad12)*%
X180175000Y-98645000D03*
%TO.P,U6,13,~{INT}*%
%TO.N,unconnected-(U6-~{INT}-Pad13)*%
X178905000Y-98645000D03*
%TO.P,U6,14,SCL*%
%TO.N,SCL*%
X177635000Y-98645000D03*
%TO.P,U6,15,SDA*%
%TO.N,SDA*%
X176365000Y-98645000D03*
%TO.P,U6,16,VDD*%
%TO.N,+3.3V*%
X175095000Y-98645000D03*
%TD*%
D48*
%TO.P,C1,1*%
%TO.N,+5V*%
X106750000Y-71850000D03*
D36*
%TO.P,C1,2*%
%TO.N,GND*%
X109250000Y-71850000D03*
%TD*%
D49*
%TO.P,SW2,1,1*%
%TO.N,GPIO12_TOP*%
X223425000Y-108975000D03*
X223425000Y-104825000D03*
%TO.P,SW2,2,2*%
%TO.N,GND_TOP*%
X225575000Y-108975000D03*
X225575000Y-104850000D03*
%TD*%
D50*
%TO.P,J5,*%
%TO.N,*%
X165090000Y-126975000D03*
%TO.P,J5,R1*%
%TO.N,A1*%
X170590000Y-123975000D03*
%TO.P,J5,R2*%
%TO.N,unconnected-(J5-PadR2)*%
X170590000Y-126975000D03*
%TO.P,J5,S*%
%TO.N,A0*%
X166090000Y-118475000D03*
D51*
%TO.P,J5,T*%
%TO.N,A1*%
X170590000Y-119975000D03*
%TD*%
D10*
%TO.P,R1,1*%
%TO.N,RX*%
X160090000Y-75970000D03*
%TO.P,R1,2*%
%TO.N,Net-(U3-TXD)*%
X160090000Y-72870000D03*
%TD*%
D11*
%TO.P,C9,1*%
%TO.N,+3.3V*%
X163590000Y-66982500D03*
%TO.P,C9,2*%
%TO.N,GND*%
X163590000Y-63857500D03*
%TD*%
D23*
%TO.P,J14,1,Pin_1*%
%TO.N,A2*%
X113075000Y-106050000D03*
D24*
%TO.P,J14,2,Pin_2*%
%TO.N,A3*%
X113075000Y-103510000D03*
%TD*%
D52*
%TO.P,J23,1,Pin_1*%
%TO.N,GPIO12_TOP*%
X223600000Y-103000000D03*
D53*
%TO.P,J23,2,Pin_2*%
%TO.N,RST_TOP*%
X223600000Y-100460000D03*
%TO.P,J23,3,Pin_3*%
%TO.N,GND_TOP*%
X223600000Y-97920000D03*
%TO.P,J23,4,Pin_4*%
%TO.N,+3.3V_TOP*%
X223600000Y-95380000D03*
%TD*%
D52*
%TO.P,J21,1,Pin_1*%
%TO.N,RST-LCD*%
X223600000Y-84500000D03*
D53*
%TO.P,J21,2,Pin_2*%
%TO.N,RS-LCD*%
X223600000Y-81960000D03*
%TO.P,J21,3,Pin_3*%
%TO.N,SPI_MOSI_TOP*%
X223600000Y-79420000D03*
%TO.P,J21,4,Pin_4*%
%TO.N,SPI_CLK_TOP*%
X223600000Y-76880000D03*
%TO.P,J21,5,Pin_5*%
%TO.N,CS-LCD*%
X223600000Y-74340000D03*
%TD*%
D54*
%TO.N,+3.3V*%
X110000000Y-98000000D03*
X110000000Y-92000000D03*
X108500000Y-92000000D03*
X113000000Y-92000000D03*
X104000000Y-92000000D03*
X105500000Y-96500000D03*
X104000000Y-95000000D03*
D55*
X153090000Y-111345000D03*
D54*
X113000000Y-98000000D03*
X105500000Y-93500000D03*
X114500000Y-90500000D03*
X113000000Y-93500000D03*
X107000000Y-96500000D03*
X111500000Y-92000000D03*
X114500000Y-95000000D03*
X104000000Y-98000000D03*
D55*
X163590000Y-68482500D03*
D54*
X105500000Y-98000000D03*
X110000000Y-90500000D03*
X114500000Y-93500000D03*
X113000000Y-90500000D03*
X111500000Y-96500000D03*
X108500000Y-96500000D03*
X111500000Y-90500000D03*
X113000000Y-96500000D03*
X104000000Y-96500000D03*
X107000000Y-92000000D03*
X108500000Y-98000000D03*
X104000000Y-90500000D03*
X104000000Y-93500000D03*
X105500000Y-95000000D03*
X114500000Y-92000000D03*
X114500000Y-98000000D03*
D55*
X154030000Y-71065000D03*
D54*
X108500000Y-90500000D03*
X105500000Y-92000000D03*
X114500000Y-96500000D03*
X113000000Y-95000000D03*
X107000000Y-90500000D03*
X111500000Y-98000000D03*
X107000000Y-98000000D03*
X105500000Y-90500000D03*
X110000000Y-96500000D03*
D55*
%TO.N,RST*%
X158900000Y-78200000D03*
X154300000Y-78200000D03*
X186500000Y-96600000D03*
X180500000Y-91600000D03*
%TO.N,GPIO0*%
X181000000Y-82200000D03*
X153090000Y-80370000D03*
%TO.N,GND*%
X176365000Y-105945000D03*
X183985000Y-105945000D03*
X146090000Y-65357500D03*
X153200000Y-129000000D03*
D54*
X113200000Y-87850000D03*
D55*
X149590000Y-80370000D03*
X156590000Y-111357500D03*
X160900000Y-129000000D03*
X160090000Y-89357500D03*
X171590000Y-111357500D03*
X151000000Y-114500000D03*
X156635000Y-123482500D03*
X149590000Y-65357500D03*
X158980000Y-70965000D03*
X163590000Y-89357500D03*
D54*
X107862500Y-82000000D03*
D55*
X156280000Y-55680000D03*
X177635000Y-105945000D03*
X155025000Y-53450000D03*
D54*
X113462500Y-82000000D03*
D55*
X168090000Y-111370000D03*
X195000000Y-93050000D03*
X165100000Y-123900000D03*
D54*
X183400000Y-93700000D03*
D55*
X146535000Y-91475000D03*
X162900000Y-126500000D03*
X163920000Y-55680000D03*
X163590000Y-62357500D03*
X165175000Y-53450000D03*
X160690000Y-122300000D03*
X149590000Y-72370000D03*
X153135000Y-126570000D03*
X170590000Y-104442500D03*
X163590000Y-83170000D03*
D54*
%TO.N,Net-(D1-A)*%
X156900000Y-58500000D03*
X161400000Y-58500000D03*
D55*
%TO.N,RX*%
X181000000Y-80200000D03*
X161400000Y-77200000D03*
%TO.N,Net-(BZ1--)*%
X146535000Y-99475000D03*
%TO.N,Net-(U2-GPIO1{slash}TXD)*%
X164900000Y-77100000D03*
X181000000Y-78200000D03*
%TO.N,SDA*%
X172520000Y-95500000D03*
X163590000Y-104430000D03*
%TO.N,SCL*%
X167090000Y-104430000D03*
X177635000Y-96700000D03*
%TO.N,Net-(U3-~{DTR})*%
X156490000Y-77007500D03*
X156940000Y-71800000D03*
%TO.N,Net-(U3-~{RTS})*%
X155240000Y-77007500D03*
X155690000Y-71800000D03*
%TO.N,SPI_CLK*%
X170200000Y-86200000D03*
%TO.N,SPI_MOSI*%
X170200000Y-90200000D03*
%TO.N,GPIO12_DX*%
X161800000Y-98300000D03*
X156590000Y-95700000D03*
%TO.N,GPIO15_CS-LCD*%
X195000000Y-86950000D03*
X181200000Y-90400000D03*
%TO.N,GPIO2_RS-LCD*%
X192000000Y-86900000D03*
X186000000Y-88800000D03*
%TO.N,GPIO16_RST-LCD*%
X170200000Y-84200000D03*
X179700000Y-89000000D03*
X179700000Y-84200000D03*
%TD*%
D56*
%TO.N,+5V*%
X105415000Y-68107893D02*
X105415000Y-66060000D01*
X106900000Y-87850000D02*
X106900000Y-87807107D01*
X106750000Y-73942893D02*
X106750000Y-71850000D01*
X104737500Y-85230393D02*
X104737500Y-84000000D01*
X106603553Y-69503553D02*
X105561446Y-68461446D01*
X104883947Y-76016053D02*
X106603554Y-74296446D01*
X106753553Y-87453553D02*
X104883946Y-85583946D01*
X106750000Y-71850000D02*
X106750000Y-69857107D01*
X104737500Y-84000000D02*
X104737500Y-76369607D01*
X106900000Y-87807107D02*
G75*
G03*
X106753556Y-87453550I-500000J7D01*
G01*
X104737500Y-85230393D02*
G75*
G03*
X104883943Y-85583949I500000J-7D01*
G01*
X104737500Y-76369607D02*
G75*
G02*
X104883944Y-76016050I500000J7D01*
G01*
X106750000Y-69857107D02*
G75*
G03*
X106603556Y-69503550I-500000J7D01*
G01*
X105415000Y-68107893D02*
G75*
G03*
X105561443Y-68461449I500000J-7D01*
G01*
X106750000Y-73942893D02*
G75*
G02*
X106603557Y-74296449I-500000J-7D01*
G01*
D57*
%TO.N,+3.3V*%
X153090000Y-110000000D02*
X153090000Y-111345000D01*
X192000000Y-95380000D02*
X192000000Y-91550000D01*
X175095000Y-110000000D02*
X185592893Y-110000000D01*
D56*
X110337500Y-84000000D02*
X110337500Y-81669607D01*
D57*
X143100000Y-75060000D02*
X144332893Y-75060000D01*
D56*
X109200000Y-87850000D02*
X109200000Y-90500000D01*
D58*
X109200000Y-95700000D02*
X110000000Y-96500000D01*
D57*
X143100000Y-95400000D02*
X153090000Y-95400000D01*
D58*
X158980000Y-66155000D02*
X162347893Y-66155000D01*
D56*
X109250000Y-78570000D02*
X109250000Y-77457107D01*
D57*
X163590000Y-97100000D02*
X167090000Y-97100000D01*
X153090000Y-110000000D02*
X143246446Y-100156446D01*
X143100000Y-86900000D02*
X153090000Y-86900000D01*
X153090000Y-86900000D02*
X153090000Y-84970000D01*
D58*
X154030000Y-71065000D02*
X154030000Y-69965000D01*
D57*
X175095000Y-110000000D02*
X153090000Y-110000000D01*
X185946447Y-109853553D02*
X191853554Y-103946446D01*
X149607500Y-69965000D02*
X149590000Y-69982500D01*
X143100000Y-86900000D02*
X143100000Y-95400000D01*
D58*
X162701447Y-66301447D02*
X163236054Y-66836054D01*
D57*
X153090000Y-86900000D02*
X156590000Y-86900000D01*
X172828947Y-99671053D02*
X173708554Y-98791446D01*
X163590000Y-97100000D02*
X163590000Y-99830000D01*
X192000000Y-95380000D02*
X188870000Y-95380000D01*
X168200000Y-92200000D02*
X165807107Y-92200000D01*
X157527500Y-99200000D02*
X157527500Y-97100000D01*
X160090000Y-86400000D02*
X160090000Y-84970000D01*
X156590000Y-86900000D02*
X156590000Y-84970000D01*
X156590000Y-86900000D02*
X159590000Y-86900000D01*
X160090000Y-93982500D02*
X163590000Y-93982500D01*
D56*
X110191053Y-81316053D02*
X109396446Y-80521446D01*
X110337500Y-84055393D02*
X110337500Y-84000000D01*
D58*
X109200000Y-94050000D02*
X109200000Y-95700000D01*
X163590000Y-68482500D02*
X163590000Y-66982500D01*
D57*
X146090000Y-69982500D02*
X149590000Y-69982500D01*
X170590000Y-99817500D02*
X172475393Y-99817500D01*
X163610393Y-93982500D02*
X163590000Y-93982500D01*
D56*
X109346447Y-85253553D02*
X110191054Y-84408946D01*
D57*
X153090000Y-95400000D02*
X153090000Y-93970000D01*
X160090000Y-97100000D02*
X163590000Y-97100000D01*
X143100000Y-99802893D02*
X143100000Y-95400000D01*
X165453553Y-92346447D02*
X163963946Y-93836054D01*
X167090000Y-97100000D02*
X170090000Y-97100000D01*
D58*
X163589607Y-66982500D02*
X163590000Y-66982500D01*
D57*
X154030000Y-69965000D02*
X149607500Y-69965000D01*
X174062107Y-98645000D02*
X175095000Y-98645000D01*
X143100000Y-86900000D02*
X143100000Y-75060000D01*
D56*
X111647107Y-75060000D02*
X113100000Y-75060000D01*
D57*
X170590000Y-97600000D02*
X170590000Y-99817500D01*
X167090000Y-97100000D02*
X167090000Y-99830000D01*
X160090000Y-97100000D02*
X160090000Y-93982500D01*
X157527500Y-97100000D02*
X160090000Y-97100000D01*
X146090000Y-69982500D02*
X146090000Y-73870000D01*
D56*
X109250000Y-80167893D02*
X109250000Y-78570000D01*
X109200000Y-87850000D02*
X109200000Y-85607107D01*
D58*
X175095000Y-110000000D02*
X175095000Y-107945000D01*
D57*
X145937107Y-73870000D02*
X146090000Y-73870000D01*
X154997107Y-97100000D02*
X157527500Y-97100000D01*
D56*
X109396447Y-77103553D02*
X111293554Y-75206446D01*
D57*
X192000000Y-103592893D02*
X192000000Y-95380000D01*
X144686447Y-74913553D02*
X145583554Y-74016446D01*
X153090000Y-95400000D02*
X154643554Y-96953554D01*
D56*
X109200000Y-90500000D02*
X108500000Y-90500000D01*
D58*
X157527500Y-99200000D02*
X157527500Y-100430000D01*
D56*
X109346447Y-85253553D02*
G75*
G03*
X109200005Y-85607107I353553J-353547D01*
G01*
D58*
X163589607Y-66982500D02*
G75*
G02*
X163236051Y-66836057I-7J500000D01*
G01*
D57*
X185592893Y-110000000D02*
G75*
G03*
X185946450Y-109853556I7J500000D01*
G01*
X172475393Y-99817500D02*
G75*
G03*
X172828950Y-99671056I7J500000D01*
G01*
X143246446Y-100156446D02*
G75*
G02*
X143100005Y-99802893I353554J353546D01*
G01*
X145937107Y-73870000D02*
G75*
G03*
X145583551Y-74016443I-7J-500000D01*
G01*
X191853554Y-103946446D02*
G75*
G03*
X191999995Y-103592893I-353554J353546D01*
G01*
D56*
X110191053Y-81316053D02*
G75*
G02*
X110337495Y-81669607I-353553J-353547D01*
G01*
D57*
X163610393Y-93982500D02*
G75*
G03*
X163963949Y-93836057I7J500000D01*
G01*
X165807107Y-92200000D02*
G75*
G03*
X165453550Y-92346444I-7J-500000D01*
G01*
D56*
X109396447Y-77103553D02*
G75*
G03*
X109250005Y-77457107I353553J-353547D01*
G01*
D57*
X173708554Y-98791446D02*
G75*
G02*
X174062107Y-98645005I353546J-353554D01*
G01*
D56*
X110337500Y-84055393D02*
G75*
G02*
X110191057Y-84408949I-500000J-7D01*
G01*
X109396446Y-80521446D02*
G75*
G02*
X109250005Y-80167893I353554J353546D01*
G01*
X111293554Y-75206446D02*
G75*
G02*
X111647107Y-75060005I353546J-353554D01*
G01*
D57*
X144332893Y-75060000D02*
G75*
G03*
X144686450Y-74913556I7J500000D01*
G01*
X160090000Y-86400000D02*
G75*
G02*
X159590000Y-86900000I-500000J0D01*
G01*
X170090000Y-97100000D02*
G75*
G02*
X170590000Y-97600000I0J-500000D01*
G01*
X154997107Y-97100000D02*
G75*
G02*
X154643551Y-96953557I-7J500000D01*
G01*
D58*
X162347893Y-66155000D02*
G75*
G02*
X162701450Y-66301444I7J-500000D01*
G01*
%TO.N,RST*%
X170400000Y-82392893D02*
X170400000Y-78700000D01*
X171153553Y-83353553D02*
X170546446Y-82746446D01*
X171300000Y-91100000D02*
X171300000Y-83707107D01*
D57*
X188867107Y-100460000D02*
X188870000Y-100460000D01*
X186500000Y-96600000D02*
X186500000Y-98092893D01*
D58*
X154300000Y-78200000D02*
X154300000Y-74032500D01*
X169900000Y-78200000D02*
X168200000Y-78200000D01*
X158900000Y-78200000D02*
X168200000Y-78200000D01*
X156590000Y-80717107D02*
X156590000Y-81870000D01*
X154800000Y-73532500D02*
X155440000Y-73532500D01*
X180500000Y-91600000D02*
X171800000Y-91600000D01*
D57*
X186646447Y-98446447D02*
X188513554Y-100313554D01*
D58*
X158900000Y-78200000D02*
X156736446Y-80363554D01*
X171153553Y-83353553D02*
G75*
G02*
X171299995Y-83707107I-353553J-353547D01*
G01*
X171300000Y-91100000D02*
G75*
G03*
X171800000Y-91600000I500000J0D01*
G01*
X156590000Y-80717107D02*
G75*
G02*
X156736443Y-80363551I500000J7D01*
G01*
X170400000Y-82392893D02*
G75*
G03*
X170546443Y-82746449I500000J-7D01*
G01*
X154300000Y-74032500D02*
G75*
G02*
X154800000Y-73532500I500000J0D01*
G01*
X170400000Y-78700000D02*
G75*
G03*
X169900000Y-78200000I-500000J0D01*
G01*
D57*
X188867107Y-100460000D02*
G75*
G02*
X188513551Y-100313557I-7J500000D01*
G01*
X186500000Y-98092893D02*
G75*
G03*
X186646444Y-98446450I500000J-7D01*
G01*
D58*
%TO.N,GPIO0*%
X181500000Y-86200000D02*
X183400000Y-86200000D01*
X154776447Y-80223553D02*
X157553554Y-77446446D01*
X181000000Y-82200000D02*
X181000000Y-85700000D01*
X153090000Y-80370000D02*
X154422893Y-80370000D01*
X157200000Y-75307500D02*
X156740000Y-75307500D01*
X157700000Y-77092893D02*
X157700000Y-75807500D01*
X153090000Y-81870000D02*
X153090000Y-80370000D01*
X157200000Y-75307500D02*
G75*
G02*
X157700000Y-75807500I0J-500000D01*
G01*
X157553554Y-77446446D02*
G75*
G03*
X157699995Y-77092893I-353554J353546D01*
G01*
X154776447Y-80223553D02*
G75*
G02*
X154422893Y-80369995I-353547J353553D01*
G01*
X181500000Y-86200000D02*
G75*
G02*
X181000000Y-85700000I0J500000D01*
G01*
%TO.N,GND*%
X149590000Y-81870000D02*
X149590000Y-80370000D01*
D57*
X157780000Y-55680000D02*
X157780000Y-54852107D01*
X157926447Y-54498553D02*
X158975000Y-53450000D01*
D56*
X113200000Y-87850000D02*
X111500000Y-87850000D01*
D57*
X161225000Y-53450000D02*
X163675000Y-53450000D01*
D58*
X158800000Y-56100000D02*
X158200000Y-56100000D01*
X149590000Y-73870000D02*
X149590000Y-72370000D01*
D57*
X161225000Y-53450000D02*
X158975000Y-53450000D01*
D58*
X163590000Y-90857500D02*
X163590000Y-89357500D01*
X183985000Y-107945000D02*
X183985000Y-105945000D01*
D57*
X158975000Y-53450000D02*
X156525000Y-53450000D01*
X163920000Y-55680000D02*
X162420000Y-55680000D01*
D58*
X163590000Y-63857500D02*
X163590000Y-62357500D01*
X158200000Y-56100000D02*
X157780000Y-55680000D01*
D56*
X113462500Y-82000000D02*
X113462500Y-84000000D01*
D58*
X158980000Y-69965000D02*
X158980000Y-70965000D01*
D57*
X162420000Y-55680000D02*
X162420000Y-54852107D01*
X146535000Y-89475000D02*
X146535000Y-91475000D01*
D58*
X163590000Y-81870000D02*
X163590000Y-83170000D01*
D57*
X155025000Y-53450000D02*
X156525000Y-53450000D01*
D56*
X107862500Y-82000000D02*
X107862500Y-84000000D01*
D58*
X160090000Y-89357500D02*
X160090000Y-90857500D01*
D57*
X165175000Y-53450000D02*
X163675000Y-53450000D01*
D58*
X177635000Y-107945000D02*
X177635000Y-105945000D01*
X195000000Y-91550000D02*
X195000000Y-93050000D01*
D57*
X162273553Y-54498553D02*
X161225000Y-53450000D01*
X183400000Y-93700000D02*
X183400000Y-92200000D01*
X156280000Y-55680000D02*
X157780000Y-55680000D01*
X149590000Y-66857500D02*
X149590000Y-65357500D01*
X146090000Y-66857500D02*
X146090000Y-65357500D01*
D58*
X170590000Y-102942500D02*
X170590000Y-104442500D01*
X176365000Y-107945000D02*
X176365000Y-105945000D01*
D57*
X162420000Y-54852107D02*
G75*
G03*
X162273556Y-54498550I-500000J7D01*
G01*
X157780000Y-54852107D02*
G75*
G02*
X157926444Y-54498550I500000J7D01*
G01*
%TO.N,Net-(D1-A)*%
X156900000Y-58500000D02*
X155400000Y-58500000D01*
D58*
X161400000Y-56100000D02*
X161400000Y-58500000D01*
%TO.N,D_P*%
X157538553Y-64738553D02*
X156846446Y-64046446D01*
X160100000Y-56892893D02*
X160100000Y-56100000D01*
X156846447Y-60353553D02*
X159953554Y-57246446D01*
X156700000Y-63692893D02*
X156700000Y-60707107D01*
X158980000Y-64885000D02*
X157892107Y-64885000D01*
X160100000Y-56892893D02*
G75*
G02*
X159953557Y-57246449I-500000J-7D01*
G01*
X157538553Y-64738553D02*
G75*
G03*
X157892107Y-64884995I353547J353553D01*
G01*
X156846447Y-60353553D02*
G75*
G03*
X156700005Y-60707107I353553J-353547D01*
G01*
X156846446Y-64046446D02*
G75*
G02*
X156700005Y-63692893I353554J353546D01*
G01*
%TO.N,D_N*%
X160603554Y-57496446D02*
X157546447Y-60553553D01*
X160750000Y-56100000D02*
X160750000Y-57142893D01*
X158022107Y-63615000D02*
X158980000Y-63615000D01*
X157546447Y-63346447D02*
X157668554Y-63468554D01*
X157400000Y-60907107D02*
X157400000Y-62992893D01*
X157546447Y-63346447D02*
G75*
G02*
X157400005Y-62992893I353553J353547D01*
G01*
X157546447Y-60553553D02*
G75*
G03*
X157400005Y-60907107I353553J-353547D01*
G01*
X160750000Y-57142893D02*
G75*
G02*
X160603557Y-57496449I-500000J-7D01*
G01*
X157668554Y-63468554D02*
G75*
G03*
X158022107Y-63614995I353546J353554D01*
G01*
%TO.N,RX*%
X161400000Y-77200000D02*
X160170000Y-75970000D01*
X160170000Y-75970000D02*
X160090000Y-75970000D01*
X181000000Y-80200000D02*
X183400000Y-80200000D01*
%TO.N,TX*%
X160871447Y-67571447D02*
X163443554Y-70143554D01*
X163590000Y-70497107D02*
X163590000Y-72870000D01*
X158980000Y-67425000D02*
X160517893Y-67425000D01*
X160871447Y-67571447D02*
G75*
G03*
X160517893Y-67425005I-353547J-353553D01*
G01*
X163443554Y-70143554D02*
G75*
G02*
X163589995Y-70497107I-353554J-353546D01*
G01*
%TO.N,GPIO12*%
X158207107Y-88200000D02*
X168200000Y-88200000D01*
X156590000Y-90870000D02*
X156590000Y-89817107D01*
X156736447Y-89463553D02*
X157853554Y-88346446D01*
X153090000Y-90870000D02*
X156590000Y-90870000D01*
X156590000Y-89817107D02*
G75*
G02*
X156736444Y-89463550I500000J7D01*
G01*
X158207107Y-88200000D02*
G75*
G03*
X157853551Y-88346443I-7J-500000D01*
G01*
%TO.N,Net-(BZ1--)*%
X155652500Y-101380000D02*
X148647107Y-101380000D01*
D57*
X146535000Y-97475000D02*
X146535000Y-99475000D01*
D58*
X148293553Y-101233553D02*
X146535000Y-99475000D01*
X148293553Y-101233553D02*
G75*
G03*
X148647107Y-101379995I353547J353553D01*
G01*
%TO.N,Net-(U3-TXD)*%
X158980000Y-68695000D02*
X160100000Y-68695000D01*
X160090000Y-71817107D02*
X160090000Y-72870000D01*
X160453553Y-71246447D02*
X160236446Y-71463554D01*
X160600000Y-69195000D02*
X160600000Y-70892893D01*
X160090000Y-71817107D02*
G75*
G02*
X160236443Y-71463551I500000J7D01*
G01*
X160453553Y-71246447D02*
G75*
G03*
X160599995Y-70892893I-353553J353547D01*
G01*
X160100000Y-68695000D02*
G75*
G02*
X160600000Y-69195000I0J-500000D01*
G01*
%TO.N,Net-(U2-GPIO1{slash}TXD)*%
X164900000Y-77100000D02*
X163770000Y-75970000D01*
X183400000Y-78200000D02*
X181000000Y-78200000D01*
X163770000Y-75970000D02*
X163590000Y-75970000D01*
%TO.N,TEMP*%
X160207107Y-79300000D02*
X164992893Y-79300000D01*
X149590000Y-84970000D02*
X149622893Y-84970000D01*
X166307107Y-80200000D02*
X168200000Y-80200000D01*
X157646447Y-83253553D02*
X158253554Y-82646446D01*
X165346447Y-79446447D02*
X165953554Y-80053554D01*
X146090000Y-84970000D02*
X149590000Y-84970000D01*
X158546447Y-80753553D02*
X159853554Y-79446446D01*
X151607107Y-83400000D02*
X157292893Y-83400000D01*
X158400000Y-82292893D02*
X158400000Y-81107107D01*
X149976447Y-84823553D02*
X151253554Y-83546446D01*
X158546447Y-80753553D02*
G75*
G03*
X158400005Y-81107107I353553J-353547D01*
G01*
X158253554Y-82646446D02*
G75*
G03*
X158399995Y-82292893I-353554J353546D01*
G01*
X164992893Y-79300000D02*
G75*
G02*
X165346450Y-79446444I7J-500000D01*
G01*
X151607107Y-83400000D02*
G75*
G03*
X151253551Y-83546443I-7J-500000D01*
G01*
X149622893Y-84970000D02*
G75*
G03*
X149976450Y-84823556I7J500000D01*
G01*
X160207107Y-79300000D02*
G75*
G03*
X159853551Y-79446443I-7J-500000D01*
G01*
X166307107Y-80200000D02*
G75*
G02*
X165953551Y-80053557I-7J500000D01*
G01*
X157646447Y-83253553D02*
G75*
G02*
X157292893Y-83399995I-353547J353553D01*
G01*
%TO.N,EN*%
X160476447Y-81723553D02*
X161553554Y-80646446D01*
X161907107Y-80500000D02*
X164392893Y-80500000D01*
X166507107Y-82200000D02*
X168200000Y-82200000D01*
X160090000Y-81870000D02*
X160122893Y-81870000D01*
X164746447Y-80646447D02*
X166153554Y-82053554D01*
X166507107Y-82200000D02*
G75*
G02*
X166153551Y-82053557I-7J500000D01*
G01*
X164746447Y-80646447D02*
G75*
G03*
X164392893Y-80500005I-353547J-353553D01*
G01*
X161553554Y-80646446D02*
G75*
G02*
X161907107Y-80500005I353546J-353554D01*
G01*
X160122893Y-81870000D02*
G75*
G03*
X160476450Y-81723556I7J500000D01*
G01*
%TO.N,SDA*%
X187153553Y-92246447D02*
X184046446Y-95353554D01*
X185746447Y-86446447D02*
X187153554Y-87853554D01*
X185600000Y-84700000D02*
X185600000Y-86092893D01*
X187300000Y-88207107D02*
X187300000Y-91892893D01*
X163590000Y-102930000D02*
X163590000Y-104430000D01*
X176365000Y-95500000D02*
X172520000Y-95500000D01*
X183400000Y-84200000D02*
X185100000Y-84200000D01*
X176365000Y-95500000D02*
X176365000Y-98645000D01*
X183692893Y-95500000D02*
X176365000Y-95500000D01*
X184046446Y-95353554D02*
G75*
G02*
X183692893Y-95499995I-353546J353554D01*
G01*
X187153554Y-87853554D02*
G75*
G02*
X187299995Y-88207107I-353554J-353546D01*
G01*
X185746447Y-86446447D02*
G75*
G02*
X185600005Y-86092893I353553J353547D01*
G01*
X187153553Y-92246447D02*
G75*
G03*
X187299995Y-91892893I-353553J353547D01*
G01*
X185600000Y-84700000D02*
G75*
G03*
X185100000Y-84200000I-500000J0D01*
G01*
%TO.N,SCL*%
X177635000Y-96700000D02*
X184392893Y-96700000D01*
X185292893Y-82200000D02*
X183400000Y-82200000D01*
X186753553Y-83453553D02*
X185646446Y-82346446D01*
X188753553Y-87153553D02*
X187046446Y-85446446D01*
X186900000Y-85092893D02*
X186900000Y-83807107D01*
X188900000Y-92192893D02*
X188900000Y-87507107D01*
X167090000Y-102930000D02*
X167090000Y-104430000D01*
X184746447Y-96553553D02*
X188753554Y-92546446D01*
X177635000Y-98645000D02*
X177635000Y-96700000D01*
X185292893Y-82200000D02*
G75*
G02*
X185646449Y-82346443I7J-500000D01*
G01*
X188900000Y-92192893D02*
G75*
G02*
X188753557Y-92546449I-500000J-7D01*
G01*
X186753553Y-83453553D02*
G75*
G02*
X186899995Y-83807107I-353553J-353547D01*
G01*
X184392893Y-96700000D02*
G75*
G03*
X184746450Y-96553556I7J500000D01*
G01*
X188753553Y-87153553D02*
G75*
G02*
X188899995Y-87507107I-353553J-353547D01*
G01*
X187046446Y-85446446D02*
G75*
G02*
X186900005Y-85092893I353554J353546D01*
G01*
%TO.N,Net-(U3-~{DTR})*%
X155701447Y-66301447D02*
X156793554Y-67393554D01*
X154030000Y-66155000D02*
X155347893Y-66155000D01*
X156940000Y-67747107D02*
X156940000Y-71800000D01*
D59*
X156740000Y-73060000D02*
X156740000Y-73532500D01*
X156940000Y-71800000D02*
X156940000Y-72652893D01*
X156236447Y-76753947D02*
X156490000Y-77007500D01*
X156793553Y-73006447D02*
X156740000Y-73060000D01*
X156090000Y-75307500D02*
X156090000Y-76400393D01*
X156236447Y-76753947D02*
G75*
G02*
X156090005Y-76400393I353553J353547D01*
G01*
X156940000Y-72652893D02*
G75*
G02*
X156793556Y-73006450I-500000J-7D01*
G01*
D58*
X155701447Y-66301447D02*
G75*
G03*
X155347893Y-66155005I-353547J-353553D01*
G01*
X156793554Y-67393554D02*
G75*
G02*
X156939995Y-67747107I-353554J-353546D01*
G01*
D59*
%TO.N,Net-(U3-~{RTS})*%
X155943553Y-72053553D02*
X155690000Y-71800000D01*
D58*
X155690000Y-71800000D02*
X155690000Y-68097107D01*
D59*
X155240000Y-76227107D02*
X155240000Y-77007500D01*
D58*
X155017893Y-67425000D02*
X154030000Y-67425000D01*
D59*
X156090000Y-73532500D02*
X156090000Y-72407107D01*
X155440000Y-75307500D02*
X155440000Y-75820000D01*
D58*
X155543553Y-67743553D02*
X155371446Y-67571446D01*
D59*
X155440000Y-75820000D02*
X155386446Y-75873554D01*
D58*
X155371446Y-67571446D02*
G75*
G03*
X155017893Y-67425005I-353546J-353554D01*
G01*
D59*
X155943553Y-72053553D02*
G75*
G02*
X156089995Y-72407107I-353553J-353547D01*
G01*
X155240000Y-76227107D02*
G75*
G02*
X155386443Y-75873551I500000J7D01*
G01*
D58*
X155543553Y-67743553D02*
G75*
G02*
X155689995Y-68097107I-353553J-353547D01*
G01*
%TO.N,Net-(Q1-B)*%
X158900000Y-101192893D02*
X158900000Y-101007107D01*
X158116447Y-102183553D02*
X158753554Y-101546446D01*
X159046447Y-100653553D02*
X159723554Y-99976446D01*
X160077107Y-99830000D02*
X160090000Y-99830000D01*
X157527500Y-102330000D02*
X157762893Y-102330000D01*
X158116447Y-102183553D02*
G75*
G02*
X157762893Y-102329995I-353547J353553D01*
G01*
X159723554Y-99976446D02*
G75*
G02*
X160077107Y-99830005I353546J-353554D01*
G01*
X158900000Y-101007107D02*
G75*
G02*
X159046444Y-100653550I500000J7D01*
G01*
X158900000Y-101192893D02*
G75*
G02*
X158753557Y-101546449I-500000J-7D01*
G01*
D56*
%TO.N,+5Vin*%
X108515000Y-66060000D02*
X109600000Y-66060000D01*
D57*
X152000000Y-63400000D02*
X152000000Y-59307107D01*
D56*
X113100000Y-69980000D02*
X111887107Y-69980000D01*
X109600000Y-67692893D02*
X109600000Y-66060000D01*
D57*
X145207107Y-63900000D02*
X151500000Y-63900000D01*
X152146446Y-58953554D02*
X152600000Y-58500000D01*
D56*
X111533553Y-69833553D02*
X109746446Y-68046446D01*
D57*
X143246447Y-65653553D02*
X144853554Y-64046446D01*
D56*
X109600000Y-66060000D02*
X110565000Y-66060000D01*
D57*
X143100000Y-69980000D02*
X143100000Y-66007107D01*
X151500000Y-63900000D02*
G75*
G03*
X152000000Y-63400000I0J500000D01*
G01*
X143100000Y-66007107D02*
G75*
G02*
X143246444Y-65653550I500000J7D01*
G01*
D56*
X109600000Y-67692893D02*
G75*
G03*
X109746443Y-68046449I500000J-7D01*
G01*
D57*
X152000000Y-59307107D02*
G75*
G02*
X152146443Y-58953551I500000J7D01*
G01*
D56*
X111887107Y-69980000D02*
G75*
G02*
X111533550Y-69833556I-7J500000D01*
G01*
D57*
X145207107Y-63900000D02*
G75*
G03*
X144853551Y-64046443I-7J-500000D01*
G01*
%TO.N,GPIO12_TOP*%
X223425000Y-103175000D02*
X223425000Y-104825000D01*
X223600000Y-103000000D02*
X223425000Y-103175000D01*
%TO.N,RST_TOP*%
X222606447Y-101453553D02*
X223600000Y-100460000D01*
X216721447Y-103578553D02*
X218553554Y-101746446D01*
X218907107Y-101600000D02*
X222252893Y-101600000D01*
X216575000Y-104825000D02*
X216575000Y-103932107D01*
X222606447Y-101453553D02*
G75*
G02*
X222252893Y-101599995I-353547J353553D01*
G01*
X218553554Y-101746446D02*
G75*
G02*
X218907107Y-101600005I353546J-353554D01*
G01*
X216575000Y-103932107D02*
G75*
G02*
X216721444Y-103578550I500000J7D01*
G01*
D59*
%TO.N,CS-LCD*%
X218250000Y-92350000D02*
X218200000Y-92400000D01*
X218250000Y-92300000D02*
X218200000Y-92350000D01*
D57*
X222520000Y-75420000D02*
X223600000Y-74340000D01*
D59*
X218250000Y-92350000D02*
X218250000Y-79897107D01*
X218396447Y-79543553D02*
X222520000Y-75420000D01*
X218250000Y-79897107D02*
G75*
G02*
X218396444Y-79543550I500000J7D01*
G01*
%TO.N,RST-LCD*%
X220750000Y-92350000D02*
X220750000Y-87557107D01*
X220896447Y-87203553D02*
X222500000Y-85600000D01*
X220750000Y-92300000D02*
X220700000Y-92350000D01*
D57*
X222500000Y-85600000D02*
X223600000Y-84500000D01*
D59*
X220750000Y-87557107D02*
G75*
G02*
X220896444Y-87203550I500000J7D01*
G01*
%TO.N,SPI_MOSI_TOP*%
X219750000Y-92350000D02*
X219750000Y-83477107D01*
X219896447Y-83123553D02*
X222510000Y-80510000D01*
D57*
X222510000Y-80510000D02*
X223600000Y-79420000D01*
D59*
X219750000Y-83477107D02*
G75*
G02*
X219896444Y-83123550I500000J7D01*
G01*
%TO.N,SPI_CLK_TOP*%
X219250000Y-92350000D02*
X219250000Y-81437107D01*
X219396447Y-81083553D02*
X222490000Y-77990000D01*
D57*
X222490000Y-77990000D02*
X223600000Y-76880000D01*
D59*
X219250000Y-81437107D02*
G75*
G02*
X219396444Y-81083550I500000J7D01*
G01*
%TO.N,RS-LCD*%
X220396447Y-85163553D02*
X222530000Y-83030000D01*
D57*
X222530000Y-83030000D02*
X223600000Y-81960000D01*
D59*
X220250000Y-92350000D02*
X220250000Y-85517107D01*
X220396447Y-85163553D02*
G75*
G03*
X220250005Y-85517107I353553J-353547D01*
G01*
D58*
%TO.N,SPI_CLK*%
X168200000Y-86200000D02*
X170200000Y-86200000D01*
%TO.N,SPI_MOSI*%
X170200000Y-90200000D02*
X168200000Y-90200000D01*
%TO.N,GPIO12_DX*%
X185307107Y-103000000D02*
X186500000Y-103000000D01*
X162300000Y-101400000D02*
X183292893Y-101400000D01*
X161800000Y-98300000D02*
X161800000Y-100900000D01*
X156590000Y-95700000D02*
X156590000Y-93970000D01*
D57*
X186500000Y-103000000D02*
X188870000Y-103000000D01*
D58*
X183646447Y-101546447D02*
X184953554Y-102853554D01*
X185307107Y-103000000D02*
G75*
G02*
X184953551Y-102853557I-7J500000D01*
G01*
X183292893Y-101400000D02*
G75*
G02*
X183646450Y-101546444I7J-500000D01*
G01*
X162300000Y-101400000D02*
G75*
G02*
X161800000Y-100900000I0J500000D01*
G01*
%TO.N,GPIO15_CS-LCD*%
X195000000Y-86950000D02*
X195000000Y-85832107D01*
D57*
X190100000Y-75300000D02*
X189286446Y-74486446D01*
X188932893Y-74340000D02*
X188870000Y-74340000D01*
D58*
X195000000Y-88450000D02*
X195000000Y-86950000D01*
X190953553Y-76153553D02*
X190100000Y-75300000D01*
X183200000Y-90400000D02*
X181200000Y-90400000D01*
X191100000Y-81517893D02*
X191100000Y-76507107D01*
X194853553Y-85478553D02*
X191246446Y-81871446D01*
X183400000Y-90200000D02*
X183200000Y-90400000D01*
X191100000Y-76507107D02*
G75*
G03*
X190953556Y-76153550I-500000J7D01*
G01*
D57*
X189286446Y-74486446D02*
G75*
G03*
X188932893Y-74340005I-353546J-353554D01*
G01*
D58*
X194853553Y-85478553D02*
G75*
G02*
X194999995Y-85832107I-353553J-353547D01*
G01*
X191246446Y-81871446D02*
G75*
G02*
X191100005Y-81517893I353554J353546D01*
G01*
%TO.N,GPIO2_RS-LCD*%
X190100000Y-83000000D02*
X191853554Y-84753554D01*
X185546447Y-88346447D02*
X186000000Y-88800000D01*
D57*
X190100000Y-83000000D02*
X189060000Y-81960000D01*
D58*
X192000000Y-88450000D02*
X192000000Y-86900000D01*
X183400000Y-88200000D02*
X185192893Y-88200000D01*
D57*
X189165000Y-81960000D02*
X188870000Y-81960000D01*
D58*
X192000000Y-86900000D02*
X192000000Y-85107107D01*
D57*
X189060000Y-81960000D02*
X188870000Y-81960000D01*
D58*
X185546447Y-88346447D02*
G75*
G03*
X185192893Y-88200005I-353547J-353553D01*
G01*
X191853554Y-84753554D02*
G75*
G02*
X191999995Y-85107107I-353554J-353546D01*
G01*
%TO.N,GPIO16_RST-LCD*%
X166003553Y-84346447D02*
X165526446Y-84823554D01*
X165172893Y-84970000D02*
X163590000Y-84970000D01*
X179700000Y-89000000D02*
X179700000Y-84200000D01*
X168200000Y-84200000D02*
X166357107Y-84200000D01*
X168200000Y-84200000D02*
X170200000Y-84200000D01*
X166003553Y-84346447D02*
G75*
G02*
X166357107Y-84200005I353547J-353553D01*
G01*
X165526446Y-84823554D02*
G75*
G02*
X165172893Y-84969995I-353546J353554D01*
G01*
D59*
%TO.N,+3.3V_TOP*%
X218603553Y-94196447D02*
X217908946Y-94891054D01*
D57*
X214520000Y-95050000D02*
X217507500Y-95050000D01*
X220520000Y-96700000D02*
X219607107Y-96700000D01*
X219253553Y-96553553D02*
X217883946Y-95183946D01*
D59*
X218750000Y-92400000D02*
X218750000Y-93842893D01*
X218700000Y-92350000D02*
X218750000Y-92400000D01*
X217555393Y-95037500D02*
X217520000Y-95037500D01*
D57*
X220520000Y-96700000D02*
X222072893Y-96700000D01*
X217507500Y-95050000D02*
X217520000Y-95037500D01*
X220520000Y-98150000D02*
X220520000Y-96700000D01*
X222426447Y-96553553D02*
X223600000Y-95380000D01*
X217530393Y-95037500D02*
X217520000Y-95037500D01*
X219607107Y-96700000D02*
G75*
G02*
X219253550Y-96553556I-7J500000D01*
G01*
X222072893Y-96700000D02*
G75*
G03*
X222426450Y-96553556I7J500000D01*
G01*
D59*
X217908946Y-94891054D02*
G75*
G02*
X217555393Y-95037495I-353546J353554D01*
G01*
D57*
X217883946Y-95183946D02*
G75*
G03*
X217530393Y-95037505I-353546J-353554D01*
G01*
D59*
X218603553Y-94196447D02*
G75*
G03*
X218749995Y-93842893I-353553J353547D01*
G01*
D57*
%TO.N,GND_TOP*%
X225575000Y-106800000D02*
X225575000Y-108975000D01*
X221466447Y-100053553D02*
X223600000Y-97920000D01*
D59*
X221553553Y-91146447D02*
X221396446Y-91303554D01*
D57*
X217500000Y-100200000D02*
X214571446Y-103128554D01*
X225428553Y-92528553D02*
X224046446Y-91146446D01*
X217520000Y-100200000D02*
X221112893Y-100200000D01*
X225575000Y-97920000D02*
X223600000Y-97920000D01*
D59*
X221250000Y-92300000D02*
X221200000Y-92350000D01*
D57*
X225575000Y-106800000D02*
X225575000Y-104850000D01*
D59*
X221250000Y-91657107D02*
X221250000Y-92300000D01*
D57*
X220446447Y-105746447D02*
X221353554Y-106653554D01*
X217520000Y-98162500D02*
X217520000Y-100200000D01*
X217520000Y-100200000D02*
X217500000Y-100200000D01*
X225575000Y-104850000D02*
X225575000Y-97920000D01*
X223692893Y-91000000D02*
X222900000Y-91000000D01*
X225575000Y-97920000D02*
X225575000Y-92882107D01*
X214425000Y-103482107D02*
X214425000Y-104825000D01*
X221707107Y-106800000D02*
X225575000Y-106800000D01*
D59*
X222900000Y-91000000D02*
X221907107Y-91000000D01*
D57*
X220000000Y-105600000D02*
X220092893Y-105600000D01*
D59*
X221907107Y-91000000D02*
G75*
G03*
X221553550Y-91146444I-7J-500000D01*
G01*
D57*
X221466447Y-100053553D02*
G75*
G02*
X221112893Y-100199995I-353547J353553D01*
G01*
X220446447Y-105746447D02*
G75*
G03*
X220092893Y-105600005I-353547J-353553D01*
G01*
D59*
X221250000Y-91657107D02*
G75*
G02*
X221396443Y-91303551I500000J7D01*
G01*
D57*
X214425000Y-103482107D02*
G75*
G02*
X214571443Y-103128551I500000J7D01*
G01*
X223692893Y-91000000D02*
G75*
G02*
X224046449Y-91146443I7J-500000D01*
G01*
X221353554Y-106653554D02*
G75*
G03*
X221707107Y-106799995I353546J353554D01*
G01*
X225575000Y-92882107D02*
G75*
G03*
X225428556Y-92528550I-500000J7D01*
G01*
D59*
%TO.N,Net-(J4-Pin_1)*%
X221750000Y-92400000D02*
X221800000Y-92350000D01*
X220896447Y-94903553D02*
X221603554Y-94196446D01*
X220520000Y-95050000D02*
X220542893Y-95050000D01*
X221750000Y-93842893D02*
X221750000Y-92400000D01*
X221603554Y-94196446D02*
G75*
G03*
X221749995Y-93842893I-353554J353546D01*
G01*
X220896447Y-94903553D02*
G75*
G02*
X220542893Y-95049995I-353547J353553D01*
G01*
D58*
%TO.N,DO0_BUZZER*%
X172592893Y-105600000D02*
X163207107Y-105600000D01*
X178758553Y-105458553D02*
X178346446Y-105046446D01*
X173353553Y-105046447D02*
X172946446Y-105453554D01*
X177992893Y-104900000D02*
X173707107Y-104900000D01*
X162853553Y-105453553D02*
X160476446Y-103076446D01*
X160122893Y-102930000D02*
X160090000Y-102930000D01*
X178905000Y-107945000D02*
X178905000Y-105812107D01*
X178346446Y-105046446D02*
G75*
G03*
X177992893Y-104900005I-353546J-353554D01*
G01*
X172592893Y-105600000D02*
G75*
G03*
X172946449Y-105453557I7J500000D01*
G01*
X160476446Y-103076446D02*
G75*
G03*
X160122893Y-102930005I-353546J-353554D01*
G01*
X163207107Y-105600000D02*
G75*
G02*
X162853550Y-105453556I-7J500000D01*
G01*
X173353553Y-105046447D02*
G75*
G02*
X173707107Y-104900005I353547J-353553D01*
G01*
X178758553Y-105458553D02*
G75*
G02*
X178904995Y-105812107I-353553J-353547D01*
G01*
%TO.N,Net-(R21-Pad2)*%
X146090000Y-81870000D02*
X146090000Y-76970000D01*
X146090000Y-76970000D02*
X149590000Y-76970000D01*
%TO.N,Net-(LD1-A)*%
X213900000Y-106900000D02*
X218027559Y-106900000D01*
D57*
X214520000Y-99800000D02*
X214520000Y-98150000D01*
D58*
X218381113Y-107046447D02*
X219588220Y-108253554D01*
X219941773Y-108400000D02*
X220000000Y-108400000D01*
X213400000Y-102307107D02*
X213400000Y-106400000D01*
X214520000Y-99800000D02*
X214520000Y-100772893D01*
X214373553Y-101126447D02*
X213546446Y-101953554D01*
X218027559Y-106900000D02*
G75*
G02*
X218381133Y-107046427I41J-500000D01*
G01*
X219941773Y-108400000D02*
G75*
G02*
X219588234Y-108253540I27J500000D01*
G01*
X213400000Y-106400000D02*
G75*
G03*
X213900000Y-106900000I500000J0D01*
G01*
X213546446Y-101953554D02*
G75*
G03*
X213400005Y-102307107I353554J-353546D01*
G01*
X214520000Y-100772893D02*
G75*
G02*
X214373556Y-101126450I-500000J-7D01*
G01*
D56*
%TO.N,Net-(D2-A)*%
X112000000Y-61300000D02*
X112000000Y-60750000D01*
X113365000Y-66060000D02*
X113365000Y-62665000D01*
X113365000Y-62665000D02*
X112000000Y-61300000D01*
%TD*%
%TA.AperFunction,Conductor*%
%TO.N,+3.3V*%
G36*
X115416178Y-89552130D02*
G01*
X115450077Y-89556592D01*
X115496910Y-89562758D01*
X115559695Y-89579581D01*
X115619713Y-89604442D01*
X115676004Y-89636940D01*
X115727549Y-89676493D01*
X115773506Y-89722450D01*
X115813057Y-89773993D01*
X115845558Y-89830287D01*
X115870417Y-89890302D01*
X115887241Y-89953087D01*
X115897870Y-90033818D01*
X115900000Y-90066321D01*
X115900000Y-98383678D01*
X115897870Y-98416178D01*
X115897870Y-98416181D01*
X115887241Y-98496912D01*
X115870417Y-98559697D01*
X115845558Y-98619712D01*
X115813057Y-98676006D01*
X115773509Y-98727546D01*
X115727546Y-98773509D01*
X115676006Y-98813057D01*
X115619712Y-98845558D01*
X115559697Y-98870417D01*
X115496912Y-98887241D01*
X115447007Y-98893811D01*
X115416177Y-98897870D01*
X115383678Y-98900000D01*
X103416322Y-98900000D01*
X103383821Y-98897870D01*
X103365531Y-98895462D01*
X103303088Y-98887241D01*
X103240302Y-98870417D01*
X103180287Y-98845558D01*
X103123993Y-98813057D01*
X103072450Y-98773506D01*
X103026493Y-98727549D01*
X102986940Y-98676004D01*
X102954441Y-98619712D01*
X102929582Y-98559697D01*
X102912758Y-98496909D01*
X102902130Y-98416178D01*
X102900000Y-98383678D01*
X102900000Y-94400001D01*
X107000000Y-94400001D01*
X107000000Y-94694938D01*
X107015122Y-94829142D01*
X107074660Y-94999294D01*
X107074665Y-94999303D01*
X107170574Y-95151944D01*
X107298055Y-95279425D01*
X107450696Y-95375334D01*
X107450705Y-95375339D01*
X107620857Y-95434877D01*
X107755061Y-95449999D01*
X107755074Y-95450000D01*
X108949999Y-95450000D01*
X108950000Y-95449999D01*
X108950000Y-94400001D01*
X109450000Y-94400001D01*
X109450000Y-95449999D01*
X109450001Y-95450000D01*
X110644926Y-95450000D01*
X110644938Y-95449999D01*
X110779142Y-95434877D01*
X110949294Y-95375339D01*
X110949303Y-95375334D01*
X111101944Y-95279425D01*
X111229425Y-95151944D01*
X111325334Y-94999303D01*
X111325339Y-94999294D01*
X111384877Y-94829142D01*
X111399999Y-94694938D01*
X111400000Y-94694925D01*
X111400000Y-94400001D01*
X111399999Y-94400000D01*
X109450001Y-94400000D01*
X109450000Y-94400001D01*
X108950000Y-94400001D01*
X108949999Y-94400000D01*
X107000001Y-94400000D01*
X107000000Y-94400001D01*
X102900000Y-94400001D01*
X102900000Y-93605061D01*
X107000000Y-93605061D01*
X107000000Y-93899999D01*
X107000001Y-93900000D01*
X108949999Y-93900000D01*
X108950000Y-93899999D01*
X108950000Y-92850001D01*
X109450000Y-92850001D01*
X109450000Y-93899999D01*
X109450001Y-93900000D01*
X111399999Y-93900000D01*
X111400000Y-93899999D01*
X111400000Y-93605074D01*
X111399999Y-93605061D01*
X111384877Y-93470857D01*
X111325339Y-93300705D01*
X111325334Y-93300696D01*
X111229425Y-93148055D01*
X111101944Y-93020574D01*
X110949303Y-92924665D01*
X110949294Y-92924660D01*
X110779142Y-92865122D01*
X110644938Y-92850000D01*
X109450001Y-92850000D01*
X109450000Y-92850001D01*
X108950000Y-92850001D01*
X108949999Y-92850000D01*
X107755061Y-92850000D01*
X107620857Y-92865122D01*
X107450705Y-92924660D01*
X107450696Y-92924665D01*
X107298055Y-93020574D01*
X107170574Y-93148055D01*
X107074665Y-93300696D01*
X107074660Y-93300705D01*
X107015122Y-93470857D01*
X107000000Y-93605061D01*
X102900000Y-93605061D01*
X102900000Y-90066321D01*
X102902130Y-90033821D01*
X102912758Y-89953090D01*
X102912759Y-89953087D01*
X102929580Y-89890306D01*
X102954443Y-89830282D01*
X102986938Y-89773998D01*
X103026497Y-89722445D01*
X103072445Y-89676497D01*
X103123998Y-89636938D01*
X103180282Y-89604443D01*
X103240306Y-89579580D01*
X103303089Y-89562758D01*
X103336971Y-89558297D01*
X103383823Y-89552130D01*
X103416322Y-89550000D01*
X115383678Y-89550000D01*
X115416178Y-89552130D01*
G37*
%TD.AperFunction*%
%TD*%
%TA.AperFunction,Conductor*%
%TO.N,GND*%
G36*
X152090403Y-110979962D02*
G01*
X152144941Y-111034500D01*
X152164903Y-111109000D01*
X152162040Y-111138064D01*
X152144157Y-111227970D01*
X152139500Y-111251384D01*
X152139500Y-111438616D01*
X152176026Y-111622248D01*
X152247675Y-111795226D01*
X152247680Y-111795235D01*
X152317024Y-111899015D01*
X152351698Y-111950908D01*
X152484092Y-112083302D01*
X152587174Y-112152179D01*
X152639764Y-112187319D01*
X152639773Y-112187324D01*
X152690436Y-112208309D01*
X152812749Y-112258973D01*
X152996384Y-112295500D01*
X153183616Y-112295500D01*
X153367251Y-112258973D01*
X153540231Y-112187322D01*
X153695908Y-112083302D01*
X153828302Y-111950908D01*
X153932322Y-111795231D01*
X154003973Y-111622251D01*
X154040500Y-111438616D01*
X154040500Y-111251384D01*
X154017960Y-111138067D01*
X154023004Y-111061106D01*
X154065854Y-110996976D01*
X154135028Y-110962863D01*
X154164097Y-110960000D01*
X171480487Y-110960000D01*
X171499929Y-110961274D01*
X171600175Y-110974467D01*
X171637736Y-110984528D01*
X171722059Y-111019444D01*
X171755736Y-111038879D01*
X171828153Y-111094422D01*
X171855657Y-111121912D01*
X171911236Y-111194302D01*
X171930689Y-111227970D01*
X171965647Y-111312277D01*
X171975726Y-111349832D01*
X171988969Y-111450068D01*
X171990253Y-111469510D01*
X171993920Y-118816491D01*
X171973995Y-118891001D01*
X171919484Y-118945566D01*
X171844994Y-118965565D01*
X171770484Y-118945640D01*
X171718103Y-118894786D01*
X171632712Y-118756344D01*
X171508656Y-118632288D01*
X171359334Y-118540186D01*
X171276065Y-118512593D01*
X171192798Y-118485001D01*
X171175665Y-118483250D01*
X171090009Y-118474500D01*
X171090004Y-118474500D01*
X170089996Y-118474500D01*
X169987202Y-118485001D01*
X169820666Y-118540186D01*
X169671343Y-118632288D01*
X169547288Y-118756343D01*
X169455186Y-118905666D01*
X169400001Y-119072201D01*
X169389500Y-119174995D01*
X169389500Y-120775003D01*
X169389501Y-120775008D01*
X169400001Y-120877797D01*
X169455186Y-121044334D01*
X169547288Y-121193656D01*
X169671344Y-121317712D01*
X169820666Y-121409814D01*
X169987203Y-121464999D01*
X170089991Y-121475500D01*
X171090008Y-121475499D01*
X171192797Y-121464999D01*
X171359334Y-121409814D01*
X171508656Y-121317712D01*
X171632712Y-121193656D01*
X171719259Y-121053339D01*
X171775358Y-121000412D01*
X171850407Y-120982624D01*
X171924295Y-121004744D01*
X171977224Y-121060844D01*
X171995075Y-121131487D01*
X171996095Y-123176796D01*
X171976170Y-123251306D01*
X171921659Y-123305871D01*
X171847169Y-123325870D01*
X171772659Y-123305945D01*
X171718094Y-123251434D01*
X171705389Y-123222914D01*
X171702547Y-123214168D01*
X171616760Y-123045801D01*
X171505690Y-122892927D01*
X171372073Y-122759310D01*
X171219199Y-122648240D01*
X171050832Y-122562453D01*
X170871118Y-122504060D01*
X170684481Y-122474500D01*
X170495519Y-122474500D01*
X170308882Y-122504060D01*
X170129168Y-122562453D01*
X170129163Y-122562455D01*
X170129157Y-122562458D01*
X169960804Y-122648238D01*
X169960799Y-122648241D01*
X169807936Y-122759303D01*
X169807925Y-122759312D01*
X169674312Y-122892925D01*
X169674303Y-122892936D01*
X169563241Y-123045799D01*
X169563238Y-123045804D01*
X169477458Y-123214157D01*
X169477455Y-123214163D01*
X169477453Y-123214168D01*
X169419060Y-123393882D01*
X169389500Y-123580519D01*
X169389500Y-124369481D01*
X169419060Y-124556118D01*
X169477453Y-124735832D01*
X169563240Y-124904199D01*
X169674310Y-125057073D01*
X169807927Y-125190690D01*
X169960801Y-125301760D01*
X170040248Y-125342240D01*
X170097565Y-125393849D01*
X170121399Y-125467202D01*
X170105363Y-125542645D01*
X170053754Y-125599962D01*
X170040248Y-125607760D01*
X169960799Y-125648241D01*
X169807936Y-125759303D01*
X169807925Y-125759312D01*
X169674312Y-125892925D01*
X169674303Y-125892936D01*
X169563241Y-126045799D01*
X169563238Y-126045804D01*
X169477458Y-126214157D01*
X169477455Y-126214163D01*
X169477453Y-126214168D01*
X169419060Y-126393882D01*
X169389500Y-126580519D01*
X169389500Y-127369481D01*
X169419060Y-127556118D01*
X169477453Y-127735832D01*
X169563240Y-127904199D01*
X169674310Y-128057073D01*
X169807927Y-128190690D01*
X169960801Y-128301760D01*
X170129168Y-128387547D01*
X170308882Y-128445940D01*
X170495519Y-128475500D01*
X170495524Y-128475500D01*
X170684476Y-128475500D01*
X170684481Y-128475500D01*
X170871118Y-128445940D01*
X171050832Y-128387547D01*
X171219199Y-128301760D01*
X171372073Y-128190690D01*
X171505690Y-128057073D01*
X171616760Y-127904199D01*
X171702547Y-127735832D01*
X171707678Y-127720039D01*
X171749680Y-127655356D01*
X171818400Y-127620338D01*
X171895423Y-127624372D01*
X171960110Y-127666376D01*
X171995128Y-127735096D01*
X171998385Y-127766007D01*
X171999500Y-129998750D01*
X171999500Y-130350500D01*
X171979538Y-130425000D01*
X171925000Y-130479538D01*
X171850500Y-130499500D01*
X151149500Y-130499500D01*
X151075000Y-130479538D01*
X151020462Y-130425000D01*
X151000500Y-130350500D01*
X151000500Y-126580519D01*
X163889500Y-126580519D01*
X163889500Y-127369481D01*
X163919060Y-127556118D01*
X163977453Y-127735832D01*
X164063240Y-127904199D01*
X164174310Y-128057073D01*
X164307927Y-128190690D01*
X164460801Y-128301760D01*
X164629168Y-128387547D01*
X164808882Y-128445940D01*
X164995519Y-128475500D01*
X164995524Y-128475500D01*
X165184476Y-128475500D01*
X165184481Y-128475500D01*
X165371118Y-128445940D01*
X165550832Y-128387547D01*
X165719199Y-128301760D01*
X165872073Y-128190690D01*
X166005690Y-128057073D01*
X166116760Y-127904199D01*
X166202547Y-127735832D01*
X166260940Y-127556118D01*
X166290500Y-127369481D01*
X166290500Y-126580519D01*
X166260940Y-126393882D01*
X166202547Y-126214168D01*
X166116760Y-126045801D01*
X166005690Y-125892927D01*
X165872073Y-125759310D01*
X165726130Y-125653275D01*
X165719195Y-125648237D01*
X165607315Y-125591232D01*
X167439500Y-125591232D01*
X167439500Y-125758767D01*
X167472183Y-125923079D01*
X167536294Y-126077858D01*
X167536301Y-126077870D01*
X167627366Y-126214157D01*
X167629374Y-126217162D01*
X167747838Y-126335626D01*
X167747841Y-126335628D01*
X167887129Y-126428698D01*
X167887133Y-126428700D01*
X167887137Y-126428703D01*
X167887138Y-126428703D01*
X167887141Y-126428705D01*
X167932472Y-126447481D01*
X168041918Y-126492816D01*
X168206233Y-126525500D01*
X168373767Y-126525500D01*
X168538082Y-126492816D01*
X168692863Y-126428703D01*
X168832162Y-126335626D01*
X168950626Y-126217162D01*
X169043703Y-126077863D01*
X169107816Y-125923082D01*
X169140500Y-125758767D01*
X169140500Y-125591233D01*
X169107816Y-125426918D01*
X169043703Y-125272137D01*
X168950626Y-125132838D01*
X168832162Y-125014374D01*
X168832158Y-125014371D01*
X168692870Y-124921301D01*
X168692858Y-124921294D01*
X168570136Y-124870461D01*
X168538082Y-124857184D01*
X168538080Y-124857183D01*
X168538079Y-124857183D01*
X168373767Y-124824500D01*
X168206233Y-124824500D01*
X168041920Y-124857183D01*
X167887141Y-124921294D01*
X167887129Y-124921301D01*
X167747841Y-125014371D01*
X167747834Y-125014377D01*
X167629377Y-125132834D01*
X167629371Y-125132841D01*
X167536301Y-125272129D01*
X167536294Y-125272141D01*
X167472183Y-125426920D01*
X167439500Y-125591232D01*
X165607315Y-125591232D01*
X165550842Y-125562458D01*
X165550841Y-125562457D01*
X165550832Y-125562453D01*
X165371118Y-125504060D01*
X165184481Y-125474500D01*
X164995519Y-125474500D01*
X164808882Y-125504060D01*
X164629168Y-125562453D01*
X164629163Y-125562455D01*
X164629157Y-125562458D01*
X164460804Y-125648238D01*
X164460799Y-125648241D01*
X164307936Y-125759303D01*
X164307925Y-125759312D01*
X164174312Y-125892925D01*
X164174303Y-125892936D01*
X164063241Y-126045799D01*
X164063238Y-126045804D01*
X163977458Y-126214157D01*
X163977455Y-126214163D01*
X163977453Y-126214168D01*
X163919060Y-126393882D01*
X163889500Y-126580519D01*
X151000500Y-126580519D01*
X151000500Y-119934108D01*
X151000499Y-119934106D01*
X150988024Y-119887548D01*
X150966392Y-119806814D01*
X150900500Y-119692686D01*
X150807314Y-119599500D01*
X150807311Y-119599498D01*
X150807310Y-119599497D01*
X150733811Y-119557063D01*
X150693186Y-119533608D01*
X150624298Y-119515149D01*
X150610435Y-119511435D01*
X150543640Y-119472870D01*
X150505077Y-119406075D01*
X150500000Y-119367512D01*
X150500000Y-118080519D01*
X164889500Y-118080519D01*
X164889500Y-118869481D01*
X164919060Y-119056118D01*
X164977453Y-119235832D01*
X165063240Y-119404199D01*
X165174310Y-119557073D01*
X165307927Y-119690690D01*
X165460801Y-119801760D01*
X165629168Y-119887547D01*
X165808882Y-119945940D01*
X165995519Y-119975500D01*
X165995524Y-119975500D01*
X166184476Y-119975500D01*
X166184481Y-119975500D01*
X166371118Y-119945940D01*
X166550832Y-119887547D01*
X166719199Y-119801760D01*
X166872073Y-119690690D01*
X167005690Y-119557073D01*
X167116760Y-119404199D01*
X167202547Y-119235832D01*
X167253221Y-119079872D01*
X167295225Y-119015193D01*
X167363947Y-118980177D01*
X167440969Y-118984213D01*
X167505654Y-119026220D01*
X167532583Y-119068897D01*
X167536296Y-119077862D01*
X167536301Y-119077870D01*
X167629371Y-119217158D01*
X167629374Y-119217162D01*
X167747838Y-119335626D01*
X167747841Y-119335628D01*
X167887129Y-119428698D01*
X167887133Y-119428700D01*
X167887137Y-119428703D01*
X167887138Y-119428703D01*
X167887141Y-119428705D01*
X167932472Y-119447481D01*
X168041918Y-119492816D01*
X168206233Y-119525500D01*
X168373767Y-119525500D01*
X168538082Y-119492816D01*
X168692863Y-119428703D01*
X168832162Y-119335626D01*
X168950626Y-119217162D01*
X169043703Y-119077863D01*
X169107816Y-118923082D01*
X169140500Y-118758767D01*
X169140500Y-118591233D01*
X169107816Y-118426918D01*
X169047973Y-118282445D01*
X169043705Y-118272141D01*
X169043698Y-118272129D01*
X168950628Y-118132841D01*
X168950626Y-118132838D01*
X168832162Y-118014374D01*
X168832158Y-118014371D01*
X168692870Y-117921301D01*
X168692858Y-117921294D01*
X168570136Y-117870461D01*
X168538082Y-117857184D01*
X168538080Y-117857183D01*
X168538079Y-117857183D01*
X168373767Y-117824500D01*
X168206233Y-117824500D01*
X168041920Y-117857183D01*
X167887141Y-117921294D01*
X167887129Y-117921301D01*
X167747841Y-118014371D01*
X167747834Y-118014377D01*
X167629377Y-118132834D01*
X167629371Y-118132841D01*
X167563388Y-118231591D01*
X167505400Y-118282445D01*
X167429753Y-118297491D01*
X167356719Y-118272698D01*
X167305865Y-118214710D01*
X167290500Y-118148810D01*
X167290500Y-118080523D01*
X167290500Y-118080519D01*
X167260940Y-117893882D01*
X167202547Y-117714168D01*
X167116760Y-117545801D01*
X167005690Y-117392927D01*
X166872073Y-117259310D01*
X166719199Y-117148240D01*
X166550832Y-117062453D01*
X166371118Y-117004060D01*
X166184481Y-116974500D01*
X165995519Y-116974500D01*
X165808882Y-117004060D01*
X165629168Y-117062453D01*
X165629163Y-117062455D01*
X165629157Y-117062458D01*
X165460804Y-117148238D01*
X165460799Y-117148241D01*
X165307936Y-117259303D01*
X165307925Y-117259312D01*
X165174312Y-117392925D01*
X165174303Y-117392936D01*
X165063241Y-117545799D01*
X165063238Y-117545804D01*
X164977458Y-117714157D01*
X164977455Y-117714163D01*
X164977453Y-117714168D01*
X164919060Y-117893882D01*
X164889500Y-118080519D01*
X150500000Y-118080519D01*
X150500000Y-111469763D01*
X150501275Y-111450315D01*
X150502815Y-111438616D01*
X150514477Y-111350035D01*
X150524541Y-111312472D01*
X150559482Y-111228118D01*
X150578924Y-111194442D01*
X150634511Y-111122001D01*
X150662001Y-111094511D01*
X150734442Y-111038924D01*
X150768118Y-111019482D01*
X150852472Y-110984541D01*
X150890035Y-110974477D01*
X150990315Y-110961274D01*
X151009763Y-110960000D01*
X152015903Y-110960000D01*
X152090403Y-110979962D01*
G37*
%TD.AperFunction*%
%TD*%
M02*
