G04 This is an RS-274x file exported by *
G04 gerbv version  *
G04 More information is available about gerbv at *
G04 https://gerbv.github.io/ *
G04 --End of header info--*
%MOIN*%
%FSLAX36Y36*%
%IPPOS*%
G04 --Define apertures--*
%ADD10C,0.0059*%
%ADD11C,0.0047*%
%ADD12C,0.0000*%
G04 --Start main section--*
G54D10*
G01X6189560Y-4049438D02*
G01X6170812Y-4038939D01*
G01X6189560Y-4031440D02*
G01X6150190Y-4031440D01*
G01X6150190Y-4031440D02*
G01X6150190Y-4043438D01*
G01X6150190Y-4043438D02*
G01X6152064Y-4046438D01*
G01X6152064Y-4046438D02*
G01X6153939Y-4047938D01*
G01X6153939Y-4047938D02*
G01X6157689Y-4049438D01*
G01X6157689Y-4049438D02*
G01X6163313Y-4049438D01*
G01X6163313Y-4049438D02*
G01X6167063Y-4047938D01*
G01X6167063Y-4047938D02*
G01X6168937Y-4046438D01*
G01X6168937Y-4046438D02*
G01X6170812Y-4043438D01*
G01X6170812Y-4043438D02*
G01X6170812Y-4031440D01*
G01X6150190Y-4059936D02*
G01X6150190Y-4079434D01*
G01X6150190Y-4079434D02*
G01X6165188Y-4068935D01*
G01X6165188Y-4068935D02*
G01X6165188Y-4073435D01*
G01X6165188Y-4073435D02*
G01X6167063Y-4076434D01*
G01X6167063Y-4076434D02*
G01X6168937Y-4077934D01*
G01X6168937Y-4077934D02*
G01X6172687Y-4079434D01*
G01X6172687Y-4079434D02*
G01X6182061Y-4079434D01*
G01X6182061Y-4079434D02*
G01X6185810Y-4077934D01*
G01X6185810Y-4077934D02*
G01X6187685Y-4076434D01*
G01X6187685Y-4076434D02*
G01X6189560Y-4073435D01*
G01X6189560Y-4073435D02*
G01X6189560Y-4064436D01*
G01X6189560Y-4064436D02*
G01X6187685Y-4061436D01*
G01X6187685Y-4061436D02*
G01X6185810Y-4059936D01*
G01X6189560Y-4109430D02*
G01X6189560Y-4091432D01*
G01X6189560Y-4100431D02*
G01X6150190Y-4100431D01*
G01X6150190Y-4100431D02*
G01X6155814Y-4097432D01*
G01X6155814Y-4097432D02*
G01X6159564Y-4094432D01*
G01X6159564Y-4094432D02*
G01X6161438Y-4091432D01*
G01X6110220Y-4477390D02*
G01X6112094Y-4475890D01*
G01X6112094Y-4475890D02*
G01X6113969Y-4471391D01*
G01X6113969Y-4471391D02*
G01X6113969Y-4468391D01*
G01X6113969Y-4468391D02*
G01X6112094Y-4463892D01*
G01X6112094Y-4463892D02*
G01X6108345Y-4460892D01*
G01X6108345Y-4460892D02*
G01X6104595Y-4459393D01*
G01X6104595Y-4459393D02*
G01X6097096Y-4457893D01*
G01X6097096Y-4457893D02*
G01X6091472Y-4457893D01*
G01X6091472Y-4457893D02*
G01X6083973Y-4459393D01*
G01X6083973Y-4459393D02*
G01X6080223Y-4460892D01*
G01X6080223Y-4460892D02*
G01X6076474Y-4463892D01*
G01X6076474Y-4463892D02*
G01X6074599Y-4468391D01*
G01X6074599Y-4468391D02*
G01X6074599Y-4471391D01*
G01X6074599Y-4471391D02*
G01X6076474Y-4475890D01*
G01X6076474Y-4475890D02*
G01X6078349Y-4477390D01*
G01X6113969Y-4507387D02*
G01X6113969Y-4489389D01*
G01X6113969Y-4498388D02*
G01X6074599Y-4498388D01*
G01X6074599Y-4498388D02*
G01X6080223Y-4495388D01*
G01X6080223Y-4495388D02*
G01X6083973Y-4492388D01*
G01X6083973Y-4492388D02*
G01X6085848Y-4489389D01*
G01X6078349Y-4519385D02*
G01X6076474Y-4520885D01*
G01X6076474Y-4520885D02*
G01X6074599Y-4523884D01*
G01X6074599Y-4523884D02*
G01X6074599Y-4531384D01*
G01X6074599Y-4531384D02*
G01X6076474Y-4534383D01*
G01X6076474Y-4534383D02*
G01X6078349Y-4535883D01*
G01X6078349Y-4535883D02*
G01X6082098Y-4537383D01*
G01X6082098Y-4537383D02*
G01X6085848Y-4537383D01*
G01X6085848Y-4537383D02*
G01X6091472Y-4535883D01*
G01X6091472Y-4535883D02*
G01X6113969Y-4517885D01*
G01X6113969Y-4517885D02*
G01X6113969Y-4537383D01*
G01X6046253Y-4049438D02*
G01X6027505Y-4038939D01*
G01X6046253Y-4031440D02*
G01X6006883Y-4031440D01*
G01X6006883Y-4031440D02*
G01X6006883Y-4043438D01*
G01X6006883Y-4043438D02*
G01X6008757Y-4046438D01*
G01X6008757Y-4046438D02*
G01X6010632Y-4047938D01*
G01X6010632Y-4047938D02*
G01X6014382Y-4049438D01*
G01X6014382Y-4049438D02*
G01X6020006Y-4049438D01*
G01X6020006Y-4049438D02*
G01X6023756Y-4047938D01*
G01X6023756Y-4047938D02*
G01X6025630Y-4046438D01*
G01X6025630Y-4046438D02*
G01X6027505Y-4043438D01*
G01X6027505Y-4043438D02*
G01X6027505Y-4031440D01*
G01X6006883Y-4059936D02*
G01X6006883Y-4079434D01*
G01X6006883Y-4079434D02*
G01X6021881Y-4068935D01*
G01X6021881Y-4068935D02*
G01X6021881Y-4073435D01*
G01X6021881Y-4073435D02*
G01X6023756Y-4076434D01*
G01X6023756Y-4076434D02*
G01X6025630Y-4077934D01*
G01X6025630Y-4077934D02*
G01X6029380Y-4079434D01*
G01X6029380Y-4079434D02*
G01X6038754Y-4079434D01*
G01X6038754Y-4079434D02*
G01X6042503Y-4077934D01*
G01X6042503Y-4077934D02*
G01X6044378Y-4076434D01*
G01X6044378Y-4076434D02*
G01X6046253Y-4073435D01*
G01X6046253Y-4073435D02*
G01X6046253Y-4064436D01*
G01X6046253Y-4064436D02*
G01X6044378Y-4061436D01*
G01X6044378Y-4061436D02*
G01X6042503Y-4059936D01*
G01X6010632Y-4091432D02*
G01X6008757Y-4092932D01*
G01X6008757Y-4092932D02*
G01X6006883Y-4095932D01*
G01X6006883Y-4095932D02*
G01X6006883Y-4103431D01*
G01X6006883Y-4103431D02*
G01X6008757Y-4106430D01*
G01X6008757Y-4106430D02*
G01X6010632Y-4107930D01*
G01X6010632Y-4107930D02*
G01X6014382Y-4109430D01*
G01X6014382Y-4109430D02*
G01X6018131Y-4109430D01*
G01X6018131Y-4109430D02*
G01X6023756Y-4107930D01*
G01X6023756Y-4107930D02*
G01X6046253Y-4089932D01*
G01X6046253Y-4089932D02*
G01X6046253Y-4109430D01*
G01X6254914Y-5011286D02*
G01X6236166Y-5000787D01*
G01X6254914Y-4993288D02*
G01X6215544Y-4993288D01*
G01X6215544Y-4993288D02*
G01X6215544Y-5005287D01*
G01X6215544Y-5005287D02*
G01X6217419Y-5008286D01*
G01X6217419Y-5008286D02*
G01X6219294Y-5009786D01*
G01X6219294Y-5009786D02*
G01X6223043Y-5011286D01*
G01X6223043Y-5011286D02*
G01X6228667Y-5011286D01*
G01X6228667Y-5011286D02*
G01X6232417Y-5009786D01*
G01X6232417Y-5009786D02*
G01X6234292Y-5008286D01*
G01X6234292Y-5008286D02*
G01X6236166Y-5005287D01*
G01X6236166Y-5005287D02*
G01X6236166Y-4993288D01*
G01X6215544Y-5038283D02*
G01X6215544Y-5032283D01*
G01X6215544Y-5032283D02*
G01X6217419Y-5029284D01*
G01X6217419Y-5029284D02*
G01X6219294Y-5027784D01*
G01X6219294Y-5027784D02*
G01X6224918Y-5024784D01*
G01X6224918Y-5024784D02*
G01X6232417Y-5023285D01*
G01X6232417Y-5023285D02*
G01X6247415Y-5023285D01*
G01X6247415Y-5023285D02*
G01X6251165Y-5024784D01*
G01X6251165Y-5024784D02*
G01X6253039Y-5026284D01*
G01X6253039Y-5026284D02*
G01X6254914Y-5029284D01*
G01X6254914Y-5029284D02*
G01X6254914Y-5035283D01*
G01X6254914Y-5035283D02*
G01X6253039Y-5038283D01*
G01X6253039Y-5038283D02*
G01X6251165Y-5039783D01*
G01X6251165Y-5039783D02*
G01X6247415Y-5041282D01*
G01X6247415Y-5041282D02*
G01X6238041Y-5041282D01*
G01X6238041Y-5041282D02*
G01X6234292Y-5039783D01*
G01X6234292Y-5039783D02*
G01X6232417Y-5038283D01*
G01X6232417Y-5038283D02*
G01X6230542Y-5035283D01*
G01X6230542Y-5035283D02*
G01X6230542Y-5029284D01*
G01X6230542Y-5029284D02*
G01X6232417Y-5026284D01*
G01X6232417Y-5026284D02*
G01X6234292Y-5024784D01*
G01X6234292Y-5024784D02*
G01X6238041Y-5023285D01*
G01X5979324Y-4646682D02*
G01X5960576Y-4636183D01*
G01X5979324Y-4628684D02*
G01X5939954Y-4628684D01*
G01X5939954Y-4628684D02*
G01X5939954Y-4640682D01*
G01X5939954Y-4640682D02*
G01X5941828Y-4643682D01*
G01X5941828Y-4643682D02*
G01X5943703Y-4645182D01*
G01X5943703Y-4645182D02*
G01X5947453Y-4646682D01*
G01X5947453Y-4646682D02*
G01X5953077Y-4646682D01*
G01X5953077Y-4646682D02*
G01X5956826Y-4645182D01*
G01X5956826Y-4645182D02*
G01X5958701Y-4643682D01*
G01X5958701Y-4643682D02*
G01X5960576Y-4640682D01*
G01X5960576Y-4640682D02*
G01X5960576Y-4628684D01*
G01X5979324Y-4676678D02*
G01X5979324Y-4658680D01*
G01X5979324Y-4667679D02*
G01X5939954Y-4667679D01*
G01X5939954Y-4667679D02*
G01X5945578Y-4664679D01*
G01X5945578Y-4664679D02*
G01X5949327Y-4661680D01*
G01X5949327Y-4661680D02*
G01X5951202Y-4658680D01*
G01X5939954Y-4703675D02*
G01X5939954Y-4697675D01*
G01X5939954Y-4697675D02*
G01X5941828Y-4694676D01*
G01X5941828Y-4694676D02*
G01X5943703Y-4693176D01*
G01X5943703Y-4693176D02*
G01X5949327Y-4690176D01*
G01X5949327Y-4690176D02*
G01X5956826Y-4688676D01*
G01X5956826Y-4688676D02*
G01X5971824Y-4688676D01*
G01X5971824Y-4688676D02*
G01X5975574Y-4690176D01*
G01X5975574Y-4690176D02*
G01X5977449Y-4691676D01*
G01X5977449Y-4691676D02*
G01X5979324Y-4694676D01*
G01X5979324Y-4694676D02*
G01X5979324Y-4700675D01*
G01X5979324Y-4700675D02*
G01X5977449Y-4703675D01*
G01X5977449Y-4703675D02*
G01X5975574Y-4705174D01*
G01X5975574Y-4705174D02*
G01X5971824Y-4706674D01*
G01X5971824Y-4706674D02*
G01X5962451Y-4706674D01*
G01X5962451Y-4706674D02*
G01X5958701Y-4705174D01*
G01X5958701Y-4705174D02*
G01X5956826Y-4703675D01*
G01X5956826Y-4703675D02*
G01X5954952Y-4700675D01*
G01X5954952Y-4700675D02*
G01X5954952Y-4694676D01*
G01X5954952Y-4694676D02*
G01X5956826Y-4691676D01*
G01X5956826Y-4691676D02*
G01X5958701Y-4690176D01*
G01X5958701Y-4690176D02*
G01X5962451Y-4688676D01*
G01X5905495Y-4049438D02*
G01X5907370Y-4047938D01*
G01X5907370Y-4047938D02*
G01X5909245Y-4043438D01*
G01X5909245Y-4043438D02*
G01X5909245Y-4040439D01*
G01X5909245Y-4040439D02*
G01X5907370Y-4035939D01*
G01X5907370Y-4035939D02*
G01X5903621Y-4032940D01*
G01X5903621Y-4032940D02*
G01X5899871Y-4031440D01*
G01X5899871Y-4031440D02*
G01X5892372Y-4029940D01*
G01X5892372Y-4029940D02*
G01X5886748Y-4029940D01*
G01X5886748Y-4029940D02*
G01X5879249Y-4031440D01*
G01X5879249Y-4031440D02*
G01X5875499Y-4032940D01*
G01X5875499Y-4032940D02*
G01X5871750Y-4035939D01*
G01X5871750Y-4035939D02*
G01X5869875Y-4040439D01*
G01X5869875Y-4040439D02*
G01X5869875Y-4043438D01*
G01X5869875Y-4043438D02*
G01X5871750Y-4047938D01*
G01X5871750Y-4047938D02*
G01X5873624Y-4049438D01*
G01X5909245Y-4079434D02*
G01X5909245Y-4061436D01*
G01X5909245Y-4070435D02*
G01X5869875Y-4070435D01*
G01X5869875Y-4070435D02*
G01X5875499Y-4067435D01*
G01X5875499Y-4067435D02*
G01X5879249Y-4064436D01*
G01X5879249Y-4064436D02*
G01X5881123Y-4061436D01*
G01X5869875Y-4107930D02*
G01X5869875Y-4092932D01*
G01X5869875Y-4092932D02*
G01X5888622Y-4091432D01*
G01X5888622Y-4091432D02*
G01X5886748Y-4092932D01*
G01X5886748Y-4092932D02*
G01X5884873Y-4095932D01*
G01X5884873Y-4095932D02*
G01X5884873Y-4103431D01*
G01X5884873Y-4103431D02*
G01X5886748Y-4106430D01*
G01X5886748Y-4106430D02*
G01X5888622Y-4107930D01*
G01X5888622Y-4107930D02*
G01X5892372Y-4109430D01*
G01X5892372Y-4109430D02*
G01X5901746Y-4109430D01*
G01X5901746Y-4109430D02*
G01X5905495Y-4107930D01*
G01X5905495Y-4107930D02*
G01X5907370Y-4106430D01*
G01X5907370Y-4106430D02*
G01X5909245Y-4103431D01*
G01X5909245Y-4103431D02*
G01X5909245Y-4095932D01*
G01X5909245Y-4095932D02*
G01X5907370Y-4092932D01*
G01X5907370Y-4092932D02*
G01X5905495Y-4091432D01*
G01X6712582Y-4334871D02*
G01X6714457Y-4333371D01*
G01X6714457Y-4333371D02*
G01X6716331Y-4328871D01*
G01X6716331Y-4328871D02*
G01X6716331Y-4325872D01*
G01X6716331Y-4325872D02*
G01X6714457Y-4321372D01*
G01X6714457Y-4321372D02*
G01X6710707Y-4318373D01*
G01X6710707Y-4318373D02*
G01X6706958Y-4316873D01*
G01X6706958Y-4316873D02*
G01X6699459Y-4315373D01*
G01X6699459Y-4315373D02*
G01X6693834Y-4315373D01*
G01X6693834Y-4315373D02*
G01X6686335Y-4316873D01*
G01X6686335Y-4316873D02*
G01X6682586Y-4318373D01*
G01X6682586Y-4318373D02*
G01X6678836Y-4321372D01*
G01X6678836Y-4321372D02*
G01X6676961Y-4325872D01*
G01X6676961Y-4325872D02*
G01X6676961Y-4328871D01*
G01X6676961Y-4328871D02*
G01X6678836Y-4333371D01*
G01X6678836Y-4333371D02*
G01X6680711Y-4334871D01*
G01X6716331Y-4364867D02*
G01X6716331Y-4346869D01*
G01X6716331Y-4355868D02*
G01X6676961Y-4355868D01*
G01X6676961Y-4355868D02*
G01X6682586Y-4352868D01*
G01X6682586Y-4352868D02*
G01X6686335Y-4349869D01*
G01X6686335Y-4349869D02*
G01X6688210Y-4346869D01*
G01X6676961Y-4375366D02*
G01X6676961Y-4394863D01*
G01X6676961Y-4394863D02*
G01X6691959Y-4384364D01*
G01X6691959Y-4384364D02*
G01X6691959Y-4388864D01*
G01X6691959Y-4388864D02*
G01X6693834Y-4391864D01*
G01X6693834Y-4391864D02*
G01X6695709Y-4393363D01*
G01X6695709Y-4393363D02*
G01X6699459Y-4394863D01*
G01X6699459Y-4394863D02*
G01X6708832Y-4394863D01*
G01X6708832Y-4394863D02*
G01X6712582Y-4393363D01*
G01X6712582Y-4393363D02*
G01X6714457Y-4391864D01*
G01X6714457Y-4391864D02*
G01X6716331Y-4388864D01*
G01X6716331Y-4388864D02*
G01X6716331Y-4379865D01*
G01X6716331Y-4379865D02*
G01X6714457Y-4376865D01*
G01X6714457Y-4376865D02*
G01X6712582Y-4375366D01*
G01X6253724Y-4823060D02*
G01X6255598Y-4821560D01*
G01X6255598Y-4821560D02*
G01X6257473Y-4817060D01*
G01X6257473Y-4817060D02*
G01X6257473Y-4814061D01*
G01X6257473Y-4814061D02*
G01X6255598Y-4809561D01*
G01X6255598Y-4809561D02*
G01X6251849Y-4806562D01*
G01X6251849Y-4806562D02*
G01X6248099Y-4805062D01*
G01X6248099Y-4805062D02*
G01X6240600Y-4803562D01*
G01X6240600Y-4803562D02*
G01X6234976Y-4803562D01*
G01X6234976Y-4803562D02*
G01X6227477Y-4805062D01*
G01X6227477Y-4805062D02*
G01X6223727Y-4806562D01*
G01X6223727Y-4806562D02*
G01X6219978Y-4809561D01*
G01X6219978Y-4809561D02*
G01X6218103Y-4814061D01*
G01X6218103Y-4814061D02*
G01X6218103Y-4817060D01*
G01X6218103Y-4817060D02*
G01X6219978Y-4821560D01*
G01X6219978Y-4821560D02*
G01X6221853Y-4823060D01*
G01X6257473Y-4853056D02*
G01X6257473Y-4835058D01*
G01X6257473Y-4844057D02*
G01X6218103Y-4844057D01*
G01X6218103Y-4844057D02*
G01X6223727Y-4841057D01*
G01X6223727Y-4841057D02*
G01X6227477Y-4838058D01*
G01X6227477Y-4838058D02*
G01X6229352Y-4835058D01*
G01X6257473Y-4883052D02*
G01X6257473Y-4865054D01*
G01X6257473Y-4874053D02*
G01X6218103Y-4874053D01*
G01X6218103Y-4874053D02*
G01X6223727Y-4871054D01*
G01X6223727Y-4871054D02*
G01X6227477Y-4868054D01*
G01X6227477Y-4868054D02*
G01X6229352Y-4865054D01*
G01X6479324Y-4334871D02*
G01X6460576Y-4324372D01*
G01X6479324Y-4316873D02*
G01X6439954Y-4316873D01*
G01X6439954Y-4316873D02*
G01X6439954Y-4328871D01*
G01X6439954Y-4328871D02*
G01X6441828Y-4331871D01*
G01X6441828Y-4331871D02*
G01X6443703Y-4333371D01*
G01X6443703Y-4333371D02*
G01X6447453Y-4334871D01*
G01X6447453Y-4334871D02*
G01X6453077Y-4334871D01*
G01X6453077Y-4334871D02*
G01X6456826Y-4333371D01*
G01X6456826Y-4333371D02*
G01X6458701Y-4331871D01*
G01X6458701Y-4331871D02*
G01X6460576Y-4328871D01*
G01X6460576Y-4328871D02*
G01X6460576Y-4316873D01*
G01X6479324Y-4364867D02*
G01X6479324Y-4346869D01*
G01X6479324Y-4355868D02*
G01X6439954Y-4355868D01*
G01X6439954Y-4355868D02*
G01X6445578Y-4352868D01*
G01X6445578Y-4352868D02*
G01X6449327Y-4349869D01*
G01X6449327Y-4349869D02*
G01X6451202Y-4346869D01*
G01X6456826Y-4382865D02*
G01X6454952Y-4379865D01*
G01X6454952Y-4379865D02*
G01X6453077Y-4378365D01*
G01X6453077Y-4378365D02*
G01X6449327Y-4376865D01*
G01X6449327Y-4376865D02*
G01X6447453Y-4376865D01*
G01X6447453Y-4376865D02*
G01X6443703Y-4378365D01*
G01X6443703Y-4378365D02*
G01X6441828Y-4379865D01*
G01X6441828Y-4379865D02*
G01X6439954Y-4382865D01*
G01X6439954Y-4382865D02*
G01X6439954Y-4388864D01*
G01X6439954Y-4388864D02*
G01X6441828Y-4391864D01*
G01X6441828Y-4391864D02*
G01X6443703Y-4393363D01*
G01X6443703Y-4393363D02*
G01X6447453Y-4394863D01*
G01X6447453Y-4394863D02*
G01X6449327Y-4394863D01*
G01X6449327Y-4394863D02*
G01X6453077Y-4393363D01*
G01X6453077Y-4393363D02*
G01X6454952Y-4391864D01*
G01X6454952Y-4391864D02*
G01X6456826Y-4388864D01*
G01X6456826Y-4388864D02*
G01X6456826Y-4382865D01*
G01X6456826Y-4382865D02*
G01X6458701Y-4379865D01*
G01X6458701Y-4379865D02*
G01X6460576Y-4378365D01*
G01X6460576Y-4378365D02*
G01X6464325Y-4376865D01*
G01X6464325Y-4376865D02*
G01X6471824Y-4376865D01*
G01X6471824Y-4376865D02*
G01X6475574Y-4378365D01*
G01X6475574Y-4378365D02*
G01X6477449Y-4379865D01*
G01X6477449Y-4379865D02*
G01X6479324Y-4382865D01*
G01X6479324Y-4382865D02*
G01X6479324Y-4388864D01*
G01X6479324Y-4388864D02*
G01X6477449Y-4391864D01*
G01X6477449Y-4391864D02*
G01X6475574Y-4393363D01*
G01X6475574Y-4393363D02*
G01X6471824Y-4394863D01*
G01X6471824Y-4394863D02*
G01X6464325Y-4394863D01*
G01X6464325Y-4394863D02*
G01X6460576Y-4393363D01*
G01X6460576Y-4393363D02*
G01X6458701Y-4391864D01*
G01X6458701Y-4391864D02*
G01X6456826Y-4388864D01*
G01X5861804Y-3735611D02*
G01X5822434Y-3735611D01*
G01X5822434Y-3735611D02*
G01X5822434Y-3743110D01*
G01X5822434Y-3743110D02*
G01X5824309Y-3747610D01*
G01X5824309Y-3747610D02*
G01X5828058Y-3750609D01*
G01X5828058Y-3750609D02*
G01X5831808Y-3752109D01*
G01X5831808Y-3752109D02*
G01X5839307Y-3753609D01*
G01X5839307Y-3753609D02*
G01X5844931Y-3753609D01*
G01X5844931Y-3753609D02*
G01X5852430Y-3752109D01*
G01X5852430Y-3752109D02*
G01X5856180Y-3750609D01*
G01X5856180Y-3750609D02*
G01X5859929Y-3747610D01*
G01X5859929Y-3747610D02*
G01X5861804Y-3743110D01*
G01X5861804Y-3743110D02*
G01X5861804Y-3735611D01*
G01X5822434Y-3764108D02*
G01X5822434Y-3783605D01*
G01X5822434Y-3783605D02*
G01X5837432Y-3773106D01*
G01X5837432Y-3773106D02*
G01X5837432Y-3777606D01*
G01X5837432Y-3777606D02*
G01X5839307Y-3780606D01*
G01X5839307Y-3780606D02*
G01X5841181Y-3782105D01*
G01X5841181Y-3782105D02*
G01X5844931Y-3783605D01*
G01X5844931Y-3783605D02*
G01X5854305Y-3783605D01*
G01X5854305Y-3783605D02*
G01X5858054Y-3782105D01*
G01X5858054Y-3782105D02*
G01X5859929Y-3780606D01*
G01X5859929Y-3780606D02*
G01X5861804Y-3777606D01*
G01X5861804Y-3777606D02*
G01X5861804Y-3768607D01*
G01X5861804Y-3768607D02*
G01X5859929Y-3765607D01*
G01X5859929Y-3765607D02*
G01X5858054Y-3764108D01*
G01X6599009Y-4334871D02*
G01X6580261Y-4324372D01*
G01X6599009Y-4316873D02*
G01X6559639Y-4316873D01*
G01X6559639Y-4316873D02*
G01X6559639Y-4328871D01*
G01X6559639Y-4328871D02*
G01X6561513Y-4331871D01*
G01X6561513Y-4331871D02*
G01X6563388Y-4333371D01*
G01X6563388Y-4333371D02*
G01X6567138Y-4334871D01*
G01X6567138Y-4334871D02*
G01X6572762Y-4334871D01*
G01X6572762Y-4334871D02*
G01X6576511Y-4333371D01*
G01X6576511Y-4333371D02*
G01X6578386Y-4331871D01*
G01X6578386Y-4331871D02*
G01X6580261Y-4328871D01*
G01X6580261Y-4328871D02*
G01X6580261Y-4316873D01*
G01X6599009Y-4364867D02*
G01X6599009Y-4346869D01*
G01X6599009Y-4355868D02*
G01X6559639Y-4355868D01*
G01X6559639Y-4355868D02*
G01X6565263Y-4352868D01*
G01X6565263Y-4352868D02*
G01X6569012Y-4349869D01*
G01X6569012Y-4349869D02*
G01X6570887Y-4346869D01*
G01X6599009Y-4379865D02*
G01X6599009Y-4385864D01*
G01X6599009Y-4385864D02*
G01X6597134Y-4388864D01*
G01X6597134Y-4388864D02*
G01X6595259Y-4390364D01*
G01X6595259Y-4390364D02*
G01X6589635Y-4393363D01*
G01X6589635Y-4393363D02*
G01X6582136Y-4394863D01*
G01X6582136Y-4394863D02*
G01X6567138Y-4394863D01*
G01X6567138Y-4394863D02*
G01X6563388Y-4393363D01*
G01X6563388Y-4393363D02*
G01X6561513Y-4391864D01*
G01X6561513Y-4391864D02*
G01X6559639Y-4388864D01*
G01X6559639Y-4388864D02*
G01X6559639Y-4382865D01*
G01X6559639Y-4382865D02*
G01X6561513Y-4379865D01*
G01X6561513Y-4379865D02*
G01X6563388Y-4378365D01*
G01X6563388Y-4378365D02*
G01X6567138Y-4376865D01*
G01X6567138Y-4376865D02*
G01X6576511Y-4376865D01*
G01X6576511Y-4376865D02*
G01X6580261Y-4378365D01*
G01X6580261Y-4378365D02*
G01X6582136Y-4379865D01*
G01X6582136Y-4379865D02*
G01X6584010Y-4382865D01*
G01X6584010Y-4382865D02*
G01X6584010Y-4388864D01*
G01X6584010Y-4388864D02*
G01X6582136Y-4391864D01*
G01X6582136Y-4391864D02*
G01X6580261Y-4393363D01*
G01X6580261Y-4393363D02*
G01X6576511Y-4394863D01*
G01X6405308Y-4681515D02*
G01X6437179Y-4681515D01*
G01X6437179Y-4681515D02*
G01X6440928Y-4683015D01*
G01X6440928Y-4683015D02*
G01X6442803Y-4684514D01*
G01X6442803Y-4684514D02*
G01X6444678Y-4687514D01*
G01X6444678Y-4687514D02*
G01X6444678Y-4693513D01*
G01X6444678Y-4693513D02*
G01X6442803Y-4696513D01*
G01X6442803Y-4696513D02*
G01X6440928Y-4698013D01*
G01X6440928Y-4698013D02*
G01X6437179Y-4699513D01*
G01X6437179Y-4699513D02*
G01X6405308Y-4699513D01*
G01X6405308Y-4729509D02*
G01X6405308Y-4714511D01*
G01X6405308Y-4714511D02*
G01X6424055Y-4713011D01*
G01X6424055Y-4713011D02*
G01X6422181Y-4714511D01*
G01X6422181Y-4714511D02*
G01X6420306Y-4717510D01*
G01X6420306Y-4717510D02*
G01X6420306Y-4725009D01*
G01X6420306Y-4725009D02*
G01X6422181Y-4728009D01*
G01X6422181Y-4728009D02*
G01X6424055Y-4729509D01*
G01X6424055Y-4729509D02*
G01X6427805Y-4731009D01*
G01X6427805Y-4731009D02*
G01X6437179Y-4731009D01*
G01X6437179Y-4731009D02*
G01X6440928Y-4729509D01*
G01X6440928Y-4729509D02*
G01X6442803Y-4728009D01*
G01X6442803Y-4728009D02*
G01X6444678Y-4725009D01*
G01X6444678Y-4725009D02*
G01X6444678Y-4717510D01*
G01X6444678Y-4717510D02*
G01X6442803Y-4714511D01*
G01X6442803Y-4714511D02*
G01X6440928Y-4713011D01*
G01X6049599Y-4984477D02*
G01X6030851Y-4973978D01*
G01X6049599Y-4966479D02*
G01X6010229Y-4966479D01*
G01X6010229Y-4966479D02*
G01X6010229Y-4978478D01*
G01X6010229Y-4978478D02*
G01X6012104Y-4981477D01*
G01X6012104Y-4981477D02*
G01X6013979Y-4982977D01*
G01X6013979Y-4982977D02*
G01X6017728Y-4984477D01*
G01X6017728Y-4984477D02*
G01X6023352Y-4984477D01*
G01X6023352Y-4984477D02*
G01X6027102Y-4982977D01*
G01X6027102Y-4982977D02*
G01X6028977Y-4981477D01*
G01X6028977Y-4981477D02*
G01X6030851Y-4978478D01*
G01X6030851Y-4978478D02*
G01X6030851Y-4966479D01*
G01X6049599Y-5014473D02*
G01X6049599Y-4996475D01*
G01X6049599Y-5005474D02*
G01X6010229Y-5005474D01*
G01X6010229Y-5005474D02*
G01X6015853Y-5002475D01*
G01X6015853Y-5002475D02*
G01X6019603Y-4999475D01*
G01X6019603Y-4999475D02*
G01X6021478Y-4996475D01*
G01X6010229Y-5024972D02*
G01X6010229Y-5045969D01*
G01X6010229Y-5045969D02*
G01X6049599Y-5032471D01*
G01X5957520Y-4478478D02*
G01X5957520Y-4467979D01*
G01X5978142Y-4467979D02*
G01X5938772Y-4467979D01*
G01X5938772Y-4467979D02*
G01X5938772Y-4482977D01*
G01X5957520Y-4505474D02*
G01X5959395Y-4509974D01*
G01X5959395Y-4509974D02*
G01X5961270Y-4511474D01*
G01X5961270Y-4511474D02*
G01X5965019Y-4512973D01*
G01X5965019Y-4512973D02*
G01X5970643Y-4512973D01*
G01X5970643Y-4512973D02*
G01X5974393Y-4511474D01*
G01X5974393Y-4511474D02*
G01X5976268Y-4509974D01*
G01X5976268Y-4509974D02*
G01X5978142Y-4506974D01*
G01X5978142Y-4506974D02*
G01X5978142Y-4494976D01*
G01X5978142Y-4494976D02*
G01X5938772Y-4494976D01*
G01X5938772Y-4494976D02*
G01X5938772Y-4505474D01*
G01X5938772Y-4505474D02*
G01X5940647Y-4508474D01*
G01X5940647Y-4508474D02*
G01X5942522Y-4509974D01*
G01X5942522Y-4509974D02*
G01X5946271Y-4511474D01*
G01X5946271Y-4511474D02*
G01X5950021Y-4511474D01*
G01X5950021Y-4511474D02*
G01X5953771Y-4509974D01*
G01X5953771Y-4509974D02*
G01X5955645Y-4508474D01*
G01X5955645Y-4508474D02*
G01X5957520Y-4505474D01*
G01X5957520Y-4505474D02*
G01X5957520Y-4494976D01*
G01X5978142Y-4542970D02*
G01X5978142Y-4524972D01*
G01X5978142Y-4533971D02*
G01X5938772Y-4533971D01*
G01X5938772Y-4533971D02*
G01X5944397Y-4530971D01*
G01X5944397Y-4530971D02*
G01X5948146Y-4527971D01*
G01X5948146Y-4527971D02*
G01X5950021Y-4524972D01*
G54D11*
G01X6129134Y-4182793D02*
G01X6129134Y-4240042D01*
G01X6200787Y-4182793D02*
G01X6200787Y-4240042D01*
G01X6129134Y-4476722D02*
G01X6129134Y-4532726D01*
G01X6200787Y-4476722D02*
G01X6200787Y-4532726D01*
G01X5991339Y-4240042D02*
G01X5991339Y-4182793D01*
G01X6062992Y-4240042D02*
G01X6062992Y-4182793D01*
G01X6129134Y-5045160D02*
G01X6129134Y-4987911D01*
G01X6200787Y-5045160D02*
G01X6200787Y-4987911D01*
G01X5991339Y-4712320D02*
G01X5991339Y-4769569D01*
G01X6062992Y-4712320D02*
G01X6062992Y-4769569D01*
G01X5853543Y-4239419D02*
G01X5853543Y-4183415D01*
G01X5925197Y-4239419D02*
G01X5925197Y-4183415D01*
G01X6660630Y-4476722D02*
G01X6660630Y-4532726D01*
G01X6732283Y-4476722D02*
G01X6732283Y-4532726D01*
G01X6130906Y-4768947D02*
G01X6130906Y-4712943D01*
G01X6202559Y-4768947D02*
G01X6202559Y-4712943D01*
G01X6424409Y-4476100D02*
G01X6424409Y-4533349D01*
G01X6496063Y-4476100D02*
G01X6496063Y-4533349D01*
G01X5729724Y-3851772D02*
G01X5729724Y-3693898D01*
G01X5808465Y-3851772D02*
G01X5729724Y-3851772D01*
G01X5808465Y-3851772D02*
G01X5808465Y-3693898D01*
G01X6542520Y-4476100D02*
G01X6542520Y-4533349D01*
G01X6614173Y-4476100D02*
G01X6614173Y-4533349D01*
G01X6262402Y-4602165D02*
G01X6271260Y-4602165D01*
G01X6262402Y-4730118D02*
G01X6262402Y-4602165D01*
G01X6262402Y-4730118D02*
G01X6271260Y-4730118D01*
G01X6390354Y-4602165D02*
G01X6381496Y-4602165D01*
G01X6390354Y-4730118D02*
G01X6381496Y-4730118D01*
G01X6390354Y-4730118D02*
G01X6390354Y-4602165D01*
G01X6394488Y-4758268D02*
G01X6381496Y-4748819D01*
G01X6381496Y-4748819D02*
G01X6394488Y-4739370D01*
G01X6394488Y-4739370D02*
G01X6394488Y-4758268D01*
G36*
G01X6394488Y-4758268D02*
G01X6381496Y-4748819D01*
G01X6394488Y-4739370D01*
G01X6394488Y-4758268D01*
G37*
G01X5993110Y-4834368D02*
G01X5993110Y-4891617D01*
G01X6064764Y-4834368D02*
G01X6064764Y-4891617D01*
G01X5991339Y-4471841D02*
G01X5991339Y-4537608D01*
G01X6062992Y-4471841D02*
G01X6062992Y-4537608D01*
M02*
