G04 This is an RS-274x file exported by *
G04 gerbv version  *
G04 More information is available about gerbv at *
G04 https://gerbv.github.io/ *
G04 --End of header info--*
%MOIN*%
%FSLAX36Y36*%
%IPPOS*%
G04 --Define apertures--*
%AMMACRO10*
4,1,4,0.023622,0.023622,-0.023622,0.023622,-0.023622,-0.023622,0.023622,-0.023622,0.023622,0.023622,0.000000*
1,1,0.019685,0.023622,0.023622*
1,1,0.019685,-0.023622,0.023622*
1,1,0.019685,-0.023622,-0.023622*
1,1,0.019685,0.023622,-0.023622*
20,1,0.019685,0.023622,0.023622,-0.023622,0.023622,0.000000*
20,1,0.019685,-0.023622,0.023622,-0.023622,-0.023622,0.000000*
20,1,0.019685,-0.023622,-0.023622,0.023622,-0.023622,0.000000*
20,1,0.019685,0.023622,-0.023622,0.023622,0.023622,0.000000*
%
%ADD10MACRO10*%
%ADD11O,0.0866X0.0669*%
%AMMACRO12*
4,1,4,0.029528,0.049213,-0.029528,0.049213,-0.029528,-0.049213,0.029528,-0.049213,0.029528,0.049213,0.000000*
1,1,0.019685,0.029528,0.049213*
1,1,0.019685,-0.029528,0.049213*
1,1,0.019685,-0.029528,-0.049213*
1,1,0.019685,0.029528,-0.049213*
20,1,0.019685,0.029528,0.049213,-0.029528,0.049213,0.000000*
20,1,0.019685,-0.029528,0.049213,-0.029528,-0.049213,0.000000*
20,1,0.019685,-0.029528,-0.049213,0.029528,-0.049213,0.000000*
20,1,0.019685,0.029528,-0.049213,0.029528,0.049213,0.000000*
%
%ADD12MACRO12*%
%ADD13O,0.0787X0.1181*%
%AMMACRO14*
4,1,4,-0.029173,-0.042953,0.029173,-0.042953,0.029173,0.042953,-0.029173,0.042953,-0.029173,-0.042953,0.000000*
1,1,0.016457,-0.029173,-0.042953*
1,1,0.016457,0.029173,-0.042953*
1,1,0.016457,0.029173,0.042953*
1,1,0.016457,-0.029173,0.042953*
20,1,0.016457,-0.029173,-0.042953,0.029173,-0.042953,0.000000*
20,1,0.016457,0.029173,-0.042953,0.029173,0.042953,0.000000*
20,1,0.016457,0.029173,0.042953,-0.029173,0.042953,0.000000*
20,1,0.016457,-0.029173,0.042953,-0.029173,-0.042953,0.000000*
%
%ADD14MACRO14*%
%ADD15O,0.0787X0.1102*%
%ADD16O,0.0551X0.0787*%
%AMMACRO17*
4,1,4,0.017717,-0.029528,0.017717,0.029528,-0.017717,0.029528,-0.017717,-0.029528,0.017717,-0.029528,0.000000*
1,1,0.019685,0.017717,-0.029528*
1,1,0.019685,0.017717,0.029528*
1,1,0.019685,-0.017717,0.029528*
1,1,0.019685,-0.017717,-0.029528*
20,1,0.019685,0.017717,-0.029528,0.017717,0.029528,0.000000*
20,1,0.019685,0.017717,0.029528,-0.017717,0.029528,0.000000*
20,1,0.019685,-0.017717,0.029528,-0.017717,-0.029528,0.000000*
20,1,0.019685,-0.017717,-0.029528,0.017717,-0.029528,0.000000*
%
%ADD17MACRO17*%
%AMMACRO18*
4,1,4,0.024606,-0.015748,0.024606,0.015748,-0.024606,0.015748,-0.024606,-0.015748,0.024606,-0.015748,0.000000*
1,1,0.019685,0.024606,-0.015748*
1,1,0.019685,0.024606,0.015748*
1,1,0.019685,-0.024606,0.015748*
1,1,0.019685,-0.024606,-0.015748*
20,1,0.019685,0.024606,-0.015748,0.024606,0.015748,0.000000*
20,1,0.019685,0.024606,0.015748,-0.024606,0.015748,0.000000*
20,1,0.019685,-0.024606,0.015748,-0.024606,-0.015748,0.000000*
20,1,0.019685,-0.024606,-0.015748,0.024606,-0.015748,0.000000*
%
%ADD18MACRO18*%
%AMMACRO19*
4,1,4,0.025591,-0.016240,0.025591,0.016240,-0.025591,0.016240,-0.025591,-0.016240,0.025591,-0.016240,0.000000*
1,1,0.019685,0.025591,-0.016240*
1,1,0.019685,0.025591,0.016240*
1,1,0.019685,-0.025591,0.016240*
1,1,0.019685,-0.025591,-0.016240*
20,1,0.019685,0.025591,-0.016240,0.025591,0.016240,0.000000*
20,1,0.019685,0.025591,0.016240,-0.025591,0.016240,0.000000*
20,1,0.019685,-0.025591,0.016240,-0.025591,-0.016240,0.000000*
20,1,0.019685,-0.025591,-0.016240,0.025591,-0.016240,0.000000*
%
%ADD19MACRO19*%
%AMMACRO20*
4,1,4,-0.011811,-0.011811,0.011811,-0.011811,0.011811,0.011811,-0.011811,0.011811,-0.011811,-0.011811,0.000000*
1,1,0.019685,-0.011811,-0.011811*
1,1,0.019685,0.011811,-0.011811*
1,1,0.019685,0.011811,0.011811*
1,1,0.019685,-0.011811,0.011811*
20,1,0.019685,-0.011811,-0.011811,0.011811,-0.011811,0.000000*
20,1,0.019685,0.011811,-0.011811,0.011811,0.011811,0.000000*
20,1,0.019685,0.011811,0.011811,-0.011811,0.011811,0.000000*
20,1,0.019685,-0.011811,0.011811,-0.011811,-0.011811,0.000000*
%
%ADD20MACRO20*%
%AMMACRO21*
4,1,4,-0.024606,0.015748,-0.024606,-0.015748,0.024606,-0.015748,0.024606,0.015748,-0.024606,0.015748,0.000000*
1,1,0.019685,-0.024606,0.015748*
1,1,0.019685,-0.024606,-0.015748*
1,1,0.019685,0.024606,-0.015748*
1,1,0.019685,0.024606,0.015748*
20,1,0.019685,-0.024606,0.015748,-0.024606,-0.015748,0.000000*
20,1,0.019685,-0.024606,-0.015748,0.024606,-0.015748,0.000000*
20,1,0.019685,0.024606,-0.015748,0.024606,0.015748,0.000000*
20,1,0.019685,0.024606,0.015748,-0.024606,0.015748,0.000000*
%
%ADD21MACRO21*%
%AMMACRO22*
4,1,4,0.025859,-0.035701,0.025859,0.035701,-0.025859,0.035701,-0.025859,-0.035701,0.025859,-0.035701,0.000000*
1,1,0.015211,0.025859,-0.035701*
1,1,0.015211,0.025859,0.035701*
1,1,0.015211,-0.025859,0.035701*
1,1,0.015211,-0.025859,-0.035701*
20,1,0.015211,0.025859,-0.035701,0.025859,0.035701,0.000000*
20,1,0.015211,0.025859,0.035701,-0.025859,0.035701,0.000000*
20,1,0.015211,-0.025859,0.035701,-0.025859,-0.035701,0.000000*
20,1,0.015211,-0.025859,-0.035701,0.025859,-0.035701,0.000000*
%
%ADD22MACRO22*%
%ADD23C,0.0787*%
%ADD24C,0.0866*%
%ADD25O,0.0669X0.0984*%
%ADD26R,0.0984X0.0394*%
%ADD27R,0.0394X0.0709*%
%AMMACRO28*
4,1,4,0.032480,0.005906,-0.032480,0.005906,-0.032480,-0.005906,0.032480,-0.005906,0.032480,0.005906,0.000000*
1,1,0.011811,0.032480,0.005906*
1,1,0.011811,-0.032480,0.005906*
1,1,0.011811,-0.032480,-0.005906*
1,1,0.011811,0.032480,-0.005906*
20,1,0.011811,0.032480,0.005906,-0.032480,0.005906,0.000000*
20,1,0.011811,-0.032480,0.005906,-0.032480,-0.005906,0.000000*
20,1,0.011811,-0.032480,-0.005906,0.032480,-0.005906,0.000000*
20,1,0.011811,0.032480,-0.005906,0.032480,0.005906,0.000000*
%
%ADD28MACRO28*%
%ADD29R,0.0118X0.0512*%
%AMMACRO30*
4,1,4,0.025591,0.033465,-0.025591,0.033465,-0.025591,-0.033465,0.025591,-0.033465,0.025591,0.033465,0.000000*
1,1,0.019685,0.025591,0.033465*
1,1,0.019685,-0.025591,0.033465*
1,1,0.019685,-0.025591,-0.033465*
1,1,0.019685,0.025591,-0.033465*
20,1,0.019685,0.025591,0.033465,-0.025591,0.033465,0.000000*
20,1,0.019685,-0.025591,0.033465,-0.025591,-0.033465,0.000000*
20,1,0.019685,-0.025591,-0.033465,0.025591,-0.033465,0.000000*
20,1,0.019685,0.025591,-0.033465,0.025591,0.033465,0.000000*
%
%ADD30MACRO30*%
%ADD31O,0.0827X0.0669*%
%AMMACRO32*
4,1,4,-0.023622,-0.023622,0.023622,-0.023622,0.023622,0.023622,-0.023622,0.023622,-0.023622,-0.023622,0.000000*
1,1,0.019685,-0.023622,-0.023622*
1,1,0.019685,0.023622,-0.023622*
1,1,0.019685,0.023622,0.023622*
1,1,0.019685,-0.023622,0.023622*
20,1,0.019685,-0.023622,-0.023622,0.023622,-0.023622,0.000000*
20,1,0.019685,0.023622,-0.023622,0.023622,0.023622,0.000000*
20,1,0.019685,0.023622,0.023622,-0.023622,0.023622,0.000000*
20,1,0.019685,-0.023622,0.023622,-0.023622,-0.023622,0.000000*
%
%ADD32MACRO32*%
%AMMACRO33*
4,1,4,-0.016240,-0.025591,0.016240,-0.025591,0.016240,0.025591,-0.016240,0.025591,-0.016240,-0.025591,0.000000*
1,1,0.019685,-0.016240,-0.025591*
1,1,0.019685,0.016240,-0.025591*
1,1,0.019685,0.016240,0.025591*
1,1,0.019685,-0.016240,0.025591*
20,1,0.019685,-0.016240,-0.025591,0.016240,-0.025591,0.000000*
20,1,0.019685,0.016240,-0.025591,0.016240,0.025591,0.000000*
20,1,0.019685,0.016240,0.025591,-0.016240,0.025591,0.000000*
20,1,0.019685,-0.016240,0.025591,-0.016240,-0.025591,0.000000*
%
%ADD33MACRO33*%
%AMMACRO34*
4,1,4,0.003937,-0.022146,0.003937,0.022146,-0.003937,0.022146,-0.003937,-0.022146,0.003937,-0.022146,0.000000*
1,1,0.007874,0.003937,-0.022146*
1,1,0.007874,0.003937,0.022146*
1,1,0.007874,-0.003937,0.022146*
1,1,0.007874,-0.003937,-0.022146*
20,1,0.007874,0.003937,-0.022146,0.003937,0.022146,0.000000*
20,1,0.007874,0.003937,0.022146,-0.003937,0.022146,0.000000*
20,1,0.007874,-0.003937,0.022146,-0.003937,-0.022146,0.000000*
20,1,0.007874,-0.003937,-0.022146,0.003937,-0.022146,0.000000*
%
%ADD34MACRO34*%
%AMMACRO35*
4,1,4,-0.014764,0.024606,-0.014764,-0.024606,0.014764,-0.024606,0.014764,0.024606,-0.014764,0.024606,0.000000*
1,1,0.029528,-0.014764,0.024606*
1,1,0.029528,-0.014764,-0.024606*
1,1,0.029528,0.014764,-0.024606*
1,1,0.029528,0.014764,0.024606*
20,1,0.029528,-0.014764,0.024606,-0.014764,-0.024606,0.000000*
20,1,0.029528,-0.014764,-0.024606,0.014764,-0.024606,0.000000*
20,1,0.029528,0.014764,-0.024606,0.014764,0.024606,0.000000*
20,1,0.029528,0.014764,0.024606,-0.014764,0.024606,0.000000*
%
%ADD35MACRO35*%
%AMMACRO36*
4,1,4,-0.055118,0.019685,-0.055118,-0.019685,0.055118,-0.019685,0.055118,0.019685,-0.055118,0.019685,0.000000*
1,1,0.039370,-0.055118,0.019685*
1,1,0.039370,-0.055118,-0.019685*
1,1,0.039370,0.055118,-0.019685*
1,1,0.039370,0.055118,0.019685*
20,1,0.039370,-0.055118,0.019685,-0.055118,-0.019685,0.000000*
20,1,0.039370,-0.055118,-0.019685,0.055118,-0.019685,0.000000*
20,1,0.039370,0.055118,-0.019685,0.055118,0.019685,0.000000*
20,1,0.039370,0.055118,0.019685,-0.055118,0.019685,0.000000*
%
%ADD36MACRO36*%
%AMMACRO37*
4,1,4,0.023130,0.005906,-0.023130,0.005906,-0.023130,-0.005906,0.023130,-0.005906,0.023130,0.005906,0.000000*
1,1,0.011811,0.023130,0.005906*
1,1,0.011811,-0.023130,0.005906*
1,1,0.011811,-0.023130,-0.005906*
1,1,0.011811,0.023130,-0.005906*
20,1,0.011811,0.023130,0.005906,-0.023130,0.005906,0.000000*
20,1,0.011811,-0.023130,0.005906,-0.023130,-0.005906,0.000000*
20,1,0.011811,-0.023130,-0.005906,0.023130,-0.005906,0.000000*
20,1,0.011811,0.023130,-0.005906,0.023130,0.005906,0.000000*
%
%ADD37MACRO37*%
%AMMACRO38*
4,1,4,-0.025591,0.016240,-0.025591,-0.016240,0.025591,-0.016240,0.025591,0.016240,-0.025591,0.016240,0.000000*
1,1,0.019685,-0.025591,0.016240*
1,1,0.019685,-0.025591,-0.016240*
1,1,0.019685,0.025591,-0.016240*
1,1,0.019685,0.025591,0.016240*
20,1,0.019685,-0.025591,0.016240,-0.025591,-0.016240,0.000000*
20,1,0.019685,-0.025591,-0.016240,0.025591,-0.016240,0.000000*
20,1,0.019685,0.025591,-0.016240,0.025591,0.016240,0.000000*
20,1,0.019685,0.025591,0.016240,-0.025591,0.016240,0.000000*
%
%ADD38MACRO38*%
%AMMACRO39*
4,1,4,-0.072835,0.029528,-0.072835,-0.029528,0.072835,-0.029528,0.072835,0.029528,-0.072835,0.029528,0.000000*
1,1,0.019685,-0.072835,0.029528*
1,1,0.019685,-0.072835,-0.029528*
1,1,0.019685,0.072835,-0.029528*
1,1,0.019685,0.072835,0.029528*
20,1,0.019685,-0.072835,0.029528,-0.072835,-0.029528,0.000000*
20,1,0.019685,-0.072835,-0.029528,0.072835,-0.029528,0.000000*
20,1,0.019685,0.072835,-0.029528,0.072835,0.029528,0.000000*
20,1,0.019685,0.072835,0.029528,-0.072835,0.029528,0.000000*
%
%ADD39MACRO39*%
%AMMACRO40*
4,1,4,0.015748,0.015748,-0.015748,0.015748,-0.015748,-0.015748,0.015748,-0.015748,0.015748,0.015748,0.000000*
1,1,0.031496,0.015748,0.015748*
1,1,0.031496,-0.015748,0.015748*
1,1,0.031496,-0.015748,-0.015748*
1,1,0.031496,0.015748,-0.015748*
20,1,0.031496,0.015748,0.015748,-0.015748,0.015748,0.000000*
20,1,0.031496,-0.015748,0.015748,-0.015748,-0.015748,0.000000*
20,1,0.031496,-0.015748,-0.015748,0.015748,-0.015748,0.000000*
20,1,0.031496,0.015748,-0.015748,0.015748,0.015748,0.000000*
%
%ADD40MACRO40*%
%ADD41C,0.0630*%
%AMMACRO42*
4,1,4,-0.024606,0.014764,-0.024606,-0.014764,0.024606,-0.014764,0.024606,0.014764,-0.024606,0.014764,0.000000*
1,1,0.019685,-0.024606,0.014764*
1,1,0.019685,-0.024606,-0.014764*
1,1,0.019685,0.024606,-0.014764*
1,1,0.019685,0.024606,0.014764*
20,1,0.019685,-0.024606,0.014764,-0.024606,-0.014764,0.000000*
20,1,0.019685,-0.024606,-0.014764,0.024606,-0.014764,0.000000*
20,1,0.019685,0.024606,-0.014764,0.024606,0.014764,0.000000*
20,1,0.019685,0.024606,0.014764,-0.024606,0.014764,0.000000*
%
%ADD42MACRO42*%
%AMMACRO43*
4,1,4,-0.006398,0.014272,-0.006398,-0.014272,0.006398,-0.014272,0.006398,0.014272,-0.006398,0.014272,0.000000*
1,1,0.012795,-0.006398,0.014272*
1,1,0.012795,-0.006398,-0.014272*
1,1,0.012795,0.006398,-0.014272*
1,1,0.012795,0.006398,0.014272*
20,1,0.012795,-0.006398,0.014272,-0.006398,-0.014272,0.000000*
20,1,0.012795,-0.006398,-0.014272,0.006398,-0.014272,0.000000*
20,1,0.012795,0.006398,-0.014272,0.006398,0.014272,0.000000*
20,1,0.012795,0.006398,0.014272,-0.006398,0.014272,0.000000*
%
%ADD43MACRO43*%
%ADD44R,0.0157X0.0551*%
%ADD45O,0.0413X0.0748*%
%ADD46R,0.0453X0.0571*%
%ADD47R,0.0689X0.0748*%
%AMMACRO48*
4,1,4,-0.015748,-0.024606,0.015748,-0.024606,0.015748,0.024606,-0.015748,0.024606,-0.015748,-0.024606,0.000000*
1,1,0.019685,-0.015748,-0.024606*
1,1,0.019685,0.015748,-0.024606*
1,1,0.019685,0.015748,0.024606*
1,1,0.019685,-0.015748,0.024606*
20,1,0.019685,-0.015748,-0.024606,0.015748,-0.024606,0.000000*
20,1,0.019685,0.015748,-0.024606,0.015748,0.024606,0.000000*
20,1,0.019685,0.015748,0.024606,-0.015748,0.024606,0.000000*
20,1,0.019685,-0.015748,0.024606,-0.015748,-0.024606,0.000000*
%
%ADD48MACRO48*%
%AMMACRO49*
4,1,4,0.005906,-0.034449,0.005906,0.034449,-0.005906,0.034449,-0.005906,-0.034449,0.005906,-0.034449,0.000000*
1,1,0.011811,0.005906,-0.034449*
1,1,0.011811,0.005906,0.034449*
1,1,0.011811,-0.005906,0.034449*
1,1,0.011811,-0.005906,-0.034449*
20,1,0.011811,0.005906,-0.034449,0.005906,0.034449,0.000000*
20,1,0.011811,0.005906,0.034449,-0.005906,0.034449,0.000000*
20,1,0.011811,-0.005906,0.034449,-0.005906,-0.034449,0.000000*
20,1,0.011811,-0.005906,-0.034449,0.005906,-0.034449,0.000000*
%
%ADD49MACRO49*%
%AMMACRO50*
4,1,4,-0.021654,-0.021654,0.021654,-0.021654,0.021654,0.021654,-0.021654,0.021654,-0.021654,-0.021654,0.000000*
1,1,0.019685,-0.021654,-0.021654*
1,1,0.019685,0.021654,-0.021654*
1,1,0.019685,0.021654,0.021654*
1,1,0.019685,-0.021654,0.021654*
20,1,0.019685,-0.021654,-0.021654,0.021654,-0.021654,0.000000*
20,1,0.019685,0.021654,-0.021654,0.021654,0.021654,0.000000*
20,1,0.019685,0.021654,0.021654,-0.021654,0.021654,0.000000*
20,1,0.019685,-0.021654,0.021654,-0.021654,-0.021654,0.000000*
%
%ADD50MACRO50*%
%AMMACRO51*
4,1,4,0.006398,-0.014272,0.006398,0.014272,-0.006398,0.014272,-0.006398,-0.014272,0.006398,-0.014272,0.000000*
1,1,0.012795,0.006398,-0.014272*
1,1,0.012795,0.006398,0.014272*
1,1,0.012795,-0.006398,0.014272*
1,1,0.012795,-0.006398,-0.014272*
20,1,0.012795,0.006398,-0.014272,0.006398,0.014272,0.000000*
20,1,0.012795,0.006398,0.014272,-0.006398,0.014272,0.000000*
20,1,0.012795,-0.006398,0.014272,-0.006398,-0.014272,0.000000*
20,1,0.012795,-0.006398,-0.014272,0.006398,-0.014272,0.000000*
%
%ADD51MACRO51*%
%AMMACRO52*
4,1,4,-0.024094,-0.024094,0.024094,-0.024094,0.024094,0.024094,-0.024094,0.024094,-0.024094,-0.024094,0.000000*
1,1,0.018740,-0.024094,-0.024094*
1,1,0.018740,0.024094,-0.024094*
1,1,0.018740,0.024094,0.024094*
1,1,0.018740,-0.024094,0.024094*
20,1,0.018740,-0.024094,-0.024094,0.024094,-0.024094,0.000000*
20,1,0.018740,0.024094,-0.024094,0.024094,0.024094,0.000000*
20,1,0.018740,0.024094,0.024094,-0.024094,0.024094,0.000000*
20,1,0.018740,-0.024094,0.024094,-0.024094,-0.024094,0.000000*
%
%ADD52MACRO52*%
%ADD53C,0.0709*%
%ADD54C,0.0472*%
%ADD55C,0.0354*%
%ADD56C,0.0394*%
%ADD57C,0.0197*%
%ADD58C,0.0118*%
%ADD59C,0.0079*%
G04 --Start main section--*
G54D10*
G01X5633858Y-2955118D03*
G54D11*
G01X5633858Y-2855118D03*
G01X5633858Y-2755118D03*
G54D16*
G01X6499606Y-4999016D03*
G01X6716142Y-4880906D03*
G01X6716142Y-4999016D03*
G01X6538976Y-4664370D03*
G54D17*
G01X6716142Y-4723425D03*
G54D18*
G01X5751575Y-3030315D03*
G01X5751575Y-2908268D03*
G54D19*
G01X6440551Y-3700098D03*
G01X6440551Y-3577067D03*
G54D18*
G01X5889370Y-3345276D03*
G01X5889370Y-3223228D03*
G54D20*
G01X6007874Y-2303150D03*
G01X6118110Y-2303150D03*
G54D21*
G01X6440551Y-2868898D03*
G01X6440551Y-2990945D03*
G54D26*
G01X6622047Y-3078740D03*
G01X6622047Y-3157480D03*
G01X6622047Y-3236220D03*
G01X6622047Y-3314961D03*
G01X6622047Y-3393701D03*
G01X6622047Y-3472441D03*
G01X6622047Y-3551181D03*
G01X6622047Y-3629921D03*
G54D27*
G01X6724409Y-3688976D03*
G01X6803150Y-3688976D03*
G01X6881890Y-3688976D03*
G01X6960630Y-3688976D03*
G01X7039370Y-3688976D03*
G01X7118110Y-3688976D03*
G54D26*
G01X7220472Y-3629921D03*
G01X7220472Y-3551181D03*
G01X7220472Y-3472441D03*
G01X7220472Y-3393701D03*
G01X7220472Y-3314961D03*
G01X7220472Y-3236220D03*
G01X7220472Y-3157480D03*
G01X7220472Y-3078740D03*
G54D28*
G01X6259055Y-2754528D03*
G01X6259055Y-2704528D03*
G01X6259055Y-2654528D03*
G01X6259055Y-2604528D03*
G01X6259055Y-2554528D03*
G01X6259055Y-2504528D03*
G01X6259055Y-2454528D03*
G01X6259055Y-2404528D03*
G01X6064173Y-2404528D03*
G01X6064173Y-2454528D03*
G01X6064173Y-2504528D03*
G01X6064173Y-2554528D03*
G01X6064173Y-2604528D03*
G01X6064173Y-2654528D03*
G01X6064173Y-2704528D03*
G01X6064173Y-2754528D03*
G54D10*
G01X5632874Y-4175197D03*
G54D31*
G01X5632874Y-4075197D03*
G54D32*
G01X7435827Y-3755118D03*
G54D31*
G01X7435827Y-3855118D03*
G01X7435827Y-3955118D03*
G01X7435827Y-4055118D03*
G54D34*
G01X6119685Y-2964862D03*
G01X6145276Y-2964862D03*
G01X6170866Y-2964862D03*
G01X6170866Y-2894980D03*
G01X6145276Y-2894980D03*
G01X6119685Y-2894980D03*
G54D37*
G01X6201870Y-4028740D03*
G01X6201870Y-3953937D03*
G01X6128051Y-3991339D03*
G54D18*
G01X6302756Y-3345276D03*
G01X6302756Y-3223228D03*
G01X6302756Y-4052362D03*
G01X6302756Y-3930315D03*
G54D21*
G01X7677165Y-3482283D03*
G01X7677165Y-3604331D03*
G54D39*
G01X5769094Y-3522638D03*
G01X5769094Y-3837598D03*
G54D21*
G01X6578346Y-3930315D03*
G01X6578346Y-4052362D03*
G01X6027165Y-3223228D03*
G01X6027165Y-3345276D03*
G54D18*
G01X5751575Y-3345276D03*
G01X5751575Y-3223228D03*
G54D19*
G01X5889370Y-2755217D03*
G01X5889370Y-2632185D03*
G54D18*
G01X7559055Y-3604331D03*
G01X7559055Y-3482283D03*
G01X6164961Y-3699606D03*
G01X6164961Y-3577559D03*
G54D21*
G01X6027165Y-3577559D03*
G01X6027165Y-3699606D03*
G54D38*
G01X6716142Y-3929823D03*
G01X6716142Y-4052854D03*
G54D21*
G01X5889370Y-2908268D03*
G01X5889370Y-3030315D03*
G54D19*
G01X5751575Y-2755217D03*
G01X5751575Y-2632185D03*
G54D18*
G01X6440551Y-3345276D03*
G01X6440551Y-3223228D03*
G54D44*
G01X6354331Y-2208661D03*
G01X6328740Y-2208661D03*
G01X6303150Y-2208661D03*
G01X6277559Y-2208661D03*
G01X6251969Y-2208661D03*
G54D45*
G01X6443898Y-2104331D03*
G54D46*
G01X6394488Y-2192126D03*
G54D47*
G01X6347441Y-2104331D03*
G01X6258858Y-2104331D03*
G54D46*
G01X6211811Y-2192126D03*
G54D45*
G01X6162402Y-2104331D03*
G54D18*
G01X6164961Y-3345276D03*
G01X6164961Y-3223228D03*
G54D21*
G01X6440551Y-3930315D03*
G01X6440551Y-4052362D03*
G54D32*
G01X7435827Y-2926772D03*
G54D31*
G01X7435827Y-3026772D03*
G01X7435827Y-3126772D03*
G01X7435827Y-3226772D03*
G01X7435827Y-3326772D03*
G54D19*
G01X6302756Y-3700098D03*
G01X6302756Y-3577067D03*
G54D49*
G01X6893504Y-4249803D03*
G01X6943504Y-4249803D03*
G01X6993504Y-4249803D03*
G01X7043504Y-4249803D03*
G01X7093504Y-4249803D03*
G01X7143504Y-4249803D03*
G01X7193504Y-4249803D03*
G01X7243504Y-4249803D03*
G01X7243504Y-3883661D03*
G01X7193504Y-3883661D03*
G01X7143504Y-3883661D03*
G01X7093504Y-3883661D03*
G01X7043504Y-3883661D03*
G01X6993504Y-3883661D03*
G01X6943504Y-3883661D03*
G01X6893504Y-3883661D03*
G54D18*
G01X6302756Y-2990945D03*
G01X6302756Y-2868898D03*
G54D19*
G01X6440551Y-2637106D03*
G01X6440551Y-2514075D03*
G54D55*
G01X6027165Y-4383661D03*
G01X6440551Y-2696161D03*
G01X6064173Y-2797835D03*
G01X6255906Y-3078740D03*
G01X6074803Y-3078740D03*
G01X7342520Y-3803150D03*
G01X7106299Y-3606299D03*
G01X7125984Y-3236220D03*
G01X6027165Y-3164173D03*
G01X6943504Y-4171063D03*
G01X7243504Y-4171063D03*
G01X5751575Y-2573130D03*
G01X6031496Y-5078740D03*
G01X5889370Y-3164173D03*
G01X6164961Y-4384154D03*
G01X6334646Y-5078740D03*
G01X6302756Y-3518012D03*
G01X6755512Y-4384154D03*
G01X5944882Y-4507874D03*
G01X6166732Y-4861516D03*
G01X5889370Y-2573130D03*
G01X6259055Y-2793898D03*
G01X6440551Y-3518012D03*
G01X6152756Y-2192126D03*
G01X6993504Y-4171063D03*
G01X6103346Y-2104331D03*
G01X6617717Y-4384646D03*
G01X7677165Y-3663386D03*
G01X6500000Y-4877953D03*
G54D54*
G01X7220472Y-3688976D03*
G54D55*
G01X5769094Y-3601378D03*
G01X6413386Y-4980315D03*
G01X6453543Y-2192126D03*
G01X6440551Y-2455020D03*
G01X6502953Y-2104331D03*
G01X6326378Y-4814961D03*
G01X5889370Y-2849213D03*
G01X6028937Y-4983071D03*
G01X6716142Y-4111909D03*
G01X6440551Y-3274409D03*
G54D54*
G01X6177165Y-2303150D03*
G01X6354331Y-2303150D03*
G54D55*
G01X7125984Y-3157480D03*
G01X6354331Y-3039370D03*
G01X5769094Y-3916339D03*
G01X6492126Y-3035433D03*
G01X7125984Y-3078740D03*
G01X6792126Y-3759843D03*
G01X6440551Y-4111417D03*
G01X6578346Y-4111417D03*
G01X6993504Y-3807087D03*
G01X6161024Y-3031791D03*
G01X6178740Y-2826772D03*
G01X6111811Y-3031791D03*
G01X6129528Y-2826772D03*
G01X6700787Y-3393701D03*
G01X6700787Y-3551181D03*
G01X6370079Y-3870079D03*
G01X6164961Y-3767717D03*
G01X7677165Y-3423228D03*
G01X7133858Y-3559055D03*
G01X7559055Y-3421260D03*
G01X7322835Y-3496063D03*
G01X6700787Y-3314961D03*
G01X7074803Y-3503937D03*
G01X7074803Y-3314961D03*
G54D57*
G01X6027165Y-4330709D02*
G01X6027165Y-4383661D01*
G01X7559055Y-3755118D02*
G01X7559055Y-3604331D01*
G01X6893504Y-4330709D02*
G01X7306807Y-4330709D01*
G01X5633858Y-2955118D02*
G01X5682397Y-2955118D01*
G01X5633858Y-3755906D02*
G01X6027165Y-3755906D01*
G54D58*
G01X6259055Y-2604528D02*
G01X6391649Y-2604528D01*
G54D57*
G01X6440551Y-3822835D02*
G01X6578346Y-3822835D01*
G01X6027165Y-4330709D02*
G01X5639624Y-3943167D01*
G01X5633858Y-3421260D02*
G01X6027165Y-3421260D01*
G01X6027165Y-3421260D02*
G01X6027165Y-3345276D01*
G54D58*
G01X6064173Y-2797835D02*
G01X6064173Y-2754528D01*
G54D57*
G01X6893504Y-4330709D02*
G01X6027165Y-4330709D01*
G01X7320726Y-4324943D02*
G01X7553290Y-4092380D01*
G01X5890059Y-2754528D02*
G01X5889370Y-2755217D01*
G01X5633858Y-3421260D02*
G01X5633858Y-3755906D01*
G54D58*
G01X6405569Y-2610293D02*
G01X6426616Y-2631341D01*
G54D57*
G01X6027165Y-3421260D02*
G01X6164961Y-3421260D01*
G01X6804289Y-3924057D02*
G01X6838919Y-3889427D01*
G01X6440551Y-3822835D02*
G01X6440551Y-3930315D01*
G01X7559055Y-3755118D02*
G01X7435827Y-3755118D01*
G01X6622047Y-3629921D02*
G01X6527839Y-3629921D01*
G01X6201870Y-3905512D02*
G01X6201870Y-3822835D01*
G01X6302756Y-3401575D02*
G01X6302756Y-3345276D01*
G01X6164961Y-3421260D02*
G01X6164961Y-3345276D01*
G01X6164961Y-3421260D02*
G01X6283071Y-3421260D01*
G01X6302756Y-3700098D02*
G01X6440551Y-3700098D01*
G54D58*
G01X6440551Y-2696161D02*
G01X6440551Y-2637106D01*
G54D57*
G01X5751575Y-2755217D02*
G01X5889370Y-2755217D01*
G01X6716142Y-3929823D02*
G01X6790370Y-3929823D01*
G01X6441354Y-3700098D02*
G01X6440551Y-3700098D01*
G01X6027165Y-3755906D02*
G01X6027165Y-3699606D01*
G01X6302756Y-3822835D02*
G01X6440551Y-3822835D01*
G01X5633858Y-3929248D02*
G01X5633858Y-3755906D01*
G01X6513919Y-3635687D02*
G01X6455273Y-3694333D01*
G01X6578346Y-3822835D02*
G01X6696457Y-3822835D01*
G54D58*
G01X6440536Y-2637106D02*
G01X6440551Y-2637106D01*
G54D57*
G01X6064173Y-2754528D02*
G01X5890059Y-2754528D01*
G01X6852839Y-3883661D02*
G01X6893504Y-3883661D01*
G01X5633858Y-3421260D02*
G01X5633858Y-2955118D01*
G01X6716142Y-3842520D02*
G01X6716142Y-3929823D01*
G01X6578346Y-3822835D02*
G01X6578346Y-3930315D01*
G01X6302756Y-3822835D02*
G01X6302756Y-3700098D01*
G01X6201870Y-3822835D02*
G01X6302756Y-3822835D01*
G01X5751575Y-2755217D02*
G01X5751575Y-2908268D01*
G54D58*
G01X6893504Y-4330709D02*
G01X6893504Y-4249803D01*
G54D57*
G01X5745555Y-2908268D02*
G01X5751575Y-2908268D01*
G01X6102248Y-3822835D02*
G01X6201870Y-3822835D01*
G01X7559055Y-4078460D02*
G01X7559055Y-3755118D01*
G01X5696317Y-2949352D02*
G01X5731636Y-2914033D01*
G01X6027165Y-3755906D02*
G01X6088329Y-3817069D01*
G54D58*
G01X6201870Y-3905512D02*
G01X6201870Y-3953937D01*
G01X6440536Y-2637106D02*
G75*
G02X6426616Y-2631341I0000000J0019685D01*
G54D57*
G01X7306807Y-4330709D02*
G75*
G03X7320726Y-4324943I0000000J0019685D01*
G01X6790370Y-3929823D02*
G75*
G03X6804289Y-3924057I0000000J0019685D01*
G01X5639624Y-3943167D02*
G75*
G02X5633858Y-3929248I0013919J0013919D01*
G01X5745555Y-2908268D02*
G75*
G03X5731636Y-2914033I0000000J-019685D01*
G01X7553290Y-4092380D02*
G75*
G03X7559055Y-4078460I-013919J0013919D01*
G01X6441354Y-3700098D02*
G75*
G03X6455274Y-3694333I0000000J0019685D01*
G01X6527839Y-3629921D02*
G75*
G03X6513919Y-3635687I0000000J-019685D01*
G01X6838919Y-3889427D02*
G75*
G02X6852839Y-3883662I0013919J-013919D01*
G01X5682397Y-2955118D02*
G75*
G03X5696317Y-2949353I0000000J0019685D01*
G01X6302756Y-3401575D02*
G75*
G02X6283071Y-3421260I-019685J0000000D01*
G01X6696457Y-3822835D02*
G75*
G02X6716142Y-3842520I0000000J-019685D01*
G01X6102248Y-3822835D02*
G75*
G02X6088329Y-3817069I0000000J0019685D01*
G54D58*
G01X6391649Y-2604528D02*
G75*
G02X6405569Y-2610293I0000000J-019685D01*
G01X6708661Y-3243815D02*
G01X6708661Y-3098425D01*
G01X6738329Y-3281636D02*
G01X6714427Y-3257734D01*
G01X6744094Y-3586614D02*
G01X6744094Y-3295555D01*
G54D57*
G01X7435713Y-3955118D02*
G01X7435827Y-3955118D01*
G01X7342520Y-3803150D02*
G01X7342520Y-3861925D01*
G54D58*
G01X6074803Y-3078740D02*
G01X6074803Y-2914665D01*
G01X6688976Y-3078740D02*
G01X6622047Y-3078740D01*
G01X6255906Y-3078740D02*
G01X6622047Y-3078740D01*
G01X6164961Y-3177839D02*
G01X6164961Y-3223228D01*
G01X6094488Y-2894980D02*
G01X6119685Y-2894980D01*
G01X7106299Y-3606299D02*
G01X6763780Y-3606299D01*
G54D57*
G01X7348285Y-3875844D02*
G01X7421793Y-3949353D01*
G54D58*
G01X6255906Y-3078740D02*
G01X6170726Y-3163919D01*
G01X6738329Y-3281636D02*
G75*
G02X6744094Y-3295555I-013919J-013919D01*
G01X6744094Y-3586614D02*
G75*
G03X6763780Y-3606299I0019685J0000000D01*
G01X6164961Y-3177839D02*
G75*
G02X6170726Y-3163919I0019685J0000000D01*
G01X6708661Y-3243815D02*
G75*
G03X6714427Y-3257734I0019685J0000000D01*
G01X6074803Y-2914665D02*
G75*
G02X6094488Y-2894980I0019685J0000000D01*
G01X6708661Y-3098425D02*
G75*
G03X6688976Y-3078740I-019685J0000000D01*
G54D57*
G01X7435713Y-3955118D02*
G75*
G02X7421793Y-3949353I0000000J0019685D01*
G01X7342520Y-3861925D02*
G75*
G03X7348285Y-3875844I0019685J0000000D01*
G54D58*
G01X7145669Y-3393701D02*
G01X7220472Y-3393701D01*
G01X6093561Y-3158408D02*
G01X6202896Y-3049073D01*
G01X7125984Y-3236220D02*
G01X7125984Y-3374016D01*
G01X6027165Y-3164173D02*
G01X6079641Y-3164173D01*
G01X6188976Y-2964862D02*
G01X6170866Y-2964862D01*
G01X6208661Y-3035153D02*
G01X6208661Y-2984547D01*
G01X6027165Y-3223228D02*
G01X6027165Y-3164173D01*
G01X6188976Y-2964862D02*
G75*
G02X6208661Y-2984547I0000000J-019685D01*
G01X6202896Y-3049073D02*
G75*
G03X6208661Y-3035153I-013919J0013919D01*
G01X6093561Y-3158408D02*
G75*
G02X6079641Y-3164173I-013919J0013919D01*
G01X7145669Y-3393701D02*
G75*
G02X7125984Y-3374016I0000000J0019685D01*
G01X5889370Y-3223228D02*
G01X5889370Y-3164173D01*
G54D57*
G01X6211811Y-2192126D02*
G01X6211811Y-2159532D01*
G01X6217577Y-2145612D02*
G01X6258858Y-2104331D01*
G01X6347441Y-2104331D02*
G01X6443898Y-2104331D01*
G54D58*
G01X6251969Y-2208661D02*
G01X6228346Y-2208661D01*
G01X5889370Y-2908268D02*
G01X5889370Y-2849213D01*
G54D57*
G01X6347441Y-2104331D02*
G01X6258858Y-2104331D01*
G54D58*
G01X6440551Y-3577067D02*
G01X6440551Y-3518012D01*
G01X7243504Y-4249803D02*
G01X7243504Y-4171063D01*
G54D57*
G01X6258858Y-2104331D02*
G01X6162402Y-2104331D01*
G01X6453543Y-2192126D02*
G01X6394488Y-2192126D01*
G54D58*
G01X6440551Y-2514075D02*
G01X6440551Y-2455020D01*
G01X6228346Y-2208661D02*
G01X6211811Y-2192126D01*
G01X6259055Y-2754528D02*
G01X6259055Y-2793898D01*
G54D57*
G01X6394488Y-2192126D02*
G01X6394488Y-2159532D01*
G01X5769094Y-3522638D02*
G01X5769094Y-3601378D01*
G54D58*
G01X6440551Y-3223228D02*
G01X6440551Y-3274409D01*
G54D57*
G01X6103346Y-2104331D02*
G01X6162402Y-2104331D01*
G54D58*
G01X6302756Y-3518012D02*
G01X6302756Y-3577067D01*
G54D57*
G01X6502953Y-2104331D02*
G01X6443898Y-2104331D01*
G54D58*
G01X6993504Y-4249803D02*
G01X6993504Y-4171063D01*
G01X7677165Y-3604331D02*
G01X7677165Y-3663386D01*
G54D57*
G01X6388723Y-2145612D02*
G01X6347441Y-2104331D01*
G01X7220472Y-3688976D02*
G01X7220472Y-3629921D01*
G01X6152756Y-2192126D02*
G01X6211811Y-2192126D01*
G01X5889370Y-2632185D02*
G01X5889370Y-2573130D01*
G01X5751575Y-2632185D02*
G01X5751575Y-2573130D01*
G54D58*
G01X6716142Y-4052854D02*
G01X6716142Y-4111909D01*
G01X6943504Y-4249803D02*
G01X6943504Y-4171063D01*
G54D57*
G01X6394488Y-2159532D02*
G75*
G03X6388723Y-2145612I-019685J0000000D01*
G01X6211811Y-2159532D02*
G75*
G02X6217577Y-2145612I0019685J0000000D01*
G01X6177165Y-2303150D02*
G01X6118110Y-2303150D01*
G54D58*
G01X6354331Y-2208661D02*
G01X6354331Y-2303150D01*
G01X6202305Y-2548762D02*
G01X6175057Y-2521514D01*
G01X6303150Y-2239878D02*
G01X6303150Y-2208661D01*
G01X6175057Y-2376124D02*
G01X6297384Y-2253797D01*
G01X6169291Y-2507594D02*
G01X6169291Y-2390044D01*
G01X6259055Y-2554528D02*
G01X6216225Y-2554528D01*
G01X6303150Y-2239878D02*
G75*
G02X6297384Y-2253797I-019685J0000000D01*
G01X6202305Y-2548762D02*
G75*
G03X6216225Y-2554527I0013919J0013919D01*
G01X6175057Y-2376124D02*
G75*
G03X6169292Y-2390044I0013919J-013919D01*
G01X6175057Y-2521514D02*
G75*
G02X6169292Y-2507594I0013919J0013919D01*
G01X6322975Y-2263640D02*
G01X6202616Y-2383998D01*
G01X6328740Y-2208661D02*
G01X6328740Y-2249720D01*
G01X6221343Y-2504528D02*
G01X6259055Y-2504528D01*
G01X6202616Y-2493955D02*
G01X6207423Y-2498762D01*
G01X6196850Y-2397918D02*
G01X6196850Y-2480035D01*
G01X6202616Y-2493955D02*
G75*
G02X6196851Y-2480035I0013919J0013919D01*
G01X6202616Y-2383998D02*
G75*
G03X6196851Y-2397918I0013919J-013919D01*
G01X6328740Y-2249720D02*
G75*
G02X6322975Y-2263640I-019685J0000000D01*
G01X6207423Y-2498762D02*
G75*
G03X6221343Y-2504527I0013919J0013919D01*
G01X6354331Y-3039370D02*
G01X6305906Y-2990945D01*
G01X6305906Y-2990945D02*
G01X6302756Y-2990945D01*
G01X7125984Y-3157480D02*
G01X7220472Y-3157480D01*
G01X6333522Y-2660293D02*
G01X6434786Y-2761557D01*
G01X6440551Y-2775477D02*
G01X6440551Y-2868898D01*
G01X6259055Y-2654528D02*
G01X6319602Y-2654528D01*
G01X6333522Y-2660293D02*
G75*
G03X6319602Y-2654528I-013919J-013919D01*
G01X6434786Y-2761557D02*
G75*
G02X6440551Y-2775477I-013919J-013919D01*
G01X6228626Y-3472441D02*
G01X6622047Y-3472441D01*
G01X6164961Y-3577559D02*
G01X6164961Y-3536107D01*
G01X6170726Y-3522187D02*
G01X6214707Y-3478207D01*
G01X6027165Y-3577559D02*
G01X6164961Y-3577559D01*
G01X6164961Y-3536107D02*
G75*
G02X6170726Y-3522187I0019685J0000000D01*
G01X6228626Y-3472441D02*
G75*
G03X6214707Y-3478206I0000000J-019685D01*
G01X6128051Y-3991339D02*
G01X5852248Y-3991339D01*
G54D57*
G01X5769094Y-3837598D02*
G01X5769094Y-3916339D01*
G54D58*
G01X5838329Y-3985573D02*
G01X5769094Y-3916339D01*
G01X5838329Y-3985573D02*
G75*
G03X5852248Y-3991338I0013919J0013919D01*
G01X6259055Y-2704528D02*
G01X6303150Y-2704528D01*
G01X6302756Y-2827445D02*
G01X6302756Y-2868898D01*
G01X6317069Y-2804978D02*
G01X6308521Y-2813526D01*
G01X6322835Y-2724213D02*
G01X6322835Y-2791059D01*
G01X6302756Y-2827445D02*
G75*
G02X6308521Y-2813526I0019685J0000000D01*
G01X6317069Y-2804978D02*
G75*
G03X6322834Y-2791059I-013919J0013919D01*
G01X6303150Y-2704528D02*
G75*
G02X6322835Y-2724213I0000000J-019685D01*
G01X6492126Y-3035433D02*
G01X6447638Y-2990945D01*
G01X7220472Y-3078740D02*
G01X7125984Y-3078740D01*
G01X6447638Y-2990945D02*
G01X6440551Y-2990945D01*
G01X6307366Y-3122047D02*
G01X6495783Y-3122047D01*
G01X5889370Y-3345276D02*
G01X5890665Y-3345276D01*
G01X6547524Y-3157480D02*
G01X6622047Y-3157480D01*
G01X6206553Y-3277699D02*
G01X6230455Y-3253797D01*
G01X6509703Y-3127813D02*
G01X6533604Y-3151715D01*
G01X5751575Y-3345276D02*
G01X5889370Y-3345276D01*
G01X6241986Y-3179274D02*
G01X6293447Y-3127813D01*
G01X5968784Y-3283465D02*
G01X6192634Y-3283465D01*
G01X6236220Y-3239878D02*
G01X6236220Y-3193193D01*
G01X5904585Y-3339510D02*
G01X5954864Y-3289230D01*
G01X6241986Y-3179274D02*
G75*
G03X6236221Y-3193193I0013919J-013919D01*
G01X6230455Y-3253797D02*
G75*
G03X6236220Y-3239878I-013919J0013919D01*
G01X6495783Y-3122047D02*
G75*
G02X6509703Y-3127813I0000000J-019685D01*
G01X5968784Y-3283465D02*
G75*
G03X5954864Y-3289230I0000000J-019685D01*
G01X5890665Y-3345276D02*
G75*
G03X5904585Y-3339510I0000000J0019685D01*
G01X6307366Y-3122047D02*
G75*
G03X6293447Y-3127813I0000000J-019685D01*
G01X6547524Y-3157480D02*
G75*
G02X6533604Y-3151715I0000000J0019685D01*
G01X6206553Y-3277699D02*
G75*
G02X6192634Y-3283464I-013919J0013919D01*
G01X6317970Y-3217463D02*
G01X6360376Y-3175057D01*
G01X6374296Y-3169291D02*
G01X6472161Y-3169291D01*
G01X6555398Y-3236220D02*
G01X6622047Y-3236220D01*
G01X6302756Y-3223228D02*
G01X6304051Y-3223228D01*
G01X6486081Y-3175057D02*
G01X6541479Y-3230455D01*
G01X6555398Y-3236220D02*
G75*
G02X6541478Y-3230455I0000000J0019685D01*
G01X6486081Y-3175057D02*
G75*
G03X6472161Y-3169292I-013919J-013919D01*
G01X6360376Y-3175057D02*
G75*
G02X6374296Y-3169292I0013919J-013919D01*
G01X6304051Y-3223228D02*
G75*
G03X6317970Y-3217463I0000000J0019685D01*
G01X7368250Y-3631750D02*
G01X7245923Y-3754077D01*
G01X7312852Y-3403403D02*
G01X7368250Y-3458801D01*
G01X7307087Y-3334646D02*
G01X7307087Y-3389484D01*
G01X7374016Y-3472721D02*
G01X7374016Y-3617830D01*
G01X6440551Y-4052362D02*
G01X6440551Y-4111417D01*
G01X6943504Y-3759843D02*
G01X6792126Y-3759843D01*
G01X7220472Y-3314961D02*
G01X7287402Y-3314961D01*
G01X6943504Y-3759843D02*
G01X6943504Y-3883661D01*
G01X7232004Y-3759843D02*
G01X6943504Y-3759843D01*
G01X7245923Y-3754077D02*
G75*
G02X7232004Y-3759842I-013919J0013919D01*
G01X7368250Y-3458801D02*
G75*
G02X7374016Y-3472721I-013919J-013919D01*
G01X7312852Y-3403403D02*
G75*
G02X7307087Y-3389484I0013919J0013919D01*
G01X7368250Y-3631750D02*
G75*
G03X7374016Y-3617830I-013919J0013919D01*
G01X7307087Y-3334646D02*
G75*
G03X7287402Y-3314961I-019685J0000000D01*
G01X6993504Y-3807087D02*
G01X7259563Y-3807087D01*
G01X7294996Y-3236220D02*
G01X7220472Y-3236220D01*
G01X7352502Y-3285573D02*
G01X7308915Y-3241986D01*
G01X7431242Y-3431242D02*
G01X7364033Y-3364033D01*
G01X7358268Y-3350114D02*
G01X7358268Y-3299492D01*
G01X7437008Y-3629641D02*
G01X7437008Y-3445162D01*
G01X6578346Y-4052362D02*
G01X6578346Y-4111417D01*
G01X7273482Y-3801321D02*
G01X7431242Y-3643561D01*
G01X6993504Y-3883661D02*
G01X6993504Y-3807087D01*
G01X7294996Y-3236220D02*
G75*
G02X7308915Y-3241986I0000000J-019685D01*
G01X7437008Y-3629641D02*
G75*
G02X7431242Y-3643561I-019685J0000000D01*
G01X7352502Y-3285573D02*
G75*
G02X7358268Y-3299492I-013919J-013919D01*
G01X7259563Y-3807087D02*
G75*
G03X7273482Y-3801321I0000000J0019685D01*
G01X7431242Y-3431242D02*
G75*
G02X7437008Y-3445162I-013919J-013919D01*
G01X7364033Y-3364033D02*
G75*
G02X7358268Y-3350114I0013919J0013919D01*
G01X6129978Y-2610293D02*
G01X6172975Y-2653290D01*
G01X6064173Y-2604528D02*
G01X6116059Y-2604528D01*
G01X6178740Y-2667209D02*
G01X6178740Y-2826772D01*
G54D59*
G01X6170866Y-2876378D02*
G01X6170866Y-2894980D01*
G01X6178740Y-2826772D02*
G01X6178740Y-2860350D01*
G01X6151041Y-3021809D02*
G01X6161024Y-3031791D01*
G01X6172975Y-2874270D02*
G01X6170866Y-2876378D01*
G01X6145276Y-2964862D02*
G01X6145276Y-3007889D01*
G01X6151041Y-3021809D02*
G75*
G02X6145276Y-3007889I0013919J0013919D01*
G01X6178740Y-2860350D02*
G75*
G02X6172975Y-2874270I-019685J0000000D01*
G54D58*
G01X6129978Y-2610293D02*
G75*
G03X6116059Y-2604528I-013919J-013919D01*
G01X6172975Y-2653290D02*
G75*
G02X6178740Y-2667209I-013919J-013919D01*
G54D59*
G01X6139510Y-2836754D02*
G01X6129528Y-2826772D01*
G54D58*
G01X6129528Y-2826772D02*
G01X6129528Y-2680988D01*
G54D59*
G01X6111811Y-3001067D02*
G01X6111811Y-3031791D01*
G54D58*
G01X6103067Y-2654528D02*
G01X6064173Y-2654528D01*
G54D59*
G01X6145276Y-2894980D02*
G01X6145276Y-2850674D01*
G01X6119685Y-2964862D02*
G01X6119685Y-2985039D01*
G54D58*
G01X6123762Y-2667069D02*
G01X6116986Y-2660293D01*
G54D59*
G01X6119685Y-2985039D02*
G01X6117577Y-2987148D01*
G54D58*
G01X6116986Y-2660293D02*
G75*
G03X6103067Y-2654528I-013919J-013919D01*
G54D59*
G01X6139510Y-2836754D02*
G75*
G02X6145275Y-2850674I-013919J-013919D01*
G01X6111811Y-3001067D02*
G75*
G02X6117576Y-2987148I0019685J0000000D01*
G54D58*
G01X6123762Y-2667069D02*
G75*
G02X6129527Y-2680988I-013919J-013919D01*
G01X6255906Y-3983972D02*
G01X6255906Y-3976658D01*
G01X6225057Y-4022975D02*
G01X6250140Y-3997892D01*
G01X6261671Y-3962738D02*
G01X6288329Y-3936081D01*
G01X6302248Y-3930315D02*
G01X6302756Y-3930315D01*
G01X6201870Y-4028740D02*
G01X6211138Y-4028740D01*
G01X6225057Y-4022975D02*
G75*
G02X6211138Y-4028740I-013919J0013919D01*
G01X6288329Y-3936081D02*
G75*
G02X6302248Y-3930315I0013919J-013919D01*
G01X6255906Y-3976658D02*
G75*
G02X6261671Y-3962738I0019685J0000000D01*
G01X6255906Y-3983972D02*
G75*
G02X6250140Y-3997892I-019685J0000000D01*
G54D57*
G01X5984252Y-2496063D02*
G01X5984252Y-2334925D01*
G01X5716815Y-2515748D02*
G01X5964567Y-2515748D01*
G01X5990018Y-2321006D02*
G01X6007874Y-2303150D01*
G01X5639624Y-2584786D02*
G01X5702896Y-2521514D01*
G01X5633858Y-2755118D02*
G01X5633858Y-2598705D01*
G01X5964567Y-2515748D02*
G75*
G03X5984252Y-2496063I0000000J0019685D01*
G01X5633858Y-2598705D02*
G75*
G02X5639624Y-2584785I0019685J0000000D01*
G01X5984252Y-2334925D02*
G75*
G02X5990017Y-2321006I0019685J0000000D01*
G01X5716815Y-2515748D02*
G75*
G03X5702896Y-2521514I0000000J-019685D01*
G54D58*
G01X6622047Y-3393701D02*
G01X6700787Y-3393701D01*
G01X6700787Y-3551181D02*
G01X6622047Y-3551181D01*
G01X7295555Y-4055118D02*
G01X7342520Y-4055118D01*
G01X6389764Y-3992126D02*
G01X7216256Y-3992126D01*
G01X6370079Y-3870079D02*
G01X6370079Y-3972441D01*
G01X6164961Y-3767717D02*
G01X6164961Y-3699606D01*
G54D57*
G01X7342520Y-4055118D02*
G01X7435827Y-4055118D01*
G54D58*
G01X7230175Y-3997892D02*
G01X7281636Y-4049353D01*
G01X7295555Y-4055118D02*
G75*
G02X7281636Y-4049353I0000000J0019685D01*
G01X7216256Y-3992126D02*
G75*
G02X7230175Y-3997891I0000000J-019685D01*
G01X6389764Y-3992126D02*
G75*
G02X6370079Y-3972441I0000000J0019685D01*
G01X7677165Y-3423228D02*
G01X7677165Y-3379217D01*
G54D57*
G01X7484252Y-2964567D02*
G01X7452222Y-2932537D01*
G01X7438303Y-2926772D02*
G01X7435827Y-2926772D01*
G54D58*
G01X7677165Y-3482283D02*
G01X7677165Y-3423228D01*
G01X7517856Y-2998171D02*
G01X7484252Y-2964567D01*
G01X7212598Y-3559055D02*
G01X7133858Y-3559055D01*
G01X7523622Y-3209366D02*
G01X7523622Y-3012091D01*
G01X7671400Y-3365297D02*
G01X7529388Y-3223285D01*
G01X7220472Y-3551181D02*
G01X7212598Y-3559055D01*
G01X7523622Y-3012091D02*
G75*
G03X7517857Y-2998171I-019685J0000000D01*
G54D57*
G01X7452222Y-2932537D02*
G75*
G03X7438303Y-2926772I-013919J-013919D01*
G54D58*
G01X7671400Y-3365297D02*
G75*
G02X7677165Y-3379217I-013919J-013919D01*
G01X7529388Y-3223285D02*
G75*
G02X7523622Y-3209366I0013919J0013919D01*
G01X7484252Y-3267717D02*
G01X7553290Y-3336754D01*
G01X7304978Y-3478207D02*
G01X7322835Y-3496063D01*
G54D57*
G01X7484252Y-3267717D02*
G01X7443307Y-3226772D01*
G54D58*
G01X7559055Y-3482283D02*
G01X7559055Y-3421260D01*
G01X7220472Y-3472441D02*
G01X7291059Y-3472441D01*
G54D57*
G01X7447441Y-3226772D02*
G01X7435827Y-3226772D01*
G54D58*
G01X7559055Y-3421260D02*
G01X7559055Y-3350674D01*
G54D57*
G01X7443307Y-3226772D02*
G01X7435827Y-3226772D01*
G54D58*
G01X7304978Y-3478207D02*
G75*
G03X7291059Y-3472441I-013919J-013919D01*
G01X7553290Y-3336754D02*
G75*
G02X7559055Y-3350674I-013919J-013919D01*
G01X6535573Y-3320726D02*
G01X6516789Y-3339510D01*
G01X6502870Y-3345276D02*
G01X6440551Y-3345276D01*
G01X7074803Y-3503937D02*
G01X7074803Y-3314961D01*
G01X6622047Y-3314961D02*
G01X6549492Y-3314961D01*
G01X6622047Y-3314961D02*
G01X6700787Y-3314961D01*
G01X6535573Y-3320726D02*
G75*
G02X6549492Y-3314961I0013919J-013919D01*
G01X6516789Y-3339510D02*
G75*
G02X6502870Y-3345275I-013919J0013919D01*
G01X6794996Y-4157480D02*
G01X6425477Y-4157480D01*
G01X7037738Y-4151912D02*
G01X7021514Y-4135687D01*
G01X6824943Y-4135687D02*
G01X6808915Y-4151715D01*
G01X7007594Y-4129921D02*
G01X6838862Y-4129921D01*
G01X6411557Y-4151715D02*
G01X6317970Y-4058128D01*
G01X6304051Y-4052362D02*
G01X6302756Y-4052362D01*
G01X7043504Y-4249803D02*
G01X7043504Y-4165831D01*
G01X7021514Y-4135687D02*
G75*
G03X7007594Y-4129921I-013919J-013919D01*
G01X6794996Y-4157480D02*
G75*
G03X6808915Y-4151715I0000000J0019685D01*
G01X6317970Y-4058128D02*
G75*
G03X6304051Y-4052362I-013919J-013919D01*
G01X6425477Y-4157480D02*
G75*
G02X6411557Y-4151715I0000000J0019685D01*
G01X6824943Y-4135687D02*
G75*
G02X6838862Y-4129921I0013919J-013919D01*
G01X7037738Y-4151912D02*
G75*
G02X7043504Y-4165831I-013919J-013919D01*
G01X5751575Y-3223228D02*
G01X5751575Y-3030315D01*
G01X5751575Y-3030315D02*
G01X5889370Y-3030315D01*
G54D56*
G36*
G01X5987811Y-4369290D02*
G01X5989958Y-4371437D01*
G01X5990744Y-4374370D01*
G01X5990631Y-4375514D01*
G01X5989927Y-4379054D01*
G01X5989744Y-4379976D01*
G01X5989744Y-4387347D01*
G01X5991182Y-4394577D01*
G01X5994003Y-4401387D01*
G01X5994003Y-4401387D01*
G01X5996733Y-4405473D01*
G01X5998098Y-4407516D01*
G01X6003311Y-4412728D01*
G01X6007369Y-4415440D01*
G01X6009440Y-4416824D01*
G01X6009440Y-4416824D01*
G01X6011434Y-4417650D01*
G01X6016250Y-4419645D01*
G01X6023480Y-4421083D01*
G01X6030851Y-4421083D01*
G01X6038081Y-4419645D01*
G01X6044891Y-4416824D01*
G01X6051020Y-4412728D01*
G01X6056232Y-4407516D01*
G01X6060328Y-4401387D01*
G01X6063149Y-4394577D01*
G01X6064587Y-4387347D01*
G01X6064587Y-4379976D01*
G01X6063699Y-4375514D01*
G01X6063898Y-4372484D01*
G01X6065585Y-4369960D01*
G01X6068308Y-4368617D01*
G01X6069453Y-4368504D01*
G01X6751200Y-4368504D01*
G01X6751966Y-4368554D01*
G01X6755912Y-4369074D01*
G01X6757391Y-4369470D01*
G01X6760711Y-4370844D01*
G01X6762037Y-4371609D01*
G01X6764888Y-4373796D01*
G01X6765971Y-4374878D01*
G01X6768159Y-4377728D01*
G01X6768925Y-4379054D01*
G01X6770301Y-4382373D01*
G01X6770698Y-4383852D01*
G01X6771219Y-4387798D01*
G01X6771270Y-4388563D01*
G01X6771414Y-4677815D01*
G01X6770630Y-4680748D01*
G01X6768484Y-4682896D01*
G01X6765551Y-4683684D01*
G01X6762617Y-4682899D01*
G01X6760555Y-4680897D01*
G01X6757193Y-4675447D01*
G01X6752309Y-4670563D01*
G01X6746430Y-4666936D01*
G01X6743152Y-4665850D01*
G01X6739874Y-4664764D01*
G01X6739199Y-4664695D01*
G01X6735827Y-4664350D01*
G01X6735827Y-4664350D01*
G01X6696457Y-4664350D01*
G01X6692410Y-4664764D01*
G01X6685853Y-4666936D01*
G01X6679974Y-4670563D01*
G01X6675090Y-4675447D01*
G01X6671464Y-4681325D01*
G01X6669291Y-4687882D01*
G01X6668878Y-4691929D01*
G01X6668878Y-4754921D01*
G01X6668878Y-4754922D01*
G01X6669291Y-4758968D01*
G01X6671464Y-4765525D01*
G01X6675090Y-4771404D01*
G01X6679974Y-4776288D01*
G01X6685853Y-4779914D01*
G01X6692410Y-4782087D01*
G01X6696456Y-4782500D01*
G01X6735827Y-4782500D01*
G01X6739874Y-4782087D01*
G01X6746430Y-4779914D01*
G01X6752309Y-4776288D01*
G01X6757193Y-4771404D01*
G01X6760601Y-4765879D01*
G01X6762809Y-4763796D01*
G01X6765764Y-4763095D01*
G01X6768673Y-4763966D01*
G01X6770757Y-4766175D01*
G01X6771460Y-4768956D01*
G01X6771500Y-4849480D01*
G01X6770715Y-4852414D01*
G01X6768569Y-4854562D01*
G01X6765637Y-4855349D01*
G01X6762703Y-4854565D01*
G01X6760555Y-4852419D01*
G01X6760055Y-4851296D01*
G01X6759943Y-4850951D01*
G01X6756565Y-4844323D01*
G01X6752193Y-4838304D01*
G01X6746932Y-4833044D01*
G01X6740913Y-4828671D01*
G01X6734285Y-4825293D01*
G01X6727209Y-4822994D01*
G01X6719861Y-4821831D01*
G01X6712422Y-4821831D01*
G01X6705074Y-4822994D01*
G01X6697999Y-4825293D01*
G01X6697999Y-4825294D01*
G01X6697998Y-4825294D01*
G01X6691370Y-4828671D01*
G01X6691370Y-4828671D01*
G01X6685352Y-4833043D01*
G01X6685351Y-4833044D01*
G01X6680091Y-4838304D01*
G01X6680091Y-4838305D01*
G01X6675718Y-4844323D01*
G01X6675718Y-4844323D01*
G01X6672341Y-4850951D01*
G01X6672341Y-4850951D01*
G01X6672341Y-4850951D01*
G01X6670042Y-4858027D01*
G01X6668878Y-4865375D01*
G01X6668878Y-4896436D01*
G01X6670042Y-4903784D01*
G01X6672341Y-4910860D01*
G01X6675718Y-4917488D01*
G01X6680091Y-4923507D01*
G01X6685351Y-4928767D01*
G01X6691370Y-4933140D01*
G01X6694498Y-4934734D01*
G01X6696755Y-4936766D01*
G01X6697693Y-4939654D01*
G01X6697062Y-4942624D01*
G01X6695030Y-4944880D01*
G01X6694498Y-4945187D01*
G01X6691370Y-4946781D01*
G01X6685352Y-4951154D01*
G01X6685351Y-4951154D01*
G01X6680091Y-4956414D01*
G01X6680091Y-4956415D01*
G01X6675718Y-4962433D01*
G01X6675718Y-4962433D01*
G01X6672341Y-4969061D01*
G01X6672341Y-4969062D01*
G01X6672341Y-4969062D01*
G01X6670042Y-4976137D01*
G01X6668878Y-4983485D01*
G01X6668878Y-5014546D01*
G01X6670042Y-5021894D01*
G01X6672341Y-5028970D01*
G01X6675718Y-5035598D01*
G01X6680091Y-5041617D01*
G01X6685351Y-5046878D01*
G01X6691370Y-5051250D01*
G01X6697999Y-5054628D01*
G01X6705074Y-5056927D01*
G01X6712422Y-5058091D01*
G01X6712422Y-5058091D01*
G01X6719861Y-5058091D01*
G01X6719861Y-5058091D01*
G01X6727209Y-5056927D01*
G01X6734285Y-5054628D01*
G01X6740913Y-5051250D01*
G01X6746932Y-5046878D01*
G01X6752193Y-5041617D01*
G01X6756565Y-5035598D01*
G01X6759943Y-5028970D01*
G01X6760145Y-5028348D01*
G01X6761798Y-5025801D01*
G01X6764504Y-5024423D01*
G01X6767536Y-5024582D01*
G01X6770083Y-5026235D01*
G01X6771462Y-5028941D01*
G01X6771590Y-5030158D01*
G01X6771634Y-5118061D01*
G01X6771634Y-5131909D01*
G01X6770848Y-5134843D01*
G01X6768701Y-5136990D01*
G01X6765768Y-5137776D01*
G01X5950768Y-5137776D01*
G01X5947835Y-5136990D01*
G01X5945687Y-5134843D01*
G01X5944902Y-5131909D01*
G01X5944902Y-4983485D01*
G01X6452343Y-4983485D01*
G01X6452343Y-5014546D01*
G01X6453506Y-5021894D01*
G01X6455805Y-5028970D01*
G01X6459183Y-5035598D01*
G01X6463556Y-5041617D01*
G01X6468816Y-5046878D01*
G01X6474835Y-5051250D01*
G01X6481463Y-5054628D01*
G01X6488539Y-5056927D01*
G01X6495887Y-5058091D01*
G01X6495887Y-5058091D01*
G01X6503326Y-5058091D01*
G01X6503326Y-5058091D01*
G01X6510674Y-5056927D01*
G01X6517749Y-5054628D01*
G01X6524378Y-5051250D01*
G01X6530397Y-5046878D01*
G01X6535657Y-5041617D01*
G01X6540030Y-5035598D01*
G01X6543407Y-5028970D01*
G01X6545706Y-5021894D01*
G01X6546870Y-5014546D01*
G01X6546870Y-4983485D01*
G01X6545706Y-4976137D01*
G01X6543407Y-4969062D01*
G01X6540030Y-4962433D01*
G01X6535657Y-4956414D01*
G01X6530397Y-4951154D01*
G01X6524651Y-4946979D01*
G01X6524378Y-4946781D01*
G01X6519973Y-4944537D01*
G01X6592106Y-4944537D01*
G01X6592106Y-4951133D01*
G01X6593393Y-4957602D01*
G01X6595917Y-4963695D01*
G01X6595917Y-4963696D01*
G01X6599503Y-4969061D01*
G01X6599582Y-4969180D01*
G01X6604246Y-4973844D01*
G01X6604246Y-4973844D01*
G01X6609729Y-4977508D01*
G01X6609730Y-4977508D01*
G01X6609730Y-4977508D01*
G01X6609730Y-4977508D01*
G01X6609730Y-4977508D01*
G01X6611515Y-4978247D01*
G01X6615824Y-4980032D01*
G01X6622293Y-4981319D01*
G01X6628888Y-4981319D01*
G01X6635358Y-4980032D01*
G01X6641451Y-4977508D01*
G01X6646936Y-4973844D01*
G01X6651599Y-4969180D01*
G01X6655264Y-4963695D01*
G01X6657788Y-4957602D01*
G01X6659075Y-4951133D01*
G01X6659075Y-4944537D01*
G01X6657788Y-4938068D01*
G01X6655264Y-4931974D01*
G01X6651599Y-4926490D01*
G01X6646936Y-4921826D01*
G01X6646935Y-4921826D01*
G01X6641452Y-4918161D01*
G01X6641451Y-4918161D01*
G01X6636620Y-4916160D01*
G01X6635358Y-4915637D01*
G01X6635357Y-4915637D01*
G01X6635357Y-4915637D01*
G01X6628888Y-4914350D01*
G01X6622293Y-4914350D01*
G01X6615824Y-4915637D01*
G01X6609730Y-4918161D01*
G01X6609729Y-4918161D01*
G01X6604246Y-4921826D01*
G01X6604245Y-4921826D01*
G01X6599582Y-4926490D01*
G01X6599582Y-4926490D01*
G01X6595917Y-4931974D01*
G01X6595917Y-4931974D01*
G01X6593393Y-4938068D01*
G01X6592106Y-4944537D01*
G01X6519973Y-4944537D01*
G01X6517750Y-4943404D01*
G01X6517750Y-4943404D01*
G01X6517749Y-4943404D01*
G01X6510674Y-4941105D01*
G01X6503326Y-4939941D01*
G01X6495887Y-4939941D01*
G01X6488539Y-4941105D01*
G01X6481463Y-4943404D01*
G01X6481463Y-4943404D01*
G01X6481463Y-4943404D01*
G01X6474835Y-4946781D01*
G01X6474835Y-4946781D01*
G01X6468816Y-4951154D01*
G01X6468816Y-4951154D01*
G01X6463556Y-4956414D01*
G01X6463555Y-4956415D01*
G01X6459183Y-4962433D01*
G01X6459183Y-4962433D01*
G01X6455805Y-4969061D01*
G01X6455805Y-4969062D01*
G01X6455805Y-4969062D01*
G01X6453506Y-4976137D01*
G01X6452343Y-4983485D01*
G01X5944902Y-4983485D01*
G01X5944902Y-4721815D01*
G01X5944902Y-4721815D01*
G01X5944410Y-4719982D01*
G01X5943559Y-4716804D01*
G01X5940965Y-4712310D01*
G01X5937296Y-4708642D01*
G01X5937296Y-4708642D01*
G01X5937296Y-4708642D01*
G01X5934402Y-4706971D01*
G01X5932803Y-4706048D01*
G01X5930090Y-4705321D01*
G01X5929545Y-4705175D01*
G01X5926915Y-4703656D01*
G01X5925397Y-4701027D01*
G01X5925197Y-4699508D01*
G01X5925197Y-4648839D01*
G01X6491713Y-4648839D01*
G01X6491713Y-4679901D01*
G01X6492876Y-4687249D01*
G01X6495175Y-4694324D01*
G01X6498553Y-4700953D01*
G01X6502926Y-4706971D01*
G01X6508186Y-4712232D01*
G01X6514205Y-4716605D01*
G01X6520833Y-4719982D01*
G01X6527909Y-4722281D01*
G01X6535257Y-4723445D01*
G01X6535257Y-4723445D01*
G01X6542696Y-4723445D01*
G01X6542696Y-4723445D01*
G01X6550044Y-4722281D01*
G01X6557119Y-4719982D01*
G01X6563748Y-4716605D01*
G01X6569767Y-4712232D01*
G01X6575027Y-4706971D01*
G01X6579400Y-4700953D01*
G01X6582777Y-4694324D01*
G01X6584772Y-4688184D01*
G01X6586426Y-4685638D01*
G01X6589132Y-4684259D01*
G01X6592164Y-4684418D01*
G01X6594711Y-4686072D01*
G01X6595771Y-4687752D01*
G01X6595917Y-4688105D01*
G01X6595917Y-4688105D01*
G01X6599582Y-4693589D01*
G01X6599582Y-4693589D01*
G01X6604246Y-4698253D01*
G01X6604246Y-4698253D01*
G01X6609729Y-4701917D01*
G01X6609730Y-4701917D01*
G01X6609730Y-4701917D01*
G01X6609730Y-4701917D01*
G01X6609730Y-4701918D01*
G01X6611515Y-4702657D01*
G01X6615824Y-4704442D01*
G01X6622293Y-4705728D01*
G01X6628888Y-4705728D01*
G01X6635358Y-4704442D01*
G01X6641451Y-4701917D01*
G01X6646936Y-4698253D01*
G01X6651599Y-4693589D01*
G01X6655264Y-4688105D01*
G01X6657788Y-4682011D01*
G01X6659075Y-4675542D01*
G01X6659075Y-4668946D01*
G01X6657788Y-4662477D01*
G01X6655432Y-4656789D01*
G01X6655264Y-4656384D01*
G01X6655264Y-4656383D01*
G01X6651600Y-4650899D01*
G01X6651599Y-4650899D01*
G01X6646936Y-4646235D01*
G01X6646935Y-4646235D01*
G01X6641452Y-4642571D01*
G01X6641451Y-4642571D01*
G01X6636620Y-4640569D01*
G01X6635358Y-4640047D01*
G01X6635357Y-4640047D01*
G01X6635357Y-4640047D01*
G01X6628888Y-4638760D01*
G01X6622293Y-4638760D01*
G01X6615824Y-4640047D01*
G01X6609730Y-4642571D01*
G01X6609729Y-4642571D01*
G01X6604246Y-4646235D01*
G01X6604245Y-4646235D01*
G01X6599582Y-4650899D01*
G01X6599582Y-4650899D01*
G01X6596984Y-4654787D01*
G01X6594701Y-4656789D01*
G01X6591723Y-4657382D01*
G01X6588847Y-4656405D01*
G01X6586845Y-4654122D01*
G01X6586240Y-4651528D01*
G01X6586240Y-4648839D01*
G01X6586240Y-4648839D01*
G01X6585076Y-4641491D01*
G01X6582777Y-4634416D01*
G01X6579400Y-4627787D01*
G01X6575027Y-4621769D01*
G01X6569767Y-4616508D01*
G01X6563748Y-4612135D01*
G01X6557119Y-4608758D01*
G01X6550044Y-4606459D01*
G01X6542696Y-4605295D01*
G01X6535257Y-4605295D01*
G01X6527909Y-4606459D01*
G01X6520833Y-4608758D01*
G01X6520833Y-4608758D01*
G01X6520833Y-4608758D01*
G01X6514205Y-4612135D01*
G01X6514205Y-4612135D01*
G01X6508186Y-4616508D01*
G01X6508186Y-4616508D01*
G01X6502926Y-4621769D01*
G01X6502925Y-4621769D01*
G01X6498553Y-4627787D01*
G01X6498553Y-4627788D01*
G01X6495176Y-4634416D01*
G01X6495175Y-4634416D01*
G01X6495175Y-4634416D01*
G01X6492876Y-4641491D01*
G01X6491713Y-4648839D01*
G01X5925197Y-4648839D01*
G01X5925197Y-4388573D01*
G01X5925247Y-4387808D01*
G01X5925308Y-4387347D01*
G01X5925767Y-4383860D01*
G01X5926163Y-4382381D01*
G01X5927539Y-4379060D01*
G01X5928304Y-4377734D01*
G01X5930493Y-4374882D01*
G01X5931575Y-4373800D01*
G01X5934427Y-4371611D01*
G01X5935753Y-4370846D01*
G01X5939074Y-4369470D01*
G01X5940553Y-4369074D01*
G01X5944501Y-4368554D01*
G01X5945266Y-4368504D01*
G01X5984878Y-4368504D01*
G01X5987811Y-4369290D01*
G37*
M02*
