M48
INCH,TZ
T10C0.018
T11C0.020
T12C0.024
T13C0.024
T14C0.031
T15C0.039
T16C0.047
T17C0.055
%
T10
X061624Y-21201G85X061624Y-20886
X064439Y-20886G85X064439Y-21201
T11
X057516Y-25731
X057691Y-36014
X057691Y-39163
X058894Y-25731
X058894Y-28492
X058894Y-31642
X059449Y-45079
X060272Y-31642
X060272Y-43837
X060289Y-49831
X060315Y-50787
X060642Y-27978
X060748Y-30787
X061033Y-21043
X061118Y-30318
X061295Y-28268
X061528Y-21921
X061610Y-30318
X061650Y-37677
X061650Y-43842
X061667Y-48615
X061787Y-28268
X062559Y-30787
X062591Y-27939
X063028Y-35180
X063264Y-48150
X063346Y-50787
X063543Y-30394
X063701Y-38701
X064134Y-49803
X064406Y-24550
X064406Y-26962
X064406Y-32744
X064406Y-35180
X064406Y-41114
X064535Y-21921
X064921Y-30354
X065000Y-48780
X065030Y-21043
X065783Y-41114
X066177Y-43846
X067008Y-33150
X067008Y-33937
X067008Y-35512
X067161Y-41119
X067555Y-43842
X067921Y-37598
X069435Y-41711
X069935Y-38071
X069935Y-41711
X070748Y-33150
X070748Y-35039
X071063Y-36063
X071260Y-30787
X071260Y-31575
X071260Y-32362
X071339Y-35591
X072435Y-41711
X073228Y-34961
X073425Y-38031
X075591Y-34213
X076772Y-34232
X076772Y-36634
T12
X061772Y-23031
X063543Y-23031
X072205Y-36890
T13
X064996Y-50108G85X064996Y-49872
X065390Y-46762G85X065390Y-46526
X067161Y-47352G85X067161Y-47116
X067161Y-48927G85X067161Y-48691
X067161Y-50108G85X067161Y-49872
T14
T15
X056329Y-40752
X056329Y-41752
X056339Y-27551
X056339Y-28551
X056339Y-29551
X074358Y-29268
X074358Y-30268
X074358Y-31268
X074358Y-32268
X074358Y-33268
X074358Y-37551
X074358Y-38551
X074358Y-39551
X074358Y-40551
T16
T17
M30

