G04 This is an RS-274x file exported by *
G04 gerbv version  *
G04 More information is available about gerbv at *
G04 https://gerbv.github.io/ *
G04 --End of header info--*
%MOIN*%
%FSLAX36Y36*%
%IPPOS*%
G04 --Define apertures--*
%AMMACRO10*
4,1,4,0.023622,0.023622,-0.023622,0.023622,-0.023622,-0.023622,0.023622,-0.023622,0.023622,0.023622,0.000000*
1,1,0.019685,0.023622,0.023622*
1,1,0.019685,-0.023622,0.023622*
1,1,0.019685,-0.023622,-0.023622*
1,1,0.019685,0.023622,-0.023622*
20,1,0.019685,0.023622,0.023622,-0.023622,0.023622,0.000000*
20,1,0.019685,-0.023622,0.023622,-0.023622,-0.023622,0.000000*
20,1,0.019685,-0.023622,-0.023622,0.023622,-0.023622,0.000000*
20,1,0.019685,0.023622,-0.023622,0.023622,0.023622,0.000000*
%
%ADD10MACRO10*%
%ADD11O,0.0866X0.0669*%
%AMMACRO12*
4,1,4,0.029528,0.049213,-0.029528,0.049213,-0.029528,-0.049213,0.029528,-0.049213,0.029528,0.049213,0.000000*
1,1,0.019685,0.029528,0.049213*
1,1,0.019685,-0.029528,0.049213*
1,1,0.019685,-0.029528,-0.049213*
1,1,0.019685,0.029528,-0.049213*
20,1,0.019685,0.029528,0.049213,-0.029528,0.049213,0.000000*
20,1,0.019685,-0.029528,0.049213,-0.029528,-0.049213,0.000000*
20,1,0.019685,-0.029528,-0.049213,0.029528,-0.049213,0.000000*
20,1,0.019685,0.029528,-0.049213,0.029528,0.049213,0.000000*
%
%ADD12MACRO12*%
%ADD13O,0.0787X0.1181*%
%AMMACRO14*
4,1,4,-0.029173,-0.042953,0.029173,-0.042953,0.029173,0.042953,-0.029173,0.042953,-0.029173,-0.042953,0.000000*
1,1,0.016457,-0.029173,-0.042953*
1,1,0.016457,0.029173,-0.042953*
1,1,0.016457,0.029173,0.042953*
1,1,0.016457,-0.029173,0.042953*
20,1,0.016457,-0.029173,-0.042953,0.029173,-0.042953,0.000000*
20,1,0.016457,0.029173,-0.042953,0.029173,0.042953,0.000000*
20,1,0.016457,0.029173,0.042953,-0.029173,0.042953,0.000000*
20,1,0.016457,-0.029173,0.042953,-0.029173,-0.042953,0.000000*
%
%ADD14MACRO14*%
%ADD15O,0.0787X0.1102*%
%ADD16O,0.0551X0.0787*%
%AMMACRO17*
4,1,4,0.017717,-0.029528,0.017717,0.029528,-0.017717,0.029528,-0.017717,-0.029528,0.017717,-0.029528,0.000000*
1,1,0.019685,0.017717,-0.029528*
1,1,0.019685,0.017717,0.029528*
1,1,0.019685,-0.017717,0.029528*
1,1,0.019685,-0.017717,-0.029528*
20,1,0.019685,0.017717,-0.029528,0.017717,0.029528,0.000000*
20,1,0.019685,0.017717,0.029528,-0.017717,0.029528,0.000000*
20,1,0.019685,-0.017717,0.029528,-0.017717,-0.029528,0.000000*
20,1,0.019685,-0.017717,-0.029528,0.017717,-0.029528,0.000000*
%
%ADD17MACRO17*%
%AMMACRO18*
4,1,4,0.025859,-0.035701,0.025859,0.035701,-0.025859,0.035701,-0.025859,-0.035701,0.025859,-0.035701,0.000000*
1,1,0.015211,0.025859,-0.035701*
1,1,0.015211,0.025859,0.035701*
1,1,0.015211,-0.025859,0.035701*
1,1,0.015211,-0.025859,-0.035701*
20,1,0.015211,0.025859,-0.035701,0.025859,0.035701,0.000000*
20,1,0.015211,0.025859,0.035701,-0.025859,0.035701,0.000000*
20,1,0.015211,-0.025859,0.035701,-0.025859,-0.035701,0.000000*
20,1,0.015211,-0.025859,-0.035701,0.025859,-0.035701,0.000000*
%
%ADD18MACRO18*%
%ADD19C,0.0787*%
%ADD20C,0.0866*%
%ADD21O,0.0669X0.0984*%
%ADD22O,0.0827X0.0669*%
%AMMACRO23*
4,1,4,-0.023622,-0.023622,0.023622,-0.023622,0.023622,0.023622,-0.023622,0.023622,-0.023622,-0.023622,0.000000*
1,1,0.019685,-0.023622,-0.023622*
1,1,0.019685,0.023622,-0.023622*
1,1,0.019685,0.023622,0.023622*
1,1,0.019685,-0.023622,0.023622*
20,1,0.019685,-0.023622,-0.023622,0.023622,-0.023622,0.000000*
20,1,0.019685,0.023622,-0.023622,0.023622,0.023622,0.000000*
20,1,0.019685,0.023622,0.023622,-0.023622,0.023622,0.000000*
20,1,0.019685,-0.023622,0.023622,-0.023622,-0.023622,0.000000*
%
%ADD23MACRO23*%
%AMMACRO24*
4,1,4,0.015748,0.015748,-0.015748,0.015748,-0.015748,-0.015748,0.015748,-0.015748,0.015748,0.015748,0.000000*
1,1,0.031496,0.015748,0.015748*
1,1,0.031496,-0.015748,0.015748*
1,1,0.031496,-0.015748,-0.015748*
1,1,0.031496,0.015748,-0.015748*
20,1,0.031496,0.015748,0.015748,-0.015748,0.015748,0.000000*
20,1,0.031496,-0.015748,0.015748,-0.015748,-0.015748,0.000000*
20,1,0.031496,-0.015748,-0.015748,0.015748,-0.015748,0.000000*
20,1,0.031496,0.015748,-0.015748,0.015748,0.015748,0.000000*
%
%ADD24MACRO24*%
%ADD25C,0.0630*%
%ADD26O,0.0413X0.0748*%
%AMMACRO27*
4,1,4,-0.021654,-0.021654,0.021654,-0.021654,0.021654,0.021654,-0.021654,0.021654,-0.021654,-0.021654,0.000000*
1,1,0.019685,-0.021654,-0.021654*
1,1,0.019685,0.021654,-0.021654*
1,1,0.019685,0.021654,0.021654*
1,1,0.019685,-0.021654,0.021654*
20,1,0.019685,-0.021654,-0.021654,0.021654,-0.021654,0.000000*
20,1,0.019685,0.021654,-0.021654,0.021654,0.021654,0.000000*
20,1,0.019685,0.021654,0.021654,-0.021654,0.021654,0.000000*
20,1,0.019685,-0.021654,0.021654,-0.021654,-0.021654,0.000000*
%
%ADD27MACRO27*%
%AMMACRO28*
4,1,4,-0.024606,0.015748,-0.024606,-0.015748,0.024606,-0.015748,0.024606,0.015748,-0.024606,0.015748,0.000000*
1,1,0.019685,-0.024606,0.015748*
1,1,0.019685,-0.024606,-0.015748*
1,1,0.019685,0.024606,-0.015748*
1,1,0.019685,0.024606,0.015748*
20,1,0.019685,-0.024606,0.015748,-0.024606,-0.015748,0.000000*
20,1,0.019685,-0.024606,-0.015748,0.024606,-0.015748,0.000000*
20,1,0.019685,0.024606,-0.015748,0.024606,0.015748,0.000000*
20,1,0.019685,0.024606,0.015748,-0.024606,0.015748,0.000000*
%
%ADD28MACRO28*%
%AMMACRO29*
4,1,4,-0.025591,0.016240,-0.025591,-0.016240,0.025591,-0.016240,0.025591,0.016240,-0.025591,0.016240,0.000000*
1,1,0.019685,-0.025591,0.016240*
1,1,0.019685,-0.025591,-0.016240*
1,1,0.019685,0.025591,-0.016240*
1,1,0.019685,0.025591,0.016240*
20,1,0.019685,-0.025591,0.016240,-0.025591,-0.016240,0.000000*
20,1,0.019685,-0.025591,-0.016240,0.025591,-0.016240,0.000000*
20,1,0.019685,0.025591,-0.016240,0.025591,0.016240,0.000000*
20,1,0.019685,0.025591,0.016240,-0.025591,0.016240,0.000000*
%
%ADD29MACRO29*%
%AMMACRO30*
4,1,4,0.024606,-0.015748,0.024606,0.015748,-0.024606,0.015748,-0.024606,-0.015748,0.024606,-0.015748,0.000000*
1,1,0.019685,0.024606,-0.015748*
1,1,0.019685,0.024606,0.015748*
1,1,0.019685,-0.024606,0.015748*
1,1,0.019685,-0.024606,-0.015748*
20,1,0.019685,0.024606,-0.015748,0.024606,0.015748,0.000000*
20,1,0.019685,0.024606,0.015748,-0.024606,0.015748,0.000000*
20,1,0.019685,-0.024606,0.015748,-0.024606,-0.015748,0.000000*
20,1,0.019685,-0.024606,-0.015748,0.024606,-0.015748,0.000000*
%
%ADD30MACRO30*%
%AMMACRO31*
4,1,4,-0.019685,0.015748,-0.019685,-0.015748,0.019685,-0.015748,0.019685,0.015748,-0.019685,0.015748,0.000000*
1,1,0.019685,-0.019685,0.015748*
1,1,0.019685,-0.019685,-0.015748*
1,1,0.019685,0.019685,-0.015748*
1,1,0.019685,0.019685,0.015748*
20,1,0.019685,-0.019685,0.015748,-0.019685,-0.015748,0.000000*
20,1,0.019685,-0.019685,-0.015748,0.019685,-0.015748,0.000000*
20,1,0.019685,0.019685,-0.015748,0.019685,0.015748,0.000000*
20,1,0.019685,0.019685,0.015748,-0.019685,0.015748,0.000000*
%
%ADD31MACRO31*%
%AMMACRO32*
4,1,4,0.025591,-0.016240,0.025591,0.016240,-0.025591,0.016240,-0.025591,-0.016240,0.025591,-0.016240,0.000000*
1,1,0.019685,0.025591,-0.016240*
1,1,0.019685,0.025591,0.016240*
1,1,0.019685,-0.025591,0.016240*
1,1,0.019685,-0.025591,-0.016240*
20,1,0.019685,0.025591,-0.016240,0.025591,0.016240,0.000000*
20,1,0.019685,0.025591,0.016240,-0.025591,0.016240,0.000000*
20,1,0.019685,-0.025591,0.016240,-0.025591,-0.016240,0.000000*
20,1,0.019685,-0.025591,-0.016240,0.025591,-0.016240,0.000000*
%
%ADD32MACRO32*%
%AMMACRO33*
4,1,4,-0.015748,-0.022638,0.015748,-0.022638,0.015748,0.022638,-0.015748,0.022638,-0.015748,-0.022638,0.000000*
1,1,0.019685,-0.015748,-0.022638*
1,1,0.019685,0.015748,-0.022638*
1,1,0.019685,0.015748,0.022638*
1,1,0.019685,-0.015748,0.022638*
20,1,0.019685,-0.015748,-0.022638,0.015748,-0.022638,0.000000*
20,1,0.019685,0.015748,-0.022638,0.015748,0.022638,0.000000*
20,1,0.019685,0.015748,0.022638,-0.015748,0.022638,0.000000*
20,1,0.019685,-0.015748,0.022638,-0.015748,-0.022638,0.000000*
%
%ADD33MACRO33*%
%AMMACRO34*
4,1,4,-0.015748,-0.024606,0.015748,-0.024606,0.015748,0.024606,-0.015748,0.024606,-0.015748,-0.024606,0.000000*
1,1,0.019685,-0.015748,-0.024606*
1,1,0.019685,0.015748,-0.024606*
1,1,0.019685,0.015748,0.024606*
1,1,0.019685,-0.015748,0.024606*
20,1,0.019685,-0.015748,-0.024606,0.015748,-0.024606,0.000000*
20,1,0.019685,0.015748,-0.024606,0.015748,0.024606,0.000000*
20,1,0.019685,0.015748,0.024606,-0.015748,0.024606,0.000000*
20,1,0.019685,-0.015748,0.024606,-0.015748,-0.024606,0.000000*
%
%ADD34MACRO34*%
%AMMACRO35*
4,1,4,-0.024094,-0.024094,0.024094,-0.024094,0.024094,0.024094,-0.024094,0.024094,-0.024094,-0.024094,0.000000*
1,1,0.018740,-0.024094,-0.024094*
1,1,0.018740,0.024094,-0.024094*
1,1,0.018740,0.024094,0.024094*
1,1,0.018740,-0.024094,0.024094*
20,1,0.018740,-0.024094,-0.024094,0.024094,-0.024094,0.000000*
20,1,0.018740,0.024094,-0.024094,0.024094,0.024094,0.000000*
20,1,0.018740,0.024094,0.024094,-0.024094,0.024094,0.000000*
20,1,0.018740,-0.024094,0.024094,-0.024094,-0.024094,0.000000*
%
%ADD35MACRO35*%
%ADD36C,0.0709*%
%AMMACRO37*
4,1,4,0.014764,-0.008858,0.014764,0.008858,-0.014764,0.008858,-0.014764,-0.008858,0.014764,-0.008858,0.000000*
1,1,0.017717,0.014764,-0.008858*
1,1,0.017717,0.014764,0.008858*
1,1,0.017717,-0.014764,0.008858*
1,1,0.017717,-0.014764,-0.008858*
20,1,0.017717,0.014764,-0.008858,0.014764,0.008858,0.000000*
20,1,0.017717,0.014764,0.008858,-0.014764,0.008858,0.000000*
20,1,0.017717,-0.014764,0.008858,-0.014764,-0.008858,0.000000*
20,1,0.017717,-0.014764,-0.008858,0.014764,-0.008858,0.000000*
%
%ADD37MACRO37*%
%AMMACRO38*
4,1,4,0.002461,-0.023130,0.002461,0.023130,-0.002461,0.023130,-0.002461,-0.023130,0.002461,-0.023130,0.000000*
1,1,0.004921,0.002461,-0.023130*
1,1,0.004921,0.002461,0.023130*
1,1,0.004921,-0.002461,0.023130*
1,1,0.004921,-0.002461,-0.023130*
20,1,0.004921,0.002461,-0.023130,0.002461,0.023130,0.000000*
20,1,0.004921,0.002461,0.023130,-0.002461,0.023130,0.000000*
20,1,0.004921,-0.002461,0.023130,-0.002461,-0.023130,0.000000*
20,1,0.004921,-0.002461,-0.023130,0.002461,-0.023130,0.000000*
%
%ADD38MACRO38*%
%AMMACRO39*
4,1,4,0.036909,0.050689,-0.036909,0.050689,-0.036909,-0.050689,0.036909,-0.050689,0.036909,0.050689,0.000000*
1,1,0.024606,0.036909,0.050689*
1,1,0.024606,-0.036909,0.050689*
1,1,0.024606,-0.036909,-0.050689*
1,1,0.024606,0.036909,-0.050689*
20,1,0.024606,0.036909,0.050689,-0.036909,0.050689,0.000000*
20,1,0.024606,-0.036909,0.050689,-0.036909,-0.050689,0.000000*
20,1,0.024606,-0.036909,-0.050689,0.036909,-0.050689,0.000000*
20,1,0.024606,0.036909,-0.050689,0.036909,0.050689,0.000000*
%
%ADD39MACRO39*%
%AMMACRO40*
4,1,4,0.041339,0.049213,-0.041339,0.049213,-0.041339,-0.049213,0.041339,-0.049213,0.041339,0.049213,0.000000*
1,1,0.027559,0.041339,0.049213*
1,1,0.027559,-0.041339,0.049213*
1,1,0.027559,-0.041339,-0.049213*
1,1,0.027559,0.041339,-0.049213*
20,1,0.027559,0.041339,0.049213,-0.041339,0.049213,0.000000*
20,1,0.027559,-0.041339,0.049213,-0.041339,-0.049213,0.000000*
20,1,0.027559,-0.041339,-0.049213,0.041339,-0.049213,0.000000*
20,1,0.027559,0.041339,-0.049213,0.041339,0.049213,0.000000*
%
%ADD40MACRO40*%
%AMMACRO41*
4,1,4,-0.027559,0.010827,-0.027559,-0.010827,0.027559,-0.010827,0.027559,0.010827,-0.027559,0.010827,0.000000*
1,1,0.019685,-0.027559,0.010827*
1,1,0.019685,-0.027559,-0.010827*
1,1,0.019685,0.027559,-0.010827*
1,1,0.019685,0.027559,0.010827*
20,1,0.019685,-0.027559,0.010827,-0.027559,-0.010827,0.000000*
20,1,0.019685,-0.027559,-0.010827,0.027559,-0.010827,0.000000*
20,1,0.019685,0.027559,-0.010827,0.027559,0.010827,0.000000*
20,1,0.019685,0.027559,0.010827,-0.027559,0.010827,0.000000*
%
%ADD41MACRO41*%
%ADD42C,0.0472*%
%ADD43C,0.0354*%
%ADD44C,0.0118*%
%ADD45C,0.0197*%
%ADD46C,0.0079*%
%ADD47C,0.0394*%
G04 --Start main section--*
G54D10*
G01X5633858Y-2955118D03*
G54D11*
G01X5633858Y-2855118D03*
G01X5633858Y-2755118D03*
G54D16*
G01X6499606Y-4999016D03*
G01X6716142Y-4880906D03*
G01X6716142Y-4999016D03*
G01X6538976Y-4664370D03*
G54D17*
G01X6716142Y-4723425D03*
G54D10*
G01X5632874Y-4175197D03*
G54D22*
G01X5632874Y-4075197D03*
G54D23*
G01X7435827Y-3755118D03*
G54D22*
G01X7435827Y-3855118D03*
G01X7435827Y-3955118D03*
G01X7435827Y-4055118D03*
G54D26*
G01X6443898Y-2104331D03*
G01X6162402Y-2104331D03*
G54D23*
G01X7435827Y-2926772D03*
G54D22*
G01X7435827Y-3026772D03*
G01X7435827Y-3126772D03*
G01X7435827Y-3226772D03*
G01X7435827Y-3326772D03*
G54D28*
G01X6164961Y-4150394D03*
G01X6164961Y-4272441D03*
G54D29*
G01X6164961Y-4443209D03*
G01X6164961Y-4566240D03*
G54D30*
G01X6027165Y-4272441D03*
G01X6027165Y-4150394D03*
G01X6164961Y-5077559D03*
G01X6164961Y-4955512D03*
G54D28*
G01X6027165Y-4679921D03*
G01X6027165Y-4801969D03*
G54D32*
G01X5889370Y-4272933D03*
G01X5889370Y-4149902D03*
G54D29*
G01X6696457Y-4443209D03*
G01X6696457Y-4566240D03*
G54D32*
G01X6166732Y-4802461D03*
G01X6166732Y-4679429D03*
G54D28*
G01X6460236Y-4443701D03*
G01X6460236Y-4565748D03*
G54D37*
G01X5769094Y-3823819D03*
G01X5769094Y-3693898D03*
G54D28*
G01X6578346Y-4443701D03*
G01X6578346Y-4565748D03*
G54D38*
G01X6365748Y-4750787D03*
G01X6346063Y-4750787D03*
G01X6326378Y-4750787D03*
G01X6306693Y-4750787D03*
G01X6287008Y-4750787D03*
G01X6287008Y-4581496D03*
G01X6306693Y-4581496D03*
G01X6326378Y-4581496D03*
G01X6346063Y-4581496D03*
G01X6365748Y-4581496D03*
G54D28*
G01X6028937Y-4801969D03*
G01X6028937Y-4924016D03*
G54D41*
G01X6027165Y-4442717D03*
G01X6027165Y-4566732D03*
G54D43*
G01X6027165Y-4383661D03*
G01X6440551Y-2696161D03*
G01X6064173Y-2797835D03*
G01X6255906Y-3078740D03*
G01X6074803Y-3078740D03*
G01X7342520Y-3803150D03*
G01X7106299Y-3606299D03*
G01X7125984Y-3236220D03*
G01X6027165Y-3164173D03*
G01X6943504Y-4171063D03*
G01X7243504Y-4171063D03*
G01X5751575Y-2573130D03*
G01X6031496Y-5078740D03*
G01X5889370Y-3164173D03*
G01X6164961Y-4384154D03*
G01X6334646Y-5078740D03*
G01X6302756Y-3518012D03*
G01X6755512Y-4384154D03*
G01X5944882Y-4507874D03*
G01X6166732Y-4861516D03*
G01X5889370Y-2573130D03*
G01X6259055Y-2793898D03*
G01X6440551Y-3518012D03*
G01X6152756Y-2192126D03*
G01X6993504Y-4171063D03*
G01X6103346Y-2104331D03*
G01X6617717Y-4384646D03*
G01X7677165Y-3663386D03*
G01X6500000Y-4877953D03*
G54D42*
G01X7220472Y-3688976D03*
G54D43*
G01X5769094Y-3601378D03*
G01X6413386Y-4980315D03*
G01X6453543Y-2192126D03*
G01X6440551Y-2455020D03*
G01X6502953Y-2104331D03*
G01X6326378Y-4814961D03*
G01X5889370Y-2849213D03*
G01X6028937Y-4983071D03*
G01X6716142Y-4111909D03*
G01X6440551Y-3274409D03*
G54D42*
G01X6177165Y-2303150D03*
G01X6354331Y-2303150D03*
G54D43*
G01X7125984Y-3157480D03*
G01X6354331Y-3039370D03*
G01X5769094Y-3916339D03*
G01X6492126Y-3035433D03*
G01X7125984Y-3078740D03*
G01X6792126Y-3759843D03*
G01X6440551Y-4111417D03*
G01X6578346Y-4111417D03*
G01X6993504Y-3807087D03*
G01X6161024Y-3031791D03*
G01X6178740Y-2826772D03*
G01X6111811Y-3031791D03*
G01X6129528Y-2826772D03*
G01X6700787Y-3393701D03*
G01X6700787Y-3551181D03*
G01X6370079Y-3870079D03*
G01X6164961Y-3767717D03*
G01X7677165Y-3423228D03*
G01X7133858Y-3559055D03*
G01X7559055Y-3421260D03*
G01X7322835Y-3496063D03*
G01X6700787Y-3314961D03*
G01X7074803Y-3503937D03*
G01X7074803Y-3314961D03*
G54D44*
G01X6174000Y-2696161D02*
G01X6440551Y-2696161D01*
G54D45*
G01X6027165Y-4442717D02*
G01X6027165Y-4383661D01*
G54D44*
G01X6064173Y-2797835D02*
G01X6160081Y-2701927D01*
G01X6160081Y-2701927D02*
G75*
G02X6174000Y-2696162I0013919J-013919D01*
G01X7235941Y-3606299D02*
G01X7106299Y-3606299D01*
G01X7336754Y-3698959D02*
G01X7249860Y-3612065D01*
G01X7342520Y-3803150D02*
G01X7342520Y-3712878D01*
G01X6074803Y-3078740D02*
G01X6255906Y-3078740D01*
G01X7342520Y-3712878D02*
G75*
G03X7336754Y-3698959I-019685J0000000D01*
G01X7249860Y-3612065D02*
G75*
G03X7235941Y-3606299I-013919J-013919D01*
G01X7039090Y-3220472D02*
G01X6091618Y-3220472D01*
G01X7125984Y-3236220D02*
G01X7071146Y-3236220D01*
G01X7057227Y-3230455D02*
G01X7053010Y-3226238D01*
G01X6077699Y-3214707D02*
G01X6027165Y-3164173D01*
G01X6091618Y-3220472D02*
G75*
G02X6077699Y-3214707I0000000J0019685D01*
G01X7053010Y-3226238D02*
G75*
G03X7039090Y-3220473I-013919J-013919D01*
G01X7071146Y-3236220D02*
G75*
G02X7057226Y-3230455I0000000J0019685D01*
G01X6028937Y-4924016D02*
G01X6028937Y-4983071D01*
G01X6164961Y-4443209D02*
G01X6164961Y-4384154D01*
G54D46*
G01X6326378Y-4814961D02*
G01X6326378Y-4750787D01*
G54D44*
G01X6166732Y-4802461D02*
G01X6166732Y-4861516D01*
G54D45*
G01X6354331Y-2303150D02*
G01X6177165Y-2303150D01*
G54D44*
G01X6466675Y-3151715D02*
G01X6354331Y-3039370D01*
G01X7125984Y-3157480D02*
G01X6480595Y-3157480D01*
G01X6480595Y-3157480D02*
G75*
G02X6466675Y-3151715I0000000J0019685D01*
G54D45*
G01X5769094Y-3823819D02*
G01X5769094Y-3916339D01*
G54D44*
G01X7125984Y-3078740D02*
G01X6543587Y-3078740D01*
G01X6529667Y-3072975D02*
G01X6492126Y-3035433D01*
G01X6543587Y-3078740D02*
G75*
G02X6529667Y-3072975I0000000J0019685D01*
G01X6352222Y-4199746D02*
G01X6440551Y-4111417D01*
G01X6792126Y-3759843D02*
G01X6440551Y-4111417D01*
G54D46*
G01X6346457Y-4483858D02*
G01X6346063Y-4484252D01*
G54D44*
G01X6346457Y-4483858D02*
G01X6346457Y-4213666D01*
G54D46*
G01X6346063Y-4580512D02*
G01X6345079Y-4581496D01*
G01X6346063Y-4484252D02*
G01X6346063Y-4580512D01*
G54D44*
G01X6346457Y-4213666D02*
G75*
G02X6352222Y-4199746I0019685J0000000D01*
G01X6578346Y-4111417D02*
G01X6395529Y-4294234D01*
G01X6389764Y-4308154D02*
G01X6389764Y-4484252D01*
G01X6876912Y-3812852D02*
G01X6578346Y-4111417D01*
G54D46*
G01X6389764Y-4505626D02*
G01X6389764Y-4484252D01*
G01X6365748Y-4581496D02*
G01X6365748Y-4545949D01*
G01X6371514Y-4532030D02*
G01X6383998Y-4519545D01*
G54D44*
G01X6993504Y-3807087D02*
G01X6890831Y-3807087D01*
G01X6389764Y-4308154D02*
G75*
G02X6395529Y-4294234I0019685J0000000D01*
G54D46*
G01X6365748Y-4545949D02*
G75*
G02X6371514Y-4532030I0019685J0000000D01*
G01X6389764Y-4505626D02*
G75*
G02X6383998Y-4519545I-019685J0000000D01*
G54D44*
G01X6890831Y-3807087D02*
G75*
G03X6876911Y-3812852I0000000J-019685D01*
G54D46*
G01X6161024Y-3031791D02*
G01X6161024Y-2960910D01*
G01X6178740Y-2926886D02*
G01X6178740Y-2826772D01*
G01X6166789Y-2946990D02*
G01X6172975Y-2940805D01*
G01X6161024Y-2960910D02*
G75*
G02X6166789Y-2946990I0019685J0000000D01*
G01X6178740Y-2926886D02*
G75*
G02X6172975Y-2940805I-019685J0000000D01*
G01X6117577Y-2946990D02*
G01X6123762Y-2940805D01*
G01X6111811Y-3031791D02*
G01X6111811Y-2960910D01*
G01X6129528Y-2926886D02*
G01X6129528Y-2826772D01*
G01X6117577Y-2946990D02*
G75*
G03X6111811Y-2960910I0013919J-013919D01*
G01X6123762Y-2940805D02*
G75*
G03X6129527Y-2926886I-013919J0013919D01*
G54D45*
G01X7430201Y-3026772D02*
G01X7435827Y-3026772D01*
G54D44*
G01X7153403Y-3387935D02*
G01X7254077Y-3287262D01*
G01X7265608Y-3183211D02*
G01X7370079Y-3078740D01*
G01X6700787Y-3393701D02*
G01X7139484Y-3393701D01*
G01X7259843Y-3273342D02*
G01X7259843Y-3197130D01*
G54D45*
G01X7370079Y-3078740D02*
G01X7416282Y-3032537D01*
G54D44*
G01X7254077Y-3287262D02*
G75*
G03X7259842Y-3273342I-013919J0013919D01*
G01X7139484Y-3393701D02*
G75*
G03X7153404Y-3387935I0000000J0019685D01*
G01X7265608Y-3183211D02*
G75*
G03X7259843Y-3197130I0013919J-013919D01*
G54D45*
G01X7430201Y-3026772D02*
G75*
G03X7416282Y-3032537I0000000J-019685D01*
G54D44*
G01X7326772Y-3306413D02*
G01X7326772Y-3232563D01*
G01X6700787Y-3551181D02*
G01X6801321Y-3450647D01*
G54D45*
G01X7368110Y-3183071D02*
G01X7418644Y-3132537D01*
G01X7432563Y-3126772D02*
G01X7435827Y-3126772D01*
G54D44*
G01X7332537Y-3218644D02*
G01X7368110Y-3183071D01*
G01X6815240Y-3444882D02*
G01X7188303Y-3444882D01*
G01X7202222Y-3439116D02*
G01X7321006Y-3320333D01*
G01X7321006Y-3320333D02*
G75*
G03X7326771Y-3306413I-013919J0013919D01*
G01X7332537Y-3218644D02*
G75*
G03X7326772Y-3232563I0013919J-013919D01*
G01X6801321Y-3450647D02*
G75*
G02X6815240Y-3444882I0013919J-013919D01*
G01X7188303Y-3444882D02*
G75*
G03X7202222Y-3439116I0000000J0019685D01*
G54D45*
G01X7418644Y-3132537D02*
G75*
G02X7432563Y-3126772I0013919J-013919D01*
G54D44*
G01X6164961Y-3767717D02*
G01X6165354Y-3768110D01*
G01X6273876Y-3773876D02*
G01X6370079Y-3870079D01*
G01X6165354Y-3768110D02*
G01X6259956Y-3768110D01*
G01X6259956Y-3768110D02*
G75*
G02X6273876Y-3773876I0000000J-019685D01*
G01X7133858Y-3559055D02*
G01X7533185Y-3559055D01*
G01X7547104Y-3553289D02*
G01X7677165Y-3423228D01*
G01X7547104Y-3553289D02*
G75*
G02X7533185Y-3559055I-013919J0013919D01*
G01X7490018Y-3490297D02*
G01X7559055Y-3421260D01*
G01X7476098Y-3496063D02*
G01X7322835Y-3496063D01*
G01X7490018Y-3490297D02*
G75*
G02X7476098Y-3496063I-013919J0013919D01*
G01X7367520Y-3395079D02*
G01X7264427Y-3498171D01*
G01X6700787Y-3314961D02*
G01X7074803Y-3314961D01*
G01X7250508Y-3503937D02*
G01X7074803Y-3503937D01*
G54D45*
G01X7367520Y-3395079D02*
G01X7435827Y-3326772D01*
G54D44*
G01X7250508Y-3503937D02*
G75*
G03X7264427Y-3498172I0000000J0019685D01*
G01X6166732Y-4679429D02*
G01X6166732Y-4568012D01*
G01X6165862Y-4272441D02*
G01X6164961Y-4272441D01*
G01X6289650Y-4637795D02*
G01X6326378Y-4637795D01*
G01X6164469Y-4566732D02*
G01X6164961Y-4566240D01*
G01X6458154Y-4565748D02*
G01X6460236Y-4565748D01*
G01X6228346Y-4503657D02*
G01X6228346Y-4334925D01*
G01X6179683Y-4560475D02*
G01X6222581Y-4517577D01*
G01X6166732Y-4679429D02*
G01X6231708Y-4679429D01*
G01X6245628Y-4673664D02*
G01X6275730Y-4643561D01*
G01X6166732Y-4568012D02*
G01X6164961Y-4566240D01*
G01X6027165Y-4566732D02*
G01X6164469Y-4566732D01*
G01X6383718Y-4632030D02*
G01X6444234Y-4571514D01*
G54D46*
G01X6326378Y-4581496D02*
G01X6326378Y-4637795D01*
G54D44*
G01X6027165Y-4679921D02*
G01X6027165Y-4566732D01*
G01X6164961Y-4566240D02*
G01X6165764Y-4566240D01*
G01X6222581Y-4321006D02*
G01X6179781Y-4278207D01*
G01X6326378Y-4637795D02*
G01X6369799Y-4637795D01*
G01X6222581Y-4517577D02*
G75*
G03X6228346Y-4503657I-013919J0013919D01*
G01X6369799Y-4637795D02*
G75*
G03X6383719Y-4632030I0000000J0019685D01*
G01X6165862Y-4272441D02*
G75*
G02X6179781Y-4278206I0000000J-019685D01*
G01X6165764Y-4566240D02*
G75*
G03X6179683Y-4560475I0000000J0019685D01*
G01X6289650Y-4637795D02*
G75*
G03X6275730Y-4643561I0000000J-019685D01*
G01X6231708Y-4679429D02*
G75*
G03X6245628Y-4673664I0000000J0019685D01*
G01X6222581Y-4321006D02*
G75*
G02X6228346Y-4334925I-013919J-013919D01*
G01X6444234Y-4571514D02*
G75*
G02X6458154Y-4565748I0013919J-013919D01*
G54D45*
G01X6696457Y-4566240D02*
G01X6695965Y-4565748D01*
G01X6716142Y-4723425D02*
G01X6716142Y-4585925D01*
G54D46*
G01X6323114Y-4669291D02*
G01X6436728Y-4669291D01*
G54D45*
G01X6577839Y-4565748D02*
G01X6578346Y-4565748D01*
G54D46*
G01X6516028Y-4606299D02*
G01X6519405Y-4606299D01*
G01X6292774Y-4691478D02*
G01X6309195Y-4675057D01*
G54D45*
G01X6519685Y-4500280D02*
G01X6519685Y-4507594D01*
G54D46*
G01X6287008Y-4750787D02*
G01X6287008Y-4705398D01*
G54D45*
G01X6525451Y-4521514D02*
G01X6563919Y-4559982D01*
G01X6477025Y-4449466D02*
G01X6513919Y-4486360D01*
G01X6716142Y-4723425D02*
G01X6716142Y-4880906D01*
G01X6460236Y-4443701D02*
G01X6463106Y-4443701D01*
G54D46*
G01X6450648Y-4663526D02*
G01X6502108Y-4612065D01*
G01X6533325Y-4600534D02*
G01X6562345Y-4571514D01*
G54D45*
G01X6695965Y-4565748D02*
G01X6578346Y-4565748D01*
G01X6716142Y-4585925D02*
G01X6696457Y-4566240D01*
G54D46*
G01X6576264Y-4565748D02*
G01X6578346Y-4565748D01*
G01X6562345Y-4571514D02*
G75*
G02X6576264Y-4565748I0013919J-013919D01*
G54D45*
G01X6519685Y-4507594D02*
G75*
G03X6525451Y-4521514I0019685J0000000D01*
G54D46*
G01X6309195Y-4675057D02*
G75*
G02X6323114Y-4669292I0013919J-013919D01*
G01X6287008Y-4705398D02*
G75*
G02X6292773Y-4691478I0019685J0000000D01*
G01X6516028Y-4606299D02*
G75*
G03X6502108Y-4612065I0000000J-019685D01*
G54D45*
G01X6519685Y-4500280D02*
G75*
G03X6513920Y-4486360I-019685J0000000D01*
G01X6463106Y-4443701D02*
G75*
G02X6477026Y-4449466I0000000J-019685D01*
G01X6563919Y-4559982D02*
G75*
G03X6577839Y-4565748I0013919J0013919D01*
G54D46*
G01X6519405Y-4606299D02*
G75*
G03X6533325Y-4600534I0000000J0019685D01*
G01X6436728Y-4669291D02*
G75*
G03X6450648Y-4663526I0000000J0019685D01*
G54D45*
G01X6533211Y-4679388D02*
G01X6514624Y-4697975D01*
G01X6538976Y-4664370D02*
G01X6538976Y-4665468D01*
G54D46*
G01X6318504Y-4703740D02*
G01X6472441Y-4703740D01*
G01X6306693Y-4750787D02*
G01X6306693Y-4715551D01*
G54D45*
G01X6500704Y-4703740D02*
G01X6472441Y-4703740D01*
G01X6514624Y-4697975D02*
G75*
G02X6500704Y-4703740I-013919J0013919D01*
G54D46*
G01X6306693Y-4715551D02*
G75*
G02X6318504Y-4703740I0011811J0000000D01*
G54D45*
G01X6533211Y-4679388D02*
G75*
G03X6538976Y-4665468I-013919J0013919D01*
G54D46*
G01X6365748Y-4750787D02*
G01X6365748Y-4822835D01*
G54D44*
G01X6166256Y-5077559D02*
G01X6164961Y-5077559D01*
G01X6365748Y-4822835D02*
G01X6365748Y-4878067D01*
G01X6359982Y-4891986D02*
G01X6180175Y-5071793D01*
G01X6365748Y-4878067D02*
G75*
G02X6359983Y-4891986I-019685J0000000D01*
G01X6166256Y-5077559D02*
G75*
G03X6180175Y-5071794I0000000J0019685D01*
G01X6164961Y-4955512D02*
G01X6164453Y-4955512D01*
G01X6092660Y-4856439D02*
G01X6043955Y-4807734D01*
G01X6030035Y-4801969D02*
G01X6028937Y-4801969D01*
G01X6098425Y-4889484D02*
G01X6098425Y-4870359D01*
G01X6150534Y-4949746D02*
G01X6104191Y-4903403D01*
G01X6098425Y-4889484D02*
G75*
G03X6104191Y-4903404I0019685J0000000D01*
G01X6092660Y-4856439D02*
G75*
G02X6098425Y-4870359I-013919J-013919D01*
G01X6043955Y-4807734D02*
G75*
G03X6030035Y-4801969I-013919J-013919D01*
G01X6164453Y-4955512D02*
G75*
G02X6150533Y-4949746I0000000J0019685D01*
G01X6307087Y-4291618D02*
G01X6307087Y-4479921D01*
G01X5721048Y-4149902D02*
G01X5889370Y-4149902D01*
G54D46*
G01X6306693Y-4480315D02*
G01X6306693Y-4580512D01*
G54D44*
G01X6179781Y-4156159D02*
G01X6301321Y-4277699D01*
G01X6164961Y-4150394D02*
G01X6165862Y-4150394D01*
G01X5681102Y-4118110D02*
G01X5707128Y-4144136D01*
G54D46*
G01X6307087Y-4479921D02*
G01X6306693Y-4480315D01*
G54D45*
G01X5681102Y-4118110D02*
G01X5638189Y-4075197D01*
G54D44*
G01X5889370Y-4149902D02*
G01X6026673Y-4149902D01*
G54D46*
G01X6306693Y-4580512D02*
G01X6305709Y-4581496D01*
G54D45*
G01X5638189Y-4075197D02*
G01X5632874Y-4075197D01*
G54D44*
G01X6027165Y-4150394D02*
G01X6164961Y-4150394D01*
G01X6026673Y-4149902D02*
G01X6027165Y-4150394D01*
G01X6165862Y-4150394D02*
G75*
G02X6179781Y-4156159I0000000J-019685D01*
G01X5707128Y-4144136D02*
G75*
G03X5721048Y-4149901I0013919J0013919D01*
G01X6301321Y-4277699D02*
G75*
G02X6307086Y-4291618I-013919J-013919D01*
G01X6180823Y-4212598D02*
G01X5850674Y-4212598D01*
G01X5836754Y-4206833D02*
G01X5810884Y-4180962D01*
G01X6258014Y-4281636D02*
G01X6194742Y-4218364D01*
G54D46*
G01X6287008Y-4581496D02*
G01X6287008Y-4547130D01*
G01X6263780Y-4507594D02*
G01X6263780Y-4480315D01*
G01X6281242Y-4533211D02*
G01X6269545Y-4521514D01*
G54D45*
G01X5685039Y-4175197D02*
G01X5632874Y-4175197D01*
G54D44*
G01X5796964Y-4175197D02*
G01X5685039Y-4175197D01*
G01X6263780Y-4480315D02*
G01X6263780Y-4295555D01*
G54D46*
G01X6287008Y-4547130D02*
G75*
G03X6281242Y-4533211I-019685J0000000D01*
G54D44*
G01X5810884Y-4180962D02*
G75*
G03X5796964Y-4175197I-013919J-013919D01*
G01X5850674Y-4212598D02*
G75*
G02X5836754Y-4206833I0000000J0019685D01*
G01X6194742Y-4218364D02*
G75*
G03X6180823Y-4212599I-013919J-013919D01*
G54D46*
G01X6269545Y-4521514D02*
G75*
G02X6263780Y-4507594I0013919J0013919D01*
G54D44*
G01X6258014Y-4281636D02*
G75*
G02X6263779Y-4295555I-013919J-013919D01*
G54D45*
G36*
G01X6129952Y-2067735D02*
G01X6132099Y-2069882D01*
G01X6132885Y-2072815D01*
G01X6132439Y-2075060D01*
G01X6131169Y-2078124D01*
G01X6131169Y-2078124D01*
G01X6129921Y-2084399D01*
G01X6129921Y-2094488D01*
G01X6153543Y-2094488D01*
G01X6153543Y-2121841D01*
G01X6154892Y-2125097D01*
G01X6157384Y-2127588D01*
G01X6160640Y-2128937D01*
G01X6164164Y-2128937D01*
G01X6167419Y-2127588D01*
G01X6169911Y-2125097D01*
G01X6171260Y-2121841D01*
G01X6171260Y-2094488D01*
G01X6194882Y-2094488D01*
G01X6194882Y-2084399D01*
G01X6193634Y-2078124D01*
G01X6193634Y-2078124D01*
G01X6192364Y-2075060D01*
G01X6191968Y-2072049D01*
G01X6193130Y-2069244D01*
G01X6195539Y-2067395D01*
G01X6197784Y-2066949D01*
G01X6408515Y-2066949D01*
G01X6411448Y-2067735D01*
G01X6413595Y-2069882D01*
G01X6414381Y-2072815D01*
G01X6413935Y-2075060D01*
G01X6412666Y-2078124D01*
G01X6412665Y-2078124D01*
G01X6411417Y-2084399D01*
G01X6411417Y-2094488D01*
G01X6435039Y-2094488D01*
G01X6435039Y-2121841D01*
G01X6436388Y-2125097D01*
G01X6438880Y-2127588D01*
G01X6442136Y-2128937D01*
G01X6445660Y-2128937D01*
G01X6448915Y-2127588D01*
G01X6451407Y-2125097D01*
G01X6452756Y-2121841D01*
G01X6452756Y-2094488D01*
G01X6476378Y-2094488D01*
G01X6476378Y-2084399D01*
G01X6475130Y-2078124D01*
G01X6475130Y-2078124D01*
G01X6473860Y-2075060D01*
G01X6473464Y-2072049D01*
G01X6474626Y-2069244D01*
G01X6477035Y-2067395D01*
G01X6479280Y-2066949D01*
G01X6751734Y-2066949D01*
G01X6752499Y-2066999D01*
G01X6756298Y-2067499D01*
G01X6757777Y-2067895D01*
G01X6761098Y-2069271D01*
G01X6762424Y-2070036D01*
G01X6765275Y-2072225D01*
G01X6766358Y-2073307D01*
G01X6768546Y-2076159D01*
G01X6769312Y-2077485D01*
G01X6770687Y-2080806D01*
G01X6771084Y-2082285D01*
G01X6771584Y-2086083D01*
G01X6771634Y-2086849D01*
G01X6771634Y-2690197D01*
G01X6770848Y-2693130D01*
G01X6768701Y-2695277D01*
G01X6765768Y-2696063D01*
G01X6558268Y-2696063D01*
G01X6558268Y-3027559D01*
G01X7284252Y-3027559D01*
G01X7284252Y-2781476D01*
G01X7285038Y-2778543D01*
G01X7287185Y-2776396D01*
G01X7290118Y-2775610D01*
G01X7702484Y-2775610D01*
G01X7702862Y-2775711D01*
G01X7703250Y-2775660D01*
G01X7704309Y-2776099D01*
G01X7705417Y-2776396D01*
G01X7706055Y-2776822D01*
G01X7706220Y-2776949D01*
G01X7707303Y-2778032D01*
G01X7709491Y-2780883D01*
G01X7710257Y-2782210D01*
G01X7711632Y-2785530D01*
G01X7712028Y-2787009D01*
G01X7712548Y-2790957D01*
G01X7712598Y-2791723D01*
G01X7712598Y-3391578D01*
G01X7711813Y-3394511D01*
G01X7709665Y-3396658D01*
G01X7706732Y-3397444D01*
G01X7703799Y-3396658D01*
G01X7702584Y-3395726D01*
G01X7701020Y-3394161D01*
G01X7701020Y-3394161D01*
G01X7697153Y-3391578D01*
G01X7694891Y-3390066D01*
G01X7694891Y-3390066D01*
G01X7688633Y-3387474D01*
G01X7688081Y-3387245D01*
G01X7688081Y-3387245D01*
G01X7688081Y-3387245D01*
G01X7680851Y-3385807D01*
G01X7673480Y-3385807D01*
G01X7666250Y-3387245D01*
G01X7659440Y-3390066D01*
G01X7659440Y-3390066D01*
G01X7653311Y-3394161D01*
G01X7653311Y-3394161D01*
G01X7648098Y-3399374D01*
G01X7648098Y-3399374D01*
G01X7644003Y-3405503D01*
G01X7644003Y-3405503D01*
G01X7641182Y-3412313D01*
G01X7639744Y-3419543D01*
G01X7639744Y-3422001D01*
G01X7638958Y-3424934D01*
G01X7638026Y-3426149D01*
G01X7532449Y-3531727D01*
G01X7529819Y-3533245D01*
G01X7528301Y-3533445D01*
G01X7352537Y-3533445D01*
G01X7351791Y-3533245D01*
G01X7351018Y-3533245D01*
G01X7350349Y-3532859D01*
G01X7349603Y-3532659D01*
G01X7349057Y-3532113D01*
G01X7348389Y-3531727D01*
G01X7348002Y-3531058D01*
G01X7347456Y-3530512D01*
G01X7347256Y-3529766D01*
G01X7346870Y-3529097D01*
G01X7346870Y-3528325D01*
G01X7346670Y-3527579D01*
G01X7346870Y-3526833D01*
G01X7346870Y-3526060D01*
G01X7347256Y-3525392D01*
G01X7347456Y-3524646D01*
G01X7348389Y-3523431D01*
G01X7348428Y-3523391D01*
G01X7351058Y-3521873D01*
G01X7352576Y-3521673D01*
G01X7473212Y-3521673D01*
G01X7476098Y-3521673D01*
G01X7479663Y-3521673D01*
G01X7486705Y-3520558D01*
G01X7486705Y-3520558D01*
G01X7486705Y-3520558D01*
G01X7486705Y-3520558D01*
G01X7493486Y-3518355D01*
G01X7499838Y-3515118D01*
G01X7505606Y-3510927D01*
G01X7508127Y-3508406D01*
G01X7510167Y-3506366D01*
G01X7556134Y-3460399D01*
G01X7558764Y-3458881D01*
G01X7560282Y-3458681D01*
G01X7562741Y-3458681D01*
G01X7569971Y-3457243D01*
G01X7576781Y-3454422D01*
G01X7582910Y-3450327D01*
G01X7588122Y-3445114D01*
G01X7592217Y-3438985D01*
G01X7595038Y-3432175D01*
G01X7596476Y-3424946D01*
G01X7596476Y-3417574D01*
G01X7596473Y-3417555D01*
G01X7595784Y-3414093D01*
G01X7595038Y-3410344D01*
G01X7593033Y-3405503D01*
G01X7592217Y-3403534D01*
G01X7592217Y-3403534D01*
G01X7590834Y-3401464D01*
G01X7588122Y-3397405D01*
G01X7582910Y-3392193D01*
G01X7580867Y-3390828D01*
G01X7576781Y-3388098D01*
G01X7576781Y-3388097D01*
G01X7571381Y-3385861D01*
G01X7569971Y-3385277D01*
G01X7569970Y-3385277D01*
G01X7569970Y-3385277D01*
G01X7562741Y-3383839D01*
G01X7555369Y-3383839D01*
G01X7548140Y-3385277D01*
G01X7541330Y-3388097D01*
G01X7541329Y-3388098D01*
G01X7535201Y-3392193D01*
G01X7535200Y-3392193D01*
G01X7529988Y-3397405D01*
G01X7529988Y-3397405D01*
G01X7525893Y-3403534D01*
G01X7525893Y-3403534D01*
G01X7523072Y-3410345D01*
G01X7521634Y-3417574D01*
G01X7521634Y-3420033D01*
G01X7520848Y-3422966D01*
G01X7519916Y-3424181D01*
G01X7475362Y-3468735D01*
G01X7472732Y-3470253D01*
G01X7471214Y-3470453D01*
G01X7352576Y-3470453D01*
G01X7352148Y-3470338D01*
G01X7351709Y-3470388D01*
G01X7350998Y-3470030D01*
G01X7349643Y-3469667D01*
G01X7348924Y-3469177D01*
G01X7348663Y-3468970D01*
G01X7346689Y-3466996D01*
G01X7343517Y-3464877D01*
G01X7343327Y-3464725D01*
G01X7342563Y-3463693D01*
G01X7341717Y-3462729D01*
G01X7341669Y-3462484D01*
G01X7341521Y-3462284D01*
G01X7341375Y-3461009D01*
G01X7341125Y-3459750D01*
G01X7341205Y-3459514D01*
G01X7341177Y-3459267D01*
G01X7341689Y-3458090D01*
G01X7342101Y-3456875D01*
G01X7342348Y-3456575D01*
G01X7342388Y-3456482D01*
G01X7342479Y-3456415D01*
G01X7342830Y-3455986D01*
G01X7373934Y-3424883D01*
G01X7375912Y-3423698D01*
G01X7375872Y-3423601D01*
G01X7376138Y-3423490D01*
G01X7376138Y-3423490D01*
G01X7381516Y-3421263D01*
G01X7386355Y-3418030D01*
G01X7422725Y-3381659D01*
G01X7425355Y-3380141D01*
G01X7426873Y-3379941D01*
G01X7447885Y-3379941D01*
G01X7447885Y-3379941D01*
G01X7456151Y-3378632D01*
G01X7464111Y-3376046D01*
G01X7471568Y-3372246D01*
G01X7478338Y-3367327D01*
G01X7484256Y-3361409D01*
G01X7489175Y-3354638D01*
G01X7492975Y-3347182D01*
G01X7495561Y-3339222D01*
G01X7496870Y-3330956D01*
G01X7496870Y-3322587D01*
G01X7495561Y-3314321D01*
G01X7492975Y-3306362D01*
G01X7489175Y-3298905D01*
G01X7484256Y-3292134D01*
G01X7478338Y-3286216D01*
G01X7471871Y-3281517D01*
G01X7469960Y-3279158D01*
G01X7469485Y-3276159D01*
G01X7470573Y-3273324D01*
G01X7471871Y-3272026D01*
G01X7474030Y-3270457D01*
G01X7478338Y-3267327D01*
G01X7484256Y-3261409D01*
G01X7489175Y-3254638D01*
G01X7492975Y-3247182D01*
G01X7495561Y-3239222D01*
G01X7496870Y-3230956D01*
G01X7496870Y-3222587D01*
G01X7495561Y-3214321D01*
G01X7492975Y-3206362D01*
G01X7489175Y-3198905D01*
G01X7484256Y-3192134D01*
G01X7478338Y-3186216D01*
G01X7471871Y-3181517D01*
G01X7469960Y-3179158D01*
G01X7469485Y-3176159D01*
G01X7470573Y-3173324D01*
G01X7471871Y-3172026D01*
G01X7472146Y-3171826D01*
G01X7478338Y-3167327D01*
G01X7484256Y-3161409D01*
G01X7489175Y-3154638D01*
G01X7492975Y-3147182D01*
G01X7495561Y-3139222D01*
G01X7496870Y-3130956D01*
G01X7496870Y-3122587D01*
G01X7495561Y-3114321D01*
G01X7492975Y-3106362D01*
G01X7489175Y-3098905D01*
G01X7484256Y-3092134D01*
G01X7478338Y-3086216D01*
G01X7471871Y-3081517D01*
G01X7469960Y-3079158D01*
G01X7469485Y-3076159D01*
G01X7470573Y-3073324D01*
G01X7471871Y-3072026D01*
G01X7472146Y-3071826D01*
G01X7478338Y-3067327D01*
G01X7484256Y-3061409D01*
G01X7489175Y-3054638D01*
G01X7492975Y-3047182D01*
G01X7495561Y-3039222D01*
G01X7496870Y-3030956D01*
G01X7496870Y-3022587D01*
G01X7495561Y-3014321D01*
G01X7492975Y-3006362D01*
G01X7489175Y-2998905D01*
G01X7484256Y-2992134D01*
G01X7478338Y-2986216D01*
G01X7478338Y-2986216D01*
G01X7478338Y-2986216D01*
G01X7475921Y-2984460D01*
G01X7474010Y-2982101D01*
G01X7473535Y-2979101D01*
G01X7474624Y-2976267D01*
G01X7476290Y-2974722D01*
G01X7477900Y-2973729D01*
G01X7482784Y-2968845D01*
G01X7486410Y-2962966D01*
G01X7488583Y-2956409D01*
G01X7488996Y-2952363D01*
G01X7488996Y-2901181D01*
G01X7488583Y-2897134D01*
G01X7486410Y-2890577D01*
G01X7482784Y-2884699D01*
G01X7477900Y-2879814D01*
G01X7472021Y-2876188D01*
G01X7467841Y-2874803D01*
G01X7465464Y-2874016D01*
G01X7464790Y-2873947D01*
G01X7461418Y-2873602D01*
G01X7461417Y-2873602D01*
G01X7410236Y-2873602D01*
G01X7406189Y-2874016D01*
G01X7399633Y-2876188D01*
G01X7393754Y-2879814D01*
G01X7388870Y-2884699D01*
G01X7385244Y-2890577D01*
G01X7383071Y-2897134D01*
G01X7383071Y-2897134D01*
G01X7383071Y-2897134D01*
G01X7382798Y-2899802D01*
G01X7382657Y-2901181D01*
G01X7382657Y-2952362D01*
G01X7382658Y-2952363D01*
G01X7383071Y-2956409D01*
G01X7385244Y-2962966D01*
G01X7388870Y-2968845D01*
G01X7393754Y-2973729D01*
G01X7395364Y-2974722D01*
G01X7397447Y-2976931D01*
G01X7398148Y-2979885D01*
G01X7397277Y-2982794D01*
G01X7395732Y-2984460D01*
G01X7393315Y-2986216D01*
G01X7393315Y-2986216D01*
G01X7387398Y-2992134D01*
G01X7387397Y-2992134D01*
G01X7382478Y-2998905D01*
G01X7382478Y-2998905D01*
G01X7378679Y-3006361D01*
G01X7378679Y-3006362D01*
G01X7376176Y-3014066D01*
G01X7376093Y-3014321D01*
G01X7374783Y-3022587D01*
G01X7374783Y-3022587D01*
G01X7374783Y-3029819D01*
G01X7373998Y-3032752D01*
G01X7373065Y-3033967D01*
G01X7347128Y-3059905D01*
G01X7343894Y-3064744D01*
G01X7343894Y-3064745D01*
G01X7341557Y-3070388D01*
G01X7341461Y-3070348D01*
G01X7340274Y-3072326D01*
G01X7249539Y-3163061D01*
G01X7247499Y-3165101D01*
G01X7244978Y-3167622D01*
G01X7244978Y-3167623D01*
G01X7240788Y-3173390D01*
G01X7240788Y-3173390D01*
G01X7237551Y-3179743D01*
G01X7235348Y-3186523D01*
G01X7234232Y-3193565D01*
G01X7234232Y-3195424D01*
G01X7234232Y-3268458D01*
G01X7233446Y-3271391D01*
G01X7232514Y-3272606D01*
G01X7138748Y-3366372D01*
G01X7136118Y-3367891D01*
G01X7134600Y-3368091D01*
G01X6730529Y-3368091D01*
G01X6727596Y-3367305D01*
G01X6726381Y-3366372D01*
G01X6724642Y-3364634D01*
G01X6724642Y-3364634D01*
G01X6722599Y-3363269D01*
G01X6718513Y-3360539D01*
G01X6718513Y-3360538D01*
G01X6716610Y-3359750D01*
G01X6714201Y-3357902D01*
G01X6713039Y-3355096D01*
G01X6713435Y-3352086D01*
G01X6715284Y-3349677D01*
G01X6716610Y-3348911D01*
G01X6718513Y-3348123D01*
G01X6718513Y-3348123D01*
G01X6718513Y-3348123D01*
G01X6724642Y-3344028D01*
G01X6726381Y-3342289D01*
G01X6729010Y-3340771D01*
G01X6730529Y-3340571D01*
G01X7045062Y-3340571D01*
G01X7047995Y-3341357D01*
G01X7049210Y-3342289D01*
G01X7050949Y-3344028D01*
G01X7053771Y-3345913D01*
G01X7057077Y-3348123D01*
G01X7057078Y-3348123D01*
G01X7058980Y-3348911D01*
G01X7063888Y-3350944D01*
G01X7071117Y-3352382D01*
G01X7078489Y-3352382D01*
G01X7085719Y-3350944D01*
G01X7092529Y-3348123D01*
G01X7098658Y-3344028D01*
G01X7103870Y-3338815D01*
G01X7107965Y-3332686D01*
G01X7110786Y-3325876D01*
G01X7112224Y-3318646D01*
G01X7112224Y-3311275D01*
G01X7110786Y-3304045D01*
G01X7107965Y-3297235D01*
G01X7107863Y-3297082D01*
G01X7106582Y-3295164D01*
G01X7103870Y-3291106D01*
G01X7098658Y-3285894D01*
G01X7095747Y-3283949D01*
G01X7092529Y-3281798D01*
G01X7092529Y-3281798D01*
G01X7087129Y-3279562D01*
G01X7085719Y-3278977D01*
G01X7085718Y-3278977D01*
G01X7085718Y-3278977D01*
G01X7078489Y-3277539D01*
G01X7071117Y-3277539D01*
G01X7063888Y-3278977D01*
G01X7057078Y-3281798D01*
G01X7057077Y-3281798D01*
G01X7050949Y-3285894D01*
G01X7050948Y-3285894D01*
G01X7049210Y-3287632D01*
G01X7046580Y-3289151D01*
G01X7045062Y-3289350D01*
G01X6730529Y-3289350D01*
G01X6727596Y-3288564D01*
G01X6726381Y-3287632D01*
G01X6724642Y-3285894D01*
G01X6724642Y-3285894D01*
G01X6721732Y-3283949D01*
G01X6718513Y-3281798D01*
G01X6718513Y-3281798D01*
G01X6713113Y-3279562D01*
G01X6711703Y-3278977D01*
G01X6711703Y-3278977D01*
G01X6711703Y-3278977D01*
G01X6704473Y-3277539D01*
G01X6697102Y-3277539D01*
G01X6689872Y-3278977D01*
G01X6683062Y-3281798D01*
G01X6683062Y-3281798D01*
G01X6676933Y-3285894D01*
G01X6676933Y-3285894D01*
G01X6671721Y-3291106D01*
G01X6671720Y-3291106D01*
G01X6667625Y-3297235D01*
G01X6667625Y-3297235D01*
G01X6664804Y-3304045D01*
G01X6663366Y-3311275D01*
G01X6663366Y-3318646D01*
G01X6664804Y-3325876D01*
G01X6667625Y-3332686D01*
G01X6667625Y-3332686D01*
G01X6670355Y-3336772D01*
G01X6671720Y-3338815D01*
G01X6676933Y-3344028D01*
G01X6679755Y-3345913D01*
G01X6683062Y-3348123D01*
G01X6683062Y-3348123D01*
G01X6683062Y-3348123D01*
G01X6684495Y-3348717D01*
G01X6684965Y-3348911D01*
G01X6687374Y-3350760D01*
G01X6688536Y-3353565D01*
G01X6688139Y-3356576D01*
G01X6686291Y-3358985D01*
G01X6684965Y-3359750D01*
G01X6683062Y-3360538D01*
G01X6683062Y-3360539D01*
G01X6676933Y-3364634D01*
G01X6676933Y-3364634D01*
G01X6671721Y-3369846D01*
G01X6671720Y-3369846D01*
G01X6667625Y-3375975D01*
G01X6667625Y-3375975D01*
G01X6664804Y-3382785D01*
G01X6663366Y-3390015D01*
G01X6663366Y-3397386D01*
G01X6664804Y-3404616D01*
G01X6667625Y-3411426D01*
G01X6667625Y-3411427D01*
G01X6669407Y-3414093D01*
G01X6671720Y-3417555D01*
G01X6676933Y-3422768D01*
G01X6678014Y-3423490D01*
G01X6683062Y-3426863D01*
G01X6683062Y-3426863D01*
G01X6685057Y-3427689D01*
G01X6689872Y-3429684D01*
G01X6697102Y-3431122D01*
G01X6704473Y-3431122D01*
G01X6711703Y-3429684D01*
G01X6718513Y-3426863D01*
G01X6724642Y-3422768D01*
G01X6726381Y-3421029D01*
G01X6729010Y-3419511D01*
G01X6730529Y-3419311D01*
G01X6782415Y-3419311D01*
G01X6785348Y-3420097D01*
G01X6787495Y-3422244D01*
G01X6788281Y-3425177D01*
G01X6787495Y-3428110D01*
G01X6785863Y-3429923D01*
G01X6785733Y-3430017D01*
G01X6785733Y-3430018D01*
G01X6703708Y-3512042D01*
G01X6701079Y-3513560D01*
G01X6699560Y-3513760D01*
G01X6697102Y-3513760D01*
G01X6689872Y-3515198D01*
G01X6683062Y-3518019D01*
G01X6683062Y-3518019D01*
G01X6676933Y-3522114D01*
G01X6676933Y-3522114D01*
G01X6671721Y-3527326D01*
G01X6671720Y-3527326D01*
G01X6667625Y-3533455D01*
G01X6667625Y-3533456D01*
G01X6664804Y-3540266D01*
G01X6663366Y-3547495D01*
G01X6663366Y-3554867D01*
G01X6664804Y-3562096D01*
G01X6667625Y-3568907D01*
G01X6667625Y-3568907D01*
G01X6669290Y-3571399D01*
G01X6671720Y-3575036D01*
G01X6676933Y-3580248D01*
G01X6678577Y-3581347D01*
G01X6683062Y-3584343D01*
G01X6683062Y-3584343D01*
G01X6684322Y-3584865D01*
G01X6689872Y-3587164D01*
G01X6697102Y-3588602D01*
G01X6704473Y-3588602D01*
G01X6711703Y-3587164D01*
G01X6718513Y-3584343D01*
G01X6724642Y-3580248D01*
G01X6729854Y-3575036D01*
G01X6733950Y-3568907D01*
G01X6736771Y-3562096D01*
G01X6738209Y-3554867D01*
G01X6738209Y-3552408D01*
G01X6738995Y-3549475D01*
G01X6739927Y-3548260D01*
G01X6815977Y-3472210D01*
G01X6818606Y-3470692D01*
G01X6820125Y-3470492D01*
G01X7041204Y-3470492D01*
G01X7044137Y-3471278D01*
G01X7046284Y-3473425D01*
G01X7047070Y-3476358D01*
G01X7046284Y-3479291D01*
G01X7045738Y-3480080D01*
G01X7045736Y-3480082D01*
G01X7041641Y-3486211D01*
G01X7041641Y-3486212D01*
G01X7038820Y-3493022D01*
G01X7037382Y-3500251D01*
G01X7037382Y-3507623D01*
G01X7038787Y-3514688D01*
G01X7038820Y-3514852D01*
G01X7038930Y-3515118D01*
G01X7041641Y-3521662D01*
G01X7041641Y-3521663D01*
G01X7043958Y-3525130D01*
G01X7045736Y-3527792D01*
G01X7050949Y-3533004D01*
G01X7051624Y-3533455D01*
G01X7057077Y-3537099D01*
G01X7057078Y-3537099D01*
G01X7059072Y-3537926D01*
G01X7063888Y-3539920D01*
G01X7071117Y-3541358D01*
G01X7078489Y-3541358D01*
G01X7085719Y-3539920D01*
G01X7091418Y-3537559D01*
G01X7094429Y-3537163D01*
G01X7097234Y-3538325D01*
G01X7099083Y-3540734D01*
G01X7099479Y-3543744D01*
G01X7099083Y-3545224D01*
G01X7097875Y-3548140D01*
G01X7096437Y-3555369D01*
G01X7096437Y-3562741D01*
G01X7096810Y-3564615D01*
G01X7096611Y-3567645D01*
G01X7094924Y-3570169D01*
G01X7093301Y-3571179D01*
G01X7088574Y-3573137D01*
G01X7088573Y-3573137D01*
G01X7082445Y-3577232D01*
G01X7082444Y-3577232D01*
G01X7077232Y-3582444D01*
G01X7077232Y-3582445D01*
G01X7073137Y-3588573D01*
G01X7073137Y-3588574D01*
G01X7070316Y-3595384D01*
G01X7068878Y-3602614D01*
G01X7068878Y-3609985D01*
G01X7070316Y-3617214D01*
G01X7073137Y-3624025D01*
G01X7073137Y-3624025D01*
G01X7075867Y-3628111D01*
G01X7077232Y-3630154D01*
G01X7082445Y-3635366D01*
G01X7086503Y-3638078D01*
G01X7088573Y-3639461D01*
G01X7088574Y-3639462D01*
G01X7090568Y-3640288D01*
G01X7095384Y-3642282D01*
G01X7102614Y-3643720D01*
G01X7109985Y-3643720D01*
G01X7117215Y-3642282D01*
G01X7124025Y-3639461D01*
G01X7130154Y-3635366D01*
G01X7131892Y-3633628D01*
G01X7134522Y-3632109D01*
G01X7136040Y-3631909D01*
G01X7231057Y-3631909D01*
G01X7233990Y-3632695D01*
G01X7235205Y-3633628D01*
G01X7315191Y-3713614D01*
G01X7316710Y-3716244D01*
G01X7316909Y-3717762D01*
G01X7316909Y-3773408D01*
G01X7316124Y-3776341D01*
G01X7315191Y-3777556D01*
G01X7313453Y-3779295D01*
G01X7313453Y-3779295D01*
G01X7309357Y-3785424D01*
G01X7309357Y-3785424D01*
G01X7306536Y-3792234D01*
G01X7305098Y-3799464D01*
G01X7305098Y-3806835D01*
G01X7306536Y-3814065D01*
G01X7309357Y-3820875D01*
G01X7309357Y-3820875D01*
G01X7312088Y-3824961D01*
G01X7313453Y-3827004D01*
G01X7318665Y-3832217D01*
G01X7320560Y-3833483D01*
G01X7324794Y-3836312D01*
G01X7324794Y-3836312D01*
G01X7325911Y-3836775D01*
G01X7331604Y-3839133D01*
G01X7338834Y-3840571D01*
G01X7346205Y-3840571D01*
G01X7353435Y-3839133D01*
G01X7360245Y-3836312D01*
G01X7366374Y-3832217D01*
G01X7371587Y-3827004D01*
G01X7375682Y-3820875D01*
G01X7378503Y-3814065D01*
G01X7379941Y-3806835D01*
G01X7379941Y-3802425D01*
G01X7380727Y-3799492D01*
G01X7382874Y-3797344D01*
G01X7385807Y-3796559D01*
G01X7388740Y-3797344D01*
G01X7389955Y-3798277D01*
G01X7393754Y-3802075D01*
G01X7399633Y-3805701D01*
G01X7402043Y-3806500D01*
G01X7404580Y-3808169D01*
G01X7405943Y-3810882D01*
G01X7405766Y-3813914D01*
G01X7404098Y-3816451D01*
G01X7403646Y-3816814D01*
G01X7398458Y-3820584D01*
G01X7398458Y-3820584D01*
G01X7393419Y-3825623D01*
G01X7393418Y-3825623D01*
G01X7389230Y-3831388D01*
G01X7389230Y-3831388D01*
G01X7385994Y-3837738D01*
G01X7383792Y-3844516D01*
G01X7383792Y-3844516D01*
G01X7383672Y-3845276D01*
G01X7418779Y-3845276D01*
G01X7417483Y-3847520D01*
G01X7416142Y-3852527D01*
G01X7416142Y-3857710D01*
G01X7417483Y-3862716D01*
G01X7418779Y-3864961D01*
G01X7383672Y-3864961D01*
G01X7383792Y-3865720D01*
G01X7383792Y-3865720D01*
G01X7385994Y-3872498D01*
G01X7389230Y-3878848D01*
G01X7389230Y-3878848D01*
G01X7393418Y-3884613D01*
G01X7393419Y-3884613D01*
G01X7398458Y-3889652D01*
G01X7398458Y-3889652D01*
G01X7404223Y-3893841D01*
G01X7404223Y-3893841D01*
G01X7407403Y-3895462D01*
G01X7409660Y-3897494D01*
G01X7410598Y-3900381D01*
G01X7409967Y-3903352D01*
G01X7407935Y-3905608D01*
G01X7407403Y-3905915D01*
G01X7400086Y-3909644D01*
G01X7400086Y-3909644D01*
G01X7393315Y-3914563D01*
G01X7393315Y-3914563D01*
G01X7387398Y-3920481D01*
G01X7387397Y-3920481D01*
G01X7382478Y-3927251D01*
G01X7382478Y-3927251D01*
G01X7378679Y-3934708D01*
G01X7378679Y-3934708D01*
G01X7376897Y-3940193D01*
G01X7376093Y-3942668D01*
G01X7374783Y-3950934D01*
G01X7374783Y-3959303D01*
G01X7376093Y-3967569D01*
G01X7378679Y-3975528D01*
G01X7382478Y-3982985D01*
G01X7387397Y-3989756D01*
G01X7393315Y-3995673D01*
G01X7396411Y-3997923D01*
G01X7399783Y-4000372D01*
G01X7401694Y-4002732D01*
G01X7402169Y-4005731D01*
G01X7401081Y-4008566D01*
G01X7399783Y-4009864D01*
G01X7393315Y-4014563D01*
G01X7393315Y-4014563D01*
G01X7387398Y-4020481D01*
G01X7387397Y-4020481D01*
G01X7382478Y-4027251D01*
G01X7382478Y-4027251D01*
G01X7382478Y-4027251D01*
G01X7378679Y-4034708D01*
G01X7376093Y-4042668D01*
G01X7374783Y-4050934D01*
G01X7374783Y-4059303D01*
G01X7376093Y-4067569D01*
G01X7378679Y-4075528D01*
G01X7382478Y-4082985D01*
G01X7387397Y-4089756D01*
G01X7393315Y-4095673D01*
G01X7400086Y-4100593D01*
G01X7407543Y-4104392D01*
G01X7415502Y-4106978D01*
G01X7423768Y-4108287D01*
G01X7423768Y-4108287D01*
G01X7447885Y-4108287D01*
G01X7447885Y-4108287D01*
G01X7456151Y-4106978D01*
G01X7464111Y-4104392D01*
G01X7471568Y-4100593D01*
G01X7478338Y-4095673D01*
G01X7484256Y-4089756D01*
G01X7489175Y-4082985D01*
G01X7492975Y-4075528D01*
G01X7495561Y-4067569D01*
G01X7496870Y-4059303D01*
G01X7496870Y-4050934D01*
G01X7495561Y-4042668D01*
G01X7492975Y-4034708D01*
G01X7489175Y-4027251D01*
G01X7484256Y-4020481D01*
G01X7478338Y-4014563D01*
G01X7471871Y-4009864D01*
G01X7469960Y-4007504D01*
G01X7469485Y-4004505D01*
G01X7470573Y-4001670D01*
G01X7471871Y-4000372D01*
G01X7472146Y-4000172D01*
G01X7478338Y-3995673D01*
G01X7484256Y-3989756D01*
G01X7489175Y-3982985D01*
G01X7492975Y-3975528D01*
G01X7495561Y-3967569D01*
G01X7496870Y-3959303D01*
G01X7496870Y-3950934D01*
G01X7495561Y-3942668D01*
G01X7492975Y-3934708D01*
G01X7489175Y-3927251D01*
G01X7484256Y-3920481D01*
G01X7478338Y-3914563D01*
G01X7471568Y-3909644D01*
G01X7464250Y-3905915D01*
G01X7461994Y-3903883D01*
G01X7461055Y-3900995D01*
G01X7461686Y-3898025D01*
G01X7463718Y-3895769D01*
G01X7464250Y-3895462D01*
G01X7467430Y-3893841D01*
G01X7467430Y-3893841D01*
G01X7473196Y-3889652D01*
G01X7473196Y-3889652D01*
G01X7478235Y-3884613D01*
G01X7478235Y-3884613D01*
G01X7482424Y-3878848D01*
G01X7482424Y-3878848D01*
G01X7485659Y-3872498D01*
G01X7487861Y-3865720D01*
G01X7487862Y-3865720D01*
G01X7487982Y-3864961D01*
G01X7452874Y-3864961D01*
G01X7454170Y-3862716D01*
G01X7455512Y-3857710D01*
G01X7455512Y-3852527D01*
G01X7454170Y-3847520D01*
G01X7452874Y-3845276D01*
G01X7487982Y-3845276D01*
G01X7487862Y-3844516D01*
G01X7487861Y-3844516D01*
G01X7485659Y-3837738D01*
G01X7482424Y-3831388D01*
G01X7482424Y-3831388D01*
G01X7478235Y-3825623D01*
G01X7478235Y-3825623D01*
G01X7473196Y-3820584D01*
G01X7473196Y-3820584D01*
G01X7468008Y-3816814D01*
G01X7466097Y-3814454D01*
G01X7465622Y-3811455D01*
G01X7466710Y-3808620D01*
G01X7469070Y-3806710D01*
G01X7469610Y-3806500D01*
G01X7472021Y-3805701D01*
G01X7477900Y-3802075D01*
G01X7482784Y-3797191D01*
G01X7486410Y-3791312D01*
G01X7488583Y-3784756D01*
G01X7488996Y-3780709D01*
G01X7488996Y-3729527D01*
G01X7488583Y-3725480D01*
G01X7486410Y-3718924D01*
G01X7482784Y-3713045D01*
G01X7477900Y-3708161D01*
G01X7472021Y-3704535D01*
G01X7468743Y-3703449D01*
G01X7465464Y-3702362D01*
G01X7464577Y-3702272D01*
G01X7461418Y-3701949D01*
G01X7461417Y-3701949D01*
G01X7410236Y-3701949D01*
G01X7406189Y-3702362D01*
G01X7399633Y-3704535D01*
G01X7393754Y-3708161D01*
G01X7388870Y-3713045D01*
G01X7385244Y-3718924D01*
G01X7383071Y-3725480D01*
G01X7382657Y-3729527D01*
G01X7382657Y-3776526D01*
G01X7381872Y-3779459D01*
G01X7379724Y-3781606D01*
G01X7376791Y-3782392D01*
G01X7373858Y-3781606D01*
G01X7372424Y-3780442D01*
G01X7372146Y-3780132D01*
G01X7371587Y-3779295D01*
G01X7369735Y-3777444D01*
G01X7369629Y-3777325D01*
G01X7369012Y-3776108D01*
G01X7368330Y-3774927D01*
G01X7368301Y-3774705D01*
G01X7368256Y-3774616D01*
G01X7368265Y-3774437D01*
G01X7368130Y-3773408D01*
G01X7368130Y-3712878D01*
G01X7368130Y-3709313D01*
G01X7367015Y-3702272D01*
G01X7367015Y-3702272D01*
G01X7367015Y-3702271D01*
G01X7364811Y-3695491D01*
G01X7361575Y-3689138D01*
G01X7361575Y-3689138D01*
G01X7357384Y-3683371D01*
G01X7357384Y-3683370D01*
G01X7357384Y-3683370D01*
G01X7354863Y-3680850D01*
G01X7352823Y-3678809D01*
G01X7268693Y-3594679D01*
G01X7267175Y-3592050D01*
G01X7267175Y-3589013D01*
G01X7268693Y-3586384D01*
G01X7271323Y-3584865D01*
G01X7272841Y-3584665D01*
G01X7530299Y-3584665D01*
G01X7533185Y-3584665D01*
G01X7536750Y-3584665D01*
G01X7543791Y-3583550D01*
G01X7543791Y-3583550D01*
G01X7543792Y-3583550D01*
G01X7543792Y-3583550D01*
G01X7550572Y-3581347D01*
G01X7556925Y-3578110D01*
G01X7562693Y-3573919D01*
G01X7565213Y-3571399D01*
G01X7567254Y-3569358D01*
G01X7674244Y-3462368D01*
G01X7676874Y-3460849D01*
G01X7678392Y-3460650D01*
G01X7680851Y-3460650D01*
G01X7688081Y-3459212D01*
G01X7694891Y-3456391D01*
G01X7701020Y-3452295D01*
G01X7702584Y-3450731D01*
G01X7705214Y-3449213D01*
G01X7708251Y-3449213D01*
G01X7710880Y-3450731D01*
G01X7712399Y-3453361D01*
G01X7712598Y-3454879D01*
G01X7712598Y-4383878D01*
G01X7711813Y-4386811D01*
G01X7709665Y-4388958D01*
G01X7706732Y-4389744D01*
G01X6793933Y-4389744D01*
G01X6788744Y-4389744D01*
G01X6783733Y-4391087D01*
G01X6783733Y-4391087D01*
G01X6783733Y-4391087D01*
G01X6779240Y-4393681D01*
G01X6775571Y-4397350D01*
G01X6772977Y-4401843D01*
G01X6771634Y-4406855D01*
G01X6771634Y-4678174D01*
G01X6770848Y-4681107D01*
G01X6768701Y-4683254D01*
G01X6765768Y-4684040D01*
G01X6762835Y-4683254D01*
G01X6760775Y-4681253D01*
G01X6758875Y-4678174D01*
G01X6757193Y-4675447D01*
G01X6752309Y-4670563D01*
G01X6748476Y-4668198D01*
G01X6746392Y-4665989D01*
G01X6745689Y-4663205D01*
G01X6745689Y-4602098D01*
G01X6746475Y-4599165D01*
G01X6746562Y-4599018D01*
G01X6749008Y-4595053D01*
G01X6751181Y-4588496D01*
G01X6751594Y-4584449D01*
G01X6751594Y-4548031D01*
G01X6751181Y-4543984D01*
G01X6749008Y-4537428D01*
G01X6745382Y-4531549D01*
G01X6740498Y-4526665D01*
G01X6734619Y-4523039D01*
G01X6729249Y-4521259D01*
G01X6728063Y-4520866D01*
G01X6727388Y-4520797D01*
G01X6724016Y-4520453D01*
G01X6724016Y-4520453D01*
G01X6668897Y-4520453D01*
G01X6664850Y-4520866D01*
G01X6658294Y-4523039D01*
G01X6652415Y-4526665D01*
G01X6649682Y-4529398D01*
G01X6647531Y-4531549D01*
G01X6646534Y-4533165D01*
G01X6646381Y-4533414D01*
G01X6645336Y-4534400D01*
G01X6644321Y-4535415D01*
G01X6644236Y-4535438D01*
G01X6644172Y-4535498D01*
G01X6641388Y-4536201D01*
G01X6632431Y-4536201D01*
G01X6629498Y-4535415D01*
G01X6627438Y-4533414D01*
G01X6626288Y-4531549D01*
G01X6621404Y-4526665D01*
G01X6615525Y-4523039D01*
G01X6610154Y-4521259D01*
G01X6608968Y-4520866D01*
G01X6608159Y-4520783D01*
G01X6604922Y-4520453D01*
G01X6604921Y-4520453D01*
G01X6568606Y-4520453D01*
G01X6565673Y-4519667D01*
G01X6564458Y-4518735D01*
G01X6550950Y-4505227D01*
G01X6549432Y-4502598D01*
G01X6549232Y-4501079D01*
G01X6549232Y-4496405D01*
G01X6549232Y-4496405D01*
G01X6548020Y-4488751D01*
G01X6548020Y-4488751D01*
G01X6547966Y-4488527D01*
G01X6548016Y-4488516D01*
G01X6547871Y-4485749D01*
G01X6549250Y-4483043D01*
G01X6551796Y-4481389D01*
G01X6553609Y-4481102D01*
G01X6568504Y-4481102D01*
G01X6588189Y-4481102D01*
G01X6604648Y-4481102D01*
G01X6604648Y-4481102D01*
G01X6608128Y-4480684D01*
G01X6613665Y-4478501D01*
G01X6618408Y-4474904D01*
G01X6618408Y-4474904D01*
G01X6622005Y-4470161D01*
G01X6624188Y-4464624D01*
G01X6624606Y-4461144D01*
G01X6649213Y-4461144D01*
G01X6649630Y-4464624D01*
G01X6651814Y-4470161D01*
G01X6655411Y-4474904D01*
G01X6655411Y-4474904D01*
G01X6660154Y-4478501D01*
G01X6660154Y-4478501D01*
G01X6665691Y-4480684D01*
G01X6669171Y-4481102D01*
G01X6669171Y-4481102D01*
G01X6686614Y-4481102D01*
G01X6706299Y-4481102D01*
G01X6723742Y-4481102D01*
G01X6723743Y-4481102D01*
G01X6727222Y-4480684D01*
G01X6732760Y-4478501D01*
G01X6737502Y-4474904D01*
G01X6737503Y-4474904D01*
G01X6741099Y-4470161D01*
G01X6743283Y-4464624D01*
G01X6743701Y-4461144D01*
G01X6743701Y-4461144D01*
G01X6743701Y-4453051D01*
G01X6706299Y-4453051D01*
G01X6706299Y-4481102D01*
G01X6686614Y-4481102D01*
G01X6686614Y-4453051D01*
G01X6649213Y-4453051D01*
G01X6649213Y-4461144D01*
G01X6624606Y-4461144D01*
G01X6624606Y-4461144D01*
G01X6624606Y-4453543D01*
G01X6588189Y-4453543D01*
G01X6588189Y-4481102D01*
G01X6568504Y-4481102D01*
G01X6568504Y-4453543D01*
G01X6532087Y-4453543D01*
G01X6531635Y-4453994D01*
G01X6530524Y-4454636D01*
G01X6529006Y-4455513D01*
G01X6525969Y-4455513D01*
G01X6523340Y-4453994D01*
G01X6516108Y-4446763D01*
G01X6514590Y-4444133D01*
G01X6514390Y-4442615D01*
G01X6514390Y-4426257D01*
G01X6532087Y-4426257D01*
G01X6532087Y-4433858D01*
G01X6568504Y-4433858D01*
G01X6588189Y-4433858D01*
G01X6624606Y-4433858D01*
G01X6624606Y-4426258D01*
G01X6624551Y-4425798D01*
G01X6624551Y-4425797D01*
G01X6624488Y-4425273D01*
G01X6649213Y-4425273D01*
G01X6649213Y-4433366D01*
G01X6686614Y-4433366D01*
G01X6706299Y-4433366D01*
G01X6743701Y-4433366D01*
G01X6743701Y-4425273D01*
G01X6743701Y-4425273D01*
G01X6743283Y-4421794D01*
G01X6741099Y-4416256D01*
G01X6737503Y-4411513D01*
G01X6737502Y-4411513D01*
G01X6732760Y-4407916D01*
G01X6732760Y-4407916D01*
G01X6727222Y-4405733D01*
G01X6723743Y-4405315D01*
G01X6706299Y-4405315D01*
G01X6706299Y-4433366D01*
G01X6686614Y-4433366D01*
G01X6686614Y-4405315D01*
G01X6669171Y-4405315D01*
G01X6665691Y-4405733D01*
G01X6660154Y-4407916D01*
G01X6655411Y-4411513D01*
G01X6655411Y-4411513D01*
G01X6651814Y-4416256D01*
G01X6649630Y-4421794D01*
G01X6649213Y-4425273D01*
G01X6624488Y-4425273D01*
G01X6624188Y-4422778D01*
G01X6622005Y-4417240D01*
G01X6618408Y-4412498D01*
G01X6618408Y-4412497D01*
G01X6613665Y-4408901D01*
G01X6613665Y-4408901D01*
G01X6608128Y-4406717D01*
G01X6604648Y-4406299D01*
G01X6588189Y-4406299D01*
G01X6588189Y-4433858D01*
G01X6568504Y-4433858D01*
G01X6568504Y-4406299D01*
G01X6552045Y-4406299D01*
G01X6548565Y-4406717D01*
G01X6543028Y-4408901D01*
G01X6538285Y-4412497D01*
G01X6538285Y-4412498D01*
G01X6534688Y-4417240D01*
G01X6532504Y-4422778D01*
G01X6532087Y-4426257D01*
G01X6514390Y-4426257D01*
G01X6514390Y-4425984D01*
G01X6514379Y-4425874D01*
G01X6513976Y-4421937D01*
G01X6511804Y-4415381D01*
G01X6508178Y-4409502D01*
G01X6503294Y-4404618D01*
G01X6497415Y-4400992D01*
G01X6493373Y-4399652D01*
G01X6490858Y-4398819D01*
G01X6490184Y-4398750D01*
G01X6486811Y-4398406D01*
G01X6486811Y-4398406D01*
G01X6433661Y-4398406D01*
G01X6429614Y-4398819D01*
G01X6429614Y-4398819D01*
G01X6423085Y-4400982D01*
G01X6420054Y-4401159D01*
G01X6417340Y-4399796D01*
G01X6415672Y-4397259D01*
G01X6415374Y-4395414D01*
G01X6415374Y-4313038D01*
G01X6416160Y-4310105D01*
G01X6417092Y-4308890D01*
G01X6575425Y-4150557D01*
G01X6578055Y-4149038D01*
G01X6579573Y-4148839D01*
G01X6582032Y-4148839D01*
G01X6589262Y-4147401D01*
G01X6596072Y-4144580D01*
G01X6602201Y-4140484D01*
G01X6607413Y-4135272D01*
G01X6611509Y-4129143D01*
G01X6614330Y-4122333D01*
G01X6615768Y-4115103D01*
G01X6615768Y-4112644D01*
G01X6616554Y-4109711D01*
G01X6617486Y-4108496D01*
G01X6891567Y-3834415D01*
G01X6894197Y-3832897D01*
G01X6895715Y-3832697D01*
G01X6963763Y-3832697D01*
G01X6966696Y-3833483D01*
G01X6967911Y-3834415D01*
G01X6969649Y-3836154D01*
G01X6973708Y-3838865D01*
G01X6975778Y-3840249D01*
G01X6975778Y-3840249D01*
G01X6976556Y-3840571D01*
G01X6982589Y-3843070D01*
G01X6989818Y-3844508D01*
G01X6997190Y-3844508D01*
G01X7004419Y-3843070D01*
G01X7011230Y-3840249D01*
G01X7017359Y-3836154D01*
G01X7022571Y-3830941D01*
G01X7026666Y-3824812D01*
G01X7029487Y-3818002D01*
G01X7030925Y-3810772D01*
G01X7030925Y-3803401D01*
G01X7030731Y-3802425D01*
G01X7030424Y-3800879D01*
G01X7029487Y-3796171D01*
G01X7026666Y-3789361D01*
G01X7026364Y-3788909D01*
G01X7025283Y-3787290D01*
G01X7022571Y-3783232D01*
G01X7017359Y-3778020D01*
G01X7012398Y-3774705D01*
G01X7011230Y-3773924D01*
G01X7011229Y-3773924D01*
G01X7005141Y-3771402D01*
G01X7004419Y-3771103D01*
G01X7004419Y-3771103D01*
G01X7004419Y-3771103D01*
G01X6997190Y-3769665D01*
G01X6989818Y-3769665D01*
G01X6982589Y-3771103D01*
G01X6975778Y-3773924D01*
G01X6975778Y-3773924D01*
G01X6969649Y-3778020D01*
G01X6969649Y-3778020D01*
G01X6967911Y-3779758D01*
G01X6965281Y-3781276D01*
G01X6963763Y-3781476D01*
G01X6890831Y-3781476D01*
G01X6887266Y-3781476D01*
G01X6887266Y-3781476D01*
G01X6887266Y-3781476D01*
G01X6884449Y-3781922D01*
G01X6880224Y-3782592D01*
G01X6880224Y-3782592D01*
G01X6873443Y-3784795D01*
G01X6867091Y-3788032D01*
G01X6867091Y-3788032D01*
G01X6861323Y-3792222D01*
G01X6861323Y-3792222D01*
G01X6859825Y-3793720D01*
G01X6581268Y-4072278D01*
G01X6578638Y-4073796D01*
G01X6577120Y-4073996D01*
G01X6574661Y-4073996D01*
G01X6567431Y-4075434D01*
G01X6560621Y-4078255D01*
G01X6560621Y-4078255D01*
G01X6554492Y-4082350D01*
G01X6554492Y-4082350D01*
G01X6549280Y-4087563D01*
G01X6549279Y-4087563D01*
G01X6545184Y-4093691D01*
G01X6545184Y-4093692D01*
G01X6542363Y-4100502D01*
G01X6540925Y-4107732D01*
G01X6540925Y-4110190D01*
G01X6540139Y-4113123D01*
G01X6539207Y-4114338D01*
G01X6382081Y-4271464D01*
G01X6379451Y-4272983D01*
G01X6376415Y-4272983D01*
G01X6373785Y-4271464D01*
G01X6372267Y-4268835D01*
G01X6372067Y-4267316D01*
G01X6372067Y-4218550D01*
G01X6372853Y-4215617D01*
G01X6373785Y-4214402D01*
G01X6437630Y-4150557D01*
G01X6440260Y-4149038D01*
G01X6441778Y-4148839D01*
G01X6444237Y-4148839D01*
G01X6451467Y-4147401D01*
G01X6458277Y-4144580D01*
G01X6464406Y-4140484D01*
G01X6469618Y-4135272D01*
G01X6473713Y-4129143D01*
G01X6476534Y-4122333D01*
G01X6477972Y-4115103D01*
G01X6477972Y-4112644D01*
G01X6478758Y-4109711D01*
G01X6479691Y-4108496D01*
G01X6789205Y-3798982D01*
G01X6791835Y-3797464D01*
G01X6793353Y-3797264D01*
G01X6795812Y-3797264D01*
G01X6803041Y-3795826D01*
G01X6809852Y-3793005D01*
G01X6815981Y-3788910D01*
G01X6821193Y-3783697D01*
G01X6825288Y-3777568D01*
G01X6828109Y-3770758D01*
G01X6829547Y-3763528D01*
G01X6829547Y-3756157D01*
G01X6829434Y-3755586D01*
G01X6828968Y-3753246D01*
G01X6828109Y-3748927D01*
G01X6825447Y-3742500D01*
G01X6825288Y-3742117D01*
G01X6825288Y-3742117D01*
G01X6822971Y-3738649D01*
G01X6821193Y-3735988D01*
G01X6815981Y-3730776D01*
G01X6813938Y-3729410D01*
G01X6809852Y-3726680D01*
G01X6809851Y-3726680D01*
G01X6804452Y-3724444D01*
G01X6803041Y-3723859D01*
G01X6803041Y-3723859D01*
G01X6803041Y-3723859D01*
G01X6795812Y-3722421D01*
G01X6788440Y-3722421D01*
G01X6781211Y-3723859D01*
G01X6774401Y-3726680D01*
G01X6774400Y-3726680D01*
G01X6768271Y-3730775D01*
G01X6768271Y-3730776D01*
G01X6763059Y-3735988D01*
G01X6763059Y-3735988D01*
G01X6758964Y-3742117D01*
G01X6758964Y-3742117D01*
G01X6756143Y-3748927D01*
G01X6754705Y-3756157D01*
G01X6754705Y-3758616D01*
G01X6753919Y-3761549D01*
G01X6752987Y-3762764D01*
G01X6443472Y-4072278D01*
G01X6440843Y-4073796D01*
G01X6439324Y-4073996D01*
G01X6436866Y-4073996D01*
G01X6429636Y-4075434D01*
G01X6422826Y-4078255D01*
G01X6422825Y-4078255D01*
G01X6416697Y-4082350D01*
G01X6416696Y-4082350D01*
G01X6411484Y-4087563D01*
G01X6411484Y-4087563D01*
G01X6407389Y-4093691D01*
G01X6407389Y-4093692D01*
G01X6404568Y-4100502D01*
G01X6403130Y-4107732D01*
G01X6403130Y-4110190D01*
G01X6402344Y-4113123D01*
G01X6401412Y-4114338D01*
G01X6334113Y-4181637D01*
G01X6331593Y-4184158D01*
G01X6331592Y-4184158D01*
G01X6327402Y-4189926D01*
G01X6327402Y-4189926D01*
G01X6324165Y-4196278D01*
G01X6321962Y-4203059D01*
G01X6321962Y-4203059D01*
G01X6321681Y-4204835D01*
G01X6320846Y-4210101D01*
G01X6320846Y-4210101D01*
G01X6320846Y-4210101D01*
G01X6320846Y-4212568D01*
G01X6320846Y-4246844D01*
G01X6320061Y-4249777D01*
G01X6317913Y-4251924D01*
G01X6314980Y-4252710D01*
G01X6312047Y-4251924D01*
G01X6310832Y-4250992D01*
G01X6220832Y-4160992D01*
G01X6219314Y-4158362D01*
G01X6219114Y-4156844D01*
G01X6219114Y-4132677D01*
G01X6219114Y-4132677D01*
G01X6218701Y-4128630D01*
G01X6216528Y-4122073D01*
G01X6212902Y-4116195D01*
G01X6208018Y-4111311D01*
G01X6202139Y-4107684D01*
G01X6198861Y-4106598D01*
G01X6195583Y-4105512D01*
G01X6194908Y-4105443D01*
G01X6191536Y-4105098D01*
G01X6191536Y-4105098D01*
G01X6138386Y-4105098D01*
G01X6134339Y-4105512D01*
G01X6127782Y-4107684D01*
G01X6121903Y-4111311D01*
G01X6117019Y-4116195D01*
G01X6113440Y-4121997D01*
G01X6111232Y-4124081D01*
G01X6108448Y-4124783D01*
G01X6083678Y-4124783D01*
G01X6080745Y-4123998D01*
G01X6078686Y-4121997D01*
G01X6075107Y-4116195D01*
G01X6070223Y-4111311D01*
G01X6068627Y-4110326D01*
G01X6064344Y-4107684D01*
G01X6061066Y-4106598D01*
G01X6057787Y-4105512D01*
G01X6057113Y-4105443D01*
G01X6053741Y-4105098D01*
G01X6053740Y-4105098D01*
G01X6000590Y-4105098D01*
G01X5996543Y-4105512D01*
G01X5989987Y-4107684D01*
G01X5984108Y-4111311D01*
G01X5979224Y-4116195D01*
G01X5975949Y-4121505D01*
G01X5973740Y-4123589D01*
G01X5970956Y-4124291D01*
G01X5947152Y-4124291D01*
G01X5944219Y-4123505D01*
G01X5942072Y-4121358D01*
G01X5941986Y-4121194D01*
G01X5941922Y-4121089D01*
G01X5938296Y-4115210D01*
G01X5933412Y-4110326D01*
G01X5927533Y-4106700D01*
G01X5922699Y-4105098D01*
G01X5920976Y-4104528D01*
G01X5920302Y-4104459D01*
G01X5916929Y-4104114D01*
G01X5916929Y-4104114D01*
G01X5861811Y-4104114D01*
G01X5857764Y-4104528D01*
G01X5851207Y-4106700D01*
G01X5845328Y-4110326D01*
G01X5840444Y-4115210D01*
G01X5836639Y-4121380D01*
G01X5836551Y-4121326D01*
G01X5834952Y-4123231D01*
G01X5832099Y-4124269D01*
G01X5831588Y-4124291D01*
G01X5725932Y-4124291D01*
G01X5722999Y-4123505D01*
G01X5721784Y-4122573D01*
G01X5710907Y-4111696D01*
G01X5709722Y-4109718D01*
G01X5709624Y-4109758D01*
G01X5708785Y-4107732D01*
G01X5707287Y-4104114D01*
G01X5704053Y-4099275D01*
G01X5694697Y-4089918D01*
G01X5693178Y-4087289D01*
G01X5693051Y-4084853D01*
G01X5693917Y-4079381D01*
G01X5693917Y-4071012D01*
G01X5692608Y-4062746D01*
G01X5690022Y-4054787D01*
G01X5686222Y-4047330D01*
G01X5681303Y-4040559D01*
G01X5675386Y-4034642D01*
G01X5668615Y-4029722D01*
G01X5661158Y-4025923D01*
G01X5653199Y-4023337D01*
G01X5644933Y-4022028D01*
G01X5620815Y-4022028D01*
G01X5613927Y-4023119D01*
G01X5612549Y-4023337D01*
G01X5604590Y-4025923D01*
G01X5604590Y-4025923D01*
G01X5604590Y-4025923D01*
G01X5604590Y-4025923D01*
G01X5597133Y-4029722D01*
G01X5597133Y-4029722D01*
G01X5590363Y-4034642D01*
G01X5590362Y-4034642D01*
G01X5584445Y-4040559D01*
G01X5584445Y-4040559D01*
G01X5579526Y-4047330D01*
G01X5579526Y-4047330D01*
G01X5579526Y-4047330D01*
G01X5575726Y-4054787D01*
G01X5573140Y-4062746D01*
G01X5571831Y-4071012D01*
G01X5571831Y-4079381D01*
G01X5573140Y-4087647D01*
G01X5575726Y-4095607D01*
G01X5577595Y-4099275D01*
G01X5579526Y-4103064D01*
G01X5579526Y-4103064D01*
G01X5580289Y-4104114D01*
G01X5584445Y-4109834D01*
G01X5590363Y-4115752D01*
G01X5592632Y-4117401D01*
G01X5592779Y-4117508D01*
G01X5594690Y-4119868D01*
G01X5595165Y-4122867D01*
G01X5594077Y-4125702D01*
G01X5592411Y-4127247D01*
G01X5590801Y-4128240D01*
G01X5585917Y-4133124D01*
G01X5582291Y-4139003D01*
G01X5580118Y-4145559D01*
G01X5580118Y-4145559D01*
G01X5579783Y-4148839D01*
G01X5579705Y-4149606D01*
G01X5579705Y-4200788D01*
G01X5579764Y-4201368D01*
G01X5580118Y-4204835D01*
G01X5582291Y-4211391D01*
G01X5585917Y-4217270D01*
G01X5590801Y-4222154D01*
G01X5596680Y-4225780D01*
G01X5603236Y-4227953D01*
G01X5607283Y-4228366D01*
G01X5658465Y-4228366D01*
G01X5662512Y-4227953D01*
G01X5669068Y-4225780D01*
G01X5674947Y-4222154D01*
G01X5679831Y-4217270D01*
G01X5683457Y-4211391D01*
G01X5684424Y-4208474D01*
G01X5686093Y-4205937D01*
G01X5688806Y-4204574D01*
G01X5688840Y-4204567D01*
G01X5693658Y-4203609D01*
G01X5699035Y-4201381D01*
G01X5699035Y-4201381D01*
G01X5699301Y-4201271D01*
G01X5699341Y-4201368D01*
G01X5701579Y-4200807D01*
G01X5792080Y-4200807D01*
G01X5795013Y-4201593D01*
G01X5796228Y-4202525D01*
G01X5816605Y-4222902D01*
G01X5818645Y-4224942D01*
G01X5821166Y-4227463D01*
G01X5826934Y-4231653D01*
G01X5833286Y-4234890D01*
G01X5840067Y-4237093D01*
G01X5840606Y-4237179D01*
G01X5843380Y-4238414D01*
G01X5845165Y-4240870D01*
G01X5845483Y-4243890D01*
G01X5844802Y-4245848D01*
G01X5844728Y-4245980D01*
G01X5842544Y-4251518D01*
G01X5842126Y-4254998D01*
G01X5842126Y-4263091D01*
G01X5936614Y-4263091D01*
G01X5936614Y-4254998D01*
G01X5936614Y-4254998D01*
G01X5936196Y-4251518D01*
G01X5934110Y-4246227D01*
G01X5933765Y-4243210D01*
G01X5934975Y-4240425D01*
G01X5937415Y-4238618D01*
G01X5939567Y-4238209D01*
G01X5977953Y-4238209D01*
G01X5980886Y-4238995D01*
G01X5983033Y-4241142D01*
G01X5983819Y-4244075D01*
G01X5983410Y-4246227D01*
G01X5981323Y-4251518D01*
G01X5980906Y-4254998D01*
G01X5980906Y-4262598D01*
G01X6073425Y-4262598D01*
G01X6073425Y-4254998D01*
G01X6073425Y-4254998D01*
G01X6073007Y-4251518D01*
G01X6070921Y-4246227D01*
G01X6070576Y-4243210D01*
G01X6071786Y-4240425D01*
G01X6074226Y-4238618D01*
G01X6076378Y-4238209D01*
G01X6107229Y-4238209D01*
G01X6110162Y-4238995D01*
G01X6112309Y-4241142D01*
G01X6113095Y-4244075D01*
G01X6112797Y-4245920D01*
G01X6112491Y-4246844D01*
G01X6111221Y-4250677D01*
G01X6110807Y-4254724D01*
G01X6110807Y-4290158D01*
G01X6110880Y-4290869D01*
G01X6111221Y-4294205D01*
G01X6113393Y-4300761D01*
G01X6117019Y-4306640D01*
G01X6121903Y-4311524D01*
G01X6127782Y-4315150D01*
G01X6134339Y-4317323D01*
G01X6138385Y-4317736D01*
G01X6180663Y-4317736D01*
G01X6183596Y-4318522D01*
G01X6184811Y-4319454D01*
G01X6201018Y-4335662D01*
G01X6202536Y-4338291D01*
G01X6202736Y-4339810D01*
G01X6202736Y-4399971D01*
G01X6201950Y-4402904D01*
G01X6199803Y-4405052D01*
G01X6196870Y-4405837D01*
G01X6196104Y-4405742D01*
G01X6196100Y-4405778D01*
G01X6192246Y-4405315D01*
G01X6174803Y-4405315D01*
G01X6174803Y-4481102D01*
G01X6192246Y-4481102D01*
G01X6192246Y-4481102D01*
G01X6196100Y-4480640D01*
G01X6196115Y-4480769D01*
G01X6198467Y-4480801D01*
G01X6201075Y-4482356D01*
G01X6202557Y-4485006D01*
G01X6202736Y-4486446D01*
G01X6202736Y-4498773D01*
G01X6201950Y-4501706D01*
G01X6201018Y-4502921D01*
G01X6185204Y-4518735D01*
G01X6182575Y-4520253D01*
G01X6181056Y-4520453D01*
G01X6137401Y-4520453D01*
G01X6133354Y-4520866D01*
G01X6126798Y-4523039D01*
G01X6120919Y-4526665D01*
G01X6116035Y-4531549D01*
G01X6112409Y-4537428D01*
G01X6112266Y-4537735D01*
G01X6110314Y-4540061D01*
G01X6107460Y-4541100D01*
G01X6106949Y-4541122D01*
G01X6083596Y-4541122D01*
G01X6080663Y-4540336D01*
G01X6078603Y-4538335D01*
G01X6078233Y-4537735D01*
G01X6078060Y-4537454D01*
G01X6073175Y-4532570D01*
G01X6067297Y-4528944D01*
G01X6064018Y-4527858D01*
G01X6060740Y-4526772D01*
G01X6059695Y-4526665D01*
G01X6056693Y-4526358D01*
G01X6056693Y-4526358D01*
G01X5997638Y-4526358D01*
G01X5993591Y-4526772D01*
G01X5987034Y-4528944D01*
G01X5981155Y-4532570D01*
G01X5976271Y-4537454D01*
G01X5972645Y-4543333D01*
G01X5970472Y-4549890D01*
G01X5970472Y-4549890D01*
G01X5970210Y-4552457D01*
G01X5970059Y-4553937D01*
G01X5970059Y-4579528D01*
G01X5970059Y-4579528D01*
G01X5970472Y-4583575D01*
G01X5972645Y-4590131D01*
G01X5976271Y-4596010D01*
G01X5981155Y-4600894D01*
G01X5987034Y-4604520D01*
G01X5993591Y-4606693D01*
G01X5996285Y-4606968D01*
G01X5999123Y-4608048D01*
G01X6001041Y-4610402D01*
G01X6001555Y-4612804D01*
G01X6001555Y-4629230D01*
G01X6000769Y-4632163D01*
G01X5998622Y-4634310D01*
G01X5996838Y-4634887D01*
G01X5996857Y-4634972D01*
G01X5996543Y-4635039D01*
G01X5989987Y-4637212D01*
G01X5984108Y-4640838D01*
G01X5979224Y-4645722D01*
G01X5975598Y-4651601D01*
G01X5973425Y-4658158D01*
G01X5973012Y-4662205D01*
G01X5973012Y-4697638D01*
G01X5973161Y-4699103D01*
G01X5973425Y-4701685D01*
G01X5975598Y-4708241D01*
G01X5979224Y-4714120D01*
G01X5984108Y-4719004D01*
G01X5989987Y-4722630D01*
G01X5996543Y-4724803D01*
G01X6000590Y-4725217D01*
G01X6053740Y-4725216D01*
G01X6057787Y-4724803D01*
G01X6064344Y-4722630D01*
G01X6070223Y-4719004D01*
G01X6075107Y-4714120D01*
G01X6078733Y-4708241D01*
G01X6080905Y-4701685D01*
G01X6081319Y-4697638D01*
G01X6081319Y-4662204D01*
G01X6080905Y-4658158D01*
G01X6078733Y-4651601D01*
G01X6075107Y-4645722D01*
G01X6070223Y-4640838D01*
G01X6064344Y-4637212D01*
G01X6061066Y-4636126D01*
G01X6057787Y-4635039D01*
G01X6057474Y-4634972D01*
G01X6057499Y-4634858D01*
G01X6055206Y-4633985D01*
G01X6053289Y-4631630D01*
G01X6052776Y-4629230D01*
G01X6052776Y-4612804D01*
G01X6053561Y-4609871D01*
G01X6055709Y-4607724D01*
G01X6058045Y-4606968D01*
G01X6060740Y-4606693D01*
G01X6067297Y-4604520D01*
G01X6073175Y-4600894D01*
G01X6078060Y-4596010D01*
G01X6078603Y-4595129D01*
G01X6080812Y-4593045D01*
G01X6083596Y-4592343D01*
G01X6107463Y-4592343D01*
G01X6110396Y-4593128D01*
G01X6112456Y-4595129D01*
G01X6116035Y-4600931D01*
G01X6116035Y-4600931D01*
G01X6120919Y-4605815D01*
G01X6126798Y-4609441D01*
G01X6133354Y-4611614D01*
G01X6135852Y-4611869D01*
G01X6137001Y-4612307D01*
G01X6138189Y-4612625D01*
G01X6138405Y-4612841D01*
G01X6138690Y-4612949D01*
G01X6139467Y-4613902D01*
G01X6140336Y-4614772D01*
G01X6140415Y-4615067D01*
G01X6140608Y-4615303D01*
G01X6141122Y-4617705D01*
G01X6141122Y-4628145D01*
G01X6140336Y-4631078D01*
G01X6138189Y-4633225D01*
G01X6135852Y-4633981D01*
G01X6135126Y-4634055D01*
G01X6135126Y-4634055D01*
G01X6128570Y-4636228D01*
G01X6122691Y-4639854D01*
G01X6117807Y-4644738D01*
G01X6114181Y-4650617D01*
G01X6112008Y-4657173D01*
G01X6111594Y-4661220D01*
G01X6111594Y-4697638D01*
G01X6111744Y-4699103D01*
G01X6112008Y-4701685D01*
G01X6114181Y-4708241D01*
G01X6117807Y-4714120D01*
G01X6122691Y-4719004D01*
G01X6128570Y-4722630D01*
G01X6135126Y-4724803D01*
G01X6139173Y-4725217D01*
G01X6194292Y-4725216D01*
G01X6198338Y-4724803D01*
G01X6204895Y-4722630D01*
G01X6210774Y-4719004D01*
G01X6215658Y-4714120D01*
G01X6219284Y-4708241D01*
G01X6219284Y-4708241D01*
G01X6219422Y-4708018D01*
G01X6219434Y-4707972D01*
G01X6220333Y-4707074D01*
G01X6221150Y-4706100D01*
G01X6221396Y-4706010D01*
G01X6221581Y-4705825D01*
G01X6222809Y-4705496D01*
G01X6224004Y-4705062D01*
G01X6224514Y-4705039D01*
G01X6228823Y-4705039D01*
G01X6231708Y-4705039D01*
G01X6235273Y-4705039D01*
G01X6242315Y-4703924D01*
G01X6242315Y-4703924D01*
G01X6242315Y-4703924D01*
G01X6242315Y-4703924D01*
G01X6249096Y-4701721D01*
G01X6254837Y-4698796D01*
G01X6257807Y-4698164D01*
G01X6260695Y-4699103D01*
G01X6262727Y-4701359D01*
G01X6263366Y-4704022D01*
G01X6263366Y-4719705D01*
G01X6263011Y-4721489D01*
G01X6263052Y-4721500D01*
G01X6262952Y-4721871D01*
G01X6262382Y-4726204D01*
G01X6262382Y-4775370D01*
G01X6262814Y-4778652D01*
G01X6262952Y-4779704D01*
G01X6263432Y-4780861D01*
G01X6265186Y-4785096D01*
G01X6265186Y-4785096D01*
G01X6268739Y-4789726D01*
G01X6273369Y-4793279D01*
G01X6273369Y-4793279D01*
G01X6273369Y-4793279D01*
G01X6278761Y-4795512D01*
G01X6278761Y-4795512D01*
G01X6280325Y-4795718D01*
G01X6283094Y-4796083D01*
G01X6290921Y-4796083D01*
G01X6295255Y-4795512D01*
G01X6295255Y-4795512D01*
G01X6295332Y-4795492D01*
G01X6295411Y-4795492D01*
G01X6295636Y-4795462D01*
G01X6295640Y-4795492D01*
G01X6298061Y-4795491D01*
G01X6298065Y-4795462D01*
G01X6298287Y-4795491D01*
G01X6298368Y-4795491D01*
G01X6298369Y-4795492D01*
G01X6298446Y-4795512D01*
G01X6298446Y-4795512D01*
G01X6298446Y-4795512D01*
G01X6298446Y-4795512D01*
G01X6298944Y-4795578D01*
G01X6302779Y-4796083D01*
G01X6310606Y-4796083D01*
G01X6314940Y-4795512D01*
G01X6320332Y-4793279D01*
G01X6322807Y-4791380D01*
G01X6325612Y-4790218D01*
G01X6328623Y-4790614D01*
G01X6329085Y-4790829D01*
G01X6329541Y-4791066D01*
G01X6332424Y-4793279D01*
G01X6337816Y-4795512D01*
G01X6338181Y-4795560D01*
G01X6338947Y-4795959D01*
G01X6339610Y-4796566D01*
G01X6340388Y-4797015D01*
G01X6340711Y-4797574D01*
G01X6341186Y-4798009D01*
G01X6341457Y-4798866D01*
G01X6341906Y-4799644D01*
G01X6342052Y-4800751D01*
G01X6342101Y-4800905D01*
G01X6342083Y-4800985D01*
G01X6342106Y-4801163D01*
G01X6342106Y-4811821D01*
G01X6341660Y-4814066D01*
G01X6341122Y-4815364D01*
G01X6341122Y-4815365D01*
G01X6341122Y-4815365D01*
G01X6340138Y-4820312D01*
G01X6340138Y-4873182D01*
G01X6339352Y-4876116D01*
G01X6338420Y-4877330D01*
G01X6226403Y-4989347D01*
G01X6223773Y-4990866D01*
G01X6220737Y-4990866D01*
G01X6218107Y-4989347D01*
G01X6216589Y-4986718D01*
G01X6216589Y-4983681D01*
G01X6216686Y-4983356D01*
G01X6218701Y-4977275D01*
G01X6219114Y-4973229D01*
G01X6219114Y-4937795D01*
G01X6218701Y-4933748D01*
G01X6216528Y-4927192D01*
G01X6212902Y-4921313D01*
G01X6208018Y-4916429D01*
G01X6202139Y-4912803D01*
G01X6198861Y-4911716D01*
G01X6195583Y-4910630D01*
G01X6194773Y-4910547D01*
G01X6191536Y-4910217D01*
G01X6191536Y-4910217D01*
G01X6149652Y-4910217D01*
G01X6146719Y-4909431D01*
G01X6145504Y-4908498D01*
G01X6125754Y-4888748D01*
G01X6124235Y-4886118D01*
G01X6124035Y-4884600D01*
G01X6124035Y-4869291D01*
G01X6124035Y-4866794D01*
G01X6122920Y-4859752D01*
G01X6122920Y-4859752D01*
G01X6122920Y-4859752D01*
G01X6120717Y-4852971D01*
G01X6117480Y-4846619D01*
G01X6117480Y-4846618D01*
G01X6113290Y-4840851D01*
G01X6113290Y-4840851D01*
G01X6113289Y-4840851D01*
G01X6110769Y-4838330D01*
G01X6108728Y-4836289D01*
G01X6092835Y-4820396D01*
G01X6119488Y-4820396D01*
G01X6119906Y-4823876D01*
G01X6122090Y-4829413D01*
G01X6125686Y-4834156D01*
G01X6125686Y-4834156D01*
G01X6130429Y-4837753D01*
G01X6130429Y-4837753D01*
G01X6135967Y-4839936D01*
G01X6139446Y-4840354D01*
G01X6139446Y-4840354D01*
G01X6156890Y-4840354D01*
G01X6176575Y-4840354D01*
G01X6194018Y-4840354D01*
G01X6194018Y-4840354D01*
G01X6197498Y-4839936D01*
G01X6203035Y-4837753D01*
G01X6207778Y-4834156D01*
G01X6207778Y-4834156D01*
G01X6211375Y-4829413D01*
G01X6213559Y-4823876D01*
G01X6213976Y-4820396D01*
G01X6213976Y-4820396D01*
G01X6213976Y-4812303D01*
G01X6176575Y-4812303D01*
G01X6176575Y-4840354D01*
G01X6156890Y-4840354D01*
G01X6156890Y-4812303D01*
G01X6119488Y-4812303D01*
G01X6119488Y-4820396D01*
G01X6092835Y-4820396D01*
G01X6084809Y-4812370D01*
G01X6083290Y-4809740D01*
G01X6083091Y-4808222D01*
G01X6083091Y-4784525D01*
G01X6119488Y-4784525D01*
G01X6119488Y-4792618D01*
G01X6156890Y-4792618D01*
G01X6176575Y-4792618D01*
G01X6213976Y-4792618D01*
G01X6213976Y-4784525D01*
G01X6213976Y-4784525D01*
G01X6213559Y-4781046D01*
G01X6211375Y-4775508D01*
G01X6207778Y-4770765D01*
G01X6207778Y-4770765D01*
G01X6203035Y-4767168D01*
G01X6203035Y-4767168D01*
G01X6197498Y-4764985D01*
G01X6194018Y-4764567D01*
G01X6176575Y-4764567D01*
G01X6176575Y-4792618D01*
G01X6156890Y-4792618D01*
G01X6156890Y-4764567D01*
G01X6139446Y-4764567D01*
G01X6135967Y-4764985D01*
G01X6130429Y-4767168D01*
G01X6125686Y-4770765D01*
G01X6125686Y-4770765D01*
G01X6122090Y-4775508D01*
G01X6119906Y-4781046D01*
G01X6119488Y-4784525D01*
G01X6083091Y-4784525D01*
G01X6083091Y-4784252D01*
G01X6083091Y-4784252D01*
G01X6082677Y-4780205D01*
G01X6080504Y-4773648D01*
G01X6076878Y-4767769D01*
G01X6071994Y-4762885D01*
G01X6066116Y-4759259D01*
G01X6062837Y-4758173D01*
G01X6059559Y-4757087D01*
G01X6058750Y-4757004D01*
G01X6055512Y-4756673D01*
G01X6053741Y-4756673D01*
G01X6000590Y-4756673D01*
G01X5996543Y-4757087D01*
G01X5989987Y-4759259D01*
G01X5984108Y-4762885D01*
G01X5979224Y-4767769D01*
G01X5975598Y-4773648D01*
G01X5973425Y-4780205D01*
G01X5973287Y-4781554D01*
G01X5973074Y-4783645D01*
G01X5973012Y-4784252D01*
G01X5973012Y-4819685D01*
G01X5973084Y-4820396D01*
G01X5973425Y-4823732D01*
G01X5975598Y-4830289D01*
G01X5979224Y-4836168D01*
G01X5984108Y-4841052D01*
G01X5989987Y-4844678D01*
G01X5996543Y-4846850D01*
G01X6000590Y-4847264D01*
G01X6001195Y-4847264D01*
G01X6001195Y-4847264D01*
G01X6001195Y-4847264D01*
G01X6002362Y-4847264D01*
G01X6002362Y-4847264D01*
G01X6044836Y-4847264D01*
G01X6047769Y-4848050D01*
G01X6048984Y-4848982D01*
G01X6071097Y-4871095D01*
G01X6071483Y-4871763D01*
G01X6072029Y-4872310D01*
G01X6072229Y-4873056D01*
G01X6072615Y-4873724D01*
G01X6072815Y-4875243D01*
G01X6072815Y-4884000D01*
G01X6072029Y-4886933D01*
G01X6069882Y-4889080D01*
G01X6066949Y-4889866D01*
G01X6064666Y-4889269D01*
G01X6064629Y-4889363D01*
G01X6058718Y-4887032D01*
G01X6055239Y-4886614D01*
G01X6038780Y-4886614D01*
G01X6038780Y-4914173D01*
G01X6077071Y-4914173D01*
G01X6080004Y-4914959D01*
G01X6081817Y-4916591D01*
G01X6083561Y-4918992D01*
G01X6083561Y-4918992D01*
G01X6109089Y-4944520D01*
G01X6110607Y-4947150D01*
G01X6110807Y-4948668D01*
G01X6110807Y-4973228D01*
G01X6110873Y-4973872D01*
G01X6111221Y-4977275D01*
G01X6113393Y-4983832D01*
G01X6117019Y-4989711D01*
G01X6121903Y-4994595D01*
G01X6127782Y-4998221D01*
G01X6134339Y-5000394D01*
G01X6138385Y-5000807D01*
G01X6191536Y-5000807D01*
G01X6195583Y-5000394D01*
G01X6201661Y-4998379D01*
G01X6204693Y-4998203D01*
G01X6207406Y-4999566D01*
G01X6209075Y-5002103D01*
G01X6209251Y-5005134D01*
G01X6207889Y-5007848D01*
G01X6207654Y-5008096D01*
G01X6185204Y-5030546D01*
G01X6182575Y-5032064D01*
G01X6181056Y-5032264D01*
G01X6138386Y-5032264D01*
G01X6134339Y-5032677D01*
G01X6127782Y-5034850D01*
G01X6121903Y-5038476D01*
G01X6117019Y-5043360D01*
G01X6113393Y-5049239D01*
G01X6111221Y-5055795D01*
G01X6110807Y-5059842D01*
G01X6110807Y-5095276D01*
G01X6110807Y-5095276D01*
G01X6111221Y-5099323D01*
G01X6113393Y-5105879D01*
G01X6117019Y-5111758D01*
G01X6121903Y-5116642D01*
G01X6127782Y-5120268D01*
G01X6134339Y-5122441D01*
G01X6138385Y-5122854D01*
G01X6191536Y-5122854D01*
G01X6195583Y-5122441D01*
G01X6202139Y-5120268D01*
G01X6208018Y-5116642D01*
G01X6212902Y-5111758D01*
G01X6216528Y-5105879D01*
G01X6218701Y-5099323D01*
G01X6219114Y-5095276D01*
G01X6219114Y-5071502D01*
G01X6219900Y-5068569D01*
G01X6220832Y-5067355D01*
G01X6304702Y-4983485D01*
G01X6452343Y-4983485D01*
G01X6452343Y-5014546D01*
G01X6453506Y-5021894D01*
G01X6455805Y-5028970D01*
G01X6459183Y-5035598D01*
G01X6463556Y-5041617D01*
G01X6468816Y-5046878D01*
G01X6474835Y-5051250D01*
G01X6481463Y-5054628D01*
G01X6488539Y-5056927D01*
G01X6495887Y-5058091D01*
G01X6495887Y-5058091D01*
G01X6503326Y-5058091D01*
G01X6503326Y-5058091D01*
G01X6510674Y-5056927D01*
G01X6517749Y-5054628D01*
G01X6524378Y-5051250D01*
G01X6530397Y-5046878D01*
G01X6535657Y-5041617D01*
G01X6540030Y-5035598D01*
G01X6543407Y-5028970D01*
G01X6545706Y-5021894D01*
G01X6546870Y-5014546D01*
G01X6546870Y-4983485D01*
G01X6545706Y-4976137D01*
G01X6543407Y-4969062D01*
G01X6540030Y-4962433D01*
G01X6535657Y-4956414D01*
G01X6530397Y-4951154D01*
G01X6524651Y-4946979D01*
G01X6524378Y-4946781D01*
G01X6519973Y-4944537D01*
G01X6592106Y-4944537D01*
G01X6592106Y-4951133D01*
G01X6593393Y-4957602D01*
G01X6595917Y-4963695D01*
G01X6595917Y-4963696D01*
G01X6598797Y-4968006D01*
G01X6599582Y-4969180D01*
G01X6604246Y-4973844D01*
G01X6604246Y-4973844D01*
G01X6609729Y-4977508D01*
G01X6609730Y-4977508D01*
G01X6609730Y-4977508D01*
G01X6609730Y-4977508D01*
G01X6609730Y-4977508D01*
G01X6611515Y-4978247D01*
G01X6615824Y-4980032D01*
G01X6622293Y-4981319D01*
G01X6628888Y-4981319D01*
G01X6635358Y-4980032D01*
G01X6641451Y-4977508D01*
G01X6646936Y-4973844D01*
G01X6651599Y-4969180D01*
G01X6655264Y-4963695D01*
G01X6657788Y-4957602D01*
G01X6659075Y-4951133D01*
G01X6659075Y-4944537D01*
G01X6657788Y-4938068D01*
G01X6655264Y-4931974D01*
G01X6651599Y-4926490D01*
G01X6646936Y-4921826D01*
G01X6646935Y-4921826D01*
G01X6641452Y-4918161D01*
G01X6641451Y-4918161D01*
G01X6636620Y-4916160D01*
G01X6635358Y-4915637D01*
G01X6635357Y-4915637D01*
G01X6635357Y-4915637D01*
G01X6628888Y-4914350D01*
G01X6622293Y-4914350D01*
G01X6615824Y-4915637D01*
G01X6609730Y-4918161D01*
G01X6609729Y-4918161D01*
G01X6604246Y-4921826D01*
G01X6604245Y-4921826D01*
G01X6599582Y-4926490D01*
G01X6599582Y-4926490D01*
G01X6595917Y-4931974D01*
G01X6595917Y-4931974D01*
G01X6593393Y-4938068D01*
G01X6592106Y-4944537D01*
G01X6519973Y-4944537D01*
G01X6517750Y-4943404D01*
G01X6517750Y-4943404D01*
G01X6517749Y-4943404D01*
G01X6510674Y-4941105D01*
G01X6503326Y-4939941D01*
G01X6495887Y-4939941D01*
G01X6488539Y-4941105D01*
G01X6481463Y-4943404D01*
G01X6481463Y-4943404D01*
G01X6481463Y-4943404D01*
G01X6474835Y-4946781D01*
G01X6474835Y-4946781D01*
G01X6468816Y-4951154D01*
G01X6468816Y-4951154D01*
G01X6463556Y-4956414D01*
G01X6463555Y-4956415D01*
G01X6459183Y-4962433D01*
G01X6459183Y-4962433D01*
G01X6455805Y-4969061D01*
G01X6455805Y-4969062D01*
G01X6455805Y-4969062D01*
G01X6453506Y-4976137D01*
G01X6452343Y-4983485D01*
G01X6304702Y-4983485D01*
G01X6379049Y-4909138D01*
G01X6380612Y-4907575D01*
G01X6384803Y-4901807D01*
G01X6388040Y-4895454D01*
G01X6390243Y-4888674D01*
G01X6390243Y-4888674D01*
G01X6390243Y-4888673D01*
G01X6391358Y-4881631D01*
G01X6391358Y-4878067D01*
G01X6391358Y-4875181D01*
G01X6391358Y-4820312D01*
G01X6390374Y-4815364D01*
G01X6389836Y-4814066D01*
G01X6389390Y-4811821D01*
G01X6389390Y-4781869D01*
G01X6389745Y-4780086D01*
G01X6389704Y-4780075D01*
G01X6389804Y-4779704D01*
G01X6390374Y-4775370D01*
G01X6390374Y-4775370D01*
G01X6390374Y-4733248D01*
G01X6391160Y-4730315D01*
G01X6393307Y-4728168D01*
G01X6396240Y-4727382D01*
G01X6452860Y-4727382D01*
G01X6455793Y-4728168D01*
G01X6456119Y-4728371D01*
G01X6458445Y-4729924D01*
G01X6458445Y-4729925D01*
G01X6463822Y-4732152D01*
G01X6469531Y-4733287D01*
G01X6469531Y-4733287D01*
G01X6504579Y-4733287D01*
G01X6504579Y-4733287D01*
G01X6512233Y-4732075D01*
G01X6519603Y-4729680D01*
G01X6526508Y-4726162D01*
G01X6529179Y-4724222D01*
G01X6532014Y-4723134D01*
G01X6533544Y-4723174D01*
G01X6535257Y-4723445D01*
G01X6535257Y-4723445D01*
G01X6542696Y-4723445D01*
G01X6542696Y-4723445D01*
G01X6550044Y-4722281D01*
G01X6557119Y-4719982D01*
G01X6563748Y-4716605D01*
G01X6569767Y-4712232D01*
G01X6575027Y-4706971D01*
G01X6579400Y-4700953D01*
G01X6582777Y-4694324D01*
G01X6584772Y-4688184D01*
G01X6586426Y-4685638D01*
G01X6589132Y-4684259D01*
G01X6592164Y-4684418D01*
G01X6594711Y-4686072D01*
G01X6595771Y-4687752D01*
G01X6595917Y-4688105D01*
G01X6595917Y-4688105D01*
G01X6599582Y-4693589D01*
G01X6599582Y-4693589D01*
G01X6604246Y-4698253D01*
G01X6604246Y-4698253D01*
G01X6609729Y-4701917D01*
G01X6609730Y-4701917D01*
G01X6609730Y-4701917D01*
G01X6609730Y-4701917D01*
G01X6609730Y-4701918D01*
G01X6610618Y-4702285D01*
G01X6615824Y-4704442D01*
G01X6622293Y-4705728D01*
G01X6628888Y-4705728D01*
G01X6635358Y-4704442D01*
G01X6641451Y-4701917D01*
G01X6646936Y-4698253D01*
G01X6651599Y-4693589D01*
G01X6655264Y-4688105D01*
G01X6657788Y-4682011D01*
G01X6659075Y-4675542D01*
G01X6659075Y-4668946D01*
G01X6657788Y-4662477D01*
G01X6655394Y-4656697D01*
G01X6655264Y-4656384D01*
G01X6655264Y-4656383D01*
G01X6651600Y-4650899D01*
G01X6651599Y-4650899D01*
G01X6646936Y-4646235D01*
G01X6646935Y-4646235D01*
G01X6641452Y-4642571D01*
G01X6641451Y-4642571D01*
G01X6636620Y-4640569D01*
G01X6635358Y-4640047D01*
G01X6635357Y-4640047D01*
G01X6635357Y-4640047D01*
G01X6628888Y-4638760D01*
G01X6622293Y-4638760D01*
G01X6615824Y-4640047D01*
G01X6609730Y-4642571D01*
G01X6609729Y-4642571D01*
G01X6604246Y-4646235D01*
G01X6604245Y-4646235D01*
G01X6599582Y-4650899D01*
G01X6599582Y-4650899D01*
G01X6596984Y-4654787D01*
G01X6594701Y-4656789D01*
G01X6591723Y-4657382D01*
G01X6588847Y-4656405D01*
G01X6586845Y-4654122D01*
G01X6586240Y-4651528D01*
G01X6586240Y-4648839D01*
G01X6586240Y-4648839D01*
G01X6585076Y-4641491D01*
G01X6582777Y-4634416D01*
G01X6579400Y-4627787D01*
G01X6575027Y-4621769D01*
G01X6574316Y-4621057D01*
G01X6572797Y-4618428D01*
G01X6572797Y-4615391D01*
G01X6574316Y-4612761D01*
G01X6576945Y-4611243D01*
G01X6578464Y-4611043D01*
G01X6604921Y-4611043D01*
G01X6604922Y-4611043D01*
G01X6608968Y-4610630D01*
G01X6615525Y-4608457D01*
G01X6621404Y-4604831D01*
G01X6626288Y-4599947D01*
G01X6627438Y-4598082D01*
G01X6628483Y-4597096D01*
G01X6629498Y-4596081D01*
G01X6629583Y-4596058D01*
G01X6629647Y-4595998D01*
G01X6632431Y-4595295D01*
G01X6640781Y-4595295D01*
G01X6643714Y-4596081D01*
G01X6645773Y-4598082D01*
G01X6647531Y-4600931D01*
G01X6652415Y-4605815D01*
G01X6658294Y-4609441D01*
G01X6664851Y-4611614D01*
G01X6668897Y-4612028D01*
G01X6680728Y-4612028D01*
G01X6683661Y-4612813D01*
G01X6685809Y-4614961D01*
G01X6686594Y-4617894D01*
G01X6686594Y-4663205D01*
G01X6685809Y-4666138D01*
G01X6683808Y-4668198D01*
G01X6679974Y-4670563D01*
G01X6675090Y-4675447D01*
G01X6671464Y-4681325D01*
G01X6669291Y-4687882D01*
G01X6669291Y-4687882D01*
G01X6668894Y-4691773D01*
G01X6668878Y-4691929D01*
G01X6668878Y-4754921D01*
G01X6669291Y-4758968D01*
G01X6671464Y-4765525D01*
G01X6675090Y-4771404D01*
G01X6679974Y-4776288D01*
G01X6683808Y-4778653D01*
G01X6685892Y-4780861D01*
G01X6686594Y-4783645D01*
G01X6686594Y-4829371D01*
G01X6685809Y-4832304D01*
G01X6684876Y-4833519D01*
G01X6680091Y-4838304D01*
G01X6680091Y-4838305D01*
G01X6675718Y-4844323D01*
G01X6675718Y-4844323D01*
G01X6672341Y-4850951D01*
G01X6672341Y-4850951D01*
G01X6672341Y-4850951D01*
G01X6670042Y-4858027D01*
G01X6668878Y-4865375D01*
G01X6668878Y-4896436D01*
G01X6670042Y-4903784D01*
G01X6672341Y-4910860D01*
G01X6675718Y-4917488D01*
G01X6680091Y-4923507D01*
G01X6685351Y-4928767D01*
G01X6691370Y-4933140D01*
G01X6694498Y-4934734D01*
G01X6696755Y-4936766D01*
G01X6697693Y-4939654D01*
G01X6697062Y-4942624D01*
G01X6695030Y-4944880D01*
G01X6694498Y-4945187D01*
G01X6691370Y-4946781D01*
G01X6685352Y-4951154D01*
G01X6685351Y-4951154D01*
G01X6680091Y-4956414D01*
G01X6680091Y-4956415D01*
G01X6675718Y-4962433D01*
G01X6675718Y-4962433D01*
G01X6672341Y-4969061D01*
G01X6672341Y-4969062D01*
G01X6672341Y-4969062D01*
G01X6670042Y-4976137D01*
G01X6668878Y-4983485D01*
G01X6668878Y-5014546D01*
G01X6670042Y-5021894D01*
G01X6672341Y-5028970D01*
G01X6675718Y-5035598D01*
G01X6680091Y-5041617D01*
G01X6685351Y-5046878D01*
G01X6691370Y-5051250D01*
G01X6697999Y-5054628D01*
G01X6705074Y-5056927D01*
G01X6712422Y-5058091D01*
G01X6712422Y-5058091D01*
G01X6719861Y-5058091D01*
G01X6719861Y-5058091D01*
G01X6727209Y-5056927D01*
G01X6734285Y-5054628D01*
G01X6740913Y-5051250D01*
G01X6746932Y-5046878D01*
G01X6752193Y-5041617D01*
G01X6756565Y-5035598D01*
G01X6759943Y-5028970D01*
G01X6760189Y-5028213D01*
G01X6761842Y-5025666D01*
G01X6764548Y-5024288D01*
G01X6767580Y-5024447D01*
G01X6770127Y-5026100D01*
G01X6771506Y-5028806D01*
G01X6771634Y-5030026D01*
G01X6771634Y-5131909D01*
G01X6770848Y-5134843D01*
G01X6768701Y-5136990D01*
G01X6765768Y-5137776D01*
G01X5951535Y-5137776D01*
G01X5948602Y-5136990D01*
G01X5946455Y-5134843D01*
G01X5945669Y-5131909D01*
G01X5945669Y-4941459D01*
G01X5982677Y-4941459D01*
G01X5983095Y-4944939D01*
G01X5985279Y-4950476D01*
G01X5988875Y-4955219D01*
G01X5988875Y-4955219D01*
G01X5993618Y-4958816D01*
G01X5993618Y-4958816D01*
G01X5999156Y-4960999D01*
G01X6002635Y-4961417D01*
G01X6002635Y-4961417D01*
G01X6019094Y-4961417D01*
G01X6038780Y-4961417D01*
G01X6055239Y-4961417D01*
G01X6055239Y-4961417D01*
G01X6058718Y-4960999D01*
G01X6064256Y-4958816D01*
G01X6068999Y-4955219D01*
G01X6068999Y-4955219D01*
G01X6072595Y-4950476D01*
G01X6074779Y-4944939D01*
G01X6075197Y-4941459D01*
G01X6075197Y-4941459D01*
G01X6075197Y-4933858D01*
G01X6038780Y-4933858D01*
G01X6038780Y-4961417D01*
G01X6019094Y-4961417D01*
G01X6019094Y-4933858D01*
G01X5982677Y-4933858D01*
G01X5982677Y-4941459D01*
G01X5945669Y-4941459D01*
G01X5945669Y-4906572D01*
G01X5982677Y-4906572D01*
G01X5982677Y-4914173D01*
G01X6019094Y-4914173D01*
G01X6019094Y-4886614D01*
G01X6002635Y-4886614D01*
G01X5999156Y-4887032D01*
G01X5993618Y-4889216D01*
G01X5988875Y-4892812D01*
G01X5988875Y-4892812D01*
G01X5985279Y-4897555D01*
G01X5983095Y-4903093D01*
G01X5982677Y-4906572D01*
G01X5945669Y-4906572D01*
G01X5945669Y-4712993D01*
G01X5944982Y-4707835D01*
G01X5944386Y-4706416D01*
G01X5942967Y-4703038D01*
G01X5939765Y-4698936D01*
G01X5938441Y-4697638D01*
G01X5928798Y-4688184D01*
G01X5911694Y-4671415D01*
G01X5911176Y-4670836D01*
G01X5908696Y-4667657D01*
G01X5907912Y-4666320D01*
G01X5906502Y-4662965D01*
G01X5906096Y-4661468D01*
G01X5905563Y-4657472D01*
G01X5905512Y-4656697D01*
G01X5905512Y-4429921D01*
G01X5970059Y-4429921D01*
G01X5970059Y-4455512D01*
G01X5970059Y-4455512D01*
G01X5970472Y-4459559D01*
G01X5972645Y-4466116D01*
G01X5976271Y-4471994D01*
G01X5981155Y-4476878D01*
G01X5987034Y-4480504D01*
G01X5993591Y-4482677D01*
G01X5997637Y-4483091D01*
G01X6056693Y-4483091D01*
G01X6060740Y-4482677D01*
G01X6067297Y-4480504D01*
G01X6073175Y-4476878D01*
G01X6078060Y-4471994D01*
G01X6081686Y-4466116D01*
G01X6083333Y-4461144D01*
G01X6117717Y-4461144D01*
G01X6118134Y-4464624D01*
G01X6120318Y-4470161D01*
G01X6123915Y-4474904D01*
G01X6123915Y-4474904D01*
G01X6128658Y-4478501D01*
G01X6128658Y-4478501D01*
G01X6134195Y-4480684D01*
G01X6137675Y-4481102D01*
G01X6137675Y-4481102D01*
G01X6155118Y-4481102D01*
G01X6155118Y-4453051D01*
G01X6117717Y-4453051D01*
G01X6117717Y-4461144D01*
G01X6083333Y-4461144D01*
G01X6083858Y-4459559D01*
G01X6084272Y-4455512D01*
G01X6084272Y-4442615D01*
G01X6084272Y-4429921D01*
G01X6084272Y-4429921D01*
G01X6083858Y-4425874D01*
G01X6083659Y-4425273D01*
G01X6117717Y-4425273D01*
G01X6117717Y-4433366D01*
G01X6155118Y-4433366D01*
G01X6155118Y-4405315D01*
G01X6137675Y-4405315D01*
G01X6134195Y-4405733D01*
G01X6128658Y-4407916D01*
G01X6123915Y-4411513D01*
G01X6123915Y-4411513D01*
G01X6120318Y-4416256D01*
G01X6118134Y-4421794D01*
G01X6117717Y-4425273D01*
G01X6083659Y-4425273D01*
G01X6081686Y-4419318D01*
G01X6078060Y-4413439D01*
G01X6073175Y-4408555D01*
G01X6067297Y-4404929D01*
G01X6067297Y-4404929D01*
G01X6067297Y-4404929D01*
G01X6067296Y-4404928D01*
G01X6065868Y-4404455D01*
G01X6063331Y-4402786D01*
G01X6061968Y-4400073D01*
G01X6062144Y-4397041D01*
G01X6062293Y-4396643D01*
G01X6063149Y-4394577D01*
G01X6064587Y-4387347D01*
G01X6064587Y-4379976D01*
G01X6063149Y-4372746D01*
G01X6060328Y-4365936D01*
G01X6056232Y-4359807D01*
G01X6051020Y-4354594D01*
G01X6048977Y-4353229D01*
G01X6044891Y-4350499D01*
G01X6044891Y-4350499D01*
G01X6039491Y-4348262D01*
G01X6038081Y-4347678D01*
G01X6038081Y-4347678D01*
G01X6038081Y-4347678D01*
G01X6030851Y-4346240D01*
G01X6023480Y-4346240D01*
G01X6016250Y-4347678D01*
G01X6009440Y-4350499D01*
G01X6009440Y-4350499D01*
G01X6003311Y-4354594D01*
G01X6003311Y-4354595D01*
G01X5998098Y-4359807D01*
G01X5998098Y-4359807D01*
G01X5994003Y-4365936D01*
G01X5994003Y-4365936D01*
G01X5991182Y-4372746D01*
G01X5989744Y-4379976D01*
G01X5989744Y-4387347D01*
G01X5991004Y-4393681D01*
G01X5991182Y-4394577D01*
G01X5991529Y-4395414D01*
G01X5992038Y-4396642D01*
G01X5992434Y-4399652D01*
G01X5991272Y-4402458D01*
G01X5988863Y-4404306D01*
G01X5988463Y-4404455D01*
G01X5987034Y-4404929D01*
G01X5987034Y-4404929D01*
G01X5981155Y-4408555D01*
G01X5976271Y-4413439D01*
G01X5972645Y-4419318D01*
G01X5970472Y-4425874D01*
G01X5970433Y-4426257D01*
G01X5970137Y-4429154D01*
G01X5970059Y-4429921D01*
G01X5905512Y-4429921D01*
G01X5905512Y-4350394D01*
G01X5905512Y-4350393D01*
G01X5904841Y-4345299D01*
G01X5902875Y-4340551D01*
G01X5899746Y-4336474D01*
G01X5899746Y-4336474D01*
G01X5895669Y-4333346D01*
G01X5895669Y-4333346D01*
G01X5890922Y-4331379D01*
G01X5885827Y-4330709D01*
G01X5885827Y-4330709D01*
G01X5512195Y-4330709D01*
G01X5511430Y-4330658D01*
G01X5510127Y-4330487D01*
G01X5507482Y-4330139D01*
G01X5506003Y-4329742D01*
G01X5502682Y-4328367D01*
G01X5501356Y-4327601D01*
G01X5498504Y-4325413D01*
G01X5497422Y-4324330D01*
G01X5495233Y-4321479D01*
G01X5494468Y-4320153D01*
G01X5493792Y-4318522D01*
G01X5493092Y-4316832D01*
G01X5492696Y-4315353D01*
G01X5492196Y-4311554D01*
G01X5492146Y-4310789D01*
G01X5492146Y-4290869D01*
G01X5842126Y-4290869D01*
G01X5842544Y-4294348D01*
G01X5844728Y-4299886D01*
G01X5848324Y-4304628D01*
G01X5848324Y-4304629D01*
G01X5853067Y-4308225D01*
G01X5853067Y-4308225D01*
G01X5858605Y-4310409D01*
G01X5862084Y-4310827D01*
G01X5862084Y-4310827D01*
G01X5879528Y-4310827D01*
G01X5899213Y-4310827D01*
G01X5916656Y-4310827D01*
G01X5916656Y-4310827D01*
G01X5920136Y-4310409D01*
G01X5925673Y-4308225D01*
G01X5930416Y-4304629D01*
G01X5930416Y-4304628D01*
G01X5934013Y-4299886D01*
G01X5936196Y-4294348D01*
G01X5936614Y-4290869D01*
G01X5936614Y-4290868D01*
G01X5936614Y-4289884D01*
G01X5980906Y-4289884D01*
G01X5981323Y-4293364D01*
G01X5983507Y-4298901D01*
G01X5987104Y-4303644D01*
G01X5987104Y-4303644D01*
G01X5991847Y-4307241D01*
G01X5991847Y-4307241D01*
G01X5997384Y-4309425D01*
G01X6000864Y-4309842D01*
G01X6000864Y-4309843D01*
G01X6017323Y-4309843D01*
G01X6037008Y-4309843D01*
G01X6053467Y-4309843D01*
G01X6053467Y-4309842D01*
G01X6056947Y-4309425D01*
G01X6062484Y-4307241D01*
G01X6067227Y-4303644D01*
G01X6067227Y-4303644D01*
G01X6070824Y-4298901D01*
G01X6073007Y-4293364D01*
G01X6073425Y-4289884D01*
G01X6073425Y-4289884D01*
G01X6073425Y-4282283D01*
G01X6037008Y-4282283D01*
G01X6037008Y-4309843D01*
G01X6017323Y-4309843D01*
G01X6017323Y-4282283D01*
G01X5980906Y-4282283D01*
G01X5980906Y-4289884D01*
G01X5936614Y-4289884D01*
G01X5936614Y-4282776D01*
G01X5899213Y-4282776D01*
G01X5899213Y-4310827D01*
G01X5879528Y-4310827D01*
G01X5879528Y-4282776D01*
G01X5842126Y-4282776D01*
G01X5842126Y-4290869D01*
G01X5492146Y-4290869D01*
G01X5492146Y-3813057D01*
G01X5725768Y-3813057D01*
G01X5725768Y-3834580D01*
G01X5726006Y-3836916D01*
G01X5726167Y-3838492D01*
G01X5728163Y-3844516D01*
G01X5728268Y-3844831D01*
G01X5729127Y-3846224D01*
G01X5731773Y-3850514D01*
G01X5736494Y-3855235D01*
G01X5736761Y-3855399D01*
G01X5738844Y-3857608D01*
G01X5739547Y-3860392D01*
G01X5739547Y-3891423D01*
G01X5738761Y-3894356D01*
G01X5738559Y-3894682D01*
G01X5735932Y-3898613D01*
G01X5735932Y-3898613D01*
G01X5733111Y-3905423D01*
G01X5731673Y-3912653D01*
G01X5731673Y-3920024D01*
G01X5733111Y-3927254D01*
G01X5735932Y-3934064D01*
G01X5735932Y-3934064D01*
G01X5736362Y-3934708D01*
G01X5740027Y-3940193D01*
G01X5745240Y-3945406D01*
G01X5749298Y-3948117D01*
G01X5751369Y-3949501D01*
G01X5751369Y-3949501D01*
G01X5753364Y-3950327D01*
G01X5758179Y-3952322D01*
G01X5765409Y-3953760D01*
G01X5772780Y-3953760D01*
G01X5780010Y-3952322D01*
G01X5786820Y-3949501D01*
G01X5792949Y-3945406D01*
G01X5798161Y-3940193D01*
G01X5802257Y-3934064D01*
G01X5805078Y-3927254D01*
G01X5806516Y-3920024D01*
G01X5806516Y-3912653D01*
G01X5805078Y-3905423D01*
G01X5802257Y-3898613D01*
G01X5801864Y-3898025D01*
G01X5799630Y-3894682D01*
G01X5798654Y-3891807D01*
G01X5798642Y-3891423D01*
G01X5798642Y-3860392D01*
G01X5799428Y-3857459D01*
G01X5801428Y-3855399D01*
G01X5801695Y-3855235D01*
G01X5806416Y-3850514D01*
G01X5809921Y-3844831D01*
G01X5812022Y-3838492D01*
G01X5812421Y-3834581D01*
G01X5812421Y-3813057D01*
G01X5812022Y-3809145D01*
G01X5809921Y-3802807D01*
G01X5806416Y-3797124D01*
G01X5801695Y-3792403D01*
G01X5801421Y-3792234D01*
G01X5796012Y-3788898D01*
G01X5796012Y-3788898D01*
G01X5796012Y-3788898D01*
G01X5789674Y-3786797D01*
G01X5785762Y-3786398D01*
G01X5785761Y-3786398D01*
G01X5752428Y-3786398D01*
G01X5748515Y-3786797D01*
G01X5742177Y-3788898D01*
G01X5736494Y-3792403D01*
G01X5731773Y-3797124D01*
G01X5728268Y-3802807D01*
G01X5726167Y-3809145D01*
G01X5725768Y-3813057D01*
G01X5492146Y-3813057D01*
G01X5492146Y-3764031D01*
G01X6127539Y-3764031D01*
G01X6127539Y-3771402D01*
G01X6128977Y-3778632D01*
G01X6131798Y-3785442D01*
G01X6131798Y-3785442D01*
G01X6133529Y-3788032D01*
G01X6135894Y-3791571D01*
G01X6141106Y-3796784D01*
G01X6143341Y-3798277D01*
G01X6147235Y-3800879D01*
G01X6147235Y-3800879D01*
G01X6149230Y-3801705D01*
G01X6154045Y-3803700D01*
G01X6161275Y-3805138D01*
G01X6168646Y-3805138D01*
G01X6175876Y-3803700D01*
G01X6182686Y-3800879D01*
G01X6188815Y-3796784D01*
G01X6190160Y-3795439D01*
G01X6192790Y-3793920D01*
G01X6194308Y-3793720D01*
G01X6255072Y-3793720D01*
G01X6258005Y-3794506D01*
G01X6259220Y-3795439D01*
G01X6330939Y-3867158D01*
G01X6332458Y-3869787D01*
G01X6332657Y-3871306D01*
G01X6332657Y-3873764D01*
G01X6334096Y-3880994D01*
G01X6336916Y-3887804D01*
G01X6336917Y-3887805D01*
G01X6338151Y-3889652D01*
G01X6341012Y-3893933D01*
G01X6346224Y-3899146D01*
G01X6348992Y-3900995D01*
G01X6352353Y-3903241D01*
G01X6352353Y-3903241D01*
G01X6352620Y-3903352D01*
G01X6359163Y-3906062D01*
G01X6366393Y-3907500D01*
G01X6373764Y-3907500D01*
G01X6380994Y-3906062D01*
G01X6387804Y-3903241D01*
G01X6393933Y-3899146D01*
G01X6399146Y-3893933D01*
G01X6403241Y-3887804D01*
G01X6406062Y-3880994D01*
G01X6407500Y-3873764D01*
G01X6407500Y-3866393D01*
G01X6406062Y-3859163D01*
G01X6403241Y-3852353D01*
G01X6399146Y-3846224D01*
G01X6393933Y-3841012D01*
G01X6391471Y-3839366D01*
G01X6387805Y-3836917D01*
G01X6387804Y-3836916D01*
G01X6381765Y-3834415D01*
G01X6380994Y-3834096D01*
G01X6380994Y-3834096D01*
G01X6380994Y-3834096D01*
G01X6373764Y-3832657D01*
G01X6371306Y-3832657D01*
G01X6368373Y-3831872D01*
G01X6367158Y-3830939D01*
G01X6291804Y-3755586D01*
G01X6289464Y-3753246D01*
G01X6289464Y-3753246D01*
G01X6283696Y-3749055D01*
G01X6283696Y-3749055D01*
G01X6277344Y-3745818D01*
G01X6270563Y-3743615D01*
G01X6270563Y-3743615D01*
G01X6267042Y-3743058D01*
G01X6263521Y-3742500D01*
G01X6263521Y-3742500D01*
G01X6259956Y-3742500D01*
G01X6195096Y-3742500D01*
G01X6192163Y-3741714D01*
G01X6190948Y-3740782D01*
G01X6188815Y-3738650D01*
G01X6188815Y-3738650D01*
G01X6184832Y-3735988D01*
G01X6182686Y-3734554D01*
G01X6182686Y-3734554D01*
G01X6177286Y-3732318D01*
G01X6175876Y-3731733D01*
G01X6175876Y-3731733D01*
G01X6175876Y-3731733D01*
G01X6168646Y-3730295D01*
G01X6161275Y-3730295D01*
G01X6154045Y-3731733D01*
G01X6147235Y-3734554D01*
G01X6147235Y-3734554D01*
G01X6141106Y-3738649D01*
G01X6141106Y-3738650D01*
G01X6135894Y-3743862D01*
G01X6135894Y-3743862D01*
G01X6131798Y-3749991D01*
G01X6131798Y-3749991D01*
G01X6128977Y-3756801D01*
G01X6127539Y-3764031D01*
G01X5492146Y-3764031D01*
G01X5492146Y-3704374D01*
G01X5733661Y-3704374D01*
G01X5734060Y-3707696D01*
G01X5734060Y-3707696D01*
G01X5736145Y-3712981D01*
G01X5736145Y-3712981D01*
G01X5739578Y-3717509D01*
G01X5739578Y-3717509D01*
G01X5744105Y-3720942D01*
G01X5749391Y-3723026D01*
G01X5749391Y-3723026D01*
G01X5752712Y-3723425D01*
G01X5752713Y-3723425D01*
G01X5759252Y-3723425D01*
G01X5778937Y-3723425D01*
G01X5785476Y-3723425D01*
G01X5785476Y-3723425D01*
G01X5788798Y-3723026D01*
G01X5788798Y-3723026D01*
G01X5794084Y-3720942D01*
G01X5794084Y-3720942D01*
G01X5798611Y-3717509D01*
G01X5798611Y-3717509D01*
G01X5802044Y-3712981D01*
G01X5802044Y-3712981D01*
G01X5804129Y-3707696D01*
G01X5804129Y-3707696D01*
G01X5804528Y-3704374D01*
G01X5804528Y-3704374D01*
G01X5804528Y-3703740D01*
G01X5778937Y-3703740D01*
G01X5778937Y-3723425D01*
G01X5759252Y-3723425D01*
G01X5759252Y-3703740D01*
G01X5733661Y-3703740D01*
G01X5733661Y-3704374D01*
G01X5492146Y-3704374D01*
G01X5492146Y-3683421D01*
G01X5733661Y-3683421D01*
G01X5733661Y-3684055D01*
G01X5759252Y-3684055D01*
G01X5778937Y-3684055D01*
G01X5804528Y-3684055D01*
G01X5804528Y-3683421D01*
G01X5804528Y-3683421D01*
G01X5804129Y-3680100D01*
G01X5804129Y-3680100D01*
G01X5802044Y-3674814D01*
G01X5802044Y-3674814D01*
G01X5798611Y-3670287D01*
G01X5798611Y-3670286D01*
G01X5794084Y-3666853D01*
G01X5788798Y-3664769D01*
G01X5788798Y-3664769D01*
G01X5785476Y-3664370D01*
G01X5778937Y-3664370D01*
G01X5778937Y-3684055D01*
G01X5759252Y-3684055D01*
G01X5759252Y-3664370D01*
G01X5752712Y-3664370D01*
G01X5749391Y-3664769D01*
G01X5749391Y-3664769D01*
G01X5744105Y-3666853D01*
G01X5744105Y-3666853D01*
G01X5739578Y-3670286D01*
G01X5739578Y-3670287D01*
G01X5736145Y-3674814D01*
G01X5736145Y-3674814D01*
G01X5734060Y-3680100D01*
G01X5734060Y-3680100D01*
G01X5733661Y-3683421D01*
G01X5492146Y-3683421D01*
G01X5492146Y-3160488D01*
G01X5989744Y-3160488D01*
G01X5989744Y-3167859D01*
G01X5991101Y-3174679D01*
G01X5991182Y-3175089D01*
G01X5991231Y-3175206D01*
G01X5994003Y-3181899D01*
G01X5994003Y-3181899D01*
G01X5995324Y-3183876D01*
G01X5998098Y-3188028D01*
G01X6003311Y-3193240D01*
G01X6005797Y-3194902D01*
G01X6009440Y-3197335D01*
G01X6009440Y-3197336D01*
G01X6010721Y-3197866D01*
G01X6016250Y-3200156D01*
G01X6023480Y-3201594D01*
G01X6025938Y-3201594D01*
G01X6028871Y-3202380D01*
G01X6030086Y-3203313D01*
G01X6057549Y-3230776D01*
G01X6059590Y-3232816D01*
G01X6062111Y-3235337D01*
G01X6067879Y-3239527D01*
G01X6074231Y-3242764D01*
G01X6081011Y-3244967D01*
G01X6081011Y-3244967D01*
G01X6081012Y-3244967D01*
G01X6081012Y-3244967D01*
G01X6088054Y-3246083D01*
G01X6089096Y-3246083D01*
G01X7034206Y-3246083D01*
G01X7037139Y-3246869D01*
G01X7038354Y-3247801D01*
G01X7039117Y-3248564D01*
G01X7041638Y-3251085D01*
G01X7047406Y-3255275D01*
G01X7053759Y-3258512D01*
G01X7060539Y-3260715D01*
G01X7060539Y-3260715D01*
G01X7060539Y-3260715D01*
G01X7060539Y-3260715D01*
G01X7067581Y-3261831D01*
G01X7068624Y-3261831D01*
G01X7096243Y-3261831D01*
G01X7099176Y-3262617D01*
G01X7100391Y-3263549D01*
G01X7102130Y-3265287D01*
G01X7105182Y-3267327D01*
G01X7108258Y-3269383D01*
G01X7108259Y-3269383D01*
G01X7110253Y-3270209D01*
G01X7115069Y-3272204D01*
G01X7122299Y-3273642D01*
G01X7129670Y-3273642D01*
G01X7136900Y-3272204D01*
G01X7143710Y-3269383D01*
G01X7149839Y-3265287D01*
G01X7155051Y-3260075D01*
G01X7159147Y-3253946D01*
G01X7161967Y-3247136D01*
G01X7163406Y-3239906D01*
G01X7163406Y-3232535D01*
G01X7161967Y-3225305D01*
G01X7159147Y-3218495D01*
G01X7155051Y-3212366D01*
G01X7149839Y-3207153D01*
G01X7144091Y-3203313D01*
G01X7143710Y-3203058D01*
G01X7143710Y-3203058D01*
G01X7141807Y-3202270D01*
G01X7139398Y-3200421D01*
G01X7138236Y-3197616D01*
G01X7138632Y-3194606D01*
G01X7140481Y-3192196D01*
G01X7141807Y-3191431D01*
G01X7143710Y-3190643D01*
G01X7143710Y-3190643D01*
G01X7143710Y-3190643D01*
G01X7149839Y-3186547D01*
G01X7155051Y-3181335D01*
G01X7159147Y-3175206D01*
G01X7161967Y-3168396D01*
G01X7163406Y-3161166D01*
G01X7163406Y-3153795D01*
G01X7161967Y-3146565D01*
G01X7159147Y-3139755D01*
G01X7155051Y-3133626D01*
G01X7149839Y-3128413D01*
G01X7147353Y-3126752D01*
G01X7143710Y-3124318D01*
G01X7143710Y-3124318D01*
G01X7141807Y-3123530D01*
G01X7139398Y-3121681D01*
G01X7138236Y-3118876D01*
G01X7138632Y-3115865D01*
G01X7140481Y-3113456D01*
G01X7141807Y-3112691D01*
G01X7143710Y-3111903D01*
G01X7143710Y-3111903D01*
G01X7143710Y-3111902D01*
G01X7149839Y-3107807D01*
G01X7155051Y-3102595D01*
G01X7159147Y-3096466D01*
G01X7161967Y-3089656D01*
G01X7163406Y-3082426D01*
G01X7163406Y-3075054D01*
G01X7161967Y-3067825D01*
G01X7159147Y-3061015D01*
G01X7158405Y-3059905D01*
G01X7157763Y-3058944D01*
G01X7155051Y-3054886D01*
G01X7149839Y-3049673D01*
G01X7146233Y-3047264D01*
G01X7143710Y-3045578D01*
G01X7143710Y-3045578D01*
G01X7137621Y-3043056D01*
G01X7136900Y-3042757D01*
G01X7136900Y-3042757D01*
G01X7136900Y-3042757D01*
G01X7129670Y-3041319D01*
G01X7122299Y-3041319D01*
G01X7115069Y-3042757D01*
G01X7108259Y-3045578D01*
G01X7108258Y-3045578D01*
G01X7102130Y-3049673D01*
G01X7102129Y-3049673D01*
G01X7100391Y-3051412D01*
G01X7097761Y-3052930D01*
G01X7096243Y-3053130D01*
G01X6548471Y-3053130D01*
G01X6545538Y-3052344D01*
G01X6544323Y-3051412D01*
G01X6531265Y-3038354D01*
G01X6529747Y-3035724D01*
G01X6529547Y-3034206D01*
G01X6529547Y-3031747D01*
G01X6528823Y-3028106D01*
G01X6528109Y-3024518D01*
G01X6525288Y-3017707D01*
G01X6521193Y-3011578D01*
G01X6515981Y-3006366D01*
G01X6512783Y-3004230D01*
G01X6509852Y-3002271D01*
G01X6509851Y-3002271D01*
G01X6504452Y-3000034D01*
G01X6503041Y-2999450D01*
G01X6503041Y-2999450D01*
G01X6503041Y-2999450D01*
G01X6495812Y-2998012D01*
G01X6488440Y-2998012D01*
G01X6481211Y-2999450D01*
G01X6474401Y-3002271D01*
G01X6474400Y-3002271D01*
G01X6468271Y-3006366D01*
G01X6468271Y-3006366D01*
G01X6463059Y-3011578D01*
G01X6463059Y-3011578D01*
G01X6458964Y-3017707D01*
G01X6458964Y-3017708D01*
G01X6456143Y-3024518D01*
G01X6454705Y-3031747D01*
G01X6454705Y-3039119D01*
G01X6456143Y-3046348D01*
G01X6458964Y-3053159D01*
G01X6458964Y-3053159D01*
G01X6461694Y-3057245D01*
G01X6463059Y-3059288D01*
G01X6468271Y-3064500D01*
G01X6472330Y-3067212D01*
G01X6474400Y-3068595D01*
G01X6474401Y-3068595D01*
G01X6476395Y-3069422D01*
G01X6481211Y-3071416D01*
G01X6488440Y-3072854D01*
G01X6490899Y-3072854D01*
G01X6493832Y-3073640D01*
G01X6495047Y-3074572D01*
G01X6509518Y-3089043D01*
G01X6511558Y-3091084D01*
G01X6514079Y-3093604D01*
G01X6514079Y-3093605D01*
G01X6514079Y-3093605D01*
G01X6519847Y-3097795D01*
G01X6519847Y-3097795D01*
G01X6526199Y-3101032D01*
G01X6532980Y-3103235D01*
G01X6532980Y-3103235D01*
G01X6532980Y-3103235D01*
G01X6532980Y-3103235D01*
G01X6540022Y-3104350D01*
G01X6543587Y-3104350D01*
G01X6546473Y-3104350D01*
G01X7096243Y-3104350D01*
G01X7099176Y-3105136D01*
G01X7100391Y-3106069D01*
G01X7102130Y-3107807D01*
G01X7106188Y-3110519D01*
G01X7108258Y-3111902D01*
G01X7108259Y-3111902D01*
G01X7108259Y-3111902D01*
G01X7109692Y-3112496D01*
G01X7110161Y-3112691D01*
G01X7112570Y-3114539D01*
G01X7113732Y-3117345D01*
G01X7113336Y-3120355D01*
G01X7111488Y-3122764D01*
G01X7110161Y-3123530D01*
G01X7108259Y-3124318D01*
G01X7108258Y-3124318D01*
G01X7102130Y-3128413D01*
G01X7102129Y-3128413D01*
G01X7100391Y-3130152D01*
G01X7097761Y-3131670D01*
G01X7096243Y-3131870D01*
G01X6485479Y-3131870D01*
G01X6482546Y-3131084D01*
G01X6481331Y-3130152D01*
G01X6393470Y-3042291D01*
G01X6391952Y-3039661D01*
G01X6391752Y-3038143D01*
G01X6391752Y-3035684D01*
G01X6390314Y-3028455D01*
G01X6390314Y-3028455D01*
G01X6387493Y-3021644D01*
G01X6386980Y-3020876D01*
G01X6384862Y-3017707D01*
G01X6383398Y-3015515D01*
G01X6378185Y-3010303D01*
G01X6375169Y-3008287D01*
G01X6372056Y-3006208D01*
G01X6372056Y-3006208D01*
G01X6365461Y-3003476D01*
G01X6365246Y-3003387D01*
G01X6365246Y-3003387D01*
G01X6365246Y-3003387D01*
G01X6358016Y-3001949D01*
G01X6350645Y-3001949D01*
G01X6343415Y-3003387D01*
G01X6336605Y-3006208D01*
G01X6336605Y-3006208D01*
G01X6330476Y-3010303D01*
G01X6330476Y-3010303D01*
G01X6325264Y-3015515D01*
G01X6325264Y-3015515D01*
G01X6321169Y-3021644D01*
G01X6321168Y-3021645D01*
G01X6318347Y-3028455D01*
G01X6316909Y-3035684D01*
G01X6316909Y-3043056D01*
G01X6318347Y-3050285D01*
G01X6321168Y-3057096D01*
G01X6321169Y-3057096D01*
G01X6323787Y-3061014D01*
G01X6325264Y-3063225D01*
G01X6330476Y-3068437D01*
G01X6333396Y-3070388D01*
G01X6336605Y-3072532D01*
G01X6336605Y-3072532D01*
G01X6337382Y-3072854D01*
G01X6343415Y-3075353D01*
G01X6350645Y-3076791D01*
G01X6353104Y-3076791D01*
G01X6356037Y-3077577D01*
G01X6357252Y-3078509D01*
G01X6446526Y-3167783D01*
G01X6448566Y-3169824D01*
G01X6451087Y-3172345D01*
G01X6451087Y-3172345D01*
G01X6451087Y-3172345D01*
G01X6456855Y-3176535D01*
G01X6456855Y-3176535D01*
G01X6463207Y-3179772D01*
G01X6469988Y-3181975D01*
G01X6469988Y-3181975D01*
G01X6469988Y-3181975D01*
G01X6469988Y-3181975D01*
G01X6477030Y-3183091D01*
G01X6480595Y-3183091D01*
G01X6483480Y-3183091D01*
G01X7096243Y-3183091D01*
G01X7099176Y-3183876D01*
G01X7100391Y-3184809D01*
G01X7102130Y-3186547D01*
G01X7104346Y-3188028D01*
G01X7108258Y-3190642D01*
G01X7108259Y-3190643D01*
G01X7108259Y-3190643D01*
G01X7109692Y-3191236D01*
G01X7110161Y-3191431D01*
G01X7112570Y-3193279D01*
G01X7113732Y-3196085D01*
G01X7113336Y-3199095D01*
G01X7111488Y-3201504D01*
G01X7110161Y-3202270D01*
G01X7108259Y-3203058D01*
G01X7108258Y-3203058D01*
G01X7102130Y-3207153D01*
G01X7102129Y-3207154D01*
G01X7100391Y-3208892D01*
G01X7097761Y-3210410D01*
G01X7096243Y-3210610D01*
G01X7076030Y-3210610D01*
G01X7075284Y-3210410D01*
G01X7074512Y-3210410D01*
G01X7073843Y-3210024D01*
G01X7073097Y-3209824D01*
G01X7071882Y-3208892D01*
G01X7071813Y-3208823D01*
G01X7069943Y-3206953D01*
G01X7068598Y-3205608D01*
G01X7068598Y-3205608D01*
G01X7068598Y-3205608D01*
G01X7062830Y-3201418D01*
G01X7062830Y-3201417D01*
G01X7056478Y-3198181D01*
G01X7049697Y-3195978D01*
G01X7049697Y-3195977D01*
G01X7046176Y-3195420D01*
G01X7042655Y-3194862D01*
G01X7042655Y-3194862D01*
G01X7039090Y-3194862D01*
G01X6096503Y-3194862D01*
G01X6093569Y-3194076D01*
G01X6092355Y-3193144D01*
G01X6066305Y-3167094D01*
G01X6064786Y-3164465D01*
G01X6064587Y-3162946D01*
G01X6064587Y-3160488D01*
G01X6064107Y-3158078D01*
G01X6063149Y-3153258D01*
G01X6061154Y-3148442D01*
G01X6060328Y-3146448D01*
G01X6060328Y-3146447D01*
G01X6058944Y-3144377D01*
G01X6056232Y-3140319D01*
G01X6051020Y-3135106D01*
G01X6048804Y-3133626D01*
G01X6044891Y-3131011D01*
G01X6044891Y-3131011D01*
G01X6038620Y-3128413D01*
G01X6038081Y-3128190D01*
G01X6038081Y-3128190D01*
G01X6038081Y-3128190D01*
G01X6030851Y-3126752D01*
G01X6023480Y-3126752D01*
G01X6016250Y-3128190D01*
G01X6009440Y-3131011D01*
G01X6009440Y-3131011D01*
G01X6003311Y-3135106D01*
G01X6003311Y-3135106D01*
G01X5998098Y-3140318D01*
G01X5998098Y-3140319D01*
G01X5994003Y-3146447D01*
G01X5994003Y-3146448D01*
G01X5991182Y-3153258D01*
G01X5989744Y-3160488D01*
G01X5492146Y-3160488D01*
G01X5492146Y-2750934D01*
G01X5570846Y-2750934D01*
G01X5570846Y-2759303D01*
G01X5572156Y-2767569D01*
G01X5574742Y-2775528D01*
G01X5578541Y-2782985D01*
G01X5583460Y-2789756D01*
G01X5589378Y-2795673D01*
G01X5596149Y-2800593D01*
G01X5603466Y-2804321D01*
G01X5605723Y-2806353D01*
G01X5606661Y-2809241D01*
G01X5606030Y-2812211D01*
G01X5603998Y-2814467D01*
G01X5603466Y-2814774D01*
G01X5600286Y-2816395D01*
G01X5600286Y-2816395D01*
G01X5594521Y-2820584D01*
G01X5594521Y-2820584D01*
G01X5589481Y-2825623D01*
G01X5589481Y-2825623D01*
G01X5585293Y-2831388D01*
G01X5585293Y-2831388D01*
G01X5582057Y-2837738D01*
G01X5579855Y-2844516D01*
G01X5579855Y-2844516D01*
G01X5579735Y-2845276D01*
G01X5616811Y-2845276D01*
G01X5615515Y-2847520D01*
G01X5614173Y-2852527D01*
G01X5614173Y-2857710D01*
G01X5615515Y-2862716D01*
G01X5616811Y-2864961D01*
G01X5579735Y-2864961D01*
G01X5579855Y-2865720D01*
G01X5579855Y-2865720D01*
G01X5582057Y-2872498D01*
G01X5585293Y-2878848D01*
G01X5585293Y-2878848D01*
G01X5589481Y-2884613D01*
G01X5589481Y-2884613D01*
G01X5594521Y-2889652D01*
G01X5594521Y-2889652D01*
G01X5600326Y-2893870D01*
G01X5602236Y-2896230D01*
G01X5602711Y-2899229D01*
G01X5601623Y-2902064D01*
G01X5599263Y-2903975D01*
G01X5598723Y-2904184D01*
G01X5597664Y-2904535D01*
G01X5591785Y-2908161D01*
G01X5586901Y-2913045D01*
G01X5583275Y-2918924D01*
G01X5581102Y-2925480D01*
G01X5580689Y-2929527D01*
G01X5580689Y-2980709D01*
G01X5580902Y-2982794D01*
G01X5581102Y-2984756D01*
G01X5583275Y-2991312D01*
G01X5586901Y-2997191D01*
G01X5591785Y-3002075D01*
G01X5597664Y-3005701D01*
G01X5604221Y-3007874D01*
G01X5608267Y-3008287D01*
G01X5659449Y-3008287D01*
G01X5663496Y-3007874D01*
G01X5670053Y-3005701D01*
G01X5675931Y-3002075D01*
G01X5680815Y-2997191D01*
G01X5684441Y-2991312D01*
G01X5686614Y-2984756D01*
G01X5687028Y-2980709D01*
G01X5687028Y-2929527D01*
G01X5686614Y-2925480D01*
G01X5684441Y-2918924D01*
G01X5680815Y-2913045D01*
G01X5675931Y-2908161D01*
G01X5670053Y-2904535D01*
G01X5670052Y-2904535D01*
G01X5670052Y-2904535D01*
G01X5670052Y-2904535D01*
G01X5668994Y-2904184D01*
G01X5666457Y-2902515D01*
G01X5665094Y-2899802D01*
G01X5665271Y-2896770D01*
G01X5666939Y-2894233D01*
G01X5667391Y-2893870D01*
G01X5673196Y-2889653D01*
G01X5673196Y-2889652D01*
G01X5678235Y-2884613D01*
G01X5678235Y-2884613D01*
G01X5682424Y-2878848D01*
G01X5682424Y-2878848D01*
G01X5685659Y-2872498D01*
G01X5687861Y-2865720D01*
G01X5687862Y-2865720D01*
G01X5687982Y-2864961D01*
G01X5650906Y-2864961D01*
G01X5652202Y-2862716D01*
G01X5653543Y-2857710D01*
G01X5653543Y-2852527D01*
G01X5652202Y-2847520D01*
G01X5650906Y-2845276D01*
G01X5687982Y-2845276D01*
G01X5687862Y-2844516D01*
G01X5687861Y-2844516D01*
G01X5685659Y-2837738D01*
G01X5682424Y-2831388D01*
G01X5682424Y-2831388D01*
G01X5678235Y-2825623D01*
G01X5678235Y-2825623D01*
G01X5673196Y-2820584D01*
G01X5673196Y-2820584D01*
G01X5667430Y-2816395D01*
G01X5667430Y-2816395D01*
G01X5664250Y-2814774D01*
G01X5661993Y-2812743D01*
G01X5661055Y-2809855D01*
G01X5661687Y-2806884D01*
G01X5663718Y-2804628D01*
G01X5664250Y-2804321D01*
G01X5671568Y-2800593D01*
G01X5678338Y-2795673D01*
G01X5679863Y-2794149D01*
G01X6026752Y-2794149D01*
G01X6026752Y-2801520D01*
G01X6028098Y-2808287D01*
G01X6028190Y-2808750D01*
G01X6028648Y-2809855D01*
G01X6031011Y-2815560D01*
G01X6031011Y-2815560D01*
G01X6033741Y-2819646D01*
G01X6035106Y-2821689D01*
G01X6040319Y-2826902D01*
G01X6043182Y-2828815D01*
G01X6046447Y-2830997D01*
G01X6046448Y-2830997D01*
G01X6048442Y-2831823D01*
G01X6053258Y-2833818D01*
G01X6060488Y-2835256D01*
G01X6067859Y-2835256D01*
G01X6075089Y-2833818D01*
G01X6081899Y-2830997D01*
G01X6083704Y-2829791D01*
G01X6086579Y-2828815D01*
G01X6089557Y-2829407D01*
G01X6091840Y-2831409D01*
G01X6092716Y-2833524D01*
G01X6093544Y-2837687D01*
G01X6096365Y-2844497D01*
G01X6096365Y-2844497D01*
G01X6096378Y-2844516D01*
G01X6100461Y-2850626D01*
G01X6100461Y-2850626D01*
G01X6104168Y-2854333D01*
G01X6105686Y-2856963D01*
G01X6105886Y-2858481D01*
G01X6105886Y-2922817D01*
G01X6105686Y-2923563D01*
G01X6105686Y-2924335D01*
G01X6105300Y-2925004D01*
G01X6105100Y-2925750D01*
G01X6104168Y-2926965D01*
G01X6100859Y-2930273D01*
G01X6098448Y-2932684D01*
G01X6098448Y-2932684D01*
G01X6094440Y-2938201D01*
G01X6091344Y-2944278D01*
G01X6089236Y-2950764D01*
G01X6088169Y-2957500D01*
G01X6088169Y-2957500D01*
G01X6088169Y-3000082D01*
G01X6087383Y-3003015D01*
G01X6086451Y-3004230D01*
G01X6082744Y-3007937D01*
G01X6082744Y-3007937D01*
G01X6078649Y-3014066D01*
G01X6078649Y-3014066D01*
G01X6075828Y-3020876D01*
G01X6074390Y-3028106D01*
G01X6074390Y-3035765D01*
G01X6074290Y-3035765D01*
G01X6073875Y-3038274D01*
G01X6071948Y-3040621D01*
G01X6069677Y-3041605D01*
G01X6063888Y-3042757D01*
G01X6057078Y-3045578D01*
G01X6057077Y-3045578D01*
G01X6050949Y-3049673D01*
G01X6050948Y-3049673D01*
G01X6045736Y-3054885D01*
G01X6045736Y-3054886D01*
G01X6041641Y-3061014D01*
G01X6041641Y-3061015D01*
G01X6038820Y-3067825D01*
G01X6037382Y-3075054D01*
G01X6037382Y-3082426D01*
G01X6038820Y-3089655D01*
G01X6041641Y-3096466D01*
G01X6041641Y-3096466D01*
G01X6044371Y-3100552D01*
G01X6045736Y-3102595D01*
G01X6050949Y-3107807D01*
G01X6055007Y-3110519D01*
G01X6057077Y-3111902D01*
G01X6057078Y-3111903D01*
G01X6058980Y-3112691D01*
G01X6063888Y-3114723D01*
G01X6071117Y-3116161D01*
G01X6078489Y-3116161D01*
G01X6085719Y-3114723D01*
G01X6092529Y-3111902D01*
G01X6098658Y-3107807D01*
G01X6100396Y-3106069D01*
G01X6103026Y-3104550D01*
G01X6104544Y-3104350D01*
G01X6226164Y-3104350D01*
G01X6229097Y-3105136D01*
G01X6230312Y-3106069D01*
G01X6232051Y-3107807D01*
G01X6236109Y-3110519D01*
G01X6238180Y-3111902D01*
G01X6238180Y-3111903D01*
G01X6240083Y-3112691D01*
G01X6244990Y-3114723D01*
G01X6252220Y-3116161D01*
G01X6259591Y-3116161D01*
G01X6266821Y-3114723D01*
G01X6273631Y-3111902D01*
G01X6279760Y-3107807D01*
G01X6284973Y-3102595D01*
G01X6289068Y-3096466D01*
G01X6291889Y-3089656D01*
G01X6293327Y-3082426D01*
G01X6293327Y-3075054D01*
G01X6291889Y-3067825D01*
G01X6289068Y-3061015D01*
G01X6288326Y-3059905D01*
G01X6287684Y-3058944D01*
G01X6284973Y-3054886D01*
G01X6279760Y-3049673D01*
G01X6276154Y-3047264D01*
G01X6273631Y-3045578D01*
G01X6273631Y-3045578D01*
G01X6267542Y-3043056D01*
G01X6266821Y-3042757D01*
G01X6266821Y-3042757D01*
G01X6266821Y-3042757D01*
G01X6259591Y-3041319D01*
G01X6252220Y-3041319D01*
G01X6244990Y-3042757D01*
G01X6238180Y-3045578D01*
G01X6238180Y-3045578D01*
G01X6232051Y-3049673D01*
G01X6232051Y-3049673D01*
G01X6230312Y-3051412D01*
G01X6227683Y-3052930D01*
G01X6226164Y-3053130D01*
G01X6201469Y-3053130D01*
G01X6198536Y-3052344D01*
G01X6196388Y-3050197D01*
G01X6195603Y-3047264D01*
G01X6196049Y-3045019D01*
G01X6197007Y-3042707D01*
G01X6198445Y-3035477D01*
G01X6198445Y-3028106D01*
G01X6197007Y-3020876D01*
G01X6194786Y-3015515D01*
G01X6194186Y-3014066D01*
G01X6194186Y-3014066D01*
G01X6192524Y-3011578D01*
G01X6190091Y-3007937D01*
G01X6186384Y-3004230D01*
G01X6184865Y-3001600D01*
G01X6184665Y-3000082D01*
G01X6184665Y-2964978D01*
G01X6185451Y-2962045D01*
G01X6186384Y-2960830D01*
G01X6186594Y-2960619D01*
G01X6191893Y-2955321D01*
G01X6192103Y-2955111D01*
G01X6196112Y-2949594D01*
G01X6199208Y-2943517D01*
G01X6201315Y-2937031D01*
G01X6201315Y-2937031D01*
G01X6202004Y-2932684D01*
G01X6202382Y-2930295D01*
G01X6202382Y-2926886D01*
G01X6202382Y-2924015D01*
G01X6202382Y-2924015D01*
G01X6202382Y-2858481D01*
G01X6203168Y-2855548D01*
G01X6204100Y-2854333D01*
G01X6205907Y-2852527D01*
G01X6207807Y-2850626D01*
G01X6211902Y-2844497D01*
G01X6214723Y-2837687D01*
G01X6216161Y-2830457D01*
G01X6216161Y-2823086D01*
G01X6215884Y-2821689D01*
G01X6214831Y-2816395D01*
G01X6214723Y-2815856D01*
G01X6212237Y-2809855D01*
G01X6211903Y-2809046D01*
G01X6211902Y-2809046D01*
G01X6210458Y-2806884D01*
G01X6207807Y-2802917D01*
G01X6202595Y-2797705D01*
G01X6199555Y-2795673D01*
G01X6196466Y-2793609D01*
G01X6196466Y-2793609D01*
G01X6191066Y-2791373D01*
G01X6189656Y-2790788D01*
G01X6189655Y-2790788D01*
G01X6189655Y-2790788D01*
G01X6182426Y-2789350D01*
G01X6175054Y-2789350D01*
G01X6167825Y-2790788D01*
G01X6161015Y-2793609D01*
G01X6161014Y-2793609D01*
G01X6157393Y-2796029D01*
G01X6154518Y-2797005D01*
G01X6151539Y-2796413D01*
G01X6150875Y-2796029D01*
G01X6147253Y-2793609D01*
G01X6147253Y-2793609D01*
G01X6141853Y-2791373D01*
G01X6140443Y-2790788D01*
G01X6140443Y-2790788D01*
G01X6140443Y-2790788D01*
G01X6133213Y-2789350D01*
G01X6125842Y-2789350D01*
G01X6125842Y-2789350D01*
G01X6123630Y-2789790D01*
G01X6120600Y-2789592D01*
G01X6118075Y-2787905D01*
G01X6116732Y-2785181D01*
G01X6116930Y-2782151D01*
G01X6118337Y-2779889D01*
G01X6174736Y-2723490D01*
G01X6177366Y-2721972D01*
G01X6178884Y-2721772D01*
G01X6410810Y-2721772D01*
G01X6413743Y-2722558D01*
G01X6414958Y-2723490D01*
G01X6416697Y-2725228D01*
G01X6419724Y-2727251D01*
G01X6422825Y-2729324D01*
G01X6422826Y-2729324D01*
G01X6424820Y-2730150D01*
G01X6429636Y-2732145D01*
G01X6436866Y-2733583D01*
G01X6444237Y-2733583D01*
G01X6451467Y-2732145D01*
G01X6458277Y-2729324D01*
G01X6464406Y-2725228D01*
G01X6469618Y-2720016D01*
G01X6473713Y-2713887D01*
G01X6476534Y-2707077D01*
G01X6477972Y-2699847D01*
G01X6477972Y-2692476D01*
G01X6476534Y-2685246D01*
G01X6473713Y-2678436D01*
G01X6469618Y-2672307D01*
G01X6464406Y-2667094D01*
G01X6462363Y-2665729D01*
G01X6458277Y-2662999D01*
G01X6458277Y-2662999D01*
G01X6452877Y-2660762D01*
G01X6451467Y-2660178D01*
G01X6451466Y-2660178D01*
G01X6451466Y-2660178D01*
G01X6444237Y-2658740D01*
G01X6436866Y-2658740D01*
G01X6429636Y-2660178D01*
G01X6422826Y-2662999D01*
G01X6422825Y-2662999D01*
G01X6416697Y-2667094D01*
G01X6416696Y-2667095D01*
G01X6414958Y-2668833D01*
G01X6412328Y-2670351D01*
G01X6410810Y-2670551D01*
G01X6176886Y-2670551D01*
G01X6174000Y-2670551D01*
G01X6170435Y-2670551D01*
G01X6167619Y-2670997D01*
G01X6163393Y-2671666D01*
G01X6163393Y-2671667D01*
G01X6156613Y-2673870D01*
G01X6156613Y-2673870D01*
G01X6150260Y-2677106D01*
G01X6150260Y-2677106D01*
G01X6144492Y-2681297D01*
G01X6144492Y-2681297D01*
G01X6067094Y-2758695D01*
G01X6064465Y-2760214D01*
G01X6062946Y-2760413D01*
G01X6060488Y-2760413D01*
G01X6053258Y-2761851D01*
G01X6046448Y-2764672D01*
G01X6046447Y-2764672D01*
G01X6040319Y-2768768D01*
G01X6040318Y-2768768D01*
G01X6035106Y-2773980D01*
G01X6035106Y-2773980D01*
G01X6031011Y-2780109D01*
G01X6031011Y-2780109D01*
G01X6028190Y-2786919D01*
G01X6026752Y-2794149D01*
G01X5679863Y-2794149D01*
G01X5684256Y-2789756D01*
G01X5689175Y-2782985D01*
G01X5692975Y-2775528D01*
G01X5695561Y-2767569D01*
G01X5696870Y-2759303D01*
G01X5696870Y-2750934D01*
G01X5695561Y-2742668D01*
G01X5692975Y-2734708D01*
G01X5689175Y-2727251D01*
G01X5684256Y-2720481D01*
G01X5678338Y-2714563D01*
G01X5671568Y-2709644D01*
G01X5664111Y-2705844D01*
G01X5656151Y-2703258D01*
G01X5647885Y-2701949D01*
G01X5619831Y-2701949D01*
G01X5612943Y-2703040D01*
G01X5611565Y-2703258D01*
G01X5603606Y-2705844D01*
G01X5603606Y-2705844D01*
G01X5603606Y-2705844D01*
G01X5603606Y-2705844D01*
G01X5596149Y-2709644D01*
G01X5596149Y-2709644D01*
G01X5589378Y-2714563D01*
G01X5589378Y-2714563D01*
G01X5583461Y-2720481D01*
G01X5583460Y-2720481D01*
G01X5578541Y-2727251D01*
G01X5578541Y-2727251D01*
G01X5574742Y-2734708D01*
G01X5574742Y-2734708D01*
G01X5574257Y-2736201D01*
G01X5572156Y-2742668D01*
G01X5570846Y-2750934D01*
G01X5492146Y-2750934D01*
G01X5492146Y-2519920D01*
G01X5492196Y-2519154D01*
G01X5492696Y-2515356D01*
G01X5493092Y-2513877D01*
G01X5494468Y-2510556D01*
G01X5495233Y-2509230D01*
G01X5497422Y-2506378D01*
G01X5498504Y-2505296D01*
G01X5501356Y-2503107D01*
G01X5502682Y-2502342D01*
G01X5506003Y-2500966D01*
G01X5507482Y-2500570D01*
G01X5511280Y-2500070D01*
G01X5512046Y-2500020D01*
G01X5928025Y-2500020D01*
G01X5928325Y-2500000D01*
G01X5948819Y-2500000D01*
G01X5950658Y-2499758D01*
G01X5953914Y-2499329D01*
G01X5953914Y-2499329D01*
G01X5953914Y-2499329D01*
G01X5955880Y-2498515D01*
G01X5958661Y-2497363D01*
G01X5958661Y-2497363D01*
G01X5958661Y-2497363D01*
G01X5962738Y-2494234D01*
G01X5965867Y-2490157D01*
G01X5967833Y-2485410D01*
G01X5967833Y-2485410D01*
G01X5967833Y-2485410D01*
G01X5968504Y-2480315D01*
G01X5968504Y-2480315D01*
G01X5968504Y-2299740D01*
G01X6133839Y-2299740D01*
G01X6133839Y-2306559D01*
G01X6134297Y-2309452D01*
G01X6134905Y-2313295D01*
G01X6136404Y-2317906D01*
G01X6137013Y-2319781D01*
G01X6137013Y-2319781D01*
G01X6140109Y-2325858D01*
G01X6144117Y-2331375D01*
G01X6144118Y-2331375D01*
G01X6148940Y-2336197D01*
G01X6154457Y-2340206D01*
G01X6160534Y-2343302D01*
G01X6167020Y-2345410D01*
G01X6173755Y-2346476D01*
G01X6173756Y-2346476D01*
G01X6180575Y-2346476D01*
G01X6180575Y-2346476D01*
G01X6187311Y-2345410D01*
G01X6193797Y-2343302D01*
G01X6199874Y-2340206D01*
G01X6205391Y-2336197D01*
G01X6207173Y-2334415D01*
G01X6209803Y-2332897D01*
G01X6211321Y-2332697D01*
G01X6320175Y-2332697D01*
G01X6323108Y-2333483D01*
G01X6324323Y-2334415D01*
G01X6326105Y-2336197D01*
G01X6331623Y-2340206D01*
G01X6337699Y-2343302D01*
G01X6344185Y-2345410D01*
G01X6350921Y-2346476D01*
G01X6350921Y-2346476D01*
G01X6357740Y-2346476D01*
G01X6357741Y-2346476D01*
G01X6364476Y-2345410D01*
G01X6370962Y-2343302D01*
G01X6377039Y-2340206D01*
G01X6382556Y-2336197D01*
G01X6387379Y-2331375D01*
G01X6391387Y-2325858D01*
G01X6394483Y-2319781D01*
G01X6396591Y-2313295D01*
G01X6397657Y-2306559D01*
G01X6397657Y-2299740D01*
G01X6396591Y-2293004D01*
G01X6394483Y-2286518D01*
G01X6391387Y-2280441D01*
G01X6387379Y-2274924D01*
G01X6382556Y-2270102D01*
G01X6382556Y-2270102D01*
G01X6377039Y-2266093D01*
G01X6377039Y-2266093D01*
G01X6377039Y-2266093D01*
G01X6370962Y-2262997D01*
G01X6369087Y-2262388D01*
G01X6364476Y-2260890D01*
G01X6360633Y-2260281D01*
G01X6357741Y-2259823D01*
G01X6350921Y-2259823D01*
G01X6348309Y-2260237D01*
G01X6344185Y-2260890D01*
G01X6337699Y-2262997D01*
G01X6337699Y-2262997D01*
G01X6337699Y-2262997D01*
G01X6337699Y-2262997D01*
G01X6331622Y-2266093D01*
G01X6326105Y-2270102D01*
G01X6324323Y-2271884D01*
G01X6321693Y-2273402D01*
G01X6320175Y-2273602D01*
G01X6211321Y-2273602D01*
G01X6208388Y-2272816D01*
G01X6207173Y-2271884D01*
G01X6205391Y-2270102D01*
G01X6205391Y-2270102D01*
G01X6199874Y-2266093D01*
G01X6199874Y-2266093D01*
G01X6199874Y-2266093D01*
G01X6193797Y-2262997D01*
G01X6191922Y-2262388D01*
G01X6187311Y-2260890D01*
G01X6183468Y-2260281D01*
G01X6180575Y-2259823D01*
G01X6173755Y-2259823D01*
G01X6171143Y-2260237D01*
G01X6167020Y-2260890D01*
G01X6160534Y-2262997D01*
G01X6160534Y-2262997D01*
G01X6160533Y-2262997D01*
G01X6160533Y-2262997D01*
G01X6154457Y-2266093D01*
G01X6148940Y-2270102D01*
G01X6144117Y-2274924D01*
G01X6140109Y-2280441D01*
G01X6137013Y-2286518D01*
G01X6137013Y-2286518D01*
G01X6134905Y-2293004D01*
G01X6134182Y-2297570D01*
G01X6133839Y-2299740D01*
G01X5968504Y-2299740D01*
G01X5968504Y-2124262D01*
G01X6129921Y-2124262D01*
G01X6131169Y-2130537D01*
G01X6131169Y-2130537D01*
G01X6133618Y-2136448D01*
G01X6137172Y-2141768D01*
G01X6137173Y-2141768D01*
G01X6141697Y-2146292D01*
G01X6147016Y-2149847D01*
G01X6152559Y-2152143D01*
G01X6152559Y-2152143D01*
G01X6172244Y-2152143D01*
G01X6177787Y-2149847D01*
G01X6183107Y-2146292D01*
G01X6187631Y-2141768D01*
G01X6187631Y-2141768D01*
G01X6191185Y-2136448D01*
G01X6193634Y-2130537D01*
G01X6193634Y-2130537D01*
G01X6194882Y-2124262D01*
G01X6411417Y-2124262D01*
G01X6412665Y-2130537D01*
G01X6412666Y-2130537D01*
G01X6415114Y-2136448D01*
G01X6418668Y-2141768D01*
G01X6418669Y-2141768D01*
G01X6423193Y-2146292D01*
G01X6428512Y-2149847D01*
G01X6434055Y-2152143D01*
G01X6434055Y-2152143D01*
G01X6453740Y-2152143D01*
G01X6459283Y-2149847D01*
G01X6464603Y-2146292D01*
G01X6469127Y-2141768D01*
G01X6469127Y-2141768D01*
G01X6472681Y-2136448D01*
G01X6475130Y-2130537D01*
G01X6475130Y-2130537D01*
G01X6476378Y-2124262D01*
G01X6476378Y-2114173D01*
G01X6453740Y-2114173D01*
G01X6453740Y-2152143D01*
G01X6434055Y-2152143D01*
G01X6434055Y-2114173D01*
G01X6411417Y-2114173D01*
G01X6411417Y-2124262D01*
G01X6194882Y-2124262D01*
G01X6194882Y-2114173D01*
G01X6172244Y-2114173D01*
G01X6172244Y-2152143D01*
G01X6152559Y-2152143D01*
G01X6152559Y-2114173D01*
G01X6129921Y-2114173D01*
G01X6129921Y-2124262D01*
G01X5968504Y-2124262D01*
G01X5968504Y-2086999D01*
G01X5968554Y-2086233D01*
G01X5968796Y-2084399D01*
G01X5969074Y-2082285D01*
G01X5969470Y-2080806D01*
G01X5970846Y-2077485D01*
G01X5971611Y-2076159D01*
G01X5973800Y-2073307D01*
G01X5974882Y-2072225D01*
G01X5977734Y-2070036D01*
G01X5979060Y-2069271D01*
G01X5982381Y-2067895D01*
G01X5983860Y-2067499D01*
G01X5987658Y-2066999D01*
G01X5988424Y-2066949D01*
G01X6127019Y-2066949D01*
G01X6129952Y-2067735D01*
G37*
M02*
