G04 This is an RS-274x file exported by *
G04 gerbv version  *
G04 More information is available about gerbv at *
G04 https://gerbv.github.io/ *
G04 --End of header info--*
%MOIN*%
%FSLAX36Y36*%
%IPPOS*%
G04 --Define apertures--*
%AMMACRO10*
4,1,4,0.025012,0.025012,-0.025012,0.025012,-0.025012,-0.025012,0.025012,-0.025012,0.025012,0.025012,0.000000*
1,1,0.020843,0.025012,0.025012*
1,1,0.020843,-0.025012,0.025012*
1,1,0.020843,-0.025012,-0.025012*
1,1,0.020843,0.025012,-0.025012*
20,1,0.020843,0.025012,0.025012,-0.025012,0.025012,0.000000*
20,1,0.020843,-0.025012,0.025012,-0.025012,-0.025012,0.000000*
20,1,0.020843,-0.025012,-0.025012,0.025012,-0.025012,0.000000*
20,1,0.020843,0.025012,-0.025012,0.025012,0.025012,0.000000*
%
%ADD10MACRO10*%
%ADD11O,0.0906X0.0709*%
%AMMACRO12*
4,1,4,0.031004,0.050689,-0.031004,0.050689,-0.031004,-0.050689,0.031004,-0.050689,0.031004,0.050689,0.000000*
1,1,0.020669,0.031004,0.050689*
1,1,0.020669,-0.031004,0.050689*
1,1,0.020669,-0.031004,-0.050689*
1,1,0.020669,0.031004,-0.050689*
20,1,0.020669,0.031004,0.050689,-0.031004,0.050689,0.000000*
20,1,0.020669,-0.031004,0.050689,-0.031004,-0.050689,0.000000*
20,1,0.020669,-0.031004,-0.050689,0.031004,-0.050689,0.000000*
20,1,0.020669,0.031004,-0.050689,0.031004,0.050689,0.000000*
%
%ADD12MACRO12*%
%ADD13O,0.0827X0.1220*%
%AMMACRO14*
4,1,4,-0.030709,-0.044488,0.030709,-0.044488,0.030709,0.044488,-0.030709,0.044488,-0.030709,-0.044488,0.000000*
1,1,0.017323,-0.030709,-0.044488*
1,1,0.017323,0.030709,-0.044488*
1,1,0.017323,0.030709,0.044488*
1,1,0.017323,-0.030709,0.044488*
20,1,0.017323,-0.030709,-0.044488,0.030709,-0.044488,0.000000*
20,1,0.017323,0.030709,-0.044488,0.030709,0.044488,0.000000*
20,1,0.017323,0.030709,0.044488,-0.030709,0.044488,0.000000*
20,1,0.017323,-0.030709,0.044488,-0.030709,-0.044488,0.000000*
%
%ADD14MACRO14*%
%ADD15O,0.0827X0.1142*%
%ADD16C,0.0512*%
%ADD17O,0.0591X0.0827*%
%AMMACRO18*
4,1,4,0.018982,-0.030793,0.018982,0.030793,-0.018982,0.030793,-0.018982,-0.030793,0.018982,-0.030793,0.000000*
1,1,0.021091,0.018982,-0.030793*
1,1,0.021091,0.018982,0.030793*
1,1,0.021091,-0.018982,0.030793*
1,1,0.021091,-0.018982,-0.030793*
20,1,0.021091,0.018982,-0.030793,0.018982,0.030793,0.000000*
20,1,0.021091,0.018982,0.030793,-0.018982,0.030793,0.000000*
20,1,0.021091,-0.018982,0.030793,-0.018982,-0.030793,0.000000*
20,1,0.021091,-0.018982,-0.030793,0.018982,-0.030793,0.000000*
%
%ADD18MACRO18*%
%AMMACRO19*
4,1,4,0.025818,-0.016959,0.025818,0.016959,-0.025818,0.016959,-0.025818,-0.016959,0.025818,-0.016959,0.000000*
1,1,0.021199,0.025818,-0.016959*
1,1,0.021199,0.025818,0.016959*
1,1,0.021199,-0.025818,0.016959*
1,1,0.021199,-0.025818,-0.016959*
20,1,0.021199,0.025818,-0.016959,0.025818,0.016959,0.000000*
20,1,0.021199,0.025818,0.016959,-0.025818,0.016959,0.000000*
20,1,0.021199,-0.025818,0.016959,-0.025818,-0.016959,0.000000*
20,1,0.021199,-0.025818,-0.016959,0.025818,-0.016959,0.000000*
%
%ADD19MACRO19*%
%AMMACRO20*
4,1,4,0.026816,-0.017466,0.026816,0.017466,-0.026816,0.017466,-0.026816,-0.017466,0.026816,-0.017466,0.000000*
1,1,0.021171,0.026816,-0.017466*
1,1,0.021171,0.026816,0.017466*
1,1,0.021171,-0.026816,0.017466*
1,1,0.021171,-0.026816,-0.017466*
20,1,0.021171,0.026816,-0.017466,0.026816,0.017466,0.000000*
20,1,0.021171,0.026816,0.017466,-0.026816,0.017466,0.000000*
20,1,0.021171,-0.026816,0.017466,-0.026816,-0.017466,0.000000*
20,1,0.021171,-0.026816,-0.017466,0.026816,-0.017466,0.000000*
%
%ADD20MACRO20*%
%AMMACRO21*
4,1,4,-0.012885,-0.012885,0.012885,-0.012885,0.012885,0.012885,-0.012885,0.012885,-0.012885,-0.012885,0.000000*
1,1,0.021475,-0.012885,-0.012885*
1,1,0.021475,0.012885,-0.012885*
1,1,0.021475,0.012885,0.012885*
1,1,0.021475,-0.012885,0.012885*
20,1,0.021475,-0.012885,-0.012885,0.012885,-0.012885,0.000000*
20,1,0.021475,0.012885,-0.012885,0.012885,0.012885,0.000000*
20,1,0.021475,0.012885,0.012885,-0.012885,0.012885,0.000000*
20,1,0.021475,-0.012885,0.012885,-0.012885,-0.012885,0.000000*
%
%ADD21MACRO21*%
%AMMACRO22*
4,1,4,-0.025818,0.016959,-0.025818,-0.016959,0.025818,-0.016959,0.025818,0.016959,-0.025818,0.016959,0.000000*
1,1,0.021199,-0.025818,0.016959*
1,1,0.021199,-0.025818,-0.016959*
1,1,0.021199,0.025818,-0.016959*
1,1,0.021199,0.025818,0.016959*
20,1,0.021199,-0.025818,0.016959,-0.025818,-0.016959,0.000000*
20,1,0.021199,-0.025818,-0.016959,0.025818,-0.016959,0.000000*
20,1,0.021199,0.025818,-0.016959,0.025818,0.016959,0.000000*
20,1,0.021199,0.025818,0.016959,-0.025818,0.016959,0.000000*
%
%ADD22MACRO22*%
%AMMACRO23*
4,1,4,0.027380,-0.037223,0.027380,0.037223,-0.027380,0.037223,-0.027380,-0.037223,0.027380,-0.037223,0.000000*
1,1,0.016106,0.027380,-0.037223*
1,1,0.016106,0.027380,0.037223*
1,1,0.016106,-0.027380,0.037223*
1,1,0.016106,-0.027380,-0.037223*
20,1,0.016106,0.027380,-0.037223,0.027380,0.037223,0.000000*
20,1,0.016106,0.027380,0.037223,-0.027380,0.037223,0.000000*
20,1,0.016106,-0.027380,0.037223,-0.027380,-0.037223,0.000000*
20,1,0.016106,-0.027380,-0.037223,0.027380,-0.037223,0.000000*
%
%ADD23MACRO23*%
%ADD24C,0.0827*%
%ADD25C,0.0906*%
%ADD26O,0.0709X0.1024*%
%AMMACRO27*
4,1,4,-0.049213,-0.019685,0.049213,-0.019685,0.049213,0.019685,-0.049213,0.019685,-0.049213,-0.019685,0.000000*
1,1,0.003937,-0.049213,-0.019685*
1,1,0.003937,0.049213,-0.019685*
1,1,0.003937,0.049213,0.019685*
1,1,0.003937,-0.049213,0.019685*
20,1,0.003937,-0.049213,-0.019685,0.049213,-0.019685,0.000000*
20,1,0.003937,0.049213,-0.019685,0.049213,0.019685,0.000000*
20,1,0.003937,0.049213,0.019685,-0.049213,0.019685,0.000000*
20,1,0.003937,-0.049213,0.019685,-0.049213,-0.019685,0.000000*
%
%ADD27MACRO27*%
%AMMACRO28*
4,1,4,-0.019685,-0.035433,0.019685,-0.035433,0.019685,0.035433,-0.019685,0.035433,-0.019685,-0.035433,0.000000*
1,1,0.003937,-0.019685,-0.035433*
1,1,0.003937,0.019685,-0.035433*
1,1,0.003937,0.019685,0.035433*
1,1,0.003937,-0.019685,0.035433*
20,1,0.003937,-0.019685,-0.035433,0.019685,-0.035433,0.000000*
20,1,0.003937,0.019685,-0.035433,0.019685,0.035433,0.000000*
20,1,0.003937,0.019685,0.035433,-0.019685,0.035433,0.000000*
20,1,0.003937,-0.019685,0.035433,-0.019685,-0.035433,0.000000*
%
%ADD28MACRO28*%
%AMMACRO29*
4,1,4,0.033465,0.006890,-0.033465,0.006890,-0.033465,-0.006890,0.033465,-0.006890,0.033465,0.006890,0.000000*
1,1,0.013780,0.033465,0.006890*
1,1,0.013780,-0.033465,0.006890*
1,1,0.013780,-0.033465,-0.006890*
1,1,0.013780,0.033465,-0.006890*
20,1,0.013780,0.033465,0.006890,-0.033465,0.006890,0.000000*
20,1,0.013780,-0.033465,0.006890,-0.033465,-0.006890,0.000000*
20,1,0.013780,-0.033465,-0.006890,0.033465,-0.006890,0.000000*
20,1,0.013780,0.033465,-0.006890,0.033465,0.006890,0.000000*
%
%ADD29MACRO29*%
%AMMACRO30*
4,1,4,0.005906,0.025591,-0.005906,0.025591,-0.005906,-0.025591,0.005906,-0.025591,0.005906,0.025591,0.000000*
1,1,0.003937,0.005906,0.025591*
1,1,0.003937,-0.005906,0.025591*
1,1,0.003937,-0.005906,-0.025591*
1,1,0.003937,0.005906,-0.025591*
20,1,0.003937,0.005906,0.025591,-0.005906,0.025591,0.000000*
20,1,0.003937,-0.005906,0.025591,-0.005906,-0.025591,0.000000*
20,1,0.003937,-0.005906,-0.025591,0.005906,-0.025591,0.000000*
20,1,0.003937,0.005906,-0.025591,0.005906,0.025591,0.000000*
%
%ADD30MACRO30*%
%AMMACRO31*
4,1,4,0.027012,0.034886,-0.027012,0.034886,-0.027012,-0.034886,0.027012,-0.034886,0.027012,0.034886,0.000000*
1,1,0.020779,0.027012,0.034886*
1,1,0.020779,-0.027012,0.034886*
1,1,0.020779,-0.027012,-0.034886*
1,1,0.020779,0.027012,-0.034886*
20,1,0.020779,0.027012,0.034886,-0.027012,0.034886,0.000000*
20,1,0.020779,-0.027012,0.034886,-0.027012,-0.034886,0.000000*
20,1,0.020779,-0.027012,-0.034886,0.027012,-0.034886,0.000000*
20,1,0.020779,0.027012,-0.034886,0.027012,0.034886,0.000000*
%
%ADD31MACRO31*%
%ADD32O,0.0866X0.0709*%
%AMMACRO33*
4,1,4,-0.025012,-0.025012,0.025012,-0.025012,0.025012,0.025012,-0.025012,0.025012,-0.025012,-0.025012,0.000000*
1,1,0.020843,-0.025012,-0.025012*
1,1,0.020843,0.025012,-0.025012*
1,1,0.020843,0.025012,0.025012*
1,1,0.020843,-0.025012,0.025012*
20,1,0.020843,-0.025012,-0.025012,0.025012,-0.025012,0.000000*
20,1,0.020843,0.025012,-0.025012,0.025012,0.025012,0.000000*
20,1,0.020843,0.025012,0.025012,-0.025012,0.025012,0.000000*
20,1,0.020843,-0.025012,0.025012,-0.025012,-0.025012,0.000000*
%
%ADD33MACRO33*%
%AMMACRO34*
4,1,4,-0.017466,-0.026816,0.017466,-0.026816,0.017466,0.026816,-0.017466,0.026816,-0.017466,-0.026816,0.000000*
1,1,0.021171,-0.017466,-0.026816*
1,1,0.021171,0.017466,-0.026816*
1,1,0.021171,0.017466,0.026816*
1,1,0.021171,-0.017466,0.026816*
20,1,0.021171,-0.017466,-0.026816,0.017466,-0.026816,0.000000*
20,1,0.021171,0.017466,-0.026816,0.017466,0.026816,0.000000*
20,1,0.021171,0.017466,0.026816,-0.017466,0.026816,0.000000*
20,1,0.021171,-0.017466,0.026816,-0.017466,-0.026816,0.000000*
%
%ADD34MACRO34*%
%AMMACRO35*
4,1,4,0.004921,-0.023130,0.004921,0.023130,-0.004921,0.023130,-0.004921,-0.023130,0.004921,-0.023130,0.000000*
1,1,0.009843,0.004921,-0.023130*
1,1,0.009843,0.004921,0.023130*
1,1,0.009843,-0.004921,0.023130*
1,1,0.009843,-0.004921,-0.023130*
20,1,0.009843,0.004921,-0.023130,0.004921,0.023130,0.000000*
20,1,0.009843,0.004921,0.023130,-0.004921,0.023130,0.000000*
20,1,0.009843,-0.004921,0.023130,-0.004921,-0.023130,0.000000*
20,1,0.009843,-0.004921,-0.023130,0.004921,-0.023130,0.000000*
%
%ADD35MACRO35*%
%AMMACRO36*
4,1,4,-0.015748,0.025591,-0.015748,-0.025591,0.015748,-0.025591,0.015748,0.025591,-0.015748,0.025591,0.000000*
1,1,0.031496,-0.015748,0.025591*
1,1,0.031496,-0.015748,-0.025591*
1,1,0.031496,0.015748,-0.025591*
1,1,0.031496,0.015748,0.025591*
20,1,0.031496,-0.015748,0.025591,-0.015748,-0.025591,0.000000*
20,1,0.031496,-0.015748,-0.025591,0.015748,-0.025591,0.000000*
20,1,0.031496,0.015748,-0.025591,0.015748,0.025591,0.000000*
20,1,0.031496,0.015748,0.025591,-0.015748,0.025591,0.000000*
%
%ADD36MACRO36*%
%AMMACRO37*
4,1,4,-0.056102,0.020669,-0.056102,-0.020669,0.056102,-0.020669,0.056102,0.020669,-0.056102,0.020669,0.000000*
1,1,0.041339,-0.056102,0.020669*
1,1,0.041339,-0.056102,-0.020669*
1,1,0.041339,0.056102,-0.020669*
1,1,0.041339,0.056102,0.020669*
20,1,0.041339,-0.056102,0.020669,-0.056102,-0.020669,0.000000*
20,1,0.041339,-0.056102,-0.020669,0.056102,-0.020669,0.000000*
20,1,0.041339,0.056102,-0.020669,0.056102,0.020669,0.000000*
20,1,0.041339,0.056102,0.020669,-0.056102,0.020669,0.000000*
%
%ADD37MACRO37*%
%AMMACRO38*
4,1,4,0.024114,0.006890,-0.024114,0.006890,-0.024114,-0.006890,0.024114,-0.006890,0.024114,0.006890,0.000000*
1,1,0.013780,0.024114,0.006890*
1,1,0.013780,-0.024114,0.006890*
1,1,0.013780,-0.024114,-0.006890*
1,1,0.013780,0.024114,-0.006890*
20,1,0.013780,0.024114,0.006890,-0.024114,0.006890,0.000000*
20,1,0.013780,-0.024114,0.006890,-0.024114,-0.006890,0.000000*
20,1,0.013780,-0.024114,-0.006890,0.024114,-0.006890,0.000000*
20,1,0.013780,0.024114,-0.006890,0.024114,0.006890,0.000000*
%
%ADD38MACRO38*%
%AMMACRO39*
4,1,4,-0.026816,0.017466,-0.026816,-0.017466,0.026816,-0.017466,0.026816,0.017466,-0.026816,0.017466,0.000000*
1,1,0.021171,-0.026816,0.017466*
1,1,0.021171,-0.026816,-0.017466*
1,1,0.021171,0.026816,-0.017466*
1,1,0.021171,0.026816,0.017466*
20,1,0.021171,-0.026816,0.017466,-0.026816,-0.017466,0.000000*
20,1,0.021171,-0.026816,-0.017466,0.026816,-0.017466,0.000000*
20,1,0.021171,0.026816,-0.017466,0.026816,0.017466,0.000000*
20,1,0.021171,0.026816,0.017466,-0.026816,0.017466,0.000000*
%
%ADD39MACRO39*%
%AMMACRO40*
4,1,4,-0.074311,0.031004,-0.074311,-0.031004,0.074311,-0.031004,0.074311,0.031004,-0.074311,0.031004,0.000000*
1,1,0.020669,-0.074311,0.031004*
1,1,0.020669,-0.074311,-0.031004*
1,1,0.020669,0.074311,-0.031004*
1,1,0.020669,0.074311,0.031004*
20,1,0.020669,-0.074311,0.031004,-0.074311,-0.031004,0.000000*
20,1,0.020669,-0.074311,-0.031004,0.074311,-0.031004,0.000000*
20,1,0.020669,0.074311,-0.031004,0.074311,0.031004,0.000000*
20,1,0.020669,0.074311,0.031004,-0.074311,0.031004,0.000000*
%
%ADD40MACRO40*%
%AMMACRO41*
4,1,4,0.016732,0.016732,-0.016732,0.016732,-0.016732,-0.016732,0.016732,-0.016732,0.016732,0.016732,0.000000*
1,1,0.033465,0.016732,0.016732*
1,1,0.033465,-0.016732,0.016732*
1,1,0.033465,-0.016732,-0.016732*
1,1,0.033465,0.016732,-0.016732*
20,1,0.033465,0.016732,0.016732,-0.016732,0.016732,0.000000*
20,1,0.033465,-0.016732,0.016732,-0.016732,-0.016732,0.000000*
20,1,0.033465,-0.016732,-0.016732,0.016732,-0.016732,0.000000*
20,1,0.033465,0.016732,-0.016732,0.016732,0.016732,0.000000*
%
%ADD41MACRO41*%
%ADD42C,0.0669*%
%AMMACRO43*
4,1,4,-0.025787,0.015945,-0.025787,-0.015945,0.025787,-0.015945,0.025787,0.015945,-0.025787,0.015945,0.000000*
1,1,0.021260,-0.025787,0.015945*
1,1,0.021260,-0.025787,-0.015945*
1,1,0.021260,0.025787,-0.015945*
1,1,0.021260,0.025787,0.015945*
20,1,0.021260,-0.025787,0.015945,-0.025787,-0.015945,0.000000*
20,1,0.021260,-0.025787,-0.015945,0.025787,-0.015945,0.000000*
20,1,0.021260,0.025787,-0.015945,0.025787,0.015945,0.000000*
20,1,0.021260,0.025787,0.015945,-0.025787,0.015945,0.000000*
%
%ADD43MACRO43*%
%AMMACRO44*
4,1,4,-0.007382,0.015256,-0.007382,-0.015256,0.007382,-0.015256,0.007382,0.015256,-0.007382,0.015256,0.000000*
1,1,0.014764,-0.007382,0.015256*
1,1,0.014764,-0.007382,-0.015256*
1,1,0.014764,0.007382,-0.015256*
1,1,0.014764,0.007382,0.015256*
20,1,0.014764,-0.007382,0.015256,-0.007382,-0.015256,0.000000*
20,1,0.014764,-0.007382,-0.015256,0.007382,-0.015256,0.000000*
20,1,0.014764,0.007382,-0.015256,0.007382,0.015256,0.000000*
20,1,0.014764,0.007382,0.015256,-0.007382,0.015256,0.000000*
%
%ADD44MACRO44*%
%AMMACRO45*
4,1,4,0.007874,0.027559,-0.007874,0.027559,-0.007874,-0.027559,0.007874,-0.027559,0.007874,0.027559,0.000000*
1,1,0.003937,0.007874,0.027559*
1,1,0.003937,-0.007874,0.027559*
1,1,0.003937,-0.007874,-0.027559*
1,1,0.003937,0.007874,-0.027559*
20,1,0.003937,0.007874,0.027559,-0.007874,0.027559,0.000000*
20,1,0.003937,-0.007874,0.027559,-0.007874,-0.027559,0.000000*
20,1,0.003937,-0.007874,-0.027559,0.007874,-0.027559,0.000000*
20,1,0.003937,0.007874,-0.027559,0.007874,0.027559,0.000000*
%
%ADD45MACRO45*%
%ADD46O,0.0453X0.0787*%
%AMMACRO47*
4,1,4,0.022638,0.028543,-0.022638,0.028543,-0.022638,-0.028543,0.022638,-0.028543,0.022638,0.028543,0.000000*
1,1,0.003937,0.022638,0.028543*
1,1,0.003937,-0.022638,0.028543*
1,1,0.003937,-0.022638,-0.028543*
1,1,0.003937,0.022638,-0.028543*
20,1,0.003937,0.022638,0.028543,-0.022638,0.028543,0.000000*
20,1,0.003937,-0.022638,0.028543,-0.022638,-0.028543,0.000000*
20,1,0.003937,-0.022638,-0.028543,0.022638,-0.028543,0.000000*
20,1,0.003937,0.022638,-0.028543,0.022638,0.028543,0.000000*
%
%ADD47MACRO47*%
%AMMACRO48*
4,1,4,0.034449,0.037402,-0.034449,0.037402,-0.034449,-0.037402,0.034449,-0.037402,0.034449,0.037402,0.000000*
1,1,0.003937,0.034449,0.037402*
1,1,0.003937,-0.034449,0.037402*
1,1,0.003937,-0.034449,-0.037402*
1,1,0.003937,0.034449,-0.037402*
20,1,0.003937,0.034449,0.037402,-0.034449,0.037402,0.000000*
20,1,0.003937,-0.034449,0.037402,-0.034449,-0.037402,0.000000*
20,1,0.003937,-0.034449,-0.037402,0.034449,-0.037402,0.000000*
20,1,0.003937,0.034449,-0.037402,0.034449,0.037402,0.000000*
%
%ADD48MACRO48*%
%AMMACRO49*
4,1,4,-0.016959,-0.025818,0.016959,-0.025818,0.016959,0.025818,-0.016959,0.025818,-0.016959,-0.025818,0.000000*
1,1,0.021199,-0.016959,-0.025818*
1,1,0.021199,0.016959,-0.025818*
1,1,0.021199,0.016959,0.025818*
1,1,0.021199,-0.016959,0.025818*
20,1,0.021199,-0.016959,-0.025818,0.016959,-0.025818,0.000000*
20,1,0.021199,0.016959,-0.025818,0.016959,0.025818,0.000000*
20,1,0.021199,0.016959,0.025818,-0.016959,0.025818,0.000000*
20,1,0.021199,-0.016959,0.025818,-0.016959,-0.025818,0.000000*
%
%ADD49MACRO49*%
%AMMACRO50*
4,1,4,0.006890,-0.035433,0.006890,0.035433,-0.006890,0.035433,-0.006890,-0.035433,0.006890,-0.035433,0.000000*
1,1,0.013780,0.006890,-0.035433*
1,1,0.013780,0.006890,0.035433*
1,1,0.013780,-0.006890,0.035433*
1,1,0.013780,-0.006890,-0.035433*
20,1,0.013780,0.006890,-0.035433,0.006890,0.035433,0.000000*
20,1,0.013780,0.006890,0.035433,-0.006890,0.035433,0.000000*
20,1,0.013780,-0.006890,0.035433,-0.006890,-0.035433,0.000000*
20,1,0.013780,-0.006890,-0.035433,0.006890,-0.035433,0.000000*
%
%ADD50MACRO50*%
%AMMACRO51*
4,1,4,-0.023007,-0.023007,0.023007,-0.023007,0.023007,0.023007,-0.023007,0.023007,-0.023007,-0.023007,0.000000*
1,1,0.020915,-0.023007,-0.023007*
1,1,0.020915,0.023007,-0.023007*
1,1,0.020915,0.023007,0.023007*
1,1,0.020915,-0.023007,0.023007*
20,1,0.020915,-0.023007,-0.023007,0.023007,-0.023007,0.000000*
20,1,0.020915,0.023007,-0.023007,0.023007,0.023007,0.000000*
20,1,0.020915,0.023007,0.023007,-0.023007,0.023007,0.000000*
20,1,0.020915,-0.023007,0.023007,-0.023007,-0.023007,0.000000*
%
%ADD51MACRO51*%
%AMMACRO52*
4,1,4,0.007382,-0.015256,0.007382,0.015256,-0.007382,0.015256,-0.007382,-0.015256,0.007382,-0.015256,0.000000*
1,1,0.014764,0.007382,-0.015256*
1,1,0.014764,0.007382,0.015256*
1,1,0.014764,-0.007382,0.015256*
1,1,0.014764,-0.007382,-0.015256*
20,1,0.014764,0.007382,-0.015256,0.007382,0.015256,0.000000*
20,1,0.014764,0.007382,0.015256,-0.007382,0.015256,0.000000*
20,1,0.014764,-0.007382,0.015256,-0.007382,-0.015256,0.000000*
20,1,0.014764,-0.007382,-0.015256,0.007382,-0.015256,0.000000*
%
%ADD52MACRO52*%
%AMMACRO53*
4,1,4,-0.025512,-0.025512,0.025512,-0.025512,0.025512,0.025512,-0.025512,0.025512,-0.025512,-0.025512,0.000000*
1,1,0.019843,-0.025512,-0.025512*
1,1,0.019843,0.025512,-0.025512*
1,1,0.019843,0.025512,0.025512*
1,1,0.019843,-0.025512,0.025512*
20,1,0.019843,-0.025512,-0.025512,0.025512,-0.025512,0.000000*
20,1,0.019843,0.025512,-0.025512,0.025512,0.025512,0.000000*
20,1,0.019843,0.025512,0.025512,-0.025512,0.025512,0.000000*
20,1,0.019843,-0.025512,0.025512,-0.025512,-0.025512,0.000000*
%
%ADD53MACRO53*%
%ADD54C,0.0748*%
G04 --Start main section--*
G54D10*
G01X5633858Y-2955118D03*
G54D11*
G01X5633858Y-2855118D03*
G01X5633858Y-2755118D03*
G54D16*
G01X6625591Y-4947835D03*
G01X6625591Y-4672244D03*
G54D17*
G01X6499606Y-4999016D03*
G01X6716142Y-4880906D03*
G01X6716142Y-4999016D03*
G01X6538976Y-4664370D03*
G54D18*
G01X6716142Y-4723425D03*
G54D19*
G01X5751575Y-3030315D03*
G01X5751575Y-2908268D03*
G54D20*
G01X6440551Y-3700098D03*
G01X6440551Y-3577067D03*
G54D19*
G01X5889370Y-3345276D03*
G01X5889370Y-3223228D03*
G54D21*
G01X6007874Y-2303150D03*
G01X6118110Y-2303150D03*
G54D22*
G01X6440551Y-2868898D03*
G01X6440551Y-2990945D03*
G54D27*
G01X6622047Y-3078740D03*
G01X6622047Y-3157480D03*
G01X6622047Y-3236220D03*
G01X6622047Y-3314961D03*
G01X6622047Y-3393701D03*
G01X6622047Y-3472441D03*
G01X6622047Y-3551181D03*
G01X6622047Y-3629921D03*
G54D28*
G01X6724409Y-3688976D03*
G01X6803150Y-3688976D03*
G01X6881890Y-3688976D03*
G01X6960630Y-3688976D03*
G01X7039370Y-3688976D03*
G01X7118110Y-3688976D03*
G54D27*
G01X7220472Y-3629921D03*
G01X7220472Y-3551181D03*
G01X7220472Y-3472441D03*
G01X7220472Y-3393701D03*
G01X7220472Y-3314961D03*
G01X7220472Y-3236220D03*
G01X7220472Y-3157480D03*
G01X7220472Y-3078740D03*
G54D29*
G01X6259055Y-2754528D03*
G01X6259055Y-2704528D03*
G01X6259055Y-2654528D03*
G01X6259055Y-2604528D03*
G01X6259055Y-2554528D03*
G01X6259055Y-2504528D03*
G01X6259055Y-2454528D03*
G01X6259055Y-2404528D03*
G01X6064173Y-2404528D03*
G01X6064173Y-2454528D03*
G01X6064173Y-2504528D03*
G01X6064173Y-2554528D03*
G01X6064173Y-2604528D03*
G01X6064173Y-2654528D03*
G01X6064173Y-2704528D03*
G01X6064173Y-2754528D03*
G54D10*
G01X5632874Y-4175197D03*
G54D32*
G01X5632874Y-4075197D03*
G54D33*
G01X7435827Y-3755118D03*
G54D32*
G01X7435827Y-3855118D03*
G01X7435827Y-3955118D03*
G01X7435827Y-4055118D03*
G54D35*
G01X6119685Y-2964862D03*
G01X6145276Y-2964862D03*
G01X6170866Y-2964862D03*
G01X6170866Y-2894980D03*
G01X6145276Y-2894980D03*
G01X6119685Y-2894980D03*
G54D38*
G01X6201870Y-4028740D03*
G01X6201870Y-3953937D03*
G01X6128051Y-3991339D03*
G54D19*
G01X6302756Y-3345276D03*
G01X6302756Y-3223228D03*
G01X6302756Y-4052362D03*
G01X6302756Y-3930315D03*
G54D22*
G01X7677165Y-3482283D03*
G01X7677165Y-3604331D03*
G54D40*
G01X5769094Y-3522638D03*
G01X5769094Y-3837598D03*
G54D22*
G01X6578346Y-3930315D03*
G01X6578346Y-4052362D03*
G01X6027165Y-3223228D03*
G01X6027165Y-3345276D03*
G54D19*
G01X5751575Y-3345276D03*
G01X5751575Y-3223228D03*
G54D20*
G01X5889370Y-2755217D03*
G01X5889370Y-2632185D03*
G54D19*
G01X7559055Y-3604331D03*
G01X7559055Y-3482283D03*
G01X6164961Y-3699606D03*
G01X6164961Y-3577559D03*
G54D22*
G01X6027165Y-3577559D03*
G01X6027165Y-3699606D03*
G54D39*
G01X6716142Y-3929823D03*
G01X6716142Y-4052854D03*
G54D22*
G01X5889370Y-2908268D03*
G01X5889370Y-3030315D03*
G54D20*
G01X5751575Y-2755217D03*
G01X5751575Y-2632185D03*
G54D19*
G01X6440551Y-3345276D03*
G01X6440551Y-3223228D03*
G54D45*
G01X6354331Y-2208661D03*
G01X6328740Y-2208661D03*
G01X6303150Y-2208661D03*
G01X6277559Y-2208661D03*
G01X6251969Y-2208661D03*
G54D46*
G01X6443898Y-2104331D03*
G54D47*
G01X6394488Y-2192126D03*
G54D48*
G01X6347441Y-2104331D03*
G01X6258858Y-2104331D03*
G54D47*
G01X6211811Y-2192126D03*
G54D46*
G01X6162402Y-2104331D03*
G54D19*
G01X6164961Y-3345276D03*
G01X6164961Y-3223228D03*
G54D22*
G01X6440551Y-3930315D03*
G01X6440551Y-4052362D03*
G54D33*
G01X7435827Y-2926772D03*
G54D32*
G01X7435827Y-3026772D03*
G01X7435827Y-3126772D03*
G01X7435827Y-3226772D03*
G01X7435827Y-3326772D03*
G54D20*
G01X6302756Y-3700098D03*
G01X6302756Y-3577067D03*
G54D50*
G01X6893504Y-4249803D03*
G01X6943504Y-4249803D03*
G01X6993504Y-4249803D03*
G01X7043504Y-4249803D03*
G01X7093504Y-4249803D03*
G01X7143504Y-4249803D03*
G01X7193504Y-4249803D03*
G01X7243504Y-4249803D03*
G01X7243504Y-3883661D03*
G01X7193504Y-3883661D03*
G01X7143504Y-3883661D03*
G01X7093504Y-3883661D03*
G01X7043504Y-3883661D03*
G01X6993504Y-3883661D03*
G01X6943504Y-3883661D03*
G01X6893504Y-3883661D03*
G54D19*
G01X6302756Y-2990945D03*
G01X6302756Y-2868898D03*
G54D20*
G01X6440551Y-2637106D03*
G01X6440551Y-2514075D03*
M02*
