G04 This is an RS-274x file exported by *
G04 gerbv version  *
G04 More information is available about gerbv at *
G04 https://gerbv.github.io/ *
G04 --End of header info--*
%MOIN*%
%FSLAX36Y36*%
%IPPOS*%
G04 --Define apertures--*
%ADD10C,0.0059*%
%ADD11C,0.0047*%
%ADD12C,0.0079*%
%ADD13C,0.0039*%
%ADD14C,0.0000*%
G04 --Start main section--*
G54D10*
G01X6404324Y-5123036D02*
G01X6404324Y-5105039D01*
G01X6443694Y-5114038D02*
G01X6404324Y-5114038D01*
G01X6432445Y-5096040D02*
G01X6432445Y-5081042D01*
G01X6443694Y-5099039D02*
G01X6404324Y-5088541D01*
G01X6404324Y-5088541D02*
G01X6443694Y-5078042D01*
G01X6441819Y-5045046D02*
G01X6443694Y-5040547D01*
G01X6443694Y-5040547D02*
G01X6443694Y-5033048D01*
G01X6443694Y-5033048D02*
G01X6441819Y-5030048D01*
G01X6441819Y-5030048D02*
G01X6439944Y-5028548D01*
G01X6439944Y-5028548D02*
G01X6436195Y-5027048D01*
G01X6436195Y-5027048D02*
G01X6432445Y-5027048D01*
G01X6432445Y-5027048D02*
G01X6428696Y-5028548D01*
G01X6428696Y-5028548D02*
G01X6426821Y-5030048D01*
G01X6426821Y-5030048D02*
G01X6424946Y-5033048D01*
G01X6424946Y-5033048D02*
G01X6423071Y-5039047D01*
G01X6423071Y-5039047D02*
G01X6421196Y-5042047D01*
G01X6421196Y-5042047D02*
G01X6419322Y-5043546D01*
G01X6419322Y-5043546D02*
G01X6415572Y-5045046D01*
G01X6415572Y-5045046D02*
G01X6411823Y-5045046D01*
G01X6411823Y-5045046D02*
G01X6408073Y-5043546D01*
G01X6408073Y-5043546D02*
G01X6406198Y-5042047D01*
G01X6406198Y-5042047D02*
G01X6404324Y-5039047D01*
G01X6404324Y-5039047D02*
G01X6404324Y-5031548D01*
G01X6404324Y-5031548D02*
G01X6406198Y-5027048D01*
G01X6439944Y-4995552D02*
G01X6441819Y-4997052D01*
G01X6441819Y-4997052D02*
G01X6443694Y-5001552D01*
G01X6443694Y-5001552D02*
G01X6443694Y-5004551D01*
G01X6443694Y-5004551D02*
G01X6441819Y-5009051D01*
G01X6441819Y-5009051D02*
G01X6438069Y-5012050D01*
G01X6438069Y-5012050D02*
G01X6434320Y-5013550D01*
G01X6434320Y-5013550D02*
G01X6426821Y-5015050D01*
G01X6426821Y-5015050D02*
G01X6421196Y-5015050D01*
G01X6421196Y-5015050D02*
G01X6413697Y-5013550D01*
G01X6413697Y-5013550D02*
G01X6409948Y-5012050D01*
G01X6409948Y-5012050D02*
G01X6406198Y-5009051D01*
G01X6406198Y-5009051D02*
G01X6404324Y-5004551D01*
G01X6404324Y-5004551D02*
G01X6404324Y-5001552D01*
G01X6404324Y-5001552D02*
G01X6406198Y-4997052D01*
G01X6406198Y-4997052D02*
G01X6408073Y-4995552D01*
G01X6404324Y-4986553D02*
G01X6404324Y-4968556D01*
G01X6443694Y-4977555D02*
G01X6404324Y-4977555D01*
G01X6428696Y-4958057D02*
G01X6428696Y-4934060D01*
G01X6404324Y-4913063D02*
G01X6404324Y-4910063D01*
G01X6404324Y-4910063D02*
G01X6406198Y-4907063D01*
G01X6406198Y-4907063D02*
G01X6408073Y-4905564D01*
G01X6408073Y-4905564D02*
G01X6411823Y-4904064D01*
G01X6411823Y-4904064D02*
G01X6419322Y-4902564D01*
G01X6419322Y-4902564D02*
G01X6428696Y-4902564D01*
G01X6428696Y-4902564D02*
G01X6436195Y-4904064D01*
G01X6436195Y-4904064D02*
G01X6439944Y-4905564D01*
G01X6439944Y-4905564D02*
G01X6441819Y-4907063D01*
G01X6441819Y-4907063D02*
G01X6443694Y-4910063D01*
G01X6443694Y-4910063D02*
G01X6443694Y-4913063D01*
G01X6443694Y-4913063D02*
G01X6441819Y-4916062D01*
G01X6441819Y-4916062D02*
G01X6439944Y-4917562D01*
G01X6439944Y-4917562D02*
G01X6436195Y-4919062D01*
G01X6436195Y-4919062D02*
G01X6428696Y-4920562D01*
G01X6428696Y-4920562D02*
G01X6419322Y-4920562D01*
G01X6419322Y-4920562D02*
G01X6411823Y-4919062D01*
G01X6411823Y-4919062D02*
G01X6408073Y-4917562D01*
G01X6408073Y-4917562D02*
G01X6406198Y-4916062D01*
G01X6406198Y-4916062D02*
G01X6404324Y-4913063D01*
G01X6443694Y-4872568D02*
G01X6443694Y-4890565D01*
G01X6443694Y-4881567D02*
G01X6404324Y-4881567D01*
G01X6404324Y-4881567D02*
G01X6409948Y-4884566D01*
G01X6409948Y-4884566D02*
G01X6413697Y-4887566D01*
G01X6413697Y-4887566D02*
G01X6415572Y-4890565D01*
G01X6404324Y-4862069D02*
G01X6404324Y-4842571D01*
G01X6404324Y-4842571D02*
G01X6419322Y-4853070D01*
G01X6419322Y-4853070D02*
G01X6419322Y-4848571D01*
G01X6419322Y-4848571D02*
G01X6421196Y-4845571D01*
G01X6421196Y-4845571D02*
G01X6423071Y-4844071D01*
G01X6423071Y-4844071D02*
G01X6426821Y-4842571D01*
G01X6426821Y-4842571D02*
G01X6436195Y-4842571D01*
G01X6436195Y-4842571D02*
G01X6439944Y-4844071D01*
G01X6439944Y-4844071D02*
G01X6441819Y-4845571D01*
G01X6441819Y-4845571D02*
G01X6443694Y-4848571D01*
G01X6443694Y-4848571D02*
G01X6443694Y-4857570D01*
G01X6443694Y-4857570D02*
G01X6441819Y-4860569D01*
G01X6441819Y-4860569D02*
G01X6439944Y-4862069D01*
G01X5987762Y-5000285D02*
G01X5993386Y-5003097D01*
G01X5993386Y-5003097D02*
G01X6002760Y-5003097D01*
G01X6002760Y-5003097D02*
G01X6006510Y-5000285D01*
G01X6006510Y-5000285D02*
G01X6008385Y-4997473D01*
G01X6008385Y-4997473D02*
G01X6010259Y-4991849D01*
G01X6010259Y-4991849D02*
G01X6010259Y-4986224D01*
G01X6010259Y-4986224D02*
G01X6008385Y-4980600D01*
G01X6008385Y-4980600D02*
G01X6006510Y-4977788D01*
G01X6006510Y-4977788D02*
G01X6002760Y-4974976D01*
G01X6002760Y-4974976D02*
G01X5995261Y-4972164D01*
G01X5995261Y-4972164D02*
G01X5991512Y-4969351D01*
G01X5991512Y-4969351D02*
G01X5989637Y-4966539D01*
G01X5989637Y-4966539D02*
G01X5987762Y-4960915D01*
G01X5987762Y-4960915D02*
G01X5987762Y-4955291D01*
G01X5987762Y-4955291D02*
G01X5989637Y-4949666D01*
G01X5989637Y-4949666D02*
G01X5991512Y-4946854D01*
G01X5991512Y-4946854D02*
G01X5995261Y-4944042D01*
G01X5995261Y-4944042D02*
G01X6004635Y-4944042D01*
G01X6004635Y-4944042D02*
G01X6010259Y-4946854D01*
G01X6044005Y-5000285D02*
G01X6040256Y-5003097D01*
G01X6040256Y-5003097D02*
G01X6032757Y-5003097D01*
G01X6032757Y-5003097D02*
G01X6029007Y-5000285D01*
G01X6029007Y-5000285D02*
G01X6027132Y-4997473D01*
G01X6027132Y-4997473D02*
G01X6025258Y-4991849D01*
G01X6025258Y-4991849D02*
G01X6025258Y-4974976D01*
G01X6025258Y-4974976D02*
G01X6027132Y-4969351D01*
G01X6027132Y-4969351D02*
G01X6029007Y-4966539D01*
G01X6029007Y-4966539D02*
G01X6032757Y-4963727D01*
G01X6032757Y-4963727D02*
G01X6040256Y-4963727D01*
G01X6040256Y-4963727D02*
G01X6044005Y-4966539D01*
G01X6060878Y-5003097D02*
G01X6060878Y-4944042D01*
G01X6077751Y-5003097D02*
G01X6077751Y-4972164D01*
G01X6077751Y-4972164D02*
G01X6075876Y-4966539D01*
G01X6075876Y-4966539D02*
G01X6072127Y-4963727D01*
G01X6072127Y-4963727D02*
G01X6066502Y-4963727D01*
G01X6066502Y-4963727D02*
G01X6062753Y-4966539D01*
G01X6062753Y-4966539D02*
G01X6060878Y-4969351D01*
G01X6096499Y-4997473D02*
G01X6098373Y-5000285D01*
G01X6098373Y-5000285D02*
G01X6096499Y-5003097D01*
G01X6096499Y-5003097D02*
G01X6094624Y-5000285D01*
G01X6094624Y-5000285D02*
G01X6096499Y-4997473D01*
G01X6096499Y-4997473D02*
G01X6096499Y-5003097D01*
G01X6135869Y-5003097D02*
G01X6113371Y-5003097D01*
G01X6124620Y-5003097D02*
G01X6124620Y-4944042D01*
G01X6124620Y-4944042D02*
G01X6120871Y-4952479D01*
G01X6120871Y-4952479D02*
G01X6117121Y-4958103D01*
G01X6117121Y-4958103D02*
G01X6113371Y-4960915D01*
G01X6169614Y-4963727D02*
G01X6169614Y-5003097D01*
G01X6160241Y-4941230D02*
G01X6150867Y-4983412D01*
G01X6150867Y-4983412D02*
G01X6175239Y-4983412D01*
G01X6242730Y-5003097D02*
G01X6229607Y-4974976D01*
G01X6220233Y-5003097D02*
G01X6220233Y-4944042D01*
G01X6220233Y-4944042D02*
G01X6235231Y-4944042D01*
G01X6235231Y-4944042D02*
G01X6238981Y-4946854D01*
G01X6238981Y-4946854D02*
G01X6240856Y-4949666D01*
G01X6240856Y-4949666D02*
G01X6242730Y-4955291D01*
G01X6242730Y-4955291D02*
G01X6242730Y-4963727D01*
G01X6242730Y-4963727D02*
G01X6240856Y-4969351D01*
G01X6240856Y-4969351D02*
G01X6238981Y-4972164D01*
G01X6238981Y-4972164D02*
G01X6235231Y-4974976D01*
G01X6235231Y-4974976D02*
G01X6220233Y-4974976D01*
G01X6259603Y-4997473D02*
G01X6261478Y-5000285D01*
G01X6261478Y-5000285D02*
G01X6259603Y-5003097D01*
G01X6259603Y-5003097D02*
G01X6257728Y-5000285D01*
G01X6257728Y-5000285D02*
G01X6259603Y-4997473D01*
G01X6259603Y-4997473D02*
G01X6259603Y-5003097D01*
G01X6285850Y-4944042D02*
G01X6289599Y-4944042D01*
G01X6289599Y-4944042D02*
G01X6293349Y-4946854D01*
G01X6293349Y-4946854D02*
G01X6295224Y-4949666D01*
G01X6295224Y-4949666D02*
G01X6297099Y-4955291D01*
G01X6297099Y-4955291D02*
G01X6298973Y-4966539D01*
G01X6298973Y-4966539D02*
G01X6298973Y-4980600D01*
G01X6298973Y-4980600D02*
G01X6297099Y-4991849D01*
G01X6297099Y-4991849D02*
G01X6295224Y-4997473D01*
G01X6295224Y-4997473D02*
G01X6293349Y-5000285D01*
G01X6293349Y-5000285D02*
G01X6289599Y-5003097D01*
G01X6289599Y-5003097D02*
G01X6285850Y-5003097D01*
G01X6285850Y-5003097D02*
G01X6282100Y-5000285D01*
G01X6282100Y-5000285D02*
G01X6280226Y-4997473D01*
G01X6280226Y-4997473D02*
G01X6278351Y-4991849D01*
G01X6278351Y-4991849D02*
G01X6276476Y-4980600D01*
G01X6276476Y-4980600D02*
G01X6276476Y-4966539D01*
G01X6276476Y-4966539D02*
G01X6278351Y-4955291D01*
G01X6278351Y-4955291D02*
G01X6280226Y-4949666D01*
G01X6280226Y-4949666D02*
G01X6282100Y-4946854D01*
G01X6282100Y-4946854D02*
G01X6285850Y-4944042D01*
G01X6336469Y-5003097D02*
G01X6313971Y-5003097D01*
G01X6325220Y-5003097D02*
G01X6325220Y-4944042D01*
G01X6325220Y-4944042D02*
G01X6321470Y-4952479D01*
G01X6321470Y-4952479D02*
G01X6317721Y-4958103D01*
G01X6317721Y-4958103D02*
G01X6313971Y-4960915D01*
G01X5997136Y-5039118D02*
G01X6000886Y-5039118D01*
G01X6000886Y-5039118D02*
G01X6004635Y-5041930D01*
G01X6004635Y-5041930D02*
G01X6006510Y-5044742D01*
G01X6006510Y-5044742D02*
G01X6008385Y-5050366D01*
G01X6008385Y-5050366D02*
G01X6010259Y-5061615D01*
G01X6010259Y-5061615D02*
G01X6010259Y-5075676D01*
G01X6010259Y-5075676D02*
G01X6008385Y-5086924D01*
G01X6008385Y-5086924D02*
G01X6006510Y-5092548D01*
G01X6006510Y-5092548D02*
G01X6004635Y-5095361D01*
G01X6004635Y-5095361D02*
G01X6000886Y-5098173D01*
G01X6000886Y-5098173D02*
G01X5997136Y-5098173D01*
G01X5997136Y-5098173D02*
G01X5993386Y-5095361D01*
G01X5993386Y-5095361D02*
G01X5991512Y-5092548D01*
G01X5991512Y-5092548D02*
G01X5989637Y-5086924D01*
G01X5989637Y-5086924D02*
G01X5987762Y-5075676D01*
G01X5987762Y-5075676D02*
G01X5987762Y-5061615D01*
G01X5987762Y-5061615D02*
G01X5989637Y-5050366D01*
G01X5989637Y-5050366D02*
G01X5991512Y-5044742D01*
G01X5991512Y-5044742D02*
G01X5993386Y-5041930D01*
G01X5993386Y-5041930D02*
G01X5997136Y-5039118D01*
G01X6044005Y-5039118D02*
G01X6036506Y-5039118D01*
G01X6036506Y-5039118D02*
G01X6032757Y-5041930D01*
G01X6032757Y-5041930D02*
G01X6030882Y-5044742D01*
G01X6030882Y-5044742D02*
G01X6027132Y-5053178D01*
G01X6027132Y-5053178D02*
G01X6025258Y-5064427D01*
G01X6025258Y-5064427D02*
G01X6025258Y-5086924D01*
G01X6025258Y-5086924D02*
G01X6027132Y-5092548D01*
G01X6027132Y-5092548D02*
G01X6029007Y-5095361D01*
G01X6029007Y-5095361D02*
G01X6032757Y-5098173D01*
G01X6032757Y-5098173D02*
G01X6040256Y-5098173D01*
G01X6040256Y-5098173D02*
G01X6044005Y-5095361D01*
G01X6044005Y-5095361D02*
G01X6045880Y-5092548D01*
G01X6045880Y-5092548D02*
G01X6047755Y-5086924D01*
G01X6047755Y-5086924D02*
G01X6047755Y-5072863D01*
G01X6047755Y-5072863D02*
G01X6045880Y-5067239D01*
G01X6045880Y-5067239D02*
G01X6044005Y-5064427D01*
G01X6044005Y-5064427D02*
G01X6040256Y-5061615D01*
G01X6040256Y-5061615D02*
G01X6032757Y-5061615D01*
G01X6032757Y-5061615D02*
G01X6029007Y-5064427D01*
G01X6029007Y-5064427D02*
G01X6027132Y-5067239D01*
G01X6027132Y-5067239D02*
G01X6025258Y-5072863D01*
G01X6092749Y-5036305D02*
G01X6059003Y-5112233D01*
G01X6103998Y-5044742D02*
G01X6105872Y-5041930D01*
G01X6105872Y-5041930D02*
G01X6109622Y-5039118D01*
G01X6109622Y-5039118D02*
G01X6118996Y-5039118D01*
G01X6118996Y-5039118D02*
G01X6122745Y-5041930D01*
G01X6122745Y-5041930D02*
G01X6124620Y-5044742D01*
G01X6124620Y-5044742D02*
G01X6126495Y-5050366D01*
G01X6126495Y-5050366D02*
G01X6126495Y-5055990D01*
G01X6126495Y-5055990D02*
G01X6124620Y-5064427D01*
G01X6124620Y-5064427D02*
G01X6102123Y-5098173D01*
G01X6102123Y-5098173D02*
G01X6126495Y-5098173D01*
G01X6150867Y-5039118D02*
G01X6154616Y-5039118D01*
G01X6154616Y-5039118D02*
G01X6158366Y-5041930D01*
G01X6158366Y-5041930D02*
G01X6160241Y-5044742D01*
G01X6160241Y-5044742D02*
G01X6162115Y-5050366D01*
G01X6162115Y-5050366D02*
G01X6163990Y-5061615D01*
G01X6163990Y-5061615D02*
G01X6163990Y-5075676D01*
G01X6163990Y-5075676D02*
G01X6162115Y-5086924D01*
G01X6162115Y-5086924D02*
G01X6160241Y-5092548D01*
G01X6160241Y-5092548D02*
G01X6158366Y-5095361D01*
G01X6158366Y-5095361D02*
G01X6154616Y-5098173D01*
G01X6154616Y-5098173D02*
G01X6150867Y-5098173D01*
G01X6150867Y-5098173D02*
G01X6147117Y-5095361D01*
G01X6147117Y-5095361D02*
G01X6145243Y-5092548D01*
G01X6145243Y-5092548D02*
G01X6143368Y-5086924D01*
G01X6143368Y-5086924D02*
G01X6141493Y-5075676D01*
G01X6141493Y-5075676D02*
G01X6141493Y-5061615D01*
G01X6141493Y-5061615D02*
G01X6143368Y-5050366D01*
G01X6143368Y-5050366D02*
G01X6145243Y-5044742D01*
G01X6145243Y-5044742D02*
G01X6147117Y-5041930D01*
G01X6147117Y-5041930D02*
G01X6150867Y-5039118D01*
G01X6178988Y-5044742D02*
G01X6180863Y-5041930D01*
G01X6180863Y-5041930D02*
G01X6184613Y-5039118D01*
G01X6184613Y-5039118D02*
G01X6193986Y-5039118D01*
G01X6193986Y-5039118D02*
G01X6197736Y-5041930D01*
G01X6197736Y-5041930D02*
G01X6199611Y-5044742D01*
G01X6199611Y-5044742D02*
G01X6201485Y-5050366D01*
G01X6201485Y-5050366D02*
G01X6201485Y-5055990D01*
G01X6201485Y-5055990D02*
G01X6199611Y-5064427D01*
G01X6199611Y-5064427D02*
G01X6177114Y-5098173D01*
G01X6177114Y-5098173D02*
G01X6201485Y-5098173D01*
G01X6235231Y-5039118D02*
G01X6227732Y-5039118D01*
G01X6227732Y-5039118D02*
G01X6223983Y-5041930D01*
G01X6223983Y-5041930D02*
G01X6222108Y-5044742D01*
G01X6222108Y-5044742D02*
G01X6218358Y-5053178D01*
G01X6218358Y-5053178D02*
G01X6216484Y-5064427D01*
G01X6216484Y-5064427D02*
G01X6216484Y-5086924D01*
G01X6216484Y-5086924D02*
G01X6218358Y-5092548D01*
G01X6218358Y-5092548D02*
G01X6220233Y-5095361D01*
G01X6220233Y-5095361D02*
G01X6223983Y-5098173D01*
G01X6223983Y-5098173D02*
G01X6231482Y-5098173D01*
G01X6231482Y-5098173D02*
G01X6235231Y-5095361D01*
G01X6235231Y-5095361D02*
G01X6237106Y-5092548D01*
G01X6237106Y-5092548D02*
G01X6238981Y-5086924D01*
G01X6238981Y-5086924D02*
G01X6238981Y-5072863D01*
G01X6238981Y-5072863D02*
G01X6237106Y-5067239D01*
G01X6237106Y-5067239D02*
G01X6235231Y-5064427D01*
G01X6235231Y-5064427D02*
G01X6231482Y-5061615D01*
G01X6231482Y-5061615D02*
G01X6223983Y-5061615D01*
G01X6223983Y-5061615D02*
G01X6220233Y-5064427D01*
G01X6220233Y-5064427D02*
G01X6218358Y-5067239D01*
G01X6218358Y-5067239D02*
G01X6216484Y-5072863D01*
G01X5538182Y-3115729D02*
G01X5566303Y-3115729D01*
G01X5566303Y-3115729D02*
G01X5571928Y-3117604D01*
G01X5571928Y-3117604D02*
G01X5575677Y-3121354D01*
G01X5575677Y-3121354D02*
G01X5577552Y-3126978D01*
G01X5577552Y-3126978D02*
G01X5577552Y-3130727D01*
G01X5577552Y-3076359D02*
G01X5577552Y-3098856D01*
G01X5577552Y-3087608D02*
G01X5538182Y-3087608D01*
G01X5538182Y-3087608D02*
G01X5543806Y-3091357D01*
G01X5543806Y-3091357D02*
G01X5547556Y-3095107D01*
G01X5547556Y-3095107D02*
G01X5549430Y-3098856D01*
G01X5577552Y-3038864D02*
G01X5577552Y-3061361D01*
G01X5577552Y-3050112D02*
G01X5538182Y-3050112D01*
G01X5538182Y-3050112D02*
G01X5543806Y-3053862D01*
G01X5543806Y-3053862D02*
G01X5547556Y-3057611D01*
G01X5547556Y-3057611D02*
G01X5549430Y-3061361D01*
G01X6405702Y-4677625D02*
G01X6433823Y-4677625D01*
G01X6433823Y-4677625D02*
G01X6439447Y-4679124D01*
G01X6439447Y-4679124D02*
G01X6443197Y-4682124D01*
G01X6443197Y-4682124D02*
G01X6445072Y-4686624D01*
G01X6445072Y-4686624D02*
G01X6445072Y-4689623D01*
G01X6405702Y-4647628D02*
G01X6405702Y-4662626D01*
G01X6405702Y-4662626D02*
G01X6424449Y-4664126D01*
G01X6424449Y-4664126D02*
G01X6422574Y-4662626D01*
G01X6422574Y-4662626D02*
G01X6420700Y-4659627D01*
G01X6420700Y-4659627D02*
G01X6420700Y-4652128D01*
G01X6420700Y-4652128D02*
G01X6422574Y-4649128D01*
G01X6422574Y-4649128D02*
G01X6424449Y-4647628D01*
G01X6424449Y-4647628D02*
G01X6428199Y-4646129D01*
G01X6428199Y-4646129D02*
G01X6437573Y-4646129D01*
G01X6437573Y-4646129D02*
G01X6441322Y-4647628D01*
G01X6441322Y-4647628D02*
G01X6443197Y-4649128D01*
G01X6443197Y-4649128D02*
G01X6445072Y-4652128D01*
G01X6445072Y-4652128D02*
G01X6445072Y-4659627D01*
G01X6445072Y-4659627D02*
G01X6443197Y-4662626D01*
G01X6443197Y-4662626D02*
G01X6441322Y-4664126D01*
G01X5839560Y-2974541D02*
G01X5820812Y-2985039D01*
G01X5839560Y-2992538D02*
G01X5800190Y-2992538D01*
G01X5800190Y-2992538D02*
G01X5800190Y-2980540D01*
G01X5800190Y-2980540D02*
G01X5802064Y-2977540D01*
G01X5802064Y-2977540D02*
G01X5803939Y-2976040D01*
G01X5803939Y-2976040D02*
G01X5807689Y-2974541D01*
G01X5807689Y-2974541D02*
G01X5813313Y-2974541D01*
G01X5813313Y-2974541D02*
G01X5817063Y-2976040D01*
G01X5817063Y-2976040D02*
G01X5818937Y-2977540D01*
G01X5818937Y-2977540D02*
G01X5820812Y-2980540D01*
G01X5820812Y-2980540D02*
G01X5820812Y-2992538D01*
G01X5800190Y-2964042D02*
G01X5800190Y-2943045D01*
G01X5800190Y-2943045D02*
G01X5839560Y-2956543D01*
G01X6523606Y-3643832D02*
G01X6525480Y-3645332D01*
G01X6525480Y-3645332D02*
G01X6527355Y-3649831D01*
G01X6527355Y-3649831D02*
G01X6527355Y-3652831D01*
G01X6527355Y-3652831D02*
G01X6525480Y-3657330D01*
G01X6525480Y-3657330D02*
G01X6521731Y-3660330D01*
G01X6521731Y-3660330D02*
G01X6517981Y-3661830D01*
G01X6517981Y-3661830D02*
G01X6510482Y-3663330D01*
G01X6510482Y-3663330D02*
G01X6504858Y-3663330D01*
G01X6504858Y-3663330D02*
G01X6497359Y-3661830D01*
G01X6497359Y-3661830D02*
G01X6493609Y-3660330D01*
G01X6493609Y-3660330D02*
G01X6489860Y-3657330D01*
G01X6489860Y-3657330D02*
G01X6487985Y-3652831D01*
G01X6487985Y-3652831D02*
G01X6487985Y-3649831D01*
G01X6487985Y-3649831D02*
G01X6489860Y-3645332D01*
G01X6489860Y-3645332D02*
G01X6491735Y-3643832D01*
G01X6487985Y-3615336D02*
G01X6487985Y-3630334D01*
G01X6487985Y-3630334D02*
G01X6506733Y-3631834D01*
G01X6506733Y-3631834D02*
G01X6504858Y-3630334D01*
G01X6504858Y-3630334D02*
G01X6502983Y-3627334D01*
G01X6502983Y-3627334D02*
G01X6502983Y-3619835D01*
G01X6502983Y-3619835D02*
G01X6504858Y-3616835D01*
G01X6504858Y-3616835D02*
G01X6506733Y-3615336D01*
G01X6506733Y-3615336D02*
G01X6510482Y-3613836D01*
G01X6510482Y-3613836D02*
G01X6519856Y-3613836D01*
G01X6519856Y-3613836D02*
G01X6523606Y-3615336D01*
G01X6523606Y-3615336D02*
G01X6525480Y-3616835D01*
G01X6525480Y-3616835D02*
G01X6527355Y-3619835D01*
G01X6527355Y-3619835D02*
G01X6527355Y-3627334D01*
G01X6527355Y-3627334D02*
G01X6525480Y-3630334D01*
G01X6525480Y-3630334D02*
G01X6523606Y-3631834D01*
G01X5976961Y-3304499D02*
G01X5958214Y-3314998D01*
G01X5976961Y-3322497D02*
G01X5937591Y-3322497D01*
G01X5937591Y-3322497D02*
G01X5937591Y-3310499D01*
G01X5937591Y-3310499D02*
G01X5939466Y-3307499D01*
G01X5939466Y-3307499D02*
G01X5941341Y-3305999D01*
G01X5941341Y-3305999D02*
G01X5945090Y-3304499D01*
G01X5945090Y-3304499D02*
G01X5950715Y-3304499D01*
G01X5950715Y-3304499D02*
G01X5954464Y-3305999D01*
G01X5954464Y-3305999D02*
G01X5956339Y-3307499D01*
G01X5956339Y-3307499D02*
G01X5958214Y-3310499D01*
G01X5958214Y-3310499D02*
G01X5958214Y-3322497D01*
G01X5941341Y-3292501D02*
G01X5939466Y-3291001D01*
G01X5939466Y-3291001D02*
G01X5937591Y-3288001D01*
G01X5937591Y-3288001D02*
G01X5937591Y-3280502D01*
G01X5937591Y-3280502D02*
G01X5939466Y-3277503D01*
G01X5939466Y-3277503D02*
G01X5941341Y-3276003D01*
G01X5941341Y-3276003D02*
G01X5945090Y-3274503D01*
G01X5945090Y-3274503D02*
G01X5948840Y-3274503D01*
G01X5948840Y-3274503D02*
G01X5954464Y-3276003D01*
G01X5954464Y-3276003D02*
G01X5976961Y-3294001D01*
G01X5976961Y-3294001D02*
G01X5976961Y-3274503D01*
G01X5941341Y-3262505D02*
G01X5939466Y-3261005D01*
G01X5939466Y-3261005D02*
G01X5937591Y-3258005D01*
G01X5937591Y-3258005D02*
G01X5937591Y-3250506D01*
G01X5937591Y-3250506D02*
G01X5939466Y-3247507D01*
G01X5939466Y-3247507D02*
G01X5941341Y-3246007D01*
G01X5941341Y-3246007D02*
G01X5945090Y-3244507D01*
G01X5945090Y-3244507D02*
G01X5948840Y-3244507D01*
G01X5948840Y-3244507D02*
G01X5954464Y-3246007D01*
G01X5954464Y-3246007D02*
G01X5976961Y-3264004D01*
G01X5976961Y-3264004D02*
G01X5976961Y-3244507D01*
G01X6075898Y-2243523D02*
G01X6036528Y-2243523D01*
G01X6036528Y-2243523D02*
G01X6036528Y-2236024D01*
G01X6036528Y-2236024D02*
G01X6038403Y-2231524D01*
G01X6038403Y-2231524D02*
G01X6042153Y-2228525D01*
G01X6042153Y-2228525D02*
G01X6045902Y-2227025D01*
G01X6045902Y-2227025D02*
G01X6053401Y-2225525D01*
G01X6053401Y-2225525D02*
G01X6059025Y-2225525D01*
G01X6059025Y-2225525D02*
G01X6066525Y-2227025D01*
G01X6066525Y-2227025D02*
G01X6070274Y-2228525D01*
G01X6070274Y-2228525D02*
G01X6074024Y-2231524D01*
G01X6074024Y-2231524D02*
G01X6075898Y-2236024D01*
G01X6075898Y-2236024D02*
G01X6075898Y-2243523D01*
G01X6075898Y-2195529D02*
G01X6075898Y-2213526D01*
G01X6075898Y-2204528D02*
G01X6036528Y-2204528D01*
G01X6036528Y-2204528D02*
G01X6042153Y-2207527D01*
G01X6042153Y-2207527D02*
G01X6045902Y-2210527D01*
G01X6045902Y-2210527D02*
G01X6047777Y-2213526D01*
G01X6526568Y-2933086D02*
G01X6507820Y-2943585D01*
G01X6526568Y-2951084D02*
G01X6487198Y-2951084D01*
G01X6487198Y-2951084D02*
G01X6487198Y-2939086D01*
G01X6487198Y-2939086D02*
G01X6489072Y-2936086D01*
G01X6489072Y-2936086D02*
G01X6490947Y-2934586D01*
G01X6490947Y-2934586D02*
G01X6494697Y-2933086D01*
G01X6494697Y-2933086D02*
G01X6500321Y-2933086D01*
G01X6500321Y-2933086D02*
G01X6504070Y-2934586D01*
G01X6504070Y-2934586D02*
G01X6505945Y-2936086D01*
G01X6505945Y-2936086D02*
G01X6507820Y-2939086D01*
G01X6507820Y-2939086D02*
G01X6507820Y-2951084D01*
G01X6490947Y-2921088D02*
G01X6489072Y-2919588D01*
G01X6489072Y-2919588D02*
G01X6487198Y-2916589D01*
G01X6487198Y-2916589D02*
G01X6487198Y-2909089D01*
G01X6487198Y-2909089D02*
G01X6489072Y-2906090D01*
G01X6489072Y-2906090D02*
G01X6490947Y-2904590D01*
G01X6490947Y-2904590D02*
G01X6494697Y-2903090D01*
G01X6494697Y-2903090D02*
G01X6498446Y-2903090D01*
G01X6498446Y-2903090D02*
G01X6504070Y-2904590D01*
G01X6504070Y-2904590D02*
G01X6526568Y-2922588D01*
G01X6526568Y-2922588D02*
G01X6526568Y-2903090D01*
G01X6602158Y-3783052D02*
G01X6634029Y-3783052D01*
G01X6634029Y-3783052D02*
G01X6637779Y-3781552D01*
G01X6637779Y-3781552D02*
G01X6639654Y-3780052D01*
G01X6639654Y-3780052D02*
G01X6641528Y-3777053D01*
G01X6641528Y-3777053D02*
G01X6641528Y-3771054D01*
G01X6641528Y-3771054D02*
G01X6639654Y-3768054D01*
G01X6639654Y-3768054D02*
G01X6637779Y-3766554D01*
G01X6637779Y-3766554D02*
G01X6634029Y-3765054D01*
G01X6634029Y-3765054D02*
G01X6602158Y-3765054D01*
G01X6605908Y-3751556D02*
G01X6604033Y-3750056D01*
G01X6604033Y-3750056D02*
G01X6602158Y-3747057D01*
G01X6602158Y-3747057D02*
G01X6602158Y-3739558D01*
G01X6602158Y-3739558D02*
G01X6604033Y-3736558D01*
G01X6604033Y-3736558D02*
G01X6605908Y-3735058D01*
G01X6605908Y-3735058D02*
G01X6609657Y-3733558D01*
G01X6609657Y-3733558D02*
G01X6613407Y-3733558D01*
G01X6613407Y-3733558D02*
G01X6619031Y-3735058D01*
G01X6619031Y-3735058D02*
G01X6641528Y-3753056D01*
G01X6641528Y-3753056D02*
G01X6641528Y-3733558D01*
G01X5998418Y-2843682D02*
G01X6030289Y-2843682D01*
G01X6030289Y-2843682D02*
G01X6034039Y-2842182D01*
G01X6034039Y-2842182D02*
G01X6035913Y-2840682D01*
G01X6035913Y-2840682D02*
G01X6037788Y-2837683D01*
G01X6037788Y-2837683D02*
G01X6037788Y-2831684D01*
G01X6037788Y-2831684D02*
G01X6035913Y-2828684D01*
G01X6035913Y-2828684D02*
G01X6034039Y-2827184D01*
G01X6034039Y-2827184D02*
G01X6030289Y-2825684D01*
G01X6030289Y-2825684D02*
G01X5998418Y-2825684D01*
G01X5998418Y-2813686D02*
G01X5998418Y-2794188D01*
G01X5998418Y-2794188D02*
G01X6013416Y-2804687D01*
G01X6013416Y-2804687D02*
G01X6013416Y-2800187D01*
G01X6013416Y-2800187D02*
G01X6015291Y-2797188D01*
G01X6015291Y-2797188D02*
G01X6017166Y-2795688D01*
G01X6017166Y-2795688D02*
G01X6020915Y-2794188D01*
G01X6020915Y-2794188D02*
G01X6030289Y-2794188D01*
G01X6030289Y-2794188D02*
G01X6034039Y-2795688D01*
G01X6034039Y-2795688D02*
G01X6035913Y-2797188D01*
G01X6035913Y-2797188D02*
G01X6037788Y-2800187D01*
G01X6037788Y-2800187D02*
G01X6037788Y-2809186D01*
G01X6037788Y-2809186D02*
G01X6035913Y-2812186D01*
G01X6035913Y-2812186D02*
G01X6034039Y-2813686D01*
G01X5537198Y-4325497D02*
G01X5565319Y-4325497D01*
G01X5565319Y-4325497D02*
G01X5570943Y-4326997D01*
G01X5570943Y-4326997D02*
G01X5574693Y-4329996D01*
G01X5574693Y-4329996D02*
G01X5576568Y-4334496D01*
G01X5576568Y-4334496D02*
G01X5576568Y-4337495D01*
G01X5576568Y-4294001D02*
G01X5576568Y-4311999D01*
G01X5576568Y-4303000D02*
G01X5537198Y-4303000D01*
G01X5537198Y-4303000D02*
G01X5542822Y-4305999D01*
G01X5542822Y-4305999D02*
G01X5546571Y-4308999D01*
G01X5546571Y-4308999D02*
G01X5548446Y-4311999D01*
G01X5537198Y-4265504D02*
G01X5537198Y-4280502D01*
G01X5537198Y-4280502D02*
G01X5555945Y-4282002D01*
G01X5555945Y-4282002D02*
G01X5554070Y-4280502D01*
G01X5554070Y-4280502D02*
G01X5552196Y-4277503D01*
G01X5552196Y-4277503D02*
G01X5552196Y-4270004D01*
G01X5552196Y-4270004D02*
G01X5554070Y-4267004D01*
G01X5554070Y-4267004D02*
G01X5555945Y-4265504D01*
G01X5555945Y-4265504D02*
G01X5559695Y-4264004D01*
G01X5559695Y-4264004D02*
G01X5569069Y-4264004D01*
G01X5569069Y-4264004D02*
G01X5572818Y-4265504D01*
G01X5572818Y-4265504D02*
G01X5574693Y-4267004D01*
G01X5574693Y-4267004D02*
G01X5576568Y-4270004D01*
G01X5576568Y-4270004D02*
G01X5576568Y-4277503D01*
G01X5576568Y-4277503D02*
G01X5574693Y-4280502D01*
G01X5574693Y-4280502D02*
G01X5572818Y-4282002D01*
G01X7622434Y-4183371D02*
G01X7650555Y-4183371D01*
G01X7650555Y-4183371D02*
G01X7656180Y-4184871D01*
G01X7656180Y-4184871D02*
G01X7659929Y-4187870D01*
G01X7659929Y-4187870D02*
G01X7661804Y-4192370D01*
G01X7661804Y-4192370D02*
G01X7661804Y-4195369D01*
G01X7626183Y-4169873D02*
G01X7624309Y-4168373D01*
G01X7624309Y-4168373D02*
G01X7622434Y-4165373D01*
G01X7622434Y-4165373D02*
G01X7622434Y-4157874D01*
G01X7622434Y-4157874D02*
G01X7624309Y-4154874D01*
G01X7624309Y-4154874D02*
G01X7626183Y-4153375D01*
G01X7626183Y-4153375D02*
G01X7629933Y-4151875D01*
G01X7629933Y-4151875D02*
G01X7633682Y-4151875D01*
G01X7633682Y-4151875D02*
G01X7639307Y-4153375D01*
G01X7639307Y-4153375D02*
G01X7661804Y-4171372D01*
G01X7661804Y-4171372D02*
G01X7661804Y-4151875D01*
G01X7626183Y-4139876D02*
G01X7624309Y-4138376D01*
G01X7624309Y-4138376D02*
G01X7622434Y-4135377D01*
G01X7622434Y-4135377D02*
G01X7622434Y-4127878D01*
G01X7622434Y-4127878D02*
G01X7624309Y-4124878D01*
G01X7624309Y-4124878D02*
G01X7626183Y-4123378D01*
G01X7626183Y-4123378D02*
G01X7629933Y-4121879D01*
G01X7629933Y-4121879D02*
G01X7633682Y-4121879D01*
G01X7633682Y-4121879D02*
G01X7639307Y-4123378D01*
G01X7639307Y-4123378D02*
G01X7661804Y-4141376D01*
G01X7661804Y-4141376D02*
G01X7661804Y-4121879D01*
G01X6034442Y-2951556D02*
G01X6066313Y-2951556D01*
G01X6066313Y-2951556D02*
G01X6070062Y-2950056D01*
G01X6070062Y-2950056D02*
G01X6071937Y-2948556D01*
G01X6071937Y-2948556D02*
G01X6073812Y-2945557D01*
G01X6073812Y-2945557D02*
G01X6073812Y-2939558D01*
G01X6073812Y-2939558D02*
G01X6071937Y-2936558D01*
G01X6071937Y-2936558D02*
G01X6070062Y-2935058D01*
G01X6070062Y-2935058D02*
G01X6066313Y-2933558D01*
G01X6066313Y-2933558D02*
G01X6034442Y-2933558D01*
G01X6047565Y-2905062D02*
G01X6073812Y-2905062D01*
G01X6032567Y-2912561D02*
G01X6060688Y-2920060D01*
G01X6060688Y-2920060D02*
G01X6060688Y-2900562D01*
G01X6190160Y-3889220D02*
G01X6188285Y-3892220D01*
G01X6188285Y-3892220D02*
G01X6184535Y-3895219D01*
G01X6184535Y-3895219D02*
G01X6178911Y-3899719D01*
G01X6178911Y-3899719D02*
G01X6177036Y-3902718D01*
G01X6177036Y-3902718D02*
G01X6177036Y-3905718D01*
G01X6186410Y-3904218D02*
G01X6184535Y-3907218D01*
G01X6184535Y-3907218D02*
G01X6180786Y-3910217D01*
G01X6180786Y-3910217D02*
G01X6173287Y-3911717D01*
G01X6173287Y-3911717D02*
G01X6160163Y-3911717D01*
G01X6160163Y-3911717D02*
G01X6152664Y-3910217D01*
G01X6152664Y-3910217D02*
G01X6148915Y-3907218D01*
G01X6148915Y-3907218D02*
G01X6147040Y-3904218D01*
G01X6147040Y-3904218D02*
G01X6147040Y-3898219D01*
G01X6147040Y-3898219D02*
G01X6148915Y-3895219D01*
G01X6148915Y-3895219D02*
G01X6152664Y-3892220D01*
G01X6152664Y-3892220D02*
G01X6160163Y-3890720D01*
G01X6160163Y-3890720D02*
G01X6173287Y-3890720D01*
G01X6173287Y-3890720D02*
G01X6180786Y-3892220D01*
G01X6180786Y-3892220D02*
G01X6184535Y-3895219D01*
G01X6184535Y-3895219D02*
G01X6186410Y-3898219D01*
G01X6186410Y-3898219D02*
G01X6186410Y-3904218D01*
G01X6186410Y-3860724D02*
G01X6186410Y-3878721D01*
G01X6186410Y-3869723D02*
G01X6147040Y-3869723D01*
G01X6147040Y-3869723D02*
G01X6152664Y-3872722D01*
G01X6152664Y-3872722D02*
G01X6156414Y-3875722D01*
G01X6156414Y-3875722D02*
G01X6158289Y-3878721D01*
G01X6390741Y-3300562D02*
G01X6371993Y-3311061D01*
G01X6390741Y-3318560D02*
G01X6351371Y-3318560D01*
G01X6351371Y-3318560D02*
G01X6351371Y-3306562D01*
G01X6351371Y-3306562D02*
G01X6353246Y-3303562D01*
G01X6353246Y-3303562D02*
G01X6355120Y-3302062D01*
G01X6355120Y-3302062D02*
G01X6358870Y-3300562D01*
G01X6358870Y-3300562D02*
G01X6364494Y-3300562D01*
G01X6364494Y-3300562D02*
G01X6368244Y-3302062D01*
G01X6368244Y-3302062D02*
G01X6370118Y-3303562D01*
G01X6370118Y-3303562D02*
G01X6371993Y-3306562D01*
G01X6371993Y-3306562D02*
G01X6371993Y-3318560D01*
G01X6390741Y-3270566D02*
G01X6390741Y-3288564D01*
G01X6390741Y-3279565D02*
G01X6351371Y-3279565D01*
G01X6351371Y-3279565D02*
G01X6356995Y-3282565D01*
G01X6356995Y-3282565D02*
G01X6360745Y-3285564D01*
G01X6360745Y-3285564D02*
G01X6362619Y-3288564D01*
G01X6390741Y-3240570D02*
G01X6390741Y-3258568D01*
G01X6390741Y-3249569D02*
G01X6351371Y-3249569D01*
G01X6351371Y-3249569D02*
G01X6356995Y-3252568D01*
G01X6356995Y-3252568D02*
G01X6360745Y-3255568D01*
G01X6360745Y-3255568D02*
G01X6362619Y-3258568D01*
G01X6390347Y-4011586D02*
G01X6371600Y-4022085D01*
G01X6390347Y-4029584D02*
G01X6350977Y-4029584D01*
G01X6350977Y-4029584D02*
G01X6350977Y-4017585D01*
G01X6350977Y-4017585D02*
G01X6352852Y-4014586D01*
G01X6352852Y-4014586D02*
G01X6354727Y-4013086D01*
G01X6354727Y-4013086D02*
G01X6358476Y-4011586D01*
G01X6358476Y-4011586D02*
G01X6364100Y-4011586D01*
G01X6364100Y-4011586D02*
G01X6367850Y-4013086D01*
G01X6367850Y-4013086D02*
G01X6369725Y-4014586D01*
G01X6369725Y-4014586D02*
G01X6371600Y-4017585D01*
G01X6371600Y-4017585D02*
G01X6371600Y-4029584D01*
G01X6354727Y-3999588D02*
G01X6352852Y-3998088D01*
G01X6352852Y-3998088D02*
G01X6350977Y-3995088D01*
G01X6350977Y-3995088D02*
G01X6350977Y-3987589D01*
G01X6350977Y-3987589D02*
G01X6352852Y-3984589D01*
G01X6352852Y-3984589D02*
G01X6354727Y-3983090D01*
G01X6354727Y-3983090D02*
G01X6358476Y-3981590D01*
G01X6358476Y-3981590D02*
G01X6362226Y-3981590D01*
G01X6362226Y-3981590D02*
G01X6367850Y-3983090D01*
G01X6367850Y-3983090D02*
G01X6390347Y-4001087D01*
G01X6390347Y-4001087D02*
G01X6390347Y-3981590D01*
G01X6350977Y-3971091D02*
G01X6350977Y-3951594D01*
G01X6350977Y-3951594D02*
G01X6365975Y-3962092D01*
G01X6365975Y-3962092D02*
G01X6365975Y-3957593D01*
G01X6365975Y-3957593D02*
G01X6367850Y-3954593D01*
G01X6367850Y-3954593D02*
G01X6369725Y-3953093D01*
G01X6369725Y-3953093D02*
G01X6373474Y-3951594D01*
G01X6373474Y-3951594D02*
G01X6382848Y-3951594D01*
G01X6382848Y-3951594D02*
G01X6386598Y-3953093D01*
G01X6386598Y-3953093D02*
G01X6388472Y-3954593D01*
G01X6388472Y-3954593D02*
G01X6390347Y-3957593D01*
G01X6390347Y-3957593D02*
G01X6390347Y-3966592D01*
G01X6390347Y-3966592D02*
G01X6388472Y-3969591D01*
G01X6388472Y-3969591D02*
G01X6386598Y-3971091D01*
G01X7503339Y-3559618D02*
G01X7484592Y-3570116D01*
G01X7503339Y-3577615D02*
G01X7463969Y-3577615D01*
G01X7463969Y-3577615D02*
G01X7463969Y-3565617D01*
G01X7463969Y-3565617D02*
G01X7465844Y-3562617D01*
G01X7465844Y-3562617D02*
G01X7467719Y-3561117D01*
G01X7467719Y-3561117D02*
G01X7471468Y-3559618D01*
G01X7471468Y-3559618D02*
G01X7477093Y-3559618D01*
G01X7477093Y-3559618D02*
G01X7480842Y-3561117D01*
G01X7480842Y-3561117D02*
G01X7482717Y-3562617D01*
G01X7482717Y-3562617D02*
G01X7484592Y-3565617D01*
G01X7484592Y-3565617D02*
G01X7484592Y-3577615D01*
G01X7467719Y-3547619D02*
G01X7465844Y-3546119D01*
G01X7465844Y-3546119D02*
G01X7463969Y-3543120D01*
G01X7463969Y-3543120D02*
G01X7463969Y-3535621D01*
G01X7463969Y-3535621D02*
G01X7465844Y-3532621D01*
G01X7465844Y-3532621D02*
G01X7467719Y-3531121D01*
G01X7467719Y-3531121D02*
G01X7471468Y-3529621D01*
G01X7471468Y-3529621D02*
G01X7475218Y-3529621D01*
G01X7475218Y-3529621D02*
G01X7480842Y-3531121D01*
G01X7480842Y-3531121D02*
G01X7503339Y-3549119D01*
G01X7503339Y-3549119D02*
G01X7503339Y-3529621D01*
G01X7463969Y-3510124D02*
G01X7463969Y-3507124D01*
G01X7463969Y-3507124D02*
G01X7465844Y-3504124D01*
G01X7465844Y-3504124D02*
G01X7467719Y-3502625D01*
G01X7467719Y-3502625D02*
G01X7471468Y-3501125D01*
G01X7471468Y-3501125D02*
G01X7478967Y-3499625D01*
G01X7478967Y-3499625D02*
G01X7488341Y-3499625D01*
G01X7488341Y-3499625D02*
G01X7495840Y-3501125D01*
G01X7495840Y-3501125D02*
G01X7499590Y-3502625D01*
G01X7499590Y-3502625D02*
G01X7501465Y-3504124D01*
G01X7501465Y-3504124D02*
G01X7503339Y-3507124D01*
G01X7503339Y-3507124D02*
G01X7503339Y-3510124D01*
G01X7503339Y-3510124D02*
G01X7501465Y-3513123D01*
G01X7501465Y-3513123D02*
G01X7499590Y-3514623D01*
G01X7499590Y-3514623D02*
G01X7495840Y-3516123D01*
G01X7495840Y-3516123D02*
G01X7488341Y-3517623D01*
G01X7488341Y-3517623D02*
G01X7478967Y-3517623D01*
G01X7478967Y-3517623D02*
G01X7471468Y-3516123D01*
G01X7471468Y-3516123D02*
G01X7467719Y-3514623D01*
G01X7467719Y-3514623D02*
G01X7465844Y-3513123D01*
G01X7465844Y-3513123D02*
G01X7463969Y-3510124D01*
G01X5990197Y-3847235D02*
G01X5992072Y-3842735D01*
G01X5992072Y-3842735D02*
G01X5993947Y-3841235D01*
G01X5993947Y-3841235D02*
G01X5997696Y-3839736D01*
G01X5997696Y-3839736D02*
G01X6003321Y-3839736D01*
G01X6003321Y-3839736D02*
G01X6007070Y-3841235D01*
G01X6007070Y-3841235D02*
G01X6008945Y-3842735D01*
G01X6008945Y-3842735D02*
G01X6010820Y-3845735D01*
G01X6010820Y-3845735D02*
G01X6010820Y-3857733D01*
G01X6010820Y-3857733D02*
G01X5971450Y-3857733D01*
G01X5971450Y-3857733D02*
G01X5971450Y-3847235D01*
G01X5971450Y-3847235D02*
G01X5973324Y-3844235D01*
G01X5973324Y-3844235D02*
G01X5975199Y-3842735D01*
G01X5975199Y-3842735D02*
G01X5978949Y-3841235D01*
G01X5978949Y-3841235D02*
G01X5982698Y-3841235D01*
G01X5982698Y-3841235D02*
G01X5986448Y-3842735D01*
G01X5986448Y-3842735D02*
G01X5988322Y-3844235D01*
G01X5988322Y-3844235D02*
G01X5990197Y-3847235D01*
G01X5990197Y-3847235D02*
G01X5990197Y-3857733D01*
G01X5971450Y-3829237D02*
G01X5971450Y-3808240D01*
G01X5971450Y-3808240D02*
G01X6010820Y-3829237D01*
G01X6010820Y-3829237D02*
G01X6010820Y-3808240D01*
G01X6010820Y-3779743D02*
G01X6010820Y-3797741D01*
G01X6010820Y-3788742D02*
G01X5971450Y-3788742D01*
G01X5971450Y-3788742D02*
G01X5977074Y-3791742D01*
G01X5977074Y-3791742D02*
G01X5980823Y-3794741D01*
G01X5980823Y-3794741D02*
G01X5982698Y-3797741D01*
G01X6663969Y-4011586D02*
G01X6645222Y-4022085D01*
G01X6663969Y-4029584D02*
G01X6624599Y-4029584D01*
G01X6624599Y-4029584D02*
G01X6624599Y-4017585D01*
G01X6624599Y-4017585D02*
G01X6626474Y-4014586D01*
G01X6626474Y-4014586D02*
G01X6628349Y-4013086D01*
G01X6628349Y-4013086D02*
G01X6632098Y-4011586D01*
G01X6632098Y-4011586D02*
G01X6637723Y-4011586D01*
G01X6637723Y-4011586D02*
G01X6641472Y-4013086D01*
G01X6641472Y-4013086D02*
G01X6643347Y-4014586D01*
G01X6643347Y-4014586D02*
G01X6645222Y-4017585D01*
G01X6645222Y-4017585D02*
G01X6645222Y-4029584D01*
G01X6663969Y-3981590D02*
G01X6663969Y-3999588D01*
G01X6663969Y-3990589D02*
G01X6624599Y-3990589D01*
G01X6624599Y-3990589D02*
G01X6630223Y-3993588D01*
G01X6630223Y-3993588D02*
G01X6633973Y-3996588D01*
G01X6633973Y-3996588D02*
G01X6635848Y-3999588D01*
G01X6637723Y-3954593D02*
G01X6663969Y-3954593D01*
G01X6622724Y-3962092D02*
G01X6650846Y-3969591D01*
G01X6650846Y-3969591D02*
G01X6650846Y-3950094D01*
G01X6113182Y-3289501D02*
G01X6094434Y-3300000D01*
G01X6113182Y-3307499D02*
G01X6073812Y-3307499D01*
G01X6073812Y-3307499D02*
G01X6073812Y-3295501D01*
G01X6073812Y-3295501D02*
G01X6075687Y-3292501D01*
G01X6075687Y-3292501D02*
G01X6077561Y-3291001D01*
G01X6077561Y-3291001D02*
G01X6081311Y-3289501D01*
G01X6081311Y-3289501D02*
G01X6086935Y-3289501D01*
G01X6086935Y-3289501D02*
G01X6090685Y-3291001D01*
G01X6090685Y-3291001D02*
G01X6092559Y-3292501D01*
G01X6092559Y-3292501D02*
G01X6094434Y-3295501D01*
G01X6094434Y-3295501D02*
G01X6094434Y-3307499D01*
G01X6113182Y-3274503D02*
G01X6113182Y-3268504D01*
G01X6113182Y-3268504D02*
G01X6111307Y-3265504D01*
G01X6111307Y-3265504D02*
G01X6109432Y-3264004D01*
G01X6109432Y-3264004D02*
G01X6103808Y-3261005D01*
G01X6103808Y-3261005D02*
G01X6096309Y-3259505D01*
G01X6096309Y-3259505D02*
G01X6081311Y-3259505D01*
G01X6081311Y-3259505D02*
G01X6077561Y-3261005D01*
G01X6077561Y-3261005D02*
G01X6075687Y-3262505D01*
G01X6075687Y-3262505D02*
G01X6073812Y-3265504D01*
G01X6073812Y-3265504D02*
G01X6073812Y-3271504D01*
G01X6073812Y-3271504D02*
G01X6075687Y-3274503D01*
G01X6075687Y-3274503D02*
G01X6077561Y-3276003D01*
G01X6077561Y-3276003D02*
G01X6081311Y-3277503D01*
G01X6081311Y-3277503D02*
G01X6090685Y-3277503D01*
G01X6090685Y-3277503D02*
G01X6094434Y-3276003D01*
G01X6094434Y-3276003D02*
G01X6096309Y-3274503D01*
G01X6096309Y-3274503D02*
G01X6098184Y-3271504D01*
G01X6098184Y-3271504D02*
G01X6098184Y-3265504D01*
G01X6098184Y-3265504D02*
G01X6096309Y-3262505D01*
G01X6096309Y-3262505D02*
G01X6094434Y-3261005D01*
G01X6094434Y-3261005D02*
G01X6090685Y-3259505D01*
G01X5839166Y-3300562D02*
G01X5820418Y-3311061D01*
G01X5839166Y-3318560D02*
G01X5799796Y-3318560D01*
G01X5799796Y-3318560D02*
G01X5799796Y-3306562D01*
G01X5799796Y-3306562D02*
G01X5801671Y-3303562D01*
G01X5801671Y-3303562D02*
G01X5803546Y-3302062D01*
G01X5803546Y-3302062D02*
G01X5807295Y-3300562D01*
G01X5807295Y-3300562D02*
G01X5812919Y-3300562D01*
G01X5812919Y-3300562D02*
G01X5816669Y-3302062D01*
G01X5816669Y-3302062D02*
G01X5818544Y-3303562D01*
G01X5818544Y-3303562D02*
G01X5820418Y-3306562D01*
G01X5820418Y-3306562D02*
G01X5820418Y-3318560D01*
G01X5803546Y-3288564D02*
G01X5801671Y-3287064D01*
G01X5801671Y-3287064D02*
G01X5799796Y-3284064D01*
G01X5799796Y-3284064D02*
G01X5799796Y-3276565D01*
G01X5799796Y-3276565D02*
G01X5801671Y-3273566D01*
G01X5801671Y-3273566D02*
G01X5803546Y-3272066D01*
G01X5803546Y-3272066D02*
G01X5807295Y-3270566D01*
G01X5807295Y-3270566D02*
G01X5811045Y-3270566D01*
G01X5811045Y-3270566D02*
G01X5816669Y-3272066D01*
G01X5816669Y-3272066D02*
G01X5839166Y-3290064D01*
G01X5839166Y-3290064D02*
G01X5839166Y-3270566D01*
G01X5839166Y-3240570D02*
G01X5839166Y-3258568D01*
G01X5839166Y-3249569D02*
G01X5799796Y-3249569D01*
G01X5799796Y-3249569D02*
G01X5805420Y-3252568D01*
G01X5805420Y-3252568D02*
G01X5809170Y-3255568D01*
G01X5809170Y-3255568D02*
G01X5811045Y-3258568D01*
G01X5976361Y-2698950D02*
G01X5978236Y-2700450D01*
G01X5978236Y-2700450D02*
G01X5980111Y-2704949D01*
G01X5980111Y-2704949D02*
G01X5980111Y-2707949D01*
G01X5980111Y-2707949D02*
G01X5978236Y-2712448D01*
G01X5978236Y-2712448D02*
G01X5974487Y-2715448D01*
G01X5974487Y-2715448D02*
G01X5970737Y-2716948D01*
G01X5970737Y-2716948D02*
G01X5963238Y-2718448D01*
G01X5963238Y-2718448D02*
G01X5957614Y-2718448D01*
G01X5957614Y-2718448D02*
G01X5950115Y-2716948D01*
G01X5950115Y-2716948D02*
G01X5946365Y-2715448D01*
G01X5946365Y-2715448D02*
G01X5942616Y-2712448D01*
G01X5942616Y-2712448D02*
G01X5940741Y-2707949D01*
G01X5940741Y-2707949D02*
G01X5940741Y-2704949D01*
G01X5940741Y-2704949D02*
G01X5942616Y-2700450D01*
G01X5942616Y-2700450D02*
G01X5944490Y-2698950D01*
G01X5957614Y-2680952D02*
G01X5955739Y-2683952D01*
G01X5955739Y-2683952D02*
G01X5953864Y-2685452D01*
G01X5953864Y-2685452D02*
G01X5950115Y-2686952D01*
G01X5950115Y-2686952D02*
G01X5948240Y-2686952D01*
G01X5948240Y-2686952D02*
G01X5944490Y-2685452D01*
G01X5944490Y-2685452D02*
G01X5942616Y-2683952D01*
G01X5942616Y-2683952D02*
G01X5940741Y-2680952D01*
G01X5940741Y-2680952D02*
G01X5940741Y-2674953D01*
G01X5940741Y-2674953D02*
G01X5942616Y-2671953D01*
G01X5942616Y-2671953D02*
G01X5944490Y-2670454D01*
G01X5944490Y-2670454D02*
G01X5948240Y-2668954D01*
G01X5948240Y-2668954D02*
G01X5950115Y-2668954D01*
G01X5950115Y-2668954D02*
G01X5953864Y-2670454D01*
G01X5953864Y-2670454D02*
G01X5955739Y-2671953D01*
G01X5955739Y-2671953D02*
G01X5957614Y-2674953D01*
G01X5957614Y-2674953D02*
G01X5957614Y-2680952D01*
G01X5957614Y-2680952D02*
G01X5959489Y-2683952D01*
G01X5959489Y-2683952D02*
G01X5961363Y-2685452D01*
G01X5961363Y-2685452D02*
G01X5965113Y-2686952D01*
G01X5965113Y-2686952D02*
G01X5972612Y-2686952D01*
G01X5972612Y-2686952D02*
G01X5976361Y-2685452D01*
G01X5976361Y-2685452D02*
G01X5978236Y-2683952D01*
G01X5978236Y-2683952D02*
G01X5980111Y-2680952D01*
G01X5980111Y-2680952D02*
G01X5980111Y-2674953D01*
G01X5980111Y-2674953D02*
G01X5978236Y-2671953D01*
G01X5978236Y-2671953D02*
G01X5976361Y-2670454D01*
G01X5976361Y-2670454D02*
G01X5972612Y-2668954D01*
G01X5972612Y-2668954D02*
G01X5965113Y-2668954D01*
G01X5965113Y-2668954D02*
G01X5961363Y-2670454D01*
G01X5961363Y-2670454D02*
G01X5959489Y-2671953D01*
G01X5959489Y-2671953D02*
G01X5957614Y-2674953D01*
G01X7446253Y-3559618D02*
G01X7427505Y-3570116D01*
G01X7446253Y-3577615D02*
G01X7406883Y-3577615D01*
G01X7406883Y-3577615D02*
G01X7406883Y-3565617D01*
G01X7406883Y-3565617D02*
G01X7408757Y-3562617D01*
G01X7408757Y-3562617D02*
G01X7410632Y-3561117D01*
G01X7410632Y-3561117D02*
G01X7414382Y-3559618D01*
G01X7414382Y-3559618D02*
G01X7420006Y-3559618D01*
G01X7420006Y-3559618D02*
G01X7423756Y-3561117D01*
G01X7423756Y-3561117D02*
G01X7425630Y-3562617D01*
G01X7425630Y-3562617D02*
G01X7427505Y-3565617D01*
G01X7427505Y-3565617D02*
G01X7427505Y-3577615D01*
G01X7446253Y-3529621D02*
G01X7446253Y-3547619D01*
G01X7446253Y-3538620D02*
G01X7406883Y-3538620D01*
G01X7406883Y-3538620D02*
G01X7412507Y-3541620D01*
G01X7412507Y-3541620D02*
G01X7416256Y-3544619D01*
G01X7416256Y-3544619D02*
G01X7418131Y-3547619D01*
G01X7406883Y-3510124D02*
G01X7406883Y-3507124D01*
G01X7406883Y-3507124D02*
G01X7408757Y-3504124D01*
G01X7408757Y-3504124D02*
G01X7410632Y-3502625D01*
G01X7410632Y-3502625D02*
G01X7414382Y-3501125D01*
G01X7414382Y-3501125D02*
G01X7421881Y-3499625D01*
G01X7421881Y-3499625D02*
G01X7431255Y-3499625D01*
G01X7431255Y-3499625D02*
G01X7438754Y-3501125D01*
G01X7438754Y-3501125D02*
G01X7442503Y-3502625D01*
G01X7442503Y-3502625D02*
G01X7444378Y-3504124D01*
G01X7444378Y-3504124D02*
G01X7446253Y-3507124D01*
G01X7446253Y-3507124D02*
G01X7446253Y-3510124D01*
G01X7446253Y-3510124D02*
G01X7444378Y-3513123D01*
G01X7444378Y-3513123D02*
G01X7442503Y-3514623D01*
G01X7442503Y-3514623D02*
G01X7438754Y-3516123D01*
G01X7438754Y-3516123D02*
G01X7431255Y-3517623D01*
G01X7431255Y-3517623D02*
G01X7421881Y-3517623D01*
G01X7421881Y-3517623D02*
G01X7414382Y-3516123D01*
G01X7414382Y-3516123D02*
G01X7410632Y-3514623D01*
G01X7410632Y-3514623D02*
G01X7408757Y-3513123D01*
G01X7408757Y-3513123D02*
G01X7406883Y-3510124D01*
G01X6252552Y-3643832D02*
G01X6233804Y-3654331D01*
G01X6252552Y-3661830D02*
G01X6213182Y-3661830D01*
G01X6213182Y-3661830D02*
G01X6213182Y-3649831D01*
G01X6213182Y-3649831D02*
G01X6215057Y-3646832D01*
G01X6215057Y-3646832D02*
G01X6216931Y-3645332D01*
G01X6216931Y-3645332D02*
G01X6220681Y-3643832D01*
G01X6220681Y-3643832D02*
G01X6226305Y-3643832D01*
G01X6226305Y-3643832D02*
G01X6230055Y-3645332D01*
G01X6230055Y-3645332D02*
G01X6231929Y-3646832D01*
G01X6231929Y-3646832D02*
G01X6233804Y-3649831D01*
G01X6233804Y-3649831D02*
G01X6233804Y-3661830D01*
G01X6226305Y-3616835D02*
G01X6252552Y-3616835D01*
G01X6211307Y-3624334D02*
G01X6239429Y-3631834D01*
G01X6239429Y-3631834D02*
G01X6239429Y-3612336D01*
G01X6113182Y-3643832D02*
G01X6094434Y-3654331D01*
G01X6113182Y-3661830D02*
G01X6073812Y-3661830D01*
G01X6073812Y-3661830D02*
G01X6073812Y-3649831D01*
G01X6073812Y-3649831D02*
G01X6075687Y-3646832D01*
G01X6075687Y-3646832D02*
G01X6077561Y-3645332D01*
G01X6077561Y-3645332D02*
G01X6081311Y-3643832D01*
G01X6081311Y-3643832D02*
G01X6086935Y-3643832D01*
G01X6086935Y-3643832D02*
G01X6090685Y-3645332D01*
G01X6090685Y-3645332D02*
G01X6092559Y-3646832D01*
G01X6092559Y-3646832D02*
G01X6094434Y-3649831D01*
G01X6094434Y-3649831D02*
G01X6094434Y-3661830D01*
G01X6073812Y-3633333D02*
G01X6073812Y-3613836D01*
G01X6073812Y-3613836D02*
G01X6088810Y-3624334D01*
G01X6088810Y-3624334D02*
G01X6088810Y-3619835D01*
G01X6088810Y-3619835D02*
G01X6090685Y-3616835D01*
G01X6090685Y-3616835D02*
G01X6092559Y-3615336D01*
G01X6092559Y-3615336D02*
G01X6096309Y-3613836D01*
G01X6096309Y-3613836D02*
G01X6105683Y-3613836D01*
G01X6105683Y-3613836D02*
G01X6109432Y-3615336D01*
G01X6109432Y-3615336D02*
G01X6111307Y-3616835D01*
G01X6111307Y-3616835D02*
G01X6113182Y-3619835D01*
G01X6113182Y-3619835D02*
G01X6113182Y-3628834D01*
G01X6113182Y-3628834D02*
G01X6111307Y-3631834D01*
G01X6111307Y-3631834D02*
G01X6109432Y-3633333D01*
G01X6799196Y-4011586D02*
G01X6801071Y-4013086D01*
G01X6801071Y-4013086D02*
G01X6802946Y-4017585D01*
G01X6802946Y-4017585D02*
G01X6802946Y-4020585D01*
G01X6802946Y-4020585D02*
G01X6801071Y-4025084D01*
G01X6801071Y-4025084D02*
G01X6797321Y-4028084D01*
G01X6797321Y-4028084D02*
G01X6793572Y-4029584D01*
G01X6793572Y-4029584D02*
G01X6786073Y-4031084D01*
G01X6786073Y-4031084D02*
G01X6780448Y-4031084D01*
G01X6780448Y-4031084D02*
G01X6772949Y-4029584D01*
G01X6772949Y-4029584D02*
G01X6769200Y-4028084D01*
G01X6769200Y-4028084D02*
G01X6765450Y-4025084D01*
G01X6765450Y-4025084D02*
G01X6763576Y-4020585D01*
G01X6763576Y-4020585D02*
G01X6763576Y-4017585D01*
G01X6763576Y-4017585D02*
G01X6765450Y-4013086D01*
G01X6765450Y-4013086D02*
G01X6767325Y-4011586D01*
G01X6802946Y-3981590D02*
G01X6802946Y-3999588D01*
G01X6802946Y-3990589D02*
G01X6763576Y-3990589D01*
G01X6763576Y-3990589D02*
G01X6769200Y-3993588D01*
G01X6769200Y-3993588D02*
G01X6772949Y-3996588D01*
G01X6772949Y-3996588D02*
G01X6774824Y-3999588D01*
G01X6776699Y-3954593D02*
G01X6802946Y-3954593D01*
G01X6761701Y-3962092D02*
G01X6789822Y-3969591D01*
G01X6789822Y-3969591D02*
G01X6789822Y-3950094D01*
G01X5975387Y-2974541D02*
G01X5956639Y-2985039D01*
G01X5975387Y-2992538D02*
G01X5936016Y-2992538D01*
G01X5936016Y-2992538D02*
G01X5936016Y-2980540D01*
G01X5936016Y-2980540D02*
G01X5937891Y-2977540D01*
G01X5937891Y-2977540D02*
G01X5939766Y-2976040D01*
G01X5939766Y-2976040D02*
G01X5943516Y-2974541D01*
G01X5943516Y-2974541D02*
G01X5949140Y-2974541D01*
G01X5949140Y-2974541D02*
G01X5952889Y-2976040D01*
G01X5952889Y-2976040D02*
G01X5954764Y-2977540D01*
G01X5954764Y-2977540D02*
G01X5956639Y-2980540D01*
G01X5956639Y-2980540D02*
G01X5956639Y-2992538D01*
G01X5952889Y-2956543D02*
G01X5951015Y-2959543D01*
G01X5951015Y-2959543D02*
G01X5949140Y-2961042D01*
G01X5949140Y-2961042D02*
G01X5945390Y-2962542D01*
G01X5945390Y-2962542D02*
G01X5943516Y-2962542D01*
G01X5943516Y-2962542D02*
G01X5939766Y-2961042D01*
G01X5939766Y-2961042D02*
G01X5937891Y-2959543D01*
G01X5937891Y-2959543D02*
G01X5936016Y-2956543D01*
G01X5936016Y-2956543D02*
G01X5936016Y-2950544D01*
G01X5936016Y-2950544D02*
G01X5937891Y-2947544D01*
G01X5937891Y-2947544D02*
G01X5939766Y-2946044D01*
G01X5939766Y-2946044D02*
G01X5943516Y-2944544D01*
G01X5943516Y-2944544D02*
G01X5945390Y-2944544D01*
G01X5945390Y-2944544D02*
G01X5949140Y-2946044D01*
G01X5949140Y-2946044D02*
G01X5951015Y-2947544D01*
G01X5951015Y-2947544D02*
G01X5952889Y-2950544D01*
G01X5952889Y-2950544D02*
G01X5952889Y-2956543D01*
G01X5952889Y-2956543D02*
G01X5954764Y-2959543D01*
G01X5954764Y-2959543D02*
G01X5956639Y-2961042D01*
G01X5956639Y-2961042D02*
G01X5960388Y-2962542D01*
G01X5960388Y-2962542D02*
G01X5967887Y-2962542D01*
G01X5967887Y-2962542D02*
G01X5971637Y-2961042D01*
G01X5971637Y-2961042D02*
G01X5973512Y-2959543D01*
G01X5973512Y-2959543D02*
G01X5975387Y-2956543D01*
G01X5975387Y-2956543D02*
G01X5975387Y-2950544D01*
G01X5975387Y-2950544D02*
G01X5973512Y-2947544D01*
G01X5973512Y-2947544D02*
G01X5971637Y-2946044D01*
G01X5971637Y-2946044D02*
G01X5967887Y-2944544D01*
G01X5967887Y-2944544D02*
G01X5960388Y-2944544D01*
G01X5960388Y-2944544D02*
G01X5956639Y-2946044D01*
G01X5956639Y-2946044D02*
G01X5954764Y-2947544D01*
G01X5954764Y-2947544D02*
G01X5952889Y-2950544D01*
G01X5834629Y-2702887D02*
G01X5836504Y-2704387D01*
G01X5836504Y-2704387D02*
G01X5838379Y-2708886D01*
G01X5838379Y-2708886D02*
G01X5838379Y-2711886D01*
G01X5838379Y-2711886D02*
G01X5836504Y-2716385D01*
G01X5836504Y-2716385D02*
G01X5832754Y-2719385D01*
G01X5832754Y-2719385D02*
G01X5829005Y-2720885D01*
G01X5829005Y-2720885D02*
G01X5821506Y-2722385D01*
G01X5821506Y-2722385D02*
G01X5815881Y-2722385D01*
G01X5815881Y-2722385D02*
G01X5808382Y-2720885D01*
G01X5808382Y-2720885D02*
G01X5804633Y-2719385D01*
G01X5804633Y-2719385D02*
G01X5800883Y-2716385D01*
G01X5800883Y-2716385D02*
G01X5799009Y-2711886D01*
G01X5799009Y-2711886D02*
G01X5799009Y-2708886D01*
G01X5799009Y-2708886D02*
G01X5800883Y-2704387D01*
G01X5800883Y-2704387D02*
G01X5802758Y-2702887D01*
G01X5799009Y-2692388D02*
G01X5799009Y-2671391D01*
G01X5799009Y-2671391D02*
G01X5838379Y-2684889D01*
G01X6528536Y-3304499D02*
G01X6509789Y-3314998D01*
G01X6528536Y-3322497D02*
G01X6489166Y-3322497D01*
G01X6489166Y-3322497D02*
G01X6489166Y-3310499D01*
G01X6489166Y-3310499D02*
G01X6491041Y-3307499D01*
G01X6491041Y-3307499D02*
G01X6492916Y-3305999D01*
G01X6492916Y-3305999D02*
G01X6496665Y-3304499D01*
G01X6496665Y-3304499D02*
G01X6502289Y-3304499D01*
G01X6502289Y-3304499D02*
G01X6506039Y-3305999D01*
G01X6506039Y-3305999D02*
G01X6507914Y-3307499D01*
G01X6507914Y-3307499D02*
G01X6509789Y-3310499D01*
G01X6509789Y-3310499D02*
G01X6509789Y-3322497D01*
G01X6528536Y-3274503D02*
G01X6528536Y-3292501D01*
G01X6528536Y-3283502D02*
G01X6489166Y-3283502D01*
G01X6489166Y-3283502D02*
G01X6494790Y-3286502D01*
G01X6494790Y-3286502D02*
G01X6498540Y-3289501D01*
G01X6498540Y-3289501D02*
G01X6500415Y-3292501D01*
G01X6489166Y-3246007D02*
G01X6489166Y-3261005D01*
G01X6489166Y-3261005D02*
G01X6507914Y-3262505D01*
G01X6507914Y-3262505D02*
G01X6506039Y-3261005D01*
G01X6506039Y-3261005D02*
G01X6504164Y-3258005D01*
G01X6504164Y-3258005D02*
G01X6504164Y-3250506D01*
G01X6504164Y-3250506D02*
G01X6506039Y-3247507D01*
G01X6506039Y-3247507D02*
G01X6507914Y-3246007D01*
G01X6507914Y-3246007D02*
G01X6511663Y-3244507D01*
G01X6511663Y-3244507D02*
G01X6521037Y-3244507D01*
G01X6521037Y-3244507D02*
G01X6524787Y-3246007D01*
G01X6524787Y-3246007D02*
G01X6526661Y-3247507D01*
G01X6526661Y-3247507D02*
G01X6528536Y-3250506D01*
G01X6528536Y-3250506D02*
G01X6528536Y-3258005D01*
G01X6528536Y-3258005D02*
G01X6526661Y-3261005D01*
G01X6526661Y-3261005D02*
G01X6524787Y-3262505D01*
G01X6506095Y-2201444D02*
G01X6534217Y-2201444D01*
G01X6534217Y-2201444D02*
G01X6539841Y-2202943D01*
G01X6539841Y-2202943D02*
G01X6543591Y-2205943D01*
G01X6543591Y-2205943D02*
G01X6545465Y-2210442D01*
G01X6545465Y-2210442D02*
G01X6545465Y-2213442D01*
G01X6509845Y-2187945D02*
G01X6507970Y-2186445D01*
G01X6507970Y-2186445D02*
G01X6506095Y-2183446D01*
G01X6506095Y-2183446D02*
G01X6506095Y-2175947D01*
G01X6506095Y-2175947D02*
G01X6507970Y-2172947D01*
G01X6507970Y-2172947D02*
G01X6509845Y-2171447D01*
G01X6509845Y-2171447D02*
G01X6513594Y-2169947D01*
G01X6513594Y-2169947D02*
G01X6517344Y-2169947D01*
G01X6517344Y-2169947D02*
G01X6522968Y-2171447D01*
G01X6522968Y-2171447D02*
G01X6545465Y-2189445D01*
G01X6545465Y-2189445D02*
G01X6545465Y-2169947D01*
G01X6252946Y-3300562D02*
G01X6234198Y-3311061D01*
G01X6252946Y-3318560D02*
G01X6213576Y-3318560D01*
G01X6213576Y-3318560D02*
G01X6213576Y-3306562D01*
G01X6213576Y-3306562D02*
G01X6215450Y-3303562D01*
G01X6215450Y-3303562D02*
G01X6217325Y-3302062D01*
G01X6217325Y-3302062D02*
G01X6221075Y-3300562D01*
G01X6221075Y-3300562D02*
G01X6226699Y-3300562D01*
G01X6226699Y-3300562D02*
G01X6230448Y-3302062D01*
G01X6230448Y-3302062D02*
G01X6232323Y-3303562D01*
G01X6232323Y-3303562D02*
G01X6234198Y-3306562D01*
G01X6234198Y-3306562D02*
G01X6234198Y-3318560D01*
G01X6252946Y-3270566D02*
G01X6252946Y-3288564D01*
G01X6252946Y-3279565D02*
G01X6213576Y-3279565D01*
G01X6213576Y-3279565D02*
G01X6219200Y-3282565D01*
G01X6219200Y-3282565D02*
G01X6222949Y-3285564D01*
G01X6222949Y-3285564D02*
G01X6224824Y-3288564D01*
G01X6217325Y-3258568D02*
G01X6215450Y-3257068D01*
G01X6215450Y-3257068D02*
G01X6213576Y-3254068D01*
G01X6213576Y-3254068D02*
G01X6213576Y-3246569D01*
G01X6213576Y-3246569D02*
G01X6215450Y-3243570D01*
G01X6215450Y-3243570D02*
G01X6217325Y-3242070D01*
G01X6217325Y-3242070D02*
G01X6221075Y-3240570D01*
G01X6221075Y-3240570D02*
G01X6224824Y-3240570D01*
G01X6224824Y-3240570D02*
G01X6230448Y-3242070D01*
G01X6230448Y-3242070D02*
G01X6252946Y-3260067D01*
G01X6252946Y-3260067D02*
G01X6252946Y-3240570D01*
G01X6526174Y-4011586D02*
G01X6507426Y-4022085D01*
G01X6526174Y-4029584D02*
G01X6486804Y-4029584D01*
G01X6486804Y-4029584D02*
G01X6486804Y-4017585D01*
G01X6486804Y-4017585D02*
G01X6488679Y-4014586D01*
G01X6488679Y-4014586D02*
G01X6490553Y-4013086D01*
G01X6490553Y-4013086D02*
G01X6494303Y-4011586D01*
G01X6494303Y-4011586D02*
G01X6499927Y-4011586D01*
G01X6499927Y-4011586D02*
G01X6503677Y-4013086D01*
G01X6503677Y-4013086D02*
G01X6505552Y-4014586D01*
G01X6505552Y-4014586D02*
G01X6507426Y-4017585D01*
G01X6507426Y-4017585D02*
G01X6507426Y-4029584D01*
G01X6526174Y-3981590D02*
G01X6526174Y-3999588D01*
G01X6526174Y-3990589D02*
G01X6486804Y-3990589D01*
G01X6486804Y-3990589D02*
G01X6492428Y-3993588D01*
G01X6492428Y-3993588D02*
G01X6496178Y-3996588D01*
G01X6496178Y-3996588D02*
G01X6498052Y-3999588D01*
G01X6486804Y-3971091D02*
G01X6486804Y-3951594D01*
G01X6486804Y-3951594D02*
G01X6501802Y-3962092D01*
G01X6501802Y-3962092D02*
G01X6501802Y-3957593D01*
G01X6501802Y-3957593D02*
G01X6503677Y-3954593D01*
G01X6503677Y-3954593D02*
G01X6505552Y-3953093D01*
G01X6505552Y-3953093D02*
G01X6509301Y-3951594D01*
G01X6509301Y-3951594D02*
G01X6518675Y-3951594D01*
G01X6518675Y-3951594D02*
G01X6522424Y-3953093D01*
G01X6522424Y-3953093D02*
G01X6524299Y-3954593D01*
G01X6524299Y-3954593D02*
G01X6526174Y-3957593D01*
G01X6526174Y-3957593D02*
G01X6526174Y-3966592D01*
G01X6526174Y-3966592D02*
G01X6524299Y-3969591D01*
G01X6524299Y-3969591D02*
G01X6522424Y-3971091D01*
G01X7622040Y-2853450D02*
G01X7650162Y-2853450D01*
G01X7650162Y-2853450D02*
G01X7655786Y-2854949D01*
G01X7655786Y-2854949D02*
G01X7659535Y-2857949D01*
G01X7659535Y-2857949D02*
G01X7661410Y-2862448D01*
G01X7661410Y-2862448D02*
G01X7661410Y-2865448D01*
G01X7625790Y-2839951D02*
G01X7623915Y-2838451D01*
G01X7623915Y-2838451D02*
G01X7622040Y-2835452D01*
G01X7622040Y-2835452D02*
G01X7622040Y-2827953D01*
G01X7622040Y-2827953D02*
G01X7623915Y-2824953D01*
G01X7623915Y-2824953D02*
G01X7625790Y-2823453D01*
G01X7625790Y-2823453D02*
G01X7629539Y-2821954D01*
G01X7629539Y-2821954D02*
G01X7633289Y-2821954D01*
G01X7633289Y-2821954D02*
G01X7638913Y-2823453D01*
G01X7638913Y-2823453D02*
G01X7661410Y-2841451D01*
G01X7661410Y-2841451D02*
G01X7661410Y-2821954D01*
G01X7622040Y-2802456D02*
G01X7622040Y-2799456D01*
G01X7622040Y-2799456D02*
G01X7623915Y-2796457D01*
G01X7623915Y-2796457D02*
G01X7625790Y-2794957D01*
G01X7625790Y-2794957D02*
G01X7629539Y-2793457D01*
G01X7629539Y-2793457D02*
G01X7637038Y-2791957D01*
G01X7637038Y-2791957D02*
G01X7646412Y-2791957D01*
G01X7646412Y-2791957D02*
G01X7653911Y-2793457D01*
G01X7653911Y-2793457D02*
G01X7657661Y-2794957D01*
G01X7657661Y-2794957D02*
G01X7659535Y-2796457D01*
G01X7659535Y-2796457D02*
G01X7661410Y-2799456D01*
G01X7661410Y-2799456D02*
G01X7661410Y-2802456D01*
G01X7661410Y-2802456D02*
G01X7659535Y-2805456D01*
G01X7659535Y-2805456D02*
G01X7657661Y-2806955D01*
G01X7657661Y-2806955D02*
G01X7653911Y-2808455D01*
G01X7653911Y-2808455D02*
G01X7646412Y-2809955D01*
G01X7646412Y-2809955D02*
G01X7637038Y-2809955D01*
G01X7637038Y-2809955D02*
G01X7629539Y-2808455D01*
G01X7629539Y-2808455D02*
G01X7625790Y-2806955D01*
G01X7625790Y-2806955D02*
G01X7623915Y-2805456D01*
G01X7623915Y-2805456D02*
G01X7622040Y-2802456D01*
G01X6385810Y-3643832D02*
G01X6387685Y-3645332D01*
G01X6387685Y-3645332D02*
G01X6389560Y-3649831D01*
G01X6389560Y-3649831D02*
G01X6389560Y-3652831D01*
G01X6389560Y-3652831D02*
G01X6387685Y-3657330D01*
G01X6387685Y-3657330D02*
G01X6383935Y-3660330D01*
G01X6383935Y-3660330D02*
G01X6380186Y-3661830D01*
G01X6380186Y-3661830D02*
G01X6372687Y-3663330D01*
G01X6372687Y-3663330D02*
G01X6367063Y-3663330D01*
G01X6367063Y-3663330D02*
G01X6359564Y-3661830D01*
G01X6359564Y-3661830D02*
G01X6355814Y-3660330D01*
G01X6355814Y-3660330D02*
G01X6352064Y-3657330D01*
G01X6352064Y-3657330D02*
G01X6350190Y-3652831D01*
G01X6350190Y-3652831D02*
G01X6350190Y-3649831D01*
G01X6350190Y-3649831D02*
G01X6352064Y-3645332D01*
G01X6352064Y-3645332D02*
G01X6353939Y-3643832D01*
G01X6350190Y-3616835D02*
G01X6350190Y-3622835D01*
G01X6350190Y-3622835D02*
G01X6352064Y-3625834D01*
G01X6352064Y-3625834D02*
G01X6353939Y-3627334D01*
G01X6353939Y-3627334D02*
G01X6359564Y-3630334D01*
G01X6359564Y-3630334D02*
G01X6367063Y-3631834D01*
G01X6367063Y-3631834D02*
G01X6382061Y-3631834D01*
G01X6382061Y-3631834D02*
G01X6385810Y-3630334D01*
G01X6385810Y-3630334D02*
G01X6387685Y-3628834D01*
G01X6387685Y-3628834D02*
G01X6389560Y-3625834D01*
G01X6389560Y-3625834D02*
G01X6389560Y-3619835D01*
G01X6389560Y-3619835D02*
G01X6387685Y-3616835D01*
G01X6387685Y-3616835D02*
G01X6385810Y-3615336D01*
G01X6385810Y-3615336D02*
G01X6382061Y-3613836D01*
G01X6382061Y-3613836D02*
G01X6372687Y-3613836D01*
G01X6372687Y-3613836D02*
G01X6368937Y-3615336D01*
G01X6368937Y-3615336D02*
G01X6367063Y-3616835D01*
G01X6367063Y-3616835D02*
G01X6365188Y-3619835D01*
G01X6365188Y-3619835D02*
G01X6365188Y-3625834D01*
G01X6365188Y-3625834D02*
G01X6367063Y-3628834D01*
G01X6367063Y-3628834D02*
G01X6368937Y-3630334D01*
G01X6368937Y-3630334D02*
G01X6372687Y-3631834D01*
G01X6807670Y-4213170D02*
G01X6839541Y-4213170D01*
G01X6839541Y-4213170D02*
G01X6843291Y-4211670D01*
G01X6843291Y-4211670D02*
G01X6845165Y-4210171D01*
G01X6845165Y-4210171D02*
G01X6847040Y-4207171D01*
G01X6847040Y-4207171D02*
G01X6847040Y-4201172D01*
G01X6847040Y-4201172D02*
G01X6845165Y-4198172D01*
G01X6845165Y-4198172D02*
G01X6843291Y-4196672D01*
G01X6843291Y-4196672D02*
G01X6839541Y-4195172D01*
G01X6839541Y-4195172D02*
G01X6807670Y-4195172D01*
G01X6807670Y-4166676D02*
G01X6807670Y-4172675D01*
G01X6807670Y-4172675D02*
G01X6809545Y-4175675D01*
G01X6809545Y-4175675D02*
G01X6811420Y-4177175D01*
G01X6811420Y-4177175D02*
G01X6817044Y-4180174D01*
G01X6817044Y-4180174D02*
G01X6824543Y-4181674D01*
G01X6824543Y-4181674D02*
G01X6839541Y-4181674D01*
G01X6839541Y-4181674D02*
G01X6843291Y-4180174D01*
G01X6843291Y-4180174D02*
G01X6845165Y-4178675D01*
G01X6845165Y-4178675D02*
G01X6847040Y-4175675D01*
G01X6847040Y-4175675D02*
G01X6847040Y-4169676D01*
G01X6847040Y-4169676D02*
G01X6845165Y-4166676D01*
G01X6845165Y-4166676D02*
G01X6843291Y-4165176D01*
G01X6843291Y-4165176D02*
G01X6839541Y-4163676D01*
G01X6839541Y-4163676D02*
G01X6830167Y-4163676D01*
G01X6830167Y-4163676D02*
G01X6826418Y-4165176D01*
G01X6826418Y-4165176D02*
G01X6824543Y-4166676D01*
G01X6824543Y-4166676D02*
G01X6822668Y-4169676D01*
G01X6822668Y-4169676D02*
G01X6822668Y-4175675D01*
G01X6822668Y-4175675D02*
G01X6824543Y-4178675D01*
G01X6824543Y-4178675D02*
G01X6826418Y-4180174D01*
G01X6826418Y-4180174D02*
G01X6830167Y-4181674D01*
G01X6390741Y-2931234D02*
G01X6371993Y-2941732D01*
G01X6390741Y-2949231D02*
G01X6351371Y-2949231D01*
G01X6351371Y-2949231D02*
G01X6351371Y-2937233D01*
G01X6351371Y-2937233D02*
G01X6353246Y-2934233D01*
G01X6353246Y-2934233D02*
G01X6355120Y-2932733D01*
G01X6355120Y-2932733D02*
G01X6358870Y-2931234D01*
G01X6358870Y-2931234D02*
G01X6364494Y-2931234D01*
G01X6364494Y-2931234D02*
G01X6368244Y-2932733D01*
G01X6368244Y-2932733D02*
G01X6370118Y-2934233D01*
G01X6370118Y-2934233D02*
G01X6371993Y-2937233D01*
G01X6371993Y-2937233D02*
G01X6371993Y-2949231D01*
G01X6390741Y-2901237D02*
G01X6390741Y-2919235D01*
G01X6390741Y-2910236D02*
G01X6351371Y-2910236D01*
G01X6351371Y-2910236D02*
G01X6356995Y-2913236D01*
G01X6356995Y-2913236D02*
G01X6360745Y-2916235D01*
G01X6360745Y-2916235D02*
G01X6362619Y-2919235D01*
G01X6531480Y-2580840D02*
G01X6533354Y-2582340D01*
G01X6533354Y-2582340D02*
G01X6535229Y-2586839D01*
G01X6535229Y-2586839D02*
G01X6535229Y-2589839D01*
G01X6535229Y-2589839D02*
G01X6533354Y-2594338D01*
G01X6533354Y-2594338D02*
G01X6529605Y-2597338D01*
G01X6529605Y-2597338D02*
G01X6525855Y-2598838D01*
G01X6525855Y-2598838D02*
G01X6518356Y-2600337D01*
G01X6518356Y-2600337D02*
G01X6512732Y-2600337D01*
G01X6512732Y-2600337D02*
G01X6505233Y-2598838D01*
G01X6505233Y-2598838D02*
G01X6501483Y-2597338D01*
G01X6501483Y-2597338D02*
G01X6497734Y-2594338D01*
G01X6497734Y-2594338D02*
G01X6495859Y-2589839D01*
G01X6495859Y-2589839D02*
G01X6495859Y-2586839D01*
G01X6495859Y-2586839D02*
G01X6497734Y-2582340D01*
G01X6497734Y-2582340D02*
G01X6499609Y-2580840D01*
G01X6535229Y-2565842D02*
G01X6535229Y-2559842D01*
G01X6535229Y-2559842D02*
G01X6533354Y-2556843D01*
G01X6533354Y-2556843D02*
G01X6531480Y-2555343D01*
G01X6531480Y-2555343D02*
G01X6525855Y-2552343D01*
G01X6525855Y-2552343D02*
G01X6518356Y-2550844D01*
G01X6518356Y-2550844D02*
G01X6503358Y-2550844D01*
G01X6503358Y-2550844D02*
G01X6499609Y-2552343D01*
G01X6499609Y-2552343D02*
G01X6497734Y-2553843D01*
G01X6497734Y-2553843D02*
G01X6495859Y-2556843D01*
G01X6495859Y-2556843D02*
G01X6495859Y-2562842D01*
G01X6495859Y-2562842D02*
G01X6497734Y-2565842D01*
G01X6497734Y-2565842D02*
G01X6499609Y-2567342D01*
G01X6499609Y-2567342D02*
G01X6503358Y-2568841D01*
G01X6503358Y-2568841D02*
G01X6512732Y-2568841D01*
G01X6512732Y-2568841D02*
G01X6516481Y-2567342D01*
G01X6516481Y-2567342D02*
G01X6518356Y-2565842D01*
G01X6518356Y-2565842D02*
G01X6520231Y-2562842D01*
G01X6520231Y-2562842D02*
G01X6520231Y-2556843D01*
G01X6520231Y-2556843D02*
G01X6518356Y-2553843D01*
G01X6518356Y-2553843D02*
G01X6516481Y-2552343D01*
G01X6516481Y-2552343D02*
G01X6512732Y-2550844D01*
G54D11*
G01X5579134Y-2805118D02*
G01X5509858Y-2805118D01*
G01X5579134Y-2905118D02*
G01X5509858Y-2905118D01*
G01X5588189Y-2938189D02*
G01X5579134Y-2938189D01*
G01X5588189Y-2972047D02*
G01X5579134Y-2972047D01*
G01X5591443Y-2738189D02*
G01X5579134Y-2738189D01*
G01X5591443Y-2772047D02*
G01X5579134Y-2772047D01*
G01X5591443Y-2838189D02*
G01X5579134Y-2838189D01*
G01X5591443Y-2872047D02*
G01X5579134Y-2872047D01*
G01X5683858Y-2955118D02*
G01X5683858Y-3005118D01*
G01X5683858Y-3005118D02*
G01X5633858Y-3005118D01*
G01X5579134Y-3009449D02*
G01X5508472Y-3009449D01*
G01X5508472Y-3009449D02*
G01X5508472Y-2700787D01*
G01X5508472Y-2700787D02*
G01X5579134Y-2700787D01*
G01X5579134Y-2700787D02*
G01X5579134Y-3009449D01*
G01X6464173Y-4640748D02*
G01X6507480Y-4640748D01*
G01X6464173Y-5089567D02*
G01X6464173Y-4640748D01*
G01X6511417Y-5089567D02*
G01X6464173Y-5089567D01*
G01X6511417Y-5089567D02*
G01X6511417Y-5127803D01*
G01X6511417Y-5127803D02*
G01X6739764Y-5127803D01*
G01X6739764Y-5089567D02*
G01X6739764Y-5127803D01*
G01X6751575Y-4640748D02*
G01X6570472Y-4640748D01*
G01X6751575Y-5089567D02*
G01X6739764Y-5089567D01*
G01X6751575Y-5089567D02*
G01X6751575Y-4640748D01*
G01X6763386Y-4723425D02*
G01X6783071Y-4743110D01*
G01X6783071Y-4703740D02*
G01X6763386Y-4723425D01*
G01X6783071Y-4743110D02*
G01X6783071Y-4703740D01*
G01X5715748Y-2997916D02*
G01X5715748Y-2940667D01*
G01X5787402Y-2997916D02*
G01X5787402Y-2940667D01*
G01X6404724Y-3666585D02*
G01X6404724Y-3610581D01*
G01X6476378Y-3666585D02*
G01X6476378Y-3610581D01*
G01X5853543Y-3312877D02*
G01X5853543Y-3255627D01*
G01X5925197Y-3312877D02*
G01X5925197Y-3255627D01*
G01X5975984Y-2263780D02*
G01X5975984Y-2342520D01*
G01X5975984Y-2263780D02*
G01X6127953Y-2263780D01*
G01X5975984Y-2342520D02*
G01X6127953Y-2342520D01*
G01X6404724Y-2901297D02*
G01X6404724Y-2958546D01*
G01X6476378Y-2901297D02*
G01X6476378Y-2958546D01*
G01X6601575Y-3039370D02*
G01X6577559Y-3039370D01*
G01X6601575Y-3693701D02*
G01X6601575Y-3669291D01*
G01X6685039Y-3693701D02*
G01X6601575Y-3693701D01*
G01X7240945Y-3669291D02*
G01X7240945Y-3693701D01*
G01X7240945Y-3693701D02*
G01X7157480Y-3693701D01*
G01X7258071Y-3039370D02*
G01X7234055Y-3039370D01*
G01X6080512Y-2380315D02*
G01X6242717Y-2380315D01*
G01X6080512Y-2382480D02*
G01X6080512Y-2380315D01*
G01X6080512Y-2778740D02*
G01X6080512Y-2776575D01*
G01X6242717Y-2380315D02*
G01X6242717Y-2382480D01*
G01X6242717Y-2776575D02*
G01X6242717Y-2778740D01*
G01X6242717Y-2778740D02*
G01X6080512Y-2778740D01*
G01X6273425Y-2789764D02*
G01X6254528Y-2789764D01*
G01X6254528Y-2789764D02*
G01X6263976Y-2776772D01*
G01X6263976Y-2776772D02*
G01X6273425Y-2789764D01*
G36*
G01X6273425Y-2789764D02*
G01X6254528Y-2789764D01*
G01X6263976Y-2776772D01*
G01X6273425Y-2789764D01*
G37*
G01X5578150Y-4125197D02*
G01X5510827Y-4125197D01*
G01X5586874Y-4058268D02*
G01X5578150Y-4058268D01*
G01X5586874Y-4092126D02*
G01X5578150Y-4092126D01*
G01X5587205Y-4158268D02*
G01X5578150Y-4158268D01*
G01X5587205Y-4192126D02*
G01X5578150Y-4192126D01*
G01X5682874Y-4175197D02*
G01X5682874Y-4225197D01*
G01X5682874Y-4225197D02*
G01X5632874Y-4225197D01*
G01X5578150Y-4229528D02*
G01X5508858Y-4229528D01*
G01X5508858Y-4229528D02*
G01X5508858Y-4020866D01*
G01X5508858Y-4020866D02*
G01X5578150Y-4020866D01*
G01X5578150Y-4020866D02*
G01X5578150Y-4229528D01*
G01X7385827Y-3705118D02*
G01X7435827Y-3705118D01*
G01X7385827Y-3755118D02*
G01X7385827Y-3705118D01*
G01X7481496Y-3738189D02*
G01X7490551Y-3738189D01*
G01X7481496Y-3772047D02*
G01X7490551Y-3772047D01*
G01X7481827Y-3838189D02*
G01X7490551Y-3838189D01*
G01X7481827Y-3872047D02*
G01X7490551Y-3872047D01*
G01X7481827Y-3938189D02*
G01X7490551Y-3938189D01*
G01X7481827Y-3972047D02*
G01X7490551Y-3972047D01*
G01X7481827Y-4038189D02*
G01X7490551Y-4038189D01*
G01X7481827Y-4072047D02*
G01X7490551Y-4072047D01*
G01X7490551Y-3805118D02*
G01X7599213Y-3805118D01*
G01X7490551Y-3905118D02*
G01X7599213Y-3905118D01*
G01X7490551Y-4005118D02*
G01X7599213Y-4005118D01*
G01X7599213Y-3838189D02*
G01X7715433Y-3838189D01*
G01X7599213Y-3938189D02*
G01X7715433Y-3938189D01*
G01X7599213Y-4038189D02*
G01X7715433Y-4038189D01*
G01X7715433Y-3838189D02*
G01X7715433Y-3872047D01*
G01X7715433Y-3872047D02*
G01X7599213Y-3872047D01*
G01X7715433Y-3938189D02*
G01X7715433Y-3972047D01*
G01X7715433Y-3972047D02*
G01X7599213Y-3972047D01*
G01X7715433Y-4038189D02*
G01X7715433Y-4072047D01*
G01X7715433Y-4072047D02*
G01X7599213Y-4072047D01*
G01X7490551Y-3700787D02*
G01X7599213Y-3700787D01*
G01X7599213Y-3700787D02*
G01X7599213Y-4109449D01*
G01X7599213Y-4109449D02*
G01X7490551Y-4109449D01*
G01X7490551Y-4109449D02*
G01X7490551Y-3700787D01*
G01X7599213Y-3738189D02*
G01X7716929Y-3738189D01*
G01X7716929Y-3738189D02*
G01X7716929Y-3772047D01*
G01X7716929Y-3772047D02*
G01X7599213Y-3772047D01*
G01X7599213Y-3772047D02*
G01X7599213Y-3738189D01*
G36*
G01X7599213Y-3738189D02*
G01X7716929Y-3738189D01*
G01X7716929Y-3772047D01*
G01X7599213Y-3772047D01*
G01X7599213Y-3738189D01*
G37*
G01X6101575Y-2953514D02*
G01X6101575Y-2900984D01*
G01X6188976Y-2900984D02*
G01X6188976Y-2958858D01*
G01X6101181Y-2964961D02*
G01X6093701Y-2970472D01*
G01X6093701Y-2970472D02*
G01X6093701Y-2959449D01*
G01X6093701Y-2959449D02*
G01X6101181Y-2964961D01*
G36*
G01X6101181Y-2964961D02*
G01X6093701Y-2970472D01*
G01X6093701Y-2959449D01*
G01X6101181Y-2964961D01*
G37*
G01X6135039Y-3929921D02*
G01X6194882Y-3929921D01*
G01X6135039Y-3969291D02*
G01X6135039Y-3929921D01*
G01X6135039Y-4052756D02*
G01X6135039Y-4013386D01*
G01X6194882Y-3929921D02*
G01X6194882Y-3931890D01*
G01X6194882Y-3975984D02*
G01X6194882Y-4006693D01*
G01X6194882Y-4050787D02*
G01X6194882Y-4052756D01*
G01X6194882Y-4052756D02*
G01X6135039Y-4052756D01*
G01X6216142Y-4006299D02*
G01X6206693Y-3993307D01*
G01X6206693Y-3993307D02*
G01X6225591Y-3993307D01*
G01X6225591Y-3993307D02*
G01X6216142Y-4006299D01*
G36*
G01X6216142Y-4006299D02*
G01X6206693Y-3993307D01*
G01X6225591Y-3993307D01*
G01X6216142Y-4006299D01*
G37*
G01X6266929Y-3312877D02*
G01X6266929Y-3255627D01*
G01X6338583Y-3312877D02*
G01X6338583Y-3255627D01*
G01X6266929Y-4019963D02*
G01X6266929Y-3962714D01*
G01X6338583Y-4019963D02*
G01X6338583Y-3962714D01*
G01X7641339Y-3514683D02*
G01X7641339Y-3571932D01*
G01X7712992Y-3514683D02*
G01X7712992Y-3571932D01*
G01X5587992Y-3861220D02*
G01X5587992Y-3499016D01*
G01X5674606Y-3499016D02*
G01X5587992Y-3499016D01*
G01X5674606Y-3861220D02*
G01X5587992Y-3861220D01*
G01X5863583Y-3499016D02*
G01X5863583Y-3483268D01*
G01X5923094Y-3499016D02*
G01X5863583Y-3499016D01*
G01X5950197Y-3526118D02*
G01X5923094Y-3499016D01*
G01X5950197Y-3526118D02*
G01X5950197Y-3861220D01*
G01X5950197Y-3861220D02*
G01X5863583Y-3861220D01*
G01X6542520Y-3962714D02*
G01X6542520Y-4019963D01*
G01X6614173Y-3962714D02*
G01X6614173Y-4019963D01*
G01X5991339Y-3255627D02*
G01X5991339Y-3312877D01*
G01X6062992Y-3255627D02*
G01X6062992Y-3312877D01*
G01X5715748Y-3312877D02*
G01X5715748Y-3255627D01*
G01X5787402Y-3312877D02*
G01X5787402Y-3255627D01*
G01X5853543Y-2721703D02*
G01X5853543Y-2665699D01*
G01X5925197Y-2721703D02*
G01X5925197Y-2665699D01*
G54D14*
G36*
G01X6102265Y-4623732D02*
G01X6102265Y-4653259D01*
G01X6097334Y-4653259D01*
G01X6092403Y-4653259D01*
G01X6092403Y-4623732D01*
G01X6092403Y-4594204D01*
G01X6097334Y-4594204D01*
G01X6102265Y-4594204D01*
G01X6102265Y-4623732D01*
G37*
G36*
G01X6176791Y-4594585D02*
G01X6178203Y-4595893D01*
G01X6179125Y-4599298D01*
G01X6179877Y-4605588D01*
G01X6180136Y-4608362D01*
G01X6180732Y-4618284D01*
G01X6180952Y-4629404D01*
G01X6180808Y-4637511D01*
G01X6180421Y-4645028D01*
G01X6179832Y-4649475D01*
G01X6178698Y-4651718D01*
G01X6176676Y-4652621D01*
G01X6174696Y-4652903D01*
G01X6169219Y-4653531D01*
G01X6169765Y-4624360D01*
G01X6170001Y-4613090D01*
G01X6170281Y-4605155D01*
G01X6170702Y-4599952D01*
G01X6171362Y-4596880D01*
G01X6172357Y-4595335D01*
G01X6173785Y-4594716D01*
G01X6174571Y-4594583D01*
G01X6176791Y-4594585D01*
G37*
G36*
G01X6069482Y-4610609D02*
G01X6070706Y-4611872D01*
G01X6072275Y-4612798D01*
G01X6075766Y-4611872D01*
G01X6081027Y-4610230D01*
G01X6083649Y-4610710D01*
G01X6084483Y-4613604D01*
G01X6084513Y-4614873D01*
G01X6083568Y-4618754D01*
G01X6080680Y-4619795D01*
G01X6075903Y-4621601D01*
G01X6072618Y-4626882D01*
G01X6070925Y-4635427D01*
G01X6070706Y-4640902D01*
G01X6070613Y-4647634D01*
G01X6070090Y-4651334D01*
G01X6068779Y-4652906D01*
G01X6066317Y-4653256D01*
G01X6065775Y-4653259D01*
G01X6060844Y-4653259D01*
G01X6060844Y-4631606D01*
G01X6060844Y-4609952D01*
G01X6065775Y-4609952D01*
G01X6069482Y-4610609D01*
G37*
G36*
G01X6252166Y-4620868D02*
G01X6252116Y-4630716D01*
G01X6251871Y-4637449D01*
G01X6251285Y-4641890D01*
G01X6250215Y-4644863D01*
G01X6248516Y-4647189D01*
G01X6247325Y-4648427D01*
G01X6241016Y-4652200D01*
G01X6233329Y-4653316D01*
G01X6225868Y-4651695D01*
G01X6222536Y-4649682D01*
G01X6219564Y-4646566D01*
G01X6219590Y-4643541D01*
G01X6220361Y-4641909D01*
G01X6222117Y-4639213D01*
G01X6224154Y-4638881D01*
G01X6227946Y-4640756D01*
G01X6228475Y-4641057D01*
G01X6233632Y-4643304D01*
G01X6237301Y-4642995D01*
G01X6239732Y-4639796D01*
G01X6241173Y-4633370D01*
G01X6241876Y-4623381D01*
G01X6241888Y-4623032D01*
G01X6242458Y-4606015D01*
G01X6232519Y-4606015D01*
G01X6226576Y-4605811D01*
G01X6223601Y-4604944D01*
G01X6222627Y-4603030D01*
G01X6222580Y-4602078D01*
G01X6222930Y-4600065D01*
G01X6224523Y-4598884D01*
G01X6228177Y-4598317D01*
G01X6234710Y-4598147D01*
G01X6237373Y-4598141D01*
G01X6252166Y-4598141D01*
G01X6252166Y-4620868D01*
G37*
G36*
G01X6012990Y-4599748D02*
G01X6018529Y-4602924D01*
G01X6021146Y-4605339D01*
G01X6020599Y-4607477D01*
G01X6019176Y-4609025D01*
G01X6016706Y-4611031D01*
G01X6014124Y-4611053D01*
G01X6009802Y-4609091D01*
G01X6009664Y-4609020D01*
G01X6001585Y-4606668D01*
G01X5994275Y-4607808D01*
G01X5988443Y-4611996D01*
G01X5984796Y-4618786D01*
G01X5983921Y-4625177D01*
G01X5985521Y-4633312D01*
G01X5989784Y-4639378D01*
G01X5995906Y-4642932D01*
G01X6003084Y-4643532D01*
G01X6010512Y-4640736D01*
G01X6011279Y-4640225D01*
G01X6014813Y-4638154D01*
G01X6017189Y-4638577D01*
G01X6019051Y-4640232D01*
G01X6021026Y-4642757D01*
G01X6020428Y-4645030D01*
G01X6018000Y-4647682D01*
G01X6012104Y-4651167D01*
G01X6004153Y-4652838D01*
G01X5995638Y-4652607D01*
G01X5988048Y-4650387D01*
G01X5986494Y-4649526D01*
G01X5978523Y-4642400D01*
G01X5973749Y-4633403D01*
G01X5972441Y-4623272D01*
G01X5973979Y-4615117D01*
G01X5978505Y-4607179D01*
G01X5985566Y-4601428D01*
G01X5994265Y-4598108D01*
G01X6003705Y-4597467D01*
G01X6012990Y-4599748D01*
G37*
G36*
G01X6287432Y-4610528D02*
G01X6294690Y-4613546D01*
G01X6300284Y-4619004D01*
G01X6303563Y-4626409D01*
G01X6303876Y-4635263D01*
G01X6303168Y-4638598D01*
G01X6299387Y-4645447D01*
G01X6292943Y-4650566D01*
G01X6285018Y-4653110D01*
G01X6282738Y-4653245D01*
G01X6276946Y-4652193D01*
G01X6270906Y-4649639D01*
G01X6270532Y-4649417D01*
G01X6264660Y-4643686D01*
G01X6261653Y-4635846D01*
G01X6261745Y-4630160D01*
G01X6271890Y-4630160D01*
G01X6272994Y-4637620D01*
G01X6276409Y-4641975D01*
G01X6282285Y-4643416D01*
G01X6282413Y-4643417D01*
G01X6287618Y-4642733D01*
G01X6291188Y-4641085D01*
G01X6291219Y-4641055D01*
G01X6292958Y-4637169D01*
G01X6293515Y-4631432D01*
G01X6292890Y-4625750D01*
G01X6291219Y-4622157D01*
G01X6287657Y-4620463D01*
G01X6282738Y-4619795D01*
G01X6276302Y-4620977D01*
G01X6272793Y-4624712D01*
G01X6271890Y-4630160D01*
G01X6261745Y-4630160D01*
G01X6261801Y-4626771D01*
G01X6262308Y-4624614D01*
G01X6266288Y-4617309D01*
G01X6270532Y-4613794D01*
G01X6279162Y-4610445D01*
G01X6287432Y-4610528D01*
G37*
G36*
G01X6202663Y-4602200D02*
G01X6204457Y-4605402D01*
G01X6206735Y-4609298D01*
G01X6209388Y-4610323D01*
G01X6213280Y-4612591D01*
G01X6214335Y-4615366D01*
G01X6214070Y-4618674D01*
G01X6211256Y-4619755D01*
G01X6209897Y-4619795D01*
G01X6207077Y-4620032D01*
G01X6205562Y-4621364D01*
G01X6204947Y-4624720D01*
G01X6204829Y-4631033D01*
G01X6204829Y-4631475D01*
G01X6204935Y-4637989D01*
G01X6205542Y-4641550D01*
G01X6207084Y-4643142D01*
G01X6209995Y-4643748D01*
G01X6210253Y-4643778D01*
G01X6214483Y-4645212D01*
G01X6215677Y-4648338D01*
G01X6214132Y-4651672D01*
G01X6210252Y-4653112D01*
G01X6205166Y-4652644D01*
G01X6200005Y-4650255D01*
G01X6197958Y-4648550D01*
G01X6195069Y-4645030D01*
G01X6193564Y-4640957D01*
G01X6193029Y-4634927D01*
G01X6192994Y-4631695D01*
G01X6192770Y-4624808D01*
G01X6191975Y-4621097D01*
G01X6190424Y-4619823D01*
G01X6190036Y-4619795D01*
G01X6187716Y-4618319D01*
G01X6187191Y-4615041D01*
G01X6188503Y-4611685D01*
G01X6189816Y-4610542D01*
G01X6192453Y-4607419D01*
G01X6193295Y-4605031D01*
G01X6195430Y-4601813D01*
G01X6199097Y-4600888D01*
G01X6202663Y-4602200D01*
G37*
G36*
G01X6039943Y-4600923D02*
G01X6041100Y-4604124D01*
G01X6041121Y-4605031D01*
G01X6041935Y-4608777D01*
G01X6045143Y-4609931D01*
G01X6046052Y-4609952D01*
G01X6049805Y-4610765D01*
G01X6050962Y-4613967D01*
G01X6050983Y-4614873D01*
G01X6050168Y-4618620D01*
G01X6046960Y-4619774D01*
G01X6046052Y-4619795D01*
G01X6043221Y-4620078D01*
G01X6041751Y-4621573D01*
G01X6041199Y-4625245D01*
G01X6041121Y-4630552D01*
G01X6041457Y-4637397D01*
G01X6042642Y-4641311D01*
G01X6044572Y-4643081D01*
G01X6048509Y-4644205D01*
G01X6050238Y-4644055D01*
G01X6052450Y-4644714D01*
G01X6053511Y-4647471D01*
G01X6053131Y-4650580D01*
G01X6051589Y-4652148D01*
G01X6044318Y-4653208D01*
G01X6037624Y-4651185D01*
G01X6035203Y-4649322D01*
G01X6032883Y-4646068D01*
G01X6031664Y-4641441D01*
G01X6031265Y-4634268D01*
G01X6031259Y-4632820D01*
G01X6031101Y-4625854D01*
G01X6030443Y-4621869D01*
G01X6029010Y-4619915D01*
G01X6027314Y-4619224D01*
G01X6024105Y-4616992D01*
G01X6023369Y-4614873D01*
G01X6025026Y-4611739D01*
G01X6027314Y-4610523D01*
G01X6030628Y-4607889D01*
G01X6031259Y-4604801D01*
G01X6032131Y-4601213D01*
G01X6035479Y-4600122D01*
G01X6036190Y-4600110D01*
G01X6039943Y-4600923D01*
G37*
G36*
G01X6341299Y-4611181D02*
G01X6347466Y-4614843D01*
G01X6350568Y-4619120D01*
G01X6351653Y-4623439D01*
G01X6352436Y-4630259D01*
G01X6352757Y-4638147D01*
G01X6352758Y-4638588D01*
G01X6352695Y-4646069D01*
G01X6352322Y-4650444D01*
G01X6351357Y-4652547D01*
G01X6349523Y-4653208D01*
G01X6347827Y-4653259D01*
G01X6345186Y-4653038D01*
G01X6343710Y-4651784D01*
G01X6343060Y-4648612D01*
G01X6342899Y-4642637D01*
G01X6342896Y-4640335D01*
G01X6342463Y-4630730D01*
G01X6341003Y-4624459D01*
G01X6338272Y-4620994D01*
G01X6334024Y-4619809D01*
G01X6333359Y-4619795D01*
G01X6328577Y-4620415D01*
G01X6325526Y-4622713D01*
G01X6323856Y-4627343D01*
G01X6323217Y-4634962D01*
G01X6323172Y-4638889D01*
G01X6323108Y-4646275D01*
G01X6322721Y-4650565D01*
G01X6321720Y-4652598D01*
G01X6319812Y-4653217D01*
G01X6318179Y-4653259D01*
G01X6314032Y-4652342D01*
G01X6312183Y-4650651D01*
G01X6311802Y-4647629D01*
G01X6311617Y-4641701D01*
G01X6311647Y-4633892D01*
G01X6311752Y-4629512D01*
G01X6312108Y-4620766D01*
G01X6312632Y-4615206D01*
G01X6313492Y-4612083D01*
G01X6314854Y-4610647D01*
G01X6316032Y-4610273D01*
G01X6319812Y-4610760D01*
G01X6321205Y-4611930D01*
G01X6323404Y-4613298D01*
G01X6326736Y-4612124D01*
G01X6333963Y-4610149D01*
G01X6341299Y-4611181D01*
G37*
G36*
G01X6138273Y-4598422D02*
G01X6140396Y-4599679D01*
G01X6142590Y-4602532D01*
G01X6145299Y-4607600D01*
G01X6148967Y-4615504D01*
G01X6150230Y-4618318D01*
G01X6154242Y-4627332D01*
G01X6157975Y-4635795D01*
G01X6160941Y-4642594D01*
G01X6162344Y-4645877D01*
G01X6165434Y-4653259D01*
G01X6159643Y-4653259D01*
G01X6155480Y-4652618D01*
G01X6152991Y-4649953D01*
G01X6151574Y-4646370D01*
G01X6149296Y-4639480D01*
G01X6136528Y-4639480D01*
G01X6129622Y-4639564D01*
G01X6125562Y-4640138D01*
G01X6123250Y-4641686D01*
G01X6121588Y-4644692D01*
G01X6120875Y-4646370D01*
G01X6118090Y-4651258D01*
G01X6114655Y-4653141D01*
G01X6113086Y-4653259D01*
G01X6109391Y-4652632D01*
G01X6108182Y-4651438D01*
G01X6108924Y-4649060D01*
G01X6110963Y-4643776D01*
G01X6114016Y-4636286D01*
G01X6115985Y-4631606D01*
G01X6125880Y-4631606D01*
G01X6135795Y-4631606D01*
G01X6145710Y-4631606D01*
G01X6142511Y-4624224D01*
G01X6140197Y-4618614D01*
G01X6138521Y-4614075D01*
G01X6138309Y-4613397D01*
G01X6136756Y-4610485D01*
G01X6135795Y-4609952D01*
G01X6134049Y-4611562D01*
G01X6133281Y-4613397D01*
G01X6131864Y-4617400D01*
G01X6129627Y-4622945D01*
G01X6129080Y-4624224D01*
G01X6125880Y-4631606D01*
G01X6115985Y-4631606D01*
G01X6117801Y-4627291D01*
G01X6119263Y-4623879D01*
G01X6123682Y-4613727D01*
G01X6126946Y-4606660D01*
G01X6129410Y-4602121D01*
G01X6131431Y-4599558D01*
G01X6133364Y-4598416D01*
G01X6135563Y-4598142D01*
G01X6135776Y-4598141D01*
G01X6138273Y-4598422D01*
G37*
G36*
G01X6213788Y-4433894D02*
G01X6219253Y-4445295D01*
G01X6224086Y-4455527D01*
G01X6228038Y-4464052D01*
G01X6230860Y-4470330D01*
G01X6232305Y-4473823D01*
G01X6232442Y-4474320D01*
G01X6230662Y-4475306D01*
G01X6226084Y-4475950D01*
G01X6221963Y-4476094D01*
G01X6215269Y-4476422D01*
G01X6210809Y-4477818D01*
G01X6206900Y-4480898D01*
G01X6205815Y-4481999D01*
G01X6200146Y-4487905D01*
G01X6140509Y-4487905D01*
G01X6080872Y-4487905D01*
G01X6074955Y-4493810D01*
G01X6067753Y-4498735D01*
G01X6060179Y-4499840D01*
G01X6052741Y-4497121D01*
G01X6048858Y-4493962D01*
G01X6044088Y-4486854D01*
G01X6043269Y-4480293D01*
G01X6054853Y-4480293D01*
G01X6055685Y-4485067D01*
G01X6058362Y-4487469D01*
G01X6062506Y-4487574D01*
G01X6066382Y-4485385D01*
G01X6066683Y-4485047D01*
G01X6068694Y-4480495D01*
G01X6067231Y-4476873D01*
G01X6062766Y-4475146D01*
G01X6061831Y-4475110D01*
G01X6056866Y-4476487D01*
G01X6054853Y-4480293D01*
G01X6043269Y-4480293D01*
G01X6043129Y-4479168D01*
G01X6045995Y-4471385D01*
G01X6048199Y-4468371D01*
G01X6052495Y-4464253D01*
G01X6057240Y-4462555D01*
G01X6061637Y-4462314D01*
G01X6068160Y-4463034D01*
G01X6073108Y-4465813D01*
G01X6075637Y-4468220D01*
G01X6081306Y-4474125D01*
G01X6138137Y-4474125D01*
G01X6152651Y-4474103D01*
G01X6165797Y-4474041D01*
G01X6177083Y-4473944D01*
G01X6186016Y-4473817D01*
G01X6192105Y-4473668D01*
G01X6194857Y-4473502D01*
G01X6194967Y-4473460D01*
G01X6194188Y-4471315D01*
G01X6192132Y-4466528D01*
G01X6189219Y-4460011D01*
G01X6185869Y-4452676D01*
G01X6182500Y-4445436D01*
G01X6179534Y-4439204D01*
G01X6177390Y-4434890D01*
G01X6176541Y-4433427D01*
G01X6175270Y-4434549D01*
G01X6172867Y-4438556D01*
G01X6169752Y-4444713D01*
G01X6168107Y-4448257D01*
G01X6160871Y-4464283D01*
G01X6142555Y-4464283D01*
G01X6124238Y-4464283D01*
G01X6140565Y-4430326D01*
G01X6156891Y-4396370D01*
G01X6176013Y-4395805D01*
G01X6195135Y-4395241D01*
G01X6213788Y-4433894D01*
G37*
G36*
G01X6269033Y-4392236D02*
G01X6269257Y-4392389D01*
G01X6271660Y-4393469D01*
G01X6275715Y-4394299D01*
G01X6281920Y-4394918D01*
G01X6290775Y-4395367D01*
G01X6302778Y-4395688D01*
G01X6311609Y-4395834D01*
G01X6349799Y-4396370D01*
G01X6349799Y-4460346D01*
G01X6349782Y-4478165D01*
G01X6349715Y-4492509D01*
G01X6349574Y-4503841D01*
G01X6349336Y-4512623D01*
G01X6348978Y-4519318D01*
G01X6348476Y-4524388D01*
G01X6347807Y-4528295D01*
G01X6346948Y-4531503D01*
G01X6346069Y-4533975D01*
G01X6339999Y-4545219D01*
G01X6331383Y-4555220D01*
G01X6321348Y-4562697D01*
G01X6320348Y-4563236D01*
G01X6312548Y-4565937D01*
G01X6302175Y-4567662D01*
G01X6290487Y-4568373D01*
G01X6278744Y-4568028D01*
G01X6268204Y-4566588D01*
G01X6262684Y-4565078D01*
G01X6247919Y-4557780D01*
G01X6235078Y-4547063D01*
G01X6224142Y-4532908D01*
G01X6220484Y-4526628D01*
G01X6214294Y-4515155D01*
G01X6218781Y-4510388D01*
G01X6221910Y-4507692D01*
G01X6225679Y-4506243D01*
G01X6231376Y-4505682D01*
G01X6235836Y-4505621D01*
G01X6242735Y-4505738D01*
G01X6246850Y-4506390D01*
G01X6249339Y-4508030D01*
G01X6251363Y-4511113D01*
G01X6251765Y-4511852D01*
G01X6257440Y-4520467D01*
G01X6264279Y-4527983D01*
G01X6271291Y-4533411D01*
G01X6275212Y-4535269D01*
G01X6284227Y-4536851D01*
G01X6293365Y-4536151D01*
G01X6301223Y-4533383D01*
G01X6304804Y-4530753D01*
G01X6307369Y-4527715D01*
G01X6309366Y-4523997D01*
G01X6310865Y-4519101D01*
G01X6311933Y-4512526D01*
G01X6312639Y-4503774D01*
G01X6313049Y-4492345D01*
G01X6313234Y-4477740D01*
G01X6313263Y-4468712D01*
G01X6313310Y-4426881D01*
G01X6282191Y-4426881D01*
G01X6269017Y-4426791D01*
G01X6259207Y-4426405D01*
G01X6252179Y-4425548D01*
G01X6247353Y-4424048D01*
G01X6244149Y-4421730D01*
G01X6241986Y-4418419D01*
G01X6240423Y-4414364D01*
G01X6239695Y-4408353D01*
G01X6252204Y-4408353D01*
G01X6252923Y-4412233D01*
G01X6255601Y-4414685D01*
G01X6259709Y-4414975D01*
G01X6263501Y-4413272D01*
G01X6265017Y-4411039D01*
G01X6264906Y-4406121D01*
G01X6261951Y-4402595D01*
G01X6257290Y-4401688D01*
G01X6253601Y-4403903D01*
G01X6252204Y-4408353D01*
G01X6239695Y-4408353D01*
G01X6239431Y-4406178D01*
G01X6242239Y-4398944D01*
G01X6247354Y-4393675D01*
G01X6254374Y-4390274D01*
G01X6262121Y-4389764D01*
G01X6269033Y-4392236D01*
G37*
G36*
G01X6285879Y-4471548D02*
G01X6293058Y-4474962D01*
G01X6297974Y-4480574D01*
G01X6300480Y-4487452D01*
G01X6300427Y-4494663D01*
G01X6297670Y-4501276D01*
G01X6292061Y-4506360D01*
G01X6291434Y-4506699D01*
G01X6283486Y-4509296D01*
G01X6276219Y-4508219D01*
G01X6269233Y-4503653D01*
G01X6266118Y-4501060D01*
G01X6263252Y-4499365D01*
G01X6259723Y-4498377D01*
G01X6254617Y-4497904D01*
G01X6247023Y-4497758D01*
G01X6240941Y-4497747D01*
G01X6219389Y-4497747D01*
G01X6205205Y-4513348D01*
G01X6198673Y-4520728D01*
G01X6194468Y-4526090D01*
G01X6192115Y-4530190D01*
G01X6191142Y-4533783D01*
G01X6191022Y-4535917D01*
G01X6191912Y-4541682D01*
G01X6194910Y-4544957D01*
G01X6195134Y-4545081D01*
G01X6199458Y-4549270D01*
G01X6202534Y-4555681D01*
G01X6203670Y-4562639D01*
G01X6203429Y-4565191D01*
G01X6201226Y-4570091D01*
G01X6197197Y-4574958D01*
G01X6196554Y-4575525D01*
G01X6188967Y-4579668D01*
G01X6180991Y-4580111D01*
G01X6173398Y-4576850D01*
G01X6171901Y-4575674D01*
G01X6167436Y-4569468D01*
G01X6166367Y-4563880D01*
G01X6178133Y-4563880D01*
G01X6180824Y-4567308D01*
G01X6185212Y-4568208D01*
G01X6188729Y-4566884D01*
G01X6190531Y-4563837D01*
G01X6190701Y-4560517D01*
G01X6188665Y-4556688D01*
G01X6184914Y-4554947D01*
G01X6180948Y-4555507D01*
G01X6178265Y-4558579D01*
G01X6178208Y-4558751D01*
G01X6178133Y-4563880D01*
G01X6166367Y-4563880D01*
G01X6165982Y-4561871D01*
G01X6167543Y-4554041D01*
G01X6171791Y-4547474D01*
G01X6175310Y-4542940D01*
G01X6176899Y-4537903D01*
G01X6177215Y-4532052D01*
G01X6177292Y-4528088D01*
G01X6177812Y-4524881D01*
G01X6179211Y-4521778D01*
G01X6181923Y-4518126D01*
G01X6186384Y-4513271D01*
G01X6193028Y-4506560D01*
G01X6196481Y-4503124D01*
G01X6210390Y-4489295D01*
G01X6275372Y-4489295D01*
G01X6275965Y-4494046D01*
G01X6276071Y-4494252D01*
G01X6279477Y-4497246D01*
G01X6283785Y-4497260D01*
G01X6287373Y-4494336D01*
G01X6287592Y-4493953D01*
G01X6288777Y-4488905D01*
G01X6286832Y-4485257D01*
G01X6282625Y-4483968D01*
G01X6277862Y-4485512D01*
G01X6275372Y-4489295D01*
G01X6210390Y-4489295D01*
G01X6215747Y-4483968D01*
G01X6239804Y-4483968D01*
G01X6249961Y-4483922D01*
G01X6256886Y-4483708D01*
G01X6261292Y-4483217D01*
G01X6263893Y-4482335D01*
G01X6265400Y-4480953D01*
G01X6266062Y-4479864D01*
G01X6270141Y-4475663D01*
G01X6276371Y-4472547D01*
G01X6282972Y-4471264D01*
G01X6285879Y-4471548D01*
G37*
G36*
G01X6080550Y-4396519D02*
G01X6097464Y-4400289D01*
G01X6106309Y-4402871D01*
G01X6112170Y-4404781D01*
G01X6115847Y-4406461D01*
G01X6118140Y-4408357D01*
G01X6119846Y-4410912D01*
G01X6121191Y-4413466D01*
G01X6123447Y-4421236D01*
G01X6122432Y-4428334D01*
G01X6118816Y-4434268D01*
G01X6113268Y-4438545D01*
G01X6106459Y-4440671D01*
G01X6099059Y-4440154D01*
G01X6091736Y-4436500D01*
G01X6090856Y-4435795D01*
G01X6083715Y-4430847D01*
G01X6076050Y-4428044D01*
G01X6066462Y-4426945D01*
G01X6062625Y-4426881D01*
G01X6050831Y-4427901D01*
G01X6041026Y-4431326D01*
G01X6031720Y-4437708D01*
G01X6030506Y-4438752D01*
G01X6023571Y-4445705D01*
G01X6018877Y-4452883D01*
G01X6016052Y-4461263D01*
G01X6014727Y-4471822D01*
G01X6014493Y-4481015D01*
G01X6014589Y-4490344D01*
G01X6015026Y-4496913D01*
G01X6016034Y-4501899D01*
G01X6017838Y-4506477D01*
G01X6020336Y-4511228D01*
G01X6028462Y-4522000D01*
G01X6039041Y-4530100D01*
G01X6051340Y-4535164D01*
G01X6064623Y-4536832D01*
G01X6071247Y-4536303D01*
G01X6080267Y-4534026D01*
G01X6087611Y-4529809D01*
G01X6094008Y-4523038D01*
G01X6100186Y-4513101D01*
G01X6101278Y-4511030D01*
G01X6109168Y-4495789D01*
G01X6150514Y-4495784D01*
G01X6191860Y-4495779D01*
G01X6182146Y-4505621D01*
G01X6172433Y-4515464D01*
G01X6155523Y-4515464D01*
G01X6138614Y-4515464D01*
G01X6132393Y-4528055D01*
G01X6125530Y-4540165D01*
G01X6118070Y-4549318D01*
G01X6109089Y-4556478D01*
G01X6100658Y-4561191D01*
G01X6094458Y-4564088D01*
G01X6089199Y-4565993D01*
G01X6083695Y-4567142D01*
G01X6076761Y-4567774D01*
G01X6067213Y-4568126D01*
G01X6065817Y-4568161D01*
G01X6054542Y-4568249D01*
G01X6046113Y-4567806D01*
G01X6039454Y-4566730D01*
G01X6034192Y-4565176D01*
G01X6016981Y-4557237D01*
G01X6002639Y-4546628D01*
G01X5991024Y-4533221D01*
G01X5983293Y-4519755D01*
G01X5980458Y-4513375D01*
G01X5978591Y-4507824D01*
G01X5977451Y-4501885D01*
G01X5976800Y-4494343D01*
G01X5976425Y-4484952D01*
G01X5976248Y-4474234D01*
G01X5976560Y-4466256D01*
G01X5977477Y-4459835D01*
G01X5979120Y-4453793D01*
G01X5979736Y-4451982D01*
G01X5987478Y-4435354D01*
G01X5997926Y-4421414D01*
G01X5998790Y-4420666D01*
G01X6097029Y-4420666D01*
G01X6097458Y-4424666D01*
G01X6098183Y-4425732D01*
G01X6101931Y-4428344D01*
G01X6104237Y-4428850D01*
G01X6108317Y-4427430D01*
G01X6110291Y-4425732D01*
G01X6111650Y-4421735D01*
G01X6109873Y-4418154D01*
G01X6105698Y-4416166D01*
G01X6104237Y-4416055D01*
G01X6099534Y-4417403D01*
G01X6097029Y-4420666D01*
G01X5998790Y-4420666D01*
G01X6010787Y-4410290D01*
G01X6025772Y-4402111D01*
G01X6042588Y-4397005D01*
G01X6060944Y-4395098D01*
G01X6080550Y-4396519D01*
G37*
G54D11*
G01X7523228Y-3571932D02*
G01X7523228Y-3514683D01*
G01X7594882Y-3571932D02*
G01X7594882Y-3514683D01*
G01X6129134Y-3667207D02*
G01X6129134Y-3609958D01*
G01X6200787Y-3667207D02*
G01X6200787Y-3609958D01*
G01X5991339Y-3609958D02*
G01X5991339Y-3667207D01*
G01X6062992Y-3609958D02*
G01X6062992Y-3667207D01*
G01X6680315Y-3963337D02*
G01X6680315Y-4019341D01*
G01X6751969Y-3963337D02*
G01X6751969Y-4019341D01*
G01X5853543Y-2940667D02*
G01X5853543Y-2997916D01*
G01X5925197Y-2940667D02*
G01X5925197Y-2997916D01*
G01X5715748Y-2721703D02*
G01X5715748Y-2665699D01*
G01X5787402Y-2721703D02*
G01X5787402Y-2665699D01*
G01X6404724Y-3312877D02*
G01X6404724Y-3255627D01*
G01X6476378Y-3312877D02*
G01X6476378Y-3255627D01*
G01X6153150Y-2049606D02*
G01X6153150Y-2057874D01*
G01X6153150Y-2150787D02*
G01X6153150Y-2218898D01*
G01X6153150Y-2218898D02*
G01X6178740Y-2218898D01*
G01X6372441Y-2246457D02*
G01X6354724Y-2246457D01*
G01X6372441Y-2246457D02*
G01X6372441Y-2231102D01*
G01X6453150Y-2049606D02*
G01X6453150Y-2057874D01*
G01X6453150Y-2150787D02*
G01X6453150Y-2218898D01*
G01X6453150Y-2218898D02*
G01X6427165Y-2218898D01*
G01X6129134Y-3312877D02*
G01X6129134Y-3255627D01*
G01X6200787Y-3312877D02*
G01X6200787Y-3255627D01*
G01X6404724Y-3962714D02*
G01X6404724Y-4019963D01*
G01X6476378Y-3962714D02*
G01X6476378Y-4019963D01*
G01X7385827Y-2876772D02*
G01X7435827Y-2876772D01*
G01X7385827Y-2926772D02*
G01X7385827Y-2876772D01*
G01X7481496Y-2909843D02*
G01X7490551Y-2909843D01*
G01X7481496Y-2943701D02*
G01X7490551Y-2943701D01*
G01X7481827Y-3009843D02*
G01X7490551Y-3009843D01*
G01X7481827Y-3043701D02*
G01X7490551Y-3043701D01*
G01X7481827Y-3109843D02*
G01X7490551Y-3109843D01*
G01X7481827Y-3143701D02*
G01X7490551Y-3143701D01*
G01X7481827Y-3209843D02*
G01X7490551Y-3209843D01*
G01X7481827Y-3243701D02*
G01X7490551Y-3243701D01*
G01X7481827Y-3309843D02*
G01X7490551Y-3309843D01*
G01X7481827Y-3343701D02*
G01X7490551Y-3343701D01*
G01X7490551Y-2976772D02*
G01X7599213Y-2976772D01*
G01X7490551Y-3076772D02*
G01X7599213Y-3076772D01*
G01X7490551Y-3176772D02*
G01X7599213Y-3176772D01*
G01X7490551Y-3276772D02*
G01X7599213Y-3276772D01*
G01X7599213Y-3009843D02*
G01X7715433Y-3009843D01*
G01X7599213Y-3109843D02*
G01X7715433Y-3109843D01*
G01X7599213Y-3209843D02*
G01X7715433Y-3209843D01*
G01X7599213Y-3309843D02*
G01X7715433Y-3309843D01*
G01X7715433Y-3009843D02*
G01X7715433Y-3043701D01*
G01X7715433Y-3043701D02*
G01X7599213Y-3043701D01*
G01X7715433Y-3109843D02*
G01X7715433Y-3143701D01*
G01X7715433Y-3143701D02*
G01X7599213Y-3143701D01*
G01X7715433Y-3209843D02*
G01X7715433Y-3243701D01*
G01X7715433Y-3243701D02*
G01X7599213Y-3243701D01*
G01X7715433Y-3309843D02*
G01X7715433Y-3343701D01*
G01X7715433Y-3343701D02*
G01X7599213Y-3343701D01*
G01X7490551Y-2872441D02*
G01X7599213Y-2872441D01*
G01X7599213Y-2872441D02*
G01X7599213Y-3381102D01*
G01X7599213Y-3381102D02*
G01X7490551Y-3381102D01*
G01X7490551Y-3381102D02*
G01X7490551Y-2872441D01*
G01X7599213Y-2909843D02*
G01X7716929Y-2909843D01*
G01X7716929Y-2909843D02*
G01X7716929Y-2943701D01*
G01X7716929Y-2943701D02*
G01X7599213Y-2943701D01*
G01X7599213Y-2943701D02*
G01X7599213Y-2909843D01*
G36*
G01X7599213Y-2909843D02*
G01X7716929Y-2909843D01*
G01X7716929Y-2943701D01*
G01X7599213Y-2943701D01*
G01X7599213Y-2909843D01*
G37*
G01X6266929Y-3666585D02*
G01X6266929Y-3610581D01*
G01X6338583Y-3666585D02*
G01X6338583Y-3610581D01*
G01X6861417Y-3914764D02*
G01X6871457Y-3914764D01*
G01X6861417Y-4218701D02*
G01X6861417Y-3914764D01*
G01X6871457Y-4218701D02*
G01X6861417Y-4218701D01*
G01X7265551Y-3914764D02*
G01X7275591Y-3914764D01*
G01X7275591Y-3914764D02*
G01X7275591Y-4218701D01*
G01X7275591Y-4218701D02*
G01X7265551Y-4218701D01*
G01X6871260Y-4249803D02*
G01X6852756Y-4263189D01*
G01X6852756Y-4263189D02*
G01X6852756Y-4236417D01*
G01X6852756Y-4236417D02*
G01X6871260Y-4249803D01*
G36*
G01X6871260Y-4249803D02*
G01X6852756Y-4263189D01*
G01X6852756Y-4236417D01*
G01X6871260Y-4249803D01*
G37*
G01X6266929Y-2958546D02*
G01X6266929Y-2901297D01*
G01X6338583Y-2958546D02*
G01X6338583Y-2901297D01*
G01X6404724Y-2603593D02*
G01X6404724Y-2547589D01*
G01X6476378Y-2603593D02*
G01X6476378Y-2547589D01*
M02*
